<svg xmlns="http://www.w3.org/2000/svg" xmlns:xlink="http://www.w3.org/1999/xlink" width="816.937" height="12.534" viewBox="0 0 816.937 12.534"><defs><style>.a{fill:none;}.b{clip-path:url(#a);}.c{fill:#ff9d00;}</style><clipPath id="a"><rect class="a" width="816.937" height="12.534" transform="translate(0 0)"/></clipPath></defs><g transform="translate(0 0)"><g class="b"><path class="c" d="M4.6,0A4.463,4.463,0,0,0,0,4.317,4.464,4.464,0,0,0,4.6,8.635a4.464,4.464,0,0,0,4.6-4.318A4.463,4.463,0,0,0,4.6,0"/><path class="c" d="M431.822,2a4.463,4.463,0,0,0-4.6,4.317,4.6,4.6,0,0,0,9.192,0A4.463,4.463,0,0,0,431.822,2"/><path class="c" d="M812.342,3.9a4.463,4.463,0,0,0-4.6,4.317,4.6,4.6,0,0,0,9.192,0,4.463,4.463,0,0,0-4.6-4.317"/></g></g></svg>