<svg xmlns="http://www.w3.org/2000/svg" xmlns:xlink="http://www.w3.org/1999/xlink" width="400.749" height="8.635" viewBox="0 0 400.749 8.635"><defs><style>.a{fill:none;}.b{clip-path:url(#a);}.c{fill:#ff9d00;}</style><clipPath id="a"><rect class="a" width="400.749" height="8.635" transform="translate(0 0)"/></clipPath></defs><g transform="translate(0 0)"><g class="b"><path class="c" d="M9.191,4.317a4.463,4.463,0,0,1-4.6,4.317A4.462,4.462,0,0,1,0,4.317,4.462,4.462,0,0,1,4.595,0a4.463,4.463,0,0,1,4.6,4.317"/><path class="c" d="M228.883,4.317a4.6,4.6,0,0,1-9.191,0,4.6,4.6,0,0,1,9.191,0"/><path class="c" d="M400.749,4.317a4.6,4.6,0,0,1-9.191,0,4.6,4.6,0,0,1,9.191,0"/></g></g></svg>