<svg xmlns="http://www.w3.org/2000/svg" xmlns:xlink="http://www.w3.org/1999/xlink" width="287.241" height="316.859" viewBox="0 0 287.241 316.859"><defs><style>.a{fill:none;}.b{clip-path:url(#a);}.c{fill:#040504;}</style><clipPath id="a"><path class="a" d="M223.025,2.639,0,0,2.654,264.927l223.025,2.638Z"/></clipPath></defs><g transform="matrix(0.966, -0.259, 0.259, 0.966, 0, 58.41)"><g class="b" transform="translate(0 0)"><path class="c" d="M112.839,264.927l6.12-74.115c2.176-26.355,19.5-46.978,41.685-49.615l62.379-7.414-62.543-8.892c-22.239-3.162-39.985-24.2-42.69-50.613L110.185,0l-6.12,74.116c-2.176,26.354-19.5,46.978-41.685,49.615L0,131.145l62.543,8.892c22.239,3.162,39.985,24.2,42.69,50.613Z" transform="translate(1.328 1.319)"/></g></g></svg>