<svg xmlns="http://www.w3.org/2000/svg" xmlns:xlink="http://www.w3.org/1999/xlink" width="302.887" height="972.048" viewBox="0 0 302.887 972.048"><defs><style>.a,.e{fill:none;}.b{clip-path:url(#a);}.c{fill:url(#b);}.d{fill:#fff;}.e{stroke:#fff;stroke-miterlimit:10;}.f{fill:url(#e);}.g{fill:url(#h);}</style><clipPath id="a"><rect class="a" width="301.887" height="288.403"/></clipPath><linearGradient id="b" x1="-0.823" y1="2.395" x2="-0.82" y2="2.395" gradientUnits="objectBoundingBox"><stop offset="0" stop-color="#e93d51"/><stop offset="1" stop-color="#b7559b"/></linearGradient><linearGradient id="e" x1="-0.823" y1="1.24" x2="-0.82" y2="1.24" gradientUnits="objectBoundingBox"><stop offset="0" stop-color="#ffb04d"/><stop offset="1" stop-color="#d05c98"/></linearGradient><linearGradient id="h" x1="-0.823" y1="3.554" x2="-0.82" y2="3.554" gradientUnits="objectBoundingBox"><stop offset="0" stop-color="#ec5a17"/><stop offset="1" stop-color="#454f99"/></linearGradient></defs><g transform="translate(0.5)"><g transform="translate(0 342.326)"><g class="b"><rect class="c" width="301.887" height="288.403" transform="translate(0)"/></g></g><g transform="translate(0 342.327)"><g class="b"><path class="d" d="M102.451,488.7q25.758-15.906,52.5-30.136c15.336-8.179,31.485-15.29,49.058-16.432,18.82-1.222,36.911,4.573,55.261,7.685,9.017,1.528,18.22,2.452,27.349,1.436a59.159,59.159,0,0,0,23.677-7.6c11.8-6.971,19.543-18.1,28.51-28.11a208.165,208.165,0,0,1,33.005-29.9,206.063,206.063,0,0,1,44.465-24.385,228.1,228.1,0,0,1,48.811-13.214,253.307,253.307,0,0,1,51.075-2.854c16.136.743,32.307,3.107,47.713,8.071,3.43,1.106,6.83,2.332,10.15,3.737a2.586,2.586,0,0,0,3.421-.9,2.517,2.517,0,0,0-.9-3.42c-14.949-6.325-30.891-9.765-46.993-11.478a246.064,246.064,0,0,0-51.48.144,242.03,242.03,0,0,0-49.267,10.1,216.7,216.7,0,0,0-48.237,22.292,209.019,209.019,0,0,0-36.628,29.123q-7.58,7.545-14.406,15.8A130.83,130.83,0,0,1,316.516,432.9a52.244,52.244,0,0,1-18.3,10.808c-8.456,2.812-17.4,3.386-26.246,2.726-18.625-1.391-36.486-7.745-55.121-9.181a91.976,91.976,0,0,0-28.376,2.232,127.309,127.309,0,0,0-25.075,9.185c-8.38,3.986-16.513,8.509-24.629,13q-13.293,7.359-26.35,15.134-6.277,3.741-12.493,7.581c-2.732,1.687-.224,6.014,2.524,4.317" transform="translate(-248.403 -371.945)"/><path class="d" d="M587.018,346.721c-14.833-3.018-30.192-1.442-44.635,2.771-13.641,3.978-26.368,10.284-38.362,17.833a203.455,203.455,0,0,0-34.447,26.894,141.864,141.864,0,0,0-23.241,29.589c-5.552,9.539-9.929,19.695-14.041,29.92-3.974,9.877-7.685,19.827-12.151,29.458a134.883,134.883,0,0,1-16.857,28.042,110.253,110.253,0,0,1-27.82,24.417c-11.654,7.234-24.388,12.519-37.419,16.714a334.276,334.276,0,0,1-43.812,10.583c-15.669,2.794-31.469,4.754-47.305,6.318-16.563,1.635-33.162,2.859-49.755,4.129-16.647,1.273-33.294,2.589-49.892,4.412-15.756,1.731-31.63,3.66-47.008,7.615-13.718,3.528-27.1,8.931-37.531,18.79-9.828,9.291-16.568,21.661-22.75,33.531a288.843,288.843,0,0,0-17.94,42.588,345.668,345.668,0,0,0-11.185,43.407c-2.8,14.525-4.8,29.2-6.327,43.909C3.026,782.293,2,796.99,1.152,811.693Q.537,822.31,0,832.933c-.168,3.215,4.832,3.206,5,0,.753-14.537,1.521-29.074,2.615-43.589,1.094-14.487,2.5-28.96,4.565-43.342a402.844,402.844,0,0,1,8.555-43.465A304.066,304.066,0,0,1,34.958,660.1a244.045,244.045,0,0,1,20.7-39.468,71.854,71.854,0,0,1,11.612-13.8A63.6,63.6,0,0,1,84.56,595.9c13.467-5.9,28.366-8.523,42.827-10.617,16.106-2.331,32.333-3.851,48.547-5.209,16.6-1.39,33.218-2.544,49.82-3.913,16.253-1.34,32.491-2.892,48.651-5.091a440.4,440.4,0,0,0,45.389-8.384,240.422,240.422,0,0,0,40.681-13.518,131.692,131.692,0,0,0,33.7-21.187,114.186,114.186,0,0,0,22.042-26.63c5.651-9.336,10.076-19.336,14.18-29.428,3.995-9.823,7.677-19.778,12.021-29.416a150.312,150.312,0,0,1,16.856-29.145,159.8,159.8,0,0,1,28.138-28.231,193.8,193.8,0,0,1,36.12-23.037c12.75-6.146,26.662-10.591,40.823-11.7a76.917,76.917,0,0,1,21.336,1.149,2.561,2.561,0,0,0,3.074-1.746,2.523,2.523,0,0,0-1.746-3.075" transform="translate(-248.403 -371.945)"/><path class="d" d="M275.6,756.669c-3.873-18.907,4.321-37.569,16.111-52.162,14.609-18.082,34.2-31.521,54.462-42.528,21.379-11.611,44.063-20.69,67.057-28.55,24.466-8.363,49.406-15.014,74.326-21.848,23.1-6.334,46.763-12.96,67.787-24.726,19.118-10.7,34.859-26.706,43.476-47,10.053-23.669,9.205-49.619,13.705-74.524a180.988,180.988,0,0,1,25.528-65.749c11.714-18.241,26.8-34.085,43.764-47.516a266.4,266.4,0,0,1,58.778-34.731c5.541-2.421,11.161-4.657,16.834-6.749a2.568,2.568,0,0,0,1.746-3.075,2.52,2.52,0,0,0-3.076-1.746A290.488,290.488,0,0,0,691.721,338.6c-17.181,11.829-33.011,25.783-46.118,42.052a183.068,183.068,0,0,0-33.764,65.333,225.46,225.46,0,0,0-6.672,36c-1.511,13.5-2.515,27.105-5.786,40.332A95.212,95.212,0,0,1,587.624,550.5a90.212,90.212,0,0,1-21.713,23.51c-18.981,14.4-42.371,21.993-64.971,28.6-25.007,7.309-50.311,13.489-75.143,21.41-23.884,7.619-47.507,16.364-70.041,27.4-21.119,10.343-41.709,22.825-58.472,39.491-14.366,14.283-26.7,32.7-27.627,53.534A55.261,55.261,0,0,0,270.778,758a2.5,2.5,0,1,0,4.821-1.329" transform="translate(-248.403 -371.945)"/><path class="d" d="M601.684,380.462c1.106,17.871-3.018,35.609-10.659,51.727-8.7,18.352-21.373,34.572-35.748,48.817a295.91,295.91,0,0,1-45.722,36.486,470.268,470.268,0,0,1-53.8,30.277c-19.863,9.625-40.268,18.1-60.984,25.708-21.421,7.868-43.15,14.858-64.843,21.929-21.516,7.013-43.03,14.079-64.172,22.168-20.619,7.888-41.023,16.694-60.1,27.86-17.467,10.221-34.121,22.6-46.242,39.012-11.064,14.975-17.68,33.354-16.481,52.108a75.757,75.757,0,0,0,2.031,13.172c.766,3.124,5.589,1.8,4.822-1.329-4.285-17.477-1.255-35.645,7.422-51.306,9.712-17.529,25.183-30.912,41.8-41.7,18.094-11.739,37.8-20.907,57.768-28.954,20.944-8.439,42.35-15.678,63.8-22.72,21.74-7.139,43.56-14.051,65.136-21.68,21.018-7.431,41.764-15.646,62.018-24.971A504.972,504.972,0,0,0,502.86,527.7a335.905,335.905,0,0,0,46.355-34.156c15.63-13.906,29.787-29.839,40.372-47.953,9.314-15.94,15.726-33.7,17.044-52.2a97.29,97.29,0,0,0,.053-12.936c-.2-3.2-5.2-3.219-5,0" transform="translate(-248.403 -371.945)"/><path class="d" d="M161.384,520.727a272.333,272.333,0,0,0,46.629-3.957,286.221,286.221,0,0,0,43.175-10.938,299.507,299.507,0,0,0,38.636-16.122,293.151,293.151,0,0,0,35.169-20.935c12.766-8.828,24.9-18.528,36.739-28.558,11.419-9.677,22.582-19.65,34-29.327,10.557-8.946,21.337-17.639,32.662-25.6a320.067,320.067,0,0,1,32.733-20.245,283.758,283.758,0,0,1,37.312-16.732,277.317,277.317,0,0,1,42.788-11.752q5.667-1.078,11.374-1.921a2.517,2.517,0,0,0,1.746-3.076,2.564,2.564,0,0,0-3.075-1.746,279.217,279.217,0,0,0-44.115,10.243,288.026,288.026,0,0,0-39.077,15.8,309.51,309.51,0,0,0-33.871,19.435,393.541,393.541,0,0,0-31.91,23.654c-11.634,9.48-22.875,19.426-34.217,29.25-11.417,9.888-22.958,19.651-35.071,28.681a313.1,313.1,0,0,1-36.08,23.447,289.951,289.951,0,0,1-78.447,29.341,268.072,268.072,0,0,1-45.41,5.838q-5.843.242-11.692.222c-3.218-.009-3.222,4.991,0,5" transform="translate(-248.403 -371.945)"/><path class="d" d="M564.389,373.914a506.9,506.9,0,0,0-50.4,35.531c-7.774,6.249-15.43,12.7-22.615,19.627-6.771,6.525-13.281,13.63-18.027,21.8a47.633,47.633,0,0,0-5.022,11.82,29.418,29.418,0,0,0-.839,12.584c.881,4.644,4.853,7.25,9,8.748a42.21,42.21,0,0,0,14.593,2.106c19.833-.174,37.151-10.751,54.067-19.856l58.362-31.412,7.24-3.9c2.835-1.526.313-5.844-2.523-4.318l-56.388,30.349c-8.934,4.809-17.8,9.79-26.849,14.379-7.844,3.977-16.051,7.335-24.743,8.9a54.15,54.15,0,0,1-13.919.685c-3.936-.316-8.533-1.055-11.806-3.442-2.987-2.178-2.558-6.482-2.13-9.754a35.463,35.463,0,0,1,3.279-10.613c3.844-8.018,9.69-14.912,15.879-21.216a276.832,276.832,0,0,1,21.506-19.313A482.553,482.553,0,0,1,560.444,382.3q3.219-2.058,6.469-4.072c2.729-1.693.221-6.02-2.524-4.317" transform="translate(-248.403 -371.945)"/><path class="d" d="M607.449,624.763c-17.788-.521-35.6-.957-53.389-.281-17.087.649-34.289,2.267-50.925,6.366A143.585,143.585,0,0,0,457.841,651a360.223,360.223,0,0,0-40.856,32.153,338.084,338.084,0,0,0-35.236,36.6q-1.906,2.319-3.766,4.676a2.58,2.58,0,0,0,0,3.536,2.518,2.518,0,0,0,3.536,0A329.05,329.05,0,0,1,415.4,691.371a381.518,381.518,0,0,1,40.051-32.685c13.344-9.422,27.681-17.029,43.435-21.535,15.961-4.565,32.558-6.506,49.1-7.392,17.629-.944,35.3-.66,52.937-.181q3.264.089,6.528.185c3.219.094,3.216-4.906,0-5" transform="translate(-248.403 -371.945)"/><path class="d" d="M209.612,374.619c4.312,5.163,12.113,6.7,18.442,7.337a53.345,53.345,0,0,0,23.578-2.834,57.444,57.444,0,0,0,20.013-12.77A100.269,100.269,0,0,0,288.3,345.474a75.4,75.4,0,0,0,9.9-26.608l-4.178,1.1a48.71,48.71,0,0,1,11.677,19.251,39.28,39.28,0,0,1,.7,20.038c-3.593,15.845-15.757,28.5-29.215,37.194-15.756,10.177-34.041,15.939-52.356,19.412a239.934,239.934,0,0,1-59.731,3.474c-18.982-1.2-38.029-4.53-55.918-11.117q-3.063-1.128-6.071-2.393a2.513,2.513,0,0,0-3.075,1.746,2.566,2.566,0,0,0,1.746,3.075c18.02,7.574,37.5,11.454,56.9,13.2a247.834,247.834,0,0,0,61.877-2.177c19.025-3.094,38.114-8.562,54.871-18.283,15.093-8.755,29.054-21.664,34.632-38.633a45.4,45.4,0,0,0,1.579-22.163,49.221,49.221,0,0,0-9.952-21.373q-1.947-2.5-4.136-4.785c-1.2-1.257-3.879-.785-4.178,1.1-2.605,16.445-11.464,31.035-22.886,42.9a56.923,56.923,0,0,1-16.818,12.471,48.015,48.015,0,0,1-21.768,4.3,42.418,42.418,0,0,1-11.309-1.741,15.172,15.172,0,0,1-7.443-4.38,2.52,2.52,0,0,0-3.536,0,2.556,2.556,0,0,0,0,3.536" transform="translate(-248.403 -371.945)"/></g></g><rect class="e" width="301.887" height="288.403" transform="translate(0 342.326)"/><g transform="translate(0 683.644)"><g class="b"><rect class="f" width="301.887" height="288.403" transform="translate(0)"/></g></g><g transform="translate(0 683.645)"><g class="b"><path class="d" d="M260.08,695.483c6.585-.209,12.065,3.852,15.457,9.283a28.163,28.163,0,0,1,3.735,9.47,43.758,43.758,0,0,1,.138,12.8c-.923,9.007-3.421,18.054-2.7,27.164a34.558,34.558,0,0,0,7.388,19.382A21.9,21.9,0,0,0,292,779.649c4.1,1.812,8.424,2.044,12.849,2a36.04,36.04,0,0,1,11.691,1.354,30.861,30.861,0,0,1,8.964,4.78c11.529,8.658,17.059,22.537,23.369,34.967,6.437,12.68,14.936,25.785,29.007,30.7,8.364,2.924,17.283,1.969,25.918,1.2,8.041-.717,16.476-1.241,23.968,2.3,11.945,5.641,18.239,18.309,23.582,29.748,1.455,3.115,2.866,6.252,4.324,9.366a76.255,76.255,0,0,0,4.664,9.156,11.668,11.668,0,0,0,4.354,4.24,11.5,11.5,0,0,0,7,.814c2.3-.338,4.547-1.006,6.84-1.408a58.7,58.7,0,0,1,6.665-.75c18.5-1.1,36.826,4.38,55.312,1.659,17.023-2.5,31.669-12.332,44.763-22.933,3.208-2.6,6.354-5.268,9.492-7.95a2.521,2.521,0,0,0,0-3.535,2.552,2.552,0,0,0-3.536,0c-12.508,10.689-25.637,21.79-41.495,27.067-8.4,2.793-17.06,3.455-25.858,3.045-9.25-.431-18.423-1.825-27.669-2.32a90.842,90.842,0,0,0-13.683.176,66.7,66.7,0,0,0-6.864,1.012,32.5,32.5,0,0,1-6.4,1.161c-3.784,0-5.286-3.84-6.741-6.732-1.525-3.033-2.948-6.116-4.364-9.2-5.528-12.041-11.147-25.093-22-33.344a36.144,36.144,0,0,0-20.8-7.07c-8.835-.328-17.583,1.638-26.419,1.269a31.89,31.89,0,0,1-19.745-7.679c-5.337-4.6-9.355-10.453-12.809-16.538-3.513-6.192-6.31-12.735-9.626-19.027A81.813,81.813,0,0,0,334.3,789.051c-4.853-5.152-10.859-9.379-17.748-11.258-4.154-1.134-8.371-1.154-12.644-1.133-3.871.019-7.682-.248-11.112-2.19-5.551-3.143-8.766-9.166-10.246-15.2-1.944-7.927-.436-16.151.775-24.1,1.3-8.555,2.6-17.621-.236-26.015-2.251-6.654-6.65-13.028-12.991-16.343a20.222,20.222,0,0,0-10.017-2.328c-3.21.1-3.224,5.1,0,5" transform="translate(-248.403 -705.114)"/><path class="d" d="M322.779,699.9c1.8,8.26,3.7,16.558,7.4,24.211a40.672,40.672,0,0,0,15.444,17.41,30.721,30.721,0,0,0,10.695,4.041,34.841,34.841,0,0,0,12.288-.509c3.6-.674,7.7-1.762,11.272-.415,3.238,1.223,4.82,4.6,5.962,7.628a151.835,151.835,0,0,1,7.275,26.585q1.2,6.658,1.781,13.4c.32,3.718.11,8.434,3.594,10.8,3.958,2.692,8.877-.274,12.823-1.515a79.438,79.438,0,0,1,13.129-2.955,75.518,75.518,0,0,1,13.365-.644c3.289.143,6.666.823,8.363,3.907,1.5,2.734,1.683,6.189,2.294,9.229a18.642,18.642,0,0,0,4.358,9.258c4.96,5.373,13.079,7.254,20.131,6.4,8.769-1.065,16.823-5.33,24.51-9.444a39.225,39.225,0,0,0,10.136-7.21,26.15,26.15,0,0,0,5.76-9.673c2.409-7.115,1.9-14.914.647-22.2a84.1,84.1,0,0,0-6.416-21.866,31,31,0,0,0-15.335-15.366c-6.591-2.905-13.744-3.807-20.85-4.505-6.982-.686-14.065-1.115-20.822-3.147A32.691,32.691,0,0,1,433.355,720.9a55.055,55.055,0,0,1-8.377-45.112A53.71,53.71,0,0,1,428.937,665c1.425-2.873-2.886-5.409-4.317-2.523a60.574,60.574,0,0,0-2.858,46.842,52.357,52.357,0,0,0,12.34,20.054,38.765,38.765,0,0,0,19.495,9.867c7.007,1.462,14.184,1.78,21.279,2.6,6.427.742,13.076,1.966,18.638,5.451,6.186,3.876,9.712,10.379,11.94,17.139a87.624,87.624,0,0,1,4.476,21.276c.446,6.672-.326,13.78-4.5,19.263-2.4,3.156-5.755,5.376-9.174,7.288-3.7,2.069-7.524,4-11.385,5.752-6.857,3.115-14.538,5.274-21.944,2.86a14.458,14.458,0,0,1-7.326-4.984c-1.88-2.619-2.3-5.922-2.838-9.018-.576-3.279-1.323-6.575-3.437-9.238-2.565-3.231-6.536-4.33-10.492-4.626A78.109,78.109,0,0,0,412.428,796q-3.236.906-6.386,2.08c-1.231.458-3.676,1.792-4.894.756-.819-.7-.929-2.376-1.012-3.422-.178-2.231-.343-4.46-.587-6.685a158.709,158.709,0,0,0-5.289-26.886,117.839,117.839,0,0,0-4.215-12.456c-1.479-3.56-3.569-7.068-7.149-8.848-7.591-3.772-15.761.94-23.647.384-7.073-.5-13.567-4.507-18.3-9.6-5.425-5.832-8.436-13.45-10.544-21.016-1.08-3.873-1.943-7.8-2.8-11.729-.685-3.143-5.506-1.813-4.821,1.329" transform="translate(-248.403 -705.114)"/><path class="d" d="M547.438,778.614c-2.2,7.784-.505,15.768,1.2,23.466,1.345,6.063,2.708,12.408,1.5,18.621a17.547,17.547,0,0,1-3.227,7.564,17.13,17.13,0,0,1-6.239,4.756c-4.91,2.356-10.487,3.133-15.716,4.52-5.295,1.4-10.819,3.458-14.513,7.706a18.434,18.434,0,0,0-3.89,15.719,24.727,24.727,0,0,0,8.7,14.426c5.376,4.317,12.109,6.366,18.872,7.147,17.029,1.965,33.313-5.068,50.217-5.358,3.214-.055,3.224-5.056,0-5-14.895.255-29.162,5.746-44.068,5.7-11.286-.031-24.479-3.792-28.274-15.742-1.426-4.49-1.252-9.65,1.975-13.361,3.3-3.79,8.21-5.369,12.956-6.59,5.384-1.385,10.894-2.356,15.97-4.717a21.062,21.062,0,0,0,11.231-12.348c2.232-6.466,1.561-13.647.222-20.223-1.658-8.146-4.444-16.667-2.1-24.962.877-3.1-3.946-4.425-4.821-1.329" transform="translate(-248.403 -705.114)"/><path class="d" d="M243.671,801.4a154.555,154.555,0,0,0,54.317,48.145c10.369,5.525,21.447,9.331,32.167,14.072,9.719,4.3,19.76,9.679,25.912,18.67,7.021,10.261,7.775,23.052,7.7,35.1-.087,14.531-.535,29.068-.817,43.6-.137,7.069-.532,14.186-.322,21.254.185,6.226,1.512,12.576,6.1,17.1,4.275,4.213,10.193,6.22,15.83,7.857,7.007,2.035,14.042,3.978,21.063,5.965l10.736,3.037c3.417.967,6.909,2.242,10.482,2.448,5.789.335,10.223-3.616,11.216-9.187.987-5.54-.522-10.971-2.194-16.221a112.286,112.286,0,0,0-7.922-18.749q-2.338-4.379-5.064-8.532v2.524a6.085,6.085,0,0,1,4.944-2.962,16.422,16.422,0,0,1,7.872,1.314c2.812,1.157,5.261,3.171,7.663,5.019a45.187,45.187,0,0,0,8.378,5.539,19.709,19.709,0,0,0,10.9,1.746c3.822-.471,7.566-1.627,11.45-1.332,5.937.452,11.194,4.063,16.025,7.225,5.424,3.55,11.058,7.29,17.561,8.442,8.209,1.454,16.368-.795,23.917-3.934,7.665-3.187,15.137-6.9,22.568-10.593q11.229-5.58,22.24-11.586,21.851-11.918,42.753-25.476,2.543-1.65,5.07-3.324c1.88-1.245,1.394-4.919-1.262-4.659l-59.989,5.874-59.742,5.85c-3.425.335-8.1,1.035-10.606-1.495-1.5-1.516-1.8-3.96-1.3-6.176a10.489,10.489,0,0,1,4.159-6.375c3.258-2.159,7.285-2.8,11.119-2.9a106.461,106.461,0,0,1,12.527.775q6.384.594,12.788.906a203.777,203.777,0,0,0,25.311-.277c16.7-1.295,33.408-5.047,48.187-13.153q2.688-1.476,5.267-3.137c2.7-1.733.2-6.063-2.524-4.318-14.361,9.22-31.132,13.741-48,15.354a195.582,195.582,0,0,1-26.127.622c-4.417-.171-8.828-.461-13.231-.846-4.308-.378-8.614-.932-12.944-.94-7.7-.014-16.542,2.035-20.141,9.617-2.948,6.21-1.772,14.191,5.292,16.827,4.447,1.66,9.616.573,14.189.125l15.369-1.505,30.987-3.034,61.725-6.044,7.684-.752q-.63-2.33-1.262-4.659-20.844,13.8-42.7,25.976c-14.665,8.169-29.639,15.827-44.907,22.807-7.189,3.287-15.013,6.442-23.073,5.867-6.543-.467-12.144-4.094-17.483-7.588-5.208-3.408-10.654-7.109-16.913-8.178-3.91-.667-7.62-.138-11.487.58-3.58.665-7.007.967-10.453-.445-6.04-2.477-10.258-7.952-16.174-10.621-5.1-2.3-12.093-3.538-16.967-.009a10.243,10.243,0,0,0-2.98,3.327,2.5,2.5,0,0,0,0,2.524,109.017,109.017,0,0,1,9.24,17.265c1.273,3.025,2.393,6.117,3.376,9.248a51.44,51.44,0,0,1,2.033,7.846,16.3,16.3,0,0,1-.234,6.459,5.512,5.512,0,0,1-3.066,3.943c-2.591,1.13-5.987-.1-8.643-.852l-10.5-2.971-20.517-5.8c-5.529-1.565-11.454-2.9-16.206-6.295-4.686-3.353-6.145-8.77-6.392-14.267-.307-6.834.131-13.744.263-20.58.276-14.2.619-28.4.82-42.6.172-12.127-.24-24.812-5.843-35.852-10.474-20.637-35.395-26.026-54.679-34.955a151.453,151.453,0,0,1-55.285-43.456c-1.723-2.188-3.364-4.441-4.949-6.731a2.564,2.564,0,0,0-3.42-.9,2.522,2.522,0,0,0-.9,3.42" transform="translate(-248.403 -705.114)"/><path class="d" d="M215.775,878.14c3.017,4.286,8.02,6.074,13.125,6.143,5.63.077,10.771-2.131,15.863-4.27,4.85-2.037,9.658-3.681,14.975-3.564a30.294,30.294,0,0,1,12.959,3.267,28.045,28.045,0,0,1,9.982,8.2c3.333,4.546,4.455,9.985,5.9,15.325s3.465,10.558,7.574,14.445c4.011,3.795,9.442,5.676,14.873,4.15,5.16-1.45,9.143-5.547,14.387-6.684,1.8-.39,4.017-.493,5.558.63,1.786,1.3,1.9,3.806,1.946,5.837.3,12.07-2.713,23.943-7.035,35.133-2.168,5.612-4.7,11.074-7.4,16.448-2.766,5.509-5.82,10.872-8.5,16.422-4.866,10.061-8.23,21.175-4.843,32.249,2.674,8.742,8.8,15.942,15.887,21.512,7.862,6.179,16.781,10.742,25.986,14.561q3.309,1.374,6.674,2.606v-4.821a58.241,58.241,0,0,1-39.924-3.459c-12.508-5.764-22.854-15.566-27.9-28.515-3.075-7.886-4.694-16.23-7.321-24.261-2.551-7.8-6.174-15.117-11.866-21.108-10.687-11.249-26.561-17.2-41.94-17.207-16.767-.009-33.033,6.623-45.968,17.089q-2.352,1.9-4.547,3.987c-2.343,2.214,1.2,5.745,3.536,3.535,11.629-10.987,27-18.48,43.08-19.489,14.847-.932,30.392,3.916,41.136,14.436,5.6,5.484,9.165,12.3,11.616,19.687,2.661,8.02,4.273,16.364,7.3,24.267a55.288,55.288,0,0,0,11.43,18.44,61.278,61.278,0,0,0,16.44,12.246,64.764,64.764,0,0,0,41.183,6.375c1.711-.319,3.4-.724,5.077-1.2,2.505-.715,2.235-4,0-4.821a125.353,125.353,0,0,1-25.936-12.657c-7.308-4.836-14.115-11.021-17.833-19.1a28.5,28.5,0,0,1-2.534-12.595c.147-5.681,1.963-11.239,4.263-16.389,2.446-5.474,5.419-10.69,8.171-16.011,2.825-5.463,5.483-11.007,7.863-16.679,4.658-11.1,8.114-22.795,8.809-34.867.309-5.351.861-12.26-4.054-15.78-4.191-3-10.167-1.724-14.425.418-4.293,2.16-8.838,6.283-14.011,5.171-4.629-.995-8.049-5.025-9.9-9.187-2.4-5.411-2.993-11.444-5.265-16.912a29.582,29.582,0,0,0-8.4-11.405,35.344,35.344,0,0,0-26.7-8.031c-5.737.74-10.81,3.28-16.14,5.354-4.514,1.756-9.381,3.033-14.174,1.619a8.506,8.506,0,0,1-4.642-3.064,2.567,2.567,0,0,0-3.42-.9,2.52,2.52,0,0,0-.9,3.42" transform="translate(-248.403 -705.114)"/><path class="d" d="M381.855,887.5c5.159,6.533,12.423,10.953,19.658,14.844,3.6,1.938,7.325,3.7,10.829,5.813,3.074,1.855,6.036,4.311,5.967,8.209-.066,3.765-2.3,7.729-4.58,10.621-2.338,2.967-5.5,5.021-9.329,3.625-3.369-1.229-6-4.265-7.807-7.252a53.661,53.661,0,0,1-4.375-9.971c-1.545-4.346-3.255-8.566-5.126-12.782-1.929-4.347-3.884-9.173-2.419-13.944.946-3.083-3.879-4.4-4.822-1.329-1.523,4.963-.3,10.041,1.6,14.711,1.741,4.267,3.714,8.4,5.259,12.745,2.814,7.924,5.8,16.729,13.453,21.29,4.316,2.573,9.517,2.742,13.656-.278,3.724-2.716,6.323-6.892,8.059-11.1,1.836-4.452,2.111-9.588-.884-13.613-2.76-3.71-7.009-5.814-11.006-7.92-8.855-4.665-18.262-9.178-24.6-17.206a2.516,2.516,0,0,0-3.536,0,2.562,2.562,0,0,0,0,3.536" transform="translate(-248.403 -705.114)"/></g></g><g transform="translate(0 0)"><g class="b"><rect class="g" width="301.887" height="288.403" transform="translate(0)"/></g></g><g transform="translate(0 0)"><g class="b"><path class="d" d="M359.46,1.766c-7.343,27.03-11.1,55.5-7.12,83.393a128.437,128.437,0,0,0,12.224,39.6,127,127,0,0,0,21.727,30.4c17.609,18.443,39.813,32.1,62.935,42.522a339.165,339.165,0,0,0,82.286,24.989c29.545,5.017,59.8,5.921,89.446,1.231q5.433-.86,10.82-1.974a2.5,2.5,0,0,0-1.33-4.822c-28.763,5.931-58.549,6.233-87.6,2.278a338.578,338.578,0,0,1-82.584-22.352c-23.046-9.462-45.4-21.9-63.786-38.874a130.229,130.229,0,0,1-22.985-27.638,118.866,118.866,0,0,1-14.543-36.744c-5.79-26.584-3.331-54.44,2.812-80.728q1.168-5,2.521-9.955c.845-3.109-3.977-4.436-4.821-1.329" transform="translate(-248.403 -37.79)"/><path class="d" d="M410.048,3.221a127.4,127.4,0,0,0-5.357,64.3,82.64,82.64,0,0,0,5.639,19.6,45.5,45.5,0,0,0,11.149,15.5,55.426,55.426,0,0,0,14.684,9.273c11.629,5.106,24.184,7.114,36.737,8.385,13.977,1.415,28.207,2.094,41.695,6.36,10.845,3.429,20.381,9.642,29.318,16.549,17.426,13.468,34.225,30.226,57.139,33.007,22.117,2.684,45.478-10.91,53.82-31.589a39.488,39.488,0,0,0,2.176-7.446,2.567,2.567,0,0,0-1.746-3.075,2.524,2.524,0,0,0-3.076,1.746c-3.908,20.651-24.658,35.433-45.138,35.691-21.866.275-39.137-15.479-55.139-28.315-8.475-6.8-17.234-13.472-27.178-17.987-12.489-5.671-26.112-7.473-39.641-8.781-12.652-1.224-25.379-2.1-37.634-5.713-10.649-3.143-21.318-8.464-28-17.647a52.77,52.77,0,0,1-7.95-17.522,110.48,110.48,0,0,1-3.332-19.635,123.545,123.545,0,0,1,3.667-41.683q1.3-4.9,2.991-9.69a2.524,2.524,0,0,0-1.746-3.075,2.55,2.55,0,0,0-3.075,1.746" transform="translate(-248.403 -37.79)"/><path class="d" d="M466.711,24.119c.488,13.59,1.521,28.394,11.066,39.012,9.9,11.015,25.949,14.31,39.873,16.782,15.911,2.826,32.165,4.318,47.549,9.535,14.205,4.817,28.3,12.443,43.777,11.03,13.24-1.21,25.876-8.166,33.442-19.188a37.3,37.3,0,0,0,2.409-4.049c1.471-2.856-2.842-5.388-4.317-2.524-5.622,10.919-16.674,18.247-28.646,20.373-14.212,2.524-27.779-3.986-40.747-8.822a141.6,141.6,0,0,0-22.088-6.189c-7.74-1.531-15.556-2.621-23.345-3.864a196.986,196.986,0,0,1-22.32-4.554c-6.335-1.781-12.66-4.211-17.931-8.241-10.69-8.173-12.86-21.789-13.515-34.4-.085-1.632-.148-3.265-.207-4.9-.115-3.208-5.116-3.223-5,0" transform="translate(-248.403 -37.79)"/><path class="d" d="M195.277,116.573a404.151,404.151,0,0,1,81.033,26.1A418.491,418.491,0,0,1,314.3,161.9q18.336,10.48,35.564,22.755a416.848,416.848,0,0,1,63,55.251A398.149,398.149,0,0,1,439.4,271.486a388.332,388.332,0,0,1,23.067,34.2,370.429,370.429,0,0,1,19.191,36.448,346.469,346.469,0,0,1,14.721,37.982q1.521,4.734,2.9,9.51c.894,3.084,5.721,1.772,4.821-1.33A353.264,353.264,0,0,0,490.2,349.222a367.294,367.294,0,0,0-18.206-37.09,384.047,384.047,0,0,0-22.311-35.05,406.9,406.9,0,0,0-26.343-33.067,413.249,413.249,0,0,0-29.473-30.047q-15.677-14.44-32.756-27.246A423.311,423.311,0,0,0,325.862,162.9a420.282,420.282,0,0,0-77.538-36.688,402.418,402.418,0,0,0-41.341-12.155q-5.174-1.223-10.377-2.306a2.559,2.559,0,0,0-3.075,1.746,2.524,2.524,0,0,0,1.746,3.075" transform="translate(-248.403 -37.79)"/><path class="d" d="M214.207,187.81a134.412,134.412,0,0,1,49.7,30.726,154.383,154.383,0,0,1,18.522,22.629c5.739,8.265,11.495,16.728,19.1,23.423,7.82,6.885,17.269,11.171,26.514,15.756,8.391,4.161,16.263,8.861,22.9,15.54,11.676,11.75,18.941,26.975,26.171,41.658,7.383,14.992,15.009,30.313,26.948,42.279q2.189,2.194,4.553,4.2a2.564,2.564,0,0,0,3.535,0,2.52,2.52,0,0,0,0-3.535c-12.864-10.948-21-25.9-28.415-40.808-7.477-15.029-14.51-30.584-25.6-43.384a76.128,76.128,0,0,0-20.808-16.755c-9.046-5.008-18.8-8.756-27.349-14.65-8.262-5.7-14.449-13.705-20.16-21.837-5.787-8.24-11.432-16.522-18.323-23.9a139.1,139.1,0,0,0-49.067-33.562q-3.41-1.394-6.889-2.6a2.5,2.5,0,0,0-1.329,4.821" transform="translate(-248.403 -37.79)"/><path class="d" d="M231.845,261.05c6.9,8.443,16.181,14.465,25.279,20.279,9.168,5.858,18.131,11.771,25.613,19.764,14.727,15.734,23.283,36,31.8,55.489q1.822,4.174,3.672,8.337a37.709,37.709,0,0,0,4.447,8.137c3.821,4.868,10.95,7.21,16.148,3.023a2.516,2.516,0,0,0,0-3.536,2.559,2.559,0,0,0-3.535,0c-1.421,1.144-3.719.847-5.279.2-2.235-.931-3.754-2.974-4.908-5.017-2.575-4.56-4.452-9.6-6.546-14.393-4.194-9.6-8.38-19.224-13.317-28.473a130.125,130.125,0,0,0-17.611-25.845c-7.218-8.042-15.866-14.254-24.918-20.058-9.756-6.255-19.876-12.355-27.306-21.44a2.519,2.519,0,0,0-3.536,0,2.558,2.558,0,0,0,0,3.536" transform="translate(-248.403 -37.79)"/><path class="d" d="M304.237,27.688c2.559,12.492,5.13,25.38,3.538,38.177a44.123,44.123,0,0,1-14.954,28.281,49.634,49.634,0,0,1-27.866,11.841,47.441,47.441,0,0,1-29.411-7.352c-9.427-5.972-16.868-15.211-19.709-26.088-.812-3.11-5.636-1.791-4.821,1.33,5.694,21.8,27.632,37.321,49.866,37.288a54.41,54.41,0,0,0,31.852-10.6A48.8,48.8,0,0,0,311.76,71.933c3.388-15.1.347-30.693-2.7-45.574a2.5,2.5,0,0,0-4.821,1.329" transform="translate(-248.403 -37.79)"/><path class="d" d="M557.141,269.388c-8.266-7.342-19.344-15.823-31.1-11.778a22.584,22.584,0,0,0-12.1,10.336c-3.075,5.452-3.892,11.88-3.58,18.05,1.052,20.845,11.149,40.871,25.671,55.6a93.044,93.044,0,0,0,28.945,19.947,2.582,2.582,0,0,0,3.421-.9,2.518,2.518,0,0,0-.9-3.42A89.287,89.287,0,0,1,525.327,319.1a80.8,80.8,0,0,1-9.251-26.406c-1.568-9.706-1.468-21.969,7.481-28.247,10.548-7.4,22.109,1.424,30.048,8.477,2.4,2.13,5.948-1.394,3.536-3.536" transform="translate(-248.403 -37.79)"/><path class="d" d="M231.221,164.637c13.478,15.791,33.1,24.071,52.058,31.271,19.4,7.371,39.159,14.1,55.883,26.788,15.909,12.065,28.3,28.089,39.043,44.753,11.108,17.226,20.705,35.364,31.567,52.74a279.482,279.482,0,0,0,17.717,25.435c6.758,8.536,14.615,17.174,25.247,20.706a28.68,28.68,0,0,0,8.314,1.416c3.218.079,3.217-4.921,0-5-11.05-.274-19.8-8.427-26.543-16.388a230.227,230.227,0,0,1-17.78-24.529c-11.025-17.155-20.584-35.194-31.395-52.478-10.586-16.924-22.534-33.334-37.837-46.323a125.424,125.424,0,0,0-25.676-16.851,313.112,313.112,0,0,0-29.159-12.066c-18.488-6.914-38.166-13.775-52.778-27.607a69.922,69.922,0,0,1-5.125-5.4,2.523,2.523,0,0,0-3.536,0,2.553,2.553,0,0,0,0,3.536" transform="translate(-248.403 -37.79)"/><path class="d" d="M297.328,95.93a256.819,256.819,0,0,0,31.2,42.772,406.458,406.458,0,0,0,38.247,37.178c13.751,11.869,28.056,23.077,42.485,34.1,7.339,5.608,14.679,11.223,22.1,16.717A182.436,182.436,0,0,0,456,242.584c17.232,8.889,36.245,13.394,55.112,17.3q3.58.741,7.164,1.464a2.563,2.563,0,0,0,3.075-1.746,2.525,2.525,0,0,0-1.746-3.076c-18.607-3.775-37.554-7.527-54.978-15.324-17.4-7.788-32.346-19.95-47.424-31.407-14.181-10.776-28.27-21.686-41.882-33.177A438.457,438.457,0,0,1,336.551,140.1a261.341,261.341,0,0,1-31.636-41.17q-1.676-2.737-3.27-5.524c-1.6-2.79-5.922-.275-4.317,2.524" transform="translate(-248.403 -37.79)"/><path class="d" d="M517.685,260.822a13.052,13.052,0,0,1,2.613,1.445l-.506-.39a5.065,5.065,0,0,1,.883.867l-.391-.506a4.509,4.509,0,0,1,.282.419,2.6,2.6,0,0,0,1.494,1.149,1.9,1.9,0,0,0,1,.045,1.852,1.852,0,0,0,.93-.3,2.527,2.527,0,0,0,1.149-1.494,2.6,2.6,0,0,0-.252-1.927,9.754,9.754,0,0,0-4.675-3.628,1.858,1.858,0,0,0-.93-.3,1.891,1.891,0,0,0-1,.045,2.5,2.5,0,0,0-1.746,3.075,2.438,2.438,0,0,0,1.149,1.494" transform="translate(-248.403 -37.79)"/></g></g></g></svg>