<svg xmlns="http://www.w3.org/2000/svg" xmlns:xlink="http://www.w3.org/1999/xlink" width="45.082" height="45.144" viewBox="0 0 45.082 45.144"><defs><style>.a{fill:none;}.b{clip-path:url(#a);}.c{fill:#040504;}.d{fill:#fff;}</style><clipPath id="a"><rect class="a" width="45.082" height="45.144"/></clipPath></defs><g transform="translate(-21.774 8.55)"><g class="b" transform="translate(21.774 -8.55)"><path class="c" d="M45.082,22.572A22.541,22.541,0,1,1,22.541,0,22.556,22.556,0,0,1,45.082,22.572" transform="translate(0 0)"/><path class="d" d="M26.862,45.9,25.9,37.465A9.977,9.977,0,0,0,17.113,28.6l-9.27-.979,9.27-.98A9.976,9.976,0,0,0,25.9,17.773l.965-8.436.965,8.436a9.977,9.977,0,0,0,8.785,8.867l9.27.979-9.27.979a9.977,9.977,0,0,0-8.785,8.867Z" transform="translate(-4.321 -5.047)"/></g></g></svg>