<svg xmlns="http://www.w3.org/2000/svg" xmlns:xlink="http://www.w3.org/1999/xlink" width="2226.38" height="1166.904" viewBox="0 0 2226.38 1166.904"><defs><style>.a,.c{fill:none;}.b{clip-path:url(#a);}.c{stroke:#ff9d00;stroke-miterlimit:10;stroke-width:2px;stroke-dasharray:10 10;}.d{fill:#ff9d00;}</style><clipPath id="a"><rect class="a" width="2226.38" height="1166.904" transform="translate(0 -0.004)"/></clipPath></defs><g transform="translate(0 0.004)"><g class="b"><line class="c" y2="1081.025" transform="translate(400.996 -0.004)"/><line class="c" y1="1081.025" transform="translate(1713.159 -0.004)"/><path class="d" d="M265.153,43.907,236.7,24.627a3.282,3.282,0,0,0-.612-.3,3.7,3.7,0,0,0-2.448,0,3.194,3.194,0,0,0-.612.3l-28.457,19.28a2.148,2.148,0,0,0-.527,3.152,2.564,2.564,0,0,0,3.4.488L234.86,28.972l27.416,18.575a2.564,2.564,0,0,0,3.4-.488,2.148,2.148,0,0,0-.527-3.152"/><path class="d" d="M261.134,65.5a65.024,65.024,0,0,1-.16-12.411,2.945,2.945,0,0,0-1.333-2.682L236.785,34.974a3.48,3.48,0,0,0-3.851,0L210.077,50.4a2.946,2.946,0,0,0-1.332,2.682,65.024,65.024,0,0,1-.16,12.411,65.831,65.831,0,0,1-3.457,15,3.069,3.069,0,0,0,3.106,3.967H218.2a4.07,4.07,0,0,0,4.218-3.9V64.4c0-6.365,5.572-11.524,12.446-11.524s12.447,5.159,12.447,11.524V80.56a4.07,4.07,0,0,0,4.217,3.9h9.962A3.068,3.068,0,0,0,264.59,80.5a65.835,65.835,0,0,1-3.456-15"/><line class="c" x2="1918.505" transform="translate(98.902 107.294)"/><path class="d" d="M478.632,394.524h-11.3V760.673h11.3c15.337,0,27.77-10.937,27.77-24.428V418.953c0-13.492-12.433-24.429-27.77-24.429"/><path class="d" d="M538.757,581.847H655.812c10.752,0,19.468-10.516,19.468-23.488V418.011c0-12.972-8.716-23.487-19.468-23.487H538.757c-10.35,0-18.74,7.38-18.74,16.485v6.982l80.306-.853c18.008,0,32.606,17.613,32.606,39.339v56.6c0,21.726-14.6,39.339-32.606,39.339l-80.306.852v12.092c0,9.1,8.39,16.485,18.74,16.485"/><path class="d" d="M668.461,603.1H532.154c-6.7,0-12.137,4.521-12.137,10.1V750.577c0,5.576,5.434,10.1,12.137,10.1H668.461c6.7,0,12.137-4.521,12.137-10.1V613.193c0-5.576-5.434-10.1-12.137-10.1m-13.1,106.69c0,14.029-13.672,25.4-30.537,25.4H575.819c-16.865,0-30.537-11.373-30.537-25.4V652.773c0-14.029,13.672-25.4,30.537-25.4h49.008c16.865,0,30.537,11.373,30.537,25.4Z"/><path class="d" d="M705.511,554.612h-11.3V760.673h11.3c15.337,0,27.77-10.937,27.77-24.428v-157.2c0-13.492-12.433-24.429-27.77-24.429"/><path class="d" d="M830.67,554.612H740.634V560.2c0,12.553,12.854,10.893,27.125,10.893h27.518a33.145,33.145,0,0,1,15.875,5.784c10.16,7.4,13.794,20.876,9.529,34.378,0,8.736,8.05,15.817,17.98,15.817h16.454V576.116c0-11.877-10.945-21.5-24.445-21.5"/><path class="d" d="M992.427,705.019c4.266,13.5.631,26.983-9.528,34.378a33.154,33.154,0,0,1-15.875,5.785H939.505c-14.27,0-27.125-1.661-27.125,10.892v5.589h90.036c13.5,0,24.445-9.627,24.445-21.5V689.2h-16.454c-9.93,0-17.98,7.081-17.98,15.817"/><path class="d" d="M899.786,590.9l-2.575-7.914c-1.6-4.906-6.091-8.7-11.729-9.912l-8.327-1.784c-5.246-1.123-8.771-5.069-8.771-9.819s3.525-8.695,8.77-9.819l8.329-1.783c5.637-1.208,10.131-5.006,11.728-9.913l2.575-7.914a10.135,10.135,0,0,1,4.006-5.227V512.477c0-13.492-12.433-24.429-27.77-24.429h-11.3V760.673h11.3c15.337,0,27.77-10.937,27.77-24.429V596.126a10.131,10.131,0,0,1-4.006-5.227"/><path class="d" d="M923.595,589.958l2.575-7.914c2.087-6.411,7.923-11.344,15.288-12.921l8.328-1.784c6.694-1.434,6.694-9.808,0-11.241l-8.328-1.784c-7.365-1.578-13.2-6.511-15.288-12.922l-2.575-7.913c-1.819-5.591-10.825-5.591-12.644,0l-2.576,7.913c-2.086,6.411-7.922,11.344-15.288,12.922l-8.328,1.784c-6.693,1.433-6.693,9.807,0,11.241l8.328,1.784c7.366,1.577,13.2,6.51,15.288,12.921l2.576,7.914c1.819,5.59,10.825,5.59,12.644,0"/><path class="d" d="M1079.544,530.508v-87.83c0-8.554,9.041-15.488,20.193-15.488,23.361,0,42.3,14.525,42.3,32.442v48.506a21.84,21.84,0,0,1-4.444,12.979l-6.907,9.391h23.558c12.18,0,22.054-7.573,22.054-16.915V431.587c0-11.818-12.491-21.4-27.9-21.4H1040.476v135.55h39.068Z"/><path class="d" d="M1040.475,760.673h11.3c15.337,0,27.77-10.937,27.77-24.429V571.274h-39.068Z"/><path class="d" d="M1052.76,566.531h128.834c0-7.85-5.5-14.213-12.285-14.213H1040.475c0,7.85,5.5,14.213,12.285,14.213"/><path class="d" d="M1241.6,602.49H1105.3c-6.7,0-12.137,4.521-12.137,10.1V749.971c0,5.576,5.434,10.1,12.137,10.1H1241.6c6.7,0,12.137-4.521,12.137-10.1V612.587c0-5.576-5.434-10.1-12.137-10.1m-13.1,106.69c0,14.029-13.672,25.4-30.537,25.4H1148.96c-16.865,0-30.537-11.373-30.537-25.4V652.167c0-14.029,13.672-25.4,30.537-25.4h49.008c16.865,0,30.537,11.373,30.537,25.4Z"/><path class="d" d="M1393.824,704.029c4.266,13.5.631,26.983-9.528,34.378a33.154,33.154,0,0,1-15.875,5.785H1340.7c-12.078-.01-21.06-8.982-23.648-11.555a37.164,37.164,0,0,1-10.035-17.936,22.787,22.787,0,0,1-.6-5.222v-197c0-13.492-12.433-24.429-27.77-24.429h-11.3V760.673h136.459c13.5,0,24.445-9.627,24.445-21.5V688.212H1411.8c-9.93,0-17.98,7.081-17.98,15.817"/><path class="d" d="M1441.872,603.1h0v123.21c0,18.98,17.491,34.367,39.068,34.367V637.463c0-18.98-17.491-34.367-39.068-34.367"/><path class="d" d="M1441.872,575.3v6.544h18.964c11.1,0,20.1-9.264,20.1-20.691v-6.544h-18.964c-11.1,0-20.1,9.263-20.1,20.691"/><path class="d" d="M1643,603.1H1506.692c-6.7,0-12.137,4.521-12.137,10.1V750.577c0,5.576,5.434,10.1,12.137,10.1H1643c6.7,0,12.137-4.521,12.137-10.1V613.193c0-5.576-5.434-10.1-12.137-10.1m-13.1,106.69c0,14.029-13.672,25.4-30.537,25.4h-49.008c-16.866,0-30.537-11.373-30.537-25.4V652.773c0-14.029,13.671-25.4,30.537-25.4h49.008c16.865,0,30.537,11.373,30.537,25.4Z"/><path class="d" d="M629.382,698.669l-11.42-9.069a28.561,28.561,0,0,1-10.194-15.532l-3.218-13.234c-.995-4.093-7.64-4.083-8.618.014L592.8,673.962a28.556,28.556,0,0,1-10.23,15.645L571.234,698.6c-3.528,2.8-.212,7.852,4.308,6.563l14.524-4.138a37.438,37.438,0,0,1,20.517.029l14.476,4.171c4.522,1.3,7.855-3.753,4.323-6.558"/><path class="d" d="M1202.539,692.341l-11.42-9.069a28.56,28.56,0,0,1-10.194-15.532l-3.218-13.234c-.995-4.093-7.64-4.083-8.618.014l-3.131,13.114a28.556,28.556,0,0,1-10.23,15.645l-11.336,8.995c-3.529,2.8-.213,7.852,4.307,6.564l14.524-4.139a37.438,37.438,0,0,1,20.517.029l14.476,4.171c4.522,1.3,7.855-3.753,4.323-6.558"/><path class="d" d="M1603.921,692.947l-11.421-9.069a28.565,28.565,0,0,1-10.193-15.532l-3.218-13.234c-.995-4.093-7.641-4.083-8.618.014l-3.132,13.114a28.54,28.54,0,0,1-10.23,15.645l-11.335,8.995c-3.529,2.8-.213,7.852,4.307,6.563L1564.6,695.3a37.442,37.442,0,0,1,20.518.029l14.476,4.171c4.522,1.3,7.855-3.753,4.323-6.558"/></g></g></svg>