<svg xmlns="http://www.w3.org/2000/svg" xmlns:xlink="http://www.w3.org/1999/xlink" width="65.22" height="65.967" viewBox="0 0 65.22 65.967"><defs><style>.a{fill:none;}.b{clip-path:url(#a);}.c{fill:#fff;}.d{fill:#040504;}</style><clipPath id="a"><rect class="a" width="63.807" height="63.032"/></clipPath></defs><g transform="matrix(0.035, -0.999, 0.999, 0.035, 0, 63.768)"><g class="b" transform="translate(0 0)"><path class="c" d="M63.807,31.516A31.711,31.711,0,0,1,31.9,63.031,31.711,31.711,0,0,1,0,31.516,31.711,31.711,0,0,1,31.9,0a31.711,31.711,0,0,1,31.9,31.516" transform="translate(0 0)"/><path class="d" d="M43.1,50.439H54.157c-2.1-2.392-5.031-4.07-6.708-5.947H40.3a31.71,31.71,0,0,1,2.8,5.947" transform="translate(-14.687 -15.95)"/><path class="d" d="M35.7,51.543c-1.82-2.792-3.575-3.719-5.028-3.925-2.876-.41-5.3,1.889-7.9,3.925Z" transform="translate(-8.3 -17.053)"/><path class="d" d="M54.1,26.611a40.983,40.983,0,0,1,5.6-3.083l-4.325-4.136a3.081,3.081,0,0,0-3.4-.575,3,3,0,0,0-.867,4.9Z" transform="translate(-18.295 -6.647)"/><path class="d" d="M20.326,44.492h-3.9a2.914,2.914,0,0,0-2.932,2.9v.156a2.857,2.857,0,0,0,.578,1.721c2.522-.942,4.472-2.955,6.249-4.772" transform="translate(-4.92 -15.95)"/><path class="d" d="M72.616,38.892l-12.444-11.9A12.48,12.48,0,0,0,55.829,31.3l6.049,5.869a.612.612,0,0,1-.435,1.05H57.251c2.488,2.883,6.338,5.516,6.269,9.639-.055,3.355-2.678,6.04-4.784,7.733a10.729,10.729,0,0,0,1.429-6.434,8.338,8.338,0,0,0-.429-1.781l-8.56,8.188a3,3,0,0,0,.852,4.911l.13.058a3.082,3.082,0,0,0,3.414-.59l17.06-16.552c-.006-1.765-.01-2.731-.016-4.5" transform="translate(-18.312 -9.674)"/></g></g></svg>