<svg xmlns="http://www.w3.org/2000/svg" xmlns:xlink="http://www.w3.org/1999/xlink" width="158.773" height="23.629" viewBox="0 0 158.773 23.629"><defs><style>.a{fill:none;}.b{clip-path:url(#a);}.c{fill:#ff9d00;}</style><clipPath id="a"><rect class="a" width="158.773" height="23.629" transform="translate(0 0)"/></clipPath></defs><g transform="translate(0 0)"><g class="b"><path class="c" d="M20.758,15.39q-.336,0-.485.791a12.288,12.288,0,0,1-1.385,3.658,6.066,6.066,0,0,1-2.469,2.291,7.568,7.568,0,0,1-3.554.839,7.611,7.611,0,0,1-6.058-2.636Q4.188,17.3,4.189,11.8q0-6.162,3.179-9.359A6.422,6.422,0,0,1,12.156.658q3.927,0,5.759,2.638A10.241,10.241,0,0,1,19.3,7.217c.075.417.236.626.486.626a.435.435,0,0,0,.3-.1c.075-.066.111-.307.111-.724a27.753,27.753,0,0,1,.413-5.933,2.064,2.064,0,0,0,.075-.429c0-.175-.1-.263-.3-.263s-.46.307-.786.923c-.2.351-.41.527-.636.527a3.069,3.069,0,0,1-1.234-.428A13.785,13.785,0,0,0,14.9.28,13.312,13.312,0,0,0,11.857,0,11.627,11.627,0,0,0,3.31,3.278,11.388,11.388,0,0,0,0,11.732a11.171,11.171,0,0,0,3.61,8.519,12.806,12.806,0,0,0,9.107,3.378,10.288,10.288,0,0,0,6.472-2.076,3.433,3.433,0,0,1,1.047,1.416c.149.33.324.5.523.5s.3-.143.3-.428v-.3a12.458,12.458,0,0,0-.075-1.466c-.051-.406-.076-.676-.076-.807q0-1.781.151-3.692.075-.956.075-.889,0-.495-.375-.495"/><path class="c" d="M31.718,8.47a7.627,7.627,0,0,0-5.555,2.175,7.327,7.327,0,0,0-2.226,5.471,7.071,7.071,0,0,0,2.282,5.355,7.952,7.952,0,0,0,5.686,2.159,7.555,7.555,0,0,0,5.5-2.159,7.186,7.186,0,0,0,2.206-5.355,7.286,7.286,0,0,0-2.263-5.455A7.772,7.772,0,0,0,31.718,8.47m2.917,13.545a2.918,2.918,0,0,1-2.545,1.153,3.983,3.983,0,0,1-3.5-1.862,9.215,9.215,0,0,1-1.253-5.19,9.935,9.935,0,0,1,1.178-5.257,3.668,3.668,0,0,1,3.273-1.894,3.421,3.421,0,0,1,3.141,1.483,10.522,10.522,0,0,1,1.273,5.635,9.953,9.953,0,0,1-1.571,5.932"/><path class="c" d="M58.5,22.838h-.674a1.879,1.879,0,0,1-1.084-.2,2.772,2.772,0,0,1-.112-1.155V13.973a7.249,7.249,0,0,0-.674-3.757A4.376,4.376,0,0,0,52.064,8.47a6.375,6.375,0,0,0-5.013,2.208V9.1q0-.625-.262-.626a1,1,0,0,0-.523.264,4.931,4.931,0,0,1-1.833.757A11.363,11.363,0,0,1,42,9.854c-.524,0-.787.1-.787.315q0,.245.749.245H43.05q.858,0,.934.394t.075,4.143v7.164l-.111.492c-.076.155-.3.231-.674.231h-.935c-.449.039-.674.125-.674.26s.187.2.561.2h6.808c.3,0,.449-.076.449-.229s-.128-.231-.381-.231l-1.139-.033q-.8-.033-.8-.426V12.121a1.742,1.742,0,0,1,.374-1.184,4.023,4.023,0,0,1,3.141-1.446,2.488,2.488,0,0,1,2.543,1.48,16.318,16.318,0,0,1,.3,4.273v6.313a2.675,2.675,0,0,1-.112,1.068q-.113.149-.822.181c-.824.023-1.305.044-1.442.066s-.2.088-.2.2c0,.153.163.229.487.229H58.31c.373,0,.56-.081.56-.245,0-.143-.125-.216-.373-.216"/><path class="c" d="M70.091,21.124a.445.445,0,0,0-.336.165,4.651,4.651,0,0,1-2.767,1.219q-1.459,0-1.721-1.17A36.485,36.485,0,0,1,65,15.555v-6.1h1.534q3.03,0,3.028-.473c0-.189-.1-.284-.3-.284a1.239,1.239,0,0,0-.262.033,14.182,14.182,0,0,1-2.73.164,6.616,6.616,0,0,1-1.123-.066A6.434,6.434,0,0,1,65,7.052V6.36c0-.153-.087-.231-.26-.231a.672.672,0,0,0-.558.3,5.873,5.873,0,0,1-4.533,2.534q-.409.033-.41.263c0,.154.276.23.824.23h1.421a.393.393,0,0,1,.411.363v9.8q0,2.565.6,3.09a4.571,4.571,0,0,0,3.1.921,5.924,5.924,0,0,0,3.815-1.286c.623-.5.936-.857.936-1.054,0-.11-.088-.165-.263-.165"/><path class="c" d="M85.5,21.553q-.187,0-.56.362a2.356,2.356,0,0,1-1.721.659c-.6,0-.961-.395-1.085-1.186q-.038-.264-.037-1.779V13.446a8.706,8.706,0,0,0-.336-3q-.936-1.978-5.05-1.978a6.692,6.692,0,0,0-4.264,1.219,3.343,3.343,0,0,0-1.384,2.67,1.684,1.684,0,0,0,.562,1.3,2.023,2.023,0,0,0,1.42.511q1.646,0,1.646-1.451a1.256,1.256,0,0,0-.374-.889,1.132,1.132,0,0,0-.841-.4q-.468,0-.468-.265a1.877,1.877,0,0,1,.878-1.581,3.672,3.672,0,0,1,2.189-.626,2.545,2.545,0,0,1,2.694,1.68,13.692,13.692,0,0,1,.336,3.823v.824a22.341,22.341,0,0,0-4.372,1.055q-3.672,1.581-3.67,4.283a2.646,2.646,0,0,0,1.043,2.159,4.065,4.065,0,0,0,2.642.841,4.723,4.723,0,0,0,4.39-2.439q.109,2.341,2.679,2.34a6.077,6.077,0,0,0,2.549-.609q1.322-.609,1.321-1.171c0-.131-.062-.2-.187-.2m-6.395-3.3a6.457,6.457,0,0,1-.222,2.307,2.882,2.882,0,0,1-2.543,1.582,2.323,2.323,0,0,1-2.4-2.406,2.888,2.888,0,0,1,1.2-2.422,10.16,10.16,0,0,1,3.965-1.467Z"/><path class="c" d="M95.936,12c0,.923.547,1.384,1.647,1.384,1.12,0,1.683-.506,1.683-1.517a2.868,2.868,0,0,0-1.7-2.372,7.446,7.446,0,0,0-3.908-1.022,7.867,7.867,0,0,0-5.723,2.225,7.514,7.514,0,0,0-2.282,5.619,6.983,6.983,0,0,0,2.15,5.24,7.521,7.521,0,0,0,5.443,2.076,6.1,6.1,0,0,0,4.3-1.549q1.308-1.187,1.308-1.614c0-.176-.124-.265-.374-.265a.541.541,0,0,0-.336.165,8.234,8.234,0,0,1-1.458,1.516,4.8,4.8,0,0,1-2.805.857,4.081,4.081,0,0,1-3.593-1.9,9.637,9.637,0,0,1-1.269-5.388,8.111,8.111,0,0,1,1.234-4.812,4.032,4.032,0,0,1,3.477-1.713,3.908,3.908,0,0,1,1.927.429,1.25,1.25,0,0,1,.767,1.087,1.061,1.061,0,0,1-.113.461A2.721,2.721,0,0,0,95.936,12"/><path class="c" d="M110.859,21.124a.445.445,0,0,0-.336.165,4.651,4.651,0,0,1-2.767,1.219q-1.459,0-1.721-1.17a36.614,36.614,0,0,1-.262-5.783v-6.1h1.534q3.03,0,3.029-.473c0-.189-.1-.284-.3-.284a1.223,1.223,0,0,0-.261.033,14.2,14.2,0,0,1-2.731.164,6.616,6.616,0,0,1-1.123-.066,6.434,6.434,0,0,1-.149-1.779V6.36c0-.153-.087-.231-.26-.231a.669.669,0,0,0-.557.3,5.877,5.877,0,0,1-4.534,2.534c-.272.022-.409.11-.409.263s.275.23.823.23h1.421a.393.393,0,0,1,.411.363v9.8q0,2.565.6,3.09a4.571,4.571,0,0,0,3.1.921,5.924,5.924,0,0,0,3.815-1.286c.623-.5.936-.857.936-1.054,0-.11-.088-.165-.263-.165"/><path class="c" d="M143.257,22.838h-.664a3.154,3.154,0,0,1-1.159-.181,2.856,2.856,0,0,1-.128-1.236v-8.14a6.566,6.566,0,0,0-.525-3.065q-.975-1.746-3.747-1.746a5.2,5.2,0,0,0-4.682,2.208q-.711-2.208-4.046-2.208a5.268,5.268,0,0,0-4.608,2.109Q123.66,9,123.623,8.734T123.4,8.47a1.19,1.19,0,0,0-.6.362,3.432,3.432,0,0,1-1.481.626,9.587,9.587,0,0,1-2.154.4c-.7.044-1.105.077-1.217.1a.2.2,0,0,0-.169.23c0,.155.163.231.487.231H119.5c.649,0,1.009.142,1.085.428a19.283,19.283,0,0,1,.111,2.892V22.28a.493.493,0,0,1-.261.412,6.066,6.066,0,0,1-1.646.114c-.324,0-.487.076-.487.23,0,.176.175.263.524.263h3.666q1.907-.031,2.805,0h.375c.324,0,.485-.076.485-.23,0-.176-.134-.263-.4-.263a2.909,2.909,0,0,0-.4.032h-.293q-.922,0-1.087-.181a2.268,2.268,0,0,1-.166-1.167V12.153a2.374,2.374,0,0,1,.91-1.9A3.457,3.457,0,0,1,127,9.491a2.245,2.245,0,0,1,1.913.723,4.637,4.637,0,0,1,.539,2.63v9.173l-.038.46c-.025.2-.236.307-.635.329-.849,0-1.347.012-1.5.033s-.225.089-.225.2c0,.176.149.263.449.263h6.733c.374,0,.56-.071.56-.214,0-.164-.158-.247-.478-.247h-1.067c-.368,0-.589-.131-.662-.4a10.851,10.851,0,0,1-.036-1.252V14.961A22.814,22.814,0,0,1,132.7,11.3a2.8,2.8,0,0,1,1.172-1.3,3.4,3.4,0,0,1,1.8-.511,2.226,2.226,0,0,1,1.949.809,4.86,4.86,0,0,1,.577,2.726v8.193a5.325,5.325,0,0,1-.094,1.388c-.063.132-.28.21-.654.231h-1.235c-.274,0-.411.083-.411.247q0,.215.486.214h6.733c.424,0,.636-.081.636-.245s-.136-.237-.4-.216"/><path class="c" d="M158.473,19.41a.457.457,0,0,0-.411.264,7.449,7.449,0,0,1-1.945,2.274,4.288,4.288,0,0,1-2.394.593,4.919,4.919,0,0,1-4.059-1.789,7.977,7.977,0,0,1-1.439-5.106,12.147,12.147,0,0,1,.187-2.069q4.226-.1,4.488-.1h2.619a21.8,21.8,0,0,0,3.179-.133,4.546,4.546,0,0,0-1.908-3.509,7.753,7.753,0,0,0-9.818.841,7.576,7.576,0,0,0-2.15,5.5,7,7,0,0,0,2.263,5.305,7.864,7.864,0,0,0,5.628,2.143,6.182,6.182,0,0,0,4.3-1.45,7.461,7.461,0,0,0,1.178-1.368,2.729,2.729,0,0,0,.58-1.17c0-.153-.1-.231-.3-.231M152.3,8.964q3.066,0,3.217,3.954h-6.994q.746-3.954,3.777-3.954"/></g></g></svg>