<svg xmlns="http://www.w3.org/2000/svg" xmlns:xlink="http://www.w3.org/1999/xlink" width="924.5" height="446" viewBox="0 0 924.5 446"><defs><style>.a{fill:none;}.b{clip-path:url(#a);}.c{fill:#1a1818;}.d{fill:#fff;}</style><clipPath id="a"><rect class="a" width="924.5" height="446"/></clipPath></defs><g class="b"><path class="c" d="M.253,393.975c-1.215-4.934,1.95-3.9,9.5,4.413,2.193,2.338.974,6.492,3.9,10.13,3.654,4.413,11.2,8.83,15.588,10.908,20.215,9.088,25.816,8.57,41.4,8.048,57.478-2.335,185.585-104.662,185.585-200.233,0-11.948-10.23-30.9-35.072-32.465-8.767-.518-21.431,1.561-37.019,5.974-27.521,22.855-55.042,38.438-74.527,41.034-12.179,32.2-22.895,63.368-31.176,90.38a206.242,206.242,0,0,0-7.306,37.656c-.974,10.391-16.318-2.6-15.832-14.283.73-14.282,40.43-219.972,78.426-284.117,3.409-5.718,24.109,7.268,24.109,11.425s-5.843,3.9-12.9,12.465c-18.27,21.817-35.073,84.667-46.032,132.452,2.19-1.561,5.113-3.638,8.522-5.716C155.4,112.192,204.352,0,262.074,0c19.485,0,27.033,18.7,27.033,30.9,0,50.643-42.136,111.674-88.408,155.043a103.736,103.736,0,0,1,17.292-1.556c37.751,0,48.467,40.773,48.467,60.25,0,57.916-98.882,195.56-191.921,195.56-42.864,0-68.682-21.812-74.284-46.225M92.8,255.81c1.948-4.417,3.9-8.83,5.847-13.5a4.978,4.978,0,0,1-2.924-.521q-1.824,7.4-2.923,14.025M114.237,230.1a227.063,227.063,0,0,0,30.445-15.322c-9.5,3.9-19.485,8.309-29.714,13.5a13.265,13.265,0,0,0-.73,1.817m5.847-15.061c16.318-8.312,37.263-17.4,57.478-23.373,64.542-53.5,98.152-131.153,98.152-168.034,0-10.9-5.117-15.061-11.935-15.061-45.543,0-101.8,103.362-143.7,206.468" transform="translate(0 0)"/><path class="c" d="M254.865,272.215c0-10.61,1.948-28.143,6.577-48.9a63.06,63.06,0,0,1-14.128-40.6C247.314,114.191,309.663,0,372.258,0c15.342,0,70.874,1.846,70.874,67.592,0,125.727-98.64,268.986-136.878,268.986-35.8,0-51.39-28.838-51.39-64.363m38.726,54.445c53.58,0,141.261-162.639,141.261-260.222,0-15.687-6.331-56.749-47.007-56.749-60.4,0-125.673,99.89-125.673,176.476a70.882,70.882,0,0,0,3.167,21.686c12.176-46.136,36.043-101.733,75.989-128.723,5.843-3.924,22.163-1.387,14.368,4.151-43.839,31.835-69.412,95.044-80.13,143.951,4.627,5.538,9.255,8.075,11.934,8.075,6.577,0,7.065.692,22.894-4.615,2.194-2.074,12.179,4.615,12.179,7.612s-10.471,6.229-24.6,6.229c-5.6,0-14.857-3.228-24.112-9.689-2.924,15.459-4.384,29.069-4.384,39.45,0,23.762,8.281,52.368,24.113,52.368" transform="translate(56.143)"/><path class="c" d="M413.642,272.215c0-10.61,1.948-28.143,6.577-48.9a63.06,63.06,0,0,1-14.128-40.6C406.091,114.191,468.44,0,531.035,0c15.342,0,70.875,1.846,70.875,67.592,0,125.727-98.64,268.986-136.878,268.986-35.8,0-51.39-28.838-51.39-64.363m38.726,54.445c53.58,0,141.261-162.639,141.261-260.222,0-15.687-6.331-56.749-47.007-56.749-60.4,0-125.673,99.89-125.673,176.476a70.881,70.881,0,0,0,3.167,21.686c12.176-46.136,36.043-101.733,75.989-128.723,5.843-3.924,22.161-1.387,14.368,4.151-43.839,31.835-69.412,95.044-80.13,143.951,4.627,5.538,9.255,8.075,11.934,8.075,6.577,0,7.065.692,22.894-4.615,2.194-2.074,12.179,4.615,12.179,7.612s-10.471,6.229-24.6,6.229c-5.6,0-14.857-3.228-24.112-9.689-2.924,15.459-4.384,29.069-4.384,39.45,0,23.762,8.281,52.368,24.113,52.368" transform="translate(92.186)"/><path class="c" d="M557.4,421.379c0-86,72.822-421.354,104.238-421.354,12.423-.58,26.793,8.947,25.333,12.122-1.7,3.46-11.449,1.44-18.511,9.233-34.83,38.96-103.756,349.781-94.01,414.43,1.46,10.1-17.051,1.729-17.051-14.432m45.543-178.354c0-48.484,129.571-164.5,175.6-164.5,9.255,0,21.919,23.375,19,27.993s-10.96-5.193-18.265-5.193c-43.6,0-161.233,87.732-161.233,137.66,0,94.951,81.59,188.168,123.725,188.168,2.68,0,3.168-3.175,5.357-3.175.974,0,2.438,1.155,2.438,3.75s-4.627,5.773-11.2,5.773c-81.346,0-135.418-141.99-135.418-190.476" transform="translate(126.534 0)"/><path class="c" d="M557.688,428.767H239.913c-4.391,0-8.222-3.106-9.934-7.693a18.835,18.835,0,0,0-9.291-10.516,12.39,12.39,0,0,1-6.8-11.273V388.023a12.39,12.39,0,0,1,6.8-11.273,18.835,18.835,0,0,0,9.291-10.516c1.712-4.586,5.542-7.693,9.934-7.693H557.688c4.392,0,8.221,3.106,9.935,7.693a18.827,18.827,0,0,0,9.291,10.516,12.392,12.392,0,0,1,6.8,11.273v11.261a12.392,12.392,0,0,1-6.8,11.273,18.827,18.827,0,0,0-9.291,10.516c-1.714,4.586-5.544,7.693-9.935,7.693" transform="translate(48.556 17.233)"/><path class="d" d="M315.295,380.209q0,4.33-6.647,6.737a31.281,31.281,0,0,1-10.572,1.519q-2.726,0-6.169-.312v12.671a3.108,3.108,0,0,0,.161,1.293,2.25,2.25,0,0,0,1.763.759q2.319.179,4.484.178c.587,0,.882.106.882.312,0,.3-.375.446-1.12.446H279.652q-2.4,0-2.4-.446,0-.314,1.682-.313,3.764,0,4.325-.4a.947.947,0,0,0,.719-.894V375.393a1.583,1.583,0,0,0-1.36-1.7,14.888,14.888,0,0,0-2.8-.179h-1.362c-.8,0-1.2-.118-1.2-.358q0-.4,2.242-.4h17.621q9.133,0,13.376,1.784,4.807,2.009,4.806,5.667m-8.409.044q0-6.736-10.092-6.737-3.366,0-4.406.63-.48.269-.481,1.391v11.946c.427.029.909.045,1.443.045a27.079,27.079,0,0,0,8.969-1.3q4.566-1.618,4.567-5.972" transform="translate(62.938 17.917)"/><path class="d" d="M335.55,386.392a1.955,1.955,0,0,1-1.121,1.7,5.56,5.56,0,0,1-2.882.67,5.472,5.472,0,0,1-2.4-.468q-.961-.468-.961-1.183a1.271,1.271,0,0,1,.72-1.071c.482-.3.72-.5.72-.625q0-.668-1.762-.669a5.318,5.318,0,0,0-3.843,1.554q-1.844,1.82-1.843,6.749v8.791c0,.355.226.577.681.665a36.315,36.315,0,0,0,4.125.178c.587.059.88.178.88.356q0,.313-1.04.312H311.281q-1.281,0-1.28-.267c0-.179.345-.268,1.04-.268h1.121a7.666,7.666,0,0,0,3.2-.358,4.208,4.208,0,0,0,.161-1.659V388.462q0-2.465-1.322-2.849a17.7,17.7,0,0,0-4.2-.426q-.963,0-.963-.312t.8-.312h.561q1.2,0,2.4.067t1.04.067a26.265,26.265,0,0,0,6.568-.938l1.04-.267.642-.133a7.467,7.467,0,0,1,.319,2.141v.892a8.923,8.923,0,0,1,7.209-3.033,9.188,9.188,0,0,1,4.245.87q1.682.869,1.682,2.163" transform="translate(70.155 18.426)"/><path class="d" d="M366.294,393.625q0,4.328-4.726,7.251a22,22,0,0,1-11.773,2.922,23.353,23.353,0,0,1-12.176-2.922q-4.886-2.923-4.885-7.251,0-4.462,4.764-7.407a22.251,22.251,0,0,1,11.893-2.945,22.722,22.722,0,0,1,12.057,2.967q4.842,2.968,4.845,7.385m-7.29-.044q0-4.91-2.723-7.63-2-2.008-6.729-2.008a9.377,9.377,0,0,0-7.006,2.566,9.7,9.7,0,0,0-2.525,7.116,9.176,9.176,0,0,0,2.683,7.027q2.682,2.522,7.49,2.521,3.683,0,5.447-1.562a10.125,10.125,0,0,0,3.363-8.03" transform="translate(75.534 18.422)"/><path class="d" d="M376.579,404.884a9.892,9.892,0,0,1-2.963,7.564,11.332,11.332,0,0,1-8.09,2.789,10.412,10.412,0,0,1-4.126-.714q-1.638-.714-1.641-1.785,0-2.1,4.085-2.1,3.364,0,3.364,1.562a4.2,4.2,0,0,1-.481,1.427.558.558,0,0,0-.08.357q0,.4.469.4a2.235,2.235,0,0,0,2.151-1.36q.664-1.361.663-6.848V386.5c-.052-.386-.454-.58-1.2-.58h-4.567q-.88,0-.88-.332,0-.291,2.107-.292,5.755.046,8.431-1.071a8.262,8.262,0,0,1,1.866-.489c.432,0,.676.172.728.513s.109,1.466.163,3.368v17.267Zm-.4-29.18q0,1.965-3.524,1.963a5.573,5.573,0,0,1-2.644-.557,1.525,1.525,0,0,1-.039-2.878,4.973,4.973,0,0,1,2.523-.58q3.683,0,3.685,2.051" transform="translate(81.669 17.96)"/><path class="d" d="M409.414,398.4q0,.446-1.24,1.583a13.491,13.491,0,0,1-2.525,1.852,18.553,18.553,0,0,1-9.21,1.963,23.1,23.1,0,0,1-12.054-2.9q-4.846-2.9-4.845-7.183,0-4.46,4.6-7.451a20.705,20.705,0,0,1,11.495-2.99,21.882,21.882,0,0,1,9.531,1.852q3.845,1.852,4.085,4.752-2.562.223-6.807.178h-5.607q-.561,0-9.61.133a10.531,10.531,0,0,0-.4,2.8,8.273,8.273,0,0,0,3.086,6.913q3.079,2.424,8.688,2.423a10.883,10.883,0,0,0,9.292-3.882,1.122,1.122,0,0,1,.88-.356q.642,0,.642.312m-6.968-9.1q-.322-5.356-6.887-5.355-6.49,0-8.092,5.355Z" transform="translate(86.159 18.422)"/><path class="d" d="M436.761,387.869q0,2.053-3.6,2.053-3.523,0-3.524-1.875a2.885,2.885,0,0,1,.8-1.473,1.017,1.017,0,0,0,.241-.624c0-.6-.55-1.086-1.643-1.474a12.562,12.562,0,0,0-4.125-.58q-4.8,0-7.448,2.32a8.21,8.21,0,0,0-2.643,6.514q0,4.73,2.723,7.3t7.69,2.566a14.81,14.81,0,0,0,6.007-1.16,16.067,16.067,0,0,0,3.123-2.052,1.512,1.512,0,0,1,.72-.223c.535,0,.8.119.8.356q0,.58-2.8,2.187a18.14,18.14,0,0,1-9.212,2.1,22.046,22.046,0,0,1-11.655-2.811q-4.605-2.809-4.6-7.093,0-4.6,4.885-7.609a22.976,22.976,0,0,1,12.257-3.011,23.491,23.491,0,0,1,8.368,1.383q3.644,1.383,3.644,3.212" transform="translate(92.531 18.422)"/><path class="d" d="M456.461,400.775q0,.4-2,1.428a17.924,17.924,0,0,1-8.169,1.739,14.018,14.018,0,0,1-6.648-1.246q-1.281-.711-1.28-4.185V385.246c-.054-.3-.35-.459-.882-.488h-3.044q-1.763,0-1.762-.312c0-.209.291-.327.876-.357q6.2-.316,9.707-3.431a1.787,1.787,0,0,1,1.2-.406c.369,0,.557.1.557.312v.937a5.577,5.577,0,0,0,.322,2.408,21.822,21.822,0,0,0,2.4.09,47.753,47.753,0,0,0,5.847-.223,4.2,4.2,0,0,1,.561-.045c.426,0,.64.129.64.386q0,.641-6.487.641h-3.285v8.255q0,6.248.56,7.83t3.686,1.584a13.414,13.414,0,0,0,5.927-1.651,1.228,1.228,0,0,1,.721-.222c.372,0,.561.073.561.222" transform="translate(98.221 18.277)"/></g></svg>