<svg xmlns="http://www.w3.org/2000/svg" xmlns:xlink="http://www.w3.org/1999/xlink" width="272.829" height="293.07" viewBox="0 0 272.829 293.07"><defs><style>.a{fill:none;}.b{clip-path:url(#a);}.c{fill:url(#b);}</style><clipPath id="a"><path class="a" d="M367.043,312.068c-10.819,14.061-18.837,29.949-26.24,46-6.536,14.175-12.644,28.593-20.148,42.3h5.653c2.848-5.343,5.514-10.788,8.079-16.272,7.5-16.037,14.3-32.433,22.925-47.915a174.779,174.779,0,0,1,14.049-21.585,2.515,2.515,0,0,0-.9-3.421,2.361,2.361,0,0,0-1.2-.342,2.884,2.884,0,0,0-2.216,1.239M189.512,107.294c-11.767,10.08-23.6,20.09-35.718,29.748-12.674,10.1-25.677,19.8-39.2,28.747q-7.729,5.11-15.693,9.862v5.807a432.3,432.3,0,0,0,38.433-25.511c13.226-9.754,26.026-20.074,38.625-30.622q10.672-8.934,21.209-18.031Zm114.156,0a231.692,231.692,0,0,1-7.657,33.475,360.119,360.119,0,0,1-17.215,45.32c-6.776,14.963-14.3,29.576-22.07,44.042-7.822,14.561-15.9,28.979-23.792,43.5s-15.583,29.138-22.606,44.091a400.787,400.787,0,0,0-18.356,45.489c-2.537,7.746-4.769,15.593-6.629,23.53-1.053,4.495-2.012,9.041-2.706,13.622h4.935a202.493,202.493,0,0,1,4.749-20.853A333.876,333.876,0,0,1,208.5,333.846c6.513-15.053,13.856-29.731,21.522-44.226,7.693-14.546,15.716-28.915,23.621-43.346,7.913-14.446,15.715-28.961,22.93-43.772a440.513,440.513,0,0,0,19.268-45.185,257.957,257.957,0,0,0,12.573-48.291c.085-.577.168-1.153.249-1.732Z"/></clipPath><linearGradient id="b" x1="-0.362" y1="3.616" x2="-0.358" y2="3.616" gradientUnits="objectBoundingBox"><stop offset="0" stop-color="#e93d51"/><stop offset="1" stop-color="#b7559b"/></linearGradient></defs><g transform="translate(-98.902 -107.294)"><g class="b"><rect class="c" width="273.282" height="293.07" transform="translate(98.902 107.294)"/></g></g></svg>