<svg xmlns="http://www.w3.org/2000/svg" xmlns:xlink="http://www.w3.org/1999/xlink" width="62.445" height="60.294" viewBox="0 0 62.445 60.294"><defs><style>.a{fill:none;}.b{clip-path:url(#a);}.c{fill:#ff9d00;}</style><clipPath id="a"><rect class="a" width="62.445" height="60.294" transform="translate(0 0)"/></clipPath></defs><g transform="translate(0 0)"><g class="b"><path class="c" d="M61.45,19.774,33.055.512a3.242,3.242,0,0,0-.611-.3A3.688,3.688,0,0,0,30,.21a3.3,3.3,0,0,0-.611.3L1,19.774A2.148,2.148,0,0,0,.47,22.923a2.557,2.557,0,0,0,3.4.488L31.223,4.853,58.579,23.411a2.558,2.558,0,0,0,3.4-.488,2.148,2.148,0,0,0-.526-3.149"/><path class="c" d="M57.44,41.342a65.063,65.063,0,0,1-.16-12.4,2.944,2.944,0,0,0-1.329-2.68L33.144,10.849a3.474,3.474,0,0,0-3.843,0L6.494,26.263a2.944,2.944,0,0,0-1.329,2.68,64.98,64.98,0,0,1-.16,12.4A65.831,65.831,0,0,1,1.556,56.33a3.065,3.065,0,0,0,3.1,3.964H14.6a4.064,4.064,0,0,0,4.208-3.9V40.245c0-6.359,5.561-11.513,12.42-11.513s12.419,5.154,12.419,11.513V56.393a4.064,4.064,0,0,0,4.208,3.9h9.94a3.065,3.065,0,0,0,3.1-3.964A65.832,65.832,0,0,1,57.44,41.342"/></g></g></svg>