<svg xmlns="http://www.w3.org/2000/svg" xmlns:xlink="http://www.w3.org/1999/xlink" width="301.887" height="293.07" viewBox="0 0 301.887 293.07"><defs><style>.a{fill:none;}.b{clip-path:url(#a);}.c{fill:#fff;}</style><clipPath id="a"><rect class="a" width="301.887" height="293.07" transform="translate(1715.52 107.294)"/></clipPath></defs><g transform="translate(-1715.52 -107.294)"><g class="b"><path class="c" d="M1826.577,70.7c-7.288,27.258-11.059,55.938-7.212,84.053a132.849,132.849,0,0,0,11.867,39.977,128.4,128.4,0,0,0,21.653,31.25c17.477,18.8,39.683,32.811,62.87,43.492a335.112,335.112,0,0,0,81.967,25.5c29.821,5.236,60.407,6.223,90.353,1.408q5.433-.873,10.82-2.006a2.5,2.5,0,1,0-1.329-4.821c-28.9,6.054-58.871,6.351-88.059,2.251a334,334,0,0,1-82.908-22.977c-23.007-9.7-45.244-22.388-63.466-39.621a131.238,131.238,0,0,1-22.933-28.342,122.3,122.3,0,0,1-14.3-37.456c-5.588-26.835-3.1-54.884,3.01-81.4q1.155-5.013,2.49-9.982c.832-3.112-3.989-4.439-4.821-1.329"/><path class="c" d="M1877.165,72.177a131.371,131.371,0,0,0-5.426,64.907,86.093,86.093,0,0,0,5.443,19.7,46.707,46.707,0,0,0,11.108,16.082,54.944,54.944,0,0,0,14.837,9.629c11.508,5.169,23.975,7.241,36.438,8.537,14.128,1.469,28.526,2.134,42.147,6.511,10.915,3.507,20.489,9.867,29.428,16.914,17.3,13.632,34.1,30.623,57.022,33.442,22.314,2.743,45.622-11.29,53.855-32.14a40.623,40.623,0,0,0,2.148-7.5,2.568,2.568,0,0,0-1.746-3.075,2.523,2.523,0,0,0-3.076,1.746c-3.87,20.79-24.465,36.062-45.2,36.3-21.886.249-39.113-15.769-55-28.724-8.486-6.92-17.269-13.729-27.267-18.34-12.6-5.812-26.4-7.621-40.079-8.955-12.587-1.228-25.242-2.149-37.412-5.832-10.759-3.255-21.4-8.8-28-18.2a54.445,54.445,0,0,1-7.746-17.586,114.263,114.263,0,0,1-3.329-20.135,127.487,127.487,0,0,1,3.607-41.792q1.326-5.142,3.072-10.159a2.5,2.5,0,1,0-4.821-1.329"/><path class="c" d="M1933.828,93.4c.485,13.708,1.474,28.64,10.935,39.465,9.783,11.193,25.818,14.62,39.773,17.151,16.061,2.914,32.482,4.429,47.989,9.8,14.161,4.908,28.242,12.608,43.717,11.12a45.7,45.7,0,0,0,33.314-19.494,37.977,37.977,0,0,0,2.388-4.084c1.451-2.864-2.861-5.4-4.317-2.523-5.535,10.925-16.4,18.419-28.344,20.664-14.336,2.7-28-3.963-41.049-8.909a139.9,139.9,0,0,0-22.088-6.288c-7.738-1.556-15.556-2.664-23.345-3.927a192.84,192.84,0,0,1-22.517-4.684c-6.255-1.8-12.518-4.258-17.7-8.295-10.777-8.4-12.9-22.246-13.556-35.069-.084-1.643-.147-3.286-.2-4.93-.113-3.208-5.114-3.224-5,0"/><path class="c" d="M1662.394,187.313a396.509,396.509,0,0,1,41.395,11.15,400.643,400.643,0,0,1,39.72,15.417,416.336,416.336,0,0,1,37.866,19.476,422.416,422.416,0,0,1,35.6,23.146,419.5,419.5,0,0,1,62.933,56.081,403.041,403.041,0,0,1,26.571,32.125,395.192,395.192,0,0,1,23.186,34.947,378.436,378.436,0,0,1,19.118,36.922,355.519,355.519,0,0,1,14.676,38.477q1.539,4.859,2.935,9.761c.881,3.089,5.708,1.776,4.821-1.329a358.594,358.594,0,0,0-13.81-39.475,380.063,380.063,0,0,0-18.345-37.993,391.44,391.44,0,0,0-22.345-35.647,412.5,412.5,0,0,0-26.264-33.483,416.81,416.81,0,0,0-29.5-30.563q-15.617-14.613-32.65-27.594a422.91,422.91,0,0,0-35.277-24.238,417.1,417.1,0,0,0-77.618-37.319,397.564,397.564,0,0,0-41.385-12.357q-5.133-1.233-10.3-2.325c-3.138-.666-4.48,4.153-1.329,4.821"/><path class="c" d="M1681.324,259.7a134.135,134.135,0,0,1,49.764,31.3,157.072,157.072,0,0,1,18.51,23.018c5.757,8.426,11.539,17.05,19.222,23.873,7.868,6.988,17.417,11.335,26.716,16.038,8.34,4.217,16.106,9.013,22.656,15.744,11.665,11.99,18.885,27.445,26.094,42.32,7.361,15.191,14.967,30.717,26.939,42.888q2.166,2.2,4.5,4.217a2.561,2.561,0,0,0,3.535,0,2.521,2.521,0,0,0,0-3.535c-12.847-11.109-20.939-26.221-28.308-41.257-7.467-15.238-14.455-31.005-25.514-44.07a76.129,76.129,0,0,0-20.633-17.039c-9.087-5.158-18.936-8.982-27.544-14.975-8.3-5.78-14.49-13.882-20.188-22.116-5.825-8.415-11.486-16.883-18.426-24.444a139.025,139.025,0,0,0-49.144-34.155q-3.391-1.405-6.854-2.626a2.523,2.523,0,0,0-3.075,1.746,2.55,2.55,0,0,0,1.746,3.075"/><path class="c" d="M1698.962,334.138c6.884,8.552,16.165,14.682,25.279,20.6,9.211,5.981,18.2,12.024,25.678,20.161,14.709,16,23.219,36.521,31.692,56.231q1.806,4.2,3.638,8.4a39.325,39.325,0,0,0,4.25,8.08,13.5,13.5,0,0,0,7.554,5.31,9.953,9.953,0,0,0,8.865-1.889,2.516,2.516,0,0,0,0-3.535,2.556,2.556,0,0,0-3.535,0c-1.425,1.166-3.707.877-5.279.206-2.251-.96-3.754-3.044-4.908-5.113-2.568-4.6-4.425-9.69-6.505-14.529-4.206-9.787-8.4-19.6-13.361-29.036a132.327,132.327,0,0,0-17.556-26.191c-7.12-8.074-15.66-14.361-24.633-20.215-9.881-6.447-20.15-12.7-27.643-22.013a2.518,2.518,0,0,0-3.536,0,2.56,2.56,0,0,0,0,3.536"/><path class="c" d="M1771.354,97.018c2.537,12.587,5.042,25.5,3.587,38.388a45.09,45.09,0,0,1-14.639,28.86,49.3,49.3,0,0,1-27.908,12.34,46.821,46.821,0,0,1-29.61-7.368c-9.547-6.109-16.993-15.568-19.832-26.613-.8-3.114-5.624-1.794-4.821,1.329,5.661,22.028,27.654,38.07,50.215,37.861a53.939,53.939,0,0,0,31.622-10.851,49.6,49.6,0,0,0,18.971-29.27c3.282-15.26.267-30.969-2.764-46a2.5,2.5,0,0,0-4.821,1.329"/><path class="c" d="M2024.258,342.669c-8.258-7.454-19.569-16.262-31.405-11.849a22.813,22.813,0,0,0-11.827,10.423c-3.005,5.435-3.832,11.8-3.569,17.932.909,21.174,11.017,41.657,25.624,56.744a92.973,92.973,0,0,0,29.008,20.328,2.579,2.579,0,0,0,3.421-.9,2.52,2.52,0,0,0-.9-3.421,89.806,89.806,0,0,1-42.206-38.82,83.081,83.081,0,0,1-9.218-26.8c-1.567-9.859-1.479-22.193,7.445-28.7,10.507-7.66,22.237,1.506,30.088,8.594,2.384,2.151,5.931-1.374,3.536-3.536"/><path class="c" d="M1698.338,236.165c13.457,16.021,33.15,24.474,52.212,31.827,19.342,7.46,39.128,14.295,55.7,27.146,15.976,12.387,28.36,28.627,39.116,45.585,11.114,17.522,20.706,35.949,31.58,53.616a283.571,283.571,0,0,0,17.68,25.77c6.734,8.644,14.6,17.459,25.3,21.029a28.314,28.314,0,0,0,8.234,1.41c3.218.081,3.217-4.919,0-5-11.1-.279-19.854-8.636-26.551-16.674a234.167,234.167,0,0,1-17.636-24.71c-11.048-17.44-20.6-35.768-31.414-53.351-10.559-17.173-22.477-33.87-37.81-47.131a125.075,125.075,0,0,0-25.461-17.06,303.418,303.418,0,0,0-29.214-12.323c-18.637-7.084-38.451-14.1-53.1-28.2a70.464,70.464,0,0,1-5.107-5.474,2.521,2.521,0,0,0-3.536,0,2.555,2.555,0,0,0,0,3.536"/><path class="c" d="M1764.445,166.355a260.726,260.726,0,0,0,31.148,43.394,409.521,409.521,0,0,0,38.334,37.87c13.615,11.94,27.782,23.233,42.082,34.336,7.433,5.771,14.865,11.549,22.384,17.206a182.445,182.445,0,0,0,24.72,16.207c17.216,9.024,36.264,13.611,55.162,17.583q3.555.747,7.114,1.477a2.562,2.562,0,0,0,3.075-1.746,2.525,2.525,0,0,0-1.746-3.076c-18.708-3.857-37.755-7.7-55.226-15.689-17.37-7.94-32.245-20.272-47.258-31.866-14.219-10.981-28.34-22.1-41.975-33.806a440.953,440.953,0,0,1-38.548-36.909,265.43,265.43,0,0,1-31.6-41.766q-1.716-2.844-3.346-5.739c-1.581-2.8-5.9-.285-4.317,2.524"/><path class="c" d="M1984.8,333.9a13.226,13.226,0,0,1,2.568,1.433l-.505-.391a5.265,5.265,0,0,1,.892.873l-.391-.506a3.981,3.981,0,0,1,.317.47,2.588,2.588,0,0,0,1.494,1.149,1.9,1.9,0,0,0,1,.045,1.855,1.855,0,0,0,.93-.3,2.532,2.532,0,0,0,1.15-1.494,2.624,2.624,0,0,0-.253-1.926,9.793,9.793,0,0,0-4.674-3.673,1.861,1.861,0,0,0-.931-.3,1.886,1.886,0,0,0-1,.045,2.5,2.5,0,0,0-1.747,3.075,2.448,2.448,0,0,0,1.149,1.494"/></g></g></svg>