<svg xmlns="http://www.w3.org/2000/svg" xmlns:xlink="http://www.w3.org/1999/xlink" width="448.333" height="165.357" viewBox="0 0 448.333 165.357"><defs><style>.a{fill:none;}.b{clip-path:url(#a);}.c{fill:#1a1818;}</style><clipPath id="a"><rect class="a" width="448.332" height="165.357"/></clipPath></defs><g transform="translate(0 0)"><g class="b" transform="translate(0 0)"><path class="c" d="M0,53.826c0-14.3,12.208-34.415,12.208-37.655a3.2,3.2,0,0,0-.492-1.672c-.394-.675.1-1.01.788-.563,4.233,2.686,6.4,6.368,6.4,8.272S9.254,37.4,5.808,53.714c-1.477,6.815-.3,10.051.591,11.172s.3,1.676-.492,1.225C4.036,65,0,62.317,0,53.826" transform="translate(0 45.276)"/><path class="c" d="M7.8,61.432c0-12.96,12.8-49.159,31.11-49.159,7.088,0,12.507,11.731,12.507,21,0,15.306-20.481,40.779-22.942,39.886s-3.938-1.448-.2-4.357S46.986,47.466,46.986,27.579c0-7.15-1.874-11.731-5.812-11.508-12.6.67-29.633,27.819-28.156,52.068.3,5.023,2.067,12.062,6.005,12.062,13.586,0,20.28-18.546,19.788-14.3-.689,5.814-6.494,17.876-15.456,17.876S7.8,72.609,7.8,61.432" transform="translate(21.735 40.464)"/><path class="c" d="M21.632,61.432c0-12.96,12.8-49.159,31.11-49.159,7.088,0,12.507,11.731,12.507,21,0,15.306-20.481,40.779-22.942,39.886s-3.938-1.448-.2-4.357S60.818,47.466,60.818,27.579c0-7.15-1.874-11.731-5.812-11.508-12.6.67-29.633,27.819-28.156,52.068.3,5.023,2.067,12.062,6.005,12.062,13.586,0,20.28-18.546,19.788-14.3-.689,5.814-6.494,17.876-15.456,17.876S21.632,72.609,21.632,61.432" transform="translate(60.277 40.464)"/><path class="c" d="M42.952,92.574c0-14.859,16.343-69.493,17.425-74.855a6.617,6.617,0,0,0-.3-4.581c-.788-2.123,7.581-.116,7.581,5.805S48.268,77.491,48.268,94.138c0,1.452.3,2.681,1.575,2.346,5.119-1.564,27.664-65.806,32.787-65.806s7.183,7.486,7.183,13.183-4.82,26.814-1.768,26.814c3.836,0,13.192-26.367,15.65-37.316a12.373,12.373,0,0,1-1.965-5.028c0-1.345.689-2.574,1.871-2.574s4.332.67,4.332,3.352a23.414,23.414,0,0,1-.886,4.026,9.125,9.125,0,0,0,6.793,2.789c11.715,0,15.555-4.8,19.591-8.487,1.772-1.564,2.166,1.9,1.871,2.23-1.575,2.123-9.746,9.832-20.084,9.832a13.467,13.467,0,0,1-9.057-3.236c-3.938,13.854-13.59,42.9-18.217,42.9-4.525,0-7.088-7.709-7.088-13.742,0-13.966,5.615-28.713,2.563-28.713-4.43,0-28.259,68.375-34.461,68.375-4.332,0-6.005-5.805-6.005-12.513" transform="translate(119.686 40.604)"/><path class="c" d="M65.468,63.887a54.861,54.861,0,0,1,2.264-13.411,15.7,15.7,0,0,1-5.021-11.731C62.711,23.55,76,13.5,86.437,13.5,92.246,13.5,97.07,18.187,97.07,25c0,8.044-3.15,19.1-7.285,28.713,9.55-1.452,21.856-8.715,29.145-22.568.587-1.117,3.344.335,2.461,1.676C116.759,40.2,103.965,54.61,88.6,56.285,83.779,66.233,77.971,74.05,73.639,74.05s-8.27-5.7-8.171-10.163m11.223-11.4a29.718,29.718,0,0,0,9.746,1.452h.591c4.135-9.161,7.387-20.557,7.387-30.389,0-4.581-2.465-7.486-5.812-7.486-11.617,0-20.477,19.217-20.477,25.25a12.14,12.14,0,0,0,.985,4.916c3.643-9.832,8.86-17.764,11.125-17.764,3.544,0,5.218,3.352,4.332,5.139-2.461,5.251-5.513,12.29-7.876,18.881m-.886,2.57c-3.052,8.831-4.726,16.2-2.166,16.2,3.15,0,8.073-6.149,12.306-14.864h-.2A32.592,32.592,0,0,1,75.8,55.056" transform="translate(174.744 44.493)"/><path class="c" d="M74.745,65.245c1.083-3.687,12.5-43.242,12.5-51.4,0-2.789,6.99,3.468,6.2,6.592S79.171,65.581,82.424,60.325s17.918-30.832,24.313-30.613c4.139.116,5.123,8.6,6.6,12.737.488,1.229,1.083,2.123,1.674,2.239,4.922.894,18.508-11.619,20.576-13.63s3.15.331,1.28,2.118-14.476,15.981-18.709,16.2c-4.722.219-7.482-4.134-8.955-8.16-1.181-3.347-1.575-6.364-3.056-6.257-7.38.894-23.526,34.3-25.1,38.661s-7.387-4.7-6.3-8.379" transform="translate(207.902 43.353)"/><path class="c" d="M117.6,156.419c-6.005-6.592-3.938-19.552-2.067-28.713s16.343-61.564,20.777-72.625c-4.135,5.474-36.036,54.749-43.124,54.749-2.953,0-6.5-5.363-6.5-8.379,0-9.5,14.082-32.069,21.068-32.069,4.532,0,9.258,2.909,11.916,5.032,8.073-11.624,15.456-23.131,18.016-27.489C143.492,36.981,154.715,0,160.327,0a3.578,3.578,0,0,1,3.741,3.463c0,3.352-12.109,21.786-15.555,29.835s-29.834,86.81-27.373,115.863c.492,5.917,1.969,8.822,2.662,9.6,1.276,1.457-2.56,1.676-6.206-2.346M93.279,105.025c3.741,0,14.767-14.193,25.006-28.717-1.276-.894-2.166-1.788-3.938-1.788-7.183,0-21.757,22.568-21.757,29.5,0,.67.3,1.006.689,1.006" transform="translate(241.542 -0.002)"/><path class="c" d="M97.291,108.277c0-9.724,17.032-27.6,35.835-43.242-.981-.219-2.064-.559-3.15-.894-5.021-1.788-11.814-6.7-11.814-12.848,0-11.508,10.928-21.786,16.146-26.371a3.925,3.925,0,0,0,1.874-2.9c.095-.894.788-1.676,2.264-2.462,4.43-2.23,9.743-5.363,12.011-5.363,2.658,0,4.627,5.363,2.166,6.373-9.16,3.687-30.523,22.9-30.523,32.4,0,3.91,6.5,4.8,12.011,6.7a31.546,31.546,0,0,1,3.84,1.568c14.673-11.735,29.633-21.567,38.1-24.807.689-.223,1.575,1.9.984,2.123-8.27,3.128-22.249,12.737-36.036,24.132,5.418,3.24,7.092,7.15,7.092,12.96,0,14.077-27.963,42.9-41.648,42.9-6.793,0-9.156-6.033-9.156-10.274m7.581,6.592c15.26-2.015,38.4-33.186,38.4-44.918,0-2.346-2.563-3.128-6.206-3.91-19,16.424-36.623,35.528-36.623,44.8,0,2.127,1.378,4.473,4.43,4.026" transform="translate(271.101 46.804)"/></g></g></svg>