<svg xmlns="http://www.w3.org/2000/svg" xmlns:xlink="http://www.w3.org/1999/xlink" width="1125.074" height="61.144" viewBox="0 0 1125.074 61.144"><defs><style>.a,.c{fill:none;}.b{clip-path:url(#a);}.c{stroke:#ff9d00;stroke-miterlimit:10;stroke-width:5px;}.d{fill:#fff;}.e{fill:#ff9d00;}</style><clipPath id="a"><rect class="a" width="1125.074" height="61.144" transform="translate(0 0)"/></clipPath></defs><g transform="translate(0 0)"><g class="b"><line class="c" x2="509.611" transform="translate(0 37.85)"/><line class="c" x2="509.611" transform="translate(615.463 37.85)"/></g><rect class="d" width="188.343" height="61.144" transform="translate(463.404 0)"/><g class="b"><path class="e" d="M516.923,53.793H491.841c-2.008,0-2.591.145-3.37.8a.284.284,0,0,1-.388.074l-.324-.218a.369.369,0,0,1-.129-.435l.907-2.617C493.073,38.321,504.8,32.728,504.8,20.743c0-6.391-3.24-9.517-6.742-9.517-3.24,0-6.026,2.833-6.675,4.433-.388.944,0,1.162.844,1.162,4.731,0,6.415,2.47,6.415,5.374,0,3.486-2.4,5.447-4.924,5.447-2.335,0-5.38-1.668-5.38-6.609,0-6.391,4.99-11.693,14.517-11.693,7.193,0,14.127,2.978,14.127,12.565,0,14.745-16.266,11.986-22.552,21.064l-.453.654.063.145H507.59c7.518,0,8.684-1.162,8.684-6.465a.327.327,0,0,1,.324-.363h.325a.327.327,0,0,1,.325.363V53.429a.327.327,0,0,1-.325.364"/><path class="e" d="M541.05,9.339c10.174,0,18.34,8.934,18.34,23.1,0,14.381-8.425,22.226-18.47,22.226S522.9,46.82,522.9,32.583c0-14.31,8.035-23.244,18.146-23.244m.129,44.235c3.889,0,5.639-7.189,5.639-21.354,0-14.381-1.816-21.792-5.639-21.792-3.887,0-5.768,7.7-5.768,21.863,0,14.239,1.881,21.283,5.768,21.283"/><path class="e" d="M592.985,53.793H567.9c-2.008,0-2.591.145-3.37.8a.284.284,0,0,1-.388.074l-.324-.218a.369.369,0,0,1-.129-.435L564.6,51.4c4.536-13.074,16.267-18.667,16.267-30.652,0-6.391-3.24-9.517-6.741-9.517-3.241,0-6.027,2.833-6.676,4.433-.388.944,0,1.162.844,1.162,4.731,0,6.415,2.47,6.415,5.374,0,3.486-2.4,5.447-4.924,5.447-2.335,0-5.38-1.668-5.38-6.609,0-6.391,4.99-11.693,14.517-11.693,7.193,0,14.13,2.978,14.13,12.565,0,14.745-16.269,11.986-22.555,21.064l-.453.654.063.145h13.546c7.518,0,8.684-1.162,8.684-6.465a.327.327,0,0,1,.324-.363h.325a.327.327,0,0,1,.325.363V53.429a.327.327,0,0,1-.325.364"/><path class="e" d="M601.233,32.728a36.355,36.355,0,0,0,1.752-11.4,33.785,33.785,0,0,0-1.361-9.954c-.066-.145,0-.216.192-.435a6.948,6.948,0,0,1,4.863-1.6c3.3,0,7.9,1.6,11.6,1.6,3.24,0,5.575-1.233,6.029-4.14a.326.326,0,0,1,.322-.364h.454a.327.327,0,0,1,.325.364v6.973c0,7.192-3.758,9.008-6.935,9.008-7.841,0-9.008-10.824-14.776-6.394a42.022,42.022,0,0,1-.324,11.767l.129.219a15.139,15.139,0,0,1,8.684-2.324c10.889,0,15.361,6.683,15.361,14.02,0,8.425-5.833,14.6-16.074,14.6-9.332,0-14.127-5.087-13.934-10.824.129-3.412,2.074-5.3,4.538-5.3s4.536,1.961,4.536,5.013c0,2.54-1.491,4.938-5.314,5.811-.259.071-.259.215,0,.653,1.166,1.887,4.082,2.688,6.092,2.688,5.249,0,7.064-5.45,7.064-12.2,0-7.7-2.333-12.35-5.639-12.35-2.074,0-4.082,1.816-5.185,5.811,0-.071-.2.219-.258.148l-2.14-1.091c-.063-.071-.063-.145,0-.29"/></g></g></svg>