<svg xmlns="http://www.w3.org/2000/svg" xmlns:xlink="http://www.w3.org/1999/xlink" width="1220.91" height="82.15" viewBox="0 0 1220.91 82.15"><defs><style>.a{fill:none;}.b{clip-path:url(#a);}.c{fill:#ff9d00;}.d{fill:#fff;}</style><clipPath id="a"><rect class="a" width="1220.91" height="82.15" transform="translate(0 0)"/></clipPath></defs><g class="b"><path class="c" d="M1179.835,82.15H41.075a41.075,41.075,0,0,1,0-82.15h1138.76a41.075,41.075,0,1,1,0,82.15"/><path class="d" d="M59.922,48.676c0,.2-.181.3-.545.3a5.512,5.512,0,0,1-.652-.037l-4.61-.139-4.612.139a4.007,4.007,0,0,1-.543.037q-.728,0-.727-.366c0-.27.326-.4.981-.4q3.192-.035,3.193-.616a2.032,2.032,0,0,0-.074-.272l-.3-.922-.186-.486q-.325-1.08-1.595-4.781H42.5q-2.178,5.58-2.176,6.416a.54.54,0,0,0,.436.593c.072.023.676.068,1.814.139.7.023,1.053.139,1.053.349q0,.35-.944.349-1.671,0-3.885-.142c-.362-.023-.738-.034-1.124-.034a5.462,5.462,0,0,0-1.125.116,2.454,2.454,0,0,1-.473.06c-.338,0-.508-.1-.508-.315s.381-.326,1.143-.352a3.638,3.638,0,0,0,1.653-.332,2.008,2.008,0,0,0,.8-1.135q4.669-12.876,7.6-20.678a3.9,3.9,0,0,1,.337-.925l.156-.638c.073-.255.169-.383.29-.383.072,0,.133.071.182.21q.471,1.357,2.141,5.684,1.308,3.379,6.5,16.98a1.683,1.683,0,0,0,.745,1,5.44,5.44,0,0,0,1.87.25q.944.034.943.332m-9.834-8.351q-.591-1.566-1.959-5.2l-1.744-4.835q-1.531,3.861-3.679,10.031Z"/><path class="d" d="M81.7,41.162a8.491,8.491,0,0,1-2.057,5.823,6.54,6.54,0,0,1-5.117,2.335,4.445,4.445,0,0,1-3.715-1.671v8.124a3.9,3.9,0,0,0,.055.905c.035.094.154.176.349.244a13.686,13.686,0,0,0,2.131.1c.294,0,.442.1.442.315,0,.162-.158.244-.473.244H66.2c-.7,0-1.052-.088-1.052-.261q0-.332.436-.332h1.089c.7,0,1.076-.153,1.125-.454q.036-.208.036-3.206V35.966a.8.8,0,0,0-.98-.9H65.33c-.219,0-.328-.088-.328-.261,0-.221.267-.332.8-.332a6.9,6.9,0,0,0,3.631-.908,1.629,1.629,0,0,1,.725-.278.367.367,0,0,1,.381.261,8.085,8.085,0,0,1,.127,1.586,4.471,4.471,0,0,1,3.848-1.847,6.68,6.68,0,0,1,5.173,2.213A8.1,8.1,0,0,1,81.7,41.162m-3.23.017a11.2,11.2,0,0,0-.874-4.648,3.823,3.823,0,0,0-3.612-2.656,3.079,3.079,0,0,0-2.189.857,3.007,3.007,0,0,0-.984,2.08q-.072,1.536.036,6.464.038,2.481.109,2.988A2.251,2.251,0,0,0,71.43,47.3a3.264,3.264,0,0,0,2.736,1.433,3.128,3.128,0,0,0,2.845-1.538,11.218,11.218,0,0,0,1.459-6.013"/><path class="d" d="M98.363,47.334c0,.394-.426.808-1.282,1.237a5.488,5.488,0,0,1-2.474.647,2.3,2.3,0,0,1-2.6-2.477,4.521,4.521,0,0,1-4.261,2.579,3.734,3.734,0,0,1-2.564-.888,2.9,2.9,0,0,1-1.012-2.285q0-2.856,3.561-4.531A20.2,20.2,0,0,1,91.975,40.5v-.874a15.713,15.713,0,0,0-.326-4.044A2.472,2.472,0,0,0,89.034,33.8a3.351,3.351,0,0,0-2.124.664,2.031,2.031,0,0,0-.852,1.674c0,.184.15.278.453.278a1.067,1.067,0,0,1,.817.417,1.4,1.4,0,0,1,.363.942q0,1.538-1.6,1.535A1.859,1.859,0,0,1,84.17,37.4a3.645,3.645,0,0,1,1.343-2.823,6.116,6.116,0,0,1,4.139-1.291q3.992,0,4.9,2.091a9.935,9.935,0,0,1,.327,3.172v6.521q0,1.6.035,1.884c.122.838.473,1.255,1.054,1.255a2.188,2.188,0,0,0,1.67-.7c.241-.256.423-.383.544-.383s.181.071.181.21m-6.388-3.695V41.091a9.42,9.42,0,0,0-3.848,1.552,3.159,3.159,0,0,0-1.162,2.562,2.593,2.593,0,0,0,.661,1.833,2.172,2.172,0,0,0,1.665.713,2.778,2.778,0,0,0,2.468-1.672,7.391,7.391,0,0,0,.216-2.44"/><path class="d" d="M105.985,48.693q0,.315-.616.315c.024,0-.267-.023-.871-.071-.727-.045-1.331-.068-1.816-.068H98.907a.706.706,0,0,1-.436.139c-.266,0-.4-.085-.4-.258,0-.247.24-.369.725-.369a3.475,3.475,0,0,0,1.506-.193,4.02,4.02,0,0,0,.127-1.447V36.176a5.794,5.794,0,0,0-.09-1.03c-.037-.1-.187-.156-.453-.156H98.471c-.266,0-.4-.082-.4-.244,0-.142.2-.224.608-.244a8.9,8.9,0,0,0,4.118-1.087l.359-.2a4.4,4.4,0,0,1,.287,1.915v11.2a12.677,12.677,0,0,0,.054,1.638.433.433,0,0,0,.381.312,6.887,6.887,0,0,0,1.6.139c.34,0,.508.094.508.278m-2.722-21.722c0,1.044-.544,1.569-1.634,1.569a1.643,1.643,0,0,1-1.161-.437A1.391,1.391,0,0,1,100,27.039a1.445,1.445,0,0,1,1.633-1.637q1.635,0,1.634,1.569"/><path class="d" d="M123.917,48.712c0,.173-.182.261-.544.261h-6.679c-.315,0-.473-.082-.473-.244,0-.116.067-.187.2-.21s.6-.045,1.4-.068c.459-.023.725-.088.8-.193a3.012,3.012,0,0,0,.11-1.129v-6.68a18.814,18.814,0,0,0-.291-4.52,2.4,2.4,0,0,0-2.469-1.567,3.777,3.777,0,0,0-3.048,1.53,1.95,1.95,0,0,0-.364,1.254V48c0,.278.259.431.776.454l1.106.034c.245,0,.369.082.369.244s-.146.244-.435.244h-6.607c-.364,0-.545-.071-.545-.216s.218-.232.654-.272h.907c.363,0,.58-.082.654-.244l.108-.522V40.137q0-3.963-.072-4.382t-.907-.417H107.51c-.485,0-.727-.085-.727-.258,0-.224.255-.335.764-.335a10.092,10.092,0,0,0,2.358-.383,4.558,4.558,0,0,0,1.779-.8.948.948,0,0,1,.508-.278c.17,0,.254.221.254.661v1.674a5.977,5.977,0,0,1,4.866-2.335,4.118,4.118,0,0,1,3.773,1.847,8.265,8.265,0,0,1,.655,3.976v7.951a3.164,3.164,0,0,0,.109,1.22,1.692,1.692,0,0,0,1.052.21h.654c.241,0,.362.074.362.227"/><path class="d" d="M135.063,46.845c0,.21-.3.582-.908,1.115a5.448,5.448,0,0,1-3.7,1.359,4.189,4.189,0,0,1-3.012-.973c-.389-.369-.582-1.461-.582-3.269V34.709a.394.394,0,0,0-.4-.381h-1.38c-.531,0-.8-.082-.8-.244s.133-.255.4-.281a5.612,5.612,0,0,0,4.4-2.681.638.638,0,0,1,.54-.315c.169,0,.253.079.253.244v.732a7.38,7.38,0,0,0,.145,1.881,5.658,5.658,0,0,0,1.09.071,12.557,12.557,0,0,0,2.65-.176,1.164,1.164,0,0,1,.254-.034c.193,0,.289.1.289.3q0,.5-2.939.5h-1.489v6.45a42.159,42.159,0,0,0,.254,6.118,1.492,1.492,0,0,0,1.671,1.24,4.339,4.339,0,0,0,2.685-1.291.42.42,0,0,1,.326-.173c.17,0,.256.057.256.173"/><path class="d" d="M143.156,48.693q0,.315-.616.315c.024,0-.267-.023-.871-.071q-1.091-.068-1.815-.068h-3.776a.706.706,0,0,1-.436.139c-.266,0-.4-.085-.4-.258,0-.247.24-.369.725-.369a3.475,3.475,0,0,0,1.506-.193,4.02,4.02,0,0,0,.127-1.447V36.176a5.793,5.793,0,0,0-.09-1.03c-.037-.1-.187-.156-.453-.156h-1.417c-.266,0-.4-.082-.4-.244,0-.142.2-.224.608-.244a8.9,8.9,0,0,0,4.118-1.087l.359-.2a4.4,4.4,0,0,1,.287,1.915v11.2a12.677,12.677,0,0,0,.054,1.638.433.433,0,0,0,.381.312,6.887,6.887,0,0,0,1.6.139c.34,0,.508.094.508.278m-2.722-21.722c0,1.044-.544,1.569-1.634,1.569a1.643,1.643,0,0,1-1.161-.437,1.391,1.391,0,0,1-.472-1.064A1.445,1.445,0,0,1,138.8,25.4q1.635,0,1.634,1.569"/><path class="d" d="M161.088,48.712c0,.173-.182.261-.544.261h-6.679c-.315,0-.473-.082-.473-.244,0-.116.067-.187.2-.21s.6-.045,1.4-.068c.459-.023.725-.088.8-.193a3.012,3.012,0,0,0,.11-1.129v-6.68a18.814,18.814,0,0,0-.291-4.52,2.4,2.4,0,0,0-2.469-1.567,3.777,3.777,0,0,0-3.048,1.53,1.95,1.95,0,0,0-.364,1.254V48c0,.278.259.431.776.454l1.106.034c.245,0,.369.082.369.244s-.146.244-.435.244h-6.607c-.364,0-.545-.071-.545-.216s.218-.232.654-.272h.907c.363,0,.58-.082.654-.244l.108-.522V40.137q0-3.963-.072-4.382t-.907-.417h-1.053c-.485,0-.727-.085-.727-.258,0-.224.255-.335.764-.335a10.092,10.092,0,0,0,2.358-.383,4.558,4.558,0,0,0,1.779-.8.948.948,0,0,1,.508-.278c.17,0,.254.221.254.661v1.674a5.977,5.977,0,0,1,4.866-2.335,4.118,4.118,0,0,1,3.773,1.847,8.265,8.265,0,0,1,.655,3.976v7.951a3.164,3.164,0,0,0,.109,1.22,1.692,1.692,0,0,0,1.052.21h.654c.241,0,.362.074.362.227"/><path class="d" d="M179.094,35.338q0,1.6-1.488,1.6a1.454,1.454,0,0,1-.926-.332.948.948,0,0,1-.418-.749,1.461,1.461,0,0,1,.109-.435,1.459,1.459,0,0,0,.11-.471c0-.3-.17-.454-.508-.454a1.138,1.138,0,0,0-.835.437,1.317,1.317,0,0,0-.4.889q0,.1.181,1.186a10.646,10.646,0,0,1,.182,1.637,5.23,5.23,0,0,1-1.706,3.975,5.958,5.958,0,0,1-4.246,1.6,10.162,10.162,0,0,1-2.4-.522,2.85,2.85,0,0,0-.618-.139,1.944,1.944,0,0,0-1.379.593,1.765,1.765,0,0,0-.618,1.288c0,1.212.762,1.813,2.287,1.813a19.444,19.444,0,0,0,2.8-.312,17,17,0,0,1,2.722-.244,5.034,5.034,0,0,1,3.467,1.115,3.946,3.946,0,0,1,1.252,3.1,6,6,0,0,1-2.669,4.986,10.96,10.96,0,0,1-6.732,1.987,8.363,8.363,0,0,1-4.739-1.167,3.694,3.694,0,0,1-1.723-3.226,3.322,3.322,0,0,1,1.6-3,8.713,8.713,0,0,1,2.542-.872q-2.578-.973-2.577-3,0-2.511,3.34-3.487a5.518,5.518,0,0,1-.509-8.349,6.273,6.273,0,0,1,4.392-1.518,6.414,6.414,0,0,1,2.415.383,7.738,7.738,0,0,1,2.159,1.535,3.428,3.428,0,0,1,2.869-1.64q2.067,0,2.068,1.779m-3.956,16.808q0-2.9-3.546-2.9a20.975,20.975,0,0,0-2.986.312,20.584,20.584,0,0,1-2.949.315,3.4,3.4,0,0,0-1.845,3.312,3.514,3.514,0,0,0,1.32,2.86,5.341,5.341,0,0,0,3.492,1.081,7.368,7.368,0,0,0,4.631-1.447,4.33,4.33,0,0,0,1.883-3.538m-2.8-13.357q0-5.052-2.9-5.054-2.832,0-2.832,4.708,0,5.3,3.014,5.3,2.723,0,2.722-4.952"/><path class="d" d="M197.171,35.722a1.825,1.825,0,0,1-.508,1.325,1.742,1.742,0,0,1-1.307.522,1.635,1.635,0,0,1-1.089-.366,1.151,1.151,0,0,1-.436-.922,1.185,1.185,0,0,1,.327-.837c.218-.233.326-.4.326-.488,0-.349-.266-.525-.8-.525a2.069,2.069,0,0,0-1.743,1.214q-.836,1.427-.835,5.276V47.79a.478.478,0,0,0,.309.52,9.5,9.5,0,0,0,1.868.139c.268.048.4.139.4.281,0,.161-.158.244-.473.244h-7.041c-.389,0-.582-.071-.582-.21s.158-.21.472-.21h.508c.823,0,1.308-.094,1.452-.281a5.506,5.506,0,0,0,.073-1.3V37.339q0-1.927-.6-2.224a4.856,4.856,0,0,0-1.907-.335c-.29,0-.436-.08-.436-.244s.121-.244.363-.244h.254a10.735,10.735,0,0,1,1.09.054,4.244,4.244,0,0,1,.472.051,7.363,7.363,0,0,0,2.976-.732l.473-.21.289-.1a9.625,9.625,0,0,1,.146,1.671v.7a3.583,3.583,0,0,1,3.266-2.369,2.778,2.778,0,0,1,1.925.678,2.177,2.177,0,0,1,.762,1.691"/><path class="d" d="M211.874,45.1a3.018,3.018,0,0,1-.563,1.237,7.7,7.7,0,0,1-1.143,1.447,5.7,5.7,0,0,1-4.176,1.533,7.3,7.3,0,0,1-5.462-2.265,7.751,7.751,0,0,1-2.2-5.615,8.417,8.417,0,0,1,2.087-5.823,6.7,6.7,0,0,1,5.209-2.336,6.531,6.531,0,0,1,4.319,1.448,4.939,4.939,0,0,1,1.853,3.714,19.423,19.423,0,0,1-3.086.139h-2.542q-.255,0-4.356.1a14.059,14.059,0,0,0-.182,2.191,8.989,8.989,0,0,0,1.4,5.4,4.61,4.61,0,0,0,3.939,1.892,3.9,3.9,0,0,0,2.323-.627,7.733,7.733,0,0,0,1.888-2.406.438.438,0,0,1,.4-.278c.194,0,.291.079.291.244m-3.158-7.114q-.146-4.183-3.123-4.185-2.94,0-3.666,4.185Z"/><path class="d" d="M230.1,57.342c0,.161-.158.244-.471.244a1.636,1.636,0,0,1-.363-.037l-4.356-.068q-.437,0-1.126.051c-.459.037-.775.054-.944.054h-.326c-.242,0-.363-.083-.363-.247q0-.278.652-.278c1.065-.026,1.658-.117,1.78-.281a8.745,8.745,0,0,0,.145-2.415V47.682a5.143,5.143,0,0,1-3.885,1.638,6.32,6.32,0,0,1-4.918-2.282,8.21,8.21,0,0,1-2.015-5.632,8,8,0,0,1,2.251-5.806,7.558,7.558,0,0,1,5.663-2.319,8.488,8.488,0,0,1,2.505.418,5.719,5.719,0,0,0,1.452.315,1.568,1.568,0,0,0,1.2-.366q.325-.367.471-.367c.194,0,.291.2.291.594V56.4c0,.371.29.57.872.593q1.486.067,1.487.349m-5.372-14.214q0-5.67-.055-6.7a2.805,2.805,0,0,0-.415-1.512,3.021,3.021,0,0,0-2.564-1.044q-4.482,0-4.48,7.653a10.457,10.457,0,0,0,1.084,5.235,3.359,3.359,0,0,0,3.034,1.861,3.522,3.522,0,0,0,1.9-.556,3.116,3.116,0,0,0,1.246-1.393,13.461,13.461,0,0,0,.253-3.547"/><path class="d" d="M247.738,47.716c0,.165-.266.255-.8.281a13.547,13.547,0,0,0-4.973,1.183.588.588,0,0,1-.254.071c-.145,0-.219-.093-.219-.278V47.018a5.445,5.445,0,0,1-4.645,2.233,4.528,4.528,0,0,1-3.817-1.49,2.75,2.75,0,0,1-.56-1.14,24.775,24.775,0,0,1-.088-2.807V35.886a3.648,3.648,0,0,0-.147-1.422c-.1-.139-.422-.218-.979-.241h-.472q-.979.069-.98-.281c0-.162.206-.244.618-.244q.652,0,1.887.094c.411.031.653.048.726.048a18.448,18.448,0,0,0,2.36-.142V43.38a10.994,10.994,0,0,0,.362,3.541,2.3,2.3,0,0,0,2.36,1.354,3.066,3.066,0,0,0,2.832-1.527,7.265,7.265,0,0,0,.653-3.541V37.83a10.435,10.435,0,0,0-.11-1.771V34.913c-.023-.347-.1-.548-.234-.6a2.421,2.421,0,0,0-.817-.088q-1.525.034-1.526-.312c0-.139.254-.21.764-.21h4.936v9.73a26.808,26.808,0,0,0,.108,3.173c.071.442.257.7.555.766a11.583,11.583,0,0,0,2.028.1c.287,0,.43.082.43.244"/><path class="d" d="M256.2,48.693q0,.315-.616.315c.024,0-.267-.023-.871-.071q-1.09-.068-1.815-.068h-3.776a.706.706,0,0,1-.436.139c-.266,0-.4-.085-.4-.258,0-.247.24-.369.725-.369a3.475,3.475,0,0,0,1.506-.193,4.02,4.02,0,0,0,.127-1.447V36.176a5.793,5.793,0,0,0-.09-1.03c-.037-.1-.187-.156-.453-.156h-1.417c-.266,0-.4-.082-.4-.244,0-.142.2-.224.608-.244a8.9,8.9,0,0,0,4.118-1.087l.359-.2a4.4,4.4,0,0,1,.287,1.915v11.2a12.677,12.677,0,0,0,.054,1.638.433.433,0,0,0,.381.312,6.887,6.887,0,0,0,1.6.139c.34,0,.508.094.508.278m-2.722-21.722c0,1.044-.544,1.569-1.634,1.569a1.643,1.643,0,0,1-1.161-.437,1.392,1.392,0,0,1-.472-1.064,1.445,1.445,0,0,1,1.633-1.637q1.635,0,1.634,1.569"/><path class="d" d="M268.755,35.722a1.825,1.825,0,0,1-.508,1.325,1.742,1.742,0,0,1-1.307.522,1.635,1.635,0,0,1-1.089-.366,1.151,1.151,0,0,1-.436-.922,1.185,1.185,0,0,1,.327-.837c.218-.233.326-.4.326-.488,0-.349-.266-.525-.8-.525a2.069,2.069,0,0,0-1.743,1.214q-.836,1.427-.835,5.276V47.79a.478.478,0,0,0,.309.52,9.5,9.5,0,0,0,1.868.139c.268.048.4.139.4.281,0,.161-.158.244-.473.244h-7.041c-.389,0-.582-.071-.582-.21s.158-.21.472-.21h.508c.823,0,1.308-.094,1.452-.281a5.506,5.506,0,0,0,.073-1.3V37.339q0-1.927-.6-2.224a4.856,4.856,0,0,0-1.907-.335c-.29,0-.436-.08-.436-.244s.121-.244.363-.244h.254a10.735,10.735,0,0,1,1.09.054,4.243,4.243,0,0,1,.472.051,7.363,7.363,0,0,0,2.976-.732l.473-.21.289-.1a9.625,9.625,0,0,1,.146,1.671v.7a3.583,3.583,0,0,1,3.266-2.369,2.778,2.778,0,0,1,1.925.678,2.177,2.177,0,0,1,.762,1.691"/><path class="d" d="M283.458,45.1a3.018,3.018,0,0,1-.563,1.237,7.7,7.7,0,0,1-1.143,1.447,5.7,5.7,0,0,1-4.176,1.533,7.3,7.3,0,0,1-5.462-2.265,7.75,7.75,0,0,1-2.2-5.615,8.417,8.417,0,0,1,2.087-5.823,6.7,6.7,0,0,1,5.209-2.336,6.531,6.531,0,0,1,4.319,1.448,4.939,4.939,0,0,1,1.853,3.714,19.423,19.423,0,0,1-3.086.139h-2.542q-.255,0-4.356.1a14.057,14.057,0,0,0-.182,2.191,8.989,8.989,0,0,0,1.4,5.4,4.61,4.61,0,0,0,3.939,1.892,3.906,3.906,0,0,0,2.324-.627,7.748,7.748,0,0,0,1.887-2.406.438.438,0,0,1,.4-.278c.194,0,.291.079.291.244M280.3,37.989q-.145-4.183-3.123-4.185-2.94,0-3.666,4.185Z"/><path class="d" d="M296.6,44.465a4.513,4.513,0,0,1-1.533,3.442,5.21,5.21,0,0,1-3.659,1.413,7.3,7.3,0,0,1-2.991-.834,1.816,1.816,0,0,0-.83-.244c-.337,0-.59.218-.756.661-.1.278-.229.417-.4.417s-.252-.091-.252-.278V44.371c0-.255.084-.386.254-.386.193,0,.3.131.326.389A5.12,5.12,0,0,0,287.7,46.9a4.713,4.713,0,0,0,3.885,1.827,2.994,2.994,0,0,0,2.105-.735,2.526,2.526,0,0,0,.8-1.958,2.749,2.749,0,0,0-.907-2.165,3.912,3.912,0,0,0-.926-.647c-.28-.128-1.1-.437-2.451-.928q-4.027-1.464-4.029-4.4a4.4,4.4,0,0,1,1.367-3.286,4.677,4.677,0,0,1,3.387-1.328,8.626,8.626,0,0,1,2.16.417,2.309,2.309,0,0,0,.648.1.866.866,0,0,0,.937-.695q.108-.35.325-.349c.167,0,.251.091.251.278v1.674a18.949,18.949,0,0,0,.182,2.685v.07c0,.185-.1.279-.291.279q-.217,0-.544-1.056a4.06,4.06,0,0,0-1.4-2.04,3.656,3.656,0,0,0-2.306-.775,2.891,2.891,0,0,0-2.033.732,2.414,2.414,0,0,0-.8,1.853q0,1.749,2.433,2.656a17.12,17.12,0,0,1,4.792,2.378,3.916,3.916,0,0,1,1.307,2.971"/><path class="d" d="M319.866,47.334c0,.394-.427.808-1.282,1.237a5.488,5.488,0,0,1-2.474.647,2.3,2.3,0,0,1-2.6-2.477,4.523,4.523,0,0,1-4.262,2.579,3.734,3.734,0,0,1-2.564-.888,2.9,2.9,0,0,1-1.012-2.285q0-2.856,3.561-4.531a20.2,20.2,0,0,1,4.244-1.115v-.874a15.713,15.713,0,0,0-.326-4.044,2.472,2.472,0,0,0-2.615-1.779,3.351,3.351,0,0,0-2.124.664,2.031,2.031,0,0,0-.852,1.674c0,.184.15.278.453.278a1.067,1.067,0,0,1,.817.417,1.4,1.4,0,0,1,.363.942q0,1.538-1.6,1.535a1.859,1.859,0,0,1-1.923-1.918,3.645,3.645,0,0,1,1.343-2.823,6.116,6.116,0,0,1,4.139-1.291q3.992,0,4.9,2.091a9.934,9.934,0,0,1,.327,3.172v6.521q0,1.6.035,1.884c.122.838.473,1.255,1.054,1.255a2.188,2.188,0,0,0,1.67-.7c.241-.256.423-.383.544-.383s.181.071.181.21m-6.388-3.695V41.091a9.42,9.42,0,0,0-3.848,1.552,3.159,3.159,0,0,0-1.162,2.562,2.593,2.593,0,0,0,.661,1.833,2.172,2.172,0,0,0,1.665.713,2.778,2.778,0,0,0,2.468-1.672,7.39,7.39,0,0,0,.216-2.44"/><path class="d" d="M333.66,48.659c0,.21-.158.315-.471.315h-.436c-.049,0-.69-.026-1.925-.071H329.7q-.291,0-2.9.051c-.145.011-.29.02-.436.02-.362.023-.543-.077-.543-.295q0-.229.4-.23h.944q1.017,0,1.017-.417.035-.208.036-2.721V27.564a5.068,5.068,0,0,0-.072-1.257c-.074-.184-.267-.278-.582-.278h-1.306c-.339,0-.508-.1-.508-.3q0-.264.907-.3a9.2,9.2,0,0,0,3.231-.766l.762-.349.291-.1a11.319,11.319,0,0,1,.254,3.067V46.846a10.711,10.711,0,0,0,.037,1.237.329.329,0,0,0,.254.261,9.8,9.8,0,0,0,1.342.071c.557,0,.835.082.835.244"/><path class="d" d="M342.77,48.693q0,.315-.616.315c.024,0-.267-.023-.871-.071q-1.09-.068-1.815-.068h-3.776a.705.705,0,0,1-.436.139c-.266,0-.4-.085-.4-.258,0-.247.24-.369.725-.369a3.475,3.475,0,0,0,1.506-.193,4.019,4.019,0,0,0,.127-1.447V36.176a5.8,5.8,0,0,0-.09-1.03c-.037-.1-.187-.156-.453-.156h-1.417c-.266,0-.4-.082-.4-.244,0-.142.2-.224.608-.244a8.9,8.9,0,0,0,4.118-1.087l.359-.2a4.4,4.4,0,0,1,.287,1.915v11.2a12.682,12.682,0,0,0,.054,1.638.433.433,0,0,0,.381.312,6.887,6.887,0,0,0,1.6.139c.34,0,.508.094.508.278m-2.722-21.722c0,1.044-.544,1.569-1.634,1.569a1.643,1.643,0,0,1-1.161-.437,1.391,1.391,0,0,1-.472-1.064,1.445,1.445,0,0,1,1.633-1.637q1.635,0,1.634,1.569"/><path class="d" d="M354.1,46.845q0,.315-.907,1.115a5.451,5.451,0,0,1-3.7,1.359,4.189,4.189,0,0,1-3.012-.973c-.389-.369-.582-1.461-.582-3.269V34.709a.4.4,0,0,0-.4-.381h-1.38c-.531,0-.8-.082-.8-.244s.133-.255.4-.281a5.613,5.613,0,0,0,4.4-2.681.635.635,0,0,1,.539-.315c.169,0,.254.079.254.244v.732a7.4,7.4,0,0,0,.144,1.881,5.664,5.664,0,0,0,1.09.071,12.557,12.557,0,0,0,2.65-.176,1.164,1.164,0,0,1,.254-.034c.194,0,.289.1.289.3q0,.5-2.939.5H348.9v6.45a42.006,42.006,0,0,0,.254,6.118,1.491,1.491,0,0,0,1.67,1.24,4.339,4.339,0,0,0,2.685-1.291.42.42,0,0,1,.326-.173c.17,0,.256.057.256.173"/><path class="d" d="M364.4,46.845c0,.21-.3.582-.908,1.115a5.448,5.448,0,0,1-3.7,1.359,4.189,4.189,0,0,1-3.012-.973c-.389-.369-.582-1.461-.582-3.269V34.709a.394.394,0,0,0-.4-.381h-1.38c-.531,0-.8-.082-.8-.244s.133-.255.4-.281a5.612,5.612,0,0,0,4.4-2.681.638.638,0,0,1,.54-.315c.169,0,.253.079.253.244v.732a7.38,7.38,0,0,0,.145,1.881,5.658,5.658,0,0,0,1.09.071,12.557,12.557,0,0,0,2.65-.176,1.164,1.164,0,0,1,.254-.034c.193,0,.289.1.289.3q0,.5-2.939.5h-1.489v6.45a42.157,42.157,0,0,0,.254,6.118,1.492,1.492,0,0,0,1.671,1.24,4.339,4.339,0,0,0,2.685-1.291.42.42,0,0,1,.326-.173c.17,0,.256.057.256.173"/><path class="d" d="M371.919,48.659c0,.21-.158.315-.471.315h-.436c-.049,0-.69-.026-1.925-.071h-1.125q-.291,0-2.9.051c-.145.011-.29.02-.436.02-.362.023-.543-.077-.543-.295q0-.229.4-.23h.944q1.017,0,1.017-.417.035-.208.036-2.721V27.564a5.068,5.068,0,0,0-.072-1.257c-.074-.184-.267-.278-.582-.278h-1.306c-.339,0-.508-.1-.508-.3q0-.264.907-.3a9.2,9.2,0,0,0,3.231-.766l.762-.349.291-.1a11.319,11.319,0,0,1,.254,3.067V46.846a10.711,10.711,0,0,0,.037,1.237.329.329,0,0,0,.254.261,9.8,9.8,0,0,0,1.342.071c.557,0,.835.082.835.244"/><path class="d" d="M386.911,45.1a3.018,3.018,0,0,1-.563,1.237,7.7,7.7,0,0,1-1.143,1.447,5.7,5.7,0,0,1-4.176,1.533,7.3,7.3,0,0,1-5.462-2.265,7.751,7.751,0,0,1-2.2-5.615,8.417,8.417,0,0,1,2.087-5.823,6.7,6.7,0,0,1,5.209-2.336,6.531,6.531,0,0,1,4.319,1.448,4.939,4.939,0,0,1,1.853,3.714,19.423,19.423,0,0,1-3.086.139h-2.542q-.255,0-4.356.1a14.057,14.057,0,0,0-.182,2.191,8.989,8.989,0,0,0,1.4,5.4,4.61,4.61,0,0,0,3.939,1.892,3.9,3.9,0,0,0,2.323-.627,7.733,7.733,0,0,0,1.888-2.406.438.438,0,0,1,.4-.278c.194,0,.291.079.291.244m-3.158-7.114q-.147-4.183-3.123-4.185-2.94,0-3.666,4.185Z"/><path class="d" d="M420.125,48.712c0,.173-.2.261-.617.261h-6.535c-.315,0-.471-.077-.471-.23,0-.173.133-.258.4-.258h1.2c.363-.026.574-.1.635-.247a6.118,6.118,0,0,0,.091-1.467V38.1a5.509,5.509,0,0,0-.56-2.883,2.088,2.088,0,0,0-1.892-.857,3.1,3.1,0,0,0-1.749.539,2.9,2.9,0,0,0-1.137,1.379,26.262,26.262,0,0,0-.143,3.871V46.74a12.622,12.622,0,0,0,.035,1.325.575.575,0,0,0,.643.42h1.035c.31,0,.464.085.464.258,0,.153-.18.23-.544.23h-6.534q-.436,0-.436-.281c0-.113.072-.184.219-.207s.627-.034,1.452-.034q.58-.034.616-.349l.037-.488v-9.7a5.258,5.258,0,0,0-.523-2.781,2.09,2.09,0,0,0-1.857-.766,3.183,3.183,0,0,0-2.219.8,2.606,2.606,0,0,0-.883,2.018v9.878a2.59,2.59,0,0,0,.161,1.234q.159.192,1.055.193h.285a2.2,2.2,0,0,1,.393-.037c.263,0,.393.094.393.281,0,.162-.157.244-.472.244H402.3c-.58-.025-1.489-.025-2.722,0h-3.558q-.508,0-.509-.281c0-.162.158-.241.473-.241a5.444,5.444,0,0,0,1.6-.122.53.53,0,0,0,.254-.434V38.851a22.431,22.431,0,0,0-.108-3.062c-.074-.3-.424-.451-1.053-.451h-1.2c-.315,0-.473-.082-.473-.244,0-.139.055-.221.164-.244s.5-.057,1.182-.1a8.581,8.581,0,0,0,2.09-.417,3.2,3.2,0,0,0,1.437-.664q.4-.383.581-.383c.122,0,.2.094.218.278s.049.837.073,1.952a4.966,4.966,0,0,1,4.472-2.23q3.237,0,3.928,2.335a4.918,4.918,0,0,1,4.543-2.335q2.693,0,3.637,1.847a7.507,7.507,0,0,1,.51,3.244v8.612a3.271,3.271,0,0,0,.124,1.308,2.866,2.866,0,0,0,1.125.193h.644c.262-.026.393.051.393.227"/><path class="d" d="M435.553,33.914c0,.165-.291.261-.871.284a3.772,3.772,0,0,0-1.108.142,1,1,0,0,0-.417.6l-.254.639-.291.871q-.507,1.6-1.524,4.778-2.87,8.858-4.756,13.737-1.161,2.962-3.194,2.965a2.118,2.118,0,0,1-1.434-.488,1.592,1.592,0,0,1-.563-1.257,1.4,1.4,0,0,1,.454-1.081,1.673,1.673,0,0,1,1.18-.417,1.5,1.5,0,0,1,1.416.766c.217.4.4.593.544.593q.327,0,1.016-1.708,1.017-2.545,1.6-4.569-2.686-6.763-4.574-11.818a23.1,23.1,0,0,0-1.452-3.488,2.343,2.343,0,0,0-1.18-.176q-.961,0-.962-.349c0-.184.158-.278.473-.278.266,0,.676.023,1.233.071s.981.068,1.27.068h.655q.762-.042,2.1-.093l1.85-.046c.268,0,.4.1.4.3,0,.173-.449.27-1.345.295q-1.125.034-1.124.344a12.01,12.01,0,0,0,.739,2.128c.191.536.394,1.092.61,1.677l.634,1.737q.247.769,1.314,3.5.375.839.823,2.028,3.48-10.5,3.481-11.021a.353.353,0,0,0-.274-.386,9.567,9.567,0,0,0-1.553-.071c-.243,0-.366-.091-.366-.278,0-.164.146-.247.436-.247a.8.8,0,0,1,.291.046q1.233.093,2.032.093h1.016a3.276,3.276,0,0,0,.854-.068,1.456,1.456,0,0,1,.491-.071c.217,0,.326.083.326.25"/><path class="d" d="M446.879,44.465a4.513,4.513,0,0,1-1.533,3.442,5.21,5.21,0,0,1-3.659,1.413,7.3,7.3,0,0,1-2.991-.834,1.816,1.816,0,0,0-.83-.244c-.337,0-.59.218-.756.661-.1.278-.229.417-.4.417s-.252-.091-.252-.278V44.371c0-.255.084-.386.254-.386.193,0,.3.131.326.389a5.12,5.12,0,0,0,.944,2.529,4.713,4.713,0,0,0,3.885,1.827,2.994,2.994,0,0,0,2.105-.735,2.526,2.526,0,0,0,.8-1.958,2.749,2.749,0,0,0-.907-2.165,3.912,3.912,0,0,0-.926-.647c-.28-.128-1.1-.437-2.451-.928q-4.028-1.464-4.029-4.4a4.4,4.4,0,0,1,1.367-3.286,4.677,4.677,0,0,1,3.387-1.328,8.626,8.626,0,0,1,2.16.417,2.309,2.309,0,0,0,.648.1.866.866,0,0,0,.937-.695q.108-.35.325-.349c.167,0,.251.091.251.278v1.674a18.945,18.945,0,0,0,.182,2.685v.07c0,.185-.1.279-.291.279q-.217,0-.544-1.056a4.06,4.06,0,0,0-1.4-2.04,3.656,3.656,0,0,0-2.306-.775,2.891,2.891,0,0,0-2.033.732,2.414,2.414,0,0,0-.8,1.853q0,1.749,2.433,2.656a17.12,17.12,0,0,1,4.792,2.378,3.916,3.916,0,0,1,1.307,2.971"/><path class="d" d="M458.823,46.845c0,.21-.3.582-.908,1.115a5.448,5.448,0,0,1-3.7,1.359,4.189,4.189,0,0,1-3.012-.973c-.389-.369-.582-1.461-.582-3.269V34.709a.394.394,0,0,0-.4-.381h-1.38c-.531,0-.8-.082-.8-.244s.133-.255.4-.281a5.612,5.612,0,0,0,4.4-2.681.638.638,0,0,1,.54-.315c.169,0,.253.079.253.244v.732a7.38,7.38,0,0,0,.145,1.881,5.658,5.658,0,0,0,1.09.071,12.557,12.557,0,0,0,2.65-.176,1.164,1.164,0,0,1,.254-.034c.193,0,.289.1.289.3q0,.5-2.939.5h-1.489v6.45a42.157,42.157,0,0,0,.254,6.118,1.492,1.492,0,0,0,1.671,1.24,4.339,4.339,0,0,0,2.685-1.291.42.42,0,0,1,.326-.173c.17,0,.256.057.256.173"/><path class="d" d="M472.8,45.1a3.018,3.018,0,0,1-.563,1.237,7.7,7.7,0,0,1-1.143,1.447,5.7,5.7,0,0,1-4.176,1.533,7.3,7.3,0,0,1-5.462-2.265,7.751,7.751,0,0,1-2.2-5.615,8.417,8.417,0,0,1,2.087-5.823,6.7,6.7,0,0,1,5.209-2.336,6.531,6.531,0,0,1,4.319,1.448,4.939,4.939,0,0,1,1.853,3.714,19.423,19.423,0,0,1-3.086.139H467.1q-.255,0-4.356.1a14.057,14.057,0,0,0-.182,2.191,8.989,8.989,0,0,0,1.4,5.4A4.61,4.61,0,0,0,467.9,48.17a3.9,3.9,0,0,0,2.323-.627,7.733,7.733,0,0,0,1.888-2.406.438.438,0,0,1,.4-.278c.193,0,.291.079.291.244m-3.158-7.114q-.147-4.183-3.123-4.185-2.94,0-3.666,4.185Z"/><path class="d" d="M485.976,35.722a1.825,1.825,0,0,1-.508,1.325,1.742,1.742,0,0,1-1.307.522,1.635,1.635,0,0,1-1.089-.366,1.151,1.151,0,0,1-.436-.922,1.185,1.185,0,0,1,.327-.837c.218-.233.326-.4.326-.488,0-.349-.266-.525-.8-.525a2.069,2.069,0,0,0-1.743,1.214q-.836,1.427-.835,5.276V47.79a.478.478,0,0,0,.309.52,9.5,9.5,0,0,0,1.868.139c.268.048.4.139.4.281,0,.161-.158.244-.473.244h-7.041c-.389,0-.582-.071-.582-.21s.158-.21.472-.21h.508c.823,0,1.308-.094,1.452-.281a5.506,5.506,0,0,0,.073-1.3V37.339q0-1.927-.6-2.224a4.856,4.856,0,0,0-1.907-.335c-.29,0-.436-.08-.436-.244s.121-.244.363-.244h.254a10.735,10.735,0,0,1,1.09.054,4.245,4.245,0,0,1,.472.051,7.363,7.363,0,0,0,2.976-.732l.473-.21.289-.1a9.625,9.625,0,0,1,.146,1.671v.7a3.583,3.583,0,0,1,3.266-2.369,2.778,2.778,0,0,1,1.925.678,2.177,2.177,0,0,1,.762,1.691"/><path class="d" d="M501.441,33.914c0,.165-.291.261-.871.284a3.772,3.772,0,0,0-1.108.142,1,1,0,0,0-.417.6l-.254.639-.291.871q-.507,1.6-1.524,4.778-2.87,8.858-4.756,13.737-1.161,2.962-3.194,2.965a2.118,2.118,0,0,1-1.434-.488,1.592,1.592,0,0,1-.563-1.257,1.4,1.4,0,0,1,.454-1.081,1.673,1.673,0,0,1,1.18-.417,1.5,1.5,0,0,1,1.416.766c.217.4.4.593.544.593q.327,0,1.016-1.708,1.017-2.545,1.6-4.569-2.686-6.763-4.574-11.818a23.1,23.1,0,0,0-1.452-3.488,2.343,2.343,0,0,0-1.18-.176q-.961,0-.962-.349c0-.184.158-.278.473-.278.266,0,.676.023,1.233.071s.981.068,1.27.068h.655q.762-.042,2.1-.093l1.85-.046c.268,0,.4.1.4.3,0,.173-.449.27-1.345.295q-1.125.034-1.124.344a12.01,12.01,0,0,0,.739,2.128c.191.536.394,1.092.61,1.677l.634,1.737q.247.769,1.314,3.5.375.839.823,2.028,3.48-10.5,3.481-11.021a.353.353,0,0,0-.274-.386,9.567,9.567,0,0,0-1.553-.071c-.243,0-.366-.091-.366-.278,0-.164.146-.247.436-.247a.8.8,0,0,1,.291.046q1.233.093,2.032.093h1.016a3.276,3.276,0,0,0,.854-.068,1.456,1.456,0,0,1,.491-.071c.217,0,.326.083.326.25"/><path class="d" d="M508.41,48.693a3.933,3.933,0,0,1-2.032,3.7,5.155,5.155,0,0,1-2.4.838c-.194,0-.29-.071-.29-.21s.12-.233.362-.279q3.051-.7,3.05-3a2.072,2.072,0,0,0-.8-1.918,1.179,1.179,0,0,1-1.343,1.325,1.641,1.641,0,0,1-1.18-.474,1.58,1.58,0,0,1-.49-1.18,1.959,1.959,0,0,1,.617-1.5,2.193,2.193,0,0,1,1.562-.581,2.7,2.7,0,0,1,2.122.925,3.414,3.414,0,0,1,.817,2.352"/><path class="d" d="M528.921,44.465a4.513,4.513,0,0,1-1.533,3.442,5.21,5.21,0,0,1-3.659,1.413,7.3,7.3,0,0,1-2.991-.834,1.816,1.816,0,0,0-.83-.244c-.337,0-.589.218-.756.661-.1.278-.229.417-.4.417s-.252-.091-.252-.278V44.371c0-.255.084-.386.254-.386.193,0,.3.131.326.389a5.12,5.12,0,0,0,.944,2.529,4.713,4.713,0,0,0,3.885,1.827,2.994,2.994,0,0,0,2.1-.735,2.526,2.526,0,0,0,.8-1.958,2.749,2.749,0,0,0-.907-2.165,3.913,3.913,0,0,0-.926-.647c-.28-.128-1.095-.437-2.451-.928q-4.027-1.464-4.029-4.4a4.4,4.4,0,0,1,1.367-3.286,4.677,4.677,0,0,1,3.387-1.328,8.626,8.626,0,0,1,2.16.417,2.308,2.308,0,0,0,.648.1.866.866,0,0,0,.937-.695q.108-.35.325-.349c.167,0,.251.091.251.278v1.674a18.947,18.947,0,0,0,.182,2.685v.07c0,.185-.1.279-.291.279q-.218,0-.544-1.056a4.06,4.06,0,0,0-1.4-2.04,3.656,3.656,0,0,0-2.306-.775,2.887,2.887,0,0,0-2.032.732,2.412,2.412,0,0,0-.8,1.853q0,1.749,2.433,2.656a17.121,17.121,0,0,1,4.792,2.378,3.916,3.916,0,0,1,1.307,2.971"/><path class="d" d="M546.2,41.372a7.973,7.973,0,0,1-2.142,5.667,7.018,7.018,0,0,1-5.335,2.281,7.375,7.375,0,0,1-5.519-2.281,7.825,7.825,0,0,1-2.214-5.667,8.13,8.13,0,0,1,2.16-5.789,7.084,7.084,0,0,1,5.391-2.3A7.214,7.214,0,0,1,544,35.6a8.073,8.073,0,0,1,2.2,5.772m-3.3-.034a11.961,11.961,0,0,0-1.235-5.965,3.241,3.241,0,0,0-3.049-1.569,3.522,3.522,0,0,0-3.177,2.006,11.3,11.3,0,0,0-1.143,5.562,10.443,10.443,0,0,0,1.217,5.491,3.789,3.789,0,0,0,3.393,1.969,2.745,2.745,0,0,0,2.47-1.22,11.244,11.244,0,0,0,1.524-6.274"/><path class="d" d="M572.807,48.712c0,.173-.205.261-.617.261h-6.535c-.315,0-.471-.077-.471-.23,0-.173.133-.258.4-.258h1.2c.362-.026.573-.1.635-.247a6.118,6.118,0,0,0,.091-1.467V38.1a5.509,5.509,0,0,0-.56-2.883,2.087,2.087,0,0,0-1.892-.857,3.094,3.094,0,0,0-1.749.539,2.884,2.884,0,0,0-1.137,1.379,26.262,26.262,0,0,0-.143,3.871V46.74a12.646,12.646,0,0,0,.035,1.325.574.574,0,0,0,.642.42h1.036c.31,0,.464.085.464.258,0,.153-.18.23-.544.23h-6.534c-.292,0-.436-.094-.436-.281,0-.113.071-.184.219-.207s.627-.034,1.451-.034c.388-.023.593-.139.617-.349l.037-.488v-9.7a5.257,5.257,0,0,0-.523-2.781,2.09,2.09,0,0,0-1.857-.766,3.183,3.183,0,0,0-2.219.8,2.606,2.606,0,0,0-.883,2.018v9.878a2.577,2.577,0,0,0,.161,1.234q.159.192,1.055.193h.284a2.213,2.213,0,0,1,.393-.037c.264,0,.394.094.394.281,0,.162-.157.244-.472.244h-.363q-.87-.037-2.723,0H548.7q-.508,0-.509-.281c0-.162.158-.241.473-.241a5.443,5.443,0,0,0,1.6-.122.53.53,0,0,0,.254-.434V38.851a22.423,22.423,0,0,0-.108-3.062c-.074-.3-.424-.451-1.053-.451h-1.2c-.315,0-.473-.082-.473-.244,0-.139.055-.221.163-.244s.505-.057,1.182-.1a8.579,8.579,0,0,0,2.091-.417,3.2,3.2,0,0,0,1.437-.664c.266-.255.459-.383.581-.383s.2.094.218.278.048.837.073,1.952a4.965,4.965,0,0,1,4.472-2.23q3.237,0,3.928,2.335a4.917,4.917,0,0,1,4.543-2.335q2.692,0,3.636,1.847a7.488,7.488,0,0,1,.511,3.244v8.612a3.271,3.271,0,0,0,.124,1.308,2.866,2.866,0,0,0,1.125.193h.644c.262-.026.393.051.393.227"/><path class="d" d="M587.473,45.1a3.025,3.025,0,0,1-.564,1.237,7.7,7.7,0,0,1-1.142,1.447,5.7,5.7,0,0,1-4.176,1.533,7.3,7.3,0,0,1-5.462-2.265,7.751,7.751,0,0,1-2.2-5.615,8.418,8.418,0,0,1,2.088-5.823,6.7,6.7,0,0,1,5.209-2.336,6.526,6.526,0,0,1,4.318,1.448,4.937,4.937,0,0,1,1.854,3.714,19.43,19.43,0,0,1-3.086.139h-2.542q-.255,0-4.356.1a14.066,14.066,0,0,0-.183,2.191,8.989,8.989,0,0,0,1.4,5.4,4.61,4.61,0,0,0,3.939,1.892,3.9,3.9,0,0,0,2.323-.627,7.748,7.748,0,0,0,1.888-2.406.438.438,0,0,1,.4-.278c.193,0,.291.079.291.244m-3.158-7.114q-.148-4.183-3.123-4.185-2.94,0-3.666,4.185Z"/><path class="d" d="M610.231,33.911c0,.162-.23.241-.69.241h-.871a1.125,1.125,0,0,0-1.017.769q-.216.664-.435,1.328l-3.049,9.018c-.17.466-.412,1.178-.727,2.131-.387,1.283-.7,1.921-.944,1.921-.168,0-.338-.218-.508-.661-.121-.278-.242-.593-.362-.942q-2.941-7.636-2.977-7.6a39.519,39.519,0,0,0-2.287-5.678,1.307,1.307,0,0,0-1.016-.284h-.835c-.242,0-.363-.074-.363-.227s.17-.227.508-.227h6.934q.363,0,.363.247,0,.281-1.126.281c-.75,0-1.125.094-1.125.278a3.514,3.514,0,0,0,.306,1.155q.585,1.4,2.267,5.99.722,2.061,1.192,3.141,1.019-3.111,1.82-5.354a43.252,43.252,0,0,0,1.6-4.969c0-.21-.181-.315-.545-.315h-.8c-.315,0-.473-.079-.473-.241,0-.142.146-.213.436-.213h3.63q1.089-.035,1.089.213"/><path class="d" d="M624.678,47.334c0,.394-.427.808-1.282,1.237a5.488,5.488,0,0,1-2.474.647,2.3,2.3,0,0,1-2.6-2.477,4.521,4.521,0,0,1-4.261,2.579,3.733,3.733,0,0,1-2.564-.888,2.9,2.9,0,0,1-1.012-2.285q0-2.856,3.561-4.531A20.2,20.2,0,0,1,618.29,40.5v-.874a15.711,15.711,0,0,0-.326-4.044,2.472,2.472,0,0,0-2.615-1.779,3.351,3.351,0,0,0-2.124.664,2.031,2.031,0,0,0-.852,1.674c0,.184.15.278.453.278a1.067,1.067,0,0,1,.817.417,1.4,1.4,0,0,1,.363.942q0,1.538-1.6,1.535a1.859,1.859,0,0,1-1.923-1.918,3.645,3.645,0,0,1,1.343-2.823,6.116,6.116,0,0,1,4.139-1.291q3.992,0,4.9,2.091a9.972,9.972,0,0,1,.326,3.172v6.521q0,1.6.035,1.884c.121.838.473,1.255,1.054,1.255a2.188,2.188,0,0,0,1.67-.7c.241-.256.423-.383.544-.383s.181.071.181.21m-6.388-3.695V41.091a9.42,9.42,0,0,0-3.848,1.552,3.159,3.159,0,0,0-1.162,2.562,2.593,2.593,0,0,0,.661,1.833,2.172,2.172,0,0,0,1.665.713,2.778,2.778,0,0,0,2.468-1.672,7.389,7.389,0,0,0,.216-2.44"/><path class="d" d="M641.376,35.338q0,1.6-1.488,1.6a1.454,1.454,0,0,1-.926-.332.946.946,0,0,1-.418-.749,1.461,1.461,0,0,1,.109-.435,1.458,1.458,0,0,0,.11-.471c0-.3-.17-.454-.508-.454a1.138,1.138,0,0,0-.835.437,1.317,1.317,0,0,0-.4.889q0,.1.182,1.186a10.748,10.748,0,0,1,.181,1.637,5.233,5.233,0,0,1-1.706,3.975,5.958,5.958,0,0,1-4.246,1.6,10.162,10.162,0,0,1-2.4-.522,2.849,2.849,0,0,0-.618-.139,1.944,1.944,0,0,0-1.379.593,1.765,1.765,0,0,0-.618,1.288c0,1.212.762,1.813,2.287,1.813a19.444,19.444,0,0,0,2.8-.312,17,17,0,0,1,2.722-.244,5.034,5.034,0,0,1,3.467,1.115,3.946,3.946,0,0,1,1.252,3.1,6,6,0,0,1-2.669,4.986,10.96,10.96,0,0,1-6.732,1.987,8.363,8.363,0,0,1-4.739-1.167,3.7,3.7,0,0,1-1.723-3.226,3.322,3.322,0,0,1,1.6-3,8.713,8.713,0,0,1,2.542-.872q-2.578-.973-2.577-3,0-2.511,3.34-3.487a5.518,5.518,0,0,1-.509-8.349,6.273,6.273,0,0,1,4.392-1.518,6.414,6.414,0,0,1,2.415.383,7.739,7.739,0,0,1,2.159,1.535,3.428,3.428,0,0,1,2.869-1.64q2.067,0,2.068,1.779M637.42,52.146q0-2.9-3.546-2.9a20.975,20.975,0,0,0-2.986.312,20.584,20.584,0,0,1-2.949.315,3.4,3.4,0,0,0-1.845,3.312,3.514,3.514,0,0,0,1.32,2.86,5.341,5.341,0,0,0,3.492,1.081,7.368,7.368,0,0,0,4.631-1.447,4.33,4.33,0,0,0,1.883-3.538m-2.8-13.357q0-5.052-2.9-5.054-2.832,0-2.832,4.708,0,5.3,3.014,5.3,2.723,0,2.722-4.952"/><path class="d" d="M658.582,47.716c0,.165-.266.255-.8.281a13.547,13.547,0,0,0-4.973,1.183.588.588,0,0,1-.254.071c-.145,0-.219-.093-.219-.278V47.018a5.445,5.445,0,0,1-4.645,2.233,4.528,4.528,0,0,1-3.817-1.49,2.751,2.751,0,0,1-.56-1.14,24.792,24.792,0,0,1-.088-2.807V35.886a3.678,3.678,0,0,0-.146-1.422c-.1-.139-.423-.218-.98-.241h-.472q-.98.069-.98-.281c0-.162.206-.244.618-.244q.652,0,1.887.094c.411.031.653.048.726.048a18.449,18.449,0,0,0,2.36-.142V43.38a10.994,10.994,0,0,0,.362,3.541,2.3,2.3,0,0,0,2.36,1.354,3.066,3.066,0,0,0,2.832-1.527,7.264,7.264,0,0,0,.653-3.541V37.83a10.437,10.437,0,0,0-.11-1.771V34.913c-.023-.347-.1-.548-.234-.6a2.421,2.421,0,0,0-.817-.088q-1.525.034-1.526-.312c0-.139.254-.21.764-.21h4.936v9.73a26.814,26.814,0,0,0,.108,3.173c.071.442.257.7.555.766a11.582,11.582,0,0,0,2.028.1c.287,0,.43.082.43.244"/><path class="d" d="M672.922,45.1a3.018,3.018,0,0,1-.563,1.237,7.7,7.7,0,0,1-1.143,1.447,5.7,5.7,0,0,1-4.176,1.533,7.3,7.3,0,0,1-5.462-2.265,7.75,7.75,0,0,1-2.2-5.615,8.417,8.417,0,0,1,2.087-5.823,6.7,6.7,0,0,1,5.209-2.336A6.531,6.531,0,0,1,671,34.729a4.939,4.939,0,0,1,1.853,3.714,19.423,19.423,0,0,1-3.086.139h-2.542q-.255,0-4.356.1a14.053,14.053,0,0,0-.182,2.191,8.99,8.99,0,0,0,1.4,5.4,4.61,4.61,0,0,0,3.939,1.892,3.906,3.906,0,0,0,2.324-.627,7.747,7.747,0,0,0,1.887-2.406.438.438,0,0,1,.4-.278c.193,0,.291.079.291.244m-3.158-7.114q-.145-4.183-3.123-4.185-2.94,0-3.666,4.185Z"/><path class="d" d="M691.469,48.712c0,.173-.182.261-.544.261h-6.679c-.315,0-.473-.082-.473-.244,0-.116.067-.187.2-.21s.6-.045,1.4-.068c.459-.023.725-.088.8-.193a3.012,3.012,0,0,0,.11-1.129v-6.68a18.811,18.811,0,0,0-.291-4.52,2.4,2.4,0,0,0-2.469-1.567,3.777,3.777,0,0,0-3.048,1.53,1.951,1.951,0,0,0-.364,1.254V48c0,.278.259.431.776.454l1.106.034c.245,0,.369.082.369.244s-.146.244-.435.244h-6.607c-.364,0-.545-.071-.545-.216s.218-.232.654-.272h.907c.363,0,.58-.082.654-.244l.108-.522V40.137q0-3.963-.072-4.382t-.907-.417h-1.053c-.485,0-.727-.085-.727-.258,0-.224.255-.335.764-.335a10.092,10.092,0,0,0,2.358-.383,4.558,4.558,0,0,0,1.779-.8.948.948,0,0,1,.508-.278c.17,0,.254.221.254.661v1.674a5.977,5.977,0,0,1,4.866-2.335,4.118,4.118,0,0,1,3.773,1.847,8.265,8.265,0,0,1,.655,3.976v7.951a3.164,3.164,0,0,0,.109,1.22,1.692,1.692,0,0,0,1.052.21h.654c.241,0,.362.074.362.227"/><path class="d" d="M706.281,45.1a3.018,3.018,0,0,1-.563,1.237,7.741,7.741,0,0,1-1.142,1.447A5.707,5.707,0,0,1,700.4,49.32a7.3,7.3,0,0,1-5.461-2.265,7.747,7.747,0,0,1-2.2-5.615,8.417,8.417,0,0,1,2.087-5.823,6.7,6.7,0,0,1,5.209-2.336,6.531,6.531,0,0,1,4.319,1.448,4.939,4.939,0,0,1,1.853,3.714,19.423,19.423,0,0,1-3.086.139h-2.542q-.255,0-4.356.1a14.06,14.06,0,0,0-.182,2.191,8.99,8.99,0,0,0,1.4,5.4,4.61,4.61,0,0,0,3.939,1.892,3.906,3.906,0,0,0,2.324-.627,7.747,7.747,0,0,0,1.887-2.406.439.439,0,0,1,.4-.278c.194,0,.291.079.291.244m-3.158-7.114Q702.978,33.806,700,33.8q-2.941,0-3.667,4.185Z"/><path class="d" d="M719.423,44.465a4.513,4.513,0,0,1-1.533,3.442,5.21,5.21,0,0,1-3.659,1.413,7.3,7.3,0,0,1-2.991-.834,1.816,1.816,0,0,0-.83-.244c-.337,0-.589.218-.756.661-.1.278-.229.417-.4.417s-.252-.091-.252-.278V44.371c0-.255.084-.386.254-.386.193,0,.3.131.326.389a5.12,5.12,0,0,0,.944,2.529,4.713,4.713,0,0,0,3.885,1.827,2.994,2.994,0,0,0,2.1-.735,2.526,2.526,0,0,0,.8-1.958,2.749,2.749,0,0,0-.907-2.165,3.912,3.912,0,0,0-.926-.647c-.28-.128-1.1-.437-2.451-.928q-4.027-1.464-4.029-4.4a4.4,4.4,0,0,1,1.367-3.286,4.677,4.677,0,0,1,3.387-1.328,8.626,8.626,0,0,1,2.16.417,2.308,2.308,0,0,0,.648.1.866.866,0,0,0,.937-.695q.108-.35.325-.349c.167,0,.251.091.251.278v1.674a18.959,18.959,0,0,0,.182,2.685v.07c0,.185-.1.279-.291.279q-.217,0-.544-1.056a4.06,4.06,0,0,0-1.4-2.04,3.656,3.656,0,0,0-2.306-.775,2.891,2.891,0,0,0-2.033.732,2.414,2.414,0,0,0-.8,1.853q0,1.749,2.433,2.656a17.121,17.121,0,0,1,4.792,2.378,3.916,3.916,0,0,1,1.307,2.971"/><path class="d" d="M732.563,44.465a4.513,4.513,0,0,1-1.533,3.442,5.211,5.211,0,0,1-3.659,1.413,7.3,7.3,0,0,1-2.991-.834,1.816,1.816,0,0,0-.83-.244c-.337,0-.59.218-.756.661-.1.278-.229.417-.4.417s-.252-.091-.252-.278V44.371c0-.255.084-.386.254-.386.193,0,.3.131.326.389a5.12,5.12,0,0,0,.944,2.529,4.712,4.712,0,0,0,3.885,1.827,2.994,2.994,0,0,0,2.105-.735,2.526,2.526,0,0,0,.8-1.958,2.749,2.749,0,0,0-.907-2.165,3.912,3.912,0,0,0-.926-.647c-.28-.128-1.1-.437-2.451-.928q-4.027-1.464-4.029-4.4a4.4,4.4,0,0,1,1.367-3.286,4.677,4.677,0,0,1,3.387-1.328,8.626,8.626,0,0,1,2.16.417,2.309,2.309,0,0,0,.648.1.866.866,0,0,0,.937-.695q.108-.35.325-.349c.167,0,.251.091.251.278v1.674A18.95,18.95,0,0,0,731.4,37.4v.07c0,.185-.1.279-.291.279q-.217,0-.544-1.056a4.06,4.06,0,0,0-1.4-2.04,3.656,3.656,0,0,0-2.306-.775,2.891,2.891,0,0,0-2.033.732,2.414,2.414,0,0,0-.8,1.853q0,1.749,2.433,2.656a17.119,17.119,0,0,1,4.792,2.378,3.916,3.916,0,0,1,1.307,2.971"/><path class="d" d="M741.346,48.693a3.934,3.934,0,0,1-2.032,3.7,5.156,5.156,0,0,1-2.4.838c-.194,0-.29-.071-.29-.21s.12-.233.362-.279q3.051-.7,3.05-3a2.072,2.072,0,0,0-.8-1.918,1.179,1.179,0,0,1-1.343,1.325,1.641,1.641,0,0,1-1.18-.474,1.58,1.58,0,0,1-.49-1.18,1.959,1.959,0,0,1,.617-1.5,2.193,2.193,0,0,1,1.562-.581,2.7,2.7,0,0,1,2.122.925,3.414,3.414,0,0,1,.817,2.352"/><path class="d" d="M765.231,47.334c0,.394-.427.808-1.282,1.237a5.488,5.488,0,0,1-2.474.647,2.3,2.3,0,0,1-2.6-2.477,4.523,4.523,0,0,1-4.262,2.579,3.734,3.734,0,0,1-2.564-.888,2.9,2.9,0,0,1-1.012-2.285q0-2.856,3.561-4.531a20.2,20.2,0,0,1,4.244-1.115v-.874a15.713,15.713,0,0,0-.326-4.044A2.472,2.472,0,0,0,755.9,33.8a3.35,3.35,0,0,0-2.124.664,2.031,2.031,0,0,0-.852,1.674c0,.184.15.278.453.278a1.067,1.067,0,0,1,.817.417,1.4,1.4,0,0,1,.363.942q0,1.538-1.6,1.535a1.859,1.859,0,0,1-1.923-1.918,3.645,3.645,0,0,1,1.343-2.823,6.116,6.116,0,0,1,4.139-1.291q3.992,0,4.9,2.091a9.974,9.974,0,0,1,.326,3.172v6.521q0,1.6.035,1.884c.122.838.473,1.255,1.054,1.255a2.188,2.188,0,0,0,1.67-.7c.241-.256.423-.383.544-.383s.181.071.181.21m-6.388-3.695V41.091a9.42,9.42,0,0,0-3.848,1.552,3.159,3.159,0,0,0-1.162,2.562,2.593,2.593,0,0,0,.661,1.833,2.172,2.172,0,0,0,1.665.713,2.778,2.778,0,0,0,2.468-1.672,7.391,7.391,0,0,0,.216-2.44"/><path class="d" d="M781.675,48.712c0,.173-.182.261-.544.261h-6.679c-.315,0-.473-.082-.473-.244,0-.116.067-.187.2-.21s.6-.045,1.4-.068c.459-.023.725-.088.8-.193a3.012,3.012,0,0,0,.11-1.129v-6.68a18.811,18.811,0,0,0-.291-4.52,2.4,2.4,0,0,0-2.469-1.567,3.777,3.777,0,0,0-3.048,1.53,1.951,1.951,0,0,0-.364,1.254V48c0,.278.259.431.776.454l1.106.034c.245,0,.369.082.369.244s-.146.244-.435.244h-6.607c-.364,0-.545-.071-.545-.216s.218-.232.654-.272h.907c.363,0,.58-.082.654-.244l.108-.522V40.137q0-3.963-.072-4.382t-.907-.417h-1.053c-.485,0-.727-.085-.727-.258,0-.224.255-.335.764-.335a10.093,10.093,0,0,0,2.358-.383,4.558,4.558,0,0,0,1.779-.8.948.948,0,0,1,.508-.278c.17,0,.254.221.254.661v1.674a5.977,5.977,0,0,1,4.866-2.335,4.118,4.118,0,0,1,3.773,1.847A8.265,8.265,0,0,1,779.5,39.1v7.951a3.164,3.164,0,0,0,.109,1.22,1.692,1.692,0,0,0,1.052.21h.654c.241,0,.362.074.362.227"/><path class="d" d="M799.172,48.2c0,.165-.168.244-.508.244h-1.089a6.215,6.215,0,0,0-3.013.673,2.278,2.278,0,0,1-.617.269c-.217,0-.327-.139-.327-.417l.037-1.081a5.164,5.164,0,0,1-3.7,1.5,6.391,6.391,0,0,1-5.028-2.258,8.424,8.424,0,0,1-1.978-5.761,8.509,8.509,0,0,1,1.978-5.848,6.566,6.566,0,0,1,5.173-2.242,4.276,4.276,0,0,1,3.7,1.708V29.55a12.216,12.216,0,0,0-.251-3.278c-.143-.349-.358-.51-.644-.488-.693.071-1.109.1-1.253.1-.311,0-.465-.1-.465-.315s.132-.312.4-.312l1.3.034a8.552,8.552,0,0,0,3.319-.976.625.625,0,0,1,.253-.071c.239,0,.36.281.36.837v13.74q0,8.262.145,8.856.074.243,1.706.244c.34,0,.508.094.508.278M793.8,39.453q0-3.345-.762-4.288a3.105,3.105,0,0,0-2.505-1.186,3.512,3.512,0,0,0-3.121,1.953,10.163,10.163,0,0,0-1.163,5.229,12.908,12.908,0,0,0,1.016,5.369,3.87,3.87,0,0,0,1.29,1.552,2.975,2.975,0,0,0,1.761.61,3.423,3.423,0,0,0,2.032-.644,2.948,2.948,0,0,0,1.18-1.552,45.236,45.236,0,0,0,.272-7.043"/><path class="d" d="M818.049,44.465a4.513,4.513,0,0,1-1.533,3.442,5.21,5.21,0,0,1-3.659,1.413,7.3,7.3,0,0,1-2.991-.834,1.816,1.816,0,0,0-.83-.244c-.337,0-.589.218-.756.661-.1.278-.229.417-.4.417s-.252-.091-.252-.278V44.371c0-.255.084-.386.254-.386.193,0,.3.131.326.389a5.12,5.12,0,0,0,.944,2.529,4.713,4.713,0,0,0,3.885,1.827,2.994,2.994,0,0,0,2.1-.735,2.526,2.526,0,0,0,.8-1.958,2.749,2.749,0,0,0-.907-2.165,3.912,3.912,0,0,0-.926-.647c-.28-.128-1.095-.437-2.451-.928q-4.027-1.464-4.029-4.4A4.4,4.4,0,0,1,809,34.61a4.677,4.677,0,0,1,3.387-1.328,8.626,8.626,0,0,1,2.16.417,2.308,2.308,0,0,0,.648.1.866.866,0,0,0,.937-.695q.108-.35.325-.349c.167,0,.251.091.251.278v1.674a18.95,18.95,0,0,0,.182,2.685v.07c0,.185-.1.279-.291.279q-.218,0-.544-1.056a4.06,4.06,0,0,0-1.4-2.04,3.656,3.656,0,0,0-2.306-.775,2.891,2.891,0,0,0-2.033.732,2.414,2.414,0,0,0-.8,1.853q0,1.749,2.433,2.656a17.12,17.12,0,0,1,4.792,2.378,3.916,3.916,0,0,1,1.307,2.971"/><path class="d" d="M835.328,41.372a7.972,7.972,0,0,1-2.141,5.667,7.021,7.021,0,0,1-5.335,2.281,7.375,7.375,0,0,1-5.519-2.281,7.825,7.825,0,0,1-2.214-5.667,8.13,8.13,0,0,1,2.16-5.789,7.083,7.083,0,0,1,5.39-2.3,7.216,7.216,0,0,1,5.463,2.318,8.072,8.072,0,0,1,2.2,5.772m-3.3-.034a11.961,11.961,0,0,0-1.235-5.965,3.243,3.243,0,0,0-3.049-1.569,3.521,3.521,0,0,0-3.177,2.006,11.284,11.284,0,0,0-1.143,5.562,10.453,10.453,0,0,0,1.216,5.491,3.79,3.79,0,0,0,3.393,1.969,2.745,2.745,0,0,0,2.471-1.22,11.244,11.244,0,0,0,1.524-6.274"/><path class="d" d="M861.936,48.712c0,.173-.2.261-.617.261h-6.535c-.315,0-.471-.077-.471-.23,0-.173.133-.258.4-.258h1.2c.364-.026.575-.1.636-.247a6.118,6.118,0,0,0,.091-1.467V38.1a5.509,5.509,0,0,0-.56-2.883,2.088,2.088,0,0,0-1.892-.857,3.1,3.1,0,0,0-1.749.539A2.9,2.9,0,0,0,851.3,36.28a26.277,26.277,0,0,0-.143,3.871V46.74a12.627,12.627,0,0,0,.035,1.325.575.575,0,0,0,.643.42h1.035c.31,0,.464.085.464.258,0,.153-.18.23-.544.23h-6.534q-.437,0-.436-.281c0-.113.072-.184.219-.207s.627-.034,1.452-.034q.58-.034.616-.349l.037-.488v-9.7a5.258,5.258,0,0,0-.523-2.781,2.09,2.09,0,0,0-1.857-.766,3.183,3.183,0,0,0-2.219.8,2.606,2.606,0,0,0-.883,2.018v9.878a2.591,2.591,0,0,0,.161,1.234q.159.192,1.055.193h.285a2.2,2.2,0,0,1,.393-.037c.263,0,.393.094.393.281,0,.162-.157.244-.472.244h-.363c-.58-.025-1.489-.025-2.722,0h-3.559c-.338,0-.508-.094-.508-.281,0-.162.158-.241.473-.241a5.444,5.444,0,0,0,1.6-.122.53.53,0,0,0,.254-.434V38.851a22.428,22.428,0,0,0-.108-3.062c-.074-.3-.424-.451-1.053-.451h-1.2c-.315,0-.473-.082-.473-.244,0-.139.055-.221.164-.244s.5-.057,1.182-.1a8.581,8.581,0,0,0,2.09-.417,3.2,3.2,0,0,0,1.437-.664c.266-.255.459-.383.581-.383s.2.094.218.278.049.837.073,1.952a4.966,4.966,0,0,1,4.472-2.23q3.237,0,3.928,2.335a4.918,4.918,0,0,1,4.543-2.335q2.692,0,3.637,1.847a7.51,7.51,0,0,1,.509,3.244v8.612a3.261,3.261,0,0,0,.125,1.308,2.866,2.866,0,0,0,1.125.193h.644c.262-.026.393.051.393.227"/><path class="d" d="M876.6,45.1a3.018,3.018,0,0,1-.563,1.237,7.7,7.7,0,0,1-1.143,1.447,5.7,5.7,0,0,1-4.176,1.533,7.3,7.3,0,0,1-5.462-2.265,7.751,7.751,0,0,1-2.2-5.615,8.417,8.417,0,0,1,2.087-5.823,6.7,6.7,0,0,1,5.209-2.336,6.531,6.531,0,0,1,4.319,1.448,4.939,4.939,0,0,1,1.853,3.714,19.424,19.424,0,0,1-3.086.139H870.9q-.255,0-4.356.1a14.053,14.053,0,0,0-.182,2.191,8.989,8.989,0,0,0,1.4,5.4A4.61,4.61,0,0,0,871.7,48.17a3.908,3.908,0,0,0,2.324-.627,7.748,7.748,0,0,0,1.887-2.406.438.438,0,0,1,.4-.278c.193,0,.291.079.291.244m-3.158-7.114q-.147-4.183-3.123-4.185-2.94,0-3.666,4.185Z"/><path class="d" d="M897.4,26.971a1.67,1.67,0,0,1-.453,1.2,1.574,1.574,0,0,1-1.181.471,1.676,1.676,0,0,1-1.161-.42,1.332,1.332,0,0,1-.472-1.044,2.276,2.276,0,0,1,.472-1.223.591.591,0,0,0,.108-.312c0-.534-.4-.8-1.187-.8q-2.014,0-2.664,2.511a22.514,22.514,0,0,0-.323,4.637V33.7h2.368c.478,0,.718.1.718.3s-.312.295-.934.295H890.54V47.961q0,.489,1,.488a3.785,3.785,0,0,1,1.684.139.212.212,0,0,1,.035.142c0,.162-.145.244-.436.244a1.571,1.571,0,0,1-.361-.037l-2.978.037h-3.956c-.436,0-.654-.082-.654-.244q0-.281.523-.281a4.831,4.831,0,0,0,2.053-.207.28.28,0,0,0,.074-.21l-.036-.454V34.329c-.9,0-1.416-.011-1.561-.037a.246.246,0,0,1-.219-.278c0-.21.219-.315.655-.315h1.161q.146-4.427,1.235-6.379a5.392,5.392,0,0,1,5.008-3,4.37,4.37,0,0,1,2.615.732,2.261,2.261,0,0,1,1.016,1.918"/><path class="d" d="M909.452,47.334c0,.394-.426.808-1.282,1.237a5.488,5.488,0,0,1-2.474.647,2.3,2.3,0,0,1-2.6-2.477,4.523,4.523,0,0,1-4.262,2.579,3.734,3.734,0,0,1-2.564-.888,2.9,2.9,0,0,1-1.012-2.285q0-2.856,3.561-4.531a20.2,20.2,0,0,1,4.244-1.115v-.874a15.71,15.71,0,0,0-.326-4.044,2.472,2.472,0,0,0-2.615-1.779,3.35,3.35,0,0,0-2.124.664,2.031,2.031,0,0,0-.852,1.674c0,.184.151.278.453.278a1.067,1.067,0,0,1,.817.417,1.4,1.4,0,0,1,.363.942q0,1.538-1.6,1.535a1.859,1.859,0,0,1-1.923-1.918,3.645,3.645,0,0,1,1.343-2.823,6.116,6.116,0,0,1,4.139-1.291q3.991,0,4.9,2.091a9.974,9.974,0,0,1,.326,3.172v6.521q0,1.6.035,1.884c.122.838.473,1.255,1.054,1.255a2.188,2.188,0,0,0,1.67-.7c.241-.256.423-.383.544-.383s.181.071.181.21m-6.388-3.695V41.091a9.42,9.42,0,0,0-3.848,1.552,3.159,3.159,0,0,0-1.162,2.562,2.593,2.593,0,0,0,.661,1.833,2.173,2.173,0,0,0,1.665.713,2.778,2.778,0,0,0,2.468-1.672,7.391,7.391,0,0,0,.216-2.44"/><path class="d" d="M925.9,48.712c0,.173-.182.261-.544.261h-6.68c-.315,0-.472-.082-.472-.244,0-.116.066-.187.2-.21s.6-.045,1.4-.068c.459-.023.724-.088.8-.193a3.012,3.012,0,0,0,.11-1.129v-6.68a18.79,18.79,0,0,0-.292-4.52,2.4,2.4,0,0,0-2.469-1.567,3.775,3.775,0,0,0-3.047,1.53,1.944,1.944,0,0,0-.364,1.254V48c0,.278.258.431.776.454l1.106.034c.245,0,.368.082.368.244s-.146.244-.435.244h-6.607c-.364,0-.544-.071-.544-.216s.218-.232.654-.272h.906c.364,0,.581-.082.655-.244l.108-.522V40.137q0-3.963-.073-4.382c-.048-.278-.352-.417-.906-.417h-1.053c-.486,0-.727-.085-.727-.258,0-.224.254-.335.763-.335a10.092,10.092,0,0,0,2.358-.383,4.556,4.556,0,0,0,1.78-.8.941.941,0,0,1,.508-.278c.17,0,.253.221.253.661v1.674a5.978,5.978,0,0,1,4.865-2.335,4.122,4.122,0,0,1,3.775,1.847,8.265,8.265,0,0,1,.655,3.976v7.951a3.141,3.141,0,0,0,.109,1.22,1.692,1.692,0,0,0,1.052.21h.654c.241,0,.362.074.362.227"/><path class="d" d="M937.042,46.845c0,.21-.3.582-.908,1.115a5.447,5.447,0,0,1-3.7,1.359,4.189,4.189,0,0,1-3.012-.973c-.389-.369-.582-1.461-.582-3.269V34.709a.394.394,0,0,0-.4-.381h-1.38c-.531,0-.8-.082-.8-.244s.133-.255.4-.281a5.612,5.612,0,0,0,4.4-2.681.638.638,0,0,1,.54-.315c.169,0,.253.079.253.244v.732a7.38,7.38,0,0,0,.145,1.881,5.658,5.658,0,0,0,1.09.071,12.557,12.557,0,0,0,2.65-.176,1.165,1.165,0,0,1,.254-.034c.193,0,.289.1.289.3q0,.5-2.939.5H931.85v6.45A42.16,42.16,0,0,0,932.1,46.9a1.492,1.492,0,0,0,1.671,1.24,4.339,4.339,0,0,0,2.685-1.291.42.42,0,0,1,.326-.173c.17,0,.256.057.256.173"/><path class="d" d="M951.923,47.334c0,.394-.427.808-1.282,1.237a5.488,5.488,0,0,1-2.474.647,2.3,2.3,0,0,1-2.6-2.477,4.521,4.521,0,0,1-4.261,2.579,3.734,3.734,0,0,1-2.564-.888,2.9,2.9,0,0,1-1.012-2.285q0-2.856,3.561-4.531a20.2,20.2,0,0,1,4.244-1.115v-.874a15.711,15.711,0,0,0-.326-4.044,2.472,2.472,0,0,0-2.615-1.779,3.351,3.351,0,0,0-2.124.664,2.031,2.031,0,0,0-.852,1.674c0,.184.15.278.453.278a1.067,1.067,0,0,1,.817.417,1.4,1.4,0,0,1,.363.942q0,1.538-1.6,1.535A1.859,1.859,0,0,1,937.73,37.4a3.645,3.645,0,0,1,1.343-2.823,6.116,6.116,0,0,1,4.139-1.291q3.992,0,4.9,2.091a9.972,9.972,0,0,1,.326,3.172v6.521q0,1.6.035,1.884c.121.838.473,1.255,1.054,1.255a2.188,2.188,0,0,0,1.67-.7c.241-.256.423-.383.544-.383s.181.071.181.21m-6.388-3.695V41.091a9.42,9.42,0,0,0-3.848,1.552,3.159,3.159,0,0,0-1.162,2.562,2.593,2.593,0,0,0,.661,1.833,2.172,2.172,0,0,0,1.665.713,2.778,2.778,0,0,0,2.468-1.672,7.389,7.389,0,0,0,.216-2.44"/><path class="d" d="M962.958,44.465a4.513,4.513,0,0,1-1.533,3.442,5.21,5.21,0,0,1-3.659,1.413,7.3,7.3,0,0,1-2.991-.834,1.816,1.816,0,0,0-.83-.244c-.337,0-.59.218-.756.661-.1.278-.229.417-.4.417s-.252-.091-.252-.278V44.371c0-.255.084-.386.254-.386.193,0,.3.131.326.389a5.12,5.12,0,0,0,.944,2.529,4.713,4.713,0,0,0,3.885,1.827,2.994,2.994,0,0,0,2.1-.735,2.526,2.526,0,0,0,.8-1.958,2.749,2.749,0,0,0-.907-2.165,3.912,3.912,0,0,0-.926-.647c-.28-.128-1.095-.437-2.451-.928q-4.027-1.464-4.029-4.4a4.4,4.4,0,0,1,1.367-3.286,4.677,4.677,0,0,1,3.387-1.328,8.627,8.627,0,0,1,2.16.417,2.308,2.308,0,0,0,.648.1.866.866,0,0,0,.937-.695q.108-.35.325-.349c.167,0,.251.091.251.278v1.674A18.95,18.95,0,0,0,961.8,37.4v.07c0,.185-.1.279-.291.279q-.218,0-.544-1.056a4.06,4.06,0,0,0-1.4-2.04,3.656,3.656,0,0,0-2.306-.775,2.891,2.891,0,0,0-2.033.732,2.414,2.414,0,0,0-.8,1.853q0,1.749,2.433,2.656a17.12,17.12,0,0,1,4.792,2.378,3.916,3.916,0,0,1,1.307,2.971"/><path class="d" d="M979.329,33.914c0,.165-.291.261-.871.284a3.773,3.773,0,0,0-1.108.142,1.006,1.006,0,0,0-.417.6l-.254.639-.291.871q-.507,1.6-1.524,4.778-2.87,8.858-4.756,13.737-1.161,2.962-3.194,2.965a2.118,2.118,0,0,1-1.434-.488,1.592,1.592,0,0,1-.563-1.257,1.4,1.4,0,0,1,.454-1.081,1.673,1.673,0,0,1,1.18-.417,1.5,1.5,0,0,1,1.416.766c.217.4.4.593.544.593q.327,0,1.016-1.708,1.017-2.545,1.6-4.569-2.687-6.763-4.574-11.818a23.1,23.1,0,0,0-1.452-3.488,2.343,2.343,0,0,0-1.18-.176q-.961,0-.962-.349c0-.184.158-.278.473-.278.266,0,.676.023,1.233.071s.981.068,1.27.068h.655q.762-.042,2.1-.093l1.85-.046c.268,0,.4.1.4.3,0,.173-.449.27-1.345.295q-1.125.034-1.124.344a12.012,12.012,0,0,0,.739,2.128c.191.536.394,1.092.61,1.677l.634,1.737q.247.769,1.314,3.5.375.839.823,2.028,3.48-10.5,3.481-11.021a.353.353,0,0,0-.274-.386,9.567,9.567,0,0,0-1.553-.071c-.243,0-.366-.091-.366-.278,0-.164.146-.247.436-.247a.8.8,0,0,1,.291.046q1.233.093,2.032.093h1.016a3.276,3.276,0,0,0,.854-.068,1.456,1.456,0,0,1,.491-.071c.217,0,.326.083.326.25"/><path class="d" d="M1032.618,43.29c0,.091-.025.661-.072,1.708s-.074,2.046-.074,3v1.149q-3.557-.208-14.084-.21h-4.538c-.461,0-.69-.094-.69-.281,0-.125.073-.2.218-.219q.109,0,1.379-.093.943-.069,1.143-.383a3.941,3.941,0,0,0,.2-1.643V26.662c0-.676-.1-1.079-.308-1.206a5.413,5.413,0,0,0-1.98-.193c-.387,0-.58-.1-.58-.3s.266-.3.8-.3h15.391a13.189,13.189,0,0,0,2-.139q.07,1.5.327,4.148l.144,1.5a2.331,2.331,0,0,1,.037.454q0,.349-.326.349c-.269,0-.461-.292-.582-.876q-.688-3.159-2.25-4-1.163-.63-6.1-.633H1019.7V35.722h.87q4.066,0,4.956-.593t1.215-3.451c.049-.488.182-.732.4-.732.265,0,.4.208.4.627s-.023,1.033-.072,1.848-.072,1.43-.072,1.847q0,3.733.114,5.128c.022.232.03.428.03.593,0,.3-.133.451-.4.451a.347.347,0,0,1-.343-.295,18.838,18.838,0,0,1-.307-1.935,2.781,2.781,0,0,0-1.771-2.546,15.612,15.612,0,0,0-3.4-.21H1019.7V48.137a72.64,72.64,0,0,0,9.365-.312q2.4-.516,2.721-4.407c.05-.573.206-.86.474-.86q.363,0,.363.732"/><path class="d" d="M1050.694,48.2c0,.165-.168.244-.508.244H1049.1a6.215,6.215,0,0,0-3.013.673,2.278,2.278,0,0,1-.617.269c-.217,0-.327-.139-.327-.417l.037-1.081a5.166,5.166,0,0,1-3.7,1.5,6.391,6.391,0,0,1-5.028-2.258,8.423,8.423,0,0,1-1.978-5.761,8.509,8.509,0,0,1,1.978-5.848,6.566,6.566,0,0,1,5.173-2.242,4.276,4.276,0,0,1,3.7,1.708V29.55a12.216,12.216,0,0,0-.251-3.278c-.143-.349-.358-.51-.644-.488-.693.071-1.109.1-1.253.1-.311,0-.465-.1-.465-.315s.131-.312.4-.312l1.3.034a8.552,8.552,0,0,0,3.319-.976.621.621,0,0,1,.253-.071c.239,0,.36.281.36.837v13.74q0,8.262.145,8.856.074.243,1.706.244c.34,0,.508.094.508.278m-5.372-8.751q0-3.345-.762-4.288a3.106,3.106,0,0,0-2.505-1.186,3.512,3.512,0,0,0-3.121,1.953,10.163,10.163,0,0,0-1.163,5.229,12.908,12.908,0,0,0,1.016,5.369,3.87,3.87,0,0,0,1.29,1.552,2.973,2.973,0,0,0,1.761.61,3.423,3.423,0,0,0,2.032-.644,2.948,2.948,0,0,0,1.18-1.552,45.236,45.236,0,0,0,.272-7.043"/><path class="d" d="M1068.481,35.338q0,1.6-1.488,1.6a1.454,1.454,0,0,1-.926-.332.948.948,0,0,1-.418-.749,1.44,1.44,0,0,1,.11-.435,1.478,1.478,0,0,0,.109-.471c0-.3-.17-.454-.508-.454a1.138,1.138,0,0,0-.835.437,1.317,1.317,0,0,0-.4.889q0,.1.182,1.186a10.749,10.749,0,0,1,.181,1.637,5.23,5.23,0,0,1-1.706,3.975,5.958,5.958,0,0,1-4.246,1.6,10.162,10.162,0,0,1-2.4-.522,2.85,2.85,0,0,0-.618-.139,1.944,1.944,0,0,0-1.379.593,1.765,1.765,0,0,0-.618,1.288c0,1.212.762,1.813,2.287,1.813a19.445,19.445,0,0,0,2.8-.312,17,17,0,0,1,2.722-.244,5.034,5.034,0,0,1,3.467,1.115,3.947,3.947,0,0,1,1.253,3.1,6,6,0,0,1-2.67,4.986,10.96,10.96,0,0,1-6.732,1.987,8.363,8.363,0,0,1-4.739-1.167,3.694,3.694,0,0,1-1.723-3.226,3.322,3.322,0,0,1,1.6-3,8.714,8.714,0,0,1,2.542-.872q-2.578-.973-2.577-3,0-2.511,3.34-3.487a5.518,5.518,0,0,1-.509-8.349,6.273,6.273,0,0,1,4.392-1.518,6.414,6.414,0,0,1,2.415.383,7.737,7.737,0,0,1,2.159,1.535,3.428,3.428,0,0,1,2.869-1.64q2.067,0,2.068,1.779m-3.956,16.808q0-2.9-3.546-2.9a20.95,20.95,0,0,0-2.985.312,20.61,20.61,0,0,1-2.95.315,3.4,3.4,0,0,0-1.845,3.312,3.514,3.514,0,0,0,1.32,2.86,5.341,5.341,0,0,0,3.492,1.081,7.368,7.368,0,0,0,4.631-1.447,4.33,4.33,0,0,0,1.883-3.538m-2.8-13.357q0-5.052-2.9-5.054-2.832,0-2.831,4.708,0,5.3,3.013,5.3,2.723,0,2.722-4.952"/><path class="d" d="M1083.147,47.334c0,.394-.426.808-1.282,1.237a5.488,5.488,0,0,1-2.474.647,2.3,2.3,0,0,1-2.6-2.477,4.523,4.523,0,0,1-4.262,2.579,3.734,3.734,0,0,1-2.564-.888,2.9,2.9,0,0,1-1.012-2.285q0-2.856,3.561-4.531a20.2,20.2,0,0,1,4.244-1.115v-.874a15.71,15.71,0,0,0-.326-4.044,2.472,2.472,0,0,0-2.615-1.779,3.351,3.351,0,0,0-2.124.664,2.031,2.031,0,0,0-.852,1.674c0,.184.151.278.453.278a1.067,1.067,0,0,1,.817.417,1.405,1.405,0,0,1,.364.942q0,1.538-1.6,1.535a1.859,1.859,0,0,1-1.923-1.918,3.645,3.645,0,0,1,1.343-2.823,6.116,6.116,0,0,1,4.139-1.291q3.992,0,4.9,2.091a9.977,9.977,0,0,1,.326,3.172v6.521q0,1.6.035,1.884c.122.838.473,1.255,1.054,1.255a2.188,2.188,0,0,0,1.67-.7c.241-.256.423-.383.544-.383s.181.071.181.21m-6.388-3.695V41.091a9.42,9.42,0,0,0-3.848,1.552,3.159,3.159,0,0,0-1.162,2.562,2.593,2.593,0,0,0,.661,1.833,2.173,2.173,0,0,0,1.665.713,2.778,2.778,0,0,0,2.468-1.672,7.388,7.388,0,0,0,.216-2.44"/><path class="d" d="M1094.218,35.722a1.825,1.825,0,0,1-.508,1.325,1.742,1.742,0,0,1-1.307.522,1.635,1.635,0,0,1-1.089-.366,1.15,1.15,0,0,1-.436-.922,1.185,1.185,0,0,1,.327-.837c.218-.233.326-.4.326-.488,0-.349-.266-.525-.8-.525a2.069,2.069,0,0,0-1.743,1.214q-.836,1.427-.835,5.276V47.79a.478.478,0,0,0,.309.52,9.5,9.5,0,0,0,1.868.139c.268.048.4.139.4.281,0,.161-.158.244-.473.244h-7.041c-.389,0-.582-.071-.582-.21s.158-.21.472-.21h.509c.822,0,1.307-.094,1.451-.281a5.5,5.5,0,0,0,.073-1.3V37.339q0-1.927-.6-2.224a4.857,4.857,0,0,0-1.907-.335c-.29,0-.436-.08-.436-.244s.121-.244.363-.244h.254a10.77,10.77,0,0,1,1.091.054,4.235,4.235,0,0,1,.471.051,7.364,7.364,0,0,0,2.976-.732l.473-.21.289-.1a9.622,9.622,0,0,1,.146,1.671v.7a3.583,3.583,0,0,1,3.266-2.369,2.778,2.778,0,0,1,1.925.678,2.177,2.177,0,0,1,.762,1.691"/><path class="d" d="M1125.509,36.8a11.391,11.391,0,0,1-4.465,9.583q-3.268,2.515-8.749,2.517h-9.837c-.459,0-.69-.117-.69-.349,0-.21.387-.313,1.163-.313q1.486,0,1.851-.524a3.482,3.482,0,0,0,.144-1.326V27.6a3.908,3.908,0,0,0-.271-1.987q-.273-.281-1.87-.28-.836,0-.835-.384c0-.184.205-.278.617-.278h6.316q6.534,0,9.257.874a9.835,9.835,0,0,1,5.337,4.143,12.676,12.676,0,0,1,2.032,7.117m-4.066-.139q0-5.807-2.359-8.516t-7.369-2.712q-2.433,0-2.941.49a3.494,3.494,0,0,0-.217,1.677v18.61a6.986,6.986,0,0,0,.055,1.189.571.571,0,0,0,.308.349,10.106,10.106,0,0,0,3.666.42,8.091,8.091,0,0,0,6.316-2.659q2.543-2.8,2.541-8.848"/><path class="d" d="M1141.663,45.1a3.018,3.018,0,0,1-.563,1.237,7.7,7.7,0,0,1-1.143,1.447,5.7,5.7,0,0,1-4.176,1.533,7.3,7.3,0,0,1-5.462-2.265,7.751,7.751,0,0,1-2.2-5.615,8.417,8.417,0,0,1,2.087-5.823,6.7,6.7,0,0,1,5.209-2.336,6.531,6.531,0,0,1,4.319,1.448,4.939,4.939,0,0,1,1.853,3.714,19.422,19.422,0,0,1-3.086.139h-2.542q-.255,0-4.356.1a14.046,14.046,0,0,0-.182,2.191,8.989,8.989,0,0,0,1.4,5.4,4.61,4.61,0,0,0,3.939,1.892,3.906,3.906,0,0,0,2.324-.627,7.748,7.748,0,0,0,1.887-2.406.438.438,0,0,1,.4-.278c.194,0,.291.079.291.244m-3.158-7.114q-.146-4.183-3.123-4.185-2.94,0-3.666,4.185Z"/><path class="d" d="M1160.467,35.338q0,1.6-1.488,1.6a1.454,1.454,0,0,1-.926-.332.946.946,0,0,1-.418-.749,1.461,1.461,0,0,1,.109-.435,1.458,1.458,0,0,0,.11-.471c0-.3-.17-.454-.508-.454a1.138,1.138,0,0,0-.835.437,1.317,1.317,0,0,0-.4.889q0,.1.182,1.186a10.749,10.749,0,0,1,.181,1.637,5.233,5.233,0,0,1-1.706,3.975,5.958,5.958,0,0,1-4.246,1.6,10.163,10.163,0,0,1-2.4-.522,2.849,2.849,0,0,0-.618-.139,1.944,1.944,0,0,0-1.379.593,1.765,1.765,0,0,0-.618,1.288c0,1.212.762,1.813,2.287,1.813a19.443,19.443,0,0,0,2.8-.312,17,17,0,0,1,2.722-.244,5.034,5.034,0,0,1,3.467,1.115,3.946,3.946,0,0,1,1.252,3.1,6,6,0,0,1-2.669,4.986,10.96,10.96,0,0,1-6.732,1.987,8.359,8.359,0,0,1-4.739-1.167,3.694,3.694,0,0,1-1.723-3.226,3.322,3.322,0,0,1,1.6-3,8.714,8.714,0,0,1,2.542-.872q-2.579-.973-2.577-3,0-2.511,3.34-3.487a5.518,5.518,0,0,1-.509-8.349,6.273,6.273,0,0,1,4.392-1.518,6.413,6.413,0,0,1,2.415.383,7.738,7.738,0,0,1,2.159,1.535,3.428,3.428,0,0,1,2.869-1.64q2.067,0,2.068,1.779m-3.956,16.808q0-2.9-3.546-2.9a20.974,20.974,0,0,0-2.986.312,20.583,20.583,0,0,1-2.949.315,3.4,3.4,0,0,0-1.845,3.312,3.514,3.514,0,0,0,1.32,2.86A5.341,5.341,0,0,0,1150,57.131a7.368,7.368,0,0,0,4.631-1.447,4.33,4.33,0,0,0,1.883-3.538m-2.8-13.357q0-5.052-2.9-5.054-2.832,0-2.832,4.708,0,5.3,3.014,5.3,2.722,0,2.722-4.952"/><path class="d" d="M1175.132,47.334c0,.394-.427.808-1.282,1.237a5.488,5.488,0,0,1-2.474.647,2.3,2.3,0,0,1-2.6-2.477,4.521,4.521,0,0,1-4.261,2.579,3.733,3.733,0,0,1-2.564-.888,2.9,2.9,0,0,1-1.012-2.285q0-2.856,3.561-4.531a20.2,20.2,0,0,1,4.244-1.115v-.874a15.649,15.649,0,0,0-.327-4.044A2.47,2.47,0,0,0,1165.8,33.8a3.351,3.351,0,0,0-2.124.664,2.031,2.031,0,0,0-.852,1.674c0,.184.15.278.453.278a1.067,1.067,0,0,1,.817.417,1.4,1.4,0,0,1,.363.942q0,1.538-1.6,1.535a1.859,1.859,0,0,1-1.923-1.918,3.645,3.645,0,0,1,1.343-2.823,6.116,6.116,0,0,1,4.139-1.291q3.992,0,4.9,2.091a9.977,9.977,0,0,1,.326,3.172v6.521q0,1.6.035,1.884c.121.838.473,1.255,1.054,1.255a2.188,2.188,0,0,0,1.67-.7c.241-.256.423-.383.544-.383s.181.071.181.21m-6.388-3.695V41.091a9.42,9.42,0,0,0-3.848,1.552,3.159,3.159,0,0,0-1.162,2.562,2.593,2.593,0,0,0,.661,1.833,2.172,2.172,0,0,0,1.665.713,2.778,2.778,0,0,0,2.468-1.672,7.388,7.388,0,0,0,.216-2.44"/><path class="d" d="M1186.168,44.465a4.513,4.513,0,0,1-1.533,3.442,5.21,5.21,0,0,1-3.659,1.413,7.3,7.3,0,0,1-2.991-.834,1.816,1.816,0,0,0-.83-.244c-.337,0-.59.218-.756.661-.1.278-.229.417-.4.417s-.252-.091-.252-.278V44.371c0-.255.084-.386.254-.386.193,0,.3.131.326.389a5.12,5.12,0,0,0,.944,2.529,4.713,4.713,0,0,0,3.885,1.827,2.994,2.994,0,0,0,2.1-.735,2.526,2.526,0,0,0,.8-1.958,2.749,2.749,0,0,0-.907-2.165,3.914,3.914,0,0,0-.926-.647c-.28-.128-1.095-.437-2.451-.928q-4.027-1.464-4.029-4.4a4.4,4.4,0,0,1,1.367-3.286,4.678,4.678,0,0,1,3.387-1.328,8.625,8.625,0,0,1,2.16.417,2.31,2.31,0,0,0,.648.1.866.866,0,0,0,.937-.695q.108-.35.325-.349c.167,0,.251.091.251.278v1.674a18.959,18.959,0,0,0,.182,2.685v.07c0,.185-.1.279-.291.279q-.218,0-.544-1.056a4.06,4.06,0,0,0-1.4-2.04,3.654,3.654,0,0,0-2.306-.775,2.891,2.891,0,0,0-2.033.732,2.414,2.414,0,0,0-.8,1.853q0,1.749,2.433,2.656a17.118,17.118,0,0,1,4.792,2.378,3.915,3.915,0,0,1,1.307,2.971"/></g></svg>