<svg xmlns="http://www.w3.org/2000/svg" xmlns:xlink="http://www.w3.org/1999/xlink" width="100.165" height="31.407" viewBox="0 0 100.165 31.407"><defs><style>.a{fill:none;}.b{clip-path:url(#a);}.c{fill:#ff9d00;}</style><clipPath id="a"><rect class="a" width="100.165" height="31.407" transform="translate(0 0)"/></clipPath></defs><g transform="translate(0 0)"><g class="b"><path class="c" d="M15.522,1.318Q13.541,0,9.276,0H1.047Q0,0,0,.295C0,.472.187.559.562.559H1.2A4.406,4.406,0,0,1,2.507.692q.635.231.636,1.254V21.419q-.039.526-.338.66c-.173.2-.848.3-2.02.3-.523,0-.785.078-.785.231q0,.331,1.123.331h8.6c.348,0,.524-.11.524-.33,0-.154-.137-.23-.411-.23a17.364,17.364,0,0,1-2.1-.133.961.961,0,0,1-.822-.559,3.6,3.6,0,0,1-.074-.956v-9.36a20.432,20.432,0,0,0,2.879.23,9.787,9.787,0,0,0,4.937-1.119A5.5,5.5,0,0,0,17.767,5.5a4.735,4.735,0,0,0-2.245-4.185M11.708,9.946a8.475,8.475,0,0,1-4.19.961,6.181,6.181,0,0,1-.672-.032V2.052q0-.83.223-1.027A3.145,3.145,0,0,1,9.127.559q4.711,0,4.712,4.977,0,3.216-2.131,4.41"/><path class="c" d="M29.809,8.848a3.03,3.03,0,0,0-1.983-.642,3.692,3.692,0,0,0-3.365,2.24V9.788a8.392,8.392,0,0,0-.151-1.582l-.3.1-.487.2a8.155,8.155,0,0,1-3.067.692,4.573,4.573,0,0,0-.485-.048c-.374-.034-.749-.05-1.123-.05h-.262c-.25,0-.374.077-.374.231s.15.23.449.23a5.415,5.415,0,0,1,1.964.314q.616.284.617,2.1v9.109a4.8,4.8,0,0,1-.075,1.225c-.149.178-.648.265-1.5.265H19.15q-.487,0-.487.2c0,.131.2.2.6.2h7.255c.324,0,.487-.077.487-.231,0-.131-.137-.218-.412-.263a10.937,10.937,0,0,1-1.926-.131.453.453,0,0,1-.318-.492V15.36q0-3.639.86-4.985A2.141,2.141,0,0,1,27,9.228q.822,0,.822.494c0,.088-.111.242-.336.462a1.084,1.084,0,0,0,.112,1.664,1.788,1.788,0,0,0,1.122.346,1.883,1.883,0,0,0,1.347-.495,1.653,1.653,0,0,0,.523-1.253,1.989,1.989,0,0,0-.785-1.6"/><path class="c" d="M45.2,10.331A7.776,7.776,0,0,0,39.572,8.14a7.629,7.629,0,0,0-5.555,2.175,7.328,7.328,0,0,0-2.225,5.471,7.07,7.07,0,0,0,2.281,5.355A7.952,7.952,0,0,0,39.759,23.3a7.555,7.555,0,0,0,5.5-2.159,7.187,7.187,0,0,0,2.207-5.355A7.29,7.29,0,0,0,45.2,10.331M42.489,21.685a2.916,2.916,0,0,1-2.544,1.153,3.981,3.981,0,0,1-3.5-1.862,9.206,9.206,0,0,1-1.254-5.19,9.935,9.935,0,0,1,1.178-5.257,3.669,3.669,0,0,1,3.273-1.894,3.421,3.421,0,0,1,3.141,1.483,10.522,10.522,0,0,1,1.273,5.635,9.953,9.953,0,0,1-1.571,5.932"/><path class="c" d="M53.3,3.658q1.644,0,1.645-1.451,0-1.515-1.721-1.515a1.681,1.681,0,0,0-1.178.428,1.373,1.373,0,0,0-.467,1.055,1.329,1.329,0,0,0,.487,1.07,1.837,1.837,0,0,0,1.234.413"/><path class="c" d="M54.714,8.14a2.8,2.8,0,0,0-.871.362,7.137,7.137,0,0,1-3.937.791c-.656,0-.984.073-.984.216,0,.164.136.246.412.246h2.13c.351,0,.536.143.562.429V24.717a23.639,23.639,0,0,1-.31,5.058q-.311,1.006-1.005,1.006c-.146,0-.219-.1-.219-.3a.594.594,0,0,1,.038-.263,4.5,4.5,0,0,0,.224-1.055q0-1.152-1.571-1.153-1.906,0-1.906,1.549a1.557,1.557,0,0,0,.766,1.318,3.325,3.325,0,0,0,1.926.528,4.326,4.326,0,0,0,3.777-2.06,9.9,9.9,0,0,0,1.385-5.586V11.007Q55.092,8.9,55.055,8.52c-.026-.254-.139-.38-.341-.38"/><path class="c" d="M72.261,19.081a.457.457,0,0,0-.411.264A7.454,7.454,0,0,1,69.9,21.62a4.3,4.3,0,0,1-2.394.592,4.915,4.915,0,0,1-4.058-1.789,7.971,7.971,0,0,1-1.44-5.106,12.147,12.147,0,0,1,.187-2.069q4.225-.1,4.488-.1h2.619a21.794,21.794,0,0,0,3.179-.133,4.546,4.546,0,0,0-1.908-3.509,7.753,7.753,0,0,0-9.818.841,7.576,7.576,0,0,0-2.15,5.5,7,7,0,0,0,2.263,5.3A7.866,7.866,0,0,0,66.5,23.3a6.182,6.182,0,0,0,4.3-1.45,7.461,7.461,0,0,0,1.178-1.368,2.729,2.729,0,0,0,.58-1.17c0-.153-.1-.231-.3-.231M66.09,8.635q3.066,0,3.217,3.955H62.313q.746-3.956,3.777-3.955"/><path class="c" d="M84.978,11.667q0,1.385,1.647,1.384,1.682,0,1.683-1.517a2.868,2.868,0,0,0-1.7-2.372A7.443,7.443,0,0,0,82.7,8.14a7.865,7.865,0,0,0-5.722,2.225,7.513,7.513,0,0,0-2.282,5.618,6.98,6.98,0,0,0,2.15,5.241A7.519,7.519,0,0,0,82.286,23.3a6.108,6.108,0,0,0,4.3-1.549q1.308-1.187,1.308-1.615c0-.175-.124-.264-.374-.264a.541.541,0,0,0-.336.165,8.187,8.187,0,0,1-1.458,1.515,4.789,4.789,0,0,1-2.805.857,4.078,4.078,0,0,1-3.592-1.894,9.639,9.639,0,0,1-1.27-5.388,8.118,8.118,0,0,1,1.234-4.812A4.034,4.034,0,0,1,82.771,8.6a3.908,3.908,0,0,1,1.927.429,1.25,1.25,0,0,1,.767,1.087,1.059,1.059,0,0,1-.112.461,2.711,2.711,0,0,0-.375,1.088"/><path class="c" d="M99.9,20.794a.445.445,0,0,0-.336.165A4.651,4.651,0,0,1,96.8,22.178q-1.46,0-1.721-1.169a36.509,36.509,0,0,1-.262-5.784v-6.1H96.35q3.029,0,3.028-.473c0-.189-.1-.284-.3-.284a1.239,1.239,0,0,0-.262.033,14.189,14.189,0,0,1-2.73.164A6.616,6.616,0,0,1,94.965,8.5a6.429,6.429,0,0,1-.149-1.779V6.03c0-.153-.087-.231-.26-.231A.672.672,0,0,0,94,6.1a5.874,5.874,0,0,1-4.533,2.534q-.409.033-.41.263c0,.154.276.23.824.23H91.3a.393.393,0,0,1,.411.363v9.8q0,2.565.6,3.09a4.571,4.571,0,0,0,3.1.921,5.926,5.926,0,0,0,3.815-1.286c.623-.5.936-.857.936-1.054,0-.11-.088-.165-.263-.165"/></g></g></svg>