<svg xmlns="http://www.w3.org/2000/svg" xmlns:xlink="http://www.w3.org/1999/xlink" width="158.773" height="23.629" viewBox="0 0 158.773 23.629"><defs><style>.a{fill:none;}.b{clip-path:url(#a);}.c{fill:#ff9d00;}</style><clipPath id="a"><rect class="a" width="158.773" height="23.629" transform="translate(0 0)"/></clipPath></defs><g transform="translate(0 0)"><g class="b"><path class="c" d="M21.133,15.885c0-.044-.026.252-.075.889q-.15,1.912-.15,3.692c0,.131.024.4.074.807a12.017,12.017,0,0,1,.076,1.466v.3q0,.427-.3.428t-.524-.5a3.415,3.415,0,0,0-1.047-1.416,10.285,10.285,0,0,1-6.471,2.076A12.8,12.8,0,0,1,3.61,20.251,11.169,11.169,0,0,1,0,11.732,11.384,11.384,0,0,1,3.31,3.279,11.627,11.627,0,0,1,11.857,0,13.312,13.312,0,0,1,14.9.28a13.826,13.826,0,0,1,2.824,1.137,3.064,3.064,0,0,0,1.234.428q.338,0,.636-.527Q20.085.4,20.384.4c.2,0,.3.087.3.262a2.064,2.064,0,0,1-.075.429A27.841,27.841,0,0,0,20.2,7.02c0,.417-.036.658-.111.724a.438.438,0,0,1-.3.1q-.373,0-.485-.626A10.265,10.265,0,0,0,17.916,3.3Q16.083.659,12.157.658A6.422,6.422,0,0,0,7.369,2.439Q4.189,5.636,4.19,11.8q0,5.505,2.617,8.535a7.613,7.613,0,0,0,6.059,2.636,7.57,7.57,0,0,0,3.554-.839,6.063,6.063,0,0,0,2.468-2.291,12.223,12.223,0,0,0,1.385-3.658c.1-.527.262-.791.486-.791q.373,0,.374.495"/><path class="c" d="M39.609,16.116A7.186,7.186,0,0,1,37.4,21.47a7.55,7.55,0,0,1-5.5,2.159,7.95,7.95,0,0,1-5.686-2.159,7.069,7.069,0,0,1-2.281-5.354,7.33,7.33,0,0,1,2.225-5.472,7.633,7.633,0,0,1,5.555-2.175,7.775,7.775,0,0,1,5.628,2.191,7.29,7.29,0,0,1,2.263,5.456m-3.4-.034a10.536,10.536,0,0,0-1.272-5.635,3.423,3.423,0,0,0-3.141-1.483,3.67,3.67,0,0,0-3.274,1.9,9.939,9.939,0,0,0-1.178,5.257,9.2,9.2,0,0,0,1.254,5.189,3.981,3.981,0,0,0,3.5,1.863,2.914,2.914,0,0,0,2.544-1.154,9.953,9.953,0,0,0,1.571-5.932"/><path class="c" d="M58.87,23.054c0,.164-.187.245-.56.245H51.428c-.324,0-.487-.076-.487-.229,0-.11.068-.176.2-.2s.618-.043,1.442-.066q.709-.033.821-.181a2.646,2.646,0,0,0,.113-1.068V15.244a16.318,16.318,0,0,0-.3-4.273,2.489,2.489,0,0,0-2.543-1.48,4.023,4.023,0,0,0-3.141,1.446,1.737,1.737,0,0,0-.374,1.184V22.38q0,.393.8.426l1.139.033c.253,0,.381.077.381.231s-.151.229-.449.229H42.227q-.562,0-.562-.2c0-.135.225-.221.674-.26h.935c.374,0,.6-.076.674-.231l.111-.492V14.951q0-3.749-.075-4.143t-.934-.394H41.965q-.749,0-.749-.245c0-.211.263-.315.787-.315a11.363,11.363,0,0,0,2.43-.363,4.931,4.931,0,0,0,1.833-.757,1,1,0,0,1,.523-.264q.262,0,.262.626v1.582A6.375,6.375,0,0,1,52.064,8.47a4.376,4.376,0,0,1,3.889,1.746,7.259,7.259,0,0,1,.674,3.757v7.513a2.772,2.772,0,0,0,.112,1.155,1.877,1.877,0,0,0,1.084.2H58.5c.248,0,.373.073.373.216"/><path class="c" d="M70.354,21.289c0,.2-.314.55-.936,1.054A5.926,5.926,0,0,1,65.6,23.629a4.57,4.57,0,0,1-3.1-.921q-.6-.525-.6-3.09V9.82a.391.391,0,0,0-.411-.362H60.068c-.548,0-.824-.077-.824-.231s.137-.241.41-.263A5.873,5.873,0,0,0,64.187,6.43a.672.672,0,0,1,.557-.3c.174,0,.261.078.261.231v.692a6.424,6.424,0,0,0,.149,1.779,6.5,6.5,0,0,0,1.123.066,14.217,14.217,0,0,0,2.73-.163,1.177,1.177,0,0,1,.262-.034c.2,0,.3.1.3.284q0,.475-3.028.474H65v6.1a36.683,36.683,0,0,0,.261,5.784q.263,1.17,1.722,1.169a4.648,4.648,0,0,0,2.766-1.219.449.449,0,0,1,.337-.165c.175,0,.263.055.263.165"/><path class="c" d="M85.688,21.75q0,.561-1.32,1.171a6.085,6.085,0,0,1-2.55.609q-2.568,0-2.679-2.34a4.723,4.723,0,0,1-4.39,2.439,4.065,4.065,0,0,1-2.642-.841,2.646,2.646,0,0,1-1.043-2.159q0-2.7,3.67-4.283a22.38,22.38,0,0,1,4.372-1.055v-.824a13.745,13.745,0,0,0-.335-3.823,2.547,2.547,0,0,0-2.7-1.68,3.672,3.672,0,0,0-2.189.626,1.875,1.875,0,0,0-.878,1.581q0,.266.469.265a1.132,1.132,0,0,1,.84.4,1.258,1.258,0,0,1,.375.889q0,1.451-1.646,1.451a2.023,2.023,0,0,1-1.421-.511,1.687,1.687,0,0,1-.562-1.3,3.343,3.343,0,0,1,1.385-2.67,6.689,6.689,0,0,1,4.264-1.219q4.113,0,5.049,1.978a8.706,8.706,0,0,1,.336,3v6.163q0,1.514.037,1.779c.124.791.487,1.186,1.085,1.186a2.355,2.355,0,0,0,1.721-.659q.372-.362.56-.362c.125,0,.187.066.187.2m-6.582-3.493V15.851a10.147,10.147,0,0,0-3.964,1.467,2.886,2.886,0,0,0-1.2,2.422,2.323,2.323,0,0,0,2.4,2.406,2.881,2.881,0,0,0,2.543-1.583,6.446,6.446,0,0,0,.222-2.306"/><path class="c" d="M99.266,11.864q0,1.516-1.683,1.517-1.648,0-1.647-1.384a2.721,2.721,0,0,1,.374-1.088,1.047,1.047,0,0,0,.113-.461,1.252,1.252,0,0,0-.767-1.088,3.919,3.919,0,0,0-1.927-.429,4.035,4.035,0,0,0-3.477,1.714,8.115,8.115,0,0,0-1.234,4.811,9.634,9.634,0,0,0,1.27,5.388,4.077,4.077,0,0,0,3.592,1.9,4.789,4.789,0,0,0,2.805-.857,8.187,8.187,0,0,0,1.458-1.515.541.541,0,0,1,.336-.165c.25,0,.375.089.375.264q0,.429-1.309,1.615a6.109,6.109,0,0,1-4.3,1.549A7.515,7.515,0,0,1,87.8,21.554a6.977,6.977,0,0,1-2.151-5.241,7.516,7.516,0,0,1,2.281-5.618A7.867,7.867,0,0,1,93.655,8.47a7.443,7.443,0,0,1,3.908,1.022,2.868,2.868,0,0,1,1.7,2.372"/><path class="c" d="M111.122,21.289c0,.2-.314.55-.935,1.054a5.931,5.931,0,0,1-3.816,1.286,4.57,4.57,0,0,1-3.1-.921q-.6-.525-.6-3.09V9.82a.391.391,0,0,0-.411-.362h-1.421c-.548,0-.824-.077-.824-.231s.137-.241.411-.263a5.872,5.872,0,0,0,4.532-2.534.673.673,0,0,1,.557-.3c.175,0,.261.078.261.231v.692a6.41,6.41,0,0,0,.15,1.779,6.482,6.482,0,0,0,1.122.066,14.217,14.217,0,0,0,2.73-.163,1.177,1.177,0,0,1,.262-.034c.2,0,.3.1.3.284q0,.475-3.028.474h-1.534v6.1a36.5,36.5,0,0,0,.262,5.784q.261,1.17,1.722,1.169a4.649,4.649,0,0,0,2.765-1.219.449.449,0,0,1,.337-.165c.176,0,.263.055.263.165"/><path class="c" d="M143.662,23.054c0,.164-.212.245-.636.245h-6.733c-.324,0-.485-.071-.485-.214,0-.164.136-.247.41-.247h1.235c.374-.021.592-.1.654-.231a5.321,5.321,0,0,0,.094-1.387V13.026a4.872,4.872,0,0,0-.576-2.726,2.23,2.23,0,0,0-1.95-.809,3.4,3.4,0,0,0-1.8.511,2.809,2.809,0,0,0-1.172,1.3,22.814,22.814,0,0,0-.147,3.658V21.19a10.875,10.875,0,0,0,.036,1.253c.073.264.294.395.662.395h1.067c.32,0,.478.083.478.247,0,.143-.186.214-.56.214H127.5c-.3,0-.449-.087-.449-.262,0-.109.075-.176.225-.2s.647-.033,1.5-.033q.6-.033.635-.329l.038-.46V12.844a4.637,4.637,0,0,0-.539-2.63A2.245,2.245,0,0,0,127,9.491a3.461,3.461,0,0,0-2.286.757,2.374,2.374,0,0,0-.91,1.9V21.49a2.268,2.268,0,0,0,.166,1.167q.165.182,1.087.181h.294a2.9,2.9,0,0,1,.4-.032c.271,0,.4.087.4.263,0,.154-.161.23-.485.23H125.3q-.9-.031-2.805,0h-3.666c-.348,0-.523-.087-.523-.262,0-.155.163-.231.487-.231a6.061,6.061,0,0,0,1.645-.114.492.492,0,0,0,.262-.412V13.734a19.435,19.435,0,0,0-.111-2.892c-.077-.286-.437-.428-1.086-.428h-1.234c-.324,0-.487-.076-.487-.231a.2.2,0,0,1,.169-.23q.169-.033,1.218-.1a9.579,9.579,0,0,0,2.153-.4,3.432,3.432,0,0,0,1.481-.626,1.19,1.19,0,0,1,.6-.362q.189,0,.225.264t.075,1.845a5.269,5.269,0,0,1,4.608-2.109q3.336,0,4.047,2.208a5.2,5.2,0,0,1,4.681-2.208q2.773,0,3.747,1.746a6.566,6.566,0,0,1,.525,3.065v8.14a2.856,2.856,0,0,0,.128,1.236,3.161,3.161,0,0,0,1.16.181h.663c.27-.021.4.05.4.216"/><path class="c" d="M158.773,19.641a2.736,2.736,0,0,1-.58,1.171,7.534,7.534,0,0,1-1.178,1.368,6.183,6.183,0,0,1-4.3,1.449,7.86,7.86,0,0,1-5.628-2.143,7,7,0,0,1-2.263-5.3,7.572,7.572,0,0,1,2.15-5.5,7.757,7.757,0,0,1,9.818-.841,4.548,4.548,0,0,1,1.908,3.51,21.8,21.8,0,0,1-3.179.133H152.9q-.262,0-4.488.1a12.15,12.15,0,0,0-.187,2.07,7.973,7.973,0,0,0,1.439,5.106,4.919,4.919,0,0,0,4.059,1.789,4.3,4.3,0,0,0,2.394-.593,7.474,7.474,0,0,0,1.945-2.274.455.455,0,0,1,.411-.264c.2,0,.3.077.3.23m-3.254-6.722q-.15-3.954-3.217-3.955-3.03,0-3.778,3.955Z"/></g></g></svg>