<svg xmlns="http://www.w3.org/2000/svg" xmlns:xlink="http://www.w3.org/1999/xlink" width="370.167" height="301.139" viewBox="0 0 370.167 301.139"><defs><style>.a,.c{fill:none;}.b{clip-path:url(#a);}.c{stroke:#fff;stroke-miterlimit:10;stroke-width:11px;}</style><clipPath id="a"><rect class="a" width="370.167" height="301.139"/></clipPath></defs><g class="b"><path class="c" d="M635.894,41.046a4.4,4.4,0,0,0-6.575-.855C617.495,50.341,581,72.385,581,72.385c-52.082,29.064-49.75,49.5-49.75,49.5l73.141,193.277a260.975,260.975,0,0,1,40.384-40.724c39.1-31.351,58.645-47.026,84.811-56.961,5.884-2.234,16.61-5.917,18.646-14.89,2.438-10.742-9-22.815-12.872-27.034C717.007,155.578,685.122,112.588,635.894,41.046Z" transform="translate(-404.137 -28.155)"/><path class="c" d="M162.214,83.889S119.76,49.773,99.582,32.216c-3.5-3.046-8.4.417-7.717,5.454,6.87,50.751,30.021,218.65,36.148,222.626,2.285,1.483,17.673,9.542,37.934,17.45,11.776,4.6,21.827,7.5,41.928,13.319a74.943,74.943,0,0,0,13.608,3.044c7.077.794,9.48-.151,17.537.89a53.314,53.314,0,0,1,11.644,2.459,46.874,46.874,0,0,1,16.48,10.229l-71.3-191.875S190.938,96.985,162.214,83.889Z" transform="translate(-69.837 -22.386)"/><path class="c" d="M16.073,5.505l-4.736.3c-3.558.225-6.214,3.914-5.794,8.048Q17.217,128.694,28.889,243.535c.41,4.034,3.588,6.861,7.029,6.282q2.276-.383,4.686-.928a85.13,85.13,0,0,0,11.953-3.672c3.017-1.174,4.761-4.852,4.037-8.47q-9.706-48.5-18.087-101.693C31.83,92.208,26.6,51.051,22.53,11.835,22.139,8.067,19.317,5.3,16.073,5.505Z" transform="translate(-4.184 -3.957)"/><path class="c" d="M339.963,914.211c-5.483-4.386-16.6-8.32-38.934-8.025a9.17,9.17,0,0,1-2.723-.379c-10.25-3.031-75.282-22.488-92.909-33.422a5.381,5.381,0,0,0-4.742-.518c-.576.211-1.233.448-1.954.7-5.866,2.084-5.823,11.807.062,13.816,32.395,11.057,86.788,29.431,92.535,30.119,0,0,33.969,2.933,40.406,9.32a5.493,5.493,0,0,0,5.19,1.531l.763-.183C342.961,925.909,344.431,917.784,339.963,914.211Z" transform="translate(-147.833 -627.905)"/><path class="c" d="M1016.372,628.645h0a5.541,5.541,0,0,0-3.33,1.14c-11.685,8.754-86.967,65.087-95.8,70.041-6.923,3.883-29.469,19.624-41.845,33.326-4.288,4.747-.951,13.144,4.922,12.393l6.917-.885A5.641,5.641,0,0,0,890,743.483l129.807-101.64C1024.872,637.877,1022.469,628.645,1016.372,628.645Z" transform="translate(-664.482 -452.91)"/><path class="c" d="M1017.529,33.178l-.09-.053c-4.752-2.79-9.343,4.079-5.879,8.793l109.5,149.038a4.521,4.521,0,0,0,4.381,1.927c1.974-.327,4.818-.774,7.677-1.14,3.982-.509,5.775-6.093,3.051-9.526L1018.893,34.382A5,5,0,0,0,1017.529,33.178Z" transform="translate(-768.622 -23.399)"/></g></svg>