<svg xmlns="http://www.w3.org/2000/svg" xmlns:xlink="http://www.w3.org/1999/xlink" width="79.709" height="14.331" viewBox="0 0 79.709 14.331"><defs><style>.a{fill:none;}.b{clip-path:url(#a);}.c{fill:#1a1818;}</style><clipPath id="a"><rect class="a" width="79.709" height="14.331"/></clipPath></defs><g transform="translate(79.709 14.331) rotate(-180)"><g class="b" transform="translate(0 0)"><path class="c" d="M14.509,7.165A7.21,7.21,0,0,1,7.255,14.33,7.21,7.21,0,0,1,0,7.165,7.21,7.21,0,0,1,7.255,0a7.21,7.21,0,0,1,7.255,7.165" transform="translate(0 0)"/><path class="c" d="M14.509,7.165A7.21,7.21,0,0,1,7.255,14.33,7.21,7.21,0,0,1,0,7.165,7.21,7.21,0,0,1,7.255,0a7.21,7.21,0,0,1,7.255,7.165" transform="translate(21.219 0)"/><path class="c" d="M14.509,7.165A7.21,7.21,0,0,1,7.255,14.33,7.21,7.21,0,0,1,0,7.165,7.21,7.21,0,0,1,7.255,0a7.21,7.21,0,0,1,7.255,7.165" transform="translate(43.32 0)"/></g></g></svg>