<svg xmlns="http://www.w3.org/2000/svg" xmlns:xlink="http://www.w3.org/1999/xlink" width="438.01" height="277.213" viewBox="0 0 438.01 277.213"><defs><style>.a{fill:none;}.b{clip-path:url(#a);}.c{fill:#fef6f9;}</style><clipPath id="a"><rect class="a" width="438.01" height="277.213"/></clipPath></defs><g transform="translate(0 -0.001)"><g class="b" transform="translate(0 0.001)"><path class="c" d="M1159.366,14.369h0a6.288,6.288,0,0,0-7.223-5.134L969.327,38.278a6.214,6.214,0,0,0-5.216,7.11,6.288,6.288,0,0,0,7.223,5.134L1154.15,21.48a6.214,6.214,0,0,0,5.216-7.11" transform="translate(-728.674 -6.955)"/><path class="c" d="M1197.842,313.18c-.007-9.413-9.292-15.676-17.482-11.822l-23.213,10.922a13.2,13.2,0,0,0-7.4,11.618q-1.039,34.626-11.05,54.505-11.156,22.147-38.726,22.147a44.3,44.3,0,0,1-19.719-4.185c-5.7-2.756-10.572-7.722-14.647-14.833s-7.152-16.772-9.247-29.053q-3.142-18.371-3.135-46.812,0-38.068,11.854-58.31,11.861-20.31,38.028-20.276a45.017,45.017,0,0,1,19.021,3.946,30.6,30.6,0,0,1,8.89,6.381,12.1,12.1,0,0,0,15.159,1.84l7.8-4.9c8.35-5.242,8.057-18.014-.509-22.857a73.622,73.622,0,0,0-13.588-5.948,117.037,117.037,0,0,0-36.589-5.647q-49.733,0-73.876,30.686-24.171,30.669-24.164,87.806,0,31.332,7.694,52.391,7.715,21.075,20.489,33.782a70.893,70.893,0,0,0,29.935,17.962,123.623,123.623,0,0,0,36.076,5.205q47.959,0,73.178-29.836,25.219-29.852,25.219-84.506v-.21" transform="translate(-759.832 -151.855)"/><path class="c" d="M1599.96,379.276a6.151,6.151,0,0,0-10.994,0l-6.3,12.8-11.083,3.082a5.989,5.989,0,0,0,0,11.574l11.083,3.082,6.3,12.8a6.151,6.151,0,0,0,10.994,0l6.3-12.8,11.083-3.082a5.989,5.989,0,0,0,0-11.574l-11.083-3.082Z" transform="translate(-1184.536 -285.544)"/><path class="c" d="M243.484,221.6l42.123-.9h37.428a76.547,76.547,0,0,1,18.024,2.421,37.175,37.175,0,0,0,2.354-24.892,164.089,164.089,0,0,0-24.028-1.645l-76.136-.258a12.644,12.644,0,1,0,.235,25.276" transform="translate(-174.125 -149.135)"/><path class="c" d="M208.145,67.51a58.83,58.83,0,0,0-9.649-8.394,52.42,52.42,0,0,0-7.147-4.041,74.344,74.344,0,0,1-4,39.749c1.2,5.719,2.645,13.553,3.8,22.93a298.412,298.412,0,0,1,2.052,39.079,362.319,362.319,0,0,1-2.052,40.789q-2.062,17.918-7.188,30.127t-13.7,18.559q-8.554,6.337-21.343,6.337H67.987c-18.05-.007-31.556-19.215-33.411-21.854-13.65-19.413-11.563-58.758,9.8-77.441,28.456-24.887,71.049,6.021,109.707-21.462,11.369-8.083,21.853-20.642,28.379-35.265A82.1,82.1,0,0,0,188.721,68.5a81.272,81.272,0,0,0-1.327-18.325q-.7-2.768-1.664-5.522c-7.2-20.382-24.653-36.4-47.014-44.552a1.477,1.477,0,0,0-1.256,2.665c18.13,10.168,30.974,25.509,35.181,42.967h0c.01.042.02.086.03.128.014.059.028.118.042.177a57.1,57.1,0,0,1-3.765,37.211l0,0A60.968,60.968,0,0,1,156.9,101.427c-34.051,35.154-87.863.26-129.4,35.309C7.481,153.627-.872,179.508.071,199.737c1.756,37.618,34.947,76.081,67.452,76.984l.74.014c31.1.568,53.34.706,77,0,10.186-.3,23.329-.934,36.518-5.859a58.262,58.262,0,0,0,26.367-19.766q10.6-13.882,15.863-37.017,5.238-23.161,5.247-58.015,0-34.251-5.247-55.551T208.145,67.51" transform="translate(0 -0.001)"/><path class="c" d="M346.826,677.839c-3.495-6.81-13.766-6.81-17.261,0l-9.9,19.286-17.4,4.643a8.932,8.932,0,0,0,0,17.434l17.4,4.643,9.9,19.286c3.495,6.81,13.766,6.81,17.261,0l9.9-19.286,17.4-4.643a8.932,8.932,0,0,0,0-17.434l-17.4-4.643Z" transform="translate(-223.197 -511.045)"/></g></g></svg>