<svg xmlns="http://www.w3.org/2000/svg" xmlns:xlink="http://www.w3.org/1999/xlink" width="147.246" height="23.663" viewBox="0 0 147.246 23.663"><defs><style>.a{fill:none;}.b{clip-path:url(#a);}.c{fill:#ff9d00;}</style><clipPath id="a"><rect class="a" width="147.246" height="23.663" transform="translate(0 0)"/></clipPath></defs><g transform="translate(0 0)"><g class="b"><path class="c" d="M19.673,17.269q-.412,0-.487.814-.335,3.677-2.805,4.166a81.652,81.652,0,0,1-9.648.293V11.5H8.408a17.545,17.545,0,0,1,3.5.2,2.655,2.655,0,0,1,1.825,2.406,17.162,17.162,0,0,0,.316,1.829.353.353,0,0,0,.353.28c.272,0,.41-.144.41-.429,0-.153-.01-.341-.031-.561q-.118-1.317-.118-4.843,0-.594.074-1.747t.075-1.746c0-.4-.138-.594-.411-.594-.226,0-.362.23-.413.692q-.335,2.7-1.252,3.262t-5.106.561h-.9V1.121H9.8q5.086,0,6.284.6,1.606.8,2.318,3.781c.125.553.324.829.6.829A.3.3,0,0,0,19.337,6a2.039,2.039,0,0,0-.038-.427L19.15,4.153q-.262-2.5-.337-3.922a14.759,14.759,0,0,1-2.057.132H.9C.348.363.074.457.074.644s.2.279.6.279a6.131,6.131,0,0,1,2.039.182c.211.122.318.5.318,1.141V20.823a3.448,3.448,0,0,1-.207,1.554q-.205.3-1.178.363-1.308.089-1.422.089c-.149.018-.223.088-.223.206,0,.177.236.266.711.266H5.385q10.846,0,14.512.2V22.41q0-1.351.076-2.834c.049-.989.075-1.526.075-1.615q0-.692-.375-.692"/><path class="c" d="M53.969,22.839q-1.906,0-1.945-.33V14.2A18.638,18.638,0,0,0,51.949,12a3.64,3.64,0,0,0-.785-2.044Q49.894,8.5,46.9,8.5a5.384,5.384,0,0,0-4.49,2.109V2.538A6.63,6.63,0,0,0,42.15,0a4.2,4.2,0,0,0-.523.165,9.6,9.6,0,0,1-3.665.791q-1.086.036-1.272.07a.219.219,0,0,0-.188.245c0,.164.3.245.9.245q1.609.033,1.833.364a38.705,38.705,0,0,1,.187,5.71V22.41c-.024.33-.324.484-.9.461l-.562.034H37.4c-.01,0-.012,0-.021,0a2.187,2.187,0,0,0-.97-.136A3.842,3.842,0,0,1,34.9,22.56a2.6,2.6,0,0,1-.934-.937Q32.5,19.419,31.9,18.5q-1.234-1.974-1.534-2.434l-.634-.954,1.234-1.61q.933-1.216,1.421-1.94l.711-1.053a3.524,3.524,0,0,1,.709-.821,2.557,2.557,0,0,1,1.422-.264,3.728,3.728,0,0,0,1.029-.082c.136-.055.2-.137.2-.246,0-.132-.149-.2-.449-.2h-.785q.3,0-2.02.1c-.249,0-.5-.011-.747-.034q-1.5-.066-1.272-.066c-.325,0-.486.082-.486.247s.087.248.262.248h.785c.6-.023.9.032.9.164a7.6,7.6,0,0,1-1.141,1.9q-1.141,1.63-2.264,2.982l-.149-.264q-.6-1.021-1.8-3a4.741,4.741,0,0,1-.71-1.352q0-.33,1.647-.362,1.308-.031,1.308-.3c0-.174-.324-.263-.972-.263H20.869c-.348,0-.523.089-.523.263,0,.154.187.232.561.232a4.884,4.884,0,0,1,1.889.263,4.806,4.806,0,0,1,1.14,1.517q2.581,4.348,3.218,5.305-.786,1.021-1.048,1.351L23,21.949a2.868,2.868,0,0,1-1.983.791q-.822.031-.822.3t.411.264h5.011c.425,0,.637-.1.637-.3,0-.154-.125-.23-.375-.23q-2.093-.033-2.094-.327,0-.525,3.852-5.344l.225.334q1.87,2.867,2.767,4.3a1.86,1.86,0,0,1,.374.8c0,.2-.348.3-1.047.3q-1.383,0-1.608.028c-.15.02-.224.087-.224.2q0,.229.673.23H36.8a2.285,2.285,0,0,0,.293-.016.741.741,0,0,0,.3.049h.375q.334-.033,3.441,0h3.328q.375,0,.375-.23c0-.175-.15-.264-.45-.264a15.424,15.424,0,0,1-1.608-.082c-.174-.032-.274-.158-.3-.378a6.676,6.676,0,0,1-.038-1.019V12.976a3.612,3.612,0,0,1,.374-2.038,3.547,3.547,0,0,1,2.917-1.413,2.7,2.7,0,0,1,2.8,1.512,13.2,13.2,0,0,1,.3,3.715v6.674a3.08,3.08,0,0,1-.131,1.232c-.088.121-.418.181-.992.181-.947,0-1.422.077-1.422.231q0,.263.488.263h6.807c.423,0,.636-.088.636-.263,0-.11-.112-.187-.338-.231"/><path class="c" d="M58.944,4.021q1.686,0,1.684-1.483T58.944,1.055q-1.683,0-1.683,1.549a1.269,1.269,0,0,0,.487,1,1.786,1.786,0,0,0,1.2.413"/><path class="c" d="M62.909,22.806a7.782,7.782,0,0,1-1.646-.131c-.223-.045-.354-.143-.392-.3a10.9,10.9,0,0,1-.056-1.545V10.245a3.835,3.835,0,0,0-.3-1.807l-.369.191a9.862,9.862,0,0,1-4.243,1.028c-.419.02-.627.1-.627.23,0,.154.136.231.411.231H57.15c.274,0,.429.049.467.149a5.015,5.015,0,0,1,.093.972v9.985a3.5,3.5,0,0,1-.131,1.367,3.87,3.87,0,0,1-1.552.182c-.5,0-.747.116-.747.349,0,.163.136.245.411.245a.756.756,0,0,0,.448-.133H60.03c.5,0,1.121.023,1.87.067.622.043.922.066.9.066.423,0,.634-.1.634-.3,0-.175-.173-.264-.523-.264"/><path class="c" d="M73.681,8.5a5,5,0,0,0-4.264,1.879V.034h-.149a2.507,2.507,0,0,0-.785.23,10.643,10.643,0,0,1-3.965.758h-.525c-.274,0-.411.078-.411.231,0,.177.3.264.9.264a5.348,5.348,0,0,1,1.458.1q.486.264.487,3.591V22.344c0,.726.1,1.088.3,1.088a1.8,1.8,0,0,0,.785-.314,1.879,1.879,0,0,1,.934-.312,6.841,6.841,0,0,1,1.72.427,7.675,7.675,0,0,0,8.116-1.976,8.025,8.025,0,0,0,2.358-5.833A6.765,6.765,0,0,0,78.729,10.4,6.847,6.847,0,0,0,73.681,8.5m2.012,13.12A3.736,3.736,0,0,1,72.424,23.1q-2.331,0-2.744-1.381a29.256,29.256,0,0,1-.263-5.392,21.439,21.439,0,0,1,.338-5.194A2.976,2.976,0,0,1,71.033,9.7a3.745,3.745,0,0,1,1.992-.576,3.515,3.515,0,0,1,3.1,1.678,8.626,8.626,0,0,1,1.108,4.766,10.407,10.407,0,0,1-1.54,6.05"/><path class="c" d="M90.286,22.806a7.765,7.765,0,0,1-1.645-.131c-.224-.045-.355-.143-.393-.3a10.9,10.9,0,0,1-.056-1.545V10.245A3.851,3.851,0,0,0,87.9,8.438l-.37.191a9.862,9.862,0,0,1-4.243,1.028c-.418.02-.627.1-.627.23q0,.231.411.231h1.459c.274,0,.429.049.467.149a5.015,5.015,0,0,1,.093.972v9.985a3.5,3.5,0,0,1-.131,1.367,3.866,3.866,0,0,1-1.552.182c-.5,0-.747.116-.747.349q0,.245.411.245a.759.759,0,0,0,.449-.133h3.89c.5,0,1.121.023,1.87.067.623.043.923.066.9.066.423,0,.635-.1.635-.3,0-.175-.174-.264-.524-.264"/><path class="c" d="M86.322,4.021q1.685,0,1.683-1.483T86.322,1.055q-1.683,0-1.683,1.549a1.267,1.267,0,0,0,.487,1,1.786,1.786,0,0,0,1.2.413"/><path class="c" d="M102.216,21.158a.445.445,0,0,0-.336.165,4.651,4.651,0,0,1-2.767,1.219q-1.459,0-1.721-1.17a36.615,36.615,0,0,1-.262-5.783v-6.1h1.534q3.03,0,3.029-.473c0-.189-.1-.284-.3-.284a1.23,1.23,0,0,0-.261.033,14.189,14.189,0,0,1-2.73.164,6.63,6.63,0,0,1-1.124-.066,6.434,6.434,0,0,1-.149-1.779V6.394c0-.153-.087-.231-.26-.231a.67.67,0,0,0-.557.3A5.877,5.877,0,0,1,91.779,9c-.272.022-.409.11-.409.263s.275.23.823.23h1.421a.4.4,0,0,1,.412.363v9.8q0,2.565.6,3.09a4.571,4.571,0,0,0,3.1.921,5.929,5.929,0,0,0,3.816-1.286c.622-.5.936-.857.936-1.054,0-.11-.089-.165-.264-.165"/><path class="c" d="M106.33,4.021q1.685,0,1.683-1.483T106.33,1.055q-1.683,0-1.683,1.549a1.266,1.266,0,0,0,.487,1,1.786,1.786,0,0,0,1.2.413"/><path class="c" d="M110.294,22.806a7.765,7.765,0,0,1-1.645-.131c-.224-.045-.355-.143-.393-.3a10.9,10.9,0,0,1-.056-1.545V10.245a3.851,3.851,0,0,0-.295-1.807l-.37.191a9.862,9.862,0,0,1-4.243,1.028c-.418.02-.627.1-.627.23q0,.231.411.231h1.459c.274,0,.429.049.467.149a5.015,5.015,0,0,1,.093.972v9.985a3.5,3.5,0,0,1-.131,1.367,3.866,3.866,0,0,1-1.552.182c-.5,0-.747.116-.747.349q0,.245.411.245a.759.759,0,0,0,.449-.133h3.89q.749,0,1.87.067c.623.043.923.066.9.066.423,0,.635-.1.635-.3,0-.175-.174-.264-.524-.264"/><path class="c" d="M120.1,8.5a7.631,7.631,0,0,0-5.556,2.175,7.326,7.326,0,0,0-2.224,5.471A7.07,7.07,0,0,0,114.6,21.5a7.952,7.952,0,0,0,5.686,2.159,7.555,7.555,0,0,0,5.5-2.159,7.191,7.191,0,0,0,2.207-5.355,7.287,7.287,0,0,0-2.264-5.455A7.772,7.772,0,0,0,120.1,8.5m2.917,13.545a2.917,2.917,0,0,1-2.545,1.153,3.982,3.982,0,0,1-3.5-1.862,9.215,9.215,0,0,1-1.253-5.19,9.945,9.945,0,0,1,1.177-5.257A3.67,3.67,0,0,1,120.169,9a3.421,3.421,0,0,1,3.141,1.483,10.522,10.522,0,0,1,1.272,5.635,9.953,9.953,0,0,1-1.57,5.932"/><path class="c" d="M146.874,22.871H146.2a1.877,1.877,0,0,1-1.084-.2A2.762,2.762,0,0,1,145,21.519V14.006a7.249,7.249,0,0,0-.674-3.757A4.374,4.374,0,0,0,140.441,8.5a6.372,6.372,0,0,0-5.013,2.208V9.129q0-.625-.263-.626a.994.994,0,0,0-.522.264,4.931,4.931,0,0,1-1.833.757,11.372,11.372,0,0,1-2.431.363c-.524,0-.787.1-.787.315,0,.163.25.245.748.245h1.086q.859,0,.935.394t.075,4.143v7.164l-.111.492c-.076.155-.3.231-.675.231h-.935c-.448.039-.675.125-.675.26s.189.2.563.2h6.808c.3,0,.448-.076.448-.229s-.127-.231-.38-.231l-1.14-.033q-.8-.033-.8-.426V12.154a1.737,1.737,0,0,1,.375-1.184,4.021,4.021,0,0,1,3.141-1.446A2.49,2.49,0,0,1,141.6,11a16.387,16.387,0,0,1,.3,4.273V21.59a2.655,2.655,0,0,1-.112,1.068q-.112.148-.822.181c-.823.023-1.3.044-1.441.066s-.205.088-.205.2q0,.229.487.229h6.882c.373,0,.56-.081.56-.245,0-.143-.125-.216-.373-.216"/></g></g></svg>