<svg xmlns="http://www.w3.org/2000/svg" xmlns:xlink="http://www.w3.org/1999/xlink" width="301.888" height="293.07" viewBox="0 0 301.888 293.07"><defs><style>.a{fill:none;}.b{clip-path:url(#a);}.c{fill:#fff;}</style><clipPath id="a"><rect class="a" width="301.888" height="293.07" transform="translate(98.902 107.294)"/></clipPath></defs><g transform="translate(-98.902 -107.294)"><g class="b"><path class="c" d="M127.6,86.3h-2.758a2.572,2.572,0,0,0-2.5,2.5l.09.665a2.492,2.492,0,0,0,.643,1.1,2.6,2.6,0,0,0,1.767.732H127.6a2.569,2.569,0,0,0,2.5-2.5c-.03-.222-.06-.443-.089-.665a2.5,2.5,0,0,0-.643-1.1A2.6,2.6,0,0,0,127.6,86.3"/><path class="c" d="M55.909,142.07a7.444,7.444,0,0,0,1.655,7.253,10.057,10.057,0,0,0,7.167,3.391c3.16.206,6.251-.926,9.082-2.2a73.794,73.794,0,0,0,6.768-3.5A122.352,122.352,0,0,0,103.755,128.9c14.151-13.632,26.5-29.437,42.743-40.75,7.747-5.4,16.869-10.2,26.608-9.543a15.615,15.615,0,0,1,11.372,5.639c3.108,3.944,4.11,9.2,4.217,14.108.237,10.784-4.207,20.944-10.027,29.805-6.089,9.27-13.853,17.181-21.517,25.135-7.6,7.884-15.21,15.925-21.059,25.234a60.455,60.455,0,0,0-7.117,15.189c-1.561,5.431-1.783,11.706,1.5,16.573,2.962,4.388,7.863,7.1,13.209,6.268,4.445-.689,8.079-3.629,11.911-5.747a10.5,10.5,0,0,1,4.92-1.63,4.875,4.875,0,0,1,3.777,1.884c1.975,2.907,1.366,7.315.267,10.752-1.75,5.474-4.511,10.646-7.189,15.709-2.823,5.34-5.758,10.632-8.166,16.178-4.533,10.44-7.407,22.7-3.5,33.809a24.838,24.838,0,0,0,9.14,12.5,16.5,16.5,0,0,0,15.384,1.724c9.883-3.861,15.5-13.693,19.27-23.044,3.553-8.826,5.892-18.266,11.205-26.281,2.615-3.946,6.276-7.759,10.987-9.022a10.7,10.7,0,0,1,10.295,2.625c6.087,5.756,7.124,15.25,7.022,23.25-.16,12.448-2.36,24.732-5.042,36.854s-5.86,24.162-8.137,36.384c-2.315,12.426-3.937,25.321-1.235,37.824,2.126,9.832,7.31,19.276,15.317,25.512,8.985,7,20.32,8.693,31.362,6.934,11.009-1.753,21.35-6.666,30.755-12.494a129.461,129.461,0,0,0,25.306-20.323,105.328,105.328,0,0,0,18.4-25.812c5.2-10.475,8.626-22.411,7.312-34.192-1.285-11.529-7.211-21.2-13.982-30.343-3.323-4.485-6.768-8.88-9.874-13.521A132.1,132.1,0,0,1,310.58,261.2a129.6,129.6,0,0,1-13.216-65.363,29.781,29.781,0,0,1,2.989-11.777,14.013,14.013,0,0,1,3.41-4.46,8.542,8.542,0,0,1,4.09-1.83,11.957,11.957,0,0,1,7.081,1.725,38.075,38.075,0,0,1,6.528,4.473,94.816,94.816,0,0,1,11.186,11.777c6.846,8.156,13.927,16.67,23.929,21.042a29.167,29.167,0,0,0,15.956,2.4,33.8,33.8,0,0,0,14.985-6.544,70.055,70.055,0,0,0,20.591-25.064,74.469,74.469,0,0,0,7.909-31.119c.618-22.3-9.859-42.684-16.288-63.482-3.07-9.932-5.225-20.159-4.677-30.6.169-3.216-4.832-3.207-5,0-1.161,22.124,9.037,42.472,15.6,63.023,3.252,10.18,5.712,20.711,5.351,31.463a68.827,68.827,0,0,1-8.044,29.808c-4.85,9.129-11.819,17.982-20.68,23.5a25.841,25.841,0,0,1-14.438,4.316,27.923,27.923,0,0,1-14.127-4.929c-8.911-5.775-14.93-14.682-21.936-22.444A59.431,59.431,0,0,0,319.6,176.431c-4.365-2.756-9.713-4.867-14.852-3.026-8.5,3.045-11.627,13.237-12.311,21.39a126.712,126.712,0,0,0,1.971,33.529,136.149,136.149,0,0,0,10.372,32.3c4.773,10.309,11.005,19.573,17.815,28.625,6.554,8.712,13.279,17.8,15.18,28.8,1.924,11.134-1.13,22.773-5.968,32.778-9.157,18.941-24.708,34.266-42.475,45.24-16.831,10.395-41.69,19.747-58.438,4.065-17.457-16.346-13.2-42.811-8.763-63.694,2.582-12.154,5.783-24.171,8.211-36.359,2.344-11.761,4.311-24.076,3.59-36.107-.5-8.341-3.214-17.809-10.231-23a15.718,15.718,0,0,0-12.6-2.587c-5.137,1.086-9.549,4.7-12.717,8.746-6.121,7.822-8.935,17.471-12.329,26.649-3.159,8.538-7.421,18.063-15.893,22.524a12.016,12.016,0,0,1-13.383-1.04c-3.811-2.966-6.056-7.5-7.135-12.119-2.576-11.025,1.523-22.464,6.37-32.248,2.65-5.35,5.61-10.54,8.275-15.883,2.366-4.742,5.005-9.839,5.882-15.118.714-4.3.538-9.225-2.543-12.634-3.216-3.558-8.183-3.644-12.319-1.867-3.758,1.613-6.94,4.521-10.814,5.819a7.649,7.649,0,0,1-5.649-.04,10.011,10.011,0,0,1-4.7-4.487c-2.6-4.781-.9-10.753.982-15.464a68.529,68.529,0,0,1,7.759-13.883c12.616-17.928,30.963-31.036,42.22-50.046,5.475-9.245,9.255-19.894,8.514-30.77-.379-5.554-1.853-11.081-5.354-15.507a19.76,19.76,0,0,0-12.091-7.041c-9.833-1.7-19.9,2.042-28.146,7.181a134.842,134.842,0,0,0-22.973,18.75c-13.847,13.643-26.224,29.248-42.589,40.057a61.876,61.876,0,0,1-12.682,6.844c-2.118.764-4.765,1.478-6.909.421-1.579-.779-2.7-2.259-2.14-3.832a2.523,2.523,0,0,0-1.746-3.075,2.55,2.55,0,0,0-3.075,1.746"/><path class="c" d="M208.448,93.139c3.865,12.782,2.824,26.294-1.426,38.842a97.094,97.094,0,0,1-21.232,34.628c-4.961,5.32-10.489,10.5-13.373,17.325-2.411,5.705-2.745,12.911.793,18.253,3.17,4.788,8.613,6.606,13.384,9.319a17.191,17.191,0,0,1,2.7,1.826,8.317,8.317,0,0,1,1.06,1.1c-.211-.276.129.217.178.3.081.141.409.838.281.5a6.929,6.929,0,0,1,.216.716c.111.415.034-.083.065.36a6.3,6.3,0,0,1-.242,2.1,18.724,18.724,0,0,0-1.1,5.464c.258,6.441,7.452,9.07,12.956,8.082,6.755-1.211,10.45-7.823,14.7-12.456,2.077-2.266,4.667-4.547,7.812-5.053a7.971,7.971,0,0,1,6.913,2.612,24.848,24.848,0,0,1,4.615,7.25c1.564,3.394,2.932,6.893,4.292,10.372a172.728,172.728,0,0,1,7.42,23.066,137.638,137.638,0,0,1,3.29,23.982c.922,16.284-.06,32.608.82,48.894a146.092,146.092,0,0,0,3.113,24.128c1.553,6.919,4.019,13.831,8.787,19.216a22.93,22.93,0,0,0,17.558,7.837c7.216-.284,12.632-4.907,15.916-11.084,7.229-13.6,6.26-29.932,1.922-44.268a171.172,171.172,0,0,0-8.944-22.331c-3.415-7.358-6.9-14.68-10.152-22.11q-9.78-22.305-17.723-45.359c-2.576-7.462-5.076-14.968-7.274-22.551a116.024,116.024,0,0,1-4.162-19.46c-1.4-12.653.437-26,10.027-35.2a43.1,43.1,0,0,1,16.491-9.445,68.566,68.566,0,0,1,20.255-3.446,30.308,30.308,0,0,1,10.879,1.589,26.687,26.687,0,0,1,8.322,5.255c2.642,2.327,5.037,4.913,7.516,7.408q3.951,3.974,8.255,7.574a119.772,119.772,0,0,0,18.555,12.9c6.311,3.5,13.235,6.2,20.473,6.819a24.94,24.94,0,0,0,19.356-6.309c5.116-4.772,8.1-11.471,10.422-17.945a86.7,86.7,0,0,0,3.585-44.041,85.555,85.555,0,0,0-6.519-20.769,2.52,2.52,0,0,0-3.421-.9,2.56,2.56,0,0,0-.9,3.421,81.734,81.734,0,0,1,6.731,42.309,80.253,80.253,0,0,1-5.138,20.877c-2.288,5.834-5.431,12.059-10.888,15.522-5.636,3.576-12.5,3.465-18.761,1.825-6.835-1.791-13.031-5.238-18.91-9.079a118.364,118.364,0,0,1-17.294-13.761c-5.033-4.836-9.572-10.42-15.712-13.931-6.66-3.809-14.437-4.188-21.907-3.437a72.513,72.513,0,0,0-19.526,4.488,45.854,45.854,0,0,0-16.6,10.74,38.423,38.423,0,0,0-9.243,16.967c-3.3,12.975-.773,26.812,2.749,39.462,4.184,15.025,9.484,29.815,15.08,44.365,5.8,15.087,12.256,29.895,19.136,44.52,6.45,13.709,13.085,28,13.6,43.41a45.271,45.271,0,0,1-3.884,20.92,20.229,20.229,0,0,1-5.707,7.728,12.271,12.271,0,0,1-8.048,2.314c-6.094-.279-11.4-4.082-14.634-9.083-3.815-5.9-5.37-12.993-6.55-19.826-2.737-15.843-2.2-32.032-2.228-48.043-.029-16.158-.769-32.316-5.065-47.979a199.485,199.485,0,0,0-7.833-22.463c-2.387-5.855-4.657-12.739-9.729-16.894A12.723,12.723,0,0,0,225.7,209.4a16.455,16.455,0,0,0-9.543,4.351c-2.5,2.146-4.406,4.826-6.51,7.335-1.888,2.251-4.1,4.738-6.958,5.729a7.655,7.655,0,0,1-6.262-.585,3.711,3.711,0,0,1-1.5-1.6,2.408,2.408,0,0,1-.16-1.423,13.49,13.49,0,0,1,.626-2.46c.867-2.924,1.083-5.952-.6-8.633a15.492,15.492,0,0,0-5.67-4.921c-4.315-2.455-9.767-3.992-12.2-8.547-2.731-5.121-1.043-11.419,1.817-16.071,3.71-6.033,9.262-10.707,13.832-16.054a108.6,108.6,0,0,0,11.929-16.9c6.676-11.764,11.115-25.054,11.384-38.658a62.075,62.075,0,0,0-2.613-19.144c-.928-3.072-5.756-1.763-4.821,1.329"/><path class="c" d="M226.919,98.407c4.365,11.01,1.9,23.189-2.879,33.643C218.866,143.367,211.2,153.3,205.2,164.158c-2.51,4.547-4.823,9.181-5.226,14.44-.343,4.5,1.242,9.307,5.522,11.41,5.328,2.617,10.885-.054,14.862-3.81,4.03-3.8,6.8-8.919,9.562-13.667,5.662-9.753,10.665-19.966,17.513-28.975a62.746,62.746,0,0,1,25.3-19.92,64.1,64.1,0,0,1,31.62-4.806c12.475,1.291,24.219,6.267,36.606,8.055,10.455,1.508,22.141,1.038,31.225-4.968a33.769,33.769,0,0,0,10.557-11.872c2.548-4.506,4.482-9.326,7-13.851a38.284,38.284,0,0,1,4.037-6.049,2.568,2.568,0,0,0,0-3.536,2.519,2.519,0,0,0-3.534,0c-3.411,4.068-5.788,8.734-8.068,13.493-2.106,4.4-4.179,9.005-7.332,12.778-6.653,7.959-17.092,10.133-27.037,9.684-11.827-.533-23.037-4.936-34.535-7.327a71.3,71.3,0,0,0-33.8.778A67.1,67.1,0,0,0,251.243,131.8c-8.061,7.655-13.876,17.272-19.274,26.892-2.722,4.851-5.373,9.744-8.254,14.505-2.6,4.3-5.3,9.023-9.753,11.661-1.764,1.045-3.872,1.7-5.857.871a4.8,4.8,0,0,1-2.88-3.421c-1-3.681.447-8.133,2.188-11.628,5.433-10.893,12.873-20.619,18.584-31.355,5.459-10.26,9.427-22.042,7.89-33.8a35.187,35.187,0,0,0-2.147-8.448,2.575,2.575,0,0,0-3.075-1.745,2.517,2.517,0,0,0-1.746,3.074"/><path class="c" d="M410.726,240.311c-12.751-.788-25.562-1.579-38.1-4.173a108.171,108.171,0,0,1-18.3-5.392c-5.733-2.295-12.133-5.336-18.371-3.03a15.059,15.059,0,0,0-9.132,10.98c-1.287,5.632.326,11.211,3.07,16.16,3.126,5.637,7.364,10.7,11.19,15.866q6.047,8.166,12.092,16.332a119.611,119.611,0,0,1,10.227,15.7,49.689,49.689,0,0,1,5.321,17.529c1.218,11.257-.2,22.91-2.592,33.931a149.367,149.367,0,0,1-25.5,56.125,152.884,152.884,0,0,1-45.911,41.591q-3.445,2.021-6.995,3.856c-2.858,1.481-.332,5.8,2.524,4.317a158.173,158.173,0,0,0,78.14-94.546,142.212,142.212,0,0,0,5.508-30.864,78.318,78.318,0,0,0-.942-19.659,56.492,56.492,0,0,0-6.837-17.719,165.67,165.67,0,0,0-10.533-15.363l-12.253-16.545c-3.7-5-8-9.987-10.461-15.758-1.83-4.3-2.259-9.123.189-13.283a8.938,8.938,0,0,1,4.216-3.83c2.576-1.055,5.433-.632,8.024.118,3.076.89,5.983,2.266,8.967,3.41s6,2.123,9.064,2.975c12.365,3.439,25.224,4.756,37.988,5.66,3.133.222,6.267.417,9.4.611,3.214.2,3.2-4.8,0-5"/><path class="c" d="M80.68,163.158c3.536-1.939,7.994-.508,10.911,2.043,3.881,3.394,5.027,8.613,5.278,13.565.316,6.2-.149,12.485-.323,18.69l-.561,19.921c-.371,13.187-.8,26.373-1.111,39.561-.136,5.762-.086,11.668,1.48,17.26a30.241,30.241,0,0,0,8.722,13.944c3.977,3.717,8.574,6.688,12.977,9.86a104.732,104.732,0,0,1,12.023,10.067c7.253,7.1,13.551,15.542,16.71,25.282a56.94,56.94,0,0,1,2.388,16.511c.142,6.236.062,12.553,1.55,18.654.634,2.6,1.748,5.392,4.477,6.373s5.726-.479,8.147-1.717a32.807,32.807,0,0,0,10.726-9.075c6.066-7.754,9.287-17.163,11.778-26.572,2.6-9.829,4.9-20.134,10.792-28.619a33.719,33.719,0,0,1,4.911-5.579l-3.927-.506c5.057,8.079,2.256,18.036-.547,26.4-3.372,10.062-6.817,20.031-9.452,30.324a296.466,296.466,0,0,0-9.135,64.138c-.365,11.618.256,23.473,5.276,34.153a2.513,2.513,0,0,0,3.927.505,28.186,28.186,0,0,0,6.628-16.431c.2-3.213-4.8-3.2-5,0a22.482,22.482,0,0,1-5.164,12.9l3.926.506c-4.328-9.209-4.864-19.613-4.647-29.625a277.644,277.644,0,0,1,2.548-31.88,295.689,295.689,0,0,1,6.171-31.786c2.6-10.341,5.955-20.393,9.4-30.474,3.407-9.957,6.391-21.649.381-31.25a2.535,2.535,0,0,0-3.926-.506c-15.645,14.391-14.243,37.4-23.846,55.065a37.137,37.137,0,0,1-8.39,10.718,25.88,25.88,0,0,1-5.592,3.593,9.539,9.539,0,0,1-2.769,1.046c-.915.1-1.187-.722-1.454-1.487-1.962-5.636-1.66-12.056-1.775-17.933a66.643,66.643,0,0,0-2.084-17.13c-2.882-10.078-8.843-19.017-15.99-26.58a102.824,102.824,0,0,0-11.853-10.637c-4.232-3.277-8.789-6.127-12.949-9.5-4.035-3.268-7.7-7.1-9.5-12.07-1.933-5.328-2.069-11.047-1.971-16.651.23-13.12.726-26.241,1.1-39.358l.561-19.921c.175-6.217.563-12.473.419-18.693-.129-5.575-1.031-11.553-4.508-16.1a17.418,17.418,0,0,0-12.3-6.868,12.507,12.507,0,0,0-6.957,1.553c-2.822,1.547-.3,5.866,2.524,4.317"/><path class="c" d="M143.2,112.7c-11.762,1.265-21.564,8.191-29.615,16.482-7.494,7.717-17.135,18.661-12.333,30.233,2.232,5.378,7.229,8.342,12.9,8.8s11.274-1.479,16.3-3.922a93.865,93.865,0,0,0,15.927-10.161c4.767-3.663,9.423-7.961,12.02-13.492,2.784-5.927,3.433-13.1-.038-18.9-3.327-5.568-9.459-8.628-15.416-10.572-3.066-1-4.38,3.826-1.329,4.821,4.254,1.388,8.778,3.4,11.6,7.037,3.011,3.878,3.073,8.966,1.528,13.45-1.676,4.863-5.366,8.751-9.23,12a94.424,94.424,0,0,1-13.4,9.269c-4.274,2.477-8.925,4.757-13.885,5.386-4.083.519-8.829-.13-11.369-3.744s-2.226-8.457-.577-12.351c2.024-4.778,5.694-8.807,9.176-12.57,7.355-7.945,16.567-15.562,27.734-16.763a2.574,2.574,0,0,0,2.5-2.5,2.516,2.516,0,0,0-2.5-2.5"/><path class="c" d="M74.538,324.44c10.706,10.608,21.616,21.456,29.21,34.6a63.981,63.981,0,0,1,7.808,20.769,69.275,69.275,0,0,1-.605,25.331,90.76,90.76,0,0,1-9.557,26.235c-1.552,2.821,2.764,5.346,4.318,2.523,8.41-15.283,13.3-33.531,11.3-51.027-1.853-16.21-10.165-30.2-20.494-42.484C90.756,333.54,84.426,327.2,78.074,320.9c-2.289-2.267-5.826,1.267-3.536,3.536"/></g></g></svg>