<svg xmlns="http://www.w3.org/2000/svg" xmlns:xlink="http://www.w3.org/1999/xlink" width="191.956" height="25.142" viewBox="0 0 191.956 25.142"><defs><style>.a{fill:none;}.b{clip-path:url(#a);}.c{fill:#fff;}</style><clipPath id="a"><rect class="a" width="191.956" height="25.142" transform="translate(0 0)"/></clipPath></defs><g transform="translate(0 0)"><g class="b"><path class="c" d="M12.272,18.291c0,.13-.13.194-.39.194H7.1c-.225,0-.338-.06-.338-.181a.15.15,0,0,1,.143-.156q.143-.026,1-.051c.329-.018.52-.065.572-.143a2.365,2.365,0,0,0,.078-.843v-4.98a14.582,14.582,0,0,0-.208-3.372A1.717,1.717,0,0,0,6.578,7.592a2.672,2.672,0,0,0-2.184,1.14,1.5,1.5,0,0,0-.26.935v8.092c0,.208.185.32.555.338l.793.025c.176,0,.264.061.264.182s-.1.181-.312.181H.7c-.26,0-.39-.052-.39-.159s.156-.174.468-.2h.65c.26,0,.416-.06.468-.182l.078-.389V11.9q0-2.955-.052-3.267c-.035-.207-.251-.312-.65-.312H.52c-.347,0-.52-.063-.52-.193q0-.248.546-.248a7.09,7.09,0,0,0,1.69-.286,3.21,3.21,0,0,0,1.274-.6.666.666,0,0,1,.364-.208q.181,0,.182.494V8.527A4.217,4.217,0,0,1,7.54,6.785a2.916,2.916,0,0,1,2.7,1.379,6.386,6.386,0,0,1,.468,2.964v5.928a2.475,2.475,0,0,0,.078.91,1.181,1.181,0,0,0,.754.156h.468c.173,0,.26.057.26.169"/><path class="c" d="M24.076,12.817a6.085,6.085,0,0,1-1.534,4.226,4.934,4.934,0,0,1-3.822,1.7,5.179,5.179,0,0,1-3.952-1.7,5.963,5.963,0,0,1-1.586-4.226A6.2,6.2,0,0,1,14.729,8.5,4.98,4.98,0,0,1,18.59,6.785,5.074,5.074,0,0,1,22.5,8.515a6.157,6.157,0,0,1,1.573,4.3m-2.366-.025a9.226,9.226,0,0,0-.884-4.446,2.294,2.294,0,0,0-2.184-1.17,2.51,2.51,0,0,0-2.275,1.495,8.709,8.709,0,0,0-.819,4.146,8.05,8.05,0,0,0,.871,4.1,2.7,2.7,0,0,0,2.431,1.47,1.943,1.943,0,0,0,1.768-.91,8.66,8.66,0,0,0,1.092-4.68"/><path class="c" d="M37.466,18.291c0,.13-.13.194-.39.194H32.292c-.225,0-.338-.06-.338-.181a.15.15,0,0,1,.143-.156q.143-.026,1-.051c.329-.018.52-.065.572-.143a2.365,2.365,0,0,0,.078-.843v-4.98a14.582,14.582,0,0,0-.208-3.372,1.717,1.717,0,0,0-1.768-1.167,2.672,2.672,0,0,0-2.184,1.14,1.5,1.5,0,0,0-.26.935v8.092c0,.208.185.32.555.338l.793.025c.176,0,.264.061.264.182s-.1.181-.312.181H25.9c-.26,0-.39-.052-.39-.159s.156-.174.468-.2h.65c.26,0,.416-.06.468-.182l.078-.389V11.9q0-2.955-.052-3.267c-.035-.207-.251-.312-.65-.312h-.754c-.347,0-.52-.063-.52-.193q0-.248.546-.248a7.09,7.09,0,0,0,1.69-.286,3.21,3.21,0,0,0,1.274-.6.666.666,0,0,1,.364-.208q.181,0,.182.494V8.527a4.217,4.217,0,0,1,3.484-1.742,2.916,2.916,0,0,1,2.7,1.379,6.386,6.386,0,0,1,.468,2.964v5.928a2.475,2.475,0,0,0,.078.91,1.181,1.181,0,0,0,.754.156h.468c.173,0,.26.057.26.169"/><path class="c" d="M45.448,16.9q0,.234-.65.832a3.816,3.816,0,0,1-2.652,1.014,2.932,2.932,0,0,1-2.158-.726,4.178,4.178,0,0,1-.416-2.438V7.85a.289.289,0,0,0-.286-.285H38.3q-.572,0-.572-.182c0-.121.095-.19.284-.208a4,4,0,0,0,3.152-2,.453.453,0,0,1,.387-.237.161.161,0,0,1,.181.183v.546a5.667,5.667,0,0,0,.1,1.4,4.005,4.005,0,0,0,.78.053,8.668,8.668,0,0,0,1.9-.131.779.779,0,0,1,.182-.026c.139,0,.208.075.208.224q0,.375-2.106.374H41.73v4.811a32.865,32.865,0,0,0,.182,4.562,1.075,1.075,0,0,0,1.2.923,3.05,3.05,0,0,0,1.924-.962.3.3,0,0,1,.234-.13c.121,0,.182.044.182.13"/><path class="c" d="M52.832,16.9q0,.234-.651.832a3.812,3.812,0,0,1-2.651,1.014,2.931,2.931,0,0,1-2.158-.726,4.178,4.178,0,0,1-.416-2.438V7.85a.289.289,0,0,0-.286-.285h-.989q-.572,0-.571-.182c0-.121.1-.19.284-.208a4,4,0,0,0,3.152-2,.453.453,0,0,1,.387-.237.161.161,0,0,1,.181.183v.546a5.616,5.616,0,0,0,.1,1.4,4,4,0,0,0,.78.053,8.674,8.674,0,0,0,1.9-.131.779.779,0,0,1,.181-.026c.139,0,.208.075.208.224q0,.375-2.1.374H49.114v4.811a32.7,32.7,0,0,0,.182,4.562,1.075,1.075,0,0,0,1.2.923,3.052,3.052,0,0,0,1.924-.962.3.3,0,0,1,.234-.13c.121,0,.182.044.182.13"/><path class="c" d="M64.766,17.914c0,.121-.121.182-.365.182h-.78a4.307,4.307,0,0,0-2.157.5,1.612,1.612,0,0,1-.443.2c-.155,0-.234-.1-.234-.312l.026-.806A3.624,3.624,0,0,1,58.161,18.8a4.5,4.5,0,0,1-3.6-1.684,6.443,6.443,0,0,1-1.417-4.3,6.512,6.512,0,0,1,1.417-4.361,4.622,4.622,0,0,1,3.7-1.672A3.015,3.015,0,0,1,60.917,8.06V4a9.433,9.433,0,0,0-.18-2.444c-.1-.26-.257-.381-.46-.364-.5.052-.8.078-.9.078q-.333,0-.333-.234c0-.156.1-.234.284-.234l.93.026A5.948,5.948,0,0,0,62.637.1a.416.416,0,0,1,.179-.052q.259,0,.26.624V10.92q0,6.162.1,6.6.051.183,1.221.182c.244,0,.365.07.365.208m-3.849-6.526a5.956,5.956,0,0,0-.546-3.2,2.192,2.192,0,0,0-1.794-.884,2.508,2.508,0,0,0-2.236,1.456,7.846,7.846,0,0,0-.832,3.9,9.944,9.944,0,0,0,.728,4.005,2.865,2.865,0,0,0,.923,1.157,2.091,2.091,0,0,0,1.262.455,2.392,2.392,0,0,0,1.455-.481,2.181,2.181,0,0,0,.845-1.157,34.993,34.993,0,0,0,.195-5.252"/><path class="c" d="M89.049,8.007A7.962,7.962,0,0,1,85.955,14.5a7.554,7.554,0,0,1-4.888,1.722q-2.106,0-2.105-1.52a4.157,4.157,0,0,1,.077-.56,4.489,4.489,0,0,1-3.691,2.08,2.882,2.882,0,0,1-2.211-.923,3.317,3.317,0,0,1-.857-2.353q0-2.652,2.691-5.5T80.158,4.6a1.947,1.947,0,0,1,2.21,1.691l.026-.105c.224-.485.39-.849.494-1.092s.233-.364.39-.364a2.957,2.957,0,0,1,.428.052,2.868,2.868,0,0,0,.455.052,1.553,1.553,0,0,0,.521-.117,1.5,1.5,0,0,1,.467-.117c.1,0,.157.061.157.182a8.354,8.354,0,0,1-.624,1.528L83.9,8q-.312.724-.963,2.2l-1.065,2.332a7.043,7.043,0,0,0-.755,2.335q0,.63.806.629a4.57,4.57,0,0,0,1.977-.534,7.213,7.213,0,0,0,1.95-1.393,6.285,6.285,0,0,0,1.391-2.331,8.783,8.783,0,0,0,.532-3.009A7.269,7.269,0,0,0,85.5,2.695,8.59,8.59,0,0,0,79.352.546a9.966,9.966,0,0,0-7.67,3.276,11.771,11.771,0,0,0-3.017,8.294,10.089,10.089,0,0,0,2.419,7.008,8.062,8.062,0,0,0,6.292,2.69,11.813,11.813,0,0,0,7.8-2.846,10.328,10.328,0,0,0,2.652-3.159.484.484,0,0,1,.443-.313c.224,0,.337.088.337.261a3.41,3.41,0,0,1-.935,1.566,13.319,13.319,0,0,1-10.686,5.193A10.5,10.5,0,0,1,69.407,19.6a9.679,9.679,0,0,1-3.029-7.28,11.61,11.61,0,0,1,3.9-8.71A12.6,12.6,0,0,1,79.17,0a13.141,13.141,0,0,1,4.472.755,8.794,8.794,0,0,1,3.379,2.061,7.151,7.151,0,0,1,2.028,5.19M81.978,6.814a1.686,1.686,0,0,0-1.717-1.562q-1.508,0-3.145,2.47a11.448,11.448,0,0,0-2.262,6.058q0,1.716,1.3,1.716,1.9,0,3.7-3.793L81.258,8.74a6.966,6.966,0,0,0,.72-1.926"/><path class="c" d="M103.245,8.32q0,1.2-1.066,1.2a1.013,1.013,0,0,1-.663-.247.717.717,0,0,1-.3-.559,1.119,1.119,0,0,1,.078-.325,1.125,1.125,0,0,0,.078-.351c0-.225-.122-.338-.364-.338a.806.806,0,0,0-.6.325,1,1,0,0,0-.286.663q0,.078.13.884a8.327,8.327,0,0,1,.13,1.222,3.983,3.983,0,0,1-1.222,2.964,4.179,4.179,0,0,1-3.042,1.2,7.061,7.061,0,0,1-1.716-.39,2,2,0,0,0-.442-.1,1.368,1.368,0,0,0-.988.441,1.34,1.34,0,0,0-.442.962q0,1.352,1.638,1.352a13.525,13.525,0,0,0,2-.234,11.705,11.705,0,0,1,1.95-.182,3.514,3.514,0,0,1,2.483.832,3,3,0,0,1,.9,2.314,4.528,4.528,0,0,1-1.911,3.718,7.637,7.637,0,0,1-4.823,1.482,5.8,5.8,0,0,1-3.393-.871,2.785,2.785,0,0,1-1.235-2.405,2.5,2.5,0,0,1,1.144-2.236,6.061,6.061,0,0,1,1.82-.65q-1.847-.727-1.846-2.236,0-1.872,2.392-2.6a3.894,3.894,0,0,1-1.56-3.224,3.941,3.941,0,0,1,1.2-3,5.076,5.076,0,0,1,4.875-.845,5.592,5.592,0,0,1,1.547,1.144,2.435,2.435,0,0,1,2.054-1.222q1.482,0,1.482,1.326m-2.834,12.532q0-2.157-2.54-2.158a14.274,14.274,0,0,0-2.138.234,14.246,14.246,0,0,1-2.112.234,2.554,2.554,0,0,0-1.322,2.47,2.661,2.661,0,0,0,.946,2.132,3.725,3.725,0,0,0,2.5.806,5.142,5.142,0,0,0,3.317-1.079,3.267,3.267,0,0,0,1.348-2.639m-2-9.958q0-3.77-2.08-3.77-2.028,0-2.028,3.51,0,3.953,2.158,3.952,1.95,0,1.95-3.692"/><path class="c" d="M120.873,18.291c0,.13-.147.194-.442.194h-4.68c-.225,0-.338-.056-.338-.17s.1-.193.286-.193h.858c.26-.018.412-.078.455-.183a4.761,4.761,0,0,0,.065-1.094V10.381a4.271,4.271,0,0,0-.4-2.151,1.476,1.476,0,0,0-1.356-.638,2.258,2.258,0,0,0-2.067,1.429,20.464,20.464,0,0,0-.1,2.886v4.914a9.485,9.485,0,0,0,.026.989.411.411,0,0,0,.46.312h.742c.221,0,.332.065.332.193s-.13.17-.39.17h-4.68c-.208,0-.312-.068-.312-.207,0-.087.052-.138.156-.156s.45-.025,1.04-.025c.277-.018.425-.1.442-.26l.026-.363V10.237a4.072,4.072,0,0,0-.374-2.075,1.471,1.471,0,0,0-1.33-.57,2.227,2.227,0,0,0-1.589.6,1.981,1.981,0,0,0-.633,1.5v7.366a2.011,2.011,0,0,0,.115.921q.116.142.755.143h.205a1.633,1.633,0,0,1,.282-.026c.187,0,.281.069.281.208,0,.121-.113.181-.338.181h-.26q-.624-.026-1.95,0h-2.548c-.243,0-.364-.068-.364-.207,0-.121.113-.181.338-.181a3.71,3.71,0,0,0,1.144-.091.4.4,0,0,0,.182-.324V10.939a17.228,17.228,0,0,0-.078-2.282q-.078-.337-.754-.338h-.858c-.225,0-.338-.06-.338-.181,0-.1.039-.165.117-.182s.36-.044.847-.078a5.973,5.973,0,0,0,1.5-.313,2.253,2.253,0,0,0,1.029-.494c.191-.19.329-.286.416-.286s.139.07.157.208.034.624.052,1.456a3.517,3.517,0,0,1,3.2-1.664q2.318,0,2.812,1.742a3.486,3.486,0,0,1,3.255-1.742,2.623,2.623,0,0,1,2.605,1.379,5.8,5.8,0,0,1,.364,2.418V17a2.511,2.511,0,0,0,.09.975,1.988,1.988,0,0,0,.806.143h.461c.187-.018.281.039.281.169"/><path class="c" d="M132.027,17.264q0,.443-.919.923a3.819,3.819,0,0,1-1.771.481,1.682,1.682,0,0,1-1.863-1.847,3.222,3.222,0,0,1-3.052,1.924,2.615,2.615,0,0,1-1.837-.662,2.2,2.2,0,0,1-.724-1.7q0-2.131,2.55-3.38a14.081,14.081,0,0,1,3.04-.832v-.65a12.137,12.137,0,0,0-.234-3.016,1.773,1.773,0,0,0-1.872-1.326,2.342,2.342,0,0,0-1.521.494,1.536,1.536,0,0,0-.611,1.248c0,.139.108.208.325.208a.754.754,0,0,1,.585.312,1.07,1.07,0,0,1,.26.7,1.011,1.011,0,0,1-1.144,1.143,1.314,1.314,0,0,1-.988-.4,1.417,1.417,0,0,1-.39-1.027,2.762,2.762,0,0,1,.962-2.106,4.267,4.267,0,0,1,2.964-.963q2.859,0,3.51,1.561a7.7,7.7,0,0,1,.234,2.366v4.861q0,1.2.026,1.405.129.936.754.936a1.54,1.54,0,0,0,1.2-.52q.259-.286.39-.286c.086,0,.13.051.13.156m-4.576-2.756v-1.9a6.555,6.555,0,0,0-2.755,1.157,2.389,2.389,0,0,0-.833,1.911,1.976,1.976,0,0,0,.474,1.365,1.524,1.524,0,0,0,1.192.532,1.991,1.991,0,0,0,1.768-1.248,5.771,5.771,0,0,0,.154-1.819"/><path class="c" d="M137.487,18.277q0,.235-.442.235c.017,0-.191-.018-.624-.052q-.78-.052-1.3-.053h-2.7a.488.488,0,0,1-.312.1c-.191,0-.286-.065-.286-.193q0-.275.52-.275a2.424,2.424,0,0,0,1.079-.144,3.1,3.1,0,0,0,.091-1.079V8.943a4.476,4.476,0,0,0-.065-.766c-.026-.078-.134-.118-.325-.118H132.1c-.191,0-.286-.06-.286-.181s.145-.167.436-.183a6.205,6.205,0,0,0,2.95-.809l.257-.153a3.4,3.4,0,0,1,.205,1.427v8.354a9.832,9.832,0,0,0,.039,1.218.312.312,0,0,0,.273.234,4.761,4.761,0,0,0,1.144.1c.243,0,.364.07.364.208m-1.95-16.2a1.035,1.035,0,0,1-1.17,1.17,1.153,1.153,0,0,1-.832-.325,1.062,1.062,0,0,1-.338-.793q0-1.222,1.17-1.223a1.035,1.035,0,0,1,1.17,1.171"/><path class="c" d="M143.6,18.252c0,.155-.113.233-.338.233h-.312q-.053,0-1.378-.051h-.806q-.209,0-2.08.039-.156.012-.312.012-.39.027-.39-.218c0-.115.1-.171.286-.171h.676c.485,0,.728-.105.728-.313q.025-.155.026-2.027V2.522a3.817,3.817,0,0,0-.052-.936q-.078-.208-.416-.208h-.936c-.243,0-.364-.074-.364-.222,0-.131.216-.2.65-.22a6.391,6.391,0,0,0,2.314-.573L141.439.1l.208-.079a8.773,8.773,0,0,1,.182,2.289V16.9a8.627,8.627,0,0,0,.026.923.246.246,0,0,0,.182.2,7.267,7.267,0,0,0,.962.051c.4,0,.6.062.6.183"/><path class="c" d="M148.588,17.225a1.345,1.345,0,0,1-.4.984,1.324,1.324,0,0,1-.975.407,1.353,1.353,0,0,1-1-.407,1.377,1.377,0,0,1-.4-1.01,1.383,1.383,0,0,1,1.4-1.391,1.324,1.324,0,0,1,.975.407,1.378,1.378,0,0,1,.4,1.01"/><path class="c" d="M160.835,9.464a1.045,1.045,0,0,1-1.17,1.2q-1.145,0-1.144-1.091a2.336,2.336,0,0,1,.26-.858.918.918,0,0,0,.078-.364,1,1,0,0,0-.533-.859,2.471,2.471,0,0,0-1.34-.337A2.713,2.713,0,0,0,154.568,8.5a7.086,7.086,0,0,0-.857,3.8,8.426,8.426,0,0,0,.883,4.251,2.762,2.762,0,0,0,2.5,1.5,3.064,3.064,0,0,0,1.95-.677,6.179,6.179,0,0,0,1.015-1.195.357.357,0,0,1,.233-.13c.174,0,.261.069.261.208q0,.338-.91,1.274a3.96,3.96,0,0,1-2.991,1.221,4.9,4.9,0,0,1-3.782-1.637,5.892,5.892,0,0,1-1.5-4.134,6.359,6.359,0,0,1,1.586-4.433,5.136,5.136,0,0,1,3.979-1.756,4.713,4.713,0,0,1,2.717.807,2.282,2.282,0,0,1,1.183,1.872"/><path class="c" d="M172.9,12.817a6.085,6.085,0,0,1-1.534,4.226,4.934,4.934,0,0,1-3.822,1.7,5.179,5.179,0,0,1-3.952-1.7A5.963,5.963,0,0,1,162,12.817,6.2,6.2,0,0,1,163.551,8.5a4.98,4.98,0,0,1,3.861-1.717,5.074,5.074,0,0,1,3.913,1.73,6.157,6.157,0,0,1,1.573,4.3m-2.366-.025a9.226,9.226,0,0,0-.884-4.446,2.294,2.294,0,0,0-2.184-1.17,2.511,2.511,0,0,0-2.275,1.495,8.709,8.709,0,0,0-.819,4.146,8.05,8.05,0,0,0,.871,4.1,2.7,2.7,0,0,0,2.431,1.47,1.943,1.943,0,0,0,1.768-.91,8.66,8.66,0,0,0,1.092-4.68"/><path class="c" d="M191.956,18.291c0,.13-.147.194-.442.194h-4.68c-.225,0-.338-.056-.338-.17s.1-.193.286-.193h.858c.26-.018.412-.078.455-.183a4.761,4.761,0,0,0,.065-1.094V10.381a4.271,4.271,0,0,0-.4-2.151,1.476,1.476,0,0,0-1.356-.638,2.258,2.258,0,0,0-2.067,1.429,20.461,20.461,0,0,0-.1,2.886v4.914a9.485,9.485,0,0,0,.026.989.411.411,0,0,0,.46.312h.742c.221,0,.332.065.332.193s-.13.17-.39.17h-4.68c-.208,0-.312-.068-.312-.207,0-.087.052-.138.156-.156s.45-.025,1.04-.025c.277-.018.425-.1.442-.26l.026-.363V10.237a4.072,4.072,0,0,0-.374-2.075,1.471,1.471,0,0,0-1.33-.57,2.227,2.227,0,0,0-1.589.6,1.981,1.981,0,0,0-.633,1.5v7.366a2.011,2.011,0,0,0,.115.921q.115.142.755.143h.205a1.633,1.633,0,0,1,.282-.026c.187,0,.281.069.281.208,0,.121-.113.181-.338.181h-.26q-.624-.026-1.95,0h-2.548c-.243,0-.364-.068-.364-.207,0-.121.113-.181.338-.181a3.71,3.71,0,0,0,1.144-.091.4.4,0,0,0,.182-.324V10.939a17.227,17.227,0,0,0-.078-2.282q-.078-.337-.754-.338H174.3c-.225,0-.338-.06-.338-.181,0-.1.039-.165.117-.182s.36-.044.847-.078a5.973,5.973,0,0,0,1.5-.313,2.253,2.253,0,0,0,1.029-.494c.191-.19.329-.286.416-.286s.139.07.157.208.034.624.052,1.456a3.517,3.517,0,0,1,3.2-1.664q2.317,0,2.812,1.742a3.486,3.486,0,0,1,3.255-1.742,2.623,2.623,0,0,1,2.6,1.379,5.8,5.8,0,0,1,.364,2.418V17a2.511,2.511,0,0,0,.09.975,1.988,1.988,0,0,0,.806.143h.461c.187-.018.281.039.281.169"/></g></g></svg>