<svg xmlns="http://www.w3.org/2000/svg" xmlns:xlink="http://www.w3.org/1999/xlink" width="673.848" height="487.136" viewBox="0 0 673.848 487.136"><defs><style>.a{fill:none;}.b{clip-path:url(#a);}.c{fill:#ee6d72;}.d{clip-path:url(#b);}.e{fill:#fff;}.f{clip-path:url(#d);}.g{clip-path:url(#f);}.h{clip-path:url(#h);}</style><clipPath id="a"><rect class="a" width="487.136" height="673.848"/></clipPath><clipPath id="b"><path class="a" d="M130.22.882A66.145,66.145,0,0,0,64.075,67.028V659.306a14.542,14.542,0,0,0,14.542,14.542H181.824a14.542,14.542,0,0,0,14.542-14.542V67.028A66.145,66.145,0,0,0,130.221.882Z"/></clipPath><clipPath id="d"><path class="a" d="M73.424,105.475V277.957c0,31.773,25.527,57.53,57.017,57.53s57.016-25.757,57.016-57.53V105.475c0-31.773-25.526-57.53-57.016-57.53S73.424,73.7,73.424,105.475"/></clipPath><clipPath id="f"><path class="a" d="M339.969,0a66.145,66.145,0,0,0-66.146,66.145V658.424a14.542,14.542,0,0,0,14.542,14.542H391.572a14.542,14.542,0,0,0,14.542-14.542V66.145A66.145,66.145,0,0,0,339.969,0Z"/></clipPath><clipPath id="h"><path class="a" d="M340.188,47.063c-31.489,0-57.016,25.757-57.016,57.53V277.075c0,31.773,25.527,57.53,57.016,57.53h0c31.489,0,57.017-25.757,57.017-57.53V104.593c0-31.773-25.528-57.53-57.017-57.53Z"/></clipPath></defs><g transform="translate(673.848) rotate(90)"><g class="b"><path class="c" d="M181.824,673.848H78.617a14.542,14.542,0,0,1-14.542-14.542V67.027A66.145,66.145,0,0,1,130.22.882h0a66.145,66.145,0,0,1,66.145,66.145V659.306a14.542,14.542,0,0,1-14.542,14.542"/></g><g class="d"><path class="e" d="M45.96,457.756H61.28V442.94H76.6v14.87H91.92v14.87h15.32V457.7H91.92v-14.87H76.6v-14.87H61.28v14.816H45.96v-14.87H30.64v14.978H45.96Z"/><path class="e" d="M107.24,457.7h15.32V443.076h15.32v14.87H153.2v14.87h15.32V457.838H153.2v-14.87H137.88V428.1H122.56v14.626H107.24v-14.87H91.92v14.978h15.32Z"/><path class="e" d="M107.24,487.659H91.92v-14.87H76.6v14.816H61.28V472.789H76.6V457.811H61.28v14.924H45.96v14.978H61.28v14.87H76.6V487.768H91.92v14.869h15.32v14.87h15.32V502.529H107.24Z"/><rect class="e" width="15.32" height="14.979" transform="translate(76.6 502.637)"/><path class="e" d="M168.521,457.838h15.32V443.022h15.32v14.87h15.32v14.87H229.8V457.784h-15.32v-14.87h-15.32v-14.87h-15.32v14.815h-15.32V427.99H153.2v14.978h15.32Z"/><path class="e" d="M168.521,487.795H153.2v-14.87h-15.32v14.626h-15.32V472.925h15.32V457.947h-15.32v14.734h-15.32v14.978h15.32v14.87h15.32V487.9H153.2v14.869h15.32v14.87h15.32V502.665h-15.32Z"/><rect class="e" width="15.32" height="14.978" transform="translate(137.881 502.774)"/><path class="e" d="M229.8,457.784h15.32V442.806H229.8v-14.87h-15.32v14.978H229.8Z"/><path class="e" d="M229.8,487.741h-15.32v-14.87h-15.32v14.816h-15.32V472.871h15.32V457.893h-15.32v14.924h-15.32v14.978h15.32v14.87h15.32V487.85h15.32v14.87H229.8v14.869h15.32V502.611H229.8Z"/><rect class="e" width="15.32" height="14.978" transform="translate(199.161 502.719)"/><path class="e" d="M245.121,487.632v-14.87H229.8v14.979h15.32V502.61h15.32V487.632Z"/></g><g class="b"><path class="e" d="M130.441,47.945h0c-31.49,0-57.017,25.757-57.017,57.529V277.957c0,31.773,25.527,57.529,57.017,57.529s57.017-25.756,57.017-57.529V105.474c0-31.772-25.528-57.529-57.017-57.529"/></g><g class="f"><path class="c" d="M97.693,26.854q-.66-.666-1.319-1.331a6.116,6.116,0,0,0-3.889-1.612A6.116,6.116,0,0,0,88.6,25.523c-.287.37-.574.742-.86,1.112a5.474,5.474,0,0,0-.751,2.776c.065.487.131.976.2,1.463A5.5,5.5,0,0,0,88.6,33.3q.659.666,1.319,1.331a6.129,6.129,0,0,0,3.889,1.61,6.129,6.129,0,0,0,3.889-1.61l.86-1.114a5.464,5.464,0,0,0,.751-2.776q-.1-.731-.2-1.461a5.48,5.48,0,0,0-1.414-2.427"/><path class="c" d="M32.283,55.775A62.336,62.336,0,0,0,63.244,99.429c5.3,3.024,11.25,5.441,15.779,9.632,10.92,10.106,5.67,26.2-1.01,37.049-7.376,11.976-16.479,22.9-24.23,34.643a246.588,246.588,0,0,0-21.419,38.921c-4.535,10.639-11.817,25.668-3.743,36.365,6.452,8.551,19.173,8.093,27.532,2.7,11.469-7.4,13.749-21.915,23.269-30.9,4.22-3.982,10.12-6.475,15.208-2.463,4.639,3.657,6.217,9.951,5.855,15.585-.489,7.606-3.979,14.847-7.007,21.71Q88.243,274.537,83,286.4c-5.662,12.82-14.033,26.77-14.264,41.125-.183,11.354,6.4,21.765,17.339,25.348a24.766,24.766,0,0,0,27.875-9.592c6.964-10.11,4.224-22.986,9.805-33.429,2.2-4.125,6.206-8.742,11.312-6.464,5.223,2.331,8.571,7.964,13.606,10.771,10.592,5.9,23.8,2.1,32.156-5.894,10.113-9.666,15.883-26.07,17.134-39.724,1.3-14.143-5.665-29.974-20.91-32.654-14.51-2.55-28.421,7.189-39.389,15.384a187.549,187.549,0,0,0-34.173,32.967l6.665-.86c-5.168-2.439,5.021-14.72,7.033-17.616a195.528,195.528,0,0,1,14.85-18.768c9.107-10.183,22.72-19.217,26.738-32.878,4.31-14.658-5.369-26.13-19.232-29.564-14.745-3.653-29.7.97-43.975,4.525-1.912.477-8.84,3.205-10.711,2.092-1.377-.818.219-3.824,1.108-5.148,3.6-5.353,10.3-8.8,15.809-11.812,11.738-6.416,24.751-12.528,31.566-24.751,6.706-12.027,3.655-25.187-3.377-36.275-7.9-12.456-18.176-22.861-23.4-36.955-5.009-13.517-6.023-28.734-.079-42.152,5.465-12.335,17.148-21.983,30.968-22.645,12.717-.608,24.794,7.715,27.925,20.265,1.805,7.232-.668,14.379-3.654,20.937-3.183,6.993-6.476,13.9-9.124,21.12-8.465,23.086-16.457,57.32,9.969,71.986,9.524,5.286,20.479,6.8,30.916,9.336,9.949,2.415,20.913,6.033,24.846,16.521,5.365,14.307-3.008,30.643-10.351,42.675-8.971,14.7-23.66-15.906-27.4-22.092-7.3-12.061-16.272-23.636-29.756-29.019-1.456-.581-3.438-.734-3.892-1.834-.138-.335-.027-.068-.072-.047,1.665-.756,4.9.6,6.455,1.211,7.727,3.035,15.081,8.266,22.072,12.683q10.447,6.6,20.469,13.835c5.76,4.136,11.257-5.4,5.552-9.5q-11.58-8.317-23.691-15.85c-7.447-4.607-15.556-10.556-24.173-12.674-6.107-1.5-13.15-.867-16.37,5.266a11.593,11.593,0,0,0,3.911,14.821c2.755,1.74,6.135,2.253,9.014,3.816a41.211,41.211,0,0,1,9.565,7.324c6.234,6.286,10.615,14.1,15.061,21.681,6.473,11.035,17.9,31.122,33.888,24.286,7.238-3.094,10.5-11.051,13.848-17.634,3.833-7.546,7.081-15.434,8.119-23.889,1.771-14.433-3.835-28.523-16.729-35.847-19.658-11.165-56.746-5.523-58.468-35.956-.968-17.1,5.887-35.329,12.98-50.569C175,50.017,180.773,35.954,172.9,20.841A38.471,38.471,0,0,0,137.458.427c-15.09.691-28.834,9.206-37.01,21.759-8.661,13.3-10.667,30.011-7.739,45.378,3.241,17.008,12.683,30.546,22.821,44.115,4.314,5.775,8.961,12.087,10.373,19.312,1.532,7.839-2.181,14.726-7.746,20-11.448,10.853-28.294,14.149-39.016,26-4,4.428-7.064,10.968-5.358,17.028,2.073,7.367,9.557,8.868,16.139,7.614,16.052-3.058,34.446-11.847,50.686-5.232,8.674,3.534,10.114,11.718,5.457,19.418-4.273,7.066-11.4,12.346-17.056,18.257a218.507,218.507,0,0,0-16.173,19.052c-4.975,6.556-10.672,13.655-13.794,21.327-2.7,6.637-1.487,15.084,5.565,18.412,2.021.954,5.076,1.123,6.665-.86a182.573,182.573,0,0,1,27.66-27.908c8.873-7.169,20.279-16.622,32.107-17.586,15.491-1.263,17.561,16.63,14.832,27.827-2.606,10.693-7.253,24.246-17.713,29.643-4.761,2.456-10.457,2.995-15.068-.023-4.492-2.94-7.651-7.519-12.469-10.079-9.532-5.064-19.322-.279-24.935,8.054-6.585,9.776-4.6,21.541-9.06,31.948-3.62,8.441-13.895,12.233-21.508,6.275-11.084-8.674-2.641-25.52,1.741-35.442,5.888-13.332,11.853-26.633,17.662-40,4.912-11.3,9.8-24.083,5.108-36.3-3.784-9.857-12.847-17.574-23.883-15.876-11.887,1.829-19.043,12.5-24.443,22.2-2.691,4.832-5.38,10.378-9.839,13.873-3.2,2.512-8.83,4.461-12.657,2.122-5-3.055-2.247-10.924-.831-15.193a156.387,156.387,0,0,1,7.546-18.409,275.022,275.022,0,0,1,20.74-35.28c13.72-20.2,40.765-47.006,26.093-73.522-6.481-11.712-19.9-14.885-29.909-22.5C51.876,77.8,45.2,65.8,42.89,52.851c-1.239-6.958-11.842-4.01-10.607,2.924"/></g><g class="b"><path class="e" d="M130.441,344.738a59.656,59.656,0,0,1-57.017-43.013c0,31.772,25.527,57.529,57.017,57.529s57.017-25.757,57.017-57.529a59.656,59.656,0,0,1-57.017,43.013"/><path class="e" d="M130.441,366.4a60.08,60.08,0,0,1-57.024-41.966,59.968,59.968,0,0,0,16.707,32.6c16.068,15.9,35.817,16.766,40.317,16.85,4.5-.084,24.251-.954,40.317-16.85a59.962,59.962,0,0,0,16.7-32.561,60.079,60.079,0,0,1-57.017,41.93"/><path class="e" d="M130.437,39.51a59.655,59.655,0,0,1,57.017,43.013c0-31.772-25.527-57.529-57.017-57.529S73.42,50.751,73.42,82.523A59.656,59.656,0,0,1,130.437,39.51"/><path class="e" d="M130.437,17.85a60.079,60.079,0,0,1,57.024,41.966,59.961,59.961,0,0,0-16.707-32.6c-16.068-15.9-35.817-16.766-40.317-16.85-4.5.084-24.251.954-40.317,16.85A59.962,59.962,0,0,0,73.42,59.78a60.079,60.079,0,0,1,57.017-41.93"/><path class="e" d="M124.079,573.2h0a1.28,1.28,0,0,0-1.1,1.459l6.21,36.919a1.32,1.32,0,0,0,1.52,1.053,1.279,1.279,0,0,0,1.1-1.459L125.6,574.257a1.32,1.32,0,0,0-1.52-1.053"/><path class="e" d="M156.985,571.726a2.533,2.533,0,0,0-2.528,3.531l2.335,4.687a2.837,2.837,0,0,0,2.484,1.494q7.4.21,11.653,2.232,4.735,2.253,4.735,7.82a8.539,8.539,0,0,1-.894,3.983,7.286,7.286,0,0,1-3.171,2.958,19.927,19.927,0,0,1-6.212,1.867,64.764,64.764,0,0,1-10.008.633q-8.139,0-12.467-2.394a8.124,8.124,0,0,1-4.335-7.68,8.663,8.663,0,0,1,.844-3.841,6.2,6.2,0,0,1,1.364-1.795,2.344,2.344,0,0,0,.394-3.061l-1.047-1.576a2.971,2.971,0,0,0-4.887.1,14.482,14.482,0,0,0-1.272,2.744,22.449,22.449,0,0,0-1.207,7.389q0,10.044,6.56,14.919t18.773,4.88a34.71,34.71,0,0,0,11.2-1.554,19.655,19.655,0,0,0,7.223-4.137,14.192,14.192,0,0,0,3.84-6.046,23.678,23.678,0,0,0,1.113-7.285q0-9.685-6.379-14.778t-18.067-5.093h-.045"/><path class="e" d="M142.533,576.287a1.212,1.212,0,0,0,0,2.22l2.737,1.273.659,2.238a1.3,1.3,0,0,0,2.475,0l.659-2.238,2.737-1.273a1.212,1.212,0,0,0,0-2.22l-2.737-1.273-.659-2.238a1.3,1.3,0,0,0-2.475,0l-.659,2.238Z"/><path class="e" d="M137.986,646.174l-.193-8.507v-7.558a14.714,14.714,0,0,1,.518-3.64,8.383,8.383,0,0,0-5.322-.475,31.359,31.359,0,0,0-.352,4.852l-.055,15.375a2.7,2.7,0,0,0,5.4-.047"/><path class="e" d="M136.927,618.146a12.065,12.065,0,0,0-1.795,1.949,10.435,10.435,0,0,0-.864,1.443,16.767,16.767,0,0,1,8.5.809c1.222-.242,2.9-.535,4.9-.767a67.548,67.548,0,0,1,8.355-.414,81.9,81.9,0,0,1,8.721.414,24.934,24.934,0,0,1,6.441,1.452,9.236,9.236,0,0,1,3.968,2.766,6.774,6.774,0,0,1,1.355,4.31V646.45c0,3.646-4.109,6.373-4.673,6.748-4.15,2.756-12.562,2.335-16.556-1.979-5.321-5.747,1.287-14.349-4.589-22.155a18.677,18.677,0,0,0-7.539-5.732,18.352,18.352,0,0,0-9.93-.995c-.4.094-.789.205-1.181.336a15.765,15.765,0,0,0-9.525,9.494.314.314,0,0,0,.57.253,14.729,14.729,0,0,1,9.186-7.1h0l.027-.006.038-.008a12.863,12.863,0,0,1,7.956.76h0a13.12,13.12,0,0,1,3.886,2.433c7.516,6.877.056,17.744,7.549,26.132a17.639,17.639,0,0,0,13.47,5.539c8.042-.355,16.266-7.058,16.459-13.622l0-.149c.121-6.281.151-10.772,0-15.55a21.39,21.39,0,0,0-1.253-7.374,11.846,11.846,0,0,0-4.225-5.325,20.958,20.958,0,0,0-7.915-3.2,60.693,60.693,0,0,0-12.4-1.06,54.114,54.114,0,0,0-11.877,1.06,16.517,16.517,0,0,0-7.059,3.2"/><path class="e" d="M162.277,633.215l-4.123,2a1.937,1.937,0,0,0,0,3.486l4.123,2,.993,3.513a1.936,1.936,0,0,0,3.727,0l.993-3.513,4.123-2a1.937,1.937,0,0,0,0-3.486l-4.123-2L167,629.7a1.936,1.936,0,0,0-3.727,0Z"/><path class="e" d="M391.572,672.966H288.365a14.542,14.542,0,0,1-14.542-14.542V66.145a66.146,66.146,0,0,1,132.291,0V658.424a14.542,14.542,0,0,1-14.542,14.542"/></g><g class="g"><rect class="c" width="15.32" height="14.978" transform="translate(226.695 460.212)"/><path class="c" d="M272.655,460.1h15.32V445.287h15.32v14.87h15.32v14.87h15.32V460.049h-15.32v-14.87h-15.32v-14.87h-15.32v14.816h-15.32v-14.87h-15.32v14.978h15.32Z"/><path class="c" d="M257.335,475.082h15.32V460.1h-15.32V445.234h-15.32v-14.87h-15.32v14.978h15.32v14.87h15.32Z"/><path class="c" d="M272.655,490.06h-15.32V475.19h-15.32v14.979h15.32v14.87h15.32v14.869h15.32V504.93h-15.32Z"/><rect class="c" width="15.32" height="14.978" transform="translate(242.015 505.039)"/><path class="c" d="M333.935,460.049h15.32V445.423h15.32v14.87h15.32v14.87h15.32V460.185h-15.32v-14.87h-15.32v-14.87h-15.32v14.626h-15.32V430.2h-15.32v14.978h15.32Z"/><path class="c" d="M333.935,490.006h-15.32v-14.87h-15.32v14.816h-15.32V475.136h15.32V460.158h-15.32v14.924h-15.32V490.06h15.32v14.87h15.32V490.115h15.32v14.869h15.32v14.87h15.32V504.876h-15.32Z"/><rect class="c" width="15.32" height="14.979" transform="translate(303.295 504.984)"/><path class="c" d="M395.215,460.185h15.32V445.369h15.32v14.87h15.32v14.87H456.5V460.131h-15.32v-14.87h-15.32v-14.87h-15.32v14.815h-15.32V430.337H379.9v14.978h15.32Z"/><path class="c" d="M395.215,490.142H379.9v-14.87h-15.32V489.9h-15.32V475.272h15.32V460.294h-15.32v14.734h-15.32v14.978h15.32v14.87h15.32V490.251H379.9V505.12h15.32v14.87h15.32V505.012h-15.32Z"/><rect class="c" width="15.32" height="14.978" transform="translate(364.575 505.121)"/><path class="c" d="M456.5,490.087h-15.32v-14.87h-15.32v14.816h-15.32V475.217h15.32V460.239h-15.32v14.924h-15.32v14.978h15.32v14.87h15.32V490.2h15.32v14.87H456.5v14.869h15.32V504.957H456.5Z"/></g><g class="b"><path class="c" d="M340.189,47.063h0c-31.49,0-57.017,25.757-57.017,57.529V277.075c0,31.773,25.527,57.529,57.017,57.529s57.017-25.756,57.017-57.529V104.592c0-31.772-25.528-57.529-57.017-57.529"/></g><g class="h"><path class="e" d="M371.659,22.062c-4.351,6.14-8.794,12.28-14.457,17.3-6.331,5.609-13.914,8.04-22.238,8.753-7.967.682-15.958.524-23.868,1.851a73.38,73.38,0,0,0-19.9,6.559,78.488,78.488,0,0,0-30.721,27.085c-3.648,5.494-8.208,12.887-8.3,19.673-.091,7.052,5.412,12.107,12.175,12.878,7.413.846,13.178-3.772,18.808-7.876A127.7,127.7,0,0,1,304.5,95.62c14.538-6.758,31.563-10.547,47.554-7.769,7.6,1.32,15.565,4.5,19.336,11.685,3.368,6.418,1.435,12.88-4.012,17.331-5.131,4.192-11.682,6.414-17.812,8.661-7.9,2.9-15.806,5.762-23.6,8.936-28.535,11.625-56.795,28.621-69.266,58.256-3.7,8.793-11.251,31.157,1.133,36.668,6.166,2.744,12.92-2.027,17.594-5.727,4.864-3.85,8.847-8.59,12.716-13.4,4.022-5.007,7.939-10.195,12.746-14.492a27.619,27.619,0,0,1,7.54-5.114c3.864-1.588,3.81.942,3.38,4.315-.963,7.549-4.923,15.47-7.907,22.4-3.48,8.076-7.306,16-11.03,23.96-7.273,15.556-14.294,31.458-17.69,48.379-3.152,15.7-4.047,34.032,3.248,48.782,5.881,11.892,21.746,20.54,33.764,11.52,11.436-8.583,6.8-22.617,11.289-34.207,3.417-8.818,9.771,7.795,11.333,10.5a22.033,22.033,0,0,0,16.088,10.919c15.77,2.393,27.92-9.091,38.438-19.131,10.911-10.415,21.2-23.922,18.094-39.966-2.59-13.358-15.034-20.613-27.872-21.022-14.519-.462-26.464,7.447-37.392,16.108-5.872,4.654-11.914,10.882-18.966,13.7-2.734,1.092-5.913,1.965-6.726-1.586-.734-3.211-.076-7.218.306-10.452a71.347,71.347,0,0,1,17.946-39.076,68.638,68.638,0,0,1,16.4-13.265c6.988-4.05,14.432-7.33,20.455-12.845,9.624-8.813,13.984-25.34,3.066-35-4.655-4.12-10.944-5.562-17.015-5.7-6.459-.146-12.486,2.082-18.814,2.415-.411.021-2.447-.014-2.429.016-.25-.409,1.67-3.261,1.924-3.6a15.891,15.891,0,0,1,6.428-4.793c5.576-2.387,12.249-2.54,18.152-1.553,8.275,1.382,16.068,5.061,24.583,5.132,7.572.062,14.3-2.889,20.108-7.584,24.167-19.524,25.037-57.429,3.163-78.916-4.446-4.368-12.2-7.714-15.034-13.438-2.777-5.61,5.5-12.437,9.624-15.1,12-7.763,26.636-5.836,35.125,5.966,7.926,11.019,10.35,25.643,10.654,38.927a100.92,100.92,0,0,1-6.986,39.685C439.216,148.483,431.212,160,420.58,168.1c-12.239,9.324-27.39,13.291-37.615,25.4-8.881,10.52-16.53,26.658-11.479,40.531,5.128,14.086,20.688,16.675,33.833,14.528a69.255,69.255,0,0,0,38.294-20.417c4.921-5.092-2.847-12.88-7.778-7.778-10.044,10.394-24.42,18.061-39.164,17.994-6.588-.029-13.469-2.276-15.247-9.338-1.8-7.149,1.329-15.164,4.859-21.28a46.137,46.137,0,0,1,15.133-15.872c6.666-4.251,14.07-7.191,20.713-11.485a82.084,82.084,0,0,0,26.3-28.042c13.3-23.075,17.011-51.992,11.023-77.859-2.959-12.778-9.041-25.737-20.213-33.266-11.1-7.48-25.534-6.834-37.024-.592-10.459,5.682-23.11,19-15.984,31.583,3.238,5.716,9.015,9.045,13.932,13.1a43.133,43.133,0,0,1,12.614,17.276,42.691,42.691,0,0,1-6.811,42.632c-4.926,5.906-11.352,10.771-19.383,10.331-8-.439-15.5-4.043-23.427-5.1-11.683-1.555-25.4.536-33.163,10.273-3.927,4.924-6.661,12.29-2.082,17.688,4.161,4.906,11.09,4.245,16.743,3.1,5.762-1.163,11.97-2.421,17.8-.974,6.565,1.629,9.153,7.363,6.794,13.652-2.721,7.251-9.77,11.251-16.213,14.764-6.507,3.548-12.794,7.087-18.525,11.831a82.407,82.407,0,0,0-23.851,33.733,80.456,80.456,0,0,0-4.868,20.339c-.71,6.433-1.419,14.506,3.233,19.721,10.335,11.588,26.592-2.11,35.08-8.9,10.783-8.629,22.537-19.052,37.369-17.469,5.37.573,10.766,2.875,13.565,7.71,3.909,6.753,1.55,15.27-2.274,21.486-4.163,6.767-10.327,12.173-16.123,17.51-5.459,5.026-11.742,10.666-19.438,11.545-7.733.884-11.849-3.1-14.857-9.732-2.761-6.095-6.215-12.052-13.062-14.12-16.68-5.037-17.559,17.1-18.968,27.611-.728,5.429-2.44,12.1-9.017,12.428-7.5.371-12.439-6.476-14.6-12.822-5.41-15.852-2.489-33.989,2.242-49.608,4.987-16.462,12.815-31.8,20-47.361,3.5-7.574,6.871-15.224,9.766-23.051,2.354-6.362,4.974-13.077,3.934-19.979-.9-5.977-5.2-10.881-11.56-10.985-6.667-.109-13.253,4.9-17.966,9.138-9.2,8.275-15.072,19.85-24.916,27.45a31.648,31.648,0,0,1-3.73,2.475c-1,.564-2.654.735-1.7,1.709-1.607-1.638-.016-8.272.308-10.1a61.547,61.547,0,0,1,7.5-20.117c7.562-13.043,18.91-23.325,31.678-31.146,14.19-8.693,29.774-14.617,45.336-20.33,11.9-4.37,26.707-8.484,33.488-20.278,7.21-12.542.635-27.6-10.9-34.814-12.963-8.107-30.389-7.869-44.92-5.31-15.537,2.737-30.423,9.535-43.456,18.311-2.972,2-14.462,13.012-18.2,8.749-2.862-3.267,6.391-15.661,8.455-18.412A66.91,66.91,0,0,1,304.862,62.8c15-4.772,31.386-1.223,46.107-6.925,13.446-5.209,22.129-16.886,30.188-28.258,4.1-5.787-5.433-11.288-9.5-5.552"/></g><g class="b"><path class="c" d="M340.189,343.857a59.656,59.656,0,0,1-57.017-43.013c0,31.772,25.527,57.529,57.017,57.529s57.017-25.757,57.017-57.529a59.656,59.656,0,0,1-57.017,43.013"/><path class="c" d="M340.189,365.517a60.08,60.08,0,0,1-57.024-41.966,59.968,59.968,0,0,0,16.707,32.6c16.068,15.9,35.817,16.766,40.317,16.85,4.5-.084,24.251-.954,40.317-16.85a59.962,59.962,0,0,0,16.7-32.561,60.079,60.079,0,0,1-57.017,41.93"/><path class="c" d="M340.185,38.628A59.656,59.656,0,0,1,397.2,81.641c0-31.772-25.527-57.529-57.017-57.529s-57.017,25.757-57.017,57.529a59.656,59.656,0,0,1,57.017-43.013"/><path class="c" d="M340.185,16.968a60.079,60.079,0,0,1,57.024,41.966,59.968,59.968,0,0,0-16.707-32.6c-16.068-15.9-35.817-16.766-40.317-16.85-4.5.084-24.251.954-40.317,16.85a59.962,59.962,0,0,0-16.7,32.561,60.079,60.079,0,0,1,57.017-41.93"/><path class="c" d="M333.827,572.322h0a1.28,1.28,0,0,0-1.1,1.459l6.21,36.919a1.32,1.32,0,0,0,1.52,1.053,1.279,1.279,0,0,0,1.1-1.459l-6.209-36.919a1.32,1.32,0,0,0-1.52-1.053"/><path class="c" d="M366.733,570.844a2.534,2.534,0,0,0-2.529,3.531l2.336,4.687a2.837,2.837,0,0,0,2.483,1.494q7.405.21,11.654,2.232,4.736,2.253,4.734,7.82a8.539,8.539,0,0,1-.893,3.983,7.283,7.283,0,0,1-3.172,2.958,19.922,19.922,0,0,1-6.211,1.867,64.772,64.772,0,0,1-10.008.633q-8.139,0-12.467-2.394a8.124,8.124,0,0,1-4.335-7.68,8.664,8.664,0,0,1,.844-3.841,6.2,6.2,0,0,1,1.364-1.795,2.344,2.344,0,0,0,.394-3.061L349.88,579.7a2.971,2.971,0,0,0-4.887.1,14.481,14.481,0,0,0-1.272,2.744,22.441,22.441,0,0,0-1.207,7.389q0,10.044,6.56,14.919t18.773,4.88a34.71,34.71,0,0,0,11.2-1.554,19.656,19.656,0,0,0,7.223-4.137,14.2,14.2,0,0,0,3.84-6.046,23.678,23.678,0,0,0,1.113-7.285q0-9.686-6.379-14.778t-18.067-5.093h-.045"/><path class="c" d="M352.281,575.405a1.212,1.212,0,0,0,0,2.22l2.737,1.273.659,2.238a1.3,1.3,0,0,0,2.475,0l.659-2.238,2.737-1.273a1.212,1.212,0,0,0,0-2.22l-2.737-1.273-.659-2.238a1.3,1.3,0,0,0-2.475,0l-.659,2.238Z"/><path class="c" d="M347.733,645.292l-.193-8.507v-7.558a14.781,14.781,0,0,1,.519-3.64,8.387,8.387,0,0,0-5.323-.475,31.359,31.359,0,0,0-.352,4.852l-.055,15.375a2.7,2.7,0,0,0,5.4-.047"/><path class="c" d="M346.675,617.264a12.064,12.064,0,0,0-1.795,1.949,10.436,10.436,0,0,0-.864,1.443,16.766,16.766,0,0,1,8.5.809c1.222-.242,2.9-.535,4.9-.767a67.549,67.549,0,0,1,8.355-.414,81.9,81.9,0,0,1,8.721.414,24.936,24.936,0,0,1,6.441,1.452,9.235,9.235,0,0,1,3.968,2.766,6.773,6.773,0,0,1,1.355,4.31v16.342c0,3.646-4.109,6.373-4.673,6.748-4.15,2.756-12.562,2.335-16.556-1.979-5.321-5.747,1.287-14.349-4.589-22.155a18.676,18.676,0,0,0-7.539-5.732,18.352,18.352,0,0,0-9.93-.995c-.395.094-.789.2-1.181.336a15.765,15.765,0,0,0-9.525,9.494.314.314,0,0,0,.57.253,14.729,14.729,0,0,1,9.186-7.1h0l.027-.006.038-.008a12.863,12.863,0,0,1,7.956.76h0a13.121,13.121,0,0,1,3.886,2.433c7.516,6.877.056,17.744,7.549,26.132a17.641,17.641,0,0,0,13.47,5.539c8.042-.355,16.266-7.058,16.459-13.622l0-.149c.121-6.281.151-10.772,0-15.55a21.39,21.39,0,0,0-1.253-7.374,11.846,11.846,0,0,0-4.225-5.325,20.957,20.957,0,0,0-7.915-3.2,60.693,60.693,0,0,0-12.4-1.06,54.113,54.113,0,0,0-11.877,1.06,16.517,16.517,0,0,0-7.059,3.2"/><path class="c" d="M372.025,632.333l-4.123,2a1.937,1.937,0,0,0,0,3.486l4.123,2,.993,3.513a1.936,1.936,0,0,0,3.727,0l.993-3.513,4.123-2a1.937,1.937,0,0,0,0-3.486l-4.123-2-.993-3.514a1.936,1.936,0,0,0-3.727,0Z"/></g></g></svg>