<svg xmlns="http://www.w3.org/2000/svg" xmlns:xlink="http://www.w3.org/1999/xlink" width="1087" height="702.415" viewBox="0 0 1087 702.415"><defs><style>.a{fill:none;}.b{clip-path:url(#a);}.c{fill:#1a1818;}</style><clipPath id="a"><rect class="a" width="1087" height="702.415"/></clipPath></defs><g class="b"><path class="c" d="M0,237.44c0-31.4,36.769-80.681,72.572-106.737a53.394,53.394,0,0,1-10.123,1.332c-12.056,0-28.595-15.6-28.595-31.587C33.854,53.461,111.48,0,141.438,0c9.537,0,16.349,7.421,11.485,8.753C99.409,22.819,45.53,83.514,45.53,111.1c0,7.235,6.607,12.75,13.8,12.75,21.989,0,44.374-14.267,53.119-14.267,3.9,0,7,2.277,7,4.942,0,.945-22.179,8.938-38.322,24.353-31.526,30.255-68.295,75.723-68.295,107.5,0,18.078,10.313,23.392,18.678,23.392,37.561,0,84.057-47.172,133.088-89.217,2.725-2.478,9.521.186,4.658,4.756C117.12,234.574,66.536,279.1,41.046,279.1,29.767,279.1,0,276.819,0,237.44" transform="translate(0 0)"/><path class="c" d="M177.146,289.229c0-13.694,27.423-37.288,44.943-53.833-8.571-25.313-9.156-55.181-10.123-57.66-.776-2.277-5.45-3.423-4.673-5.329.776-2.091,21.4-1.131,21.8,5.329a417.936,417.936,0,0,0,5.054,45.483c17.125-17.893,41.252-43.764,42.029-47.388.19-.945-.776-2.091,0-3.982,1.552-4,5.449-11.99,7.588-11.99,2.915,0,4.467,3.238,4.467,6.088,0,9.884-35.407,44.9-52.722,63.733,3.9,19.209,10.123,36.142,20.23,36.142,25.68,0,63.432-66.2,64.6-67.916,1.157-1.7,10.884-2.478,7.193,2.851-17.9,25.685-43.391,69.635-69.261,69.635-16.729,0-27.043-12.75-33.854-28.923-16.349,16.746-37.942,36.731-37.942,46.615,0,6.476.586,9.9-3.311,9.9s-6.02-5.7-6.02-8.753" transform="translate(-37.372 -29.156)"/><path class="c" d="M336.522,265.07c0-47.188,52.723-205.853,83.852-246.008,3.106-4,6.813-6.274,9.141-6.274,7.4,0,17.315,5.716,16.349,8.365-.982,2.867-6.622,0-12.262,4.2C403.644,47.8,351.7,212.182,351.7,243.2c24.7-43.764,53.1-80.866,65.76-80.866,10.108,0,15.366,9.512,14.97,17.118-.585,11.99-9.14,27.4-9.14,38.822q0,6.274,4.673,6.274c13.228,0,43.772-35.383,64.794-60.7,1.347-1.7,4.864,1.146,1.933,4.756-21.007,25.313-52.913,62.028-64,62.028-11.3,0-18.092-8.366-18.092-15.988,0-7.606,6.8-33.09,6.8-39.565,0-3.037-.57-5.329-2.519-5.329-11.089,0-50.393,54.035-68.295,100.262-1.172,2.866-12.056-1.518-12.056-4.942" transform="translate(-70.994 -2.333)"/><path class="c" d="M506.259,245.725c0-18.063,10.314-50.8,14.385-58.59a4.364,4.364,0,0,0,.4-3.051c-.189-1.146-1.362-1.518-.585-3.037,4.277-8.381,5.449-10.472,6.812-10.844a4.586,4.586,0,0,1,3.1.372c5.656,2.091,13.038,9.7,11.675,11.99-14,21.5-33.854,66.785-26.456,70.208,10.5,4.756,57.585-44.151,78.8-71.726,4.673-6.088,5.83.372,3.691,2.665-2.138,2.277-57.4,73.059-80.731,73.059-5.639,0-11.089-2.293-11.089-11.046m33.854-104.073c.776-2.665,4.658-18.822,5.83-23.021,1.172-4.182,14,3.811,12.262,7.808-1.759,4-9.727,15.6-11.3,18.838-1.552,3.036-7.588-.961-6.8-3.625" transform="translate(-106.803 -21.422)"/><path class="c" d="M573.114,302.307c3.518-53.074,56.429-190.625,60.326-202.243,3.881-11.6,21.783-54.794,26.646-55.166,7.208-.573,17.125,8.366,15.953,12.549-.38,1.146-3.881-.372-6.606,1.534-5.846,4-10.313,11.03-15.953,23.206-4.087,8.753-48.255,114.158-71.21,214.032,4.864-8.737,57.982-145.156,94.545-145.156,7.984,0,15.383,5.9,15.383,14.841,0,10.271-2.345,21.688-6.226,33.106,17.7-11.046,35.011-19.985,47.653-24.354,1.758-.573,6.622,4.183,2.344,5.516-13.038,4.369-33.458,15.6-53.894,29.109-15.953,38.434-45.91,75.15-56.81,75.15-3.707,0-16.349-3.052-16.349-11.99,0-15.027,28.61-40.9,60.311-62.586,8.38-19.024,14.211-37.676,14.211-49.279,0-2.091-.776-3.238-4.483-3.238-18.678,0-46.29,47.188-63.036,81.811C599.19,273.772,587.911,310.5,584.2,310.5c-3.691,0-11.469-.96-11.09-8.195m48.841-25.483c10.5-1.719,28.024-27.017,41.633-54.608-25.49,18.651-46.5,38.807-46.5,50.611a3.935,3.935,0,0,0,4.864,4" transform="translate(-120.904 -8.184)"/><path class="c" d="M758.656,245.725c0-18.063,10.314-50.8,14.385-58.59a4.363,4.363,0,0,0,.4-3.051c-.189-1.146-1.362-1.518-.585-3.037,4.277-8.381,5.449-10.472,6.812-10.844a4.638,4.638,0,0,1,3.121.372c5.64,2.091,13.022,9.7,11.66,11.99-14,21.5-33.855,66.785-26.456,70.208,10.5,4.756,57.585-44.151,78.8-71.726,4.673-6.088,5.83.372,3.691,2.665-2.138,2.277-57.4,73.059-80.731,73.059-5.655,0-11.089-2.293-11.089-11.046M792.51,141.652c.776-2.665,4.658-18.822,5.83-23.021,1.172-4.182,14,3.811,12.262,7.808-1.759,4-9.727,15.6-11.3,18.838-1.552,3.036-7.588-.961-6.8-3.625" transform="translate(-160.05 -21.422)"/><path class="c" d="M806.4,309.814c1.363-52.9,26.076-136.992,47.463-198.634-39.288,4.384-91.044,11.789-124.9,21.5-3.121.945-8.365-9.713-2.534-11.045,21.4-4.555,81.919-11.4,129.191-15.6,11.09-31.2,21.006-56.126,26.266-67.157,1.363-2.85,6.813-2.091,13.624-.759,6.606,1.332,13.228,4,12.452,6.661-.4,1.518-4.293.759-8.174,3.61-9.141,6.661-20.23,28.164-31.32,56.7,18.678-1.518,34.044-2.479,42.409-2.479,28.009,0,30.94,8.753,30.94,11.232,0,3.61-2.344,6.274-5.07,6.476-1.362,0-3.1-2.866-.966-4.2,3.311-2.278,2.328-8.939-30.353-9.125-5.45,0-19.851.944-38.718,2.85-23.146,61.068-45.34,151.446-47.273,201.3-.982,27.389,14.195,30.813,7.778,32.719-5.26,1.719-21.4-7.606-20.816-34.05" transform="translate(-152.697 -6.736)"/><path class="c" d="M914.821,245.725c0-18.063,10.313-50.8,14.384-58.59a4.359,4.359,0,0,0,.4-3.051c-.189-1.146-1.362-1.518-.585-3.037,4.277-8.381,5.449-10.472,6.812-10.844a4.638,4.638,0,0,1,3.121.372c5.64,2.091,13.022,9.7,11.66,11.99-14,21.5-33.854,66.785-26.456,70.208,10.5,4.756,57.585-44.151,78.8-71.726,4.674-6.088,5.83.372,3.691,2.665-2.138,2.277-57.4,73.059-80.731,73.059-5.655,0-11.089-2.293-11.089-11.046m33.854-104.073c.776-2.665,4.658-18.822,5.83-23.021,1.172-4.182,14,3.811,12.262,7.808-1.759,4-9.727,15.6-11.3,18.838-1.552,3.036-7.588-.961-6.8-3.625" transform="translate(-192.995 -21.422)"/><path class="c" d="M1000.2,247.053a81.9,81.9,0,0,1,4.483-22.82,25.126,25.126,0,0,1-9.933-19.984c0-25.871,26.266-42.989,46.892-42.989,11.485,0,21.022,7.977,21.022,19.581,0,13.71-6.226,32.548-14.4,48.907,18.867-2.479,43.185-14.841,57.585-38.435,1.172-1.905,6.622.573,4.864,2.851-9.141,12.563-34.441,37.1-64.794,39.953-9.521,16.932-21.006,30.255-29.561,30.255-8.57,0-16.349-9.7-16.159-17.32m22.179-19.4a67.689,67.689,0,0,0,19.264,2.463h1.172c8.174-15.6,14.59-35,14.59-51.742,0-7.807-4.863-12.749-11.485-12.749-22.955,0-40.46,32.719-40.46,43a18.214,18.214,0,0,0,1.948,8.365c7.192-16.746,17.506-30.255,21.973-30.255,7.018,0,10.313,5.717,8.57,8.753-4.864,8.939-10.9,20.929-15.572,32.161m-1.743,4.369c-6.036,15.027-9.347,27.59-4.277,27.59,6.226,0,15.953-10.472,24.317-25.3h-.4a74.176,74.176,0,0,1-19.644-2.293" transform="translate(-209.858 -29.411)"/><path class="c" d="M1101.319,267.577c.982-14.469,10.519-44.709,21.609-72.687a3.255,3.255,0,0,0,0-2.665l-.206-.372a3.6,3.6,0,0,1-.19-2.85c2.534-5.329,7.984-15.616,10.313-16.374,2.534-.76,10.313,3.625,9.917,8.381-.38,4.756-21.006,41.859-27.232,77.242-1.759,9.511,49.031-80.866,78.4-80.866,5.26,0,9.157,3.811,9.157,11.8,0,13.307-22.765,67.342-17.125,70.393,8.951,4.942,65.364-59.364,69.071-63.175,3.691-3.8,5.64-.372,3.5,2.479s-53.514,66.97-70.829,66.97c-9.331,0-13.814-7.994-13.814-11.417,0-25.685,23.161-68.675,18.488-72.1-9.331-6.848-48.635,41.657-80.351,93.987-1.949,1.518-11.09-1.534-10.71-8.753" transform="translate(-232.338 -31.469)"/><path class="c" d="M432.937,633.83c0-29.481,34.25-56.312,71.21-73.818,9.727-48.5,28.215-111.106,55.843-152.577,2.915-4.385,19.835,5.515,19.835,8.551,0,3.238-7.969,1.534-13.609,7.808C545,447.388,525.359,523.3,519.134,553.552a15.724,15.724,0,0,0,1.552-.76c37.166-65.08,98.252-145.745,145.145-145.745,10.5,0,28.786,3.423,28.786,41.859,0,55.181-101.547,232.11-200.005,232.11-40.667,0-61.673-19.782-61.673-47.187m51.36,37.3c107.789,0,202.73-185.311,202.73-235.55,0-8.939-2.328-19.6-15.557-19.6-50.2,0-103.116,77.055-133.469,130.719,15.763-4.957,30.163-7.622,40.667-7.622,41.443,0,43.185,28.923,37.355,20.356-3.9-5.7-14.8-12.935-26.852-12.935-16.349,0-37.355,4.957-58.172,12.935-7.984,15.042-13.814,27.017-16.539,33.493-3.311,7.606-2.915,11.232-2.139,17.32.776,5.887-16.729,18.45-16.539,10.643.19-10.457,2.139-27.389,5.83-47.947-32.682,17.893-59.534,42.06-59.534,65.266,0,19.6,11.3,32.92,42.219,32.92" transform="translate(-91.335 -74.109)"/><path class="c" d="M731.452,632.749c0-28.334,25.68-65.437,46.892-65.437,9.331,0,14.384,4.555,14.384,11.417,0,8.939-10.5,22.448-21.2,22.448-6.431,0-9.536-3.811-12.658-7.622-8.951,12.951-16.143,30.441-16.143,47,0,8.753,4.087,14.454,12.262,14.454,21.2-.372,77.436-62.586,82.3-68.3,3.311-4,6.036,2.091,2.725,5.329-11.675,11.99-63.035,67.156-82.885,67.156-14.781,0-25.68-8.738-25.68-26.444m28.785-41.286a10.033,10.033,0,0,0,7.4,4.2c5.054,0,18.868-9.327,18.868-20.372a2.155,2.155,0,0,0-2.329-2.464c-6.622,0-15.763,7.421-23.937,18.637" transform="translate(-154.311 -103.469)"/><path class="c" d="M783.292,717.962c0-16.561,33.665-47,70.814-73.631-1.949-.372-4.087-.945-6.226-1.518-9.917-3.052-23.335-11.417-23.335-21.89,0-19.581,21.593-37.087,31.905-44.894,2.519-1.7,3.5-3.037,3.691-4.942.19-1.518,1.553-2.851,4.468-4.183,8.761-3.811,19.264-9.14,23.748-9.14,5.244,0,9.141,9.14,4.277,10.844-18.092,6.274-60.311,39.008-60.311,55.181,0,6.662,12.832,8.18,23.731,11.418a67.176,67.176,0,0,1,7.589,2.664c28.991-19.984,58.568-36.731,75.3-42.245,1.363-.372,3.1,3.238,1.949,3.61-16.35,5.329-43.978,21.688-71.21,41.1,10.694,5.515,14,12.177,14,22.076,0,23.966-55.257,73.059-82.3,73.059-13.418,0-18.092-10.271-18.092-17.506m14.987,11.232c30.147-3.439,75.867-56.514,75.867-76.5,0-3.981-5.054-5.314-12.246-6.646-37.561,27.962-72.382,60.495-72.382,76.28,0,3.625,2.725,7.622,8.761,6.863" transform="translate(-165.247 -101.727)"/><path class="c" d="M962.125,635.956c0-18.063,10.313-50.8,14.385-58.59a4.362,4.362,0,0,0,.4-3.051c-.189-1.146-1.362-1.518-.585-3.037,4.277-8.381,5.449-10.472,6.812-10.844a4.638,4.638,0,0,1,3.121.372c5.64,2.091,13.022,9.7,11.66,11.99-14,21.5-33.855,66.784-26.456,70.208,10.5,4.756,57.585-44.151,78.8-71.726,4.673-6.088,5.83.372,3.691,2.665C1051.807,576.22,996.55,647,973.214,647c-5.655,0-11.089-2.293-11.089-11.046m33.854-104.073c.776-2.665,4.658-18.822,5.83-23.021,1.172-4.183,14,3.811,12.261,7.808-1.759,4-9.727,15.6-11.3,18.838-1.552,3.036-7.588-.961-6.8-3.625" transform="translate(-202.975 -92.594)"/><path class="c" d="M948.612,774.372c0-21.874,58.362-83.9,132.3-142.306,15.177-37.489,23.938-65.638,21.006-61.843-7.969,10.658-50.964,75.538-71,75.538-5.45,0-13.228-2.851-13.228-15.027,0-16.36,34.425-63.733,49.221-63.733,7.192,0,13.417,7.034,15.763,11.418.38.759.57,3.423-3.9,1.332-3.121-1.534-7.588-2.478-11.28.186-16.159,11.216-39.7,40.712-39.7,54.609,0,1.332,0,4.183,2.724,4.183,20.626,0,75.3-78.574,77.246-85.994,3.5-12.935,11.279-1.333,9.727,4-2.139,7.421-9.141,31.773-19.851,62.4,20.437-15.414,41.633-30.255,62.846-43.764,2.534-1.518,6.812,4,4.277,5.515-20.421,11.99-45.325,29.109-70.624,48.52-26.266,72.873-70.623,172.747-119.465,172.747-19.454,0-26.06-15.972-26.06-27.777m22.559,21.89c34.25,0,77.832-86.954,105.27-152.98-61.292,49.093-119.861,108.07-119.861,135.846,0,11.232,5.45,17.134,14.591,17.134" transform="translate(-200.124 -99.734)"/><path class="c" d="M1177.254,657.808c.982-14.469,10.519-44.709,21.609-72.687a3.254,3.254,0,0,0,0-2.665l-.206-.372a3.6,3.6,0,0,1-.19-2.85c2.534-5.329,7.984-15.616,10.313-16.374,2.534-.76,10.313,3.625,9.917,8.381-.38,4.756-21.006,41.859-27.232,77.242-1.759,9.511,49.031-80.866,78.4-80.866,5.26,0,9.157,3.811,9.157,11.8,0,13.307-22.764,67.342-17.125,70.393,8.951,4.942,65.364-59.364,69.071-63.175,3.692-3.8,5.64-.372,3.5,2.479s-53.514,66.97-70.829,66.97c-9.331,0-13.814-7.994-13.814-11.417,0-25.685,23.161-68.675,18.488-72.1-9.33-6.848-48.635,41.657-80.351,93.987-1.949,1.518-11.09-1.534-10.71-8.753" transform="translate(-248.357 -102.641)"/></g></svg>