<svg xmlns="http://www.w3.org/2000/svg" xmlns:xlink="http://www.w3.org/1999/xlink" width="374.063" height="595.674" viewBox="0 0 374.063 595.674"><defs><style>.a{fill:none;}.b{clip-path:url(#a);}.c{fill:url(#b);}.d{clip-path:url(#c);}.e{fill:#fff;}</style><clipPath id="a"><rect class="a" width="374.062" height="595.674"/></clipPath><linearGradient id="b" x1="-0.248" y1="1.24" x2="-0.245" y2="1.24" gradientUnits="objectBoundingBox"><stop offset="0" stop-color="#ffb04d"/><stop offset="1" stop-color="#d05c98"/></linearGradient><clipPath id="c"><rect class="a" width="374.063" height="595.674"/></clipPath></defs><g transform="translate(0 0)"><g transform="translate(0 0)"><g class="b"><rect class="c" width="374.062" height="595.674" transform="translate(0)"/></g></g><g transform="translate(0 0)"><g class="d"><path class="e" d="M87.821,39.64c8.237-.435,15.073,8.091,19.283,19.475a84.467,84.467,0,0,1,4.519,19.262c1.039,8.739.7,18.08.143,26.929-1.17,18.542-4.246,37.2-3.293,55.963.733,14.45,3.626,28.762,9.257,39.941,2.71,5.381,6.155,9.76,10.02,12.532,5.146,3.688,10.6,3.95,16.122,3.865,4.9-.074,9.578.386,14.259,3a38.332,38.332,0,0,1,10.985,9.96c14.178,18.031,21,46.568,28.842,72.272,8.031,26.314,18.7,53.474,36.239,63.322,10.529,5.911,21.689,3.7,32.514,2.118,9.83-1.431,20.1-2.232,29.215,5.123,14.678,11.849,22.424,38.017,29.043,61.681,1.82,6.507,3.587,13.054,5.418,19.553,1.781,6.318,3.472,13.058,5.831,18.839,1.433,3.508,3.207,6.672,5.552,8.44,2.717,2.048,5.581,2.048,8.475,1.31,2.765-.705,5.46-2.038,8.215-2.844a45.365,45.365,0,0,1,8.2-1.547c22.862-2.31,45.5,8.949,68.352,3.482,21.172-5.066,39.406-25.415,55.718-47.426,3.974-5.365,7.873-10.882,11.761-16.42,1.267-1.8,1.107-5.437,0-7.293-1.255-2.1-3.079-1.809-4.349,0-15.513,22.1-31.794,45.028-51.425,55.908-10.451,5.792-21.234,7.147-32.178,6.278-11.384-.9-22.675-3.75-34.054-4.773a68.19,68.19,0,0,0-16.841.322,52.58,52.58,0,0,0-8.721,2.127c-2.5.852-5.017,2.275-7.587,2.386-4.782.2-6.643-7.093-8.52-13.279-1.888-6.217-3.645-12.542-5.39-18.872-6.779-24.6-13.614-51.605-26.742-68.7-7.45-9.7-16.268-14.675-25.667-15.467-11.037-.928-21.967,3.207-33,2.6-9.124-.5-17.683-5.54-24.7-15.44-6.648-9.385-11.672-21.424-15.975-33.974-4.406-12.848-7.9-26.45-12.021-39.541-4.2-13.332-9.1-26.26-15.259-37.307-5.991-10.744-13.4-19.582-21.913-23.612-5.063-2.4-10.224-2.584-15.446-2.518-4.835.062-9.675-.262-14.015-4.2-6.946-6.295-11.045-18.571-12.953-31.056-2.513-16.439-.7-33.461.817-49.963,1.621-17.7,3.283-36.482-.182-53.878-2.747-13.8-8.173-26.995-15.975-33.929-3.876-3.442-8.189-5.2-12.578-4.963-3.948.208-3.966,10.523,0,10.313" transform="translate(-73.352 -59.538)"/><path class="e" d="M150.46,79.912c2.251,17.2,4.617,34.509,9.283,50.4,4.331,14.758,10.877,27.661,19.419,35.961,4.017,3.9,8.476,6.8,13.073,8.007,5.132,1.351,10.033.437,15.108-1.155,4.421-1.386,9.517-3.618,13.9-.788,3.978,2.572,5.936,9.455,7.354,15.731a487.167,487.167,0,0,1,8.952,54.326q1.511,13.833,2.25,27.847c.406,7.747.107,17.416,4.305,22.529,4.8,5.849,10.908-.219,15.758-2.786a66.83,66.83,0,0,1,16.541-6.25,57.523,57.523,0,0,1,16.31-1.347c4.137.266,8.477,1.547,10.637,8.091,1.865,5.651,2.087,12.78,2.844,19.064.866,7.188,2.451,13.862,5.483,19.272,6.012,10.736,15.78,14.712,24.288,13.165,10.985-2,21.047-10.851,30.675-19.4a59.2,59.2,0,0,0,12.79-15.1,67.908,67.908,0,0,0,7.13-19.976c2.983-14.69,2.349-30.8.8-45.848-1.578-15.335-3.922-31.062-7.942-45.141-3.959-13.86-10.327-25.266-18.751-31.572-8.159-6.105-17.038-8-25.85-9.451-8.674-1.429-17.473-2.291-25.874-6.46-8.711-4.321-15.994-13.124-21.365-25.415-11.549-26.419-15.29-61.429-10.589-93.1a164.111,164.111,0,0,1,4.968-22.69c1.761-5.922-3.541-11.152-5.311-5.206-8.908,29.95-10.269,65.618-3.453,97.146,3.33,15.389,8.411,30.276,15.557,41.585,6.749,10.684,15.108,16.857,24.129,19.924,8.713,2.962,17.624,3.6,26.435,5.332,7.9,1.553,16.068,4.156,22.89,11.391,7.512,7.968,11.833,21.236,14.572,35.032a288.5,288.5,0,0,1,5.579,44.1c.557,13.889-.421,28.8-5.728,40.092a47.51,47.51,0,0,1-11.46,14.968,183.155,183.155,0,0,1-14.127,11.858c-8.517,6.408-18.049,10.711-27.2,5.581a21.089,21.089,0,0,1-8.756-9.939c-2.374-5.307-2.908-12.146-3.573-18.5-.723-6.893-1.632-13.827-4.289-19.427-3.176-6.685-8.1-8.945-12.986-9.552-10.966-1.357-22.438,1.337-32.989,6.311a76.87,76.87,0,0,0-7.9,4.333c-1.5.941-4.357,3.457-5.807,1.38-1.092-1.565-1.182-5.121-1.287-7.4-.213-4.61-.431-9.213-.734-13.811a525.759,525.759,0,0,0-6.571-55.419c-1.5-8.595-3.128-17.224-5.183-25.5-1.824-7.345-4.418-14.6-8.829-18.256-9.353-7.751-19.365,1.819-29.071.806-8.843-.922-16.994-9.207-22.932-19.86-6.652-11.928-10.389-27.477-13-42.982-1.37-8.137-2.46-16.4-3.541-24.654-.848-6.481-6.776-3.737-5.93,2.741" transform="translate(-58.281 -90.678)"/><path class="e" d="M386.319,119.44c-2.726,16.073-.625,32.57,1.49,48.464,1.667,12.522,3.355,25.629,1.857,38.465a51.125,51.125,0,0,1-4,15.624,27.107,27.107,0,0,1-7.736,9.826c-6.1,4.874-13,6.47-19.478,9.337-6.552,2.9-13.39,7.126-17.973,15.913-4.7,9.009-6.1,20.857-4.814,32.461,1.278,11.54,5.328,22.484,10.779,29.792a37.049,37.049,0,0,0,23.368,14.76c21.1,4.057,41.28-10.467,62.224-11.068,3.953-.111,3.966-10.424,0-10.313-18.454.528-36.138,11.87-54.6,11.785-13.935-.064-30.338-7.757-35.056-32.52-1.769-9.286-1.545-19.939,2.453-27.6,4.092-7.846,10.2-11.095,16.064-13.613,6.67-2.861,13.492-4.864,19.783-9.744,6.584-5.1,11.521-13.98,13.905-25.5,2.764-13.349,1.934-28.189.276-41.765-2.055-16.824-5.508-34.428-2.6-51.562,1.085-6.394-4.847-9.125-5.93-2.741" transform="translate(-15.769 32.372)"/><path class="e" d="M70.835,144.374c17.279,41.618,40.641,75.8,67.358,99.5,12.78,11.336,26.416,19.163,39.623,28.88,12.084,8.89,24.614,20,32.285,38.691,8.692,21.174,9.636,47.6,9.549,72.5-.108,30.185-.668,60.381-1.02,90.558-.17,14.63-.688,29.379-.38,44,.266,12.637,1.954,25.47,7.51,34.641,5.2,8.578,12.364,12.732,19.216,16.082,8.621,4.21,17.287,8.168,25.931,12.243q6.8,3.208,13.6,6.415c4.175,1.968,8.39,4.461,12.729,5.123,7.263,1.116,13.052-6.8,14.391-18.592,1.308-11.519-.6-22.89-2.685-33.805a331.669,331.669,0,0,0-9.814-38.725q-2.895-9.046-6.273-17.622v5.208c1.277-3.805,3.6-5.719,6.145-6.122,3.395-.536,6.781.592,9.946,2.838,7.326,5.2,12.611,16.34,19.9,21.842,4.351,3.286,8.825,4.414,13.568,3.383,4.7-1.021,9.312-3.333,14.1-2.663,7.342,1.027,13.851,8.539,19.842,15.079,6.667,7.275,13.609,14.908,21.588,17.255,10.165,2.991,20.264-1.631,29.622-8.122,9.549-6.627,18.862-14.339,28.122-22.016q13.845-11.475,27.426-23.822,26.943-24.5,52.73-52.364,3.258-3.521,6.494-7.093c2.322-2.562,1.707-10.144-1.552-9.611q-37.166,6.067-74.332,12.136t-74.334,12.13c-2.631.431-5.381,1.033-8.018.431a7.822,7.822,0,0,1-4.829-3.568,10.857,10.857,0,0,1-1.14-2.7,19.938,19.938,0,0,1-.635-3.407,31.19,31.19,0,0,1,.205-6.945c.769-5.317,2.656-10.329,5.429-13.211,4.092-4.255,9-5.5,13.738-5.668,5.273-.181,10.519.889,15.761,1.689s10.466,1.421,15.713,1.821a151.138,151.138,0,0,0,31.346-.643c20.581-2.721,41.171-10.476,59.406-27.176,2.2-2.015,4.354-4.164,6.469-6.423,3.327-3.562.245-12.493-3.1-8.906a101.41,101.41,0,0,1-59.178,31.664,145.264,145.264,0,0,1-32.347,1.353c-5.427-.338-10.847-.922-16.258-1.7-5.325-.765-10.646-1.916-16-2-9.541-.161-20.608,3.729-25.3,19.308-3.888,12.918-2.438,29.736,6.384,35.292,5.4,3.4,11.686,1.217,17.246.311q9.635-1.575,19.271-3.143,19.118-3.122,38.236-6.241,38.393-6.268,76.782-12.532,4.742-.773,9.482-1.551-.775-4.8-1.551-9.605-25.834,28.5-52.9,53.645c-18.095,16.8-36.566,32.533-55.387,46.913-9,6.877-18.779,13.514-28.858,12.318-8.042-.959-14.941-8.331-21.519-15.5-6.464-7.05-13.2-14.718-20.942-17.012-4.7-1.386-9.171-.474-13.825.974-4.56,1.417-8.886,2.277-13.311-.6-7.605-4.952-12.871-16.517-20.261-22.075-6.314-4.75-14.966-7.32-21-.021a21.269,21.269,0,0,0-3.684,6.868,8.261,8.261,0,0,0,0,5.208,297.353,297.353,0,0,1,11.545,36.041c1.54,6.122,2.9,12.386,4.09,18.72.986,5.235,2.082,10.991,2.52,16.208a56.078,56.078,0,0,1-.292,13.343c-.593,3.628-1.69,6.615-3.811,8.149-3.235,2.341-7.426-.2-10.724-1.761l-13.007-6.134-26.012-12.268c-6.686-3.156-13.87-5.891-19.593-12.841-5.617-6.821-7.48-17.631-7.818-28.775-.422-13.957.135-28.1.3-42.064.346-29.668.775-59.34,1.028-89.016.213-25.052-.3-51.265-7.239-74.046-13-42.7-43.874-53.773-67.725-72.181-26.537-20.483-50.222-51.114-68.4-89.517-2.178-4.6-4.253-9.335-6.256-14.155-.948-2.283-2.693-3.335-4.207-1.85-1.348,1.32-2.057,4.756-1.1,7.054" transform="translate(-76.677 54.5)"/><path class="e" d="M52.461,224.333c3.68,8.723,9.729,12.421,15.941,12.674,6.98.285,13.38-4.2,19.7-8.63,6-4.208,11.947-7.7,18.519-7.551,5.569.128,11.175,2.421,16.161,6.588a46.6,46.6,0,0,1,12.488,16.909c4.081,9.151,5.529,20.128,7.256,30.963,1.8,11.262,4.245,22.284,9.381,30.507,4.786,7.66,11.178,11.651,17.75,9.139,6.5-2.483,11.386-11,17.764-13.8,2.267-1,4.94-1.491,7.085.285,2.649,2.192,3,7.481,3.091,11.936.507,24.85-3.213,49.452-8.5,72.488-2.7,11.754-5.87,23.185-9.25,34.428s-7.108,22.2-10.421,33.5c-6.141,20.964-10.49,44.19-6.255,67.365a104.11,104.11,0,0,0,19.861,44.72c9.7,12.691,20.721,22.047,32.061,29.882,2.721,1.879,5.466,3.655,8.228,5.354v-9.946c-16.278,7.745-34.144,4.639-49.476-7.137-15.371-11.8-28.215-31.877-34.5-58.5-3.871-16.4-5.886-33.793-9.168-50.514-3.178-16.2-7.7-31.388-14.8-43.776-13.214-23.061-32.708-35.237-51.612-35.356-20.825-.134-41.07,13.572-57.176,35.294-1.942,2.619-3.817,5.373-5.633,8.234-2.891,4.552,1.465,11.835,4.349,7.291,14.437-22.738,33.492-38.174,53.395-40.255,18.328-1.918,37.553,7.994,50.89,29.66,6.982,11.344,11.439,25.47,14.494,40.824,3.3,16.562,5.3,33.8,9.047,50.122,3.253,14.155,7.86,26.962,14.1,37.986a95.075,95.075,0,0,0,20.442,25.409c15.613,13.382,33.723,18.516,51.017,13.139a47.62,47.62,0,0,0,6.264-2.473c3.08-1.466,2.75-8.252,0-9.946a144.863,144.863,0,0,1-32.177-26.18,96.213,96.213,0,0,1-22.1-39.525,93.8,93.8,0,0,1-3.113-25.912c.183-11.744,2.439-23.218,5.287-33.855,3.106-11.6,6.9-22.63,10.384-33.906s6.768-22.748,9.7-34.476c5.8-23.206,10.061-47.73,10.754-72.988.3-10.927.738-25.079-5.731-31.477-5.536-5.476-12.74-2.421-18.036,2.335-5.224,4.692-10.779,12.431-17.1,9.719-5.46-2.341-9.481-10.463-11.711-18.769-3.047-11.354-3.775-24.064-6.676-35.536a67.607,67.607,0,0,0-10.482-23.251c-9.232-12.6-21.437-18.848-33.285-16.17-7.114,1.609-13.424,7.077-20.063,11.288-5.513,3.5-11.423,5.874-17.234,2.927a12.076,12.076,0,0,1-5.593-6.245c-.958-2.269-2.685-3.341-4.207-1.848-1.339,1.312-2.068,4.769-1.1,7.054" transform="translate(-92.869 133.038)"/><path class="e" d="M210.574,231.128c6.454,13.623,15.544,22.777,24.576,30.858,4.461,3.993,9.076,7.617,13.4,12.016,3.938,4.006,7.45,9.244,7.181,17.592-.247,7.615-3.034,15.756-5.873,21.529-2.862,5.821-6.583,9.754-11.148,7.192-4.2-2.357-7.534-8.648-9.8-14.793a152.25,152.25,0,0,1-5.461-20.553c-1.942-9.1-4.076-17.936-6.426-26.762-2.389-8.978-4.817-18.94-3-28.8,1.17-6.357-4.765-9.073-5.931-2.741-1.888,10.251-.373,20.739,1.988,30.379,2.187,8.931,4.654,17.581,6.593,26.685,3.5,16.436,7.305,34.8,16.925,43.941,5.219,4.956,11.427,5.212,16.406-.724,4.534-5.406,7.76-13.8,9.918-22.282,2.362-9.279,2.979-20.06-.75-28.628-3.371-7.745-8.6-12.12-13.542-16.465-11.031-9.694-22.791-19.017-30.71-35.734-1.034-2.182-3.269-1.811-4.349,0a8.07,8.07,0,0,0,0,7.293" transform="translate(-45.201 145.564)"/></g></g></g></svg>