<svg xmlns="http://www.w3.org/2000/svg" xmlns:xlink="http://www.w3.org/1999/xlink" width="817.367" height="460.288" viewBox="0 0 817.367 460.288"><defs><style>.a{fill:#e54222;}.b{clip-path:url(#a);}</style><clipPath id="a"><rect class="a" width="817.367" height="460.288"/></clipPath></defs><g class="b"><path class="a" d="M34.834,5.172c2.215-1.885,5.271-1.4,5.805-2.233C41.1,2.17,36.591-.133,32.694.007,22.84.007,0,81.12,0,101.923c0,3.909,5.805,5.934,5.347,3.491C2.291,89.777,23.91,14.6,34.834,5.172" transform="translate(0 0)"/><path class="a" d="M100.818,41.742c.611-1.187,3.743-5.445,4.431-6.911s-4.355-4.4-4.813-2.862-1.986,7.469-2.291,8.446,2.062,2.444,2.673,1.327" transform="translate(19.034 5.453)"/><path class="a" d="M136.17,59.495c-8.327,10.121-26.813,28.062-30.939,26.316-2.9-1.256,4.889-17.87,10.39-25.758.535-.837-2.369-3.63-4.584-4.4a1.959,1.959,0,0,0-1.223-.14c-.535.14-.992.907-2.673,3.978-.306.558.153.7.229,1.117a1.491,1.491,0,0,1-.153,1.117,29.554,29.554,0,0,0-1.582,3.7C98.036,73.7,89.182,82.46,84.914,82.46q-1.834,0-1.833-2.3c0-4.188,3.361-9.842,3.589-14.239a5.925,5.925,0,0,0-5.882-6.283c-4.966,0-16.118,13.613-25.819,29.667,0-11.378,20.4-71.69,32.16-79.927,2.215-1.535,4.43-.488,4.812-1.535.382-.978-3.514-3.072-6.417-3.072a5.7,5.7,0,0,0-3.59,2.3c-2.781,3.352-6,8.96-9.319,15.822-1.065-2.035-3.574-4.723-5.575-4.723-14.439,0-55.078,28.062-55.078,39.788s16.958,46.073,42.473,46.073c2.062,0,3.514-.768,3.514-1.4a.837.837,0,0,0-.764-.907c-.688,0-.841.767-1.68.767-13.215,0-38.807-22.547-38.807-45.513,0-12.076,36.9-33.3,50.57-33.3,1.51,0,3.115,1.025,4.3,1.41C60.61,48.5,49.011,84.371,49.011,97.33c0,1.256,4.278,2.862,4.737,1.814C60.776,82.181,76.206,62.357,80.56,62.357c.764,0,.993.837.993,1.954,0,2.374-2.673,11.728-2.673,14.519s2.673,5.865,7.1,5.865c3.258,0,11.092-7.543,18.286-15.23-1.412,4.559-2.7,10.019-2.7,13.764,0,3.211,2.138,4.049,4.354,4.049,9.166,0,30.861-25.968,31.7-26.806s.383-3.211-1.451-.977" transform="translate(2.321 0.824)"/><path class="a" d="M141.09,111.549c.764-18.289,9.473-51.447,18.563-73.854,6.817-.643,12.138-.989,14.613-1.04-2.707,1.1-4.812,1.965-4.913,2.088-.535.558-.076,1.884.382,2.442.611.769,1.6,1.467,2.445.978,2.657-1.619,5.485-3.471,8.414-5.272,7.17.65,7.243,2.42,6.177,3.108-.841.488-.153,1.535.382,1.535a2.26,2.26,0,0,0,1.986-2.373c0-.7-.694-2.8-6.166-3.7,1.1-.65,2.216-1.284,3.34-1.885.763-.419,2.521-1.325,3.436-.907.46.209-.228,1.186-.3,1.675-.076.977.993,7.748,4.735,8.726,1.146.279,3.055-.14,2.6-1.536-.46-1.325-2.14-.767-3.286-1.047-1.374-.278-1.527-2.024-1.68-3.141-.229-2.024.841-5.653,3.514-6.98.382-.21.992-.35.992-.908s-.916-1.117-1.221-1.466c-.306-.279-1.223-1.4-1.6-1.4-.611-.07-1.374.977-1.756,1.327-.917.837-1.91,1.745-2.9,2.512a29.543,29.543,0,0,1-4.2,2.024c-1.611.673-3.992,1.633-6.4,2.6-.4-.009-.811-.016-1.241-.016-3.286,0-9.319.35-16.653.908,4.353-10.471,8.708-18.359,12.3-20.8,1.528-1.047,3.055-.768,3.208-1.327.306-.977-2.291-1.955-4.888-2.443-2.674-.489-4.813-.768-5.348.278-2.062,4.05-5.958,13.194-10.313,24.643-18.563,1.535-42.32,4.049-50.723,5.724-2.291.489-.229,4.4.993,4.049,13.292-3.56,33.611-6.283,49.042-7.888-8.4,22.616-18.1,53.47-18.639,72.876-.229,9.7,6.112,13.124,8.174,12.5,2.521-.7-3.437-1.955-3.055-12.007" transform="translate(20.086 1.892)"/><path class="a" d="M194.992,41.742c.611-1.187,3.743-5.445,4.43-6.911s-4.353-4.4-4.812-2.862-1.986,7.469-2.291,8.446,2.062,2.444,2.673,1.327" transform="translate(37.303 5.453)"/><path class="a" d="M169.4,68.007h-.457a28.221,28.221,0,0,1-7.563-.907A129.312,129.312,0,0,1,167.5,55.3c.688-1.117-.611-3.21-3.361-3.21-1.758,0-5.806,4.957-8.633,11.1a6.33,6.33,0,0,1-.764-3.072c0-3.769,6.875-15.776,15.89-15.776a4.368,4.368,0,0,1,4.507,4.676c0,6.142-2.522,13.263-5.73,18.987M159.016,78.828c-1.986,0-.688-4.608,1.681-10.123a30.979,30.979,0,0,0,7.716.839h.153c-3.285,5.445-7.105,9.285-9.55,9.285m62.716-25.9C213.4,63.05,194.918,80.991,190.792,79.246c-2.9-1.256,4.889-17.87,10.39-25.758.534-.837-2.369-3.63-4.584-4.4a1.959,1.959,0,0,0-1.223-.14c-.535.14-.993.907-2.673,3.978-.306.558.153.7.229,1.117a1.491,1.491,0,0,1-.153,1.117c-.18.323-.394.766-.627,1.3a33.071,33.071,0,0,1-20.608,11.405c3.208-6,5.652-12.914,5.652-17.94,0-4.259-3.743-7.19-8.249-7.19-8.1,0-18.41,6.282-18.41,15.776a9,9,0,0,0,3.9,7.329,28.257,28.257,0,0,0-1.758,8.377c-.076,2.793,2.979,6.352,6.34,6.352s7.868-4.886,11.612-11.1c8.036-.706,15.165-5.031,20.059-9.185-1.7,4.913-3.559,11.878-3.559,16.375,0,3.211,2.138,4.049,4.353,4.049,9.167,0,30.862-25.968,31.7-26.806s.382-3.211-1.451-.977" transform="translate(29.203 7.39)"/><path class="a" d="M67.809,171.046h-.375a21.156,21.156,0,0,1-6.178-.813c1.5-3.688,3.432-7.626,4.992-10.563.561-1-.5-2.875-2.745-2.875-1.034,0-3.041,2.3-4.944,5.65-.838,1-1.7,2.017-2.561,3.02a6.413,6.413,0,0,1-.17-1.483c0-3.376,5.615-14.125,12.979-14.125,2.122,0,3.681,1.626,3.681,4.187,0,5.5-2.058,11.876-4.679,17m-8.487,9.688c-1.621,0-.561-4.126,1.373-9.063a23.244,23.244,0,0,0,6.3.749h.124c-2.684,4.875-5.8,8.314-7.8,8.314m56.532-24.189c-1.124,1.249-24.834,26.563-30.575,26.563-.687,0-1.061-.437-1.061-2.312,0-8.688,7.425-24,12.48-24,1.81,0,3.994,2.25,4.431,1.562s-2.808-4.687-7.3-4.687c-2.334,0-5.8,3.514-8.586,8.457a26.306,26.306,0,0,1-15.685,8.793c2.621-5.375,4.617-11.564,4.617-16.063a6.456,6.456,0,0,0-6.739-6.438c-6.615,0-15.037,5.625-15.037,14.125a8.253,8.253,0,0,0,1.717,5.07c-5.045,5.66-10.088,10.493-12.822,10.493q-1.5,0-1.5-2.063c0-3.75,2.746-8.812,2.934-12.749.124-2.5-1.561-5.625-4.806-5.625-4.055,0-13.165,12.188-21.089,26.564,0-10.189,16.66-64.191,26.269-71.566,1.81-1.375,3.619-.437,3.932-1.375.312-.876-2.87-2.75-5.242-2.75a4.607,4.607,0,0,0-2.932,2.063c-9.984,13.188-26.893,65.315-26.893,80.815,0,1.125,3.494,2.563,3.869,1.624,5.741-15.188,18.344-32.939,21.9-32.939.624,0,.811.749.811,1.75,0,2.125-2.184,10.5-2.184,13a5.539,5.539,0,0,0,5.8,5.251c2.368,0,7.7-5.348,12.98-11.375.14.127.283.252.435.374a27.417,27.417,0,0,0-1.436,7.5c-.062,2.5,2.435,5.689,5.18,5.689s6.427-4.376,9.485-9.939c5.688-.547,10.821-3.529,14.692-6.736a31.4,31.4,0,0,0-2.838,12.237c0,3.312,2.621,6.938,5.491,6.938,4.306,0,23.4-19.125,30.7-27.376.437-.5-.687-1-1-.875" transform="translate(2.321 18.767)"/><path class="a" d="M153.051,140.315c.5-.124,11.044-12.813,11.106-13.626s-2.184-3.624-2.683-3-1.747,2.938-2.06,3.188.063,1.188-.5,1.5-6.052,7.251-6.926,8.25c-.312.313-1.06-.124-1.124.251-.124.812,1.748,3.437,2.185,3.437" transform="translate(29.266 21.371)"/><path class="a" d="M255.1,158.17c-6.739,8.312-16.536,19.938-20.778,19.938q-1.5,0-1.5-2.063c0-3.75,2.745-8.812,2.931-12.749.125-2.5-1.559-5.625-4.8-5.625-4.057,0-13.166,12.188-21.091,26.564,0-10.189,16.66-64.191,26.269-71.566,1.81-1.375,3.619-.437,3.931-1.375.313-.876-2.87-2.75-5.24-2.75a4.609,4.609,0,0,0-2.932,2.062c-5.835,7.708-14.034,28.715-19.843,47.938-5.915,6.232-23.817,24.565-28.7,24.565-.685,0-1.06-.437-1.06-2.312,0-8.689,7.425-24,12.48-24,1.809,0,3.994,2.25,4.43,1.562s-2.807-4.687-7.3-4.687c-2.88,0-7.472,5.34-10.4,12.121-6.491,7.457-16.275,18.629-19.361,18.629a1.191,1.191,0,0,1-1.186-1.312c0-4.876,7.052-24.189,7.052-26.438a3.165,3.165,0,0,0-2.746-2.813c-.874,0-1.747,1-3.869,3.688s-14.164,17.813-17.1,17.813a.655.655,0,0,1-.685-.749c0-6.751,8.985-17.938,12.417-17.938,1.373,0,2.807,2.5,3.556,1.437.5-.75-2.807-4.687-7.113-4.687-2.331,0-4.781,2.6-6.88,5.992-6.6,6.906-23.2,23.7-27.875,23.7-.685,0-1.06-.437-1.06-2.312,0-8.689,7.424-24,12.478-24,1.81,0,3.994,2.25,4.431,1.562s-2.808-4.687-7.3-4.687-13.165,13-13.165,24.188c0,3.312,2.62,6.938,5.491,6.938,3.371,0,15.811-11.729,24.556-20.779-1.829,3.984-3.03,7.994-3.03,9.841,0,2.187,2.122,4.126,3.369,4.126,4.243,0,14.04-14.5,20.466-20.439-2.308,7.625-6.55,17.813-6.55,23.126,0,2.313,2.558,5.687,5.8,5.687,2.247,0,6.3-4.563,10.795-9.625,2.021-2.3,4.117-4.723,6.048-6.975a28.222,28.222,0,0,0-1.306,8.1c0,3.312,2.621,6.938,5.491,6.938,3.693,0,18.268-14.074,26.946-23.283-3.657,12.525-6.168,23.937-6.168,29.909,0,1.125,3.494,2.563,3.868,1.624,5.74-15.188,18.344-32.939,21.9-32.939.624,0,.811.749.811,1.75,0,2.125-2.184,10.5-2.184,13a5.539,5.539,0,0,0,5.8,5.251c3.557,0,13.789-12.064,20.528-20.377.937-1.187-.186-2.125-.623-1.562" transform="translate(21.937 18.767)"/><path class="a" d="M53.777,176.513a2.93,2.93,0,1,0,2.815,2.929,2.874,2.874,0,0,0-2.815-2.929" transform="translate(9.886 30.52)"/><path class="a" d="M351.672,37.825c.128-.852,1.279-2.556.511-2.921-1.535-.73-4.479.852-5.757,1.582-8.316,4.622-16.376,10.341-23.668,14.964-1.408.853-3.071-.365-4.094-1.7-.768-.972-1.536-3.285-.64-4.258.383-.487,18.04-7.665,25.588-10.95a48.505,48.505,0,0,0,7.036-3.528c1.663-1.338,3.326-2.921,4.862-4.38.64-.609,1.919-2.434,2.943-2.312.639,0,2.175,1.946,2.686,2.433.512.609,2.047,1.582,2.047,2.555s-1.023,1.217-1.663,1.582c-4.477,2.312-6.268,8.638-5.885,12.168.256,1.946.512,4.987,2.815,5.474,1.919.487,4.733-.487,5.5,1.825.768,2.433-2.431,3.163-4.35,2.677-6.268-1.7-8.061-13.5-7.932-15.208m-69.6,207.437c28.147,0,74.205-85.773,74.205-137.237,0-8.274-3.327-29.93-24.693-29.93-31.729,0-66.017,52.681-66.017,93.073a37.542,37.542,0,0,0,1.663,11.437c6.4-24.333,18.935-53.654,39.918-67.889,3.071-2.069,11.643-.731,7.548,2.189-23.03,16.79-36.463,50.126-42.093,75.919,2.431,2.922,4.862,4.259,6.27,4.259,3.454,0,3.71.365,12.026-2.433,1.152-1.1,6.4,2.433,6.4,4.015s-5.5,3.285-12.923,3.285c-2.942,0-7.8-1.7-12.666-5.11a117.7,117.7,0,0,0-2.3,20.8c0,12.53,4.35,27.617,12.666,27.617m-20.343-28.713c0-5.6,1.023-14.843,3.455-25.793a33.322,33.322,0,0,1-7.421-21.413c0-36.135,32.752-96.359,65.633-96.359,8.061,0,37.232.974,37.232,35.648,0,66.307-51.817,141.86-71.9,141.86-18.808,0-27-15.208-27-33.944" transform="translate(50.004 4.204)"/><path class="a" d="M337.912,215.653c0-11.923,15.352-49.516,22.773-67.28a1.979,1.979,0,0,0,0-1.7l-.128-.244a2.247,2.247,0,0,1-.128-1.825c1.535-3.528,6.268-12.531,7.805-13.018,1.663-.487,7.8,2.555,6.524,5.353-6.013,12.653-34.416,83.827-29.3,84.07s45.932-82.123,57.7-82.123c6.27,0,7.037,5.11,7.037,8.4,0,8.393-13.178,45.259-10.875,45.259,6.4,0,26.1-38.082,34.16-38.082s9.084,5.354,9.084,8.274c0,11.315-8.828,34.431-4.222,34.431s21.494-15.693,38.51-36.013a1.29,1.29,0,1,1,1.919,1.7c-1.279,1.216-29.938,37.716-39.918,37.716-3.07,0-10.363-3.772-10.363-9.247,0-13.626,8.955-33.579,5.757-33.579s-29.683,42.947-35.056,42.947c-3.455,0-8.956-3.893-8.956-11.436,0-12.409,15.481-45.259,11.77-45.138-6.4.122-51.816,83.1-54.248,83.1s-9.85-1.338-9.85-11.558" transform="translate(65.552 22.742)"/><path class="a" d="M331.014,416.511c-2.875,0-4.221-4.356-4.221-7.624,0-15.066,18.1-40.753,36.7-62.264-11.01,46.38-24.954,69.707-32.477,69.887m58.531-100.748c-.856.726-9.175,8.986-19.633,20.6a222.739,222.739,0,0,0,3.608-25.323c.245-3.086-2.935-4.992-2.874-3.994a13.914,13.914,0,0,1-.245,4.176c-1.407,5.99-14.557,31.131-20.428,31.857-1.875.253,1.95-10.592,4.442-18.087,2.343-2.626,3.863-4.348,4-4.512.67-.726.1-2.542-1.244-1.362-.334.3-.77.725-1.287,1.251a9.938,9.938,0,0,0,.45-2.068,8.59,8.59,0,0,0-2.57-4.811,1.031,1.031,0,0,0-.979-.181c-.429.181-.8,1.18-2.141,5.172-.245.726.123.908.184,1.453a3.04,3.04,0,0,1-.122,1.451c-.3,1.212-1.073,3.7-1.894,6.568-9.952,10.831-25.064,27.2-29.816,27.2a1.78,1.78,0,0,1-1.817-1.9c0-7.08,10.81-35.126,10.81-38.394,0-2.45-2.87-4.084-4.21-4.084s-2.678,1.452-5.931,5.355-21.719,25.867-26.215,25.867a.981.981,0,0,1-1.052-1.09c0-9.8,13.776-26.049,19.038-26.049,2.1,0,4.306,3.63,5.454,2.088.765-1.089-4.306-6.808-10.907-6.808-3.459,0-7.091,3.54-10.24,8.234.241-.667.48-1.327.714-1.97.427-1.18-1.163-1.816-1.285-1.452-1.161,3.431-2.556,7.48-4.1,11.878a54.67,54.67,0,0,0-3.668,10.3c-8.351,23.114-18.791,49.8-21.893,49.8-1.346,0-1.469-3.448-1.469-6.626,0-28.591,22.079-136.237,28.5-142.046,1.407-1.271,2.568.636,3.18-.817.734-1.724-3.3-4.72-4.893-4.72-4.954,0-31.253,122.8-31.253,149.307,0,4.993,3.485,7.534,6.727,7.534,3.794,0,12.807-24.319,21.138-47.786.927,2.292,3.256,4.038,4.764,4.038,6.5,0,21.526-21.057,31.38-29.679-3.54,11.072-10.046,25.867-10.046,33.581,0,3.359,3.923,8.26,8.9,8.26,3.445,0,9.664-6.626,16.552-13.977,3.491-3.763,7.125-7.751,10.381-11.355a35.984,35.984,0,0,0-1.252,7.634c0,5.083,3.608,7.352,4.586,7.352,2.875,0,14.007-18.425,17.982-26.957-1.407,7.8-2.874,15.157-4.464,22.055-18.41,21.239-40.184,50.011-40.184,66.621,0,5.083,2.63,10.711,9.114,10.711,13.578,0,28.563-44.112,35.84-79.964,7.89-8.714,15.536-16.429,21.59-21.965.979-1-.733-2.723-1.223-2.36" transform="translate(50.004 40.237)"/><path class="a" d="M321.322,287.409c.49-.181,10.826-18.607,10.887-19.787s-2.141-5.263-2.63-4.356-1.712,4.266-2.018,4.628.061,1.725-.49,2.179-5.933,10.529-6.789,11.981c-.306.453-1.04-.182-1.1.362-.122,1.18,1.712,4.992,2.141,4.992" transform="translate(61.917 45.497)"/><path class="a" d="M447.822,289.3c.49-.182,10.825-18.607,10.887-19.787s-2.141-5.264-2.63-4.356-1.712,4.266-2.018,4.628.061,1.725-.49,2.178-5.933,10.529-6.789,11.981c-.306.454-1.04-.181-1.1.364-.123,1.18,1.712,4.992,2.141,4.992" transform="translate(86.457 45.824)"/><path class="a" d="M559.024,315.229c-6.605,12.072-16.207,28.954-20.366,28.954q-1.469,0-1.469-3c0-5.446,2.691-12.8,2.875-18.515.122-3.63-1.53-8.168-4.71-8.168-3.975,0-12.9,17.7-20.672,38.574,0-14.795,16.33-93.215,25.748-103.925,1.774-2,3.547-.635,3.853-2,.307-1.27-2.813-3.994-5.137-3.994-.734,0-1.9,1.09-2.875,3-5.937,11.619-14.372,44.05-20.089,72.79-4.328,7.25-18.016,30.1-20.459,28.049-1.773-1.452,5.383-27.229,5.383-33.583,0-3.812-1.224-5.628-2.875-5.628-9.234,0-25.2,43.114-24.648,38.574,1.958-16.882,8.44-34.581,8.562-36.849s-2.323-4.357-3.119-3.994c-.734.362-2.447,5.264-3.242,7.806a2.547,2.547,0,0,0,.061,1.362l.062.181a2.258,2.258,0,0,1,0,1.271q-.279,1.066-.553,2.142c-7.269,13.369-19.7,32.316-22.687,30.261-2.325-1.634,3.914-23.235,8.317-33.492.429-1.088-1.9-4.72-3.67-5.718a1.032,1.032,0,0,0-.978-.182c-.427.182-.8,1.18-2.141,5.174-.245.726.123.908.184,1.452a3.032,3.032,0,0,1-.123,1.452c-.325.942-.776,2.647-1.267,4.807-6.083,10.759-13.173,22.151-16.589,22.151q-1.469,0-1.467-3c0-5.446,2.69-12.8,2.874-18.515.123-3.63-1.528-8.168-4.709-8.168-3.976,0-12.9,17.7-20.673,38.574,0-14.795,16.33-93.215,25.75-103.925,1.773-2,3.546-.635,3.853-2,.306-1.27-2.814-3.994-5.138-3.994-.734,0-1.9,1.09-2.875,3-5.719,11.193-13.756,41.7-19.449,69.615-5.8,9.05-23.344,35.671-28.132,35.671-.673,0-1.04-.636-1.04-3.358,0-12.617,7.277-34.854,12.231-34.854,1.774,0,3.914,3.268,4.343,2.27s-2.752-6.808-7.156-6.808-12.9,18.879-12.9,35.126c0,4.81,2.568,10.075,5.381,10.075,3.62,0,17.905-20.436,26.412-33.81-3.586,18.188-6.046,34.758-6.046,43.43,0,1.635,3.426,3.722,3.792,2.36,5.626-22.055,17.98-47.833,21.467-47.833.613,0,.8,1.091.8,2.542,0,3.087-2.141,15.249-2.141,18.879s2.141,7.625,5.688,7.625c2.609,0,8.881-9.807,14.64-19.8a108.706,108.706,0,0,0-2.165,17.895c0,4.174,1.712,5.264,3.485,5.264,5.052,0,14.854-15.994,20.694-26.321-2.572,10.775-4.548,21.152-4.793,26.684-.122,3.449,2.752,4.9,3.363,4.176,9.97-24.961,22.324-48.105,25.26-44.838,1.467,1.634-5.811,22.147-5.811,34.4,0,1.634,1.407,5.446,4.343,5.446,3.977,0,13.664-16.322,18.859-25.65-3.132,16.487-5.223,31.183-5.223,39.174,0,1.635,3.426,3.722,3.792,2.36,5.627-22.055,17.982-47.833,21.468-47.833.611,0,.8,1.091.8,2.542,0,3.087-2.141,15.249-2.141,18.879s2.141,7.625,5.688,7.625c3.486,0,13.516-17.517,20.122-29.59.917-1.724-.184-3.086-.613-2.268" transform="translate(74.087 42.043)"/><path class="a" d="M610.251,289.586c1.468.182,1.162-.544.184-1.09-3.731-2-6.362-14.068-7.095-16.519s-4.526-2.178-3.67-.272c1.285,3.54,5.015,17.063,10.581,17.881" transform="translate(116.307 46.72)"/><path class="a" d="M711.391,315.229c-6.605,12.072-16.207,28.954-20.366,28.954q-1.469,0-1.469-3c0-5.446,2.691-12.8,2.875-18.515.122-3.63-1.529-8.168-4.71-8.168-3.975,0-12.9,17.7-20.672,38.574,0-14.795,16.33-93.215,25.748-103.925,1.774-2,3.547-.635,3.853-2,.306-1.27-2.813-3.994-5.138-3.994-.733,0-1.9,1.09-2.874,3-5.938,11.619-14.372,44.05-20.089,72.79-4.328,7.249-18.016,30.1-20.459,28.049-1.773-1.452,5.382-27.229,5.382-33.583,0-3.812-1.224-5.628-2.875-5.628-9.234,0-25.2,43.114-24.648,38.574,1.958-16.882,8.44-34.581,8.562-36.849s-2.323-4.357-3.119-3.994c-.734.362-2.447,5.264-3.242,7.806a2.547,2.547,0,0,0,.061,1.362l.062.181a2.258,2.258,0,0,1,0,1.271q-.279,1.066-.553,2.142c-7.269,13.369-19.7,32.316-22.687,30.261-2.325-1.634,3.914-23.235,8.317-33.492.429-1.088-1.9-4.72-3.67-5.718a1.032,1.032,0,0,0-.978-.182c-.427.182-.8,1.18-2.141,5.174-.245.726.123.908.183,1.452a3.016,3.016,0,0,1-.122,1.452c-.282.819-.66,2.216-1.077,3.986-7.353,13.175-14.223,22.881-16.228,22.881-2.2,0,2.018-17.245,2.018-25.687,0-2.178-.49-6.172-4.342-6.172s-13.271,28.409-16.329,28.409c-1.1,0,5.2-27.5,5.2-33.764,0-2.45-.368-6.262-3.365-6.262-5.627,0-25.137,61.447-27.584,61.265s11.132-53.278,14.006-62.717c.612-2.088-2.324-4.357-3.119-3.994-.733.362-3,7.08-3.731,9.712a2.544,2.544,0,0,0,.062,1.362l.06.182a2.233,2.233,0,0,1,0,1.27c-3.546,13.251-10.886,41.3-10.886,50.193,0,7.624,3.547,8.622,4.709,8.622s22.875-61.9,25.932-61.991c1.774-.091-5.627,24.415-5.627,33.673,0,5.628,2.63,8.532,4.282,8.532,2.57,0,15.229-32.039,16.759-32.039s-2.752,14.885-2.752,25.051c0,4.084,3.485,6.9,4.954,6.9,3.176,0,10.311-12.073,14.906-20.408-1.21,6.123-2.371,13.792-2.371,18.956,0,4.174,1.712,5.264,3.485,5.264,5.052,0,14.854-15.994,20.694-26.321-2.572,10.775-4.548,21.152-4.793,26.684-.122,3.449,2.752,4.9,3.363,4.176,9.97-24.961,22.324-48.105,25.26-44.838,1.468,1.634-5.811,22.147-5.811,34.4,0,1.634,1.407,5.446,4.343,5.446,3.977,0,13.664-16.322,18.859-25.65-3.132,16.487-5.223,31.183-5.223,39.174,0,1.635,3.426,3.722,3.792,2.36,5.627-22.055,17.982-47.833,21.468-47.833.611,0,.8,1.091.8,2.542,0,3.087-2.141,15.249-2.141,18.879s2.141,7.625,5.688,7.625c3.486,0,13.516-17.517,20.122-29.59.917-1.724-.184-3.086-.613-2.268" transform="translate(105.009 42.043)"/><path class="a" d="M295.389,294.9c3.487-3.448,7.338-7.715,11.316-11.164.611-.544,2.018-1.724,2.751-1.18.367.272-.183,1.544-.245,2.178-.061,1.271.8,10.075,3.792,11.346a1.577,1.577,0,0,0,2.08-2c-.367-1.725-1.712-1-2.629-1.362-1.1-.364-1.224-2.632-1.347-4.084-.183-2.632.673-7.352,2.814-9.077.306-.272.8-.454.8-1.18s-.734-1.452-.979-1.906c-.245-.364-.979-1.814-1.284-1.814-.491-.091-1.1,1.27-1.408,1.724-.733,1.088-1.528,2.268-2.323,3.268a22.082,22.082,0,0,1-3.364,2.632c-3.609,2.45-12.05,7.806-12.234,8.168-.427.726-.061,2.451.307,3.177.489,1,1.285,1.906,1.957,1.27" transform="translate(56.827 47.488)"/></g></svg>