<svg xmlns="http://www.w3.org/2000/svg" xmlns:xlink="http://www.w3.org/1999/xlink" width="125.235" height="80.331" viewBox="0 0 125.235 80.331"><defs><style>.a{fill:none;}.b{clip-path:url(#a);}.c{fill:#fef6f9;}</style><clipPath id="a"><rect class="a" width="125.235" height="80.331"/></clipPath></defs><g transform="translate(0 -0.001)"><g class="b" transform="translate(0 0.001)"><path class="c" d="M1019.88,10.666h0a1.8,1.8,0,0,0-2.065-1.488l-52.271,8.416a1.8,1.8,0,1,0,.574,3.548l52.271-8.416a1.8,1.8,0,0,0,1.491-2.06" transform="translate(-896.737 -8.517)"/><path class="c" d="M1060.317,232.725a3.565,3.565,0,0,0-5-3.426l-6.637,3.165a3.828,3.828,0,0,0-2.115,3.367q-.3,10.034-3.16,15.794-3.19,6.418-11.073,6.418a12.524,12.524,0,0,1-5.638-1.213,10.072,10.072,0,0,1-4.188-4.3,26.129,26.129,0,0,1-2.644-8.419,84.124,84.124,0,0,1-.9-13.565q0-11.031,3.389-16.9,3.391-5.885,10.873-5.875a12.725,12.725,0,0,1,5.438,1.144,8.753,8.753,0,0,1,2.542,1.849,3.425,3.425,0,0,0,4.334.533l2.23-1.419a3.931,3.931,0,0,0-.146-6.623,20.907,20.907,0,0,0-3.885-1.724,33.054,33.054,0,0,0-10.461-1.636q-14.22,0-21.123,8.892t-6.909,25.444a45.2,45.2,0,0,0,2.2,15.182,26.377,26.377,0,0,0,5.858,9.789,20.22,20.22,0,0,0,8.559,5.205,34.909,34.909,0,0,0,10.315,1.508q13.712,0,20.923-8.646t7.21-24.488v-.061" transform="translate(-935.082 -185.977)"/><path class="c" d="M1576.518,376.868a1.748,1.748,0,0,0-3.143,0l-1.8,3.71-3.169.893a1.742,1.742,0,0,0,0,3.354l3.169.893,1.8,3.71a1.748,1.748,0,0,0,3.143,0l1.8-3.71,3.169-.893a1.742,1.742,0,0,0,0-3.354l-3.169-.893Z" transform="translate(-1457.741 -349.706)"/><path class="c" d="M234.117,203.643l12.044-.261h10.7a21.612,21.612,0,0,1,5.153.7,10.907,10.907,0,0,0,.673-7.213,46.3,46.3,0,0,0-6.87-.477l-21.769-.075a3.663,3.663,0,1,0,.067,7.325" transform="translate(-214.286 -182.646)"/><path class="c" d="M59.512,19.563a16.88,16.88,0,0,0-2.759-2.433A14.934,14.934,0,0,0,54.71,15.96a21.818,21.818,0,0,1-1.145,11.519c.342,1.657.756,3.927,1.085,6.645a87.63,87.63,0,0,1,.587,11.324,106.4,106.4,0,0,1-.587,11.82A32.554,32.554,0,0,1,52.595,66a12.526,12.526,0,0,1-3.917,5.378,9.876,9.876,0,0,1-6.1,1.836H19.439c-5.161,0-9.023-5.568-9.553-6.333-3.9-5.626-3.306-17.027,2.8-22.441C20.824,37.227,33,46.183,44.055,38.219A25.473,25.473,0,0,0,52.169,28a23.864,23.864,0,0,0,1.41-13.459q-.2-.8-.476-1.6C51.045,7.035,46.055,2.394,39.661.031A.427.427,0,0,0,39.3.8C44.486,3.75,48.158,8.2,49.361,13.254h0l.009.037.012.051a16.751,16.751,0,0,1-1.076,10.783h0a17.688,17.688,0,0,1-3.446,5.267c-9.736,10.187-25.122.075-37,10.232A23.389,23.389,0,0,0,.02,57.88c.5,10.9,9.992,22.047,19.286,22.308l.212,0c8.891.164,15.251.2,22.015,0a31.537,31.537,0,0,0,10.441-1.7,16.68,16.68,0,0,0,7.539-5.728,27.744,27.744,0,0,0,4.535-10.727,78.939,78.939,0,0,0,1.5-16.812,70.373,70.373,0,0,0-1.5-16.1,21.961,21.961,0,0,0-4.535-9.568" transform="translate(0 -0.001)"/><path class="c" d="M310.023,674.211a2.8,2.8,0,0,0-4.935,0l-2.829,5.589-4.975,1.345a2.6,2.6,0,0,0,0,5.052l4.975,1.345,2.829,5.589a2.8,2.8,0,0,0,4.935,0l2.829-5.589,4.975-1.345a2.6,2.6,0,0,0,0-5.052l-4.975-1.345Z" transform="translate(-274.675 -625.878)"/></g></g></svg>