<svg xmlns="http://www.w3.org/2000/svg" xmlns:xlink="http://www.w3.org/1999/xlink" width="302.887" height="972.048" viewBox="0 0 302.887 972.048"><defs><style>.a,.k{fill:none;}.b{clip-path:url(#a);}.c{fill:url(#b);}.d{clip-path:url(#c);}.e{fill:#fff;}.f{fill:url(#d);}.g{fill:url(#f);}.h{clip-path:url(#g);}.i{fill:url(#h);}.j{fill:url(#k);}.k{stroke:#fff;stroke-miterlimit:10;}</style><clipPath id="a"><rect class="a" width="301.887" height="288.403"/></clipPath><linearGradient id="b" x1="-0.328" y1="1.302" x2="-0.325" y2="1.302" gradientUnits="objectBoundingBox"><stop offset="0" stop-color="#f05913"/><stop offset="1" stop-color="#3e4e9c"/></linearGradient><clipPath id="c"><rect class="a" width="301.888" height="288.403"/></clipPath><linearGradient id="d" x1="-0.328" y1="1.302" x2="-0.325" y2="1.302" gradientUnits="objectBoundingBox"><stop offset="0" stop-color="#e93d51"/><stop offset="1" stop-color="#b7559b"/></linearGradient><linearGradient id="f" x1="-0.328" y1="3.616" x2="-0.324" y2="3.616" xlink:href="#d"/><clipPath id="g"><path class="a" d="M367.423,271.824c-10.876,13.911-19.02,29.552-26.494,45.484-6.592,14.052-12.74,28.359-20.3,41.932h5.661c2.735-5.036,5.306-10.167,7.775-15.349,7.568-15.876,14.4-32.132,23.048-47.469a168.353,168.353,0,0,1,13.842-21.062,2.582,2.582,0,0,0,0-3.536,2.737,2.737,0,0,0-1.884-.727,2.044,2.044,0,0,0-1.652.727M189.468,70.837c-11.833,9.975-23.731,19.876-35.913,29.424-12.621,9.893-25.571,19.388-39.017,28.135q-7.71,5.016-15.646,9.675v5.783A432.451,432.451,0,0,0,137.1,118.909c13.159-9.54,25.9-19.644,38.447-29.972q10.892-8.965,21.641-18.1Zm114.188,0a224.478,224.478,0,0,1-7.54,32.55,349.36,349.36,0,0,1-17.193,44.67c-6.777,14.756-14.3,29.155-22.08,43.407-7.8,14.291-15.854,28.438-23.725,42.688s-15.549,28.587-22.571,43.263a393.2,393.2,0,0,0-18.438,44.813c-2.53,7.563-4.763,15.227-6.629,22.982-1.113,4.626-2.13,9.309-2.855,14.03h4.94a196.475,196.475,0,0,1,4.777-20.624,325.182,325.182,0,0,1,16.146-44.8c6.525-14.841,13.879-29.3,21.552-43.581,7.706-14.336,15.739-28.492,23.654-42.712,7.888-14.174,15.666-28.417,22.864-42.956a429.809,429.809,0,0,0,19.291-44.532A250.745,250.745,0,0,0,308.4,72.618q.135-.889.261-1.781Z" transform="translate(-98.892 -70.837)"/></clipPath><linearGradient id="h" x1="-0.362" y1="3.616" x2="-0.358" y2="3.616" xlink:href="#d"/><linearGradient id="k" x1="-0.328" y1="2.457" x2="-0.325" y2="2.457" gradientUnits="objectBoundingBox"><stop offset="0" stop-color="#ffb349"/><stop offset="1" stop-color="#cd569b"/></linearGradient></defs><g transform="translate(0.293)"><g transform="translate(0.207 683.644)"><g class="b"><rect class="c" width="301.887" height="288.403"/></g></g><g transform="translate(0.206 683.644)"><g class="d"><path class="e" d="M62.558,770.519c8.3,18.828,29.908,32.2,50.564,30,10.805-1.147,20.452-6.49,28.057-14.125,7.634-7.663,13.23-17.117,18.357-26.561,5.345-9.846,10.552-19.728,16.59-29.178a193.882,193.882,0,0,1,20.446-26.968,126.517,126.517,0,0,1,25.514-21.642,102.435,102.435,0,0,1,15.069-7.886,54.721,54.721,0,0,1,16.757-4.451c5.4-.41,10.958.3,15.553,3.356a17.606,17.606,0,0,1,7.221,10.554c2.287,9.119-.916,19.38-5.53,27.37-11.114,19.246-28.8,33.478-47.267,45.3-19.919,12.746-41.181,23.214-61.351,35.544a504.879,504.879,0,0,0-66.093,47.954,222.473,222.473,0,0,0-27.619,27.739,140.433,140.433,0,0,0-20.2,32.957A138.167,138.167,0,0,0,38.409,937.49c-1.438,11.054-1.985,22.79.828,33.681,2.508,9.7,8.143,18.684,17.848,22.362,11.843,4.487,24.263-1.334,33.436-8.791a84.75,84.75,0,0,0,12.671-13.278c4.062-5.11,7.848-10.43,11.406-15.9,7.039-10.829,13.216-22.183,19.425-33.5,11.485-20.935,23.376-41.953,40.513-58.869a105.727,105.727,0,0,1,27.417-19.89,80.8,80.8,0,0,1,7.813-3.37c2.872-1.055,5.976-2,8.986-.95a17.075,17.075,0,0,1,5.7,4,50.623,50.623,0,0,0,6.149,5.257c10.375,6.964,23.808,2.53,33.685-3.083a129.968,129.968,0,0,0,15.275-10.679q7.514-5.836,14.54-12.268a229.942,229.942,0,0,0,25.665-27.69,305.533,305.533,0,0,0,20.847-30.96c12.591-20.876,25-42.617,44.718-57.676a111.848,111.848,0,0,1,32.03-17.02,96.136,96.136,0,0,1,18.063-4.48c5.522-.724,10.725.276,14.337,4.685,6.039,7.371,4.994,18.252,2.1,26.726-3.337,9.776-9.953,18.09-17.3,25.192-7.984,7.722-17.033,14.238-26.218,20.441-11.328,7.648-22.748,15.152-34.018,22.887Q339.514,808.2,305.72,833.535,288.7,846.3,271.945,859.413c-9.816,7.684-20.1,15.175-28.324,24.628-7.243,8.327-13.144,18.8-11.869,30.214.592,5.3,2.866,10.625,6.972,14.161a15.524,15.524,0,0,0,7.138,3.616,20.183,20.183,0,0,0,10.072-.989,165.89,165.89,0,0,0,17.371-7.154c5.543-2.548,11-5.28,16.406-8.1,10.706-5.584,21.225-11.518,31.927-17.109a264.943,264.943,0,0,1,32.326-14.692,150.737,150.737,0,0,1,17-5.093c5.462-1.275,11.273-2.588,16.909-2.607a14.443,14.443,0,0,1,6.3,1.134c.263.136.917.53.91.525a6.421,6.421,0,0,1,.5.459c.053.05.414.474.215.213a3.537,3.537,0,0,1,.5,3.11,35.33,35.33,0,0,1-3.611,8.009q-2.061,3.83-4.486,7.447c-6.513,9.748-14.84,18.194-23.852,25.642-20.369,16.836-44.461,28.258-67.407,41.041a322.423,322.423,0,0,0-33.867,21.375,273.511,273.511,0,0,0-29.72,25.172q-6.885,6.742-13.263,13.977c-3.948,4.48-7.727,9.116-11.9,13.394a54.506,54.506,0,0,1-13.72,10.672,28.569,28.569,0,0,1-13.47,3.236,24.249,24.249,0,0,1-12.457-3.269,14,14,0,0,1-6.826-10.568c-.677-5.885.962-12.153,2.657-17.747a97.663,97.663,0,0,1,6.447-15.792c5.427-10.711,12.256-20.629,18.981-30.548,3.359-4.955,6.71-9.917,9.883-14.994a121.111,121.111,0,0,0,8.945-16.211c2.469-5.761,4.064-12.339,1.965-18.474-1.76-5.144-5.666-9.658-11.022-11.162-6.34-1.78-12.809,1.085-18.241,4.163a70.333,70.333,0,0,0-12.8,9.389c-15.578,14.288-24.561,34.041-34.754,52.163-2.574,4.577-5.238,9.106-8.126,13.492-3.471,5.274-7.316,10.284-11.15,15.3-7.421,9.7-14.941,19.64-19.019,31.29-6.5,18.565-4.584,40.758,7.831,56.463a48.646,48.646,0,0,0,26.959,16.74c11.569,2.76,23.831,1.946,35.254-1.115,24.541-6.575,43.816-23.937,62.466-40.28a541.255,541.255,0,0,1,62.666-47.176c22.185-14.367,45.2-27.412,68.5-39.871,11.833-6.327,23.746-12.5,35.685-18.629q8.846-4.536,17.7-9.048c5.795-2.955,11.649-5.91,17.974-7.562a28.783,28.783,0,0,1,15.86-.123c4.24,1.307,8.427,3.862,10.707,7.772,4.126,7.074-1.924,19.749,8.236,23.373a2.524,2.524,0,0,0,3.075-1.746,2.55,2.55,0,0,0-1.746-3.075c-1.447-.516-2.1-1.679-2.486-3.381a32.157,32.157,0,0,1-.4-6.54,28.2,28.2,0,0,0-.687-7.194,17.672,17.672,0,0,0-3.741-6.813,25.364,25.364,0,0,0-13.323-7.679,35.582,35.582,0,0,0-18.11.941c-6.392,1.859-12.375,4.9-18.283,7.915s-11.806,6.024-17.7,9.049c-11.8,6.058-23.582,12.167-35.283,18.423-23.432,12.528-46.573,25.652-68.874,40.115a545.723,545.723,0,0,0-62.652,47.145c-18.462,16.161-37.473,33.594-61.882,39.817-11.078,2.824-22.987,3.423-34.054.221a43.106,43.106,0,0,1-24.029-17.2c-10.587-15.834-10.695-37.53-2.687-54.487,5.478-11.6,13.955-21.449,21.557-31.67a238.385,238.385,0,0,0,17.58-28.263c9.7-17.739,19.268-37.183,36.018-49.4,4.408-3.216,9.46-6.447,14.827-7.7a10.891,10.891,0,0,1,7.757.8,12.041,12.041,0,0,1,4.727,4.944c2.816,5.217,1.568,11.3-.6,16.518-2.358,5.683-5.7,11.041-8.958,16.246-12.491,19.98-28.216,38.625-35.465,61.4-3.305,10.386-6.383,24.28,2.791,32.6,7.169,6.5,18.189,7.728,27.269,5.321,11.385-3.019,20.089-12.029,27.574-20.618a332.109,332.109,0,0,1,26.052-27.346,265.928,265.928,0,0,1,30.333-23.915c11.228-7.6,23.059-14.22,34.967-20.679,22.831-12.384,46.214-24.5,65.43-42.275A111.944,111.944,0,0,0,396.44,893.3a76.247,76.247,0,0,0,3.963-8.134c1.162-2.839,1.586-6.129-.137-8.848-2.713-4.279-8.54-5.179-13.2-5.016a92.067,92.067,0,0,0-17.425,2.771,151.06,151.06,0,0,0-17,5.092,272.114,272.114,0,0,0-32.974,14.912c-10.769,5.611-21.346,11.58-32.108,17.2-5.345,2.792-10.736,5.5-16.211,8.033a156.674,156.674,0,0,1-16.736,6.907c-2.843.933-5.825,1.563-8.756.657a11.692,11.692,0,0,1-5.5-3.953c-3.13-3.878-4.055-8.93-3.7-13.792.8-10.867,8.487-20.065,16-27.3,4.361-4.2,9.064-8.015,13.808-11.773q8.255-6.54,16.579-12.991,16.692-12.939,33.662-25.515,33.926-25.155,68.882-48.877c10.6-7.2,21.428-14.085,31.89-21.484,9.207-6.511,18.226-13.54,25.749-21.989,6.987-7.846,12.74-17.069,14.947-27.452,2.02-9.5,1.136-21.112-6.594-28-4.643-4.139-10.59-5.087-16.617-4.3a99.757,99.757,0,0,0-18.529,4.465,116.317,116.317,0,0,0-32.632,16.912,127.543,127.543,0,0,0-26.1,26.746c-7.312,9.863-13.575,20.441-19.891,30.953-6.37,10.6-12.874,21.112-20.4,30.943a225.746,225.746,0,0,1-25.261,27.747q-6.953,6.489-14.418,12.4a134.4,134.4,0,0,1-15.087,10.724c-8.873,5.213-21.6,10.112-30.706,2.719-4.077-3.31-7.478-7.908-12.849-9.172-3.442-.81-6.94-.089-10.209,1.077a89.3,89.3,0,0,0-8.384,3.52A108.2,108.2,0,0,0,172.4,858.3c-17.353,16.634-29.611,37.457-41.1,58.343-6.259,11.377-12.4,22.832-19.355,33.808-3.453,5.451-7.1,10.794-11.044,15.9A92.82,92.82,0,0,1,88.57,979.874c-8.179,7.1-19.916,13.294-30.782,8.59-8.72-3.775-12.782-13.1-14.464-21.908a73.031,73.031,0,0,1-.968-15.617,125.973,125.973,0,0,1,1.877-18.718,132.462,132.462,0,0,1,11.709-35.688,141.651,141.651,0,0,1,21.6-31.526,263.485,263.485,0,0,1,28.607-26.884,510.727,510.727,0,0,1,66.884-46.749c19.927-11.7,40.709-22,59.835-35.026a171.18,171.18,0,0,0,25.939-21.193c7.509-7.644,14.645-16.505,19.081-26.329,4.044-8.957,6.448-20.034,2.66-29.5a22.528,22.528,0,0,0-9.851-11.37,29.688,29.688,0,0,0-16.784-3.247c-11.631.884-22.848,6.034-32.711,12.007a128.641,128.641,0,0,0-26.32,21.465c-15.815,16.606-27.45,36.308-38.2,56.412-9.324,17.436-21.462,38.323-43.216,40.889-19.207,2.265-38.885-10.019-46.591-27.49a2.516,2.516,0,0,0-3.42-.9,2.562,2.562,0,0,0-.9,3.42" transform="translate(-99.098 -738.161)"/><path class="e" d="M292.975,721.284c-2.665,20.423-9.17,41.079-23.485,56.409a64.159,64.159,0,0,1-23.244,16.123c-10.553,4.142-21.873,5.988-32.718,9.2-11.119,3.295-22,7.333-32.771,11.622-10.461,4.166-20.994,8.313-31.174,13.133a112.918,112.918,0,0,0-27.392,17.859c-7.826,7.021-14.666,15.041-21.367,23.117-14.045,16.926-28.273,33.729-44.593,48.54q-3.069,2.785-6.228,5.47a2.521,2.521,0,0,0,0,3.536,2.55,2.55,0,0,0,3.535,0c17.13-14.572,32.1-31.424,46.427-48.7,6.7-8.078,13.312-16.259,20.752-23.678a105.6,105.6,0,0,1,25.645-18.967c10.015-5.254,20.614-9.382,31.084-13.623,10.817-4.381,21.719-8.576,32.851-12.09,5.5-1.735,11.049-3.268,16.645-4.648,5.465-1.348,10.956-2.632,16.306-4.4a70.384,70.384,0,0,0,26.176-15.363c15.525-14.463,23.7-34.73,27.311-55.292.481-2.741.88-5.493,1.24-8.252a2.512,2.512,0,0,0-2.5-2.5,2.564,2.564,0,0,0-2.5,2.5" transform="translate(-99.098 -738.161)"/><path class="e" d="M81.48,749.373c7.081,11.156,22.415,12.83,33.833,8.208,13.155-5.326,22.909-16.786,30.493-28.393,4.394-6.725,8.19-13.814,11.969-20.9,1.515-2.838-2.8-5.366-4.317-2.523-6.226,11.664-12.538,23.53-21.485,33.382-8.052,8.867-19.069,17.073-31.7,15.792-5.6-.568-11.385-3.228-14.473-8.094-1.719-2.709-6.048-.2-4.317,2.524" transform="translate(-99.098 -738.161)"/><path class="e" d="M409.917,792.382a184.775,184.775,0,0,0-40.293,16.579,179.308,179.308,0,0,0-34.829,25.33q-3.857,3.594-7.483,7.423c-2.581,2.727-5.6,5.652-4.851,9.756.629,3.425,3.918,6.047,7.171,6.835,4.2,1.017,8.429-.382,12.367-1.754q24.73-8.622,49.44-17.308t49.4-17.421l6.113-2.164a2.564,2.564,0,0,0,1.746-3.076,2.522,2.522,0,0,0-3.075-1.746q-23.628,8.371-47.273,16.69-23.531,8.278-47.078,16.5c-3.91,1.366-7.815,2.748-11.732,4.093-3.027,1.041-6.991,2.507-10.045.8a3.879,3.879,0,0,1-2.178-2.613c-.126-1.261,1.1-2.428,1.878-3.282,2.278-2.49,4.646-4.9,7.076-7.244a172.81,172.81,0,0,1,32.312-24.457,178.259,178.259,0,0,1,37.685-16.658q2.481-.766,4.982-1.463c3.1-.864,1.78-5.689-1.329-4.821" transform="translate(-99.098 -738.161)"/><path class="e" d="M403.01,990.566c-20.035,10.854-35.077,30.742-39.566,53.144a70.637,70.637,0,0,0-1.269,18.753,2.56,2.56,0,0,0,2.5,2.5,2.522,2.522,0,0,0,2.5-2.5c-1.48-21.381,7.829-42.453,23.43-56.913a73.215,73.215,0,0,1,14.929-10.667c2.83-1.533.308-5.851-2.524-4.317" transform="translate(-99.098 -738.161)"/></g></g><path class="f" d="M400.986,1026.564H99.1v-288.4H400.986v288.4h0v-288.4H99.1v288.4Z" transform="translate(-98.892 -54.516)"/><g transform="translate(0 0)"><g class="b"><rect class="g" width="301.887" height="288.403"/></g></g><g transform="translate(0 0)"><g class="h"><rect class="i" width="273.103" height="288.403" transform="translate(0 0)"/></g></g><g transform="translate(0 0)"><g class="b"><path class="e" d="M55.9,105.048a7.348,7.348,0,0,0,1.777,7.317,10.2,10.2,0,0,0,7.489,3.225c5.45.106,10.848-3.032,15.448-5.657,8.553-4.88,16.2-11.221,23.321-17.987,14.106-13.407,26.484-28.93,42.668-39.993,7.72-5.277,16.738-9.9,26.366-9.316a15.769,15.769,0,0,1,11.5,5.545c3.069,3.8,4.088,8.928,4.214,13.7.283,10.733-4.233,20.813-10.092,29.571-6.1,9.121-13.869,16.882-21.515,24.692-7.547,7.709-15.106,15.575-20.946,24.7a58.855,58.855,0,0,0-7.2,15.145c-1.549,5.381-1.716,11.61,1.637,16.371,3.043,4.321,7.958,6.9,13.277,6.013,4.427-.738,8.048-3.652,11.9-5.721a9.932,9.932,0,0,1,5.011-1.5,4.94,4.94,0,0,1,3.523,1.828c2.012,2.875,1.355,7.282.22,10.7-3.685,11.083-10.729,20.769-15.4,31.426-4.492,10.256-7.327,22.366-3.355,33.262a24.177,24.177,0,0,0,9.571,12.477,16.739,16.739,0,0,0,15.273,1.23c9.66-3.937,15.2-13.472,18.945-22.684,3.564-8.752,5.937-18.128,11.347-26.008,2.607-3.8,6.227-7.357,10.792-8.573a10.846,10.846,0,0,1,10.256,2.537c6.107,5.644,7.166,15,7.06,22.929-.164,12.237-2.364,24.306-5.041,36.212-2.714,12.076-5.932,24.041-8.213,36.212-2.295,12.241-3.874,24.975-1.061,37.272A43.441,43.441,0,0,0,230.5,365.111c8.828,6.633,20.1,8.043,30.765,6.375,11-1.72,21.35-6.56,30.782-12.315A129.246,129.246,0,0,0,317.2,339.309a103.9,103.9,0,0,0,18.435-25.353c5.176-10.2,8.62-21.828,7.458-33.354-1.155-11.464-7.045-21.068-13.82-30.092-3.351-4.463-6.838-8.825-9.984-13.437a129.553,129.553,0,0,1-8.612-14.6,125.935,125.935,0,0,1-13.336-64.3,29.262,29.262,0,0,1,2.925-11.637,14.005,14.005,0,0,1,3.423-4.474,8.722,8.722,0,0,1,3.989-1.827c2.679-.392,5.287.605,7.6,1.865a39.021,39.021,0,0,1,6.484,4.463A96.128,96.128,0,0,1,332.637,157.9c6.884,8.072,13.994,16.438,23.977,20.735a29.451,29.451,0,0,0,15.908,2.34,34.108,34.108,0,0,0,14.985-6.443c17.277-12.522,27.887-34.082,28.5-55.259.636-22.049-9.9-42.139-16.323-62.666-3.045-9.726-5.186-19.744-4.64-29.988.171-3.215-4.829-3.206-5,0-1.162,21.794,9.031,41.8,15.59,61.993,3.261,10.041,5.732,20.434,5.361,31.059a66.849,66.849,0,0,1-8.094,29.339c-4.868,8.985-11.838,17.623-20.628,23.02a26.137,26.137,0,0,1-14.462,4.24,28.089,28.089,0,0,1-13.949-4.747c-8.906-5.626-14.958-14.374-21.953-22.029a60.06,60.06,0,0,0-12.146-10.551c-4.487-2.822-9.938-4.945-15.2-3.026-8.42,3.074-11.532,13.216-12.162,21.323a124.9,124.9,0,0,0,2.052,33.01,132.633,132.633,0,0,0,10.4,31.674c4.787,10.127,11.012,19.2,17.794,28.072,6.523,8.533,13.226,17.455,15.122,28.289,1.928,11.009-1.2,22.514-6.062,32.359-9.241,18.693-24.842,33.694-42.536,44.417-16.74,10.146-41.366,19.266-58.1,4.1-17.518-15.885-13.454-41.908-9.026-62.5,2.585-12.024,5.8-23.9,8.251-35.957,2.359-11.617,4.347-23.807,3.618-35.7-.505-8.237-3.242-17.5-10.17-22.606a15.865,15.865,0,0,0-12.662-2.6c-5.04,1.063-9.44,4.518-12.6,8.469-6.1,7.624-8.956,17.053-12.323,26.061-3.154,8.44-7.35,17.765-15.655,22.28a12.267,12.267,0,0,1-13.28-.5c-4.038-2.778-6.439-7.448-7.567-12.1-2.645-10.918,1.506-22.252,6.374-31.906,2.654-5.265,5.613-10.369,8.276-15.629,2.349-4.641,4.971-9.637,5.845-14.816.713-4.23.52-8.99-2.451-12.369-2.995-3.408-7.9-3.789-11.9-2.162-3.939,1.6-7.244,4.58-11.28,5.924a7.828,7.828,0,0,1-5.664-.012,9.787,9.787,0,0,1-4.556-4.1c-2.809-4.753-1.123-10.749.806-15.5a67.04,67.04,0,0,1,7.593-13.419c12.622-17.77,31.013-30.618,42.353-49.427,5.545-9.2,9.382-19.867,8.518-30.744-.427-5.37-1.926-10.636-5.325-14.9A19.76,19.76,0,0,0,176.057,38c-9.8-1.617-19.8,2.024-28.057,7.094a134.444,134.444,0,0,0-22.855,18.348c-13.836,13.4-26.211,28.733-42.468,39.367A65.451,65.451,0,0,1,70.2,109.527c-2.2.828-4.955,1.638-7.236.629a4.693,4.693,0,0,1-1.98-1.644,2.067,2.067,0,0,1-.261-2.135,2.523,2.523,0,0,0-1.746-3.075,2.55,2.55,0,0,0-3.075,1.746" transform="translate(-98.892 -70.837)"/><path class="e" d="M208.438,56.917c3.883,12.639,2.806,26-1.492,38.392-4.468,12.878-12.226,24.509-21.6,34.328-4.911,5.144-10.282,10.226-13.067,16.913-2.338,5.616-2.546,12.783,1.089,17.927,3.262,4.617,8.626,6.348,13.346,9.018a15.7,15.7,0,0,1,2.672,1.805c.289.261.831.829.918.942-.075-.1.222.343.285.451s.361.74.22.382a4.68,4.68,0,0,1-.014,3.3,17.031,17.031,0,0,0-1.043,5.192c.26,6.451,7.6,9.01,13.065,7.971,6.667-1.267,10.331-7.677,14.586-12.247,2.087-2.241,4.682-4.47,7.812-4.963a7.984,7.984,0,0,1,6.794,2.443,23.869,23.869,0,0,1,4.661,7.088c1.581,3.347,2.955,6.809,4.323,10.247a169.249,169.249,0,0,1,7.393,22.523,132.9,132.9,0,0,1,3.35,23.708c.94,16.117-.059,32.276.835,48.394a139.955,139.955,0,0,0,3.2,24.027c1.562,6.7,4.037,13.36,8.7,18.54a23.121,23.121,0,0,0,17.379,7.729c7.172-.2,12.653-4.653,16-10.762,7.3-13.324,6.377-29.483,2.067-43.6a165.393,165.393,0,0,0-8.942-22.042c-3.4-7.207-6.864-14.376-10.11-21.654q-9.906-22.211-17.942-45.2c-2.556-7.3-5.043-14.648-7.22-22.074a110.871,110.871,0,0,1-4.149-19.409,51.58,51.58,0,0,1,1.023-18.761,32.6,32.6,0,0,1,9.507-15.757,44.041,44.041,0,0,1,16.654-9.064,69.247,69.247,0,0,1,20.093-3.2,29.907,29.907,0,0,1,10.844,1.719,27.484,27.484,0,0,1,8.211,5.273c2.572,2.263,4.921,4.762,7.357,7.166q4.021,3.972,8.4,7.554a118.334,118.334,0,0,0,18.62,12.653c6.283,3.383,13.152,5.982,20.314,6.538a25.121,25.121,0,0,0,19.157-6.236c5.061-4.646,8.043-11.186,10.368-17.527A83.787,83.787,0,0,0,399.22,62.7a2.521,2.521,0,0,0-3.421-.9,2.557,2.557,0,0,0-.9,3.421,79.292,79.292,0,0,1,6.718,41.741,77.973,77.973,0,0,1-5.2,20.584c-2.29,5.705-5.449,11.722-10.818,15.076-5.58,3.483-12.369,3.408-18.561,1.843-6.781-1.714-12.944-5.042-18.8-8.785a118.3,118.3,0,0,1-17.576-13.708c-4.954-4.683-9.429-10.069-15.389-13.541-6.546-3.814-14.2-4.32-21.59-3.65a74.274,74.274,0,0,0-19.813,4.334,46.582,46.582,0,0,0-16.562,10.3,37.557,37.557,0,0,0-9.517,16.611c-3.479,12.75-1.007,26.468,2.482,38.932,4.186,14.949,9.556,29.65,15.2,44.1,5.844,14.954,12.347,29.617,19.269,44.1,6.416,13.424,13,27.454,13.479,42.6a43.662,43.662,0,0,1-4.08,20.787,19.142,19.142,0,0,1-5.577,7.245,12.492,12.492,0,0,1-7.988,2.23c-5.969-.269-11.274-3.879-14.525-8.752-3.854-5.778-5.438-12.768-6.632-19.513-2.772-15.672-2.224-31.7-2.255-47.544-.032-15.907-.789-31.811-5.1-47.212a195.759,195.759,0,0,0-7.955-22.367c-2.389-5.747-4.673-12.344-9.705-16.374a12.726,12.726,0,0,0-8.732-2.979,16.48,16.48,0,0,0-9.391,4.167c-2.564,2.129-4.514,4.824-6.662,7.344-1.875,2.2-4.037,4.574-6.829,5.586a7.829,7.829,0,0,1-6.294-.473,3.7,3.7,0,0,1-1.035-.786,4.1,4.1,0,0,1-.552-.8,2.284,2.284,0,0,1-.168-1.406,13.023,13.023,0,0,1,.626-2.416c.859-2.85,1.079-5.791-.539-8.424a14.816,14.816,0,0,0-5.48-4.815c-4.255-2.432-9.823-3.924-12.321-8.306-2.852-5-1.258-11.228,1.578-15.834,3.655-5.936,9.161-10.5,13.715-15.708a107.116,107.116,0,0,0,12.027-16.681c6.722-11.587,11.222-24.733,11.509-38.209a60.235,60.235,0,0,0-2.611-18.924c-.942-3.067-5.77-1.759-4.821,1.329" transform="translate(-98.892 -70.837)"/><path class="e" d="M226.908,62.1c4.386,10.889,1.866,22.94-2.957,33.246-5.177,11.062-12.765,20.757-18.731,31.374-2.521,4.488-4.85,9.069-5.255,14.284-.347,4.464,1.271,9.2,5.522,11.262,5.344,2.589,10.913-.056,14.918-3.809s6.809-8.829,9.58-13.531c5.664-9.612,10.659-19.746,17.573-28.557a62.79,62.79,0,0,1,25.088-19.384,65.13,65.13,0,0,1,31.929-4.734c12.39,1.307,24.083,6.148,36.394,7.9,10.427,1.486,22.07,1.028,31.171-4.875a33.269,33.269,0,0,0,10.465-11.5c2.6-4.469,4.546-9.275,7.081-13.777a37.86,37.86,0,0,1,4.08-6.021,2.564,2.564,0,0,0,0-3.535,2.52,2.52,0,0,0-3.535,0,60.593,60.593,0,0,0-7.974,13.1c-2.135,4.384-4.222,8.974-7.4,12.724-6.667,7.87-17.1,9.976-26.978,9.555-11.848-.505-23.1-4.852-34.622-7.213a72.327,72.327,0,0,0-33.581.705,67.531,67.531,0,0,0-28.155,15.334c-8.153,7.521-14.045,17.066-19.5,26.624-2.731,4.786-5.388,9.616-8.272,14.313-2.654,4.323-5.414,9.07-9.973,11.638a6.551,6.551,0,0,1-5.721.741,4.674,4.674,0,0,1-2.845-3.325c-.974-3.522.392-7.844,2.093-11.22,5.441-10.8,12.919-20.4,18.666-31.023,5.44-10.057,9.423-21.646,7.915-33.219a34.12,34.12,0,0,0-2.159-8.41,2.578,2.578,0,0,0-3.075-1.746,2.517,2.517,0,0,0-1.746,3.075" transform="translate(-98.892 -70.837)"/><path class="e" d="M410.715,201.7c-12.748-.775-25.558-1.549-38.1-4.105a109.979,109.979,0,0,1-17.875-5.141c-5.791-2.249-12.168-5.378-18.487-3.256a14.866,14.866,0,0,0-9.416,10.842c-1.3,5.442.209,10.855,2.841,15.661,3.051,5.573,7.293,10.533,11.1,15.593q6.127,8.144,12.254,16.287a122.232,122.232,0,0,1,10.052,15.05,48.444,48.444,0,0,1,5.6,17.532c1.26,11.087-.133,22.572-2.511,33.428a145.838,145.838,0,0,1-25.46,55.331,152.042,152.042,0,0,1-46.113,41.1q-3.392,1.953-6.881,3.728c-2.867,1.463-.34,5.778,2.524,4.317a156.465,156.465,0,0,0,48.86-39.07,153.311,153.311,0,0,0,29.326-54.146,137.609,137.609,0,0,0,5.494-30.735,74.132,74.132,0,0,0-1.089-19.429,55.652,55.652,0,0,0-6.946-17.248A169.27,169.27,0,0,0,355.431,242.5l-12.4-16.479c-5.626-7.475-15.983-18.4-9.884-28.3a8.672,8.672,0,0,1,4.277-3.649c2.719-1,5.609-.514,8.306.3,3.059.919,5.966,2.276,8.956,3.387s6.011,2.062,9.077,2.888c12.315,3.317,25.092,4.588,37.78,5.468,3.056.212,6.114.4,9.172.585,3.214.195,3.2-4.805,0-5" transform="translate(-98.892 -70.837)"/><path class="e" d="M80.67,125.845c3.523-1.9,7.986-.507,10.911,2,3.876,3.327,5.034,8.473,5.281,13.377.309,6.142-.155,12.359-.331,18.5q-.28,9.82-.562,19.64c-.374,13.063-.828,26.125-1.116,39.19-.124,5.621-.032,11.4,1.578,16.837a30.011,30.011,0,0,0,9.041,13.8c3.993,3.582,8.539,6.465,12.894,9.571A103.054,103.054,0,0,1,130.433,268.8c7.144,6.955,13.354,15.236,16.444,24.815a56.283,56.283,0,0,1,2.295,16.319c.133,6.154.078,12.413,1.653,18.413.66,2.515,1.952,5.22,4.68,5.977,2.768.767,5.763-.727,8.169-1.98a32.89,32.89,0,0,0,10.475-8.873c6-7.6,9.212-16.834,11.7-26.079,2.613-9.713,4.935-19.89,10.853-28.228a33.348,33.348,0,0,1,4.844-5.387l-3.927-.506c5.035,7.919,2.264,17.682-.528,25.893-3.368,9.9-6.818,19.71-9.458,29.846a287.436,287.436,0,0,0-9.156,63.41c-.352,11.372.306,22.974,5.284,33.4a2.513,2.513,0,0,0,3.927.506,27.57,27.57,0,0,0,6.628-16.2,2.5,2.5,0,0,0-5,0,21.9,21.9,0,0,1-5.164,12.663l3.927.506c-4.314-9.033-4.863-19.253-4.649-29.1a269.305,269.305,0,0,1,2.549-31.4,285.929,285.929,0,0,1,6.18-31.315c2.625-10.255,6.021-20.2,9.481-30.2,3.37-9.735,6.25-21.177.3-30.54a2.537,2.537,0,0,0-3.926-.506c-15.521,14.052-14.262,36.659-23.749,54.018a36.818,36.818,0,0,1-8.427,10.667,25.8,25.8,0,0,1-5.315,3.418,10.269,10.269,0,0,1-3.106,1.186c-.791.084-1.044-.412-1.343-1.119a27.913,27.913,0,0,1-1.561-8.487c-.234-3.014-.26-6.038-.317-9.059-.109-5.777-.448-11.549-2.051-17.131-2.861-9.966-8.819-18.786-15.935-26.217a103.959,103.959,0,0,0-11.8-10.458c-4.215-3.241-8.767-6.026-12.935-9.325-3.973-3.145-7.684-6.848-9.54-11.662-2.044-5.3-2.192-11.043-2.1-16.652.225-12.937.727-25.875,1.1-38.809l.555-19.392c.18-6.29.6-12.629.416-18.922-.164-5.538-1.177-11.327-4.695-15.782a17.327,17.327,0,0,0-12.269-6.531,12.658,12.658,0,0,0-6.794,1.544c-2.832,1.528-.311,5.846,2.524,4.317" transform="translate(-98.892 -70.837)"/><path class="e" d="M143.193,76.114c-11.646,1.233-21.412,7.953-29.475,16.09-7.62,7.69-17.4,18.611-12.347,30.235,2.252,5.187,7.307,7.952,12.775,8.39,5.673.454,11.262-1.453,16.3-3.866a93.472,93.472,0,0,0,15.758-9.871c4.73-3.57,9.344-7.715,12.033-13.1,2.932-5.872,3.648-13.169.118-18.964-3.359-5.515-9.475-8.515-15.416-10.422-3.071-.986-4.386,3.84-1.329,4.821,4.316,1.386,8.939,3.406,11.762,7.122,2.886,3.8,2.865,8.75,1.328,13.085-1.685,4.754-5.384,8.543-9.195,11.694a94.2,94.2,0,0,1-13.59,9.227c-4.227,2.393-8.816,4.579-13.69,5.183-4.033.5-8.835-.09-11.369-3.665-2.506-3.535-2.238-8.27-.584-12.1,2.04-4.722,5.7-8.678,9.183-12.38,7.395-7.861,16.617-15.307,27.734-16.484a2.572,2.572,0,0,0,2.5-2.5,2.517,2.517,0,0,0-2.5-2.5" transform="translate(-98.892 -70.837)"/><path class="e" d="M74.528,284.553c10.611,10.345,21.439,20.921,29.046,33.765a62.586,62.586,0,0,1,7.939,20.525,66.982,66.982,0,0,1-.575,25.106,88.375,88.375,0,0,1-9.554,25.791c-1.572,2.811,2.745,5.335,4.318,2.523,8.408-15.037,13.322-33.075,11.283-50.357-1.885-15.979-10.227-29.717-20.507-41.744C90.721,293.426,84.4,287.2,78.064,281.017c-2.306-2.247-5.845,1.285-3.536,3.536" transform="translate(-98.892 -70.837)"/></g></g><g transform="translate(0.207 342.327)"><g class="b"><rect class="j" width="301.887" height="288.403"/></g></g><g transform="translate(0.206 342.327)"><g class="d"><path class="e" d="M150.663,382a288.153,288.153,0,0,1-29.21,35.682A297.383,297.383,0,0,1,86.872,448.5C74.722,457.726,61.834,465.681,48.7,473.4c-12.2,7.165-24.67,14.619-34.482,24.971a58.7,58.7,0,0,0-11.83,17.6c-2.9,6.978-3.775,15.557.949,21.978,4.058,5.515,10.709,8.179,17.371,8.735,7.562.63,14.953-1.99,21.427-5.713,7.007-4.029,13.335-9.274,19.664-14.269q9.556-7.542,18.846-15.415c12.5-10.558,24.686-21.478,36.757-32.52,12.012-10.989,23.912-22.1,35.9-33.113,12.037-11.055,24.172-22.011,36.6-32.631,12.33-10.541,24.95-20.753,38.023-30.363a238.785,238.785,0,0,1,20.186-13.883c6.485-3.809,14.127-7.257,21.84-6.228,6.652.887,11.923,5.289,14.916,11.157,3.314,6.5,3.155,13.965,1.285,20.868-2.111,7.787-6.077,15.015-10.274,21.855a167.065,167.065,0,0,1-13.047,18.28c-9.824,12.034-20.971,22.915-32.431,33.376-11.476,10.477-23.336,20.527-34.765,31.058-11.31,10.421-22.227,21.345-31.862,33.353-9.423,11.743-17.592,24.474-23.219,38.481-2.578,6.419-5.04,13.342-5.721,20.266-.536,5.443.185,11.711,3.3,16.348a13.055,13.055,0,0,0,6.294,5.105,14.2,14.2,0,0,0,10.19-.54,131.528,131.528,0,0,0,12-6.126l12.1-6.416,24.428-12.948q6.053-3.208,12.1-6.416c3.667-1.944,7.3-4.055,11.132-5.658,5.6-2.34,13.818-4.2,17.7,2.01,3.315,5.3,1.969,12.426.762,18.163-3.387,16.1-10.066,31.258-13.925,47.228-1.841,7.62-3.24,15.687-2.858,23.556.289,5.972,2.226,13.012,7.842,16.117,7.08,3.914,15.1-.714,21.186-4.482a81.536,81.536,0,0,0,15.143-12.117c9.161-9.311,15.992-20.615,21.039-32.607a164.247,164.247,0,0,0,10.469-37.97c2.327-14.638,2.965-29.454,3.642-44.24.733-16.006,1.414-32.089,4.04-47.921,2.565-15.464,6.981-30.9,14.941-44.5,6.9-11.793,17.306-22.439,31.326-24.685a30.341,30.341,0,0,1,18.134,2.462c6.156,3.1,10.008,8.635,11.78,15.216,1.949,7.244,1.8,15.075,1.037,22.482a109.48,109.48,0,0,1-4.952,22.34c-4.925,15.234-12.266,29.534-19.367,43.833-7.368,14.837-14.243,29.839-19.488,45.576a281.46,281.46,0,0,0-14.182,99.227c.313,7.989.679,16.182,2.156,24.054,1.3,6.953,4.552,13.788,11.128,17.132,6.219,3.164,13.5,2.631,19.992.622,7-2.167,13.232-5.95,19.148-10.2a173.481,173.481,0,0,0,32.973-30.8,166.632,166.632,0,0,0,22.9-36.523,2.574,2.574,0,0,0-.9-3.42,2.519,2.519,0,0,0-3.42.9A162.219,162.219,0,0,1,411.225,683.1a168.856,168.856,0,0,1-33.018,30.121c-5.7,3.951-11.874,7.35-18.7,8.861-5.963,1.32-12.554.789-16.974-3.859-4.654-4.9-5.25-12.418-5.857-18.8q-1.184-12.411-1.224-24.894a273.361,273.361,0,0,1,4.356-49.636A278.9,278.9,0,0,1,353.082,576.7c5.7-15.2,13.079-29.6,20.237-44.134,6.991-14.2,13.8-28.725,17.651-44.143a100.539,100.539,0,0,0,3.139-23.126c.089-7.607-.711-15.479-4.166-22.367-6.454-12.864-21.65-17.03-34.986-14.365-14.249,2.848-25.178,13.849-32.413,25.9-8.115,13.516-12.836,28.951-15.573,44.4-2.815,15.876-3.687,32.007-4.432,48.087-.682,14.713-1.125,29.512-3.292,44.1a167.872,167.872,0,0,1-9.854,37.8c-4.664,11.641-11.161,22.72-19.853,31.816a76.279,76.279,0,0,1-14.518,11.918,45.829,45.829,0,0,1-9.2,4.807c-2.957,1.016-6.267,1.165-8.582-.858-4.409-3.85-4.393-10.939-4.107-16.4a105.04,105.04,0,0,1,4.368-23.408c4.459-15.535,11.168-30.73,13.265-46.857.81-6.225.368-13.426-4.228-18.193-5.56-5.769-14.083-4.831-20.89-2.139a112.365,112.365,0,0,0-11.153,5.465l-12.1,6.416L178.182,594.24q-6.054,3.207-12.105,6.416c-3.918,2.077-7.794,4.284-11.791,6.208a13.309,13.309,0,0,1-5.359,1.547,7.828,7.828,0,0,1-3.234-.566,6.818,6.818,0,0,1-2.415-1.758,10.6,10.6,0,0,1-1.772-2.662c-2.116-4.265-2.264-10.161-1.244-14.85a102.748,102.748,0,0,1,6.981-20.628c6.142-13.486,14.677-25.76,24.271-37.005a351.211,351.211,0,0,1,32.262-32.469c11.566-10.436,23.434-20.538,34.827-31.167,11.272-10.515,22.079-21.563,31.5-33.789a161.854,161.854,0,0,0,12.607-18.831c4.055-7.145,7.811-14.8,9.185-22.974,1.24-7.381.48-14.884-3.218-21.481a24.62,24.62,0,0,0-16.159-12.29c-8.049-1.672-16.109.824-23.247,4.481-7.253,3.715-13.879,8.671-20.468,13.432-13.2,9.542-25.957,19.689-38.4,30.194C178.027,416.5,165.956,427.3,154,438.231c-12.015,10.984-23.914,22.1-35.9,33.109-11.938,10.968-23.966,21.842-36.276,32.391q-9.241,7.92-18.712,15.563c-6.186,4.977-12.387,10.044-18.965,14.5-6,4.068-12.854,7.731-20.265,7.965-5.8.183-12.32-1.519-16.115-6.2-4.6-5.681-2.8-13.786.154-19.779a59.1,59.1,0,0,1,12.042-16.11c10.061-9.771,22.429-16.783,34.45-23.823a350.758,350.758,0,0,0,38.175-25.476,300.778,300.778,0,0,0,34.426-31.278,296.236,296.236,0,0,0,27.967-34.566,2.523,2.523,0,0,0-.9-3.421,2.551,2.551,0,0,0-3.42.9" transform="translate(-99.098 -404.992)"/><path class="e" d="M88.441,562.685c-2.03,16.479-4.1,33.931,1.823,49.887,4.987,13.44,15.081,24.763,29.2,28.661,15.344,4.236,31.784-.138,45.874-6.514,3.05-1.38,6.863-3.259,10.138-1.816,2.041.9,3.419,3.016,4.184,5.194a25.8,25.8,0,0,1,1.272,8.59c.035,4.47-.188,8.938-.478,13.4-1.034,15.861-3,32.461,2.827,47.678,4.67,12.195,13.73,23.171,26.713,26.762,14.963,4.139,30.193-2.518,41.754-11.806C263.6,713.2,271.744,700.069,281.989,689a90.566,90.566,0,0,1,8.3-7.975c2.533-2.119,5.868-5.014,9.406-4.787,2.648.17,3.791,2.192,4.324,4.538.647,2.849.28,6.029.107,9.013a129.264,129.264,0,0,0,1.214,26.166,126.422,126.422,0,0,0,2.581,12.905c.864,3.39,1.946,6.627,4.208,9.361a8.362,8.362,0,0,0,8.537,3.11c3.122-.773,1.8-5.6-1.329-4.822a2.667,2.667,0,0,1-2.581-.677,9.878,9.878,0,0,1-2.334-3.179,21.494,21.494,0,0,1-1.5-4.426q-.816-3.129-1.472-6.3a123.1,123.1,0,0,1-2.53-25.455c.016-3.818.424-7.619.456-11.431a18.659,18.659,0,0,0-1.738-8.873,9.353,9.353,0,0,0-8.142-4.941c-4.064-.062-7.69,2.268-10.771,4.669-12,9.346-20.309,22.265-30.353,33.488-9.335,10.43-21.837,20.23-36.335,21.3a30.488,30.488,0,0,1-18.694-4.551,37.233,37.233,0,0,1-12.119-13.163,52.1,52.1,0,0,1-6.064-17.472c-1.362-8.376-.945-17.007-.394-25.435.554-8.478,1.579-17.086,1.113-25.591-.312-5.7-1.97-12.438-7.251-15.553-3.328-1.964-7.313-1.809-10.873-.592-3.7,1.265-7.178,3.139-10.84,4.515a73.035,73.035,0,0,1-22.326,4.977c-7.288.321-14.693-.848-21.161-4.355A38.2,38.2,0,0,1,99.42,620.017c-8.354-13.345-8.8-29.337-7.411-44.573.389-4.262.909-8.511,1.432-12.759a2.514,2.514,0,0,0-2.5-2.5,2.562,2.562,0,0,0-2.5,2.5" transform="translate(-99.098 -404.992)"/><path class="e" d="M369.244,454.468c-2.891-4.5-8.717-5.77-13.677-4.474-5.608,1.466-9.537,6.2-12.586,10.839a117.044,117.044,0,0,0-15.337,34.6c-1.4,5.35-2.614,11.1-1.283,16.6,1.338,5.519,6.181,11.026,12.363,9.534,2.762-.667,5.4-2.448,7.7-4.048a51.367,51.367,0,0,0,6.642-5.465,53.392,53.392,0,0,0,9.887-13.3c6.741-12.823,7.965-27.619,5.649-41.752a2.519,2.519,0,0,0-3.076-1.746,2.56,2.56,0,0,0-1.746,3.075c1.841,11.234,1.146,23.027-3.15,33.646A47.76,47.76,0,0,1,343.1,513.741c-1.808,1.2-4.223,3.078-6.481,3.1-1.977.018-3.54-1.866-4.422-3.449-2.114-3.8-1.526-8.674-.664-12.741a109.447,109.447,0,0,1,12.07-31.23c2.661-4.676,5.6-10.3,10.3-13.253,3.222-2.029,8.767-2.7,11.033.825,1.733,2.7,6.063.194,4.317-2.524" transform="translate(-99.098 -404.992)"/><path class="e" d="M312.327,394.962c-7.752,13.493-17.329,25.8-27.737,37.332-10.637,11.789-22.085,22.81-33.548,33.785-11.485,11-23.023,21.958-33.843,33.618-10.7,11.529-20.729,23.785-29.013,37.182-2.136,3.453-4.952,8.155-1.6,11.829,2.808,3.074,7.551,2.107,10.986.87,7.865-2.832,14.809-7.468,21.2-12.794,6.348-5.294,12.032-11.29,18.115-16.871,2.545-2.335,5.719-4.363,9.113-2.459,3.155,1.771,4.79,5.2,5.142,8.689.464,4.6-.627,9.229-.093,13.812a7.346,7.346,0,0,0,3.146,5.671,7,7,0,0,0,5.688.6c4.005-1.189,6.792-4.586,8.881-8.026a43.478,43.478,0,0,0,4.585-11.337c1.056-3.935,1.775-7.949,2.623-11.931a117.4,117.4,0,0,1,3.437-12.674,150,150,0,0,1,10.781-24.261c4.335-7.961,9.185-15.63,14.218-23.165,5.022-7.518,10.139-14.992,15.422-22.329,9.925-13.786,22.009-27.215,38.814-32.248a42.974,42.974,0,0,1,12.01-1.848c3.215-.028,3.223-5.028,0-5-17.514.151-32.94,10.26-44.314,22.9-5.964,6.626-11.091,13.949-16.161,21.264-5.133,7.4-10.261,14.815-15.1,22.414-9.485,14.883-18,30.7-22.556,47.854-2.085,7.85-2.849,16.154-5.97,23.7-1.291,3.122-3.2,6.841-6.026,8.848-.929.66-2.648,1.653-3.676,1.022-1.141-.7-.915-2.958-.9-4.087.045-4.73.757-9.443-.233-14.13a15.581,15.581,0,0,0-6.434-9.588,11.1,11.1,0,0,0-11.726-.421c-3.55,1.962-6.42,5.287-9.308,8.078-5.769,5.576-11.538,11.252-18.08,15.931a64.07,64.07,0,0,1-10.379,6.12,37.239,37.239,0,0,1-5.336,2.044c-1.177.336-2.909.709-3.884.176-1.173-.641-.176-2.52.339-3.463.924-1.691,1.993-3.317,3.031-4.94q3.151-4.929,6.6-9.658c4.481-6.161,9.314-12.06,14.35-17.774,10.365-11.76,21.59-22.721,32.893-33.568s22.694-21.571,33.49-32.908c10.717-11.255,20.857-23.144,29.443-36.121q3.118-4.713,5.935-9.614c1.606-2.795-2.713-5.316-4.317-2.524" transform="translate(-99.098 -404.992)"/><path class="e" d="M410.207,540.4a158.523,158.523,0,0,0-27.044,36.741,112.334,112.334,0,0,0-12.816,42.63,87.8,87.8,0,0,0,5.756,39.063A81.389,81.389,0,0,0,398.7,691.166a62.677,62.677,0,0,0,17.38,10.886c6.063,2.379,13.349,3.472,19.4.5a14.456,14.456,0,0,0,3.83-2.8c2.27-2.286-1.264-5.823-3.535-3.535-4.14,4.169-10.619,3.51-15.78,1.925-5.807-1.782-11.212-5.243-15.937-9A76.2,76.2,0,0,1,381.77,659.57a83.326,83.326,0,0,1-6.648-36.2,102.568,102.568,0,0,1,10.515-40.04,148.139,148.139,0,0,1,24.378-35.45q1.833-2,3.728-3.948c2.242-2.31-1.289-5.85-3.536-3.536" transform="translate(-99.098 -404.992)"/><path class="e" d="M72.652,560.576c7.048-14.422,24.025-20.2,37.666-26.944,7.393-3.654,14.76-7.774,20.67-13.618,6.9-6.827,10.625-15.769,14.9-24.3a58.876,58.876,0,0,1,7.438-11.992,39.879,39.879,0,0,1,12.189-9.283c4.869-2.552,9.982-4.6,14.89-7.071a124.635,124.635,0,0,0,12.65-7.343c16.585-10.966,30.313-25.545,42.061-41.48,11.715-15.892,21.478-33.115,30.839-50.465q1.711-3.174,3.41-6.356c1.517-2.837-2.8-5.365-4.317-2.523-9.314,17.425-18.826,34.811-30.121,51.052-11.044,15.88-23.98,30.786-39.7,42.2A127.5,127.5,0,0,1,182.84,460.4c-4.57,2.572-9.328,4.728-14.088,6.919a66.567,66.567,0,0,0-14.4,8.392,42.483,42.483,0,0,0-9.375,11.2c-5.028,8.333-8.082,17.828-14.022,25.618-4.935,6.469-11.863,10.885-18.97,14.644C97.918,534.619,81.011,539.8,71.25,553.2a32.368,32.368,0,0,0-2.915,4.856,2.565,2.565,0,0,0,.9,3.421,2.523,2.523,0,0,0,3.42-.9" transform="translate(-99.098 -404.992)"/><path class="e" d="M78.2,657.459c14.456,8.345,28.734,17.3,41.087,28.607,11.921,10.914,22.024,24.173,27.123,39.664a62.9,62.9,0,0,1,3,26.421,2.516,2.516,0,0,0,2.5,2.5,2.557,2.557,0,0,0,2.5-2.5c1.792-16.725-3.676-33.471-12.638-47.46-9.3-14.514-22.333-26.133-36.326-36-7.963-5.614-16.293-10.683-24.727-15.551-2.792-1.612-5.313,2.707-2.524,4.317" transform="translate(-99.098 -404.992)"/></g></g><rect class="k" width="301.887" height="288.403" transform="translate(0.207 342.327)"/></g></svg>