<svg xmlns="http://www.w3.org/2000/svg" xmlns:xlink="http://www.w3.org/1999/xlink" width="310.437" height="76.443" viewBox="0 0 310.437 76.443"><defs><style>.a{fill:none;}.b{clip-path:url(#a);}.c{fill:#090909;}</style><clipPath id="a"><rect class="a" width="310.437" height="76.443" transform="translate(0 0)"/></clipPath></defs><g transform="translate(0 0)"><g class="b"><path class="c" d="M62.858,72.607,52.421,59.525A12.9,12.9,0,0,0,30.906,61.6L23.168,76.443l6.11-15.579A12.9,12.9,0,0,0,16.72,43.271L0,43.989l16.548-2.5A12.9,12.9,0,0,0,25.5,21.818L16.523,7.7,26.96,20.779A12.9,12.9,0,0,0,48.475,18.7L56.213,3.861,50.1,19.441A12.9,12.9,0,0,0,62.661,37.033l16.72-.717-16.548,2.5a12.9,12.9,0,0,0-8.956,19.672Z"/><path class="c" d="M180.293,72.607,169.856,59.525a12.9,12.9,0,0,0-21.515,2.08L140.6,76.443l6.11-15.579a12.9,12.9,0,0,0-12.558-17.593l-16.72.718,16.548-2.5a12.9,12.9,0,0,0,8.956-19.673L133.958,7.7,144.4,20.779A12.9,12.9,0,0,0,165.91,18.7l7.738-14.839-6.11,15.58A12.9,12.9,0,0,0,180.1,37.033l16.72-.717-16.548,2.5a12.9,12.9,0,0,0-8.956,19.672Z"/><path class="c" d="M293.914,68.746,283.477,55.664a12.9,12.9,0,0,0-21.515,2.08l-7.738,14.838L260.334,57A12.9,12.9,0,0,0,247.776,39.41l-16.72.718,16.548-2.5a12.9,12.9,0,0,0,8.956-19.673L247.579,3.836l10.437,13.082a12.9,12.9,0,0,0,21.515-2.079L287.269,0l-6.11,15.58a12.9,12.9,0,0,0,12.558,17.592l16.72-.717-16.548,2.5a12.9,12.9,0,0,0-8.956,19.672Z"/></g></g></svg>