<svg xmlns="http://www.w3.org/2000/svg" xmlns:xlink="http://www.w3.org/1999/xlink" width="374.063" height="595.674" viewBox="0 0 374.063 595.674"><defs><style>.a{fill:none;}.b{clip-path:url(#a);}.c{fill:url(#b);}.d{clip-path:url(#c);}.e{fill:url(#d);}.f{clip-path:url(#e);}.g{fill:#fff;}</style><clipPath id="a"><rect class="a" width="374.062" height="595.673"/></clipPath><linearGradient id="b" x1="-0.166" y1="1.224" x2="-0.162" y2="1.224" gradientUnits="objectBoundingBox"><stop offset="0" stop-color="#e93d51"/><stop offset="1" stop-color="#b7559b"/></linearGradient><clipPath id="c"><path class="a" d="M389.736,486.05c-13.783,28.808-24.1,61.243-33.578,94.279-8.294,28.915-16.044,58.349-25.552,86.266h7.11c3.446-10.37,6.688-20.937,9.8-31.613,9.56-32.763,18.186-66.323,29.1-97.973a415.206,415.206,0,0,1,17.553-43.668,7.993,7.993,0,0,0,0-7.291,2.888,2.888,0,0,0-2.36-1.5,2.311,2.311,0,0,0-2.075,1.5M164.832,70.923c-15,20.663-30.077,41.173-45.517,60.942-15.927,20.395-32.267,39.962-49.225,57.987Q60.357,200.2,50.342,209.8v11.911a613.412,613.412,0,0,0,48.1-51.289c16.668-19.734,32.809-40.651,48.7-62.033,9.2-12.371,18.314-24.9,27.414-37.47Zm144.319,0c-2,22.476-5.382,44.669-9.364,66.334-5.818,31.648-13.275,62.417-21.69,92.423-8.564,30.536-18.078,60.323-27.913,89.8-9.906,29.686-20.145,59.065-30.148,88.663-9.953,29.445-19.679,59.117-28.567,89.478-8.859,30.258-16.9,61.225-23.405,93.077q-4.81,23.566-8.388,47.75c-1.357,9.286-2.6,18.68-3.486,28.154h6.2c1.416-14.4,3.7-28.628,5.953-42.136,5.3-31.714,12.32-62.615,20.4-92.687,8.253-30.705,17.555-60.618,27.262-90.142,9.792-29.777,20-59.177,30.06-88.71,9.98-29.311,19.821-58.772,28.924-88.851,9.077-29.987,17.43-60.622,24.375-92.124,7.048-31.967,12.813-65.03,15.854-98.712q.1-1.157.2-2.312Z" transform="translate(-50.342 -70.923)"/></clipPath><linearGradient id="d" x1="-0.183" y1="1.224" x2="-0.179" y2="1.224" xlink:href="#b"/><clipPath id="e"><rect class="a" width="374.063" height="595.673"/></clipPath></defs><g transform="translate(0 0)"><g transform="translate(0 0)"><g class="b"><rect class="c" width="374.062" height="595.673"/></g></g><g transform="translate(0 0.001)"><g class="d"><rect class="e" width="345.127" height="595.673" transform="translate(0 0)"/></g></g><g transform="translate(0 0.001)"><g class="f"><path class="g" d="M7.145,191.189c-2.506,11.6,4.692,21.108,10.909,21.729,6.83.683,13.692-5.981,19.454-11.433,10.566-10,20.028-23.006,28.834-36.916,17.553-27.725,32.922-59.925,52.991-82.863C128.9,70.775,140,61.244,151.908,62.249c5.429.458,10.6,3.917,14.223,10.863,3.947,7.576,5.307,18.252,5.526,28.04.493,22.009-4.9,42.736-12.017,60.763-7.545,19.116-17.223,35.321-26.776,51.578-9.47,16.115-18.975,32.524-26.311,51.628A170.007,170.007,0,0,0,97.8,295.5c-2.063,11.332-2.408,24.631,1.863,34.711,3.78,8.918,9.835,14.242,16.408,12.421,5.4-1.5,9.86-7.376,14.562-11.637,1.975-1.792,4.082-3.323,6.107-3.3,1.69.017,3.686,1.545,4.6,3.558,2.6,5.711,1.8,14.826.49,21.729-2.141,11.251-5.632,21.861-8.968,32.211-3.411,10.579-6.953,21.063-9.9,32.04-5.728,21.374-9.459,46.669-4.576,69.543,2.184,10.236,5.9,19.4,11.331,25.52,5.63,6.344,12.724,7.586,19.044,3.513,12.054-7.77,19.054-27.422,23.758-46.471,4.459-18.053,7.365-37.441,13.979-53.791,3.234-7.994,7.711-15.572,13.412-18.223,4.7-2.188,9.448-.173,12.824,4.934,7.685,11.625,9.018,31.085,8.887,47.564-.2,25.442-2.966,50.528-6.311,75.269-3.371,24.936-7.352,49.652-10.166,74.794-2.846,25.433-4.777,51.947-1.129,77.451,2.919,20.4,9.8,39.343,20.015,51.683,11.108,13.413,25.109,15.956,38.316,12.266,13.483-3.768,26.166-13.774,37.756-25.627a209.955,209.955,0,0,0,30.925-40.886,244.9,244.9,0,0,0,22.929-52.909c6.421-21.362,10.608-45.755,8.876-69.838-1.684-23.4-9.107-42.928-17.427-61.324-4.075-9.009-8.291-17.845-12.1-27.184-3.984-9.774-7.581-19.994-10.758-30.567-12.3-40.929-18.2-87.541-16.239-133.323a90.281,90.281,0,0,1,3.855-23.6c2.1-6.361,5.346-11.75,9.509-12.241,6.239-.732,12.336,6.767,16.882,13.163,5.031,7.079,9.379,15.382,13.642,23.721,8.534,16.694,17.36,33.785,29.7,42.623,6.2,4.439,12.827,6.309,19.53,4.717,6.738-1.6,13.077-6.672,18.563-13.308,21.357-25.827,34.555-70.339,35.3-114.191.774-45.494-12.242-86.924-20.2-129.239-3.785-20.12-6.451-40.859-5.772-62.064.212-6.631-5.938-6.613-6.15,0-1.439,44.978,11.161,86.233,19.284,127.876,4.049,20.758,7.134,42.262,6.676,64.244a213.232,213.232,0,0,1-9.883,60.208c-6.042,18.763-14.754,36.817-25.717,48.012-5.426,5.54-11.493,9.088-17.9,8.762-6.21-.316-12.1-4.311-17.306-9.791C365.292,316.905,357.783,298.827,349.1,283c-4.437-8.087-9.274-15.673-14.831-21.566-5.486-5.816-12.15-10.346-18.643-6.7-10.428,5.856-14.435,26.39-15.373,43.016a429.54,429.54,0,0,0,15.138,134.041c5.911,21.028,13.606,39.886,22.034,58.257,8.042,17.528,16.394,35.827,18.884,58.077,2.542,22.709-1.219,46.525-7.178,66.9-11.357,38.819-30.689,69.929-52.557,92.157-20.667,21.007-51.186,40.3-72.066,9.374-22.045-32.648-17.058-86.786-11.534-129.607,3.183-24.676,7.14-49.056,10.166-73.792,2.953-24.138,5.45-49.483,4.54-74.211-.627-17.041-4.033-36.156-12.59-46.684-4.55-5.6-10.428-7.31-15.9-5.272-6.3,2.347-11.747,9.667-15.664,18.018-7.437,15.859-10.935,35.311-15.13,53.913-3.994,17.707-9.459,37.336-20.15,46.1-5.406,4.428-11.348,3.568-16.154-2.5-4.723-5.961-7.539-15.267-8.872-24.74-3.2-22.707,2.084-46.176,8.166-66.16,3.264-10.723,6.876-21.135,10.129-31.868,2.881-9.5,6.087-19.726,7.16-30.334.9-8.879.636-19.058-3.258-25.965-3.851-6.827-9.815-7.283-14.734-3.871-4.795,3.323-8.867,9.389-13.793,12.1-2.319,1.275-4.638,1.561-7.017-.074-2.433-1.673-4.434-4.993-5.728-8.774-3.415-9.974-1.193-22.643,1.3-32.462a184.494,184.494,0,0,1,9.512-27.626c15.756-36.614,38.524-63.135,52.473-102.2,6.749-18.907,11.38-40.826,10.244-63.131-.572-11.22-2.519-22.2-6.876-30.969-3.756-7.561-9.328-12.315-15.084-13.813-12.128-3.156-24.429,4.43-34.643,14.927C110.714,78.19,101.428,91.522,92.71,105.624c-17.123,27.694-32.483,59.333-52.632,81.194-4.92,5.34-10.216,10.667-15.763,13.951-2.708,1.6-6.059,3.036-8.771.7a7.86,7.86,0,0,1-2.47-7.539c.566-2.617-.636-5.645-2.148-6.342-1.71-.788-3.215.974-3.782,3.6" transform="translate(-60.395 -120.528)"/><path class="g" d="M169.487,60.248c4.811,26.1,3.476,53.717-1.847,79.3a242.684,242.684,0,0,1-26.593,70.593c-6.13,10.725-12.887,21.275-16.366,35.245-2.892,11.608-3.154,26.394,1.346,37.021,4.085,9.647,10.808,13.169,16.688,18.771a22.208,22.208,0,0,1,3.157,3.581c.235.355.462.72.68,1.1.092.161.662,1.312.4.724.178.4.335.835.487,1.266.076.215.143.439.209.662.221.743-.127-.637.039.151a8.531,8.531,0,0,1,.308,2.2,23.562,23.562,0,0,1-.375,4.383c-.605,3.636-1.443,7.285-1.28,11.134.546,13.048,9.36,18.054,16.013,16.086,8.306-2.454,12.909-15.865,18.2-25.336,2.593-4.643,5.814-9.234,9.689-10.251,3.189-.839,6.175,1.384,8.44,5.047,2.533,4.094,4.28,9.358,5.779,14.642,1.959,6.912,3.664,14.062,5.359,21.166,3.657,15.317,6.909,30.942,9.229,46.989a450.017,450.017,0,0,1,4.093,48.775c1.15,33.277-.086,66.643,1.033,99.922a472.212,472.212,0,0,0,3.951,49.38c1.953,13.959,5.064,27.892,10.938,38.6,5.406,9.855,13.521,16.16,21.573,15.64,8.851-.571,15.6-9.88,19.7-22.564,8.993-27.787,7.738-61.293,2.276-90.6-2.92-15.663-6.961-30.683-11.156-45.483-4.205-14.836-8.476-29.61-12.481-44.6Q246.8,398.18,236.9,350.975c-3.173-15.118-6.263-30.328-8.959-45.708a363.853,363.853,0,0,1-5.087-39.832c-.819-12.955-.745-26.225,1.3-38.863,2.02-12.454,6.009-23.6,11.71-32.291a54.692,54.692,0,0,1,20.4-18.637,55.661,55.661,0,0,1,24.92-6.759,24.2,24.2,0,0,1,13.465,3.385c3.8,2.331,7.215,6.361,10.252,10.781,3.2,4.653,6.112,9.809,9.127,14.784q4.9,8.084,10.228,15.395a174.6,174.6,0,0,0,22.988,26.227c7.771,7.075,16.248,12.5,25.108,13.836,8.656,1.3,17.279-2.545,23.858-12.272,6.413-9.484,10.177-23.123,13.1-36.315,6.36-28.671,7.813-60.121,4.613-90.185a261,261,0,0,0-8.085-42.33c-.7-2.522-2.868-3.164-4.208-1.85-1.542,1.514-1.808,4.523-1.1,7.056,7.456,26.786,10.23,56.871,8.327,86.217a252.512,252.512,0,0,1-6.538,42.932c-2.894,11.934-6.926,24.373-13.733,31.151-7,6.965-15.453,6.516-23.092,3.17-8.353-3.661-15.956-10.585-23.189-18.338A190.576,190.576,0,0,1,320.87,194.57c-6.184-9.748-11.78-21-19.247-28.125-8.155-7.786-17.647-8.714-26.8-7.289a62.415,62.415,0,0,0-24.289,8.925,63.332,63.332,0,0,0-20.519,21.31c-5.611,9.407-9.613,21.269-11.728,34.071-4.339,26.271-1.306,54.589,2.994,80.285,5.133,30.678,11.742,60.839,18.676,90.486,7.229,30.9,15.258,61.214,23.839,91.125,7.989,27.853,16.283,56.939,16.943,88.4.309,14.692-1.032,29.7-4.93,42.981-1.667,5.676-3.774,11.3-6.843,15.135-2.938,3.673-6.478,5.117-10.1,4.845-7.384-.555-13.975-7.982-18.017-18.08-4.765-11.909-6.734-26.326-8.214-40.251-3.421-32.194-2.769-65.123-2.8-97.678-.032-33.052-.947-66.1-6.312-98.087-2.643-15.76-6.095-31.1-9.859-46.2-2.966-11.891-5.8-25.493-12.018-33.816-3.121-4.173-7-6.685-11.042-6.124-4.406.608-8.236,4.14-11.571,8.838-3.086,4.35-5.458,9.807-8.066,14.908-2.355,4.606-5.1,9.642-8.631,11.625a6.349,6.349,0,0,1-7.626-1.037,5.814,5.814,0,0,1-1.262-1.557,2.542,2.542,0,0,1-.346-.629c-.084-.2-.5-1.466-.358-.914a7.417,7.417,0,0,1-.255-2.987,37.055,37.055,0,0,1,.706-4.719c1.095-6.021,1.466-12.216-.592-17.8a25.891,25.891,0,0,0-6.781-9.944c-5.264-5.016-12.172-8.083-15.277-17.158-3.535-10.335-1.558-23.2,1.956-32.71,4.53-12.262,11.343-21.665,16.983-32.415a254.331,254.331,0,0,0,14.967-34.634,252.571,252.571,0,0,0,14.2-78.548,202.911,202.911,0,0,0-3.231-39.3c-1.165-6.322-7.1-3.624-5.93,2.741" transform="translate(-33.73 -89.002)"/><path class="g" d="M185.574,75.334c5.438,22.5,2.3,47.391-3.667,68.675-6.492,23.142-16.044,43.365-23.481,65.612-3.071,9.189-5.886,18.631-6.263,29.327-.33,9.389,1.9,18.942,7.279,22.927,6.649,4.932,13.453-.833,18.32-8.626,4.915-7.873,8.365-18.371,11.793-28.1,6.948-19.714,13.111-40.49,21.627-58.51,8.314-17.594,18.874-31.561,31.3-40.1,12.5-8.584,26.152-11.981,39.589-9.546,15.4,2.795,29.941,12.846,45.262,16.377,12.847,2.962,27.231,1.887,38.392-10.42,5.48-6.045,9.624-14.485,12.882-23.948,3.153-9.152,5.555-18.965,8.669-28.152a91.84,91.84,0,0,1,5.007-12.282,8.081,8.081,0,0,0,0-7.291c-1.107-1.856-3.264-2.124-4.349,0-4.159,8.137-7.095,17.521-9.891,27.092-2.649,9.073-5.245,18.561-9.189,26.3-8.191,16.071-20.943,20.454-33.036,19.7-14.717-.922-28.692-9.9-43-14.826-13.87-4.783-27.937-4.847-41.673,1.264-12.807,5.7-24.888,16.3-34.731,31.223-10.2,15.467-17.566,35.272-24.36,55.1-3.36,9.807-6.626,19.712-10.161,29.348-3.24,8.836-6.571,18.52-11.991,24.082-2.172,2.232-4.724,3.746-7.247,2.4-2.02-1.079-3.335-3.6-3.859-6.3-1.4-7.231.113-16.191,2.194-23.189,6.7-22.527,16.057-42.439,23.247-64.5,6.8-20.865,11.813-44.933,9.936-69.015A110.3,110.3,0,0,0,191.5,72.593c-.622-2.578-2.048-4.4-3.782-3.6-1.459.674-2.775,3.746-2.148,6.342" transform="translate(-26.93 -93.38)"/><path class="g" d="M393.251,216.012c-15.674-1.588-31.422-3.172-46.849-8.355a99.1,99.1,0,0,1-22.521-10.748c-7.133-4.622-14.9-10.952-22.686-6.825-5.973,3.164-10.183,11.845-11.752,21.83-1.795,11.42.1,22.9,3.417,33.007,3.779,11.517,9.039,21.758,13.755,32.2q7.594,16.821,15.184,33.64a299.458,299.458,0,0,1,12.582,31.481,151.215,151.215,0,0,1,6.813,35.816c1.578,23.08-.189,47.026-3.187,69.607-5.465,41.168-16.46,79.893-31.456,113.681-15.306,34.488-34.962,63.626-57.206,84.971q-4.183,4.016-8.483,7.662c-3.531,3-.422,11.9,3.1,8.9,23.164-19.7,43.916-47.422,60.591-80.8,16.3-32.625,28.857-70.477,36.2-111.27a458.915,458.915,0,0,0,6.868-63.45,256.208,256.208,0,0,0-1.272-40.137,166.012,166.012,0,0,0-8.662-36.093c-3.859-10.8-8.432-20.824-12.958-30.85q-7.681-17.019-15.364-34.034c-6.952-15.4-19.812-38-12.246-58.459,1.277-3.455,3.193-6.342,5.509-7.656,3.518-1.995,7.2-.811,10.646,1.007,3.675,1.937,7.187,4.643,10.8,6.866a96.2,96.2,0,0,0,10.9,5.767c15.231,6.86,31.031,9.5,46.721,11.319,3.852.448,7.706.841,11.56,1.231,3.953.4,3.939-9.913,0-10.313" transform="translate(-6.878 54.271)"/><path class="g" d="M32.842,132.257c4.379-3.937,9.919-1.033,13.547,4.142,4.872,6.951,6.279,17.8,6.563,28.075.351,12.714-.214,25.572-.433,38.285q-.347,20.283-.7,40.566c-.461,26.927-1.034,53.857-1.378,80.788-.148,11.561-.015,23.457,2,34.616a74.086,74.086,0,0,0,11.017,28.1c4.984,7.5,10.668,13.5,16.116,19.98a173.924,173.924,0,0,1,14.6,20.141,153.042,153.042,0,0,1,20.734,51.828c2.125,11,2.7,22.208,2.845,33.708.164,12.707.09,25.646,2.047,38.027.836,5.293,2.418,10.647,5.784,12.34s7.175-1.541,10.1-4.088c5.191-4.515,9.656-11.193,13.24-18.893,7.353-15.793,11.262-34.888,14.341-54.014,3.2-19.889,6.111-40.684,13.386-57.7a68.953,68.953,0,0,1,5.953-11.006q-2.415-.523-4.83-1.044c6.239,16.352,2.809,36.52-.651,53.484-4.173,20.454-8.449,40.7-11.72,61.646a967.993,967.993,0,0,0-11.344,130.964c-.437,23.492.38,47.465,6.544,68.98.819,2.859,3.606,3.447,4.83,1.044a80.839,80.839,0,0,0,8.205-33.45c.108-2.782-1.491-5.156-3.075-5.156-1.754,0-2.967,2.366-3.075,5.156a64.252,64.252,0,0,1-6.4,26.157q2.415.523,4.83,1.044c-5.342-18.646-6.03-39.758-5.764-60.1.283-21.675,1.359-43.377,3.16-64.844,1.827-21.779,4.385-43.384,7.657-64.68,3.255-21.185,7.461-41.732,11.748-62.37,4.175-20.1,7.742-43.751.37-63.075-1.106-2.9-3.321-3.321-4.83-1.044-19.2,28.977-17.662,75.724-29.422,111.57-2.654,8.087-5.925,15.539-10.121,21.57a36.7,36.7,0,0,1-6.916,7.524c-1.156.943-2.572,2.221-3.86,2.448-.982.175-1.319-.862-1.685-2.314-1.346-5.336-1.669-11.812-1.936-17.532-.29-6.225-.322-12.472-.392-18.711-.134-11.934-.558-23.851-2.54-35.381a165.06,165.06,0,0,0-19.739-54.144,184.546,184.546,0,0,0-15.007-22.1c-5.172-6.59-10.75-12.264-15.843-19.027a62.424,62.424,0,0,1-11.6-23.695c-2.517-10.715-2.737-22.387-2.633-33.756.242-26.632.893-53.272,1.349-79.895q.352-20.543.706-41.082c.218-12.7.7-25.485.529-38.194C59,155.393,57.789,143.1,53.332,133.654c-3.642-7.712-9.319-12.879-15.188-13.487-2.932-.305-5.825.866-8.406,3.187-3.488,3.137-.386,12.043,3.1,8.9" transform="translate(-55.433 -18.65)"/><path class="g" d="M104.977,77.954c-14.4,2.541-26.5,16.4-36.505,33.23-9.419,15.847-21.542,38.4-15.3,62.44,2.79,10.738,9.063,16.424,15.809,17.325,7.023.936,13.941-3,20.191-7.982,6.907-5.509,13.416-12.7,19.525-20.388,5.851-7.363,11.566-15.921,14.9-27.052,3.63-12.115,4.515-27.207.146-39.164-4.169-11.408-11.743-17.589-19.089-21.523-3.78-2.021-5.4,7.933-1.635,9.946,5.347,2.861,11.071,7.023,14.584,14.712,3.581,7.836,3.557,18.07,1.652,27.032-2.092,9.834-6.685,17.66-11.4,24.157a136.692,136.692,0,0,1-16.844,19.06c-5.244,4.946-10.935,9.461-16.974,10.7-4.993,1.029-10.952-.171-14.107-7.574-3.106-7.287-2.78-17.092-.724-24.99,2.54-9.762,7.07-17.926,11.384-25.571,9.184-16.278,20.621-31.621,34.38-34.049,1.652-.291,3.075-2.162,3.075-5.156,0-2.562-1.413-5.449-3.075-5.156" transform="translate(-50.085 -67.047)"/><path class="g" d="M25.985,289.452c13.139,21.356,26.558,43.188,35.994,69.739a188.224,188.224,0,0,1,9.84,42.4,229.3,229.3,0,0,1-.713,51.857,268.625,268.625,0,0,1-11.84,53.269c-1.942,5.792,3.368,11,5.311,5.206,10.406-31.023,16.505-68.3,13.978-104.006-2.338-33.04-12.685-61.41-25.4-86.215-7.137-13.916-14.963-26.776-22.817-39.541-2.844-4.62-7.2,2.665-4.349,7.293" transform="translate(-56.158 151.957)"/></g></g></g></svg>