<svg xmlns="http://www.w3.org/2000/svg" xmlns:xlink="http://www.w3.org/1999/xlink" width="147.246" height="23.663" viewBox="0 0 147.246 23.663"><defs><style>.a{fill:none;}.b{clip-path:url(#a);}.c{fill:#ff9d00;}</style><clipPath id="a"><rect class="a" width="147.246" height="23.663" transform="translate(0 0)"/></clipPath></defs><g transform="translate(0 0)"><g class="b"><path class="c" d="M20.048,17.961c0,.089-.026.626-.075,1.615S19.9,21.509,19.9,22.41V23.5q-3.663-.2-14.511-.2H.711C.236,23.3,0,23.212,0,23.035c0-.118.075-.188.224-.206q.114,0,1.421-.089.973-.066,1.178-.363a3.448,3.448,0,0,0,.207-1.554V2.246q0-.959-.318-1.141A6.131,6.131,0,0,0,.673.923q-.6,0-.6-.279T.9.364H16.756A14.777,14.777,0,0,0,18.814.231q.072,1.417.336,3.922L19.3,5.571A1.973,1.973,0,0,1,19.337,6a.294.294,0,0,1-.336.33c-.276,0-.475-.276-.6-.829q-.709-2.985-2.318-3.781-1.2-.6-6.283-.6H6.733V10.81h.9q4.189,0,5.106-.561t1.253-3.262c.05-.462.187-.692.412-.692q.411,0,.411.594t-.074,1.746q-.077,1.154-.075,1.747,0,3.526.119,4.843c.021.22.03.408.03.561,0,.286-.137.429-.409.429a.353.353,0,0,1-.353-.28,16.761,16.761,0,0,1-.317-1.829A2.653,2.653,0,0,0,11.907,11.7a17.54,17.54,0,0,0-3.5-.2H6.733v11.04a81.663,81.663,0,0,0,9.649-.293q2.469-.488,2.805-4.166c.05-.542.211-.814.487-.814q.374,0,.374.692"/><path class="c" d="M37.477,23.036c0,.176-.225.264-.673.264H28.8c-.449,0-.673-.078-.673-.23,0-.116.075-.183.224-.2s.687-.028,1.609-.028c.7,0,1.047-.1,1.047-.3a1.872,1.872,0,0,0-.374-.8q-.9-1.434-2.767-4.3l-.226-.333q-3.85,4.819-3.851,5.343,0,.3,2.094.328c.249,0,.374.076.374.23,0,.2-.211.3-.636.3H20.608q-.411,0-.411-.264t.822-.3A2.867,2.867,0,0,0,23,21.948l3.1-4.119q.26-.33,1.047-1.352-.637-.955-3.217-5.3A4.806,4.806,0,0,0,22.8,9.656a4.888,4.888,0,0,0-1.889-.263c-.374,0-.561-.078-.561-.232,0-.174.175-.263.523-.263h7.7c.649,0,.973.089.973.263s-.437.276-1.309.3q-1.649.031-1.647.362a4.759,4.759,0,0,0,.711,1.352q1.2,1.977,1.8,3l.149.264q1.124-1.352,2.263-2.982a7.627,7.627,0,0,0,1.142-1.9c0-.132-.3-.187-.9-.164h-.786c-.175,0-.261-.083-.261-.248s.161-.247.485-.247c-.149,0,.274.022,1.272.066.248.023.5.033.748.033q2.319-.1,2.019-.1h.785c.3,0,.449.066.449.2,0,.11-.068.192-.2.247a3.718,3.718,0,0,1-1.029.082,2.544,2.544,0,0,0-1.421.264,3.48,3.48,0,0,0-.709.821l-.711,1.052q-.489.724-1.422,1.941l-1.234,1.61.635.954q.3.46,1.534,2.434.6.918,2.057,3.123a2.613,2.613,0,0,0,.935.937,3.842,3.842,0,0,0,1.514.213c.711,0,1.067.089,1.067.263"/><path class="c" d="M54.307,23.07c0,.176-.213.263-.636.263H46.863c-.324,0-.487-.087-.487-.263,0-.154.475-.231,1.422-.231.574,0,.9-.06.992-.181a3.08,3.08,0,0,0,.131-1.232V14.752a13.182,13.182,0,0,0-.3-3.714,2.7,2.7,0,0,0-2.8-1.513A3.55,3.55,0,0,0,42.9,10.938a3.612,3.612,0,0,0-.375,2.039V21.36a6.6,6.6,0,0,0,.039,1.019.374.374,0,0,0,.3.379,15.883,15.883,0,0,0,1.608.081c.3,0,.449.089.449.265,0,.152-.124.229-.374.229H41.216q-3.1-.033-3.441,0H37.4c-.274,0-.411-.066-.411-.2,0-.153.137-.228.411-.228h.562l.561-.033q.86.033.9-.462V7.59a38.9,38.9,0,0,0-.187-5.71q-.224-.33-1.833-.363c-.6,0-.9-.082-.9-.246a.219.219,0,0,1,.188-.245c.124-.023.547-.046,1.272-.07A9.56,9.56,0,0,0,41.627.165,4.2,4.2,0,0,1,42.15,0a6.633,6.633,0,0,1,.262,2.539v8.073A5.386,5.386,0,0,1,46.9,8.5q2.991,0,4.263,1.45A3.642,3.642,0,0,1,51.95,12a18.989,18.989,0,0,1,.074,2.209v8.3q.039.33,1.945.33c.225.045.338.121.338.231"/><path class="c" d="M63.433,23.069q0,.3-.635.3c.025,0-.275-.023-.9-.066q-1.122-.066-1.87-.067H56.14a.752.752,0,0,1-.449.133c-.274,0-.411-.082-.411-.244,0-.234.248-.35.747-.35a3.909,3.909,0,0,0,1.553-.181,3.529,3.529,0,0,0,.131-1.368V11.238a5.2,5.2,0,0,0-.093-.972q-.057-.148-.468-.149H55.691c-.274,0-.411-.076-.411-.231,0-.134.209-.21.627-.23A9.862,9.862,0,0,0,60.15,8.629l.37-.192a3.856,3.856,0,0,1,.295,1.808V20.833a10.9,10.9,0,0,0,.056,1.545c.039.154.169.252.393.3a7.771,7.771,0,0,0,1.645.131c.35,0,.524.089.524.264M60.628,2.538q0,1.482-1.683,1.483a1.784,1.784,0,0,1-1.2-.413,1.265,1.265,0,0,1-.487-1q0-1.55,1.683-1.549t1.683,1.483"/><path class="c" d="M80.637,15.424a8.023,8.023,0,0,1-2.357,5.833,7.68,7.68,0,0,1-8.116,1.977,6.868,6.868,0,0,0-1.72-.428,1.875,1.875,0,0,0-.934.313,1.791,1.791,0,0,1-.786.313c-.2,0-.3-.362-.3-1.087V5.207q0-3.327-.487-3.591a5.348,5.348,0,0,0-1.458-.1c-.6,0-.9-.087-.9-.264,0-.153.137-.231.411-.231h.525A10.654,10.654,0,0,0,68.482.265a2.532,2.532,0,0,1,.785-.231h.15V10.382A5.006,5.006,0,0,1,73.681,8.5,6.849,6.849,0,0,1,78.729,10.4a6.77,6.77,0,0,1,1.908,5.026m-3.4.149a8.626,8.626,0,0,0-1.108-4.766,3.516,3.516,0,0,0-3.1-1.677,3.744,3.744,0,0,0-1.992.575,2.976,2.976,0,0,0-1.279,1.431,21.515,21.515,0,0,0-.337,5.193,29.24,29.24,0,0,0,.263,5.392q.413,1.383,2.744,1.382a3.737,3.737,0,0,0,3.269-1.48,10.407,10.407,0,0,0,1.54-6.05"/><path class="c" d="M90.81,23.069q0,.3-.635.3c.025,0-.275-.023-.9-.066q-1.122-.066-1.87-.067h-3.89a.752.752,0,0,1-.449.133c-.274,0-.411-.082-.411-.244,0-.234.248-.35.747-.35a3.909,3.909,0,0,0,1.553-.181,3.529,3.529,0,0,0,.131-1.368V11.238A5.2,5.2,0,0,0,85,10.266q-.057-.148-.468-.149H83.068c-.274,0-.411-.076-.411-.231,0-.134.209-.21.627-.23a9.862,9.862,0,0,0,4.243-1.027l.37-.192a3.856,3.856,0,0,1,.295,1.808V20.833a10.9,10.9,0,0,0,.056,1.545c.039.154.169.252.393.3a7.771,7.771,0,0,0,1.645.131c.35,0,.524.089.524.264M88,2.538q0,1.482-1.683,1.483a1.784,1.784,0,0,1-1.2-.413,1.265,1.265,0,0,1-.487-1q0-1.55,1.683-1.549T88,2.538"/><path class="c" d="M102.48,21.323c0,.2-.314.55-.936,1.054a5.926,5.926,0,0,1-3.815,1.286,4.57,4.57,0,0,1-3.1-.921q-.6-.525-.6-3.09v-9.8a.391.391,0,0,0-.411-.362H92.194c-.548,0-.824-.077-.824-.231s.137-.241.41-.263a5.874,5.874,0,0,0,4.533-2.534.672.672,0,0,1,.557-.3c.174,0,.261.078.261.231v.692a6.424,6.424,0,0,0,.149,1.779,6.5,6.5,0,0,0,1.123.066,14.217,14.217,0,0,0,2.73-.163,1.177,1.177,0,0,1,.262-.034c.2,0,.3.1.3.284q0,.476-3.028.474H97.131v6.1a36.682,36.682,0,0,0,.261,5.784q.263,1.17,1.722,1.169a4.648,4.648,0,0,0,2.766-1.219.449.449,0,0,1,.337-.165c.175,0,.263.055.263.165"/><path class="c" d="M110.818,23.069q0,.3-.635.3c.025,0-.275-.023-.9-.066q-1.122-.066-1.87-.067h-3.89a.752.752,0,0,1-.449.133c-.274,0-.411-.082-.411-.244,0-.234.248-.35.747-.35a3.909,3.909,0,0,0,1.553-.181,3.529,3.529,0,0,0,.131-1.368V11.238a5.2,5.2,0,0,0-.093-.972q-.057-.148-.468-.149h-1.459c-.274,0-.411-.076-.411-.231,0-.134.209-.21.627-.23a9.862,9.862,0,0,0,4.243-1.027l.37-.192a3.856,3.856,0,0,1,.295,1.808V20.833a10.9,10.9,0,0,0,.056,1.545c.039.154.169.252.393.3a7.771,7.771,0,0,0,1.645.131c.35,0,.524.089.524.264M108.013,2.538q0,1.482-1.683,1.483a1.784,1.784,0,0,1-1.2-.413,1.265,1.265,0,0,1-.487-1q0-1.55,1.683-1.549t1.683,1.483"/><path class="c" d="M127.985,16.15a7.186,7.186,0,0,1-2.207,5.354,7.55,7.55,0,0,1-5.5,2.159A7.95,7.95,0,0,1,114.6,21.5a7.069,7.069,0,0,1-2.281-5.354,7.33,7.33,0,0,1,2.225-5.472A7.634,7.634,0,0,1,120.094,8.5a7.775,7.775,0,0,1,5.628,2.191,7.29,7.29,0,0,1,2.263,5.456m-3.4-.034a10.536,10.536,0,0,0-1.272-5.635A3.423,3.423,0,0,0,120.169,9a3.67,3.67,0,0,0-3.274,1.895,9.94,9.94,0,0,0-1.178,5.257,9.2,9.2,0,0,0,1.254,5.189,3.981,3.981,0,0,0,3.5,1.863,2.914,2.914,0,0,0,2.544-1.154,9.953,9.953,0,0,0,1.571-5.932"/><path class="c" d="M147.246,23.087c0,.164-.187.245-.56.245H139.8c-.324,0-.487-.076-.487-.229,0-.11.068-.176.205-.2s.618-.043,1.442-.066q.709-.033.821-.181a2.646,2.646,0,0,0,.113-1.068V15.277A16.318,16.318,0,0,0,141.6,11a2.489,2.489,0,0,0-2.543-1.48,4.023,4.023,0,0,0-3.141,1.446,1.737,1.737,0,0,0-.374,1.184V22.413q0,.393.8.426l1.139.033c.253,0,.381.077.381.231s-.151.229-.449.229H130.6q-.562,0-.562-.2c0-.135.225-.221.674-.26h.935c.374,0,.6-.076.674-.231l.111-.492V14.984q0-3.749-.075-4.143t-.934-.394h-1.085q-.749,0-.749-.245c0-.211.263-.315.787-.315a11.363,11.363,0,0,0,2.43-.363,4.931,4.931,0,0,0,1.833-.757,1,1,0,0,1,.523-.264q.263,0,.262.626v1.582A6.375,6.375,0,0,1,140.44,8.5a4.376,4.376,0,0,1,3.889,1.746A7.259,7.259,0,0,1,145,14.006v7.513a2.772,2.772,0,0,0,.112,1.155,1.877,1.877,0,0,0,1.084.2h.674c.248,0,.373.073.373.216"/></g></g></svg>