<svg xmlns="http://www.w3.org/2000/svg" xmlns:xlink="http://www.w3.org/1999/xlink" width="358.283" height="369.402" viewBox="0 0 358.283 369.402"><defs><style>.a,.c{fill:none;}.b{clip-path:url(#a);}.c{stroke:#fff;stroke-miterlimit:10;stroke-width:11px;}</style><clipPath id="a"><rect class="a" width="269.434" height="289.554"/></clipPath></defs><g transform="translate(121.469) rotate(22)"><g class="b" transform="translate(-12.053 4.87)"><path class="c" d="M133.469,287.175c-3.6-19.878-11.564-21.9-15.571-42.861-6.895-36.068,13.524-46.533,15.571-89.693,1.895-39.935-15.2-39.05-11.852-77.847,3.1-35.849,18.49-45.826,16.271-75.792-.022-.3-.047-.6-.073-.9Q135.65,0,133.469,0C59.756,0,0,64.286,0,143.588S59.756,287.175,133.469,287.175Z" transform="translate(1.248 1.189)"/><path class="c" d="M18.959,0C21.92,21.742,10.585,35.824,6.686,72.253c-5.7,53.3,15.134,55.261,8.16,106.821-5.49,40.584-19.558,47.928-13.251,76,3.012,13.406,8.588,22.274,13.438,30.172C82.435,278,135.064,216.8,135.064,142.382,135.064,69.411,84.468,9.156,18.959,0Z" transform="translate(133.122 2.395)"/></g></g></svg>