<svg xmlns="http://www.w3.org/2000/svg" xmlns:xlink="http://www.w3.org/1999/xlink" width="1649.425" height="493.856" viewBox="0 0 1649.425 493.856"><defs><style>.a{fill:#fff;}.b{clip-path:url(#a);}</style><clipPath id="a"><rect class="a" width="1649.425" height="493.856"/></clipPath></defs><g transform="translate(55.713 -72)"><g class="b" transform="translate(-55.713 72)"><path class="a" d="M265.44,289.935c0-25.63,23.858-65.863,47.086-87.143a27.625,27.625,0,0,1-6.565,1.087c-7.826,0-18.556-12.737-18.556-25.785,0-38.367,50.367-82.018,69.807-82.018,6.186,0,10.6,6.06,7.449,7.147-34.714,11.494-69.682,61.047-69.682,83.57,0,5.9,4.293,10.407,8.963,10.407,14.264,0,28.782-11.65,34.463-11.65a4.342,4.342,0,0,1,4.544,4.038c0,.777-14.391,7.3-24.867,19.883-20.45,24.7-44.309,61.825-44.309,87.764,0,14.757,6.69,19.108,12.118,19.108,24.364,0,54.533-38.524,86.346-72.853,1.766-2.018,6.185.156,3.029,3.882-33.833,40.233-66.654,76.582-83.189,76.582-7.32,0-26.637-1.864-26.637-34.019" transform="translate(29.763 8.052)"/><path class="a" d="M346.931,300.167c0-11.184,17.8-30.445,29.161-43.959-5.554-20.658-5.934-45.048-6.564-47.066-.5-1.864-3.535-2.8-3.031-4.35.5-1.708,13.886-.931,14.137,4.35.127,2.64.884,20.036,3.282,37.124,11.11-14.6,26.763-35.727,27.268-38.678.127-.776-.5-1.709,0-3.261,1.01-3.261,3.535-9.786,4.923-9.786,1.894,0,2.9,2.639,2.9,4.969,0,8.078-22.975,36.66-34.21,52.037,2.523,15.688,6.564,29.514,13.129,29.514,16.663,0,41.151-54.057,41.909-55.454s7.07-2.02,4.671,2.33c-11.614,20.97-28.151,56.851-44.939,56.851-10.858,0-17.548-10.408-21.966-23.61-10.6,13.668-24.615,29.978-24.615,38.057,0,5.281.378,8.077-2.148,8.077s-3.914-4.659-3.914-7.146" transform="translate(38.9 16.305)"/><path class="a" d="M420.25,309.933c0-38.523,34.21-168.07,54.408-200.846,2.018-3.263,4.416-5.125,5.932-5.125,4.8,0,11.234,4.659,10.6,6.833-.632,2.33-4.293,0-7.953,3.417C463.8,132.543,430.1,266.751,430.1,292.071c16.034-35.727,34.464-66.017,42.669-66.017,6.564,0,9.972,7.768,9.719,13.98-.378,9.786-5.932,22.369-5.932,31.688q0,5.126,3.028,5.125c8.584,0,28.4-28.892,42.037-49.551.883-1.4,3.155.931,1.262,3.882-13.634,20.661-34.337,50.639-41.532,50.639-7.32,0-11.74-6.835-11.74-13.047s4.42-27.029,4.42-32.311c0-2.485-.379-4.349-1.643-4.349-7.2,0-32.694,44.115-44.307,81.86-.759,2.33-7.827-1.241-7.827-4.038" transform="translate(47.121 8.713)"/><path class="a" d="M498.337,273.154c0-14.757,6.691-41.474,9.341-47.843a4.356,4.356,0,0,0,.251-2.486c-.125-.931-.883-1.243-.378-2.485,2.777-6.835,3.536-8.543,4.419-8.855a2.5,2.5,0,0,1,2.021.312c3.66,1.708,8.457,7.921,7.574,9.785C512.474,239.135,499.6,276.1,504.4,278.9c6.817,3.884,37.365-36.037,51.124-58.561,3.03-4.97,3.787.311,2.4,2.175s-37.239,59.649-52.387,59.649c-3.662,0-7.2-1.864-7.2-9.01M520.3,188.185c.5-2.174,3.03-15.377,3.787-18.8s9.089,3.107,7.954,6.371-6.312,12.737-7.322,15.376c-1.01,2.486-4.922-.775-4.418-2.951" transform="translate(55.877 14.116)"/><path class="a" d="M529.093,333.908c2.274-43.338,36.609-155.644,39.134-165.121s14.138-44.737,17.3-45.047c4.67-.465,11.107,6.835,10.351,10.251-.253.934-2.526-.309-4.292,1.243-3.788,3.263-6.691,9.011-10.352,18.952-2.651,7.147-31.305,93.2-46.2,174.751,3.155-7.146,37.619-118.519,61.351-118.519,5.176,0,9.972,4.814,9.972,12.116a105.786,105.786,0,0,1-4.04,27.028c11.488-9.01,22.724-16.31,30.928-19.883,1.137-.466,4.292,3.417,1.515,4.5-8.458,3.572-21.712,12.737-34.966,23.765-10.353,31.379-29.793,61.357-36.861,61.357-2.4,0-10.6-2.484-10.6-9.786,0-12.271,18.555-33.4,39.132-51.1,5.428-15.535,9.215-30.758,9.215-40.233,0-1.709-.505-2.64-2.9-2.64-12.119,0-30.044,38.523-40.9,66.794s-18.179,58.25-20.577,58.25-7.448-.777-7.2-6.679m31.687-20.816c6.815-1.4,18.177-22.057,27.014-44.581-16.536,15.223-30.171,31.688-30.171,41.32,0,1.708,1.011,3.727,3.157,3.261" transform="translate(59.324 10.369)"/><path class="a" d="M614.446,273.154c0-14.757,6.691-41.474,9.341-47.843a4.353,4.353,0,0,0,.251-2.486c-.124-.931-.883-1.243-.378-2.485,2.777-6.835,3.535-8.543,4.418-8.855a2.5,2.5,0,0,1,2.021.312c3.66,1.708,8.457,7.921,7.574,9.785C628.583,239.135,615.707,276.1,620.5,278.9c6.817,3.884,37.365-36.037,51.125-58.561,3.03-4.97,3.787.311,2.4,2.175s-37.239,59.649-52.387,59.649c-3.662,0-7.2-1.864-7.2-9.01m21.963-84.969c.505-2.174,3.031-15.377,3.787-18.8s9.089,3.107,7.954,6.371-6.312,12.737-7.322,15.376c-1.01,2.486-4.922-.775-4.419-2.951" transform="translate(68.895 14.116)"/><path class="a" d="M651.967,341.618c.883-43.182,16.917-111.841,30.8-162.17-25.5,3.573-59.077,9.632-81.043,17.553-2.02.777-5.428-7.922-1.642-9.009,13.886-3.728,53.146-9.32,83.821-12.737,7.2-25.476,13.632-45.824,17.041-54.834.883-2.33,4.419-1.708,8.837-.621,4.293,1.087,8.583,3.263,8.08,5.437-.253,1.242-2.778.621-5.3,2.951-5.933,5.437-13.129,22.99-20.325,46.29,12.12-1.243,22.092-2.02,27.522-2.02,18.176,0,20.069,7.146,20.069,9.166,0,2.952-1.514,5.125-3.282,5.281-.883,0-2.02-2.329-.629-3.418,2.144-1.863,1.512-7.3-19.693-7.456-3.536,0-12.876.777-25.121,2.329-15.022,49.863-29.412,123.647-30.676,164.344-.63,22.369,9.215,25.164,5.05,26.719-3.409,1.4-13.886-6.215-13.508-27.806" transform="translate(67.094 9.959)"/><path class="a" d="M686.29,273.154c0-14.757,6.691-41.474,9.341-47.843a4.352,4.352,0,0,0,.251-2.486c-.124-.931-.883-1.243-.378-2.485,2.777-6.835,3.535-8.543,4.418-8.855a2.5,2.5,0,0,1,2.021.312c3.66,1.708,8.457,7.921,7.574,9.785-9.089,17.553-21.966,54.523-17.168,57.318,6.817,3.884,37.365-36.037,51.125-58.561,3.03-4.97,3.787.311,2.4,2.175s-37.239,59.649-52.387,59.649c-3.662,0-7.2-1.864-7.2-9.01m21.963-84.969c.5-2.174,3.03-15.377,3.787-18.8s9.089,3.107,7.954,6.371-6.312,12.737-7.322,15.376c-1.01,2.486-4.922-.775-4.418-2.951" transform="translate(76.951 14.116)"/><path class="a" d="M726.6,265.454a82.061,82.061,0,0,1,2.9-18.639,22.75,22.75,0,0,1-6.439-16.31c0-21.126,17.041-35.1,30.422-35.1,7.449,0,13.635,6.523,13.635,16,0,11.185-4.04,26.561-9.342,39.92,12.245-2.018,28.023-12.116,37.366-31.377.756-1.552,4.292.466,3.155,2.33-5.934,10.253-22.344,30.29-42.037,32.619-6.186,13.826-13.632,24.7-19.186,24.7s-10.6-7.922-10.477-14.136m14.391-15.844a35.383,35.383,0,0,0,12.5,2.02h.759c5.3-12.737,9.467-28.581,9.467-42.251,0-6.368-3.156-10.407-7.449-10.407-14.895,0-26.255,26.717-26.255,35.106a18.123,18.123,0,0,0,1.261,6.835c4.671-13.669,11.362-24.7,14.265-24.7,4.543,0,6.691,4.66,5.554,7.143-3.156,7.3-7.07,17.087-10.1,26.251m-1.137,3.573c-3.913,12.271-6.059,22.525-2.777,22.525,4.039,0,10.35-8.545,15.78-20.661H752.6a38.766,38.766,0,0,1-12.75-1.864" transform="translate(81.074 16.377)"/><path class="a" d="M772.093,279.941c.632-11.806,6.817-36.5,14.013-59.339a3.229,3.229,0,0,0,0-2.174l-.127-.311a3.632,3.632,0,0,1-.127-2.33c1.643-4.348,5.176-12.737,6.691-13.359,1.643-.621,6.691,2.952,6.439,6.835s-13.635,34.175-17.673,63.067c-1.137,7.765,31.811-66.018,50.872-66.018,3.409,0,5.932,3.107,5.932,9.632,0,10.872-14.769,54.988-11.107,57.473,5.805,4.038,42.413-48.464,44.812-51.571s3.662-.312,2.273,2.018-34.715,54.678-45.951,54.678c-6.059,0-8.961-6.523-8.961-9.32,0-20.97,15.02-56.075,11.992-58.87-6.059-5.594-31.559,34.017-52.134,76.733-1.263,1.243-7.2-1.243-6.944-7.143" transform="translate(86.571 16.96)"/><path class="a" d="M955.173,333.4c0-11.962,4.165-51.883,12.876-225.391.378-6.68-1.894-15.067-7.827-15.532C949.365,91.7,911.5,147.307,911.5,226.682c0,6.525-5.934-.777-5.934-4.194,0-51.881,29.288-135.294,50.62-135.294,11.993,0,17.925,13.514,19.313,22.834,2.526,17.241-5.553,153.469-8.205,198.516,30.927-87.609,81.422-201.468,99.474-201.468,3.914,0,8.332,3.417,8.332,7.766s-4.672.311-8.08.311c-17.168,0-98.968,185.779-99.222,218.089,0,5.591-.629,4.969-.505,7.768s-12.118-1.4-12.118-7.612" transform="translate(101.537 7.308)"/><path class="a" d="M1011.118,273.154c0-14.757,6.69-41.474,9.341-47.843a4.353,4.353,0,0,0,.251-2.486c-.124-.931-.883-1.243-.378-2.485,2.777-6.835,3.536-8.543,4.419-8.855a2.5,2.5,0,0,1,2.021.312c3.66,1.708,8.458,7.921,7.574,9.785-9.089,17.553-21.966,54.523-17.168,57.318,6.818,3.884,37.365-36.037,51.125-58.561,3.03-4.97,3.786.311,2.4,2.175s-37.239,59.649-52.387,59.649c-3.662,0-7.2-1.864-7.2-9.01m21.964-84.969c.505-2.174,3.031-15.377,3.787-18.8s9.09,3.107,7.954,6.371-6.311,12.737-7.322,15.376c-1.01,2.486-4.922-.775-4.418-2.951" transform="translate(113.373 14.116)"/><path class="a" d="M1024.282,330.06c0-13.514,21.838-38.367,45.948-60.114-1.261-.31-2.651-.778-4.04-1.243-6.437-2.486-15.148-9.32-15.148-17.862,0-16,14.013-30.29,20.7-36.661,1.64-1.4,2.272-2.483,2.4-4.038.125-1.243,1.01-2.33,2.9-3.417,5.681-3.105,12.5-7.456,15.4-7.456,3.409,0,5.934,7.456,2.777,8.855-11.74,5.125-39.131,31.842-39.131,45.046,0,5.435,8.33,6.678,15.4,9.321a39.413,39.413,0,0,1,4.924,2.174c18.808-16.31,38-29.98,48.852-34.485.883-.31,2.021,2.642,1.262,2.951-10.6,4.35-28.529,17.709-46.2,33.554,6.942,4.5,9.087,9.941,9.087,18.018,0,19.57-35.849,59.648-53.4,59.648-8.711,0-11.739-8.389-11.739-14.291m9.719,9.166c19.567-2.8,49.233-46.136,49.233-62.446,0-3.261-3.284-4.348-7.954-5.435-24.362,22.835-46.959,49.4-46.959,62.288,0,2.952,1.767,6.215,5.681,5.594" transform="translate(114.848 16.701)"/><path class="a" d="M1106.568,273.154c0-14.757,6.691-41.474,9.341-47.843a4.353,4.353,0,0,0,.251-2.486c-.125-.931-.883-1.243-.378-2.485,2.777-6.835,3.536-8.543,4.419-8.855a2.5,2.5,0,0,1,2.02.312c3.66,1.708,8.457,7.921,7.574,9.785-9.089,17.553-21.965,54.523-17.168,57.318,6.817,3.884,37.365-36.037,51.124-58.561,3.031-4.97,3.787.311,2.4,2.175s-37.238,59.649-52.387,59.649c-3.662,0-7.2-1.864-7.2-9.01m21.964-84.969c.5-2.174,3.031-15.377,3.787-18.8s9.09,3.107,7.954,6.371-6.313,12.737-7.322,15.376c-1.01,2.486-4.922-.775-4.418-2.951" transform="translate(124.075 14.116)"/><path class="a" d="M1144.089,341.618c.883-43.182,16.916-111.841,30.8-162.17-25.5,3.573-59.077,9.632-81.042,17.553-2.02.777-5.428-7.922-1.641-9.009,13.886-3.728,53.146-9.32,83.821-12.737,7.2-25.476,13.632-45.824,17.041-54.834.883-2.33,4.418-1.708,8.838-.621,4.292,1.087,8.582,3.263,8.078,5.437-.253,1.242-2.778.621-5.3,2.951-5.934,5.437-13.129,22.99-20.324,46.29,12.119-1.243,22.091-2.02,27.52-2.02,18.177,0,20.069,7.146,20.069,9.166,0,2.952-1.513,5.125-3.282,5.281-.883,0-2.02-2.329-.629-3.418,2.144-1.863,1.512-7.3-19.693-7.456-3.536,0-12.876.777-25.121,2.329-15.023,49.863-29.412,123.647-30.676,164.344-.63,22.369,9.215,25.164,5.05,26.719-3.409,1.4-13.886-6.215-13.507-27.806" transform="translate(122.273 9.959)"/><path class="a" d="M1319.651,228.292a17.247,17.247,0,1,1-17.242-16.8,17.027,17.027,0,0,1,17.242,16.8" transform="translate(144.101 17.725)"/><path class="a" d="M1317.35,260.318c1.959,8.753,12.6,59.43-11.859,102.908-15.064,26.783-39.851,44.448-68.12,49.994-6.9,1.353-6.079,13.635.907,13.611,36.047-.129,68.032-19.966,83.28-51.458,24.241-50.066-2.59-111.478-4.208-115.054" transform="translate(138.206 21.818)"/><path class="a" d="M1308.746,260.318c7.614,7.179,51.01,49.18,56.044,106.1,3.1,35.062-9.1,67.424-32.571,90.325-5.726,5.587,3.1,16.862,9.786,12.493,34.481-22.541,52.159-61.462,46.15-101.157-9.553-63.106-75.513-105.336-79.408-107.76" transform="translate(146.744 21.818)"/><path class="a" d="M1308.746,260.4c10.466,1.594,70.767,11.566,108.525,55.268,23.258,26.921,32.416,60.221,26.765,92.118-1.379,7.782,12.5,12.043,15.383,4.72,14.862-37.783,6.306-79.521-22.067-108.6-45.11-46.222-123.988-43.713-128.605-43.51" transform="translate(146.744 21.818)"/><path class="a" d="M1462.9,253.412c-16.369-10.6-35.751-16.061-54.034-18.691,18.282-2.629,37.664-8.1,54.034-18.69,28.545-18.477,41.426-48.344,33.346-77.732-1.566-5.7-14.24-4-14.044,1.879.855,25.7-13.246,42.657-35.311,65.1-18.055,18.364-49.329,22.536-93.188,28.385-3.7.493-6.744.837-8.734,1.049v.016c1.991.212,5.036.556,8.735,1.049,43.854,5.848,75.133,10.021,93.187,28.385,22.065,22.445,36.166,39.4,35.311,65.1-.2,5.879,12.478,7.576,14.044,1.88,8.08-29.388-4.8-59.255-33.346-77.732" transform="translate(150.806 11.297)"/><path class="a" d="M1485.221,227.125a10.379,10.379,0,1,1-10.375-10.111,10.246,10.246,0,0,1,10.375,10.111" transform="translate(164.205 18.188)"/><path class="a" d="M1416.14,419.526a10.379,10.379,0,1,1-10.375-10.111,10.246,10.246,0,0,1,10.375,10.111" transform="translate(156.459 34.314)"/><path class="a" d="M1318.266,419.526a10.379,10.379,0,1,1-10.375-10.111,10.246,10.246,0,0,1,10.375,10.111" transform="translate(145.485 34.314)"/><path class="a" d="M1314.364,206.546c1.96-8.753,12.6-59.43-11.859-102.908-15.063-26.783-39.851-44.448-68.12-49.994-6.9-1.353-6.08-13.635.906-13.611,36.047.129,68.032,19.966,83.281,51.458,24.241,50.066-2.59,111.478-4.208,115.054" transform="translate(137.871 3.355)"/><path class="a" d="M1305.76,209.9c7.614-7.179,51.01-49.18,56.043-106.1,3.1-35.062-9.1-67.424-32.571-90.325-5.726-5.587,3.1-16.862,9.786-12.493,34.481,22.541,52.159,61.462,46.15,101.156-9.553,63.106-75.513,105.336-79.408,107.76" transform="translate(146.41 0)"/><path class="a" d="M1305.76,205.645c10.466-1.594,70.767-11.566,108.524-55.268,23.259-26.921,32.417-60.221,26.764-92.117-1.379-7.782,12.5-12.043,15.384-4.72,14.863,37.783,6.307,79.521-22.068,108.6-45.108,46.222-123.986,43.713-128.6,43.51" transform="translate(146.41 4.17)"/><path class="a" d="M1413.154,36.025a10.379,10.379,0,1,0-10.375,10.111,10.246,10.246,0,0,0,10.375-10.111" transform="translate(156.124 2.172)"/><path class="a" d="M1315.28,36.025a10.379,10.379,0,1,0-10.375,10.111,10.246,10.246,0,0,0,10.375-10.111" transform="translate(145.15 2.172)"/><path class="a" d="M166.954,229.971a17.248,17.248,0,1,0,17.242-16.8,17.027,17.027,0,0,0-17.242,16.8" transform="translate(18.72 17.866)"/><path class="a" d="M175.765,262c-1.96,8.753-12.6,59.43,11.859,102.908,15.064,26.783,39.851,44.448,68.12,49.994,6.9,1.353,6.08,13.635-.906,13.611-36.047-.129-68.032-19.966-83.28-51.458-24.241-50.066,2.59-111.478,4.208-115.054" transform="translate(18.104 21.958)"/><path class="a" d="M182.5,262c-7.614,7.179-51.01,49.18-56.043,106.1-3.1,35.062,9.1,67.424,32.571,90.325,5.726,5.587-3.1,16.862-9.786,12.493-34.481-22.541-52.159-61.462-46.15-101.156C112.65,306.651,178.61,264.422,182.5,262" transform="translate(11.43 21.958)"/><path class="a" d="M190.3,262.083c-10.466,1.594-70.767,11.566-108.524,55.268-23.259,26.921-32.417,60.221-26.764,92.117,1.379,7.782-12.5,12.043-15.384,4.72-14.862-37.783-6.307-79.521,22.068-108.6,45.109-46.222,123.987-43.713,128.6-43.51" transform="translate(3.637 21.959)"/><path class="a" d="M35.72,255.091c16.37-10.6,35.752-16.061,54.034-18.691-18.282-2.629-37.663-8.1-54.034-18.69C7.176,199.232-5.705,169.364,2.374,139.977c1.566-5.7,14.24-4,14.044,1.879-.855,25.7,13.247,42.657,35.311,65.1,18.053,18.364,49.329,22.536,93.188,28.385,3.7.493,6.744.837,8.734,1.049v.016c-1.991.212-5.036.556-8.735,1.049-43.853,5.848-75.133,10.021-93.187,28.385-22.065,22.445-36.166,39.4-35.311,65.1.2,5.879-12.478,7.576-14.044,1.88-8.08-29.388,4.8-59.255,33.346-77.732" transform="translate(0 11.438)"/><path class="a" d="M0,228.8a10.246,10.246,0,0,0,10.375,10.111,10.114,10.114,0,1,0,0-20.222A10.246,10.246,0,0,0,0,228.8" transform="translate(0 18.329)"/><path class="a" d="M69.08,421.2a10.379,10.379,0,1,0,10.375-10.111A10.246,10.246,0,0,0,69.08,421.2" transform="translate(7.746 34.455)"/><path class="a" d="M166.954,421.2a10.379,10.379,0,1,0,10.375-10.111A10.246,10.246,0,0,0,166.954,421.2" transform="translate(18.72 34.455)"/><path class="a" d="M178.751,208.225c-1.96-8.753-12.6-59.43,11.859-102.908,15.064-26.783,39.851-44.448,68.12-49.994,6.9-1.353,6.08-13.635-.906-13.611-36.047.129-68.032,19.966-83.281,51.457-24.241,50.067,2.59,111.479,4.208,115.055" transform="translate(18.439 3.496)"/><path class="a" d="M185.491,211.58c-7.614-7.179-51.01-49.18-56.043-106.1-3.1-35.062,9.1-67.424,32.571-90.325,5.726-5.587-3.1-16.862-9.786-12.493C117.751,25.2,100.074,64.125,106.083,103.82c9.553,63.106,75.513,105.336,79.408,107.76" transform="translate(11.765 0.141)"/><path class="a" d="M193.284,207.324c-10.466-1.594-70.767-11.566-108.524-55.268C61.5,125.135,52.343,91.835,58,59.938c1.379-7.782-12.5-12.043-15.384-4.72C27.75,93,36.305,134.74,64.68,163.814c45.109,46.221,123.986,43.713,128.6,43.51" transform="translate(3.971 4.311)"/><path class="a" d="M72.066,37.7A10.379,10.379,0,1,1,82.441,47.815,10.246,10.246,0,0,1,72.066,37.7" transform="translate(8.08 2.313)"/><path class="a" d="M169.94,37.7a10.379,10.379,0,1,1,10.375,10.111A10.246,10.246,0,0,1,169.94,37.7" transform="translate(19.055 2.313)"/></g></g></svg>