<svg xmlns="http://www.w3.org/2000/svg" xmlns:xlink="http://www.w3.org/1999/xlink" width="1006.083" height="609.352" viewBox="0 0 1006.083 609.352"><defs><style>.a{fill:#fff;}.b{clip-path:url(#a);}</style><clipPath id="a"><rect class="a" width="1006.083" height="609.352"/></clipPath></defs><g class="b"><path class="a" d="M42.876,6.847C45.6,4.352,49.364,5,50.021,3.891c.566-1.019-4.982-4.067-9.779-3.882C28.113.009,0,107.391,0,134.93c0,5.175,7.145,7.855,6.581,4.621C2.82,118.851,29.43,19.323,42.876,6.847" transform="translate(0 0)"/><path class="a" d="M101.441,45.048c.752-1.571,4.607-7.208,5.454-9.149s-5.36-5.823-5.924-3.789S98.527,42,98.151,43.291s2.538,3.236,3.291,1.756" transform="translate(46.082 17.432)"/><path class="a" d="M164.847,77.218c-10.249,13.4-33,37.149-38.082,34.839-3.573-1.663,6.018-23.658,12.789-34.1.658-1.109-2.916-4.806-5.642-5.821a2.256,2.256,0,0,0-1.5-.185c-.658.185-1.221,1.2-3.291,5.267-.376.739.188.924.282,1.478a2.105,2.105,0,0,1-.188,1.478,40.732,40.732,0,0,0-1.947,4.893c-9.354,10.955-20.253,22.554-25.506,22.554q-2.257,0-2.256-3.05c0-5.545,4.137-13.029,4.418-18.85.188-3.7-2.35-8.318-7.24-8.318-6.112,0-19.839,18.021-31.78,39.275,0-15.063,25.1-94.907,39.585-105.812,2.726-2.033,5.452-.646,5.923-2.033.47-1.295-4.325-4.067-7.9-4.067-1.129,0-2.914,1.109-4.419,3.05C94.668,12.254,90.7,19.678,86.62,28.763c-1.311-2.694-4.4-6.253-6.862-6.253-17.773,0-67.794,37.149-67.794,52.674s20.874,60.993,52.279,60.993c2.538,0,4.325-1.017,4.325-1.849a1.081,1.081,0,0,0-.941-1.2c-.847,0-1.035,1.016-2.068,1.016-16.266,0-47.767-29.848-47.767-60.253,0-15.987,45.416-44.081,62.246-44.081,1.859,0,3.834,1.357,5.292,1.866-13.49,30.982-27.766,78.474-27.766,95.63,0,1.663,5.266,3.789,5.83,2.4,8.65-22.457,27.643-48.7,33-48.7.941,0,1.223,1.109,1.223,2.587,0,3.143-3.291,15.526-3.291,19.221s3.291,7.764,8.744,7.764c4.011,0,13.653-9.986,22.508-20.162-1.739,6.036-3.329,13.264-3.329,18.221,0,4.251,2.632,5.36,5.36,5.36,11.283,0,37.986-34.378,39.02-35.486s.472-4.251-1.786-1.293" transform="translate(5.619 2.635)"/><path class="a" d="M149.759,144.13c.941-24.212,11.66-68.108,22.849-97.772,8.39-.851,14.941-1.309,17.987-1.377-3.332,1.45-5.923,2.6-6.048,2.764-.658.739-.094,2.494.47,3.233.752,1.019,1.974,1.942,3.01,1.295,3.27-2.143,6.752-4.595,10.357-6.98,8.825.86,8.915,3.2,7.6,4.115-1.035.646-.188,2.033.47,2.033A2.932,2.932,0,0,0,208.9,48.3c0-.933-.854-3.708-7.589-4.9,1.358-.86,2.728-1.7,4.111-2.5.939-.554,3.1-1.755,4.23-1.2.566.276-.281,1.57-.375,2.217-.094,1.293,1.223,10.257,5.829,11.552,1.411.37,3.761-.185,3.2-2.034-.566-1.755-2.634-1.015-4.044-1.387-1.692-.368-1.88-2.68-2.068-4.158-.282-2.68,1.035-7.484,4.325-9.24.47-.278,1.221-.463,1.221-1.2s-1.127-1.478-1.5-1.941c-.376-.37-1.5-1.848-1.975-1.848-.752-.093-1.692,1.293-2.162,1.756-1.129,1.109-2.351,2.31-3.573,3.326a35.374,35.374,0,0,1-5.172,2.68c-1.983.891-4.913,2.161-7.874,3.441-.494-.012-1-.022-1.527-.022-4.044,0-11.471.463-20.5,1.2,5.358-13.861,10.718-24.305,15.138-27.538,1.881-1.387,3.761-1.017,3.949-1.756.376-1.293-2.82-2.588-6.017-3.234-3.292-.647-5.924-1.017-6.583.368-2.538,5.362-7.334,17.467-12.693,32.623-22.849,2.033-52.091,5.36-62.434,7.577-2.82.647-.282,5.823,1.223,5.36,16.36-4.713,41.371-8.318,60.365-10.442-10.343,29.94-22.284,70.787-22.943,96.477-.282,12.846,7.523,17.374,10.061,16.543,3.1-.925-4.231-2.588-3.761-15.9" transform="translate(48.63 6.048)"/><path class="a" d="M195.615,45.048c.752-1.571,4.607-7.208,5.452-9.149s-5.358-5.823-5.923-3.789S192.7,42,192.325,43.291s2.538,3.236,3.291,1.756" transform="translate(90.312 17.432)"/><path class="a" d="M173.761,76.19H173.2a32.436,32.436,0,0,1-9.309-1.2c2.256-5.453,5.17-11.276,7.522-15.619.847-1.478-.753-4.25-4.137-4.25-2.163,0-7.147,6.562-10.626,14.694a8.889,8.889,0,0,1-.941-4.067c0-4.989,8.462-20.884,19.558-20.884,3.2,0,5.548,2.4,5.548,6.191,0,8.132-3.1,17.558-7.053,25.136M160.973,90.516c-2.444,0-.847-6.1,2.069-13.4a35.579,35.579,0,0,0,9.5,1.11h.188c-4.043,7.208-8.746,12.292-11.754,12.292m77.2-34.286c-10.249,13.4-33,37.149-38.082,34.839-3.573-1.663,6.018-23.658,12.789-34.1.657-1.109-2.916-4.806-5.642-5.821a2.256,2.256,0,0,0-1.5-.185c-.658.185-1.223,1.2-3.291,5.267-.376.739.188.924.282,1.478a2.105,2.105,0,0,1-.188,1.478c-.222.427-.485,1.014-.772,1.72-7.051,9.141-17.248,14.029-25.366,15.1,3.949-7.947,6.957-17.1,6.957-23.749,0-5.638-4.607-9.518-10.154-9.518-9.967,0-22.661,8.317-22.661,20.884a12.2,12.2,0,0,0,4.8,9.7,39.864,39.864,0,0,0-2.163,11.09c-.094,3.7,3.667,8.41,7.8,8.41s9.685-6.469,14.292-14.694c9.891-.935,18.666-6.66,24.69-12.16-2.09,6.5-4.381,15.725-4.381,21.678,0,4.251,2.632,5.36,5.358,5.36,11.284,0,37.988-34.378,39.021-35.486s.47-4.251-1.786-1.293" transform="translate(70.702 23.623)"/><path class="a" d="M80.7,191.287h-.461a24.336,24.336,0,0,1-7.6-1.076c1.844-4.882,4.224-10.1,6.145-13.984.691-1.323-.614-3.806-3.379-3.806-1.273,0-3.743,3.051-6.086,7.48-1.032,1.328-2.087,2.671-3.152,4a9.1,9.1,0,0,1-.209-1.963c0-4.469,6.912-18.7,15.975-18.7,2.612,0,4.531,2.152,4.531,5.543,0,7.281-2.534,15.722-5.76,22.507M70.256,204.113c-2,0-.691-5.463,1.69-12a26.713,26.713,0,0,0,7.758.992h.153c-3.3,6.453-7.143,11.006-9.6,11.006m69.584-32.022c-1.383,1.654-30.568,35.165-37.634,35.165-.845,0-1.307-.579-1.307-3.06,0-11.5,9.14-31.774,15.361-31.774,2.228,0,4.916,2.978,5.454,2.068s-3.457-6.2-8.987-6.2c-2.873,0-7.135,4.652-10.568,11.2-5.654,6.981-13.2,10.759-19.307,11.641,3.226-7.116,5.683-15.309,5.683-21.265a8.231,8.231,0,0,0-8.295-8.523c-8.142,0-18.509,7.447-18.509,18.7a11.476,11.476,0,0,0,2.113,6.712c-6.209,7.494-12.417,13.891-15.783,13.891q-1.843,0-1.844-2.731c0-4.964,3.38-11.666,3.611-16.878.153-3.31-1.921-7.447-5.915-7.447-4.991,0-16.2,16.135-25.959,35.167,0-13.489,20.506-84.979,32.334-94.742,2.228-1.82,4.455-.579,4.84-1.82.384-1.16-3.533-3.641-6.452-3.641-.921,0-2.381.992-3.609,2.731-12.289,17.459-33.1,86.468-33.1,106.987,0,1.489,4.3,3.393,4.762,2.151,7.066-20.107,22.58-43.606,26.958-43.606.769,0,1,.992,1,2.317,0,2.814-2.688,13.9-2.688,17.211a7.052,7.052,0,0,0,7.143,6.952c2.914,0,9.472-7.081,15.977-15.059.172.168.348.334.535.5a38.736,38.736,0,0,0-1.768,9.928c-.076,3.31,3,7.531,6.375,7.531s7.911-5.793,11.675-13.158c7-.724,13.32-4.672,18.084-8.917a44.192,44.192,0,0,0-3.493,16.2c0,4.385,3.226,9.184,6.759,9.184,5.3,0,28.8-25.319,37.788-36.241.538-.663-.845-1.325-1.229-1.158" transform="translate(5.62 59.997)"/><path class="a" d="M153.557,145.728c.614-.165,13.594-16.962,13.671-18.038s-2.688-4.8-3.3-3.972-2.15,3.89-2.535,4.22.078,1.573-.614,1.986-7.45,9.6-8.526,10.922c-.384.415-1.305-.165-1.383.332-.153,1.074,2.152,4.55,2.689,4.55" transform="translate(70.853 68.319)"/><path class="a" d="M287.885,174.241c-8.295,11-20.353,26.4-25.575,26.4q-1.845,0-1.843-2.731c0-4.964,3.379-11.666,3.608-16.878.154-3.31-1.919-7.447-5.912-7.447-4.994,0-16.206,16.135-25.96,35.167,0-13.489,20.506-84.979,32.334-94.742,2.228-1.82,4.455-.579,4.838-1.82.385-1.16-3.533-3.641-6.45-3.641-.921,0-2.381.992-3.609,2.73-7.182,10.2-17.274,38.014-24.424,63.462-7.281,8.25-29.315,32.521-35.329,32.521-.844,0-1.305-.579-1.305-3.06,0-11.5,9.14-31.774,15.361-31.774,2.227,0,4.916,2.978,5.452,2.068s-3.455-6.2-8.986-6.2c-3.545,0-9.2,7.07-12.8,16.046-7.989,9.872-20.033,24.662-23.831,24.662a1.523,1.523,0,0,1-1.459-1.738c0-6.455,8.68-32.022,8.68-35a4.044,4.044,0,0,0-3.38-3.723c-1.076,0-2.15,1.324-4.762,4.882S155.093,197,151.482,197c-.229,0-.844-.082-.844-.992,0-8.938,11.059-23.748,15.284-23.748,1.69,0,3.455,3.31,4.377,1.9.616-.992-3.455-6.2-8.755-6.2-2.869,0-5.885,3.442-8.468,7.933-8.129,9.143-28.556,31.37-34.311,31.37-.844,0-1.305-.579-1.305-3.06,0-11.5,9.138-31.774,15.359-31.774,2.228,0,4.916,2.978,5.454,2.068s-3.457-6.2-8.987-6.2-16.2,17.211-16.2,32.021c0,4.385,3.224,9.184,6.759,9.184,4.149,0,19.461-15.527,30.225-27.508-2.251,5.275-3.73,10.583-3.73,13.028,0,2.9,2.612,5.463,4.147,5.463,5.223,0,17.282-19.2,25.191-27.058-2.841,10.094-8.063,23.582-8.063,30.615,0,3.062,3.148,7.529,7.141,7.529,2.766,0,7.758-6.04,13.287-12.742,2.488-3.045,5.067-6.253,7.444-9.234a39.95,39.95,0,0,0-1.608,10.723c0,4.385,3.226,9.184,6.759,9.184,4.546,0,22.486-18.631,33.167-30.824-4.5,16.582-7.592,31.688-7.592,39.6,0,1.489,4.3,3.393,4.762,2.151,7.065-20.107,22.58-43.606,26.958-43.606.769,0,1,.992,1,2.317,0,2.814-2.688,13.9-2.688,17.211a7.052,7.052,0,0,0,7.143,6.952c4.378,0,16.973-15.972,25.268-26.976,1.154-1.571-.229-2.814-.767-2.068" transform="translate(53.111 59.997)"/><path class="a" d="M54.427,176.513a3.9,3.9,0,1,0,3.465,3.877,3.689,3.689,0,0,0-3.465-3.877" transform="translate(23.935 97.567)"/><path class="a" d="M373.353,42.2c.157-1.127,1.574-3.383.629-3.866-1.89-.966-5.513,1.127-7.087,2.095-10.236,6.119-20.156,13.691-29.133,19.81-1.733,1.129-3.78-.483-5.039-2.255-.945-1.287-1.89-4.349-.788-5.636.472-.644,22.205-10.147,31.5-14.5a58.243,58.243,0,0,0,8.661-4.671c2.047-1.772,4.094-3.866,5.984-5.8.788-.806,2.362-3.222,3.623-3.06.786,0,2.678,2.576,3.307,3.22.631.806,2.519,2.095,2.519,3.382s-1.259,1.612-2.047,2.095c-5.511,3.06-7.716,11.436-7.244,16.108.315,2.576.631,6.6,3.465,7.247,2.362.644,5.826-.644,6.771,2.416.945,3.22-2.992,4.188-5.354,3.543-7.716-2.255-9.922-17.878-9.763-20.133m-85.67,274.615c34.646,0,91.338-113.551,91.338-181.681,0-10.953-4.094-39.623-30.394-39.623-39.055,0-81.259,69.742-81.259,123.215a53.177,53.177,0,0,0,2.047,15.141c7.874-32.213,23.307-71.03,49.134-89.874,3.78-2.739,14.331-.967,9.291,2.9-28.347,22.228-44.882,66.36-51.812,100.5,2.992,3.868,5.984,5.638,7.717,5.638,4.252,0,4.566.483,14.8-3.22,1.418-1.45,7.874,3.22,7.874,5.315s-6.771,4.349-15.906,4.349c-3.621,0-9.606-2.256-15.59-6.765a167.151,167.151,0,0,0-2.833,27.543c0,16.588,5.354,36.561,15.59,36.561M262.644,278.8c0-7.408,1.259-19.65,4.253-34.146a46.212,46.212,0,0,1-9.134-28.347c0-47.837,40.314-127.564,80.786-127.564,9.922,0,45.828,1.289,45.828,47.193,0,87.78-63.78,187.8-88.5,187.8-23.15,0-33.229-20.133-33.229-44.936" transform="translate(121.062 13.439)"/><path class="a" d="M337.912,242.9c0-15.784,18.9-65.552,28.031-89.069a2.8,2.8,0,0,0,0-2.255l-.157-.323a3.177,3.177,0,0,1-.157-2.416c1.89-4.671,7.716-16.589,9.607-17.234,2.047-.644,9.606,3.382,8.03,7.087-7.4,16.751-42.362,110.975-36.063,111.3s56.536-108.719,71.023-108.719c7.717,0,8.662,6.765,8.662,11.115,0,11.111-16.221,59.916-13.386,59.916,7.874,0,32.125-50.415,42.047-50.415s11.181,7.088,11.181,10.953c0,14.979-10.867,45.581-5.2,45.581s26.457-20.776,47.4-47.675c1.574-2.093,3.937.644,2.362,2.256s-36.85,49.93-49.134,49.93c-3.778,0-12.755-4.994-12.755-12.242,0-18.038,11.022-44.454,7.087-44.454s-36.536,56.855-43.149,56.855c-4.253,0-11.024-5.154-11.024-15.139,0-16.428,19.056-59.916,14.488-59.756-7.874.161-63.779,110.007-66.773,110.007s-12.125-1.772-12.125-15.3" transform="translate(158.705 72.703)"/><path class="a" d="M347.927,476.034c-3.539,0-5.2-5.767-5.2-10.093,0-19.945,22.284-53.95,45.17-82.427-13.552,61.4-30.716,92.281-39.975,92.52m72.044-133.375c-1.054.961-11.293,11.9-24.166,27.276a315.857,315.857,0,0,0,4.441-33.524c.3-4.085-3.612-6.608-3.537-5.287a19.78,19.78,0,0,1-.3,5.528c-1.731,7.93-17.918,41.213-25.144,42.174-2.307.335,2.4-14.023,5.467-23.945,2.883-3.477,4.754-5.756,4.925-5.973.824-.961.118-3.365-1.531-1.8-.411.4-.948.96-1.584,1.657a14.024,14.024,0,0,0,.554-2.737,11.66,11.66,0,0,0-3.163-6.369,1.2,1.2,0,0,0-1.205-.239c-.528.239-.979,1.562-2.635,6.848-.3.961.151,1.2.226,1.924a4.314,4.314,0,0,1-.15,1.921c-.366,1.6-1.321,4.9-2.331,8.7-12.25,14.338-30.851,36-36.7,36a2.267,2.267,0,0,1-2.237-2.522c0-9.372,13.306-46.5,13.306-50.828,0-3.244-3.533-5.407-5.182-5.407s-3.3,1.922-7.3,7.09-26.733,34.244-32.268,34.244c-.353,0-1.295-.12-1.295-1.442,0-12.976,16.957-34.485,23.434-34.485,2.591,0,5.3,4.806,6.713,2.764.942-1.441-5.3-9.012-13.425-9.012-4.258,0-8.728,4.686-12.6,10.9.3-.883.591-1.756.879-2.609.526-1.562-1.431-2.4-1.581-1.922-1.429,4.542-3.147,9.9-5.048,15.725a76.083,76.083,0,0,0-4.515,13.632c-10.279,30.6-23.13,65.928-26.948,65.928-1.656,0-1.808-4.565-1.808-8.771,0-37.85,27.177-180.358,35.082-188.047,1.731-1.683,3.161.842,3.914-1.082.9-2.283-4.065-6.248-6.023-6.248-6.1,0-38.468,162.574-38.468,197.66,0,6.61,4.29,9.973,8.28,9.973,4.671,0,15.764-32.195,26.019-63.262,1.141,3.034,4.008,5.346,5.864,5.346,8.007,0,26.5-27.876,38.626-39.291-4.358,14.658-12.366,34.244-12.366,44.457,0,4.447,4.829,10.934,10.952,10.934,4.24,0,11.9-8.771,20.374-18.5,4.3-4.981,8.769-10.261,12.777-15.032a50.951,50.951,0,0,0-1.542,10.107c0,6.73,4.441,9.733,5.645,9.733,3.539,0,17.241-24.392,22.133-35.687-1.731,10.332-3.538,20.066-5.5,29.2-22.661,28.117-49.461,66.207-49.461,88.2,0,6.73,3.238,14.18,11.218,14.18,16.713,0,35.157-58.4,44.115-105.86,9.712-11.535,19.123-21.749,26.574-29.078,1.205-1.321-.9-3.605-1.5-3.124" transform="translate(121.062 128.632)"/><path class="a" d="M321.817,295.27c.6-.239,13.325-24.633,13.4-26.195s-2.635-6.967-3.238-5.767-2.107,5.647-2.484,6.127.075,2.284-.6,2.885-7.3,13.939-8.356,15.861c-.376.6-1.28-.241-1.355.48-.15,1.562,2.108,6.609,2.635,6.609" transform="translate(149.905 145.447)"/><path class="a" d="M448.317,297.162c.6-.241,13.324-24.633,13.4-26.195S459.083,264,458.48,265.2s-2.108,5.647-2.484,6.127.075,2.284-.6,2.883-7.3,13.939-8.357,15.861c-.376.6-1.28-.239-1.355.481-.151,1.562,2.108,6.608,2.635,6.608" transform="translate(209.317 146.493)"/><path class="a" d="M599.917,338.568c-8.13,15.981-19.949,38.331-25.068,38.331q-1.808,0-1.808-3.967c0-7.209,3.313-16.942,3.539-24.512.15-4.806-1.883-10.813-5.8-10.813-4.893,0-15.884,23.431-25.444,51.067,0-19.586,20.1-123.4,31.693-137.581,2.184-2.644,4.366-.84,4.743-2.644.378-1.682-3.463-5.287-6.323-5.287-.9,0-2.335,1.442-3.539,3.966-7.307,15.381-17.69,58.315-24.727,96.363-5.328,9.6-22.176,39.845-25.183,37.132-2.182-1.922,6.625-36.047,6.625-44.458,0-5.046-1.506-7.45-3.539-7.45-11.366,0-31.016,57.076-30.338,51.067C497.161,357.432,505.14,334,505.29,331s-2.86-5.768-3.839-5.287c-.9.48-3.011,6.969-3.99,10.333a3.615,3.615,0,0,0,.075,1.8l.076.239a3.207,3.207,0,0,1,0,1.683q-.344,1.411-.681,2.835c-8.947,17.7-24.243,42.781-27.925,40.061-2.861-2.163,4.817-30.76,10.238-44.339.528-1.441-2.334-6.248-4.518-7.57a1.2,1.2,0,0,0-1.2-.241c-.526.241-.979,1.562-2.635,6.849-.3.961.151,1.2.226,1.922a4.3,4.3,0,0,1-.151,1.922c-.4,1.247-.955,3.5-1.559,6.363-7.488,14.243-16.215,29.325-20.419,29.325q-1.808,0-1.806-3.967c0-7.209,3.311-16.942,3.537-24.512.151-4.806-1.881-10.813-5.8-10.813-4.894,0-15.884,23.431-25.446,51.067,0-19.586,20.1-123.4,31.695-137.581,2.182-2.644,4.365-.84,4.743-2.644.376-1.682-3.464-5.287-6.324-5.287-.9,0-2.334,1.442-3.539,3.966-7.04,14.818-16.932,55.2-23.939,92.16-7.138,11.981-28.733,47.224-34.627,47.224-.829,0-1.28-.842-1.28-4.445,0-16.7,8.958-46.141,15.055-46.141,2.184,0,4.818,4.326,5.345,3s-3.388-9.012-8.808-9.012-15.884,24.993-15.884,46.5c0,6.368,3.161,13.338,6.624,13.338,4.456,0,22.039-27.053,32.51-44.759-4.413,24.078-7.442,46.014-7.442,57.5,0,2.164,4.216,4.927,4.668,3.124,6.925-29.2,22.132-63.324,26.423-63.324.754,0,.979,1.444.979,3.365,0,4.087-2.635,20.187-2.635,24.993s2.635,10.094,7,10.094c3.211,0,10.931-12.983,18.02-26.213-1.392,7.846-2.665,17.243-2.665,23.69,0,5.526,2.108,6.969,4.29,6.969,6.218,0,18.284-21.173,25.472-34.845-3.166,14.265-5.6,28-5.9,35.325-.15,4.567,3.388,6.489,4.14,5.528,12.272-33.044,27.478-63.684,31.092-59.358,1.806,2.163-7.153,29.319-7.153,45.54,0,2.163,1.731,7.209,5.345,7.209,4.9,0,16.819-21.608,23.213-33.957-3.855,21.827-6.428,41.281-6.428,51.86,0,2.164,4.216,4.927,4.668,3.124,6.926-29.2,22.133-63.324,26.425-63.324.752,0,.979,1.444.979,3.365,0,4.087-2.635,20.187-2.635,24.993s2.635,10.094,7,10.094c4.291,0,16.637-23.19,24.768-39.173,1.129-2.283-.226-4.085-.754-3" transform="translate(179.369 134.406)"/><path class="a" d="M612.723,295.861c1.806.241,1.43-.72.226-1.443-4.593-2.643-7.83-18.624-8.733-21.869s-5.572-2.883-4.518-.36c1.581,4.686,6.172,22.589,13.024,23.672" transform="translate(281.584 149.356)"/><path class="a" d="M750.659,338.568c-8.13,15.981-19.949,38.331-25.068,38.331q-1.808,0-1.808-3.967c0-7.209,3.313-16.942,3.539-24.512.15-4.806-1.883-10.813-5.8-10.813-4.893,0-15.884,23.431-25.444,51.067,0-19.586,20.1-123.4,31.693-137.581,2.184-2.644,4.366-.84,4.743-2.644.376-1.682-3.462-5.287-6.324-5.287-.9,0-2.334,1.442-3.537,3.966-7.309,15.381-17.69,58.315-24.727,96.363-5.327,9.6-22.176,39.845-25.183,37.132-2.182-1.922,6.625-36.047,6.625-44.458,0-5.046-1.506-7.45-3.539-7.45-11.366,0-31.016,57.076-30.338,51.067C647.9,357.432,655.882,334,656.032,331s-2.86-5.768-3.839-5.287c-.9.48-3.011,6.969-3.99,10.333a3.613,3.613,0,0,0,.075,1.8l.076.239a3.206,3.206,0,0,1,0,1.683q-.344,1.411-.68,2.835c-8.947,17.7-24.244,42.781-27.925,40.061-2.861-2.163,4.818-30.76,10.238-44.339.528-1.441-2.334-6.248-4.518-7.57a1.2,1.2,0,0,0-1.2-.241c-.526.241-.979,1.562-2.635,6.849-.3.961.151,1.2.225,1.922a4.279,4.279,0,0,1-.15,1.922c-.347,1.084-.813,2.933-1.326,5.276-9.05,17.442-17.507,30.291-19.974,30.291-2.712,0,2.484-22.83,2.484-34.005,0-2.883-.6-8.171-5.345-8.171s-16.335,37.609-20.1,37.609c-1.356,0,6.4-36.407,6.4-44.7,0-3.244-.453-8.29-4.142-8.29-6.927,0-30.941,81.347-33.952,81.106s13.7-70.532,17.239-83.028c.754-2.764-2.86-5.768-3.839-5.287-.9.48-3.689,9.372-4.593,12.857a3.613,3.613,0,0,0,.076,1.8l.073.241a3.171,3.171,0,0,1,0,1.682c-4.365,17.543-13.4,54.672-13.4,66.448,0,10.093,4.366,11.414,5.8,11.414s28.156-81.948,31.92-82.067c2.184-.121-6.927,32.322-6.927,44.578,0,7.45,3.238,11.295,5.27,11.295,3.163,0,18.746-42.415,20.628-42.415s-3.388,19.706-3.388,33.164c0,5.407,4.29,9.132,6.1,9.132,3.909,0,12.692-15.982,18.347-27.018-1.489,8.105-2.919,18.259-2.919,25.1,0,5.526,2.107,6.969,4.29,6.969,6.218,0,18.284-21.173,25.472-34.845-3.166,14.265-5.6,28-5.9,35.325-.15,4.567,3.388,6.489,4.14,5.528,12.272-33.044,27.478-63.684,31.092-59.358,1.806,2.163-7.153,29.319-7.153,45.54,0,2.163,1.731,7.209,5.345,7.209,4.9,0,16.819-21.608,23.213-33.957-3.855,21.827-6.428,41.281-6.428,51.86,0,2.164,4.216,4.927,4.668,3.124,6.927-29.2,22.133-63.324,26.425-63.324.752,0,.979,1.444.979,3.365,0,4.087-2.635,20.187-2.635,24.993s2.635,10.094,7,10.094c4.291,0,16.637-23.19,24.768-39.173,1.129-2.283-.226-4.085-.754-3" transform="translate(254.233 134.406)"/><path class="a" d="M295.956,301.453c4.291-4.565,9.033-10.214,13.928-14.779.752-.72,2.484-2.283,3.386-1.562.451.36-.225,2.043-.3,2.883-.075,1.683.979,13.338,4.668,15.02,1.13.48,3.011-.239,2.56-2.643-.451-2.284-2.108-1.323-3.236-1.8-1.357-.481-1.506-3.484-1.658-5.407-.225-3.484.829-9.733,3.464-12.017.376-.36.979-.6.979-1.562s-.9-1.922-1.205-2.523c-.3-.481-1.205-2.4-1.58-2.4-.6-.121-1.357,1.682-1.733,2.283-.9,1.441-1.881,3-2.86,4.326a27.612,27.612,0,0,1-4.14,3.484C303.785,288,293.4,295.085,293.17,295.565c-.526.961-.075,3.245.378,4.206.6,1.321,1.581,2.523,2.409,1.682" transform="translate(137.58 151.813)"/></g></svg>