<svg xmlns="http://www.w3.org/2000/svg" xmlns:xlink="http://www.w3.org/1999/xlink" width="273.394" height="42.094" viewBox="0 0 273.394 42.094"><defs><style>.a{fill:none;}.b{clip-path:url(#a);}.c{fill:#040504;}</style><clipPath id="a"><rect class="a" width="273.394" height="42.094"/></clipPath></defs><g transform="translate(0 0)"><g class="b" transform="translate(0 0)"><path class="c" d="M2.329,42.094l3.51-3.7A23.509,23.509,0,0,0,4.768,4.68L0,.223,5.867,5.236a25.536,25.536,0,0,0,33.86-.894L44.272,0l-3.51,3.7a23.509,23.509,0,0,0,1.071,33.713L46.6,41.871l-5.867-5.013a25.536,25.536,0,0,0-33.86.894Z" transform="translate(0 0)"/><path class="c" d="M186.257,42.094l3.51-3.7A23.509,23.509,0,0,0,188.7,4.68L183.928.223,189.8,5.236a25.536,25.536,0,0,0,33.86-.894L228.2,0l-3.51,3.7a23.509,23.509,0,0,0,1.071,33.713l4.768,4.457-5.867-5.013a25.536,25.536,0,0,0-33.86.894Z" transform="translate(-70.532 0)"/><path class="c" d="M370.186,42.094l3.51-3.7A23.509,23.509,0,0,0,372.625,4.68L367.857.223l5.867,5.013a25.536,25.536,0,0,0,33.86-.894L412.129,0l-3.51,3.7a23.509,23.509,0,0,0,1.071,33.713l4.768,4.457-5.867-5.013a25.536,25.536,0,0,0-33.86.894Z" transform="translate(-141.064 0)"/></g></g></svg>