<svg xmlns="http://www.w3.org/2000/svg" xmlns:xlink="http://www.w3.org/1999/xlink" width="301.887" height="293.069" viewBox="0 0 301.887 293.069"><defs><style>.a{fill:none;}.b{clip-path:url(#a);}.c{fill:#fff;}</style><clipPath id="a"><rect class="a" width="301.887" height="293.069" transform="translate(1715.52 785.416)"/></clipPath></defs><g transform="translate(-1715.52 -785.416)"><g class="b"><path class="c" d="M1727.2,775.589c6.7-.216,12.182,4.054,15.547,9.6a28.947,28.947,0,0,1,3.645,9.486,45.223,45.223,0,0,1,.129,13.113c-.928,9.114-3.4,18.267-2.688,27.483a35.391,35.391,0,0,0,7.364,19.664,21.862,21.862,0,0,0,7.8,6.134c4.128,1.873,8.489,2.125,12.966,2.084a35.514,35.514,0,0,1,11.65,1.363,30.49,30.49,0,0,1,8.913,4.8c11.56,8.807,17.089,22.824,23.356,35.406,6.394,12.839,14.814,26.234,28.965,31.341,8.395,3.029,17.378,2.056,26.065,1.269,8.031-.728,16.459-1.247,23.917,2.315,11.989,5.727,18.261,18.6,23.569,30.131,1.443,3.135,2.84,6.29,4.282,9.425a84.185,84.185,0,0,0,4.671,9.379,12.152,12.152,0,0,0,4.13,4.278,10.9,10.9,0,0,0,6.989,1.039c2.341-.322,4.611-1.007,6.934-1.432a56.69,56.69,0,0,1,6.39-.774c18.526-1.25,36.877,4.373,55.391,1.719,17.257-2.475,32.026-12.523,45.2-23.358,3.209-2.639,6.355-5.354,9.492-8.078a2.524,2.524,0,0,0,0-3.536,2.551,2.551,0,0,0-3.536,0c-12.529,10.88-25.695,22.229-41.69,27.581-8.438,2.824-17.152,3.456-25.995,3.014-9.262-.462-18.446-1.882-27.706-2.361a88.469,88.469,0,0,0-13.365.2,65.249,65.249,0,0,0-7.04,1.07c-2.161.458-4.371,1.253-6.608,1.124-3.59-.207-5.085-4.375-6.44-7.127-1.507-3.057-2.913-6.162-4.316-9.267-5.467-12.1-11.044-25.318-21.878-33.651a35.887,35.887,0,0,0-20.827-7.2c-8.908-.336-17.726,1.7-26.635,1.279a31.579,31.579,0,0,1-19.707-7.961c-5.292-4.685-9.262-10.611-12.681-16.747-3.516-6.308-6.309-12.966-9.639-19.367a82.922,82.922,0,0,0-12.392-18.289c-4.879-5.263-10.953-9.6-17.949-11.487-4.172-1.125-8.4-1.106-12.681-1.095-3.846.01-7.6-.317-10.97-2.286-5.5-3.213-8.665-9.3-10.133-15.337-1.973-8.106-.46-16.487.756-24.6,1.294-8.63,2.589-17.757-.183-26.241-2.2-6.733-6.556-13.233-12.9-16.67a19.969,19.969,0,0,0-10.16-2.437c-3.209.1-3.224,5.1,0,5"/><path class="c" d="M1789.9,780.109c1.815,8.456,3.724,16.95,7.493,24.789a40.867,40.867,0,0,0,15.679,17.68,30.123,30.123,0,0,0,10.742,3.963,35.843,35.843,0,0,0,12.336-.658c3.523-.676,7.72-1.765,11.163-.207,3.245,1.469,4.7,5.033,5.839,8.173a158.846,158.846,0,0,1,7.146,26.848q1.181,6.741,1.742,13.565c.3,3.674.15,8.161,3.475,10.578,3.884,2.824,8.794-.142,12.7-1.4a79.107,79.107,0,0,1,13.35-3.074,73.658,73.658,0,0,1,13.365-.655c3.381.149,6.722.9,8.406,4.068,1.454,2.735,1.642,6.194,2.235,9.228a19.142,19.142,0,0,0,4.333,9.426c4.8,5.334,12.787,7.357,19.727,6.588,8.893-.986,17.01-5.343,24.766-9.541a39.723,39.723,0,0,0,10.325-7.423,26.593,26.593,0,0,0,5.73-9.722c2.432-7.216,1.934-15.116.7-22.509a87.086,87.086,0,0,0-6.35-22.143,31.292,31.292,0,0,0-15.265-15.715c-6.615-3.006-13.843-3.928-21.006-4.643-7.042-.7-14.192-1.143-20.992-3.251a32.841,32.841,0,0,1-17.288-12.925,56.734,56.734,0,0,1-8.153-45.517,55.2,55.2,0,0,1,3.966-11,2.566,2.566,0,0,0-.9-3.421,2.523,2.523,0,0,0-3.42.9,62.36,62.36,0,0,0-2.946,47.315,53.493,53.493,0,0,0,12.285,20.472,38.42,38.42,0,0,0,19.461,10.121c7.12,1.532,14.424,1.843,21.637,2.7,6.495.771,13.193,2.075,18.748,5.711,6.092,3.988,9.507,10.612,11.684,17.362a90.371,90.371,0,0,1,4.445,21.574c.446,6.853-.359,14.168-4.681,19.777a29.129,29.129,0,0,1-9,7.186c-3.764,2.137-7.654,4.135-11.588,5.94-6.858,3.146-14.545,5.276-21.936,2.75a14.227,14.227,0,0,1-7.149-5.044c-1.826-2.652-2.262-5.9-2.8-9.01-.56-3.255-1.243-6.6-3.291-9.288-2.588-3.392-6.554-4.6-10.661-4.907a77.1,77.1,0,0,0-26.63,3.1q-3.233.93-6.378,2.133c-1.219.464-3.5,1.649-4.63.707-.808-.674-.956-2.3-1.048-3.392-.186-2.19-.329-4.382-.559-6.57a163.6,163.6,0,0,0-5.136-27c-1.193-4.259-2.514-8.518-4.127-12.639-1.418-3.623-3.3-7.174-6.722-9.274-7.427-4.557-16.073.465-23.974.025-7.187-.4-13.768-4.471-18.556-9.651-5.472-5.921-8.5-13.64-10.616-21.3-1.107-4-1.986-8.069-2.858-12.13-.674-3.145-5.5-1.814-4.821,1.329"/><path class="c" d="M2014.555,860.116c-2.163,7.771-.561,15.746,1.118,23.441,1.349,6.18,2.772,12.626,1.649,18.968a18.505,18.505,0,0,1-3.243,7.992,16.749,16.749,0,0,1-6,4.768c-4.875,2.452-10.45,3.266-15.679,4.653-5.324,1.413-10.851,3.442-14.618,7.656-3.991,4.464-5.163,10.4-4.107,16.2a25.1,25.1,0,0,0,8.585,14.535c5.333,4.379,12.02,6.5,18.785,7.321,15.113,1.838,29.618-3.607,44.49-5.074q2.958-.293,5.93-.346c3.214-.056,3.224-5.056,0-5-15.037.262-29.424,5.94-44.481,5.795-11.372-.109-24.268-4.188-27.914-16.194-1.376-4.534-1.146-9.679,2.03-13.449,3.246-3.854,8.217-5.465,12.954-6.7,5.385-1.408,10.9-2.394,15.97-4.79a21.27,21.27,0,0,0,11.344-12.864c2.131-6.655,1.391-13.915.018-20.639-1.663-8.14-4.314-16.655-2.009-24.936.865-3.1-3.958-4.429-4.821-1.329"/><path class="c" d="M1710.788,883.242a155.357,155.357,0,0,0,54.417,48.964c10.4,5.617,21.528,9.49,32.275,14.338,9.825,4.433,19.864,10.007,25.935,19.241,6.929,10.539,7.562,23.579,7.469,35.808-.113,14.71-.539,29.424-.82,44.131-.134,7.052-.513,14.148-.319,21.2.174,6.318,1.467,12.781,6.079,17.423,4.168,4.2,9.973,6.25,15.518,7.9,7.114,2.119,14.269,4.111,21.4,6.162l10.974,3.156c3.342.961,6.747,2.2,10.244,2.417,5.9.359,10.308-3.809,11.24-9.451.919-5.558-.546-10.971-2.2-16.246a114.777,114.777,0,0,0-8-19.225q-2.313-4.388-5.005-8.559v2.524a6.045,6.045,0,0,1,4.944-3.029,16.147,16.147,0,0,1,7.87,1.335,34.233,34.233,0,0,1,7.465,4.954,45.271,45.271,0,0,0,8.746,5.859,19.678,19.678,0,0,0,11.065,1.645c3.762-.5,7.441-1.623,11.271-1.3,5.941.507,11.2,4.224,16.005,7.425,5.366,3.57,10.961,7.326,17.427,8.485,8.229,1.476,16.366-.823,23.917-4,7.719-3.245,15.23-7.052,22.7-10.827q11.178-5.649,22.134-11.721Q2065.3,1039.8,2086.1,1026.1q2.628-1.732,5.241-3.491c1.86-1.251,1.408-4.924-1.262-4.658l-59.989,5.969q-30.12,3-60.238,5.993c-3.452.343-7.855.874-10.272-1.752a5.824,5.824,0,0,1-.789-1.229,1.381,1.381,0,0,1-.192-.5,11.369,11.369,0,0,1-.294-1.163,1.628,1.628,0,0,1-.057-.548c-.012-.323-.026-.644-.018-.967a7.035,7.035,0,0,1,.245-1.862,10.661,10.661,0,0,1,4.259-6.461c3.233-2.12,7.193-2.768,10.99-2.866a107.128,107.128,0,0,1,12.728.807q6.252.586,12.525.9a200.191,200.191,0,0,0,25.618-.3c16.645-1.337,33.287-5.166,47.965-13.354,1.785-.995,3.532-2.058,5.244-3.174,2.685-1.752.182-6.083-2.524-4.318-14.257,9.3-30.946,13.926-47.773,15.586a192.241,192.241,0,0,1-26.43.651c-4.328-.171-8.651-.459-12.966-.84s-8.6-.946-12.928-.972c-7.771-.047-16.673,2.018-20.31,9.667-2.943,6.19-1.945,14.256,5.059,17.046,4.35,1.732,9.386.7,13.886.255l15.618-1.554,30.986-3.083,61.973-6.167,7.684-.764q-.632-2.33-1.262-4.659-20.832,14.01-42.7,26.395c-14.592,8.26-29.5,16-44.7,23.081-7.239,3.372-15.129,6.655-23.281,6.063-6.508-.472-12.074-4.121-17.357-7.632-5.2-3.46-10.631-7.234-16.906-8.365a30.087,30.087,0,0,0-11.167.478c-3.676.7-7.171,1.13-10.734-.3-6.152-2.464-10.364-8.123-16.346-10.865-5.1-2.339-12.1-3.574-16.967-.009a10.272,10.272,0,0,0-2.98,3.365,2.509,2.509,0,0,0,0,2.524A109.583,109.583,0,0,1,1895,1070.76q1.866,4.564,3.323,9.283a52.988,52.988,0,0,1,2.006,7.862,17.109,17.109,0,0,1-.186,6.474,5.753,5.753,0,0,1-2.857,4.063c-2.474,1.277-5.8.151-8.415-.6q-5.368-1.542-10.736-3.087l-21.232-6.1c-5.394-1.551-11.227-2.9-15.808-6.321-4.559-3.4-6.028-8.739-6.3-14.189-.346-6.946.112-13.979.245-20.929.274-14.372.6-28.745.819-43.118.186-12.34-.154-25.22-5.676-36.53-10.294-21.083-35.356-26.666-54.812-35.818a151.439,151.439,0,0,1-55.243-44.089c-1.746-2.259-3.412-4.579-5.019-6.938-1.8-2.644-6.135-.145-4.317,2.524"/><path class="c" d="M1682.892,961.221c2.946,4.255,7.839,6.084,12.881,6.218,5.788.153,11.084-2.18,16.293-4.409,4.812-2.06,9.606-3.685,14.9-3.546a29.992,29.992,0,0,1,12.994,3.4,27.876,27.876,0,0,1,9.962,8.448c3.19,4.531,4.315,9.864,5.7,15.134,1.437,5.464,3.41,10.8,7.533,14.828,3.919,3.832,9.305,5.832,14.725,4.392,5.186-1.379,9.113-5.52,14.3-6.786,1.812-.442,4.008-.63,5.635.392,2.038,1.28,2.165,3.966,2.217,6.138.295,12.168-2.662,24.147-6.94,35.462-2.2,5.808-4.772,11.461-7.522,17.024-2.738,5.54-5.761,10.937-8.422,16.515-4.89,10.25-8.285,21.525-4.922,32.793,2.647,8.865,8.776,16.214,15.906,21.91,7.859,6.278,16.812,10.932,26.054,14.816q3.278,1.377,6.608,2.62v-4.821a57.412,57.412,0,0,1-39.916-3.515c-12.582-5.891-22.869-15.89-27.894-28.96-3.079-8.009-4.7-16.471-7.315-24.626-2.538-7.9-6.144-15.343-11.846-21.458-10.585-11.352-26.4-17.459-41.794-17.52-16.872-.066-33.233,6.729-46.157,17.354q-2.353,1.935-4.546,4.051c-2.326,2.233,1.212,5.766,3.535,3.536,11.577-11.115,26.935-18.787,43.08-19.817,14.933-.952,30.493,4.058,41.189,14.735,5.616,5.6,9.149,12.559,11.587,20.046,2.631,8.078,4.237,16.467,7.221,24.434a56.326,56.326,0,0,0,11.441,18.823,61.355,61.355,0,0,0,16.5,12.495,63.908,63.908,0,0,0,41.187,6.46c1.7-.323,3.389-.733,5.055-1.217,2.507-.727,2.232-3.984,0-4.821a124.808,124.808,0,0,1-25.843-12.8c-7.356-4.933-14.2-11.255-17.908-19.448a29.527,29.527,0,0,1-2.553-12.827c.141-5.767,1.944-11.418,4.245-16.663,2.443-5.567,5.42-10.876,8.177-16.289,2.876-5.647,5.579-11.381,7.991-17.243,4.67-11.35,8.1-23.32,8.721-35.633.271-5.386.741-12.292-4.344-15.7-4.358-2.918-10.406-1.418-14.669.879-4.124,2.222-8.588,6.12-13.621,4.966-4.6-1.053-7.982-5.178-9.783-9.336-2.333-5.384-2.926-11.35-5.1-16.795a30.287,30.287,0,0,0-8.489-11.9,35.02,35.02,0,0,0-26.807-8.209c-5.812.757-10.926,3.406-16.319,5.516-4.5,1.762-9.34,2.995-14.106,1.522a8.415,8.415,0,0,1-4.5-3.09,2.564,2.564,0,0,0-3.42-.9,2.522,2.522,0,0,0-.9,3.42"/><path class="c" d="M1848.972,970.721c5.12,6.589,12.355,11.082,19.579,15.036,3.628,1.985,7.381,3.787,10.908,5.949,3.2,1.961,6.106,4.531,5.964,8.583-.134,3.807-2.388,7.859-4.711,10.785-2.251,2.834-5.3,4.885-8.993,3.593-3.489-1.22-6.172-4.372-8.009-7.456a55,55,0,0,1-4.375-10.143c-1.582-4.52-3.355-8.9-5.262-13.292-1.885-4.342-3.715-9.152-2.283-13.887.933-3.087-3.891-4.406-4.822-1.329-1.492,4.934-.353,9.994,1.5,14.661,1.734,4.372,3.746,8.594,5.3,13.039,2.824,8.066,5.768,17.095,13.516,21.788,4.252,2.576,9.431,2.793,13.536-.192,3.747-2.725,6.345-6.918,8.1-11.144,1.888-4.555,2.267-9.851-.8-14-2.757-3.733-6.976-5.876-10.977-8.017-8.889-4.759-18.307-9.369-24.63-17.507a2.515,2.515,0,0,0-3.536,0,2.565,2.565,0,0,0,0,3.536"/></g></g></svg>