<svg xmlns="http://www.w3.org/2000/svg" xmlns:xlink="http://www.w3.org/1999/xlink" width="136.665" height="23.728" viewBox="0 0 136.665 23.728"><defs><style>.a{fill:none;}.b{clip-path:url(#a);}.c{fill:#ff9d00;}</style><clipPath id="a"><rect class="a" width="136.665" height="23.728"/></clipPath></defs><g transform="translate(0 0)"><g class="b" transform="translate(0 0)"><path class="c" d="M24.126,22.806a6.126,6.126,0,0,1-1.927-.238,1.608,1.608,0,0,1-.767-.949Q16.083,8.766,14.737,5.57,13.015,1.482,12.53.2c-.05-.132-.112-.2-.187-.2q-.187,0-.3.363l-.162.6a3.5,3.5,0,0,0-.346.874Q8.515,9.215,3.7,21.381a1.9,1.9,0,0,1-.822,1.074,4.043,4.043,0,0,1-1.7.316Q0,22.8,0,23.1c0,.2.176.3.524.3a2.789,2.789,0,0,0,.487-.055,6.1,6.1,0,0,1,1.16-.11c.4,0,.785.012,1.158.034q2.283.13,4,.131.972,0,.972-.33,0-.3-1.085-.328c-1.172-.067-1.794-.11-1.869-.133a.517.517,0,0,1-.449-.559q0-.792,2.242-6.064h7.994q1.308,3.5,1.644,4.519l.192.459.305.873a1.6,1.6,0,0,1,.077.257q0,.549-3.29.581c-.675,0-1.011.127-1.011.381,0,.23.249.344.749.344a4.483,4.483,0,0,0,.56-.032l4.751-.133,4.75.133a6.187,6.187,0,0,0,.673.032q.561,0,.561-.281t-.972-.311M7.359,15.225Q9.573,9.392,11.15,5.746l1.8,4.567q1.409,3.431,2.018,4.912Z" transform="translate(0 0)"/><path class="c" d="M33.325,8.569a5,5,0,0,0-4.264,1.879V.1h-.149a2.518,2.518,0,0,0-.786.23,10.635,10.635,0,0,1-3.964.758h-.525c-.274,0-.411.078-.411.231,0,.177.3.264.9.264a5.348,5.348,0,0,1,1.458.1q.486.264.486,3.591V22.41q0,1.089.3,1.088a1.8,1.8,0,0,0,.786-.314,1.876,1.876,0,0,1,.934-.312,6.851,6.851,0,0,1,1.72.427,7.675,7.675,0,0,0,8.116-1.976,8.025,8.025,0,0,0,2.358-5.833,6.765,6.765,0,0,0-1.909-5.026,6.849,6.849,0,0,0-5.048-1.895m2.012,13.12a3.738,3.738,0,0,1-3.269,1.479q-2.331,0-2.744-1.381a29.256,29.256,0,0,1-.263-5.392A21.439,21.439,0,0,1,29.4,11.2a2.976,2.976,0,0,1,1.278-1.43,3.745,3.745,0,0,1,1.992-.576,3.515,3.515,0,0,1,3.1,1.678,8.626,8.626,0,0,1,1.108,4.766,10.407,10.407,0,0,1-1.54,6.05" transform="translate(0 0)"/><path class="c" d="M50.344,8.569a7.631,7.631,0,0,0-5.556,2.175,7.33,7.33,0,0,0-2.224,5.471,7.07,7.07,0,0,0,2.281,5.355,7.952,7.952,0,0,0,5.686,2.159,7.555,7.555,0,0,0,5.5-2.159,7.191,7.191,0,0,0,2.207-5.355,7.291,7.291,0,0,0-2.264-5.455,7.772,7.772,0,0,0-5.627-2.191m2.917,13.545a2.916,2.916,0,0,1-2.544,1.153,3.982,3.982,0,0,1-3.5-1.862,9.215,9.215,0,0,1-1.253-5.19,9.945,9.945,0,0,1,1.177-5.257,3.67,3.67,0,0,1,3.274-1.894,3.421,3.421,0,0,1,3.141,1.483,10.522,10.522,0,0,1,1.272,5.635,9.953,9.953,0,0,1-1.57,5.932" transform="translate(0 0)"/><path class="c" d="M77.576,21.981a13.2,13.2,0,0,1-2.09-.1c-.307-.066-.5-.308-.572-.725a23.525,23.525,0,0,1-.111-3v-9.2H69.717q-.788,0-.787.2,0,.328,1.572.3a2.742,2.742,0,0,1,.842.082c.135.055.217.247.242.574v1.082a9.091,9.091,0,0,1,.112,1.674V17.95a6.392,6.392,0,0,1-.672,3.346,3.229,3.229,0,0,1-2.918,1.444,2.41,2.41,0,0,1-2.432-1.279,9.594,9.594,0,0,1-.372-3.346V8.964a20.706,20.706,0,0,1-2.433.132c-.074,0-.324-.015-.747-.043-.849-.059-1.5-.089-1.945-.089q-.636,0-.636.231,0,.33,1.009.264h.487q.861.033,1.009.228a3.2,3.2,0,0,1,.151,1.342v7.495a21.347,21.347,0,0,0,.091,2.651,2.512,2.512,0,0,0,.577,1.08A4.885,4.885,0,0,0,66.8,23.663a5.812,5.812,0,0,0,4.787-2.11V23.4c0,.176.076.265.225.265a.688.688,0,0,0,.262-.066A14.958,14.958,0,0,1,77.2,22.476q.822-.033.822-.264c0-.153-.148-.231-.443-.231" transform="translate(0 0)"/><path class="c" d="M88.753,21.223a.445.445,0,0,0-.336.165,4.651,4.651,0,0,1-2.768,1.219q-1.458,0-1.721-1.17a36.665,36.665,0,0,1-.261-5.783v-6.1H85.2q3.029,0,3.029-.473c0-.189-.1-.284-.3-.284a1.239,1.239,0,0,0-.262.033A14.189,14.189,0,0,1,84.939,9a6.616,6.616,0,0,1-1.123-.066,6.434,6.434,0,0,1-.149-1.779V6.459c0-.153-.087-.231-.261-.231a.669.669,0,0,0-.556.3,5.877,5.877,0,0,1-4.535,2.534c-.272.022-.409.11-.409.263s.276.23.824.23h1.421a.394.394,0,0,1,.411.363v9.8q0,2.565.6,3.09a4.57,4.57,0,0,0,3.1.921,5.926,5.926,0,0,0,3.815-1.286c.623-.5.936-.857.936-1.054,0-.11-.088-.165-.263-.165" transform="translate(0 0)"/><path class="c" d="M121.149,22.937h-.664a3.159,3.159,0,0,1-1.159-.181,2.838,2.838,0,0,1-.128-1.236V13.38a6.566,6.566,0,0,0-.525-3.065q-.975-1.746-3.747-1.746a5.2,5.2,0,0,0-4.681,2.208q-.713-2.208-4.047-2.208a5.271,5.271,0,0,0-4.609,2.109c-.024-1.055-.05-1.669-.074-1.845s-.1-.264-.225-.264a1.192,1.192,0,0,0-.6.362,3.419,3.419,0,0,1-1.48.626,9.587,9.587,0,0,1-2.154.4q-1.047.066-1.217.1a.2.2,0,0,0-.169.23c0,.155.163.231.487.231h1.234c.649,0,1.009.142,1.085.428a19.283,19.283,0,0,1,.111,2.892v8.546a.493.493,0,0,1-.261.412,6.071,6.071,0,0,1-1.646.114c-.324,0-.487.076-.487.23,0,.176.176.263.524.263h3.666q1.906-.031,2.805,0h.375c.324,0,.485-.076.485-.23,0-.176-.134-.263-.405-.263a2.921,2.921,0,0,0-.4.032h-.294c-.614,0-.977-.06-1.086-.181a2.268,2.268,0,0,1-.166-1.167V12.252a2.374,2.374,0,0,1,.91-1.9,3.459,3.459,0,0,1,2.286-.757,2.245,2.245,0,0,1,1.913.723,4.637,4.637,0,0,1,.539,2.63v9.173l-.038.46c-.025.2-.236.307-.635.329-.849,0-1.347.012-1.5.033s-.225.089-.225.2c0,.176.149.263.449.263h6.732c.375,0,.561-.071.561-.214,0-.164-.159-.247-.478-.247h-1.067c-.368,0-.589-.131-.662-.4a10.725,10.725,0,0,1-.037-1.252V15.06a22.75,22.75,0,0,1,.148-3.658,2.809,2.809,0,0,1,1.172-1.3,3.4,3.4,0,0,1,1.8-.511,2.226,2.226,0,0,1,1.949.809,4.86,4.86,0,0,1,.577,2.726v8.193A5.326,5.326,0,0,1,116,22.706c-.062.132-.28.21-.655.231H114.11c-.274,0-.411.083-.411.247,0,.143.161.214.486.214h6.733c.424,0,.636-.081.636-.245s-.135-.237-.4-.216" transform="translate(0 0)"/><path class="c" d="M136.365,19.51a.458.458,0,0,0-.411.264,7.435,7.435,0,0,1-1.945,2.274,4.288,4.288,0,0,1-2.394.593,4.915,4.915,0,0,1-4.058-1.789,7.971,7.971,0,0,1-1.44-5.106,12.148,12.148,0,0,1,.187-2.069q4.226-.1,4.488-.1h2.619a21.787,21.787,0,0,0,3.179-.133,4.546,4.546,0,0,0-1.908-3.509,7.753,7.753,0,0,0-9.818.841,7.576,7.576,0,0,0-2.15,5.5,7,7,0,0,0,2.263,5.305,7.864,7.864,0,0,0,5.628,2.143,6.18,6.18,0,0,0,4.3-1.45,7.461,7.461,0,0,0,1.178-1.368,2.729,2.729,0,0,0,.58-1.17c0-.153-.1-.231-.3-.231M130.194,9.064q3.066,0,3.217,3.954h-6.994q.746-3.954,3.777-3.954" transform="translate(0 0)"/></g></g></svg>