<svg xmlns="http://www.w3.org/2000/svg" xmlns:xlink="http://www.w3.org/1999/xlink" width="2090.908" height="402" viewBox="0 0 2090.908 402"><defs><style>.a{fill:none;}.b{clip-path:url(#a);}.c{fill:#fff;}</style><clipPath id="a"><rect class="a" width="2090.908" height="402"/></clipPath></defs><g class="b"><path class="c" d="M2043.611,75.773c-44.959-19.59-109.244-14.832-131.441-12.629,3.343.38,82.005,9.933,97.584,42.1,7.687,15.87-.147,36.907-23.9,47.358-63.77,28.065-195.62-40.7-378.39-57.883-88-8.271-221.237-7.727-401,40.83,4.86-1.54,73.754-24.255,76.381-68.192C1285.272,26.8,1229.193,2.543,1223.1,0c13.408,9.519,44.387,34.246,31.865,59.987-15.641,32.153-89.287,45.616-135.424,53.673-33.42,5.837-160.357,25.9-452.076-7.366C539.226,91.67,482.485,78.525,404.584,93.665c-62.262,12.1-103.695,35.593-128.8,53.341,8.352-11.079,22.1-25.083,45.154-38.608,63.208-37.08,149-42.763,175.254-43.957-26.177-1.08-220.183-7.408-348.517,69.215C88.575,168.944,67.391,207.5,59,229.571H2031.487c83.195-58.9,74.916-126.435,12.124-153.8M1548.894,201.88c-132.429-5.477-234.577-36.328-294.778-58.864a1418.757,1418.757,0,0,1,298.047-14.606A1382.931,1382.931,0,0,1,1831.2,172.825a986.574,986.574,0,0,1-282.307,29.056" transform="translate(-1.396)"/><path class="c" d="M48.611,320.319C93.5,335.1,157.674,331.511,179.834,329.848c-3.338-.287-81.87-7.494-97.423-31.763-7.673-11.974.147-27.846,23.859-35.733,63.664-21.175,195.3,30.711,377.764,43.673,87.853,6.242,220.872,5.831,400.336-30.806-4.852,1.161-73.631,18.3-76.254,51.452-2.421,30.6,53.564,48.9,59.646,50.82-13.386-7.182-44.313-25.838-31.811-45.262,15.615-24.26,89.139-34.417,135.2-40.5,33.366-4.4,160.092-19.541,451.327,5.558,128.027,11.034,184.675,20.953,262.447,9.529,62.158-9.129,103.523-26.855,128.585-40.246-8.338,8.358-22.065,18.925-45.08,29.129-63.1,27.978-148.75,32.267-174.964,33.167,26.133.814,219.819,5.59,347.939-52.225,59.006-26.625,80.153-55.718,88.53-72.37H60.715c-83.056,44.444-74.791,95.4-12.1,116.043m493.9-95.15C674.719,229.3,776.7,252.579,836.8,269.583A1868.472,1868.472,0,0,1,539.246,280.6,1794.415,1794.415,0,0,1,260.67,247.092a1290.254,1290.254,0,0,1,281.839-21.922" transform="translate(0 24.508)"/></g></svg>