<svg xmlns="http://www.w3.org/2000/svg" xmlns:xlink="http://www.w3.org/1999/xlink" width="439.629" height="25.35" viewBox="0 0 439.629 25.35"><defs><style>.a{fill:none;}.b{clip-path:url(#a);}.c{fill:#fff;}</style><clipPath id="a"><rect class="a" width="439.629" height="25.35" transform="translate(0 0)"/></clipPath></defs><g transform="translate(-1 1)"><g class="b" transform="translate(1 -1)"><path class="c" d="M12.376,18.72c0,.14-.147.208-.442.208H7.2c-.225,0-.338-.068-.338-.207q0-.182.988-.182c.4,0,.628-.048.689-.142a2.74,2.74,0,0,0,.091-.973V12.158a11.769,11.769,0,0,0-.208-2.93,1.852,1.852,0,0,0-1.95-1.194A2.375,2.375,0,0,0,4.446,9.15a3.171,3.171,0,0,0-.26,1.608v6.614a6.04,6.04,0,0,0,.026.8c.017.173.086.273.208.3a10.1,10.1,0,0,0,1.118.064c.208,0,.312.07.312.207,0,.121-.087.182-.26.182H3.276q-2.159-.027-2.392,0H.624c-.191,0-.286-.052-.286-.157,0-.12.095-.181.286-.181h.39l.39-.025c.4.016.606-.105.624-.366V6.507A34.865,34.865,0,0,0,1.9,2q-.156-.26-1.274-.286Q0,1.716,0,1.523c0-.111.043-.175.13-.194s.381-.036.884-.054A6.022,6.022,0,0,0,3.562.651,2.572,2.572,0,0,1,3.926.52a5.916,5.916,0,0,1,.182,2V8.892a3.6,3.6,0,0,1,3.12-1.664,3.522,3.522,0,0,1,2.964,1.144,3.126,3.126,0,0,1,.546,1.613,17.106,17.106,0,0,1,.052,1.741v6.553q.026.258,1.352.259c.156.036.234.1.234.182"/><path class="c" d="M20.306,17.342q0,.234-.65.832A3.816,3.816,0,0,1,17,19.188a2.933,2.933,0,0,1-2.158-.726,4.178,4.178,0,0,1-.416-2.438V8.293a.289.289,0,0,0-.286-.285h-.988q-.572,0-.572-.182c0-.121.1-.19.284-.208a4,4,0,0,0,3.152-2,.453.453,0,0,1,.387-.237.161.161,0,0,1,.181.183v.546a5.667,5.667,0,0,0,.1,1.4,4.005,4.005,0,0,0,.78.053,8.668,8.668,0,0,0,1.9-.131.779.779,0,0,1,.182-.026c.139,0,.208.075.208.224q0,.375-2.106.374H16.588v4.811a32.864,32.864,0,0,0,.182,4.562,1.075,1.075,0,0,0,1.2.923,3.05,3.05,0,0,0,1.924-.962.3.3,0,0,1,.234-.13c.121,0,.182.044.182.13"/><path class="c" d="M27.69,17.342q0,.234-.65.832a3.816,3.816,0,0,1-2.652,1.014,2.937,2.937,0,0,1-2.159-.726,4.189,4.189,0,0,1-.415-2.438V8.293a.289.289,0,0,0-.286-.285H20.54q-.572,0-.572-.182c0-.121.095-.19.284-.208a4,4,0,0,0,3.152-2,.453.453,0,0,1,.387-.237.161.161,0,0,1,.181.183v.546a5.667,5.667,0,0,0,.1,1.4,4.005,4.005,0,0,0,.78.053,8.651,8.651,0,0,0,1.9-.131.794.794,0,0,1,.183-.026c.139,0,.208.075.208.224q0,.375-2.106.374H23.972v4.811a32.865,32.865,0,0,0,.182,4.562,1.075,1.075,0,0,0,1.2.923,3.05,3.05,0,0,0,1.924-.962.3.3,0,0,1,.234-.13c.12,0,.182.044.182.13"/><path class="c" d="M39.129,13.1a6.493,6.493,0,0,1-1.474,4.343,4.611,4.611,0,0,1-3.665,1.741,3.133,3.133,0,0,1-2.661-1.247V24a3.086,3.086,0,0,0,.039.676c.026.069.11.13.251.182a9.575,9.575,0,0,0,1.526.077c.211,0,.316.079.316.235,0,.121-.113.181-.338.181h-5.1q-.755,0-.754-.193c0-.165.1-.248.312-.248h.78q.753,0,.806-.338.026-.156.026-2.392V9.229c0-.484-.234-.71-.7-.675H27.4c-.156,0-.234-.064-.234-.194,0-.165.19-.248.572-.248a4.769,4.769,0,0,0,2.6-.677,1.148,1.148,0,0,1,.52-.208.264.264,0,0,1,.273.2,6.294,6.294,0,0,1,.091,1.183,3.158,3.158,0,0,1,2.756-1.379,4.7,4.7,0,0,1,3.705,1.652A6.182,6.182,0,0,1,39.129,13.1m-2.314.013a8.629,8.629,0,0,0-.627-3.466A2.748,2.748,0,0,0,33.6,7.67a2.166,2.166,0,0,0-1.568.638,2.284,2.284,0,0,0-.7,1.551q-.052,1.147.026,4.821.026,1.851.078,2.229a1.7,1.7,0,0,0,.34.769,2.309,2.309,0,0,0,1.959,1.068A2.219,2.219,0,0,0,35.77,17.6a8.635,8.635,0,0,0,1.045-4.483"/><path class="c" d="M48.645,15.565a3.43,3.43,0,0,1-1.1,2.567,3.648,3.648,0,0,1-2.621,1.055,5.072,5.072,0,0,1-2.143-.623,1.289,1.289,0,0,0-.594-.183q-.361,0-.542.495c-.069.208-.164.311-.284.311s-.181-.069-.181-.208V15.5c0-.191.061-.286.182-.286q.208,0,.234.288a3.89,3.89,0,0,0,.676,1.885,3.32,3.32,0,0,0,2.782,1.363,2.093,2.093,0,0,0,1.508-.547,1.929,1.929,0,0,0,.572-1.46,2.089,2.089,0,0,0-.65-1.615,2.819,2.819,0,0,0-.663-.483q-.3-.144-1.755-.69-2.886-1.1-2.886-3.283a3.347,3.347,0,0,1,.98-2.45,3.276,3.276,0,0,1,2.425-.991,5.943,5.943,0,0,1,1.547.313,1.66,1.66,0,0,0,.465.078.625.625,0,0,0,.67-.521c.052-.173.129-.26.233-.26.12,0,.18.07.18.208V8.294a14.655,14.655,0,0,0,.13,2v.052a.183.183,0,0,1-.208.208c-.1,0-.234-.261-.39-.786a3.03,3.03,0,0,0-1-1.522,2.553,2.553,0,0,0-1.651-.578,2.024,2.024,0,0,0-1.456.547A1.837,1.837,0,0,0,42.535,9.6q0,1.3,1.742,1.981a12.087,12.087,0,0,1,3.432,1.771,2.98,2.98,0,0,1,.936,2.215"/><path class="c" d="M54.079,8.737a1.35,1.35,0,0,1-.39.974,1.315,1.315,0,0,1-.988.4,1.378,1.378,0,0,1-1.4-1.4,1.324,1.324,0,0,1,.4-.974,1.359,1.359,0,0,1,1-.4,1.329,1.329,0,0,1,.975.4,1.356,1.356,0,0,1,.4,1m0,8.943A1.374,1.374,0,0,1,52.7,19.058a1.375,1.375,0,0,1-1.4-1.4,1.33,1.33,0,0,1,.4-.976,1.357,1.357,0,0,1,1-.4,1.327,1.327,0,0,1,.975.4,1.361,1.361,0,0,1,.4,1"/><path class="c" d="M68.405,0,57.667,19.656H56.392L67.131,0Z"/><path class="c" d="M81.119,0,70.381,19.656H69.106L79.845,0Z"/><path class="c" d="M97.889,7.735q0,.22-.39.221h-.676q-.546,0-1.04,1.51-.286.975-.546,1.948l-.806,2.6q-.442,1.353-1.3,4.317-.235.884-.443.884-.183,0-.457-.65t-1.4-3.716q-.288-.805-.862-2.339Q89.6,11.5,89.4,10.821q-1.016,2.859-2.629,8.084-.1.309-.313.309t-.364-.39q-.054-.182-.313-.884l-.625-1.664q-.261-.676-1.017-3.042t-.885-2.809a8.447,8.447,0,0,0-1.068-2.391,2.326,2.326,0,0,0-.846-.105q-.614,0-.613-.233c0-.121.1-.183.286-.183h4.706c.243,0,.364.07.364.208,0,.157-.087.235-.26.235h-.65c-.416-.018-.624.069-.624.258a9.291,9.291,0,0,0,.494,1.633q.858,2.436,2.028,6.117,1.11-3.643,2.013-6.271.135-.388.431-1.243.287-.936.546-.937t.546.859q.468,1.533,2.028,5.876.206.571.591,1.714L95.58,8.113c0-.1-.105-.157-.314-.157H94.51c-.191,0-.287-.074-.287-.221s.121-.222.364-.222h2.99c.208,0,.312.075.312.222"/><path class="c" d="M113.463,7.735q0,.22-.39.221H112.4q-.546,0-1.04,1.51-.287.975-.546,1.948l-.806,2.6q-.442,1.353-1.3,4.317-.236.884-.443.884-.183,0-.457-.65t-1.395-3.716q-.288-.805-.862-2.339-.373-1.013-.572-1.688-1.015,2.859-2.629,8.084-.1.309-.313.309t-.364-.39q-.054-.182-.313-.884l-.625-1.664q-.261-.676-1.017-3.042t-.885-2.809a8.446,8.446,0,0,0-1.068-2.391,2.326,2.326,0,0,0-.846-.105q-.613,0-.613-.233c0-.121.1-.183.286-.183h4.706c.243,0,.364.07.364.208,0,.157-.087.235-.26.235h-.65c-.416-.018-.624.069-.624.258a9.291,9.291,0,0,0,.494,1.633q.858,2.436,2.028,6.117,1.11-3.643,2.013-6.271.135-.388.431-1.243.286-.936.546-.937t.546.859q.468,1.533,2.028,5.876.206.571.591,1.714l2.352-7.849c0-.1-.1-.157-.314-.157h-.756c-.191,0-.287-.074-.287-.221s.121-.222.364-.222h2.99c.208,0,.312.075.312.222"/><path class="c" d="M129.037,7.735q0,.22-.39.221h-.676q-.546,0-1.04,1.51-.287.975-.546,1.948l-.806,2.6q-.443,1.353-1.3,4.317-.235.884-.443.884-.183,0-.457-.65t-1.395-3.716q-.288-.805-.862-2.339-.374-1.013-.572-1.688-1.016,2.859-2.629,8.084-.1.309-.313.309t-.364-.39q-.054-.182-.313-.884l-.625-1.664q-.261-.676-1.017-3.042t-.885-2.809a8.446,8.446,0,0,0-1.068-2.391,2.326,2.326,0,0,0-.846-.105q-.613,0-.613-.233c0-.121.1-.183.286-.183h4.706c.243,0,.364.07.364.208,0,.157-.087.235-.26.235h-.65c-.416-.018-.624.069-.624.258a9.291,9.291,0,0,0,.494,1.633q.858,2.436,2.028,6.117,1.11-3.643,2.013-6.271.135-.388.431-1.243.287-.936.546-.937t.546.859q.468,1.533,2.028,5.876.205.571.591,1.714l2.352-7.849c0-.1-.1-.157-.314-.157h-.756c-.191,0-.287-.074-.287-.221s.121-.222.364-.222h2.99c.208,0,.312.075.312.222"/><path class="c" d="M132.963,17.667a1.345,1.345,0,0,1-.4.984,1.324,1.324,0,0,1-.975.407,1.353,1.353,0,0,1-1-.407,1.377,1.377,0,0,1-.4-1.01,1.383,1.383,0,0,1,1.4-1.391,1.324,1.324,0,0,1,.975.407,1.378,1.378,0,0,1,.4,1.01"/><path class="c" d="M144.326,2.522a1.271,1.271,0,0,1-.325.9,1.1,1.1,0,0,1-.845.351,1.178,1.178,0,0,1-.832-.311,1.016,1.016,0,0,1-.338-.781,1.744,1.744,0,0,1,.338-.91.462.462,0,0,0,.078-.233q0-.6-.851-.6-1.443,0-1.907,1.872a17.379,17.379,0,0,0-.232,3.458V7.54h1.7c.343,0,.514.074.514.22s-.223.222-.669.222h-1.541v10.19c0,.245.239.366.718.366.736-.018,1.137.017,1.206.1a.157.157,0,0,1,.026.1c0,.121-.1.181-.312.181a1.173,1.173,0,0,1-.26-.025l-2.132.025h-2.834q-.468,0-.468-.181c0-.139.124-.208.374-.208a3.28,3.28,0,0,0,1.47-.157.205.205,0,0,0,.054-.156l-.026-.338V8.007c-.642,0-1.014-.008-1.118-.025a.182.182,0,0,1-.156-.208q0-.234.468-.234h.832a11.454,11.454,0,0,1,.884-4.758A3.847,3.847,0,0,1,141.726.545a3.039,3.039,0,0,1,1.872.546,1.708,1.708,0,0,1,.728,1.431"/><path class="c" d="M152.957,17.706q0,.443-.919.923a3.819,3.819,0,0,1-1.771.481,1.682,1.682,0,0,1-1.863-1.847,3.222,3.222,0,0,1-3.052,1.924,2.615,2.615,0,0,1-1.837-.662,2.2,2.2,0,0,1-.724-1.7q0-2.132,2.55-3.38a14.081,14.081,0,0,1,3.04-.832v-.65a12.137,12.137,0,0,0-.234-3.016,1.773,1.773,0,0,0-1.872-1.326,2.342,2.342,0,0,0-1.521.494,1.536,1.536,0,0,0-.611,1.248c0,.139.108.208.325.208a.754.754,0,0,1,.585.312,1.07,1.07,0,0,1,.26.7,1.011,1.011,0,0,1-1.144,1.143,1.314,1.314,0,0,1-.988-.4,1.417,1.417,0,0,1-.39-1.027,2.762,2.762,0,0,1,.962-2.106,4.267,4.267,0,0,1,2.964-.963q2.859,0,3.51,1.561a7.7,7.7,0,0,1,.234,2.366v4.861q0,1.2.026,1.405.129.936.754.936a1.54,1.54,0,0,0,1.2-.52q.26-.286.39-.286c.086,0,.13.051.13.156m-4.576-2.756v-1.9a6.555,6.555,0,0,0-2.755,1.157,2.389,2.389,0,0,0-.833,1.911,1.976,1.976,0,0,0,.474,1.365,1.524,1.524,0,0,0,1.192.532,1.991,1.991,0,0,0,1.768-1.248,5.771,5.771,0,0,0,.154-1.819"/><path class="c" d="M162.4,9.906a1.045,1.045,0,0,1-1.17,1.195q-1.145,0-1.144-1.091a2.336,2.336,0,0,1,.26-.858.918.918,0,0,0,.078-.364,1,1,0,0,0-.533-.859,2.468,2.468,0,0,0-1.339-.337,2.711,2.711,0,0,0-2.418,1.352,7.076,7.076,0,0,0-.858,3.8,8.415,8.415,0,0,0,.884,4.251,2.759,2.759,0,0,0,2.5,1.5,3.066,3.066,0,0,0,1.95-.677,6.219,6.219,0,0,0,1.014-1.195.357.357,0,0,1,.234-.13c.173,0,.26.069.26.208q0,.338-.91,1.274a3.957,3.957,0,0,1-2.99,1.221,4.9,4.9,0,0,1-3.783-1.637,5.9,5.9,0,0,1-1.495-4.134,6.359,6.359,0,0,1,1.586-4.433,5.133,5.133,0,0,1,3.978-1.756,4.713,4.713,0,0,1,2.717.807A2.28,2.28,0,0,1,162.4,9.906"/><path class="c" d="M173.263,16.042a2.3,2.3,0,0,1-.4.923,5.788,5.788,0,0,1-.819,1.079,3.993,3.993,0,0,1-2.99,1.143,5.126,5.126,0,0,1-3.913-1.689,5.912,5.912,0,0,1-1.573-4.187,6.437,6.437,0,0,1,1.495-4.342,4.717,4.717,0,0,1,3.731-1.742,4.57,4.57,0,0,1,3.094,1.079,3.74,3.74,0,0,1,1.326,2.77,13.223,13.223,0,0,1-2.21.1h-1.82q-.183,0-3.12.079a10.821,10.821,0,0,0-.13,1.631,6.9,6.9,0,0,0,1,4.029,3.258,3.258,0,0,0,2.821,1.412,2.708,2.708,0,0,0,1.664-.468,5.729,5.729,0,0,0,1.352-1.794.316.316,0,0,1,.286-.208c.138,0,.208.061.208.182M171,10.738q-.105-3.12-2.236-3.12-2.106,0-2.626,3.12Z"/><path class="c" d="M185.664,12.688a6.8,6.8,0,0,1-1.638,4.6,5.042,5.042,0,0,1-3.952,1.9,4.715,4.715,0,0,1-1.69-.338,4.281,4.281,0,0,0-1.2-.338,1.205,1.205,0,0,0-.65.247,1.157,1.157,0,0,1-.546.247q-.209,0-.208-.857V4.628q0-2.625-.338-2.834a3.363,3.363,0,0,0-1.014-.078q-.624,0-.624-.208c0-.121.1-.181.286-.181h.364a6.63,6.63,0,0,0,2.756-.6,1.6,1.6,0,0,1,.546-.182h.1V8.71a3.325,3.325,0,0,1,2.964-1.482,4.465,4.465,0,0,1,3.51,1.495,5.755,5.755,0,0,1,1.326,3.965m-2.366.118a7.541,7.541,0,0,0-.771-3.761,2.39,2.39,0,0,0-3.54-.869,2.283,2.283,0,0,0-.888,1.129,19.213,19.213,0,0,0-.235,4.1,26.114,26.114,0,0,0,.183,4.254q.288,1.089,1.907,1.089a2.489,2.489,0,0,0,2.273-1.167,9.074,9.074,0,0,0,1.071-4.773"/><path class="c" d="M198.144,13.259a6.085,6.085,0,0,1-1.534,4.226,4.934,4.934,0,0,1-3.822,1.7,5.179,5.179,0,0,1-3.952-1.7,5.963,5.963,0,0,1-1.586-4.226A6.2,6.2,0,0,1,188.8,8.944a4.98,4.98,0,0,1,3.861-1.717,5.074,5.074,0,0,1,3.913,1.73,6.157,6.157,0,0,1,1.573,4.3m-2.366-.025a9.226,9.226,0,0,0-.884-4.446,2.294,2.294,0,0,0-2.184-1.17,2.511,2.511,0,0,0-2.275,1.495,8.709,8.709,0,0,0-.819,4.146,8.05,8.05,0,0,0,.871,4.1,2.7,2.7,0,0,0,2.431,1.47,1.943,1.943,0,0,0,1.768-.91,8.66,8.66,0,0,0,1.092-4.68"/><path class="c" d="M210.624,13.259a6.085,6.085,0,0,1-1.534,4.226,4.934,4.934,0,0,1-3.822,1.7,5.179,5.179,0,0,1-3.952-1.7,5.963,5.963,0,0,1-1.586-4.226,6.2,6.2,0,0,1,1.547-4.315,4.98,4.98,0,0,1,3.861-1.717,5.074,5.074,0,0,1,3.913,1.73,6.157,6.157,0,0,1,1.573,4.3m-2.366-.025a9.226,9.226,0,0,0-.884-4.446,2.294,2.294,0,0,0-2.184-1.17,2.511,2.511,0,0,0-2.275,1.495,8.709,8.709,0,0,0-.819,4.146,8.05,8.05,0,0,0,.871,4.1,2.7,2.7,0,0,0,2.431,1.47,1.943,1.943,0,0,0,1.768-.91,8.66,8.66,0,0,0,1.092-4.68"/><path class="c" d="M224.638,18.693q0,.183-.962.183-.754,0-1.4-.027-1.326-.051-1.82-.052c-.225,0-.568.013-1.027.04s-.8.039-1.027.039c-.156,0-.234-.061-.234-.182,0-.138.164-.207.494-.207q1.248,0,1.248-.414,0-.361-4.368-5.23v5.281c.017.258.264.38.739.362h.712c.229,0,.343.061.343.184s-.191.206-.572.206h-4.472q-.624,0-.624-.221a.149.149,0,0,1,.117-.166,8.774,8.774,0,0,1,.9-.056c.416-.016.633-.112.65-.285a8.765,8.765,0,0,0,.052-1.35V4.1q0-2.051-.026-2.129-.053-.182-.754-.181h-.676c-.191,0-.286-.066-.286-.2s.2-.194.6-.194a5.754,5.754,0,0,0,2.6-.754,1.156,1.156,0,0,1,.416-.183q.286,0,.286,2.159v9.593q4.212-3.747,4.212-4.134c0-.1-.338-.156-1.014-.156h-.806c-.312,0-.468-.068-.468-.208q0-.233.806-.233h3.64c.624,0,.988.009,1.092.025a.168.168,0,0,1,.156.183q0,.183-1.222.209a3.183,3.183,0,0,0-1.066.13,2.952,2.952,0,0,0-.6.47l-3.25,3.152q3.613,3.962,5.122,5.811a3.3,3.3,0,0,0,.988.913,3.6,3.6,0,0,0,1.274.1c.156,0,.234.069.234.208"/><path class="c" d="M228.356,17.667a1.345,1.345,0,0,1-.4.984,1.324,1.324,0,0,1-.975.407,1.353,1.353,0,0,1-1-.407,1.377,1.377,0,0,1-.4-1.01,1.383,1.383,0,0,1,1.4-1.391,1.324,1.324,0,0,1,.975.407,1.378,1.378,0,0,1,.4,1.01"/><path class="c" d="M240.6,9.906a1.045,1.045,0,0,1-1.17,1.195q-1.145,0-1.144-1.091a2.336,2.336,0,0,1,.26-.858.918.918,0,0,0,.078-.364,1,1,0,0,0-.533-.859,2.468,2.468,0,0,0-1.339-.337,2.711,2.711,0,0,0-2.418,1.352,7.076,7.076,0,0,0-.858,3.8,8.415,8.415,0,0,0,.884,4.251,2.759,2.759,0,0,0,2.5,1.5,3.066,3.066,0,0,0,1.95-.677,6.219,6.219,0,0,0,1.014-1.195.357.357,0,0,1,.234-.13c.173,0,.26.069.26.208q0,.338-.91,1.274a3.957,3.957,0,0,1-2.99,1.221,4.9,4.9,0,0,1-3.783-1.637,5.9,5.9,0,0,1-1.495-4.134,6.359,6.359,0,0,1,1.586-4.433A5.133,5.133,0,0,1,236.7,7.227a4.713,4.713,0,0,1,2.717.807A2.28,2.28,0,0,1,240.6,9.906"/><path class="c" d="M252.666,13.259a6.085,6.085,0,0,1-1.534,4.226,4.934,4.934,0,0,1-3.822,1.7,5.179,5.179,0,0,1-3.952-1.7,5.963,5.963,0,0,1-1.586-4.226,6.2,6.2,0,0,1,1.547-4.315,4.98,4.98,0,0,1,3.861-1.717,5.074,5.074,0,0,1,3.913,1.73,6.157,6.157,0,0,1,1.573,4.3m-2.366-.025a9.226,9.226,0,0,0-.884-4.446,2.294,2.294,0,0,0-2.184-1.17,2.51,2.51,0,0,0-2.275,1.495,8.709,8.709,0,0,0-.819,4.146,8.05,8.05,0,0,0,.871,4.1,2.7,2.7,0,0,0,2.431,1.47,1.943,1.943,0,0,0,1.768-.91,8.66,8.66,0,0,0,1.092-4.68"/><path class="c" d="M271.724,18.733c0,.13-.147.194-.442.194H266.6c-.225,0-.338-.056-.338-.17s.1-.193.286-.193h.858c.26-.018.412-.078.455-.183a4.761,4.761,0,0,0,.065-1.094V10.823a4.271,4.271,0,0,0-.4-2.151,1.476,1.476,0,0,0-1.356-.638,2.258,2.258,0,0,0-2.067,1.429,20.46,20.46,0,0,0-.1,2.886v4.914a9.475,9.475,0,0,0,.026.989.411.411,0,0,0,.46.312h.742c.221,0,.332.065.332.193s-.13.17-.39.17h-4.68c-.208,0-.312-.068-.312-.207,0-.087.052-.138.156-.156s.45-.025,1.04-.025c.277-.018.425-.1.442-.26l.026-.363V10.679A4.072,4.072,0,0,0,261.47,8.6a1.471,1.471,0,0,0-1.33-.57,2.227,2.227,0,0,0-1.589.6,1.981,1.981,0,0,0-.633,1.5V17.5a2.011,2.011,0,0,0,.115.921q.115.143.755.143h.205a1.633,1.633,0,0,1,.282-.026c.187,0,.281.069.281.208,0,.121-.113.181-.338.181h-.26q-.624-.026-1.95,0H254.46c-.243,0-.364-.068-.364-.207,0-.121.113-.181.338-.181a3.71,3.71,0,0,0,1.144-.091.4.4,0,0,0,.182-.324V11.381a17.232,17.232,0,0,0-.078-2.282q-.078-.338-.754-.338h-.858c-.225,0-.338-.06-.338-.181,0-.1.039-.165.117-.182s.36-.044.847-.078a5.973,5.973,0,0,0,1.5-.313,2.253,2.253,0,0,0,1.029-.494c.191-.19.329-.286.416-.286s.139.07.157.208.034.624.052,1.456a3.517,3.517,0,0,1,3.2-1.664q2.318,0,2.812,1.742a3.486,3.486,0,0,1,3.255-1.742,2.623,2.623,0,0,1,2.6,1.379,5.8,5.8,0,0,1,.364,2.418v6.422a2.511,2.511,0,0,0,.09.975,1.988,1.988,0,0,0,.806.143h.461c.187-.018.281.039.281.169"/><path class="c" d="M284.074,0,273.336,19.656h-1.275L282.8,0Z"/><path class="c" d="M292.315,17.342q0,.234-.65.832a3.816,3.816,0,0,1-2.652,1.014,2.932,2.932,0,0,1-2.158-.726,4.178,4.178,0,0,1-.416-2.438V8.293a.289.289,0,0,0-.286-.285h-.988q-.572,0-.572-.182c0-.121.1-.19.284-.208a4,4,0,0,0,3.152-2,.453.453,0,0,1,.387-.237.161.161,0,0,1,.181.183v.546a5.668,5.668,0,0,0,.1,1.4,4.005,4.005,0,0,0,.78.053,8.668,8.668,0,0,0,1.9-.131.779.779,0,0,1,.182-.026c.139,0,.208.075.208.224q0,.375-2.106.374H288.6v4.811a32.863,32.863,0,0,0,.182,4.562,1.075,1.075,0,0,0,1.2.923,3.05,3.05,0,0,0,1.924-.962.3.3,0,0,1,.234-.13c.121,0,.182.044.182.13"/><path class="c" d="M304.171,18.72c0,.14-.147.208-.442.208H299c-.225,0-.338-.068-.338-.207q0-.182.988-.182c.4,0,.628-.048.689-.142a2.74,2.74,0,0,0,.091-.973V12.158a11.769,11.769,0,0,0-.208-2.93,1.852,1.852,0,0,0-1.95-1.194,2.375,2.375,0,0,0-2.028,1.116,3.17,3.17,0,0,0-.26,1.608v6.614a6.044,6.044,0,0,0,.026.8c.017.173.086.273.208.3a10.1,10.1,0,0,0,1.118.064c.208,0,.312.07.312.207,0,.121-.087.182-.26.182h-2.314q-2.159-.027-2.392,0h-.26c-.191,0-.286-.052-.286-.157,0-.12.1-.181.286-.181h.39l.39-.025c.4.016.606-.105.624-.366V6.507a34.865,34.865,0,0,0-.13-4.5q-.156-.26-1.274-.286-.624,0-.624-.193c0-.111.043-.175.13-.194s.381-.036.884-.054a6.022,6.022,0,0,0,2.548-.624,2.572,2.572,0,0,1,.364-.131,5.916,5.916,0,0,1,.182,2V8.892a3.6,3.6,0,0,1,3.12-1.664,3.522,3.522,0,0,1,2.964,1.144,3.125,3.125,0,0,1,.546,1.613,17.107,17.107,0,0,1,.052,1.741v6.553q.025.258,1.352.259c.156.036.234.1.234.182"/><path class="c" d="M315.377,17.706q0,.443-.919.923a3.819,3.819,0,0,1-1.771.481,1.682,1.682,0,0,1-1.863-1.847,3.222,3.222,0,0,1-3.052,1.924,2.615,2.615,0,0,1-1.837-.662,2.2,2.2,0,0,1-.724-1.7q0-2.132,2.55-3.38a14.082,14.082,0,0,1,3.04-.832v-.65a12.136,12.136,0,0,0-.234-3.016A1.773,1.773,0,0,0,308.7,7.618a2.342,2.342,0,0,0-1.521.494,1.536,1.536,0,0,0-.611,1.248c0,.139.108.208.325.208a.754.754,0,0,1,.585.312,1.07,1.07,0,0,1,.26.7,1.011,1.011,0,0,1-1.144,1.143,1.314,1.314,0,0,1-.988-.4,1.417,1.417,0,0,1-.39-1.027,2.762,2.762,0,0,1,.962-2.106,4.267,4.267,0,0,1,2.964-.963q2.859,0,3.51,1.561a7.7,7.7,0,0,1,.234,2.366v4.861q0,1.2.026,1.405.129.936.754.936a1.54,1.54,0,0,0,1.2-.52q.26-.286.39-.286c.086,0,.13.051.13.156M310.8,14.95v-1.9a6.555,6.555,0,0,0-2.755,1.157,2.389,2.389,0,0,0-.833,1.911,1.976,1.976,0,0,0,.474,1.365,1.524,1.524,0,0,0,1.192.532,1.991,1.991,0,0,0,1.768-1.248,5.771,5.771,0,0,0,.154-1.819"/><path class="c" d="M326.245,13.259a6.085,6.085,0,0,1-1.534,4.226,4.934,4.934,0,0,1-3.822,1.7,5.179,5.179,0,0,1-3.952-1.7,5.963,5.963,0,0,1-1.586-4.226A6.2,6.2,0,0,1,316.9,8.944a4.98,4.98,0,0,1,3.861-1.717,5.074,5.074,0,0,1,3.913,1.73,6.157,6.157,0,0,1,1.573,4.3m-2.366-.025a9.226,9.226,0,0,0-.884-4.446,2.294,2.294,0,0,0-2.184-1.17,2.51,2.51,0,0,0-2.275,1.495,8.709,8.709,0,0,0-.819,4.146,8.05,8.05,0,0,0,.871,4.1,2.7,2.7,0,0,0,2.431,1.47,1.943,1.943,0,0,0,1.768-.91,8.66,8.66,0,0,0,1.092-4.68"/><path class="c" d="M331.783,17.667a1.345,1.345,0,0,1-.4.984,1.324,1.324,0,0,1-.975.407,1.353,1.353,0,0,1-1-.407,1.377,1.377,0,0,1-.4-1.01,1.383,1.383,0,0,1,1.4-1.391,1.324,1.324,0,0,1,.975.407,1.378,1.378,0,0,1,.4,1.01"/><path class="c" d="M346.369,18.733c0,.13-.13.194-.39.194H341.2c-.225,0-.338-.06-.338-.181A.15.15,0,0,1,341,18.59q.143-.026,1-.051c.329-.018.52-.065.572-.143a2.365,2.365,0,0,0,.078-.843v-4.98a14.581,14.581,0,0,0-.208-3.372,1.717,1.717,0,0,0-1.768-1.167,2.672,2.672,0,0,0-2.184,1.14,1.5,1.5,0,0,0-.26.935V18.2c0,.208.185.32.555.338l.793.025c.176,0,.264.061.264.182s-.1.181-.312.181H334.8c-.26,0-.39-.052-.39-.159s.156-.174.468-.2h.65c.26,0,.416-.06.468-.182l.078-.389V12.34q0-2.955-.052-3.267c-.035-.207-.251-.312-.65-.312h-.754c-.347,0-.52-.063-.52-.193q0-.247.546-.248a7.09,7.09,0,0,0,1.69-.286,3.21,3.21,0,0,0,1.274-.6.666.666,0,0,1,.364-.208q.182,0,.182.494V8.969a4.217,4.217,0,0,1,3.484-1.742,2.916,2.916,0,0,1,2.7,1.379,6.385,6.385,0,0,1,.468,2.964V17.5a2.475,2.475,0,0,0,.078.91,1.181,1.181,0,0,0,.754.156h.468c.173,0,.26.057.26.169"/><path class="c" d="M358.823,18.72c0,.14-.147.208-.442.208h-4.732c-.225,0-.338-.068-.338-.207q0-.182.988-.182c.4,0,.628-.048.689-.142a2.74,2.74,0,0,0,.091-.973V12.158a11.769,11.769,0,0,0-.208-2.93,1.852,1.852,0,0,0-1.95-1.194,2.375,2.375,0,0,0-2.028,1.116,3.17,3.17,0,0,0-.26,1.608v6.614a6.038,6.038,0,0,0,.026.8c.017.173.086.273.208.3a10.1,10.1,0,0,0,1.118.064c.208,0,.312.07.312.207,0,.121-.087.182-.26.182h-2.314q-2.158-.027-2.392,0h-.26c-.191,0-.286-.052-.286-.157,0-.12.1-.181.286-.181h.39l.39-.025c.4.016.606-.105.624-.366V6.507a34.865,34.865,0,0,0-.13-4.5q-.156-.26-1.274-.286-.624,0-.624-.193c0-.111.043-.175.13-.194s.381-.036.884-.054a6.022,6.022,0,0,0,2.548-.624,2.573,2.573,0,0,1,.364-.131,5.916,5.916,0,0,1,.182,2V8.892a3.6,3.6,0,0,1,3.12-1.664,3.522,3.522,0,0,1,2.964,1.144,3.126,3.126,0,0,1,.546,1.613,17.107,17.107,0,0,1,.052,1.741v6.553q.025.258,1.352.259c.156.036.234.1.234.182"/><path class="c" d="M365.166,18.719q0,.235-.442.235c.017,0-.191-.018-.624-.052q-.78-.052-1.3-.053h-2.7a.488.488,0,0,1-.312.1c-.191,0-.286-.065-.286-.193q0-.275.52-.275a2.423,2.423,0,0,0,1.079-.144,3.1,3.1,0,0,0,.091-1.079V9.385a4.476,4.476,0,0,0-.065-.766c-.026-.078-.134-.118-.325-.118h-1.014c-.191,0-.286-.06-.286-.181s.145-.167.436-.183a6.206,6.206,0,0,0,2.95-.809l.257-.153a3.4,3.4,0,0,1,.205,1.427v8.354a9.831,9.831,0,0,0,.039,1.218.312.312,0,0,0,.273.234,4.762,4.762,0,0,0,1.144.1c.243,0,.364.07.364.208m-1.95-16.2a1.035,1.035,0,0,1-1.17,1.17,1.153,1.153,0,0,1-.832-.325,1.062,1.062,0,0,1-.338-.793q0-1.222,1.17-1.223a1.035,1.035,0,0,1,1.17,1.171"/><path class="c" d="M370.158,17.667a1.345,1.345,0,0,1-.4.984,1.324,1.324,0,0,1-.975.407,1.353,1.353,0,0,1-1-.407,1.377,1.377,0,0,1-.4-1.01,1.383,1.383,0,0,1,1.4-1.391,1.324,1.324,0,0,1,.975.407,1.378,1.378,0,0,1,.4,1.01"/><path class="c" d="M383,19.266a5.023,5.023,0,0,1-1.824,3.9,6.463,6.463,0,0,1-4.436,1.613,4.894,4.894,0,0,1-2.82-.793,2.29,2.29,0,0,1-1.164-1.911,1.258,1.258,0,0,1,.4-.95,1.4,1.4,0,0,1,1.007-.377q1.25,0,1.25,1.144a1.991,1.991,0,0,1-.737,1.274.36.36,0,0,0-.147.26c0,.173.24.356.721.546a3.792,3.792,0,0,0,1.393.286,3.276,3.276,0,0,0,2.577-1.143,5.88,5.88,0,0,0,1.315-4,4.119,4.119,0,0,0-1.352-3.25,3.32,3.32,0,0,0-2.132-.624q-.883,0-.884-.261,0-.207.676-.285a4.3,4.3,0,0,0,1.443-.469,3.148,3.148,0,0,0,1.131-.884,3.915,3.915,0,0,0,.676-2.391,2.982,2.982,0,0,0-1.222-2.575,3.146,3.146,0,0,0-1.82-.467,3.08,3.08,0,0,0-1.976.546q-.546.441-.546.8c0,.174.216.3.65.39.659.14.988.494.988,1.066a1.04,1.04,0,0,1-.325.781,1.135,1.135,0,0,1-.819.311,1.389,1.389,0,0,1-1.053-.455,1.549,1.549,0,0,1-.429-1.1,2.564,2.564,0,0,1,1.183-2.171,5.129,5.129,0,0,1,3.055-.846,5.421,5.421,0,0,1,3.419,1,3.158,3.158,0,0,1,1.287,2.613,3.407,3.407,0,0,1-1.287,2.7,6.051,6.051,0,0,1-3.419,1.3l-.026.078a6.2,6.2,0,0,1,3.2.754A4.006,4.006,0,0,1,383,19.266"/><path class="c" d="M395.482,14.456a4.329,4.329,0,0,1-1.534,3.367,5.469,5.469,0,0,1-3.77,1.365,6.375,6.375,0,0,1-4.1-1.313,3.99,3.99,0,0,1-1.651-3.237,4.242,4.242,0,0,1,1.9-3.588,7.13,7.13,0,0,1,2.886-1.118l-.026-.1q-4.134-.6-4.134-3.9a3.971,3.971,0,0,1,1.365-3.094,5.522,5.522,0,0,1,6.929,0,4.019,4.019,0,0,1,1.352,3.12q0,2.913-3.9,3.926l-.026.078a7.7,7.7,0,0,1,3.042,1.248,3.972,3.972,0,0,1,1.664,3.25m-2.366-.1a4.982,4.982,0,0,0-.845-3.068,2.758,2.758,0,0,0-2.327-1.118,2.7,2.7,0,0,0-2.262,1.274,5.316,5.316,0,0,0-.91,3.172,4.478,4.478,0,0,0,.936,2.951,3.02,3.02,0,0,0,2.444,1.131,2.5,2.5,0,0,0,2.184-1.144,5.627,5.627,0,0,0,.78-3.2m-.806-8.476q0-3.822-2.366-3.822a2.068,2.068,0,0,0-1.833,1.04,5.291,5.291,0,0,0-.663,2.86q0,3.691,2.548,3.692,2.314,0,2.314-3.77"/><path class="c" d="M403.958,7.748c0,.174-.145.26-.433.26h-.816a2.551,2.551,0,0,0-1.134.142c-.128.1-.191.375-.191.841V17.4q0,.751.234.907a3.263,3.263,0,0,0,1.4.1h.572c.242-.017.364.069.364.26,0,.174-.122.251-.365.234h-6.732c-.226,0-.339-.069-.339-.208q0-.182.234-.207t1.56-.051a1.069,1.069,0,0,0,.7-.182,1.194,1.194,0,0,0,.208-.857V9.046c0-.52-.1-.83-.3-.935a5.682,5.682,0,0,0-1.833-.129c-.329,0-.494-.091-.494-.276,0-.128.112-.192.337-.192q.543,0,1.762.026l1.347-.026H403.6q.363,0,.363.234"/><path class="c" d="M415.97,14.43a15.922,15.922,0,0,1-.234,2.224A15.936,15.936,0,0,0,415.5,18.9q-.911,0-3.484-.1-1.3-.051-1.872-.052-3.406,0-4.966.157H405c-.226,0-.338-.078-.338-.235s1.1-.788,3.3-1.9a9.024,9.024,0,0,0,3.146-2.548,5.121,5.121,0,0,0,1.2-3.12,3.1,3.1,0,0,0-.858-2.275,3,3,0,0,0-2.236-.871,3.129,3.129,0,0,0-2.08.676,1.825,1.825,0,0,0-.806,1.3c0,.174.043.282.13.325a7.312,7.312,0,0,0,.949.26q.819.2.819.871a1.11,1.11,0,0,1-1.118,1.118,1.412,1.412,0,0,1-1.118-.558,2.021,2.021,0,0,1-.468-1.339,2.915,2.915,0,0,1,1.3-2.406,5.134,5.134,0,0,1,3.172-.975,4.778,4.778,0,0,1,3.406,1.2,3.659,3.659,0,0,1,1.274,2.731q0,2.1-2.621,3.847-.525.339-1.849,1.053a17.707,17.707,0,0,1-1.742.871c-.14.035-.219.069-.236.1q0,.051.471.078,2.409.077,4.188.025a3.16,3.16,0,0,0,1.845-.364,3.886,3.886,0,0,0,.589-1.9,2.5,2.5,0,0,1,.144-.636.261.261,0,0,1,.249-.118c.175,0,.262.1.262.312"/><path class="c" d="M427.461,19.266a5.023,5.023,0,0,1-1.824,3.9,6.463,6.463,0,0,1-4.436,1.613,4.894,4.894,0,0,1-2.82-.793,2.29,2.29,0,0,1-1.164-1.911,1.258,1.258,0,0,1,.395-.95,1.4,1.4,0,0,1,1.007-.377q1.25,0,1.25,1.144a1.991,1.991,0,0,1-.737,1.274.36.36,0,0,0-.147.26c0,.173.24.356.721.546a3.792,3.792,0,0,0,1.393.286,3.276,3.276,0,0,0,2.577-1.143,5.88,5.88,0,0,0,1.315-4,4.119,4.119,0,0,0-1.352-3.25,3.32,3.32,0,0,0-2.132-.624q-.883,0-.884-.261,0-.207.676-.285a4.3,4.3,0,0,0,1.443-.469,3.148,3.148,0,0,0,1.131-.884,3.915,3.915,0,0,0,.676-2.391,2.982,2.982,0,0,0-1.222-2.575,3.146,3.146,0,0,0-1.82-.467,3.08,3.08,0,0,0-1.976.546q-.546.441-.546.8c0,.174.216.3.65.39.659.14.988.494.988,1.066a1.04,1.04,0,0,1-.325.781,1.136,1.136,0,0,1-.819.311,1.389,1.389,0,0,1-1.053-.455,1.55,1.55,0,0,1-.429-1.1,2.564,2.564,0,0,1,1.183-2.171,5.129,5.129,0,0,1,3.055-.846,5.421,5.421,0,0,1,3.419,1,3.158,3.158,0,0,1,1.287,2.613,3.407,3.407,0,0,1-1.287,2.7,6.051,6.051,0,0,1-3.419,1.3l-.026.078a6.2,6.2,0,0,1,3.2.754,4.006,4.006,0,0,1,2.054,3.588"/><path class="c" d="M439.629,7.7a.827.827,0,0,1-.13.364l-.78,1.329q-.078.13-1.4,2.318-5.2,8.57-5.2,10.756c0,.243.052.365.156.365.069,0,.243-.13.52-.391a1.042,1.042,0,0,1,.728-.26q1.326,0,1.326,1.145a1.159,1.159,0,0,1-.442.936,1.7,1.7,0,0,1-1.118.364,1.741,1.741,0,0,1-1.326-.521,1.986,1.986,0,0,1-.494-1.429q0-1.484,1.846-5.071.936-1.819,3.562-6.317l.988-1.691h-4.94a14.6,14.6,0,0,0-2.418.1q-.546.154-.858,1.664-.208,1.014-.52,1.014c-.191,0-.286-.087-.286-.26a2.883,2.883,0,0,1,.13-.7l.52-3.172a1.7,1.7,0,0,1,.338-.78q1.535.077,4,.078,4.16,0,4.342-.039l1.144-.039q.312,0,.312.234"/></g></g></svg>