<svg xmlns="http://www.w3.org/2000/svg" xmlns:xlink="http://www.w3.org/1999/xlink" width="912.006" height="471.047" viewBox="0 0 912.006 471.047"><defs><style>.a{fill:none;}.b{clip-path:url(#a);}.c{fill:#ff9d00;}.d{fill:#fff;}</style><clipPath id="a"><rect class="a" width="912.006" height="471.047"/></clipPath></defs><g class="b"><path class="c" d="M203.737,7.583c-5.232,8.1-11.071,20.192-17.168,34.982C167.684,45,143.927,48.717,119.742,53.084c1.567-2.985,2.937-5.975,4.5-8.733,6.659-12.18,11.162-15.166,16.057-17.235,4.5-1.839-18.407-17.695-20.951-13.558-5.091,8.5-11.359,23.671-17.624,42.746C60.6,64.115,21.247,73.309,4.8,80.434-.88,81.581-2.057,102.725,4.21,99.278c17.23-9.653,52.869-20.914,93.208-30.105C72.159,149.835,48.19,308.39,50.541,358.031c.39,7.813,14.295,10.573,15.666,8.044s-4.113-5.978-4.113-21.833c0-26.2,16.134-195.554,51.775-278.747C136.4,60.951,159.7,57.233,181.63,54.982c-29.311,76.193-62.291,204.817-62.291,249.747,0,4.139,10.965,9.422,12.142,5.975,18.013-55.843,57.567-121.112,68.73-121.112,1.96,0,2.548,2.759,2.548,6.436,0,7.815-6.854,38.608-6.854,47.8s6.854,19.3,18.21,19.3c6.858,0,21.625-16.743,36.9-36.745a63.639,63.639,0,0,0-2.25,13.765c0,8.044,6.657,15.166,10.575,15.166,13.313,0,44.058-53.316,64.225-75.149C316.318,208.209,303,245.67,303,265.2c0,8.5,8.027,20.914,18.212,20.914,7.049,0,19.778-16.777,33.877-35.391,7.168-9.558,14.633-19.694,21.314-28.843.265.269.525.541.8.8a116.265,116.265,0,0,0-4.5,27.577c-.2,9.195,7.638,20.913,16.253,20.913s20.168-16.086,29.763-36.541c30.548-3.447,56-33.091,65.208-48.259,1.764-2.759-3.721-5.744-4.894-3.447-14.492,28.5-38.971,43.435-57.964,46.421,8.225-19.764,14.492-42.514,14.492-59.06,0-14.018-9.6-23.671-21.15-23.671-20.757,0-47.193,20.682-47.193,51.937a33.736,33.736,0,0,0,5.892,19.368c-20.022,26.826-46.385,61.066-55.228,61.066-.98,0-3.721-.689-3.721-4.825,0-17.928,22.127-88.94,22.127-97.211,0-6.206-5.874-10.342-8.615-10.342s-5.484,3.678-12.142,13.558-44.449,65.5-53.653,65.5c-.587,0-2.154-.231-2.154-2.759,0-24.822,28.2-65.956,38.967-65.956,4.308,0,8.811,9.191,11.162,5.286,1.567-2.759-8.812-17.237-22.324-17.237-11.939,0-24.889,25.487-32.392,47.51-16.965,22.761-34.547,43.266-43.769,43.266q-4.7,0-4.7-7.583c0-13.789,8.616-32.405,9.2-46.882.393-9.192-4.895-20.683-15.077-20.683-12.729,0-41.317,44.813-66.188,97.669,0-29.311,32.009-157.25,60.384-224.519,9.839-.748,19.291-1.156,28.139-1.156,14.686,0,17.82,4.367,19.581,8.5,3.134,7.353,7.637,3.448,7.637-3.447,0-10.8-7.048-18.155-30.352-18.155-4.369,0-10.994.483-19.248,1.359,5.809-12.209,11.352-21.27,16.3-25.72,5.678-5.055,11.356-1.607,12.335-5.055C230.366,6.894,220.38,0,212.939,0c-2.35,0-6.07,2.754-9.2,7.583m185.22,257.85c-5.091,0-1.764-15.169,4.308-33.324a62.851,62.851,0,0,0,19.777,2.758h.394c-8.421,17.924-18.213,30.566-24.478,30.566m-10.965-61.59c0-12.411,17.624-51.938,40.729-51.938,6.657,0,11.555,5.975,11.555,15.4,0,20.224-6.462,43.666-14.686,62.51h-1.176a57.287,57.287,0,0,1-19.384-2.989c4.7-13.558,10.768-28.035,15.663-38.839,1.764-3.674-1.567-10.568-8.616-10.568-3.62,0-11.037,10.549-17.571,25.19-1.795,2.407-3.72,5-5.753,7.737a27.285,27.285,0,0,1-.761-6.5" transform="translate(0)"/><path class="c" d="M458.46,402.806c3.494-95.423,56.5-252.238,60.2-252.238s1.234,87.531,3.287,137.584S529.137,412.667,531.4,428.7s16.847,24.164,26.3,24.164,22.8-79.888,44.583-176.789,48.489-155.829,56.09-165.938c3.9-4.933,10.477-1.725,11.712-5.18.818-2.217-5.139-8.875-14.384-9.122-12.328-.244-41.913,91.969-63.28,180.735-20.134,83.83-35.543,165.2-39.653,165.2-12.533,0-18.491-277.388-19.929-288.484s-10.889-17.749-18.7-16.024-68.005,211.306-68.005,259.632c-1.028,8.137,11.712,20.713,12.328,5.919" transform="translate(47.153 18.188)"/><path class="c" d="M696.857,93.1C663.982,137.761,608.3,314.277,608.3,366.768c0,3.812,11.5,8.677,12.739,5.5,18.9-51.43,60.4-111.541,72.112-111.541,2.057,0,2.672,2.54,2.672,5.928,0,7.2-7.192,35.556-7.192,44.025s7.192,17.777,19.107,17.777c8.723,0,29.644-22.663,48.921-45.862-3.7,13.63-7.022,29.7-7.022,40.8,0,9.737,5.751,12.278,11.712,12.278,24.654,0,83-78.737,85.261-81.275s1.028-9.736-3.9-2.965c-22.4,30.691-72.113,85.087-83.209,79.794-7.806-3.809,13.149-54.183,27.942-78.1,1.439-2.54-6.37-11.006-12.326-13.334a4.763,4.763,0,0,0-3.288-.425c-1.437.425-2.671,2.753-7.192,12.065-.823,1.694.412,2.119.616,3.387a5.045,5.045,0,0,1-.409,3.387,102.075,102.075,0,0,0-4.592,12.242c-20.362,24.964-43.974,51.233-55.386,51.233q-4.933,0-4.929-6.983c0-12.7,9.039-29.845,9.655-43.178.412-8.465-5.136-19.049-15.818-19.049-13.356,0-43.351,41.272-69.446,89.952,0-34.5,54.856-217.367,86.5-242.343,5.96-4.656,11.917-1.481,12.946-4.656,1.025-2.963-9.452-9.313-17.259-9.313-2.467,0-6.37,2.538-9.655,6.984" transform="translate(64.301 16.345)"/><path class="c" d="M774.63,166.926c-1.232,4.659-5.342,22.648-6.163,25.61s5.547,7.409,7.191,4.021c1.644-3.6,10.066-16.508,11.917-20.951s-11.712-13.336-12.946-8.681" transform="translate(81.224 31.433)"/><path class="c" d="M277.213,113.938c7.4-11.768,8.512-24.061,4.245-30.892-2.978-4.766-8.413-6.618-12.985-7.3-1.673-.251-2.5,2.212-1.1,3.28a23.4,23.4,0,0,1,6.967,8.511c3.334,6.984,3.3,15.972.08,24.663-.74,2,1.684,3.506,2.8,1.739" transform="translate(28.188 14.373)"/><path class="c" d="M830.694,403.427H618.628c-2.931,0-5.488-2.086-6.63-5.165a12.628,12.628,0,0,0-6.2-7.063,8.324,8.324,0,0,1-4.535-7.569v-7.561A8.324,8.324,0,0,1,605.8,368.5a12.628,12.628,0,0,0,6.2-7.063c1.142-3.079,3.7-5.165,6.63-5.165H830.694c2.931,0,5.485,2.086,6.629,5.165a12.622,12.622,0,0,0,6.2,7.063,8.328,8.328,0,0,1,4.535,7.569v7.561a8.328,8.328,0,0,1-4.535,7.569,12.622,12.622,0,0,0-6.2,7.063c-1.143,3.079-3.7,5.165-6.629,5.165" transform="translate(63.557 67.62)"/><path class="d" d="M647.946,380.141c0,.159-.086.238-.259.238h-.66q-1.32-.057-1.493.474a14.694,14.694,0,0,0-.114,2.571v.945a9.649,9.649,0,0,1-2.827,1.832,8.962,8.962,0,0,1-3.257.532,9.472,9.472,0,0,1-7.2-2.806,10.592,10.592,0,0,1-2.669-7.614,11.545,11.545,0,0,1,2.612-7.867,8.689,8.689,0,0,1,6.887-3,9.444,9.444,0,0,1,4.076,1.068,2.587,2.587,0,0,0,1.091.326c.363,0,.6-.237.716-.711.1-.277.21-.415.345-.415a.207.207,0,0,1,.23.237c0,.06-.018.267-.051.623q-.151,1.694-.15,2.434v1.93q.028,1.039.029.92-.058.712-.374.713c-.171,0-.268-.139-.286-.418a7.2,7.2,0,0,0-1.608-4.547,4.888,4.888,0,0,0-3.846-1.655,5.334,5.334,0,0,0-4.721,2.769,14.094,14.094,0,0,0-1.736,7.533,13.152,13.152,0,0,0,1.765,7.279,5.451,5.451,0,0,0,4.779,2.695,3.44,3.44,0,0,0,3.157-1.36,4.922,4.922,0,0,0,.431-2.452q0-1.478-.273-1.743a3.532,3.532,0,0,0-1.88-.237,1.811,1.811,0,0,1-.516-.044.182.182,0,0,1-.115-.192q0-.325.631-.325h.516q.43.03,3.042,0h3.157q.576,0,.575.265" transform="translate(66.538 69.361)"/><path class="d" d="M655.263,373.928a1.619,1.619,0,0,1-.4,1.128,1.328,1.328,0,0,1-1.034.445,1.235,1.235,0,0,1-.86-.311,1.016,1.016,0,0,1-.345-.788,1.053,1.053,0,0,1,.258-.713c.174-.2.259-.336.259-.415q0-.444-.631-.445a1.636,1.636,0,0,0-1.377,1.034,10.415,10.415,0,0,0-.66,4.49V384.2c0,.237.081.384.243.444a7.067,7.067,0,0,0,1.478.118c.21.039.315.118.315.238q0,.207-.373.207h-5.568c-.306,0-.459-.06-.459-.177s.124-.18.374-.18h.4c.65,0,1.033-.078,1.148-.238a5.133,5.133,0,0,0,.057-1.1v-8.2q0-1.64-.473-1.894a3.589,3.589,0,0,0-1.507-.283c-.229,0-.344-.07-.344-.208s.095-.208.286-.208h.2a8.358,8.358,0,0,1,.861.045,3.163,3.163,0,0,1,.373.044,5.477,5.477,0,0,0,2.354-.623l.373-.178.229-.088a8.962,8.962,0,0,1,.115,1.424v.594a2.856,2.856,0,0,1,2.583-2.018,2.1,2.1,0,0,1,1.521.579,1.914,1.914,0,0,1,.6,1.438" transform="translate(68.261 70.588)"/><path class="d" d="M666.589,383.822q0,.505-1.014,1.054a4.115,4.115,0,0,1-1.956.55q-1.97,0-2.056-2.108a3.552,3.552,0,0,1-3.369,2.2,2.831,2.831,0,0,1-2.028-.757,2.557,2.557,0,0,1-.8-1.944q0-2.434,2.815-3.86a15.217,15.217,0,0,1,3.356-.949v-.742a14.306,14.306,0,0,0-.259-3.443,1.964,1.964,0,0,0-2.065-1.513,2.526,2.526,0,0,0-1.68.564,1.778,1.778,0,0,0-.674,1.425c0,.158.119.237.359.237a.824.824,0,0,1,.645.356,1.249,1.249,0,0,1,.288.8A1.136,1.136,0,0,1,656.888,377a1.427,1.427,0,0,1-1.09-.46,1.646,1.646,0,0,1-.431-1.172,3.2,3.2,0,0,1,1.063-2.4,4.608,4.608,0,0,1,3.271-1.1q3.158,0,3.875,1.781a9.11,9.11,0,0,1,.258,2.7v5.552q0,1.365.029,1.6c.1.711.374,1.068.833,1.068a1.672,1.672,0,0,0,1.32-.594c.191-.218.334-.326.43-.326s.144.06.144.177m-5.051-3.146v-2.168a7.147,7.147,0,0,0-3.042,1.322,2.772,2.772,0,0,0-.919,2.181,2.3,2.3,0,0,0,.523,1.559,1.659,1.659,0,0,0,1.316.608,2.2,2.2,0,0,0,1.952-1.424,6.8,6.8,0,0,0,.17-2.077" transform="translate(69.276 70.578)"/><path class="d" d="M677.861,378.568a7.576,7.576,0,0,1-1.626,4.957,5.027,5.027,0,0,1-4.047,1.989,3.417,3.417,0,0,1-2.937-1.424v6.916a3.644,3.644,0,0,0,.043.772c.029.078.122.148.276.207a10.183,10.183,0,0,0,1.686.089c.231,0,.347.089.347.266,0,.139-.124.208-.373.208h-5.625c-.555,0-.833-.073-.833-.22,0-.189.115-.284.344-.284h.861c.555,0,.851-.13.89-.385q.028-.178.029-2.731V374.145q0-.83-.775-.771h-1.205q-.259,0-.259-.221,0-.284.631-.284a5.144,5.144,0,0,0,2.87-.771,1.23,1.23,0,0,1,.574-.238.292.292,0,0,1,.3.222,7.442,7.442,0,0,1,.1,1.352,3.451,3.451,0,0,1,3.043-1.574,5.112,5.112,0,0,1,4.09,1.886,7.215,7.215,0,0,1,1.592,4.823m-2.554.014a10.151,10.151,0,0,0-.692-3.957,3.047,3.047,0,0,0-2.855-2.261,2.346,2.346,0,0,0-1.73.728,2.643,2.643,0,0,0-.778,1.772q-.058,1.308.029,5.5c.019,1.408.049,2.257.086,2.544a1.984,1.984,0,0,0,.375.878,2.529,2.529,0,0,0,2.163,1.22,2.435,2.435,0,0,0,2.25-1.309,10.146,10.146,0,0,0,1.153-5.118" transform="translate(70.258 70.578)"/><path class="d" d="M691.012,386.2c0,.158-.162.238-.488.238H685.3c-.249,0-.374-.08-.374-.238q0-.207,1.091-.207c.44,0,.693-.054.761-.163a3.239,3.239,0,0,0,.1-1.11v-6.012a13.948,13.948,0,0,0-.23-3.347A2.043,2.043,0,0,0,684.5,374a2.6,2.6,0,0,0-2.238,1.273,3.735,3.735,0,0,0-.287,1.836v7.552a7.151,7.151,0,0,0,.029.919c.019.2.1.311.23.34a10.327,10.327,0,0,0,1.234.074c.229,0,.345.079.345.237,0,.138-.1.208-.287.208h-2.554q-2.383-.03-2.64,0h-.287c-.21,0-.316-.061-.316-.181,0-.137.106-.206.316-.206h.431l.43-.03c.44.02.67-.119.689-.415V372.26a40.789,40.789,0,0,0-.144-5.143q-.172-.3-1.406-.327-.688,0-.689-.22c0-.127.047-.2.144-.222s.421-.04.976-.062a6.454,6.454,0,0,0,2.813-.713,2.746,2.746,0,0,1,.4-.149,7,7,0,0,1,.2,2.287v7.272a3.934,3.934,0,0,1,3.443-1.9,3.821,3.821,0,0,1,3.272,1.306,3.642,3.642,0,0,1,.6,1.841,19.782,19.782,0,0,1,.057,1.988V385.7q.028.3,1.493.3c.172.04.258.109.258.208" transform="translate(71.6 69.357)"/><path class="d" d="M696.638,386.05q0,.268-.489.268c.02,0-.21-.02-.688-.059q-.863-.059-1.435-.06h-2.984a.531.531,0,0,1-.345.119c-.21,0-.315-.074-.315-.22,0-.209.19-.314.574-.314q1.09-.03,1.191-.164a3.678,3.678,0,0,0,.1-1.231v-8.994a5.429,5.429,0,0,0-.072-.877c-.029-.088-.149-.133-.359-.133H690.7c-.21,0-.315-.069-.315-.208,0-.12.159-.189.481-.207a6.688,6.688,0,0,0,3.256-.924l.283-.174a4.01,4.01,0,0,1,.227,1.629v9.536a11.609,11.609,0,0,0,.043,1.392.349.349,0,0,0,.3.267,5.034,5.034,0,0,0,1.263.119c.269,0,.4.079.4.237m-2.153-18.493a1.161,1.161,0,0,1-1.293,1.335,1.246,1.246,0,0,1-.917-.37,1.227,1.227,0,0,1-.374-.907q0-1.394,1.29-1.394a1.162,1.162,0,0,1,1.293,1.336" transform="translate(72.977 69.508)"/><path class="d" d="M707.525,374.918q0,1.365-1.293,1.366a1.108,1.108,0,0,1-1.262-1.247,2.736,2.736,0,0,1,.287-.979,1.081,1.081,0,0,0,.086-.416,1.143,1.143,0,0,0-.589-.979,2.642,2.642,0,0,0-1.478-.387,2.97,2.97,0,0,0-2.668,1.544,8.3,8.3,0,0,0-.948,4.333,9.878,9.878,0,0,0,.976,4.853,3.033,3.033,0,0,0,2.755,1.707,3.312,3.312,0,0,0,2.151-.771,6.935,6.935,0,0,0,1.12-1.366.389.389,0,0,1,.259-.148c.191,0,.288.078.288.236q0,.387-1,1.455a4.3,4.3,0,0,1-3.3,1.4,5.326,5.326,0,0,1-4.175-1.87,6.871,6.871,0,0,1-1.65-4.72,7.417,7.417,0,0,1,1.75-5.061,5.584,5.584,0,0,1,4.392-2,5.071,5.071,0,0,1,3,.921,2.612,2.612,0,0,1,1.307,2.137" transform="translate(73.685 70.578)"/><path class="d" d="M731.03,376.027a9.995,9.995,0,0,1-3.529,8.157,10.492,10.492,0,0,1-6.916,2.144h-7.777c-.365,0-.546-.1-.546-.3,0-.178.306-.267.919-.267q1.176,0,1.464-.445a3.171,3.171,0,0,0,.114-1.128v-16a3.562,3.562,0,0,0-.214-1.692q-.216-.239-1.478-.238c-.44,0-.66-.108-.66-.327,0-.157.162-.237.488-.237h4.993a25,25,0,0,1,7.319.745,7.884,7.884,0,0,1,4.219,3.528,11.4,11.4,0,0,1,1.607,6.057m-3.214-.119q0-4.942-1.865-7.249t-5.826-2.308q-1.922,0-2.324.416a3.177,3.177,0,0,0-.172,1.429v15.841a6.5,6.5,0,0,0,.043,1.014.476.476,0,0,0,.243.3,7.45,7.45,0,0,0,2.9.358,6.191,6.191,0,0,0,4.993-2.263q2.01-2.383,2.009-7.534" transform="translate(75.29 69.409)"/><path class="d" d="M741.809,381.923a2.675,2.675,0,0,1-.445,1.053,6.524,6.524,0,0,1-.9,1.231,4.321,4.321,0,0,1-3.3,1.306,5.571,5.571,0,0,1-4.319-1.93,6.878,6.878,0,0,1-1.736-4.778,7.506,7.506,0,0,1,1.65-4.958,5.14,5.14,0,0,1,4.118-1.988,4.935,4.935,0,0,1,3.415,1.231,4.319,4.319,0,0,1,1.464,3.161,14.168,14.168,0,0,1-2.439.119H737.3q-.2,0-3.444.088a12.769,12.769,0,0,0-.144,1.864,8.08,8.08,0,0,0,1.106,4.6,3.555,3.555,0,0,0,3.114,1.612,2.919,2.919,0,0,0,1.837-.534,6.5,6.5,0,0,0,1.493-2.048.349.349,0,0,1,.315-.238c.154,0,.23.069.23.208m-2.5-6.056q-.116-3.564-2.468-3.562-2.325,0-2.9,3.562Z" transform="translate(77.282 70.578)"/><path class="d" d="M750.969,381.451a4.122,4.122,0,0,1-4.1,4.135,5.447,5.447,0,0,1-2.366-.711,1.389,1.389,0,0,0-.656-.208q-.4,0-.6.564c-.076.238-.181.356-.313.356s-.2-.078-.2-.237v-3.977c0-.218.066-.327.2-.327.154,0,.239.111.259.33a4.54,4.54,0,0,0,.746,2.152,3.626,3.626,0,0,0,3.071,1.556,2.271,2.271,0,0,0,1.665-.625,2.242,2.242,0,0,0,.631-1.667,2.43,2.43,0,0,0-.718-1.844,3.108,3.108,0,0,0-.732-.551q-.33-.164-1.937-.789-3.186-1.249-3.186-3.748a3.891,3.891,0,0,1,1.081-2.8,3.558,3.558,0,0,1,2.677-1.13,6.348,6.348,0,0,1,1.708.356,1.727,1.727,0,0,0,.512.089.7.7,0,0,0,.741-.594c.056-.2.143-.3.257-.3.133,0,.2.079.2.237v1.425a17.3,17.3,0,0,0,.144,2.286v.06a.207.207,0,0,1-.23.238q-.173,0-.43-.9a3.48,3.48,0,0,0-1.1-1.737,2.766,2.766,0,0,0-1.823-.659,2.192,2.192,0,0,0-1.608.625,2.125,2.125,0,0,0-.631,1.578q0,1.487,1.923,2.261a13.278,13.278,0,0,1,3.789,2.023,3.458,3.458,0,0,1,1.033,2.53" transform="translate(78.511 70.507)"/><path class="d" d="M757.736,386.05c0,.178-.162.268-.489.268.02,0-.21-.02-.688-.059q-.862-.059-1.435-.06H752.14a.531.531,0,0,1-.345.119c-.21,0-.315-.074-.315-.22,0-.209.19-.314.574-.314q1.09-.03,1.191-.164a3.677,3.677,0,0,0,.1-1.231v-8.994a5.43,5.43,0,0,0-.072-.877c-.029-.088-.149-.133-.359-.133H751.8c-.21,0-.315-.069-.315-.208,0-.12.159-.189.481-.207a6.688,6.688,0,0,0,3.256-.924l.283-.174a4.009,4.009,0,0,1,.227,1.629v9.536a11.6,11.6,0,0,0,.043,1.392.35.35,0,0,0,.3.267,5.033,5.033,0,0,0,1.263.119c.269,0,.4.079.4.237m-2.153-18.493a1.161,1.161,0,0,1-1.291,1.335,1.247,1.247,0,0,1-.918-.37,1.226,1.226,0,0,1-.374-.907q0-1.394,1.291-1.394a1.161,1.161,0,0,1,1.291,1.336" transform="translate(79.436 69.508)"/><path class="d" d="M771.525,373.611q0,1.367-1.177,1.366a1.1,1.1,0,0,1-.732-.282.827.827,0,0,1-.33-.638,1.325,1.325,0,0,1,.085-.371,1.318,1.318,0,0,0,.086-.4c0-.257-.134-.387-.4-.387a.886.886,0,0,0-.66.371,1.167,1.167,0,0,0-.316.758q0,.089.144,1.009a9.957,9.957,0,0,1,.144,1.4,4.621,4.621,0,0,1-1.349,3.383,4.528,4.528,0,0,1-3.358,1.366,7.55,7.55,0,0,1-1.894-.445,2.167,2.167,0,0,0-.488-.118,1.487,1.487,0,0,0-1.09.5,1.556,1.556,0,0,0-.489,1.1q0,1.546,1.809,1.544a14.535,14.535,0,0,0,2.209-.266,12.4,12.4,0,0,1,2.153-.208,3.794,3.794,0,0,1,2.74.949,3.49,3.49,0,0,1,.991,2.643,5.228,5.228,0,0,1-2.11,4.245,8.244,8.244,0,0,1-5.324,1.692,6.243,6.243,0,0,1-3.745-.995,3.212,3.212,0,0,1-1.362-2.746,2.884,2.884,0,0,1,1.263-2.552,6.5,6.5,0,0,1,2.008-.742,2.737,2.737,0,0,1-2.037-2.553q0-2.138,2.639-2.969a4.5,4.5,0,0,1-1.722-3.681,4.577,4.577,0,0,1,1.32-3.428,5.45,5.45,0,0,1,5.381-.966,6.189,6.189,0,0,1,1.707,1.306,2.674,2.674,0,0,1,2.268-1.394q1.635,0,1.635,1.513M768.4,387.92q0-2.465-2.8-2.464a15.326,15.326,0,0,0-2.361.267,15.038,15.038,0,0,1-2.331.268,2.939,2.939,0,0,0-1.461,2.82,3.083,3.083,0,0,0,1.045,2.434,4.021,4.021,0,0,0,2.761.921,5.546,5.546,0,0,0,3.661-1.233,3.774,3.774,0,0,0,1.488-3.013m-2.21-11.37q0-4.3-2.3-4.3-2.239,0-2.239,4.007,0,4.512,2.383,4.512,2.153,0,2.152-4.215" transform="translate(80.026 70.578)"/><path class="d" d="M783.376,385c0,.149-.144.223-.429.223h-5.281c-.251,0-.375-.069-.375-.208a.169.169,0,0,1,.158-.177c.1-.02.473-.039,1.106-.06.363-.019.574-.074.631-.163a2.772,2.772,0,0,0,.086-.961v-5.687a17.251,17.251,0,0,0-.23-3.849,1.9,1.9,0,0,0-1.952-1.333,2.921,2.921,0,0,0-2.412,1.3,1.751,1.751,0,0,0-.286,1.066v9.24q0,.355.613.384l.876.03c.194,0,.291.069.291.207s-.115.208-.344.208H770.6c-.287,0-.43-.061-.43-.182s.171-.2.515-.233h.719c.286,0,.459-.07.515-.208l.087-.444V377.7q0-3.373-.059-3.73t-.717-.356H770.4c-.383,0-.573-.073-.573-.22,0-.189.2-.284.6-.284a7.534,7.534,0,0,0,1.866-.326,3.515,3.515,0,0,0,1.405-.683.731.731,0,0,1,.4-.238c.133,0,.2.189.2.564v1.425a4.606,4.606,0,0,1,3.846-1.989,3.191,3.191,0,0,1,2.985,1.574,7.52,7.52,0,0,1,.516,3.384v6.768a2.9,2.9,0,0,0,.086,1.039,1.257,1.257,0,0,0,.832.18h.516c.192,0,.288.064.288.193" transform="translate(81.376 70.578)"/><path class="d" d="M793.694,381.923a2.674,2.674,0,0,1-.445,1.053,6.521,6.521,0,0,1-.9,1.231,4.321,4.321,0,0,1-3.3,1.306,5.571,5.571,0,0,1-4.319-1.93,6.878,6.878,0,0,1-1.736-4.778,7.506,7.506,0,0,1,1.65-4.958,5.14,5.14,0,0,1,4.118-1.988,4.935,4.935,0,0,1,3.416,1.231,4.319,4.319,0,0,1,1.464,3.161,14.169,14.169,0,0,1-2.439.119h-2.009q-.2,0-3.444.088a12.761,12.761,0,0,0-.144,1.864,8.08,8.08,0,0,0,1.106,4.6,3.555,3.555,0,0,0,3.114,1.612,2.919,2.919,0,0,0,1.837-.534,6.5,6.5,0,0,0,1.493-2.048.349.349,0,0,1,.315-.238c.154,0,.23.069.23.208m-2.5-6.056q-.116-3.564-2.468-3.562-2.325,0-2.9,3.562Z" transform="translate(82.767 70.578)"/><path class="d" d="M803,373.928a1.619,1.619,0,0,1-.4,1.128,1.328,1.328,0,0,1-1.034.445,1.235,1.235,0,0,1-.86-.311,1.016,1.016,0,0,1-.345-.788,1.054,1.054,0,0,1,.258-.713c.174-.2.259-.336.259-.415q0-.444-.631-.445a1.636,1.636,0,0,0-1.377,1.034,10.414,10.414,0,0,0-.66,4.49V384.2c0,.237.081.384.243.444a7.067,7.067,0,0,0,1.478.118c.21.039.315.118.315.238,0,.138-.124.207-.373.207H794.3c-.305,0-.458-.06-.458-.177s.123-.18.373-.18h.4c.65,0,1.033-.078,1.148-.238a5.133,5.133,0,0,0,.057-1.1v-8.2q0-1.64-.473-1.894a3.587,3.587,0,0,0-1.506-.283c-.23,0-.345-.07-.345-.208s.1-.208.286-.208h.2a8.359,8.359,0,0,1,.861.045,3.159,3.159,0,0,1,.373.044,5.478,5.478,0,0,0,2.354-.623l.373-.178.23-.088a9.084,9.084,0,0,1,.114,1.424v.594a2.856,2.856,0,0,1,2.583-2.018,2.1,2.1,0,0,1,1.521.579,1.914,1.914,0,0,1,.6,1.438" transform="translate(83.878 70.588)"/></g></svg>