<svg xmlns="http://www.w3.org/2000/svg" xmlns:xlink="http://www.w3.org/1999/xlink" width="382" height="446" viewBox="0 0 382 446"><defs><style>.a{fill:none;}.b{clip-path:url(#a);}.c{fill:url(#b);}.d{clip-path:url(#c);}.e{fill:url(#d);}.f{clip-path:url(#e);}.g{fill:#fff;}</style><clipPath id="a"><rect class="a" width="382" height="446" transform="translate(0 -0.403)"/></clipPath><linearGradient id="b" x1="-0.198" y1="1.541" x2="-0.196" y2="1.541" gradientUnits="objectBoundingBox"><stop offset="0" stop-color="#e93d51"/><stop offset="1" stop-color="#b7559b"/></linearGradient><clipPath id="c"><rect class="a" width="381" height="444.597"/></clipPath><linearGradient id="d" x1="-0.2" y1="1.543" x2="-0.198" y2="1.543" xlink:href="#b"/><clipPath id="e"><rect class="a" width="381.001" height="444.597"/></clipPath></defs><g transform="translate(0 0.403)"><g transform="translate(0 0)"><g class="b"><rect class="c" width="382" height="446" transform="translate(0 -0.403)"/></g></g><g transform="translate(0.5 0.5)"><g class="d"><rect class="e" width="381" height="444.597" transform="translate(0 0)"/></g></g><g transform="translate(0.5 0.5)"><g class="f"><path class="g" d="M3.756,178.77c11.786-8.18,21.452-18.608,29.679-30.042,8.272-11.5,15.1-23.868,21.791-36.245,6.546-12.1,12.982-24.27,20.742-35.721,7.478-11.031,16.085-21.485,26.528-30.1A87.844,87.844,0,0,1,118.909,35.9a64.163,64.163,0,0,1,19.476-6.545,14.357,14.357,0,0,1,5.881.254A9.912,9.912,0,0,1,147.2,31.02a11.16,11.16,0,0,1,3.84,5.682c1.67,5.11,1.1,10.69-.6,15.785C146.5,64.3,138.764,74.563,130.732,84.143c-8.328,9.933-17.295,19.5-24.214,30.426a75.152,75.152,0,0,0-8.157,16.989c-1.173,3.633-2.195,7.738-.875,11.469a10.909,10.909,0,0,0,4.522,5.808c4.189,2.543,9.731,1.461,14.2.331,5.506-1.392,10.852-3.394,16.478-4.337a25.617,25.617,0,0,1,3.635-.365c.622-.02,1.245-.018,1.867.013a11.158,11.158,0,0,1,1.564.156l-1.1-.615c8.828,9.438,5.456,22.871.778,33.371-5.016,11.258-12.983,21.065-17.117,32.693-3.345,9.407-5.345,20.853-1.321,30.366a21.442,21.442,0,0,0,9.68,10.806c6.81,3.608,14.694,3.306,22.051,1.6,13.924-3.23,27.251-9.669,39.024-17.375a168.584,168.584,0,0,0,31.835-27.293c9.6-10.477,17.541-22.1,26.013-33.4,8.113-10.814,17.157-21.718,29.021-28.974a55.392,55.392,0,0,1,32.73-7.965c11,.851,21.387,6.087,26.533,15.831,6.035,11.422,3.289,25.661-2.935,36.448-7.134,12.363-18.966,21.577-30.388,30.171-11.495,8.651-22.862,17.4-33.7,26.806a410.861,410.861,0,0,0-30.978,29.722,335.134,335.134,0,0,0-27.194,32.941,270.409,270.409,0,0,0-21.939,35.894,167.411,167.411,0,0,0-8.724,19.435c-2.446,6.914-3.247,14.711,1.8,20.761,4.471,5.361,12.087,7.789,18.857,9.15a67.986,67.986,0,0,0,21.938.657c15.42-1.951,29.875-7.909,43.843-14.185,7.1-3.189,14.12-6.523,21.243-9.657a97.519,97.519,0,0,1,10.535-4.238c3.263-1,6.965-1.646,10.2-.191,5.1,2.293,7.032,8.324,7.722,13.283a64.4,64.4,0,0,1-.786,19.884c-2.491,13.972-8.374,27.118-14.953,39.729-3.384,6.487-6.974,12.873-10.513,19.283-3.479,6.3-7.189,12.607-10.026,19.2-2.228,5.179-3.944,12.134-.474,17.194a12.34,12.34,0,0,0,8.487,5c3.329.514,6.8.266,10.082.7,10.965,1.459,19.56,8.923,25.107,17.851a64.641,64.641,0,0,1,9.277,32.728c.349,16.071-2.671,32.012-2.388,48.081.134,7.7.851,15.832,3.538,23.144a19.135,19.135,0,0,0,5.677,8.6,17.332,17.332,0,0,0,9.4,3.631c6.855.635,13.81-2.05,19.774-5a172.523,172.523,0,0,0,17.931-10.259,177.082,177.082,0,0,0,31.5-26.239,171.309,171.309,0,0,0,24.2-32.332,139.89,139.89,0,0,0,9.249-18.9c2.765-7.107,4.522-14.95,2.636-22.47-3.194-12.728-15.948-19.566-27.47-24.592-5.919-2.582-11.864-5.055-17.6-8.008a133.433,133.433,0,0,1-16.761-10.143c-9.875-7.088-18.889-16.223-23.515-27.333-4.886-11.733-4.094-24.19-1.151-36.272,3.071-12.615,8.039-24.737,10.907-37.4,2.764-12.2,3.193-24.828-2.3-36.42-4.562-9.628-12.873-17.066-22.62-21.86-10.444-5.136-22.072-7.575-33.666-8.851a222.474,222.474,0,0,0-34.257-.777q1.206.878,2.412,1.754c-2.353-16.431,12.536-29.353,26.664-35.747,8.8-3.981,18.42-5.582,28.027-6.6,10.973-1.163,22.028-1.619,32.938-3.308,9.985-1.546,19.76-4.318,28.541-9.2a75.968,75.968,0,0,0,20.058-16.279,88.011,88.011,0,0,0,20.936-46.878c2.454-19.288-1.9-38.939-9.9-56.631a157.641,157.641,0,0,0-35.028-48.427c-7.457-6.762-16.016-12.424-25.762-15.692-10.276-3.446-21.393-4.151-32.2-3.549a238.874,238.874,0,0,0-33.242,4.648,337.363,337.363,0,0,0-33.3,8.413c-10.887,3.348-21.53,7.3-32.022,11.647-9.469,3.921-19.739,8.266-30.311,7.293-7.507-.69-15.738-4.582-18.871-11.487-3.968-8.748,2.083-18.1,7.9-24.588,12.773-14.24,29.176-25.622,46.417-34.407A229.558,229.558,0,0,1,306.5,10.377a234.489,234.489,0,0,1,61.428-5.319c20.265,1.044,40.559,5.218,58.959,13.548a129.962,129.962,0,0,1,43.9,32.464,133.843,133.843,0,0,1,26.319,45.576,126.93,126.93,0,0,1,6.177,52.469,138.179,138.179,0,0,1-15.762,51.672,151.233,151.233,0,0,1-34.532,43.307c-15.411,13.339-34.6,22.305-48.95,36.808-6.823,6.9-12.366,15.252-15.1,24.43a36.888,36.888,0,0,0,1.8,26.593c6.857,14.541,21.789,23.758,29.009,38.062,6.993,13.854,1.478,29.782,2.424,44.513.433,6.726,2.362,13.7,8.088,18.1a23.614,23.614,0,0,0,12.951,4.692c5.167.362,10.321-.59,15.425-1.212,4.559-.556,9.267-.911,13.678.046a26.674,26.674,0,0,1,9.614,4.168c5.862,3.993,10.089,10.237,13.2,16.515a96.872,96.872,0,0,1,7.369,21.95c1.953,8.719,3.324,17.587,4.72,26.4a497.494,497.494,0,0,1,5.974,56.566,287.336,287.336,0,0,1-2.568,55.857c-2.753,17.877-7.621,35.575-15.461,52.052a147.245,147.245,0,0,1-30.1,42.592,152.569,152.569,0,0,1-39.8,27.567,173.613,173.613,0,0,1-95.888,15.845,149.971,149.971,0,0,1-46.7-13.559c-16.338-7.883-32.2-19.034-40.782-34.891a53.613,53.613,0,0,1-6.214-27.084c.27-9.764,2.856-19.337,6.315-28.481a242.689,242.689,0,0,1,13.246-28.069c4.445-8.338,9.254-16.541,13.147-25.136,6.733-14.871,11.461-31.088,11.314-47.4-.136-15.046-5.149-30.319-17.558-40.225-6.237-4.98-14.023-8.045-19.873-13.469-2.472-2.293-4.447-5.115-4.759-8.344-.477-4.911,2.329-9.37,5.06-13.3a168.712,168.712,0,0,1,41.561-41.566c1.586-1.114,1.7-3.889-.6-4.369-23.74-4.964-47.918.957-69.41,10.8-21.638,9.909-40.606,24.086-60.3,37a278.932,278.932,0,0,1-30.152,17.62,108.886,108.886,0,0,1-27.158,9.611c-15.753,3.053-33.955,2.481-47.8-5.875a33.41,33.41,0,0,1-14.175-16.62c-3.59-9.574-2.2-19.978,1.779-29.233,8.813-20.514,29.254-32.831,47.125-45.5a233.674,233.674,0,0,0,49.687-47.108c3.515-4.52,6.869-9.164,9.988-13.943,3.22-4.932,6.16-10.653,4.962-16.624-1.071-5.345-5.624-9.074-10.051-12.04a92.247,92.247,0,0,0-14.562-7.808c-10.194-4.444-20.9-7.634-31.344-11.481-9.389-3.46-19.235-7.467-26.689-14.088A49.3,49.3,0,0,1,51.633,264.14a34.829,34.829,0,0,1-2.12-11.36,23.326,23.326,0,0,1,2-10.053,20.864,20.864,0,0,1,6.623-8.052l-1.927.241c8.038,1.889,14.629,6.623,20.373,12.155,6.113,5.885,11.375,12.505,17.248,18.6a72.009,72.009,0,0,0,21.43,15.8,78.817,78.817,0,0,0,27.587,6.936c19.324,1.382,38.452-4,54.7-13.894,16.62-10.116,30.07-24.33,40.712-40.067,4.668-6.9,9.175-13.982,14.789-20.235,5.125-5.708,11.357-10.963,19.188-12.671a25.03,25.03,0,0,1,5.555-.546q-1.2-1.513-2.41-3.026c-4.086,13.663-15.977,24.657-30.107,28.807a43.67,43.67,0,0,1-12.378,1.79,2.39,2.39,0,1,0,0,4.781,51.184,51.184,0,0,0,41.576-22.064,43.7,43.7,0,0,0,5.73-12.042,2.439,2.439,0,0,0-2.411-3.025c-14.453-.069-25.042,10.019-33.07,20.411-4.249,5.5-7.962,11.344-11.9,17.049a141.26,141.26,0,0,1-14.37,17.673c-10.54,10.976-23.115,20.3-37.5,26.181a83.939,83.939,0,0,1-44.278,5.409,70.418,70.418,0,0,1-21.08-6.658,66.231,66.231,0,0,1-16.9-12.625c-9.526-9.588-17.4-21.125-29.215-28.381a41.41,41.41,0,0,0-9.3-4.247c-.756-.236-1.524-.467-2.3-.635-1.54-.333-2.357.2-3.5,1.085a24.186,24.186,0,0,0-3.118,2.878A26.364,26.364,0,0,0,44.618,250C43.563,262.23,49.6,274.6,57.757,283.7c9.942,11.095,24.65,16.573,38.648,21.457,7.59,2.648,15.276,5.1,22.684,8.2a108.075,108.075,0,0,1,10.925,5.244,48.959,48.959,0,0,1,9.479,6.422c2.769,2.558,4.4,5.721,3.747,9.469-.708,4.029-3.091,7.608-5.355,10.99a213.249,213.249,0,0,1-15.029,19.863,224.389,224.389,0,0,1-36.6,34.223c-13.429,10-28.132,18.632-39.9,30.536-10.957,11.088-19.34,25.913-18.9,41.534A37.868,37.868,0,0,0,46.08,502.951c10.41,6.331,23.259,8.467,35.431,8.206a96.646,96.646,0,0,0,19.324-2.4,106.863,106.863,0,0,0,19.893-6.9c15.723-7.028,30.117-16.412,44.271-25.94,14.247-9.591,28.366-19.477,43.736-27.394,15.168-7.812,31.772-14.024,49.058-15.508a84.139,84.139,0,0,1,24.421,1.335l-.6-4.368c-17.212,12.085-32.508,27.1-44.062,44.317-2.879,4.29-5.468,9.281-5.05,14.525a17.542,17.542,0,0,0,4.941,10.584c5.528,5.954,13.5,9.089,20.011,13.868,12.435,9.132,17.218,23.715,17.256,38.214.043,16.028-4.745,32.089-11.6,46.61-4.193,8.876-9.219,17.391-13.792,26.091a221.2,221.2,0,0,0-13.14,28.906c-3.315,9.373-5.575,19.235-5.513,29.169a58.122,58.122,0,0,0,7.278,27.983c9.016,16.154,25.289,27.763,42.067,35.884a156.587,156.587,0,0,0,48.372,14.157,178.739,178.739,0,0,0,98.2-15.788,157.571,157.571,0,0,0,40.949-27.864A150.163,150.163,0,0,0,498.591,673.9,188.813,188.813,0,0,0,515.1,621.09a287.329,287.329,0,0,0,3.2-56.841,493.424,493.424,0,0,0-5.8-57.484c-1.4-9.109-2.847-18.248-4.737-27.277a109.143,109.143,0,0,0-7.213-22.791c-3.1-6.829-7.306-13.521-13.263-18.418a33.181,33.181,0,0,0-22.71-7.5c-5.246.209-10.4,1.273-15.627,1.668-4.717.358-9.489.121-13.638-2.264a14.848,14.848,0,0,1-6.756-8.27,24.346,24.346,0,0,1-.683-2.412,27.529,27.529,0,0,1-.673-4.712c-1.09-15.432,4.277-31.293-2.571-46.067s-22.114-24.054-29.286-38.63c-8.569-17.418,1.948-36.53,15.25-48.7,7.651-7,16.448-12.669,25.1-18.453a199.325,199.325,0,0,0,23.855-18.146,154.822,154.822,0,0,0,34.031-44.957,143.065,143.065,0,0,0,14.955-53.7,130.575,130.575,0,0,0-7.437-53.157,139.9,139.9,0,0,0-27.746-46.381,133.5,133.5,0,0,0-45.461-32.8C408.859,5.456,388.146,1.254,367.292.246a240.348,240.348,0,0,0-62.319,5.564,234.714,234.714,0,0,0-56.79,19.867c-17.527,8.928-34.266,20.563-47.288,35C194.194,68.1,188,77.915,190.87,88.1c2.3,8.182,10.081,13.691,18.3,15.909,10.127,2.732,20.64.2,30.165-3.374,5.253-1.972,10.379-4.238,15.6-6.289q8.023-3.152,16.213-5.892a337.012,337.012,0,0,1,33.3-9.264,278.227,278.227,0,0,1,33.2-5.614c10.813-1.073,21.92-1.175,32.508,1.458a64.567,64.567,0,0,1,26.279,14A134.233,134.233,0,0,1,416.59,111.1a148.528,148.528,0,0,1,15.621,25.973c8.12,17.449,12.383,37.131,9.719,56.2a82.482,82.482,0,0,1-21.511,45.138,70.754,70.754,0,0,1-20.705,15.158c-9.325,4.458-19.711,6.461-30,7.615-11.13,1.249-22.347,1.687-33.432,3.321a79.48,79.48,0,0,0-26.975,8.559c-7.333,4.026-14.021,9.419-18.72,16.19a31.436,31.436,0,0,0-5.555,22.615,2.48,2.48,0,0,0,2.41,1.754c14.709-.658,29.671-.5,44.158,2.258,13.246,2.525,26.586,7.342,35.634,17.211a38.962,38.962,0,0,1,9.163,17.749c1.617,7.249,1.064,14.809-.379,22.041-3.171,15.906-10.136,30.894-12.912,46.89-1.377,7.934-1.7,16.012.062,23.92a53.775,53.775,0,0,0,9.925,20.781c9.782,12.8,23.877,22.085,38.5,29.212,7.289,3.552,14.975,6.317,22.164,10.057,6.521,3.394,12.976,7.811,16.077,14.5,3.959,8.545.888,18.311-2.662,26.464a153.469,153.469,0,0,1-11.937,22.011A170.714,170.714,0,0,1,381.2,619.2q-5.518,3.369-11.292,6.328a54.57,54.57,0,0,1-11.509,4.65c-3.627.912-7.737,1.357-11.282-.109-3.761-1.556-5.832-5.006-7.046-8.582-3.123-9.2-3.379-19.242-3.015-28.822.7-18.407,4.658-37.211.472-55.473-3.114-13.586-10.4-27.592-22.968-35.3a35.679,35.679,0,0,0-9.719-4.129c-3.946-1.013-7.908-1.013-11.951-1.258-3.47-.211-6.952-1.313-8.008-4.624-1.013-3.178-.086-6.824,1.06-9.954a90.894,90.894,0,0,1,5.535-11.241c2.139-4.01,4.341-7.988,6.545-11.966,4.476-8.074,8.967-16.151,12.943-24.464,7.675-16.039,13.641-33.457,12.408-51.322-.491-7.138-2.813-15.634-9.851-19.384-4.319-2.3-9.367-2.084-13.977-.766a106.723,106.723,0,0,0-13.763,5.526c-17.562,7.8-34.845,17.034-53.855,21.254-8.714,1.934-17.859,2.649-26.7,1.067-7.616-1.362-17.986-4.21-19.91-12.526-.98-4.235.387-8.738,1.876-12.71,1.53-4.08,3.381-8.065,5.258-12.008a254.656,254.656,0,0,1,12.5-23.068,300.937,300.937,0,0,1,31.316-42.244,399.812,399.812,0,0,1,38.273-37.722q10.153-8.8,20.815-17.04c7.208-5.586,14.666-10.879,21.743-16.618,7.172-5.816,13.91-12.179,19.233-19.63A52.669,52.669,0,0,0,345.8,173.6c1.1-8.1-.1-16.617-4.407-23.766A33.654,33.654,0,0,0,325.13,136.21c-13.773-5.6-30.056-3.651-43.289,2.42-15.857,7.275-27.308,21.323-37.278,34.7-5.265,7.065-10.29,14.3-15.765,21.214a185.043,185.043,0,0,1-17.58,19.256c-12.529,11.909-26.989,22.058-43.193,28.906a115.5,115.5,0,0,1-12.3,4.382c-4.718,1.392-9.6,2.494-14.576,2.208a18.8,18.8,0,0,1-10.125-3.514c.151.11-.392-.307-.528-.419-.263-.218-.522-.444-.773-.676a17.274,17.274,0,0,1-1.567-1.647c.211.255-.339-.447-.381-.5-.2-.27-.385-.545-.567-.824a18.289,18.289,0,0,1-2.4-5.453,25.712,25.712,0,0,1-.776-4.084,40.078,40.078,0,0,1,.219-9.389,60.955,60.955,0,0,1,6-18.721c1.608-3.184,3.57-6.167,5.421-9.221,2.226-3.671,4.356-7.4,6.269-11.227,3.688-7.382,6.837-15.318,7.231-23.575a26.991,26.991,0,0,0-1.657-11.079,24.487,24.487,0,0,0-2.69-5.112,29.289,29.289,0,0,0-1.9-2.415,5.033,5.033,0,0,0-1.235-1.177,5.709,5.709,0,0,0-2.088-.448c-6.847-.8-13.771,1.6-20.215,3.49-1.585.465-3.174.923-4.778,1.321-.732.181-1.466.35-2.2.5q-.531.108-1.067.2c-.513.087-.668.111-.884.136a19.287,19.287,0,0,1-1.965.128c-.31,0-.623,0-.933-.017-.151-.008-.3-.022-.454-.031-.489-.032.186.04-.106-.009a10.869,10.869,0,0,1-1.653-.408c-.355-.117.355.166.019.011-.125-.057-.249-.115-.372-.178a7.042,7.042,0,0,1-.794-.474c.411.283-.192-.173-.308-.283a6.675,6.675,0,0,1-.6-.628c.258.313-.2-.309-.281-.439a8.5,8.5,0,0,1-.59-1.083,8.857,8.857,0,0,1-.529-2.442,12.826,12.826,0,0,1,.316-3.255,50.494,50.494,0,0,1,3.9-10.865c6.614-13.861,17.465-25.277,27.372-37.017a164.209,164.209,0,0,0,14.135-18.761c3.9-6.261,7.571-13.315,8.854-20.562,1.2-6.765.68-14.543-4.132-20-6.147-6.974-16.34-4.7-24.2-2.183C112.225,32.064,98.7,42.11,87.661,54,76.338,66.192,67.312,80.187,59.344,94.554c-8.3,14.965-15.956,30.29-25.365,44.667C25.2,152.635,14.717,165.284,1.232,174.643a2.4,2.4,0,0,0-.9,3.27,2.585,2.585,0,0,0,3.42.858" transform="translate(-76.31 -75.442)"/><path class="g" d="M264.975,223.1q1.773-1.235,3.547-2.47l-3.03-3.753-4.967,3.965,3.535,3.381a59.323,59.323,0,0,1,7.757-6.463,2.4,2.4,0,0,0,.9-3.27,2.594,2.594,0,0,0-3.42-.857l-13.728,8.222,3.03,3.755a53.182,53.182,0,0,1,11.572-8.115q-1.262-2.064-2.524-4.128l-12.819,8.961,3.03,3.755a95.621,95.621,0,0,1,10.414-9.3,2.331,2.331,0,0,0,0-3.381,2.646,2.646,0,0,0-3.535,0l-11.512,8.65c-2.208,1.659.774,5.41,3.029,3.755q5.482-4.023,10.965-8.047a2.374,2.374,0,0,0,1.023-2.984,2.512,2.512,0,0,0-2.949-1.383,10.992,10.992,0,0,0-5.018,3.291c-1.8,2.162.373,4.868,3.029,3.755q4.139-1.737,8.278-3.471l-3.673-2.7a2.482,2.482,0,0,1-1.421,1.808q1.537,1.471,3.075,2.941a9.139,9.139,0,0,1,4.758-5.63l-3.03-3.753a155.224,155.224,0,0,1-17.1,16.458l3.927,2.9a16.975,16.975,0,0,1,6.317-4.681l-3.029-3.755a27.873,27.873,0,0,1-9.708,7.644l3.03,3.755q3.371-3.439,6.991-6.64l-3.536-3.381a36.079,36.079,0,0,1-10.15,7.848l3.42,3.271,7.815-10.417c1.7-2.261-1.946-4.724-3.927-2.9l-9.18,8.473,3.536,3.381,6.3-6.331c2.22-2.229-1.219-5.527-3.536-3.381l-10.141,9.4q1.962,1.446,3.926,2.9a20.8,20.8,0,0,1,6.454-5.345q-1.712-1.634-3.421-3.27-2.715,3.432-5.429,6.867l4.317,2.412c.211-.392.224-.392.677-.483l-1.926-4.369-5.987,3.454c-2.775,1.6-.337,5.505,2.524,4.129l7.366-3.548-3.03-3.755a10.855,10.855,0,0,1-3.733,1.832l1.926,4.369q8.337-4.924,16.567-10.013l-3.421-3.269a4.812,4.812,0,0,1-1.509,1.534q1.514,1.879,3.029,3.755a29.056,29.056,0,0,1,7.313-5.3l-3.42-3.271a9.877,9.877,0,0,1-3.851,3.853l3.421,3.27q2-2.506,4.007-5.01c1.487-1.86-1.476-4.7-3.42-3.271q-1.779,1.307-3.556,2.608a2.411,2.411,0,0,0-.9,3.272,2.582,2.582,0,0,0,3.421.857q1.777-1.3,3.555-2.609l-3.42-3.269-4.008,5.009c-1.585,1.982,1.419,4.4,3.421,3.27a14.732,14.732,0,0,0,5.644-5.566,2.467,2.467,0,0,0-3.421-3.272,33.487,33.487,0,0,0-8.324,6.047c-1.9,1.894.588,5.307,3.029,3.755a10.471,10.471,0,0,0,3.3-3.25c1.276-2-1.3-4.579-3.421-3.27q-8.229,5.088-16.567,10.013a2.407,2.407,0,0,0,1.927,4.368,17.111,17.111,0,0,0,5.94-3.061,2.294,2.294,0,0,0,.2-3.139,2.608,2.608,0,0,0-3.225-.616l-7.366,3.548q1.262,2.065,2.524,4.129l5.986-3.454c2.487-1.434.814-4.92-1.926-4.369a5.371,5.371,0,0,0-3.665,2.681,2.384,2.384,0,0,0,.9,3.269,2.628,2.628,0,0,0,3.42-.857l5.43-6.867c1.584-2-1.413-4.365-3.421-3.271a26.626,26.626,0,0,0-8.247,7.061,2.3,2.3,0,0,0,.644,3.083,2.6,2.6,0,0,0,3.282-.186l10.142-9.395-3.536-3.381-6.3,6.331c-2.22,2.231,1.215,5.523,3.536,3.381l9.18-8.473q-1.963-1.449-3.926-2.9l-7.815,10.418c-1.54,2.052,1.385,4.332,3.42,3.269a40.031,40.031,0,0,0,11.163-8.595c2.093-2.316-1.15-5.49-3.536-3.381q-3.619,3.2-6.991,6.64c-1.981,2.021.5,4.964,3.03,3.755a31.187,31.187,0,0,0,10.719-8.392,2.439,2.439,0,0,0-3.029-3.754,22,22,0,0,0-8.112,6.4,2.3,2.3,0,0,0,.644,3.083,2.624,2.624,0,0,0,3.283-.186,155.307,155.307,0,0,0,17.1-16.457,2.439,2.439,0,0,0-3.03-3.755,13.963,13.963,0,0,0-7.055,8.486c-.469,1.609,1.247,3.635,3.075,2.941a7.542,7.542,0,0,0,4.914-5.149c.56-2.184-1.728-3.514-3.673-2.7l-8.277,3.471,3.029,3.753a6.3,6.3,0,0,1,2.812-2.062l-1.926-4.368-10.965,8.045,3.029,3.755q5.757-4.324,11.512-8.65l-3.535-3.381a95.442,95.442,0,0,0-10.415,9.3,2.325,2.325,0,0,0-.195,3.139,2.552,2.552,0,0,0,3.225.616l12.819-8.962a2.419,2.419,0,0,0-2.524-4.128,58.236,58.236,0,0,0-12.584,8.861c-2.021,1.869.6,5.211,3.03,3.755l13.728-8.224q-1.263-2.062-2.524-4.127a66.644,66.644,0,0,0-8.768,7.209c-2.281,2.243,1.1,5.326,3.535,3.381l4.968-3.967c2.154-1.72-.728-5.355-3.03-3.754q-1.773,1.235-3.547,2.47a2.4,2.4,0,0,0-.9,3.271,2.583,2.583,0,0,0,3.42.857" transform="translate(-76.31 -84.609)"/><path class="g" d="M269.893,209.951l-5.389,1.794,1.926,4.369,1.772-1.3-3.421-3.27-12.59,16.071c-1.687,2.153,2.135,5,3.927,2.9a63.881,63.881,0,0,1,4.692-4.947c1.966-1.866-.62-5.3-3.03-3.755a44.794,44.794,0,0,0-9.1,7.645,2.334,2.334,0,0,0-.2,3.138,2.549,2.549,0,0,0,3.225.616,15.021,15.021,0,0,1,3.658-1.965l-2.823-3.511a12.469,12.469,0,0,1-3.647,3.923l3.42,3.27a6.573,6.573,0,0,1,2.263-2.072q-1.517-1.877-3.03-3.754a3.034,3.034,0,0,1-1.858,1.2c-3.133.7-1.806,5.308,1.328,4.609a7.274,7.274,0,0,0,4.065-2.432,2.354,2.354,0,0,0,.2-3.138,2.579,2.579,0,0,0-3.225-.616A11.972,11.972,0,0,0,248,232.515c-1.3,1.942,1.36,4.672,3.421,3.27a18.122,18.122,0,0,0,5.44-5.638c1.015-1.685-.7-4.263-2.822-3.511a19.483,19.483,0,0,0-4.853,2.447q1.513,1.877,3.029,3.754a40.042,40.042,0,0,1,8.092-6.9q-1.515-1.876-3.028-3.754a63.91,63.91,0,0,0-4.693,4.948q1.964,1.449,3.927,2.9L269.1,213.958c1.465-1.867-1.466-4.7-3.42-3.27l-1.772,1.3a2.377,2.377,0,0,0-1.023,2.985,2.517,2.517,0,0,0,2.95,1.384l5.39-1.795a2.437,2.437,0,0,0,1.746-2.94,2.54,2.54,0,0,0-3.076-1.669" transform="translate(-76.31 -84.649)"/><path class="g" d="M305.43,162.413a22.507,22.507,0,0,1-13.35,23.371c-2.621,1.164-.744,5.044,1.926,4.369a24.529,24.529,0,0,1,20.7,4.139,2.66,2.66,0,0,0,3.536,0,2.333,2.333,0,0,0,0-3.38,29.96,29.96,0,0,0-25.569-5.369l1.926,4.369c10.606-4.709,17.378-16.4,15.827-27.5a2.529,2.529,0,0,0-2.5-2.39c-1.212,0-2.68,1.1-2.5,2.39" transform="translate(-76.31 -82.463)"/><path class="g" d="M130.463,412.242c-7.68,7.353-15.366,14.71-23.452,21.658a267.116,267.116,0,0,1-25.378,19.056c-16.3,10.945-33.961,22.615-42.16,40.719a50.131,50.131,0,0,0-2.485,6.57c-.671,2.289-1.17,4.849.182,7.012,2.755,4.4,8.692,2.37,12.636,1.065q16.016-5.3,31.849-11.093t31.461-12.063q7.89-3.167,15.728-6.447c2.588-1.084,5.176-2.168,7.749-3.282a18.265,18.265,0,0,0,5.37-3.261,7.353,7.353,0,0,0,2.493-5.9c-.232-2.606-1.845-4.727-3.052-6.99a32.224,32.224,0,0,1-3.72-13.486c-.257-5.187,1.168-10.031,1.961-15.111.718-4.6.668-9.329-1.648-13.542a13.142,13.142,0,0,0-4.389-4.641,2.59,2.59,0,0,0-3.42.858,2.378,2.378,0,0,0,.9,3.271c3.077,2.018,4.039,5.956,4.019,9.322-.03,4.89-1.732,9.626-2.261,14.471a36.384,36.384,0,0,0,1.26,13.959,38.434,38.434,0,0,0,2.507,6.383c.5,1,1.054,1.961,1.621,2.924a6.876,6.876,0,0,1,1.253,2.983c.057,1.428-1.28,2.448-2.457,3.158a47.54,47.54,0,0,1-6.053,2.8q-7.3,3.1-14.654,6.094-14.737,6-29.669,11.56-15,5.593-30.177,10.747-3.763,1.279-7.539,2.53c-1.878.622-3.927,1.564-5.94,1.631-1.461.05-1.9-.438-1.614-2.025a30.836,30.836,0,0,1,1.971-6.046c6.93-16.913,23.178-28.2,38.158-38.261,8.4-5.641,16.7-11.353,24.495-17.759,7.83-6.439,15.241-13.322,22.557-20.283q2.724-2.593,5.438-5.195c2.276-2.18-1.258-5.562-3.536-3.381" transform="translate(-76.31 -93.499)"/><path class="g" d="M97.251,74.263c-11.337,16.248-13.422,36.171-20.476,54.116a67.982,67.982,0,0,1-35.151,37.58,58.963,58.963,0,0,1-28.7,5.385,2.393,2.393,0,1,0,0,4.781c18.8,1.3,37.209-6.635,50.472-19.1a71.1,71.1,0,0,0,15.929-22.059c4.153-9.036,6.7-18.6,9.436-28.084,3.032-10.515,6.415-21.05,12.8-30.2,1.791-2.567-2.538-4.963-4.317-2.413" transform="translate(-76.31 -78.653)"/><path class="g" d="M141.821,550.46l59.89-53.563,16.93-15.141H215.1c.605.732.245,2.006.01,2.8a30.624,30.624,0,0,1-1.884,4.294,76.889,76.889,0,0,0-7.406,29.505c-.658,12.93,1.785,26.633,8.139,38.156,3.321,6.025,8.083,11.47,14.427,14.724,2.835,1.455,5.363-2.671,2.524-4.128-11.182-5.738-16.184-18.479-18.6-29.714a73.4,73.4,0,0,1,2.243-38.628,96,96,0,0,1,4.19-9.97c1.621-3.482,2.572-7.185-.1-10.423-.858-1.037-2.642-.8-3.536,0l-59.89,53.563-16.93,15.14c-2.355,2.106,1.187,5.482,3.536,3.381" transform="translate(-76.31 -96.401)"/></g></g></g></svg>