<svg xmlns="http://www.w3.org/2000/svg" xmlns:xlink="http://www.w3.org/1999/xlink" width="301.887" height="293.07" viewBox="0 0 301.887 293.07"><defs><style>.a{fill:none;}.b{clip-path:url(#a);}.c{fill:#fff;}</style><clipPath id="a"><rect class="a" width="301.887" height="293.07" transform="translate(1715.52 446.856)"/></clipPath></defs><g transform="translate(-1715.52 -446.856)"><g class="b"><path class="c" d="M1569.568,565.468q25.85-16.221,52.716-30.741c15.175-8.216,31.2-15.382,48.643-16.572,18.734-1.278,36.731,4.519,54.975,7.712,9.032,1.581,18.262,2.566,27.42,1.588a58.775,58.775,0,0,0,23.8-7.582,68.676,68.676,0,0,0,15.8-13.328c4.461-4.941,8.48-10.26,12.878-15.258a209.509,209.509,0,0,1,32.832-30.313,205.08,205.08,0,0,1,44.4-24.858,225.125,225.125,0,0,1,48.978-13.544,249.417,249.417,0,0,1,51.072-2.943c16.212.745,32.46,3.152,47.915,8.213,3.433,1.124,6.831,2.374,10.15,3.8a2.584,2.584,0,0,0,3.421-.9,2.518,2.518,0,0,0-.9-3.42c-14.927-6.418-30.879-9.916-46.993-11.658a242.25,242.25,0,0,0-51.683.167,238.638,238.638,0,0,0-49.24,10.294,215.022,215.022,0,0,0-48.262,22.719,209.825,209.825,0,0,0-36.6,29.635q-7.548,7.653-14.338,16.007a128.624,128.624,0,0,1-13.155,14.55,51.877,51.877,0,0,1-18.426,10.9c-8.454,2.787-17.389,3.324-26.217,2.624-18.605-1.475-36.426-7.91-55.055-9.324A90.489,90.489,0,0,0,1655.3,515.6a126.1,126.1,0,0,0-24.691,9.212c-8.346,4.029-16.439,8.6-24.514,13.14q-13.4,7.536-26.562,15.5-6.277,3.8-12.493,7.7c-2.719,1.706-.212,6.034,2.524,4.317"/><path class="c" d="M2054.135,421.263c-14.9-3.081-30.352-1.446-44.842,2.877-13.721,4.093-26.485,10.563-38.5,18.279a203.181,203.181,0,0,0-34.353,27.353,143.55,143.55,0,0,0-23.116,30.032c-5.516,9.671-9.87,19.945-13.959,30.284-3.972,10.037-7.692,20.174-12.168,29.965a137.359,137.359,0,0,1-16.7,28.248,110.7,110.7,0,0,1-27.785,24.856c-11.668,7.381-24.453,12.787-37.548,17.071a330.309,330.309,0,0,1-44.037,10.795c-15.752,2.847-31.641,4.84-47.565,6.43-16.644,1.661-33.326,2.906-50,4.2-16.725,1.3-33.453,2.653-50.125,4.535-15.8,1.783-31.718,3.774-47.1,7.908-13.765,3.7-27.064,9.415-37.3,19.609a83.821,83.821,0,0,0-11.618,14.936c-3.976,6.335-7.579,12.923-10.957,19.595a297.233,297.233,0,0,0-17.614,42.986,358,358,0,0,0-10.993,43.8c-2.768,14.731-4.751,29.6-6.255,44.513-1.484,14.711-2.492,29.465-3.333,44.224q-.613,10.767-1.144,21.539c-.165,3.215,4.836,3.207,5,0,.748-14.665,1.509-29.331,2.592-43.975,1.086-14.687,2.478-29.361,4.527-43.947a418.39,418.39,0,0,1,8.374-43.643,316.918,316.918,0,0,1,14.023-43.015,255.815,255.815,0,0,1,20.471-40.145,75.363,75.363,0,0,1,11.425-14.272,62.724,62.724,0,0,1,17.238-11.5c13.4-6.154,28.334-8.9,42.82-11.065,16.16-2.417,32.451-3.976,48.727-5.368,16.6-1.42,33.218-2.593,49.821-3.978,16.344-1.363,32.674-2.935,48.924-5.17a435.4,435.4,0,0,0,45.847-8.583,237.476,237.476,0,0,0,40.862-13.814,131.246,131.246,0,0,0,33.633-21.545,115.691,115.691,0,0,0,21.931-26.957c5.633-9.459,10.045-19.573,14.132-29.777,3.978-9.932,7.646-20.021,11.963-29.781a154.094,154.094,0,0,1,16.712-29.515,160.543,160.543,0,0,1,28.012-28.726,193.729,193.729,0,0,1,36.313-23.63c12.779-6.281,26.754-10.849,41-11.983a75.733,75.733,0,0,1,21.334,1.169,2.561,2.561,0,0,0,3.076-1.746,2.527,2.527,0,0,0-1.747-3.075"/><path class="c" d="M1742.716,837.816c-3.876-19.227,4.305-38.226,16.182-53.134,14.539-18.251,34.063-31.909,54.332-43.1,21.415-11.825,44.173-21.084,67.256-29.1,24.662-8.561,49.819-15.348,74.946-22.365,23.1-6.451,46.806-13.239,67.71-25.3a105.088,105.088,0,0,0,27.1-22.026,95.923,95.923,0,0,0,16.094-26.285c9.85-23.917,8.87-50.2,13.4-75.28a185.546,185.546,0,0,1,25.349-66.166,198.472,198.472,0,0,1,43.639-48.259,265.369,265.369,0,0,1,59.09-35.515q8.261-3.663,16.733-6.817a2.572,2.572,0,0,0,1.746-3.076,2.521,2.521,0,0,0-3.076-1.746A288.8,288.8,0,0,0,2158.846,413c-17.211,12.042-33.027,26.217-46.1,42.7a187.015,187.015,0,0,0-33.764,66.317,230.9,230.9,0,0,0-6.651,36.244c-1.488,13.414-2.456,26.928-5.521,40.106a98.927,98.927,0,0,1-11.621,29.235,92.145,92.145,0,0,1-21.719,24.283c-9.165,7.233-19.653,12.709-30.37,17.249a328.345,328.345,0,0,1-34.356,11.959c-25.044,7.469-50.413,13.742-75.291,21.787-23.986,7.756-47.705,16.655-70.3,27.877-21.311,10.583-42.072,23.365-58.874,40.389-14.325,14.514-26.479,33.08-27.491,54.009a56.973,56.973,0,0,0,1.111,13.995,2.5,2.5,0,1,0,4.821-1.329"/><path class="c" d="M2068.8,455.511c1.106,18.156-3.009,36.193-10.674,52.616-8.654,18.545-21.272,35-35.634,49.484a296.392,296.392,0,0,1-45.63,37.054,467.548,467.548,0,0,1-53.876,30.838,661.09,661.09,0,0,1-61.094,26.184c-21.352,7.969-43.019,15.055-64.649,22.219-21.675,7.179-43.35,14.41-64.633,22.694-20.675,8.049-41.123,17.032-60.2,28.42-17.5,10.446-34.135,23.1-46.143,39.774-10.968,15.228-17.43,33.795-16.213,52.681a78.1,78.1,0,0,0,2.024,13.264c.755,3.127,5.577,1.8,4.822-1.329-4.271-17.7-1.293-36.129,7.363-52.059,9.577-17.625,24.856-31.217,41.394-42.183,18.183-12.058,38.062-21.475,58.215-29.728,20.872-8.548,42.216-15.887,63.6-23.025,21.824-7.284,43.731-14.334,65.386-22.114,21-7.548,41.731-15.886,61.951-25.345a501.986,501.986,0,0,0,55.408-30.01,335.757,335.757,0,0,0,46.108-34.545c15.675-14.175,29.837-30.386,40.4-48.759,9.335-16.245,15.728-34.293,17.029-53.065a100.491,100.491,0,0,0,.048-13.066c-.2-3.2-5.2-3.219-5,0"/><path class="c" d="M1628.5,598.005a268.252,268.252,0,0,0,46.731-4.037,282.471,282.471,0,0,0,43.06-11.093,296.77,296.77,0,0,0,38.718-16.419,292.212,292.212,0,0,0,35.223-21.324c12.746-8.966,24.853-18.8,36.656-28.963,11.4-9.816,22.536-19.927,33.934-29.742,10.55-9.086,21.325-17.924,32.657-26.021a319.45,319.45,0,0,1,32.635-20.526,281.762,281.762,0,0,1,37.381-17.054,273.887,273.887,0,0,1,42.879-11.971q5.652-1.092,11.345-1.947a2.516,2.516,0,0,0,1.746-3.075,2.562,2.562,0,0,0-3.075-1.746,275.545,275.545,0,0,0-44.206,10.438,285.318,285.318,0,0,0-38.971,16.013,308.2,308.2,0,0,0-33.943,19.794,394.6,394.6,0,0,0-31.951,24.074c-11.612,9.62-22.827,19.7-34.146,29.665s-22.787,19.829-34.818,28.957a313.21,313.21,0,0,1-36.1,23.882,286.891,286.891,0,0,1-78.585,29.92,264.143,264.143,0,0,1-45.509,5.951q-5.828.244-11.662.224c-3.218-.009-3.222,4.991,0,5"/><path class="c" d="M2031.506,448.893a506.99,506.99,0,0,0-50.477,36.167c-7.673,6.268-15.224,12.74-22.315,19.663-6.854,6.692-13.438,13.97-18.224,22.318-4.118,7.184-7.28,16.038-5.946,24.433.777,4.884,4.726,7.636,9.063,9.235a41.314,41.314,0,0,0,14.369,2.14c20.021-.1,37.451-10.963,54.439-20.254l58.254-31.861,7.2-3.938c2.824-1.545.3-5.864-2.523-4.318l-56.291,30.787c-8.909,4.873-17.748,9.913-26.771,14.574-7.886,4.074-16.146,7.539-24.918,9.14a53.418,53.418,0,0,1-14.148.678c-3.875-.333-8.381-1.115-11.586-3.485-3.009-2.225-2.546-6.669-2.121-9.965a36.684,36.684,0,0,1,3.391-11.022c3.858-8.061,9.668-15.027,15.843-21.41a278.844,278.844,0,0,1,21.375-19.5,483.2,483.2,0,0,1,47.477-34.951q3.2-2.079,6.433-4.114c2.715-1.711.209-6.04-2.524-4.317"/><path class="c" d="M2074.566,703.8c-17.8-.53-35.617-.973-53.417-.284-17.1.661-34.316,2.309-50.948,6.479a142.594,142.594,0,0,0-45.41,20.572,362.349,362.349,0,0,0-40.768,32.626,340.88,340.88,0,0,0-35.192,37.16q-1.889,2.336-3.731,4.708a2.583,2.583,0,0,0,0,3.535,2.517,2.517,0,0,0,3.536,0,332.22,332.22,0,0,1,33.692-37,383.647,383.647,0,0,1,40.082-33.287c13.354-9.6,27.725-17.384,43.567-21.994,15.955-4.643,32.569-6.621,49.119-7.522,17.638-.96,35.318-.671,52.967-.184q3.252.09,6.5.188c3.219.1,3.216-4.9,0-5"/><path class="c" d="M1676.729,449.545c4.245,5.166,11.955,6.752,18.245,7.424a52.61,52.61,0,0,0,23.775-2.859,57.32,57.32,0,0,0,20.013-12.966,101.489,101.489,0,0,0,16.773-21.416,77.27,77.27,0,0,0,9.775-26.82l-4.178,1.1a49.663,49.663,0,0,1,11.641,19.46,40.658,40.658,0,0,1,.762,20.4c-3.5,15.851-15.344,28.678-28.676,37.556-15.734,10.477-34.112,16.445-52.549,20.031a236.048,236.048,0,0,1-59.516,3.64c-19.076-1.181-38.219-4.544-56.177-11.214-1.949-.724-3.887-1.485-5.8-2.3a2.585,2.585,0,0,0-3.421.9,2.518,2.518,0,0,0,.9,3.421c18.162,7.757,37.694,11.835,57.308,13.644a243.868,243.868,0,0,0,62.071-2.193c19.153-3.167,38.378-8.779,55.159-18.745,15.126-8.983,28.987-22.171,34.429-39.329a46.73,46.73,0,0,0,1.468-22.384,49.924,49.924,0,0,0-9.75-21.325q-2.032-2.65-4.312-5.089c-1.19-1.268-3.886-.776-4.178,1.1-2.583,16.574-11.332,31.365-22.727,43.444a57.257,57.257,0,0,1-16.977,12.847,47.4,47.4,0,0,1-21.822,4.37,41.666,41.666,0,0,1-11.356-1.8,14.908,14.908,0,0,1-7.342-4.429,2.519,2.519,0,0,0-3.536,0,2.558,2.558,0,0,0,0,3.536"/></g></g></svg>