<svg xmlns="http://www.w3.org/2000/svg" xmlns:xlink="http://www.w3.org/1999/xlink" width="382.936" height="465.501" viewBox="0 0 382.936 465.501"><defs><style>.a{fill:none;}.b{clip-path:url(#a);}.c{fill:url(#b);}.d{clip-path:url(#c);}.e{fill:#fff;}</style><clipPath id="a"><rect class="a" width="382.935" height="465.5" transform="translate(38.693 107.344)"/></clipPath><linearGradient id="b" x1="-0.101" y1="1.206" x2="-0.098" y2="1.206" gradientUnits="objectBoundingBox"><stop offset="0" stop-color="#e93d51"/><stop offset="1" stop-color="#b7559b"/></linearGradient><clipPath id="c"><rect class="a" width="382.936" height="465.5" transform="translate(38.692 107.345)"/></clipPath></defs><g transform="translate(-38.692 -107.344)"><g class="b"><rect class="c" width="382.935" height="465.5" transform="translate(38.693 107.344)"/></g><g class="d"><path class="e" d="M60.551.763a187.409,187.409,0,0,0-32.86,47.108,184.285,184.285,0,0,0-17.1,54.738c-1.273,8.943-1.682,18.683,2.665,26.916a23.741,23.741,0,0,0,16.631,12.15c6.984,1.276,14.134.1,20.99-1.379,7.315-1.584,14.525-3.676,21.927-4.844,6.705-1.058,13.772-1.254,20.185,1.281,6.272,2.478,11.213,7.782,15.534,13.02,4.55,5.516,8.663,11.483,13.961,16.331,5.149,4.713,11.33,7.941,18.379,8.374,11.714.721,21.066-7.407,28.306-15.657,8.171-9.312,14.968-19.941,24.31-28.184a35.954,35.954,0,0,1,14.112-8.061c8.63-2.289,17.279.6,25.44,3.356a99.563,99.563,0,0,0,14.259,4.081,43.733,43.733,0,0,0,14.321.194c9.259-1.391,17.946-5.795,25.356-11.4,16.429-12.423,26.347-30.625,38.773-46.621,11.4-14.676,26.237-27.526,44.618-32.193A49.377,49.377,0,0,1,395,39.8,45.9,45.9,0,0,1,415.585,51.21a35.389,35.389,0,0,1,10.273,19.512,42.761,42.761,0,0,1-1.606,19.043c-4.022,13.566-12.333,25.646-19.528,37.824-7.074,11.971-14.172,24.951-14.847,39.152a43.292,43.292,0,0,0,4.824,21.618c3.772,7.464,9.186,13.917,14.087,20.641,4.77,6.547,9.238,13.536,10.715,21.631,1.514,8.3-.569,16.687-3.586,24.4-6.455,16.505-17.189,31.427-18.488,49.6-1.169,16.353,4.722,32.166,11.045,46.939,6.362,14.865,13.945,29.55,17.134,45.527a57.313,57.313,0,0,1,.3,22.628c-1.914,9.349-6.644,17.646-11.363,25.822-5.1,8.84-9.839,17.718-12.478,27.644-2.655,9.987-3.6,20.363-4.059,30.658-.833,18.654.024,37.552-5.261,55.668-4.252,14.572-12.326,29.154-26.348,36.238-18.861,9.527-40.7,1.247-59.429-4.279-20.716-6.112-42.263-10.133-63.915-10.162A154.666,154.666,0,0,0,211,584.523,143.32,143.32,0,0,0,183.4,593.51c-16.732,7.279-32.131,17.2-47.362,27.154-15.25,9.966-30.48,20.132-46.969,27.974a140.36,140.36,0,0,1-25.216,9.367c-8.7,2.237-18.823,3.445-26.917-1.358-6.614-3.925-10.208-11.355-11.189-18.784-1.182-8.952,1.441-17.724,5.544-25.615,4.82-9.272,11.324-17.609,17.412-26.063l20.259-28.132c5.881-8.167,13.15-16.764,14.058-27.2a20.816,20.816,0,0,0-7.977-18.143c-5.122-4-11.491-6.047-17.686-7.73-6.793-1.846-13.72-3.244-20.375-5.573-6.384-2.235-12.408-5.667-16.753-11.217-4.856-6.2-7.294-14.053-8.394-21.755-2.8-19.638,4.039-38.808,5.631-58.23a78.23,78.23,0,0,0-.21-16.241,80.5,80.5,0,0,0-3.584-15.088c-3.037-9.2-7.218-18.3-8.448-27.995-1.039-8.176.731-16.4,5.882-22.887,4.686-5.9,11.172-10.046,17.743-13.56,7.074-3.783,14.482-6.885,21.664-10.449A56.247,56.247,0,0,0,69.312,287.2c4.779-5.862,8.641-12.755,9.634-20.347a21.289,21.289,0,0,0-6.61-18.757l.391,3.03c4.348-8.447,12.934-12.732,22.015-14.319,10.586-1.851,21.047.153,31.221,3.112,12.739,3.706,25.45,8.593,38.888,8.792a56.755,56.755,0,0,0,28.894-7.631c17.6-10.039,29.986-27.294,41.331-43.587,2.971-4.267,5.9-8.564,8.86-12.835,2.844-4.1,5.649-8.276,8.776-12.166a76.482,76.482,0,0,1,24.618-20.42c8.244-4.181,18.193-6.609,26.966-2.963,8.926,3.71,14.125,12.587,15.014,21.986.971,10.263-1.707,20.83-5.951,30.123-5.236,11.466-12.032,22.247-15.981,34.279-3.467,10.566-4.006,21.785-.357,32.372,3.131,9.084,8.638,17.026,14.661,24.417,6.23,7.645,13.094,14.744,19.394,22.329,6.012,7.237,11.679,15.107,14.991,23.985,7.975,21.374,1.025,44.623-11.142,62.926-6.51,9.792-14.668,18.005-23.573,25.617-9.273,7.926-18.954,15.719-25.608,26.11-5.622,8.779-8.291,19.907-6.253,30.216a27.2,27.2,0,0,0,6.766,13.4,50.664,50.664,0,0,0,5.772,4.869,22.386,22.386,0,0,1,5.088,4.865,5.213,5.213,0,0,1,.462,5.615c-1.13,2.205-3.241,3.938-5.177,5.424a38.168,38.168,0,0,1-10.208,5.475,45.945,45.945,0,0,1-23.658,1.456c-15.7-3.043-30.962-13.347-36.442-28.524-3.66-10.14-2.086-21.1-2.265-31.644-.1-5.791-.657-11.745-2.875-17.149a28.126,28.126,0,0,0-9.8-12.463c-8.269-5.848-19.143-6.542-28.841-4.917-11.156,1.869-20.863,7.52-30.133,13.738-9.963,6.682-19.767,14.257-31.231,18.208a53.058,53.058,0,0,1-30.482,1.2c-9.567-2.495-18.741-7.956-24.372-16.244a39.166,39.166,0,0,1-6.206-26.505c1.026-8.773,5.381-17.512,12.8-22.693,5.052-3.526,10.874-5.68,16.257-8.617a40.085,40.085,0,0,0,13.259-11.455c6.674-9.027,9.556-20.3,12.469-30.959,3.037-11.11,6.585-22.113,12.06-32.291,5.218-9.7,12.248-18.928,21.591-24.989a47.815,47.815,0,0,1,27.885-7.652c9.069.4,17.845,3.88,23.949,10.756,1.389,1.565,3.513.482,4.178-1.1,4.744-11.295,10.51-24.727,23.184-28.827,5.353-1.732,11.414-1.582,15.991,2.018,5.161,4.058,7.893,10.922,10.54,16.717,6.043,13.226,10.576,27.706,9.352,42.408-.939,11.267-6.09,22.572-14.738,29.982a32.129,32.129,0,0,1-16.1,7.274c-7.371,1.145-14.979.094-22.312-.83-12.617-1.59-27.192-3.1-38.173,4.8-8.276,5.96-12.143,17.975-7.412,27.358,5.087,10.089,19.027,10.419,27.252,4.223a18.339,18.339,0,0,0,7.68-14.222,20.491,20.491,0,0,0-6.862-15.172,20.134,20.134,0,0,0-7.77-4.437,17.543,17.543,0,0,0-4.305-.686,3.065,3.065,0,0,0-2.449.724,11.929,11.929,0,0,0-1.6,2.269,22.684,22.684,0,0,0-2.127,17.747,21.8,21.8,0,0,0,4.311,7.946,2.527,2.527,0,0,0,2.432.643c9.613-1.773,16.025-11.213,16.63-20.562a20.4,20.4,0,0,0-.679-6.7,19.725,19.725,0,0,0-1.267-3.3c-.536-1.107-1.343-2.772-2.421-3.4a9.884,9.884,0,0,0-4.147-.809,18,18,0,0,0-3.918.275,17.208,17.208,0,0,0-7.148,2.979c-4.423,3.2-7.142,8.42-5.941,13.92,1.1,5.025,5.506,9.679,10.621,10.652a10.01,10.01,0,0,0,11.545-6.183,12.668,12.668,0,0,0-1.286-11.524,8.713,8.713,0,0,0-6.287-3.8c-1.518-.13-3.06.723-4.392,1.4a23.363,23.363,0,0,0-4.106,2.715,24.114,24.114,0,0,0-8.757,16.459,2.5,2.5,0,0,0,1.836,2.411c11.932,2.482,24.01-10.889,19.3-22.515-.556-1.373-2.206-2.5-3.673-1.494a26.871,26.871,0,0,0-10.8,28.192,2.528,2.528,0,0,0,3.075,1.746c4.417-1.345,8.832-4.705,10.184-9.288,1.074-3.643-.665-9-5.1-9.047-2.814-.03-5.47,2.388-6.591,4.814a4.814,4.814,0,0,0-.15,4.436,4.276,4.276,0,0,0,4.378,1.913c2.532-.416,4.407-3.761,5-6.013a10.072,10.072,0,0,0-.995-7.629,2.571,2.571,0,0,0-2.824-1.148,18.817,18.817,0,0,0-14.49,18.538,2.524,2.524,0,0,0,2.5,2.5c10.791-.777,19.868-10.276,19.861-21.17a2.52,2.52,0,0,0-2.5-2.5c-4.029.314-8.426,1-11.857,3.295-3.066,2.049-5.954,6.342-4.087,10.1,1.271,2.556,4.433,3.5,7.11,3.245,2.615-.251,6-1.588,5.867-4.764-.083-1.944-1.693-4.009-3.728-3.92a6.207,6.207,0,0,0-4.742,2.743,8.5,8.5,0,0,0-.121,9.379,6.186,6.186,0,0,0,9.646.49c2.3-2.546,3.118-6.848,1.138-9.815-3.042-4.56-8.931-1.923-11.57,1.614a10.1,10.1,0,0,0,.022,12.524,2.517,2.517,0,0,0,3.535,0,2.553,2.553,0,0,0,0-3.535c-1.041-1.252-.974-3.435-.142-5.039a6.319,6.319,0,0,1,1.8-2.243,3.723,3.723,0,0,1,2.62-.786l-1.261-.341a4.363,4.363,0,0,1,.627.322c-.4-.255.088.073.17.178-.321-.408.056.083.109.194.2.423-.067-.286.11.312a3.234,3.234,0,0,1,.077.323q-.036-.387-.011-.108c.02.23.012.457.018.687,0,.116-.009.232-.02.347q.059-.359.01-.085a6.719,6.719,0,0,1-.162.687c-.025.084-.251.689-.156.475a5.035,5.035,0,0,0-.3.528c-.059.1-.472.584-.149.225a4.883,4.883,0,0,1-.473.47c.323-.274-.062.032-.207.105-.445.224.337-.017-.2.069a.9.9,0,0,1-.477,0c-.692-.155.4.189-.226-.068-.056-.023-.656-.413-.177-.1-.089-.059-.465-.556-.156-.123a4.273,4.273,0,0,1-.322-.546c.238.464-.035-.1-.061-.208-.054-.217-.112-.426-.15-.647.094.546,0-.1,0-.231,0-.229,0-.455.016-.683.03-.59-.087.289.04-.236.053-.221.115-.436.177-.654.154-.548-.155.232.087-.223a6.05,6.05,0,0,1,.33-.56c-.3.439.137-.126.227-.218s-.28.134.16-.108c.459-.253.017-.018.177-.08.554-.217-.135-.037.333-.054l-1.768-.732c.1.089.19.182.278.28q.276.322-.077-.1a2.006,2.006,0,0,1,.145.26q-.228-.588-.126-.224a1.079,1.079,0,0,1,.293-1.251c-.45.415.389-.093,0,.033a4.312,4.312,0,0,0-.52.282c.653-.329-.418.081-.67.141-.7.167.213.016-.227.031-.246.009-.489.026-.736.021-.185,0-.368-.018-.553-.03-.423-.03.447.149-.233-.055-.226-.068-.452-.125-.676-.2.81.28-.1-.073-.089-.075a2.147,2.147,0,0,1-.208-.132q.429.35.129.089a2.973,2.973,0,0,1-.219-.23q.336.453.117.118-.183-.357.05.156a2.592,2.592,0,0,1-.09-.324c.278.331-.043.322.026-.06.019-.25.015-.263-.011-.037.034-.2.077-.389.128-.58a2.738,2.738,0,0,1,.263-.731,5.95,5.95,0,0,1,2.546-2.433,21.149,21.149,0,0,1,8.572-2.147l-2.5-2.5c.005,8.038-6.773,15.588-14.861,16.17q1.249,1.251,2.5,2.5a13.808,13.808,0,0,1,10.82-13.717l-2.824-1.149a5.061,5.061,0,0,1-1.281,6.5l1.261-.341a3.773,3.773,0,0,0-.61-.005.474.474,0,0,1,.447.105c-.273-.242.682.74.465.47a.938.938,0,0,1,.167.613c-.006-.3.183-.392-.039.108.062-.139.046-.315.124-.449.289-.495-.287.5.017-.025.091-.158.173-.318.27-.472s.208-.315.321-.465c-.361.477.008.008.106-.087.139-.135.277-.275.415-.413.1-.087.193-.172.293-.253-.23.172-.271.207-.125.1s.324-.191.475-.3c.471-.33-.082.243.135-.073l.164-.05c.275-.06.218-.062-.173-.005a1.2,1.2,0,0,1,.485,0c-.712-.354.228.128-.487-.12.111.038.647.213.067.016.333.113-.086-.2.122.131a4.521,4.521,0,0,1,.324.609,3.537,3.537,0,0,1-.37,2.984,10.7,10.7,0,0,1-6.31,4.884l3.076,1.747a21.71,21.71,0,0,1,8.505-22.546l-3.673-1.494a11.514,11.514,0,0,1-2.151,11.727c-2.688,3.282-6.866,5.5-11,4.638l1.835,2.41a19.05,19.05,0,0,1,8.982-14.073,20.4,20.4,0,0,1,1.887-1.019c.237-.112.475-.217.719-.313.034-.014.7-.248.464-.192-.037.01-.417-.031-.108,0a3.985,3.985,0,0,1,.678.18,3.052,3.052,0,0,1,.324.116c-.044-.018-.33-.153-.083-.017.2.108.387.22.578.339.237.148-.02-.035-.057-.063a4.459,4.459,0,0,1,.338.291c.189.181.369.369.542.566s-.012-.028-.039-.064c.068.09.135.184.2.28.121.2.246.388.357.59.062.113.364.735.2.351a8.85,8.85,0,0,1,.439,1.358c.067.274.123.551.168.829.048.294,0-.015-.007-.063.018.161.033.323.041.485a7.394,7.394,0,0,1-.232,2.708,5.827,5.827,0,0,1-.973,2.115,4.192,4.192,0,0,1-1.824,1.4,5.84,5.84,0,0,1-3.128.278c-4.858-1-8.392-6.512-6.59-11.214,2.033-5.3,8.832-7.749,14.02-6.379l-1.494-1.149c6.571,8.96.9,23.676-10.172,25.718l2.432.643c-5.065-6.016-4.879-15.258-.194-21.4l-2.158,1.238c9.344,0,17.205,10.531,13.8,19.438-2.985,7.806-13.551,11.668-20.746,7.663a11.085,11.085,0,0,1-5.274-8.582,18.478,18.478,0,0,1,2.562-11.585c5.493-9.139,18.3-10.465,28.078-9.992,13.155.635,26.437,4.556,39.508,1,10.589-2.883,19.077-10.713,24.255-20.222,12.655-23.241,4.312-50.3-6.868-72.34-2.655-5.232-6.011-10.522-11.292-13.432a22.324,22.324,0,0,0-16.381-1.613c-12.005,3.131-19.384,13.5-24.379,24.176-1.319,2.82-2.523,5.692-3.728,8.562l4.178-1.1c-14.249-16.051-39.9-15.026-57.031-4.431-20.327,12.571-30.129,36.6-36.212,58.632-2.938,10.643-5.5,21.866-11.925,31.058a35.047,35.047,0,0,1-12.471,10.749c-5.519,2.967-11.488,5.17-16.569,8.9C49.053,405.831,46.5,430.435,56.564,447.4c11.366,19.165,36.571,25.73,57.249,20.568,11.847-2.958,22.1-9.935,32.038-16.737,9.464-6.476,19.084-13.2,30.415-15.853,9.113-2.135,19.552-2.034,27.583,3.2a22.642,22.642,0,0,1,8.763,11.242c1.969,5.442,2.247,11.259,2.232,16.992-.027,10.776-1.145,21.912,3.034,32.132a48.12,48.12,0,0,0,15.928,20.121c13.693,10.3,33.014,14.541,49.454,8.962a41.684,41.684,0,0,0,11.375-5.856c4.318-3.19,9.2-7.562,8.487-13.484-.661-5.487-5.475-8.846-9.495-11.993-3.9-3.05-6.938-6.555-8.483-11.33-3.1-9.577-.675-20.546,4.514-28.947,6.407-10.372,16.244-18.051,25.387-25.873,9.179-7.852,17.488-16.4,24.2-26.494a91.976,91.976,0,0,0,13.741-31.728c2.352-11.24,2.11-23.064-1.7-33.964-3.374-9.65-9.184-18.113-15.6-25.98-6.309-7.735-13.261-14.916-19.624-22.606-5.913-7.146-11.5-15.011-14.412-23.819a42,42,0,0,1-2.2-14.262,54.723,54.723,0,0,1,3.88-18.039c4.4-11.683,11.34-22.195,16.006-33.757,4.045-10.023,6.312-21.224,4.572-32-1.673-10.371-8.16-19.434-17.979-23.485-9.626-3.97-20.4-1.708-29.508,2.563a78.377,78.377,0,0,0-26.089,20.594c-6.749,8.021-12.383,17.041-18.344,25.648a263.436,263.436,0,0,1-19,25.011c-6.476,7.311-13.734,14.073-22.311,18.851a51.754,51.754,0,0,1-28.943,6.5c-13.531-.944-26.251-6.428-39.257-9.814-10.335-2.692-21.161-3.7-31.658-1.247-9.285,2.167-17.936,7.42-22.4,16.087a2.561,2.561,0,0,0,.391,3.03,15.874,15.874,0,0,1,4.948,8.15,19.844,19.844,0,0,1-.3,9.37c-1.866,7.3-6.452,13.794-11.784,19.014a48.618,48.618,0,0,1-9.251,7.154c-3.345,1.976-6.926,3.581-10.441,5.224-7.289,3.407-14.7,6.668-21.523,10.959-6.452,4.056-12.491,9.159-16.262,15.888-4.592,8.194-5.03,17.552-3.118,26.593,2.071,9.793,6.362,18.932,9.128,28.523a63.754,63.754,0,0,1,2.545,15.32,98.781,98.781,0,0,1-.9,16.276C10.449,425,7.87,435.7,6.7,446.628a80.97,80.97,0,0,0,.989,24.941c1.621,7.862,4.843,15.509,10.2,21.564,4.972,5.62,11.6,9.015,18.618,11.38,6.678,2.25,13.6,3.63,20.383,5.517,1.574.438,3.14.9,4.69,1.422q1.189.4,2.363.839c.777.295,1.373.537,1.909.775a34.415,34.415,0,0,1,3.913,2.027,17.352,17.352,0,0,1,3.151,2.316,15.041,15.041,0,0,1,4.279,6.372,18.379,18.379,0,0,1-.337,12.086c-1.636,4.713-4.529,8.951-7.4,12.987-3.312,4.655-6.675,9.274-10.013,13.91l-20.114,27.93c-5.931,8.236-11.846,16.582-15.556,26.1-3.255,8.349-4.327,17.452-2.086,26.2,2.069,8.084,7.165,15.531,14.886,19.1,9,4.156,19.281,3.135,28.617.73a146.831,146.831,0,0,0,25.882-9.62c16.512-7.787,31.756-17.933,47-27.9,15.287-9.994,30.725-19.977,47.5-27.323a142.915,142.915,0,0,1,59.1-11.663c21.562.229,42.783,4.527,63.378,10.691,19.491,5.834,41.246,12.87,60.72,3.132,14.584-7.293,23.419-22.208,28.18-37.276,5.678-17.969,5.257-36.793,5.912-55.415.364-10.331,1.06-20.71,3.482-30.791a78.159,78.159,0,0,1,4.877-14.388c2.038-4.438,4.457-8.689,6.895-12.917,4.875-8.456,9.942-17.044,12.238-26.629a61.228,61.228,0,0,0,.607-23.984c-2.583-16.2-10.089-31.186-16.6-46.074-6.313-14.429-12.574-29.8-12.047-45.843.588-17.906,11.288-32.983,17.861-49.06,3.247-7.942,5.542-16.562,4.613-25.206-.919-8.555-4.762-16.154-9.6-23.149-4.782-6.92-10.332-13.321-14.564-20.614a39.756,39.756,0,0,1-5.794-20.64c.182-13.489,7.216-26.192,14.046-37.772,7.307-12.388,15.623-24.6,19.939-38.456a48.493,48.493,0,0,0,2.2-20.146,40.172,40.172,0,0,0-9.556-21.615c-10.978-12.709-28.729-18.548-45.175-16.386-18.808,2.473-35.51,13.6-47.975,27.5-13.658,15.238-22.945,34.114-37.965,48.169-6.687,6.257-14.556,11.6-23.355,14.356a39.92,39.92,0,0,1-13.129,1.9,51.791,51.791,0,0,1-14.041-2.807c-9.255-2.931-18.738-7.11-28.673-6.041a35.018,35.018,0,0,0-16.748,6.657c-10.209,7.378-17.4,17.987-25.281,27.619a85.258,85.258,0,0,1-12.147,12.621,4.17,4.17,0,0,1-.418.324c-.279.207-.558.414-.841.615q-.836.6-1.706,1.142a29.512,29.512,0,0,1-3.324,1.811c-.133.062-.267.121-.4.181-.643.29.288-.112-.11.048-.27.108-.541.215-.815.315q-.921.338-1.868.6-.9.246-1.809.418c-.288.055-.577.1-.867.146.544-.082-.478.049-.656.064a22.719,22.719,0,0,1-16.354-5.33c-5.535-4.5-9.734-10.4-14.162-15.922-4.468-5.579-9.348-11.163-15.724-14.609-6.5-3.515-13.965-4.277-21.232-3.6-7.57.707-14.936,2.646-22.31,4.4C47.6,135.983,41,137.58,34.048,137.175a22.525,22.525,0,0,1-8.246-2.049,18.251,18.251,0,0,1-7.3-6.533c-4.646-7.23-4.242-16.677-3.063-24.844A180.772,180.772,0,0,1,32.557,49.282,182.984,182.984,0,0,1,64.087,4.3c2.224-2.326-1.306-5.867-3.536-3.536"/><path class="e" d="M170.336,368.915a18.326,18.326,0,0,0-7.155,9.245c-1.146,3.282-1.818,8.509,1.628,10.716,3.631,2.324,7.949-1.452,9.506-4.611A11.528,11.528,0,0,0,174.4,374c-1.875-3.727-6.342-5.634-9.943-3.028-3.4,2.462-4.735,6.85-5.09,10.857-.335,3.8.688,8.113,3.622,10.736,2.634,2.354,6.56,3.587,9.991,2.375,8.023-2.834,6.871-15.064.434-18.993-3.8-2.318-8.217-.108-10.108,3.58a11.729,11.729,0,0,0-.548,9.135,11.56,11.56,0,0,0,5.922,6.873,10.349,10.349,0,0,0,10.01-.953,12.508,12.508,0,0,0,5.552-8.991c.394-3.866-1.7-8.5-5.95-8.958-3.667-.392-7.108,2.672-8.078,6.06a9.95,9.95,0,0,0,2.974,9.65,11.046,11.046,0,0,0,9.72,3.056,9.721,9.721,0,0,0,6.919-6.277,11.576,11.576,0,0,0-.343-8.956c-1.492-3.212-5.538-6.195-8.986-3.934-2.878,1.889-3.878,6.724-3.614,9.94.347,4.237,3.6,7.423,8.026,6.4,7.313-1.7,7.763-11.762,2.783-16.145-5.89-5.182-15.036-.81-17.185,6.025-1.142,3.631.018,8.589,4.254,9.471,3.98.829,7.734-2.222,9.61-5.474a14.623,14.623,0,0,0,1.553-10.341c-.766-3.521-3.33-7.469-7.092-8.221-4.389-.877-7.9,3.2-10.138,6.431a23.5,23.5,0,0,0-3.99,11.277c-.356,4.054,1.032,8.458,5.31,9.725,3.631,1.076,7.924-.212,11.216-1.794,6.449-3.1,11.449-9.665,11.637-16.956a17.74,17.74,0,0,0-12.041-16.745c-7.875-2.533-15.115,2.507-19.66,8.549-4.906,6.521-8.155,15.162-4.675,23.043,2.962,6.7,10.024,11.183,17.219,11.771,7.56.618,15.088-3.252,20.071-8.754,2.693-2.973,5.191-6.7,6.039-10.67.945-4.434-.57-8.673-3.312-12.157-4.191-5.324-11.21-8.125-17.908-7.869A21.922,21.922,0,0,0,161.086,373.8,25.221,25.221,0,0,0,157.9,394.57c1.208,3.983,3.66,7.312,7.609,8.859,3.412,1.337,7.38.945,10.813-.1a33.344,33.344,0,0,0,18.176-13.82c4.08-6.724,4.423-15.886-.867-22.071-5.4-6.311-15.255-7.58-22.872-5.423a25.433,25.433,0,0,0-16.946,16.035c-2.782,7.776-1.664,17.047,5.1,22.371,12.314,9.687,30.129,3.681,38.834-7.866a26.139,26.139,0,0,0,5.056-11.195,20.041,20.041,0,0,0-1.515-11.6,21.866,21.866,0,0,0-17.722-12.607,25.571,25.571,0,0,0-21.321,8.4,30.4,30.4,0,0,0-7.729,21.4c.357,6.671,3.306,13.856,9.713,16.788a2.575,2.575,0,0,0,3.42-.9,2.521,2.521,0,0,0-.9-3.421c-4.574-2.093-6.789-6.956-7.189-11.78a25.622,25.622,0,0,1,4.458-16.311,21.238,21.238,0,0,1,14.4-9.123,17.39,17.39,0,0,1,14.948,4.749,15.467,15.467,0,0,1,4.15,15.136,26.111,26.111,0,0,1-25.083,18.15c-5.119-.207-10.717-2.526-13.411-7.094-3.024-5.129-1.684-12.177,1.164-17.076a20.37,20.37,0,0,1,14.226-9.775c5.441-.977,12.509.363,15.972,5.048,3.337,4.513,2.621,10.871-.113,15.468-2.91,4.894-8.061,8.817-13.283,10.984-4.55,1.887-10.676,2.655-13.4-2.4-2.5-4.633-2.048-10.784-.108-15.519,1.849-4.51,5.477-8.559,10.152-10.191a17.834,17.834,0,0,1,13.862.925c4.623,2.371,8.9,7.393,7.223,12.881-1.662,5.429-6.342,10.134-11.3,12.677a16.711,16.711,0,0,1-15.017.485c-4.4-2.19-8.194-6.419-8.434-11.526a18.826,18.826,0,0,1,2.631-9.71,29.414,29.414,0,0,1,5.11-7.042c3.746-3.7,8.991-5.638,13.834-2.807,4.255,2.487,7.057,7.634,6.169,12.578-.9,5.041-4.732,9.15-9.324,11.2-1.883.84-5.285,2.034-7.31,1.055-2.109-1.019-1.5-4.66-1.118-6.478a19.064,19.064,0,0,1,3.476-7.69,13.541,13.541,0,0,1,3.143-3.123c1.017-.664,1.844-.241,2.645.566,3.224,3.253,2.539,9.361-.822,12.268-.615.533-1.8,1.4-2.667,1.063-.692-.267-.719-1.447-.656-2.124a6.717,6.717,0,0,1,3.5-4.923,6.156,6.156,0,0,1,3.036-.83,4.031,4.031,0,0,1,1.232.176,4.286,4.286,0,0,1,1.2.554,5.441,5.441,0,0,1,2,4.74,4.592,4.592,0,0,1-.265,1.215c-.272.782.1-.151-.12.271a4.609,4.609,0,0,1-.344.578c.219-.3-.334.352-.309.328-.431.414.2-.037-.455.353a2.445,2.445,0,0,1-1.609.423c-1.624-.276-1.116-3.421-.754-4.89a9.814,9.814,0,0,1,.477-1.565c.094-.216.455-.8.472-.863l.256-.15c-.414.092-.517.125-.307.1a4.649,4.649,0,0,1,.754.433c-.2-.158.14.14.141.141.094.088.624.685.506.526a6.073,6.073,0,0,1,.859,5.228,4.947,4.947,0,0,1-3.016,3.65,5.628,5.628,0,0,1-5.38-1.364c-1.469-1.287-2.566-3.358-1.89-5.159a3.9,3.9,0,0,1,1.924-2.1,1.075,1.075,0,0,1,1.566.33c1.358,1.753.742,4.281-.344,6.013a6.9,6.9,0,0,1-5.3,3.334,4.842,4.842,0,0,1-2.451-.59,6.325,6.325,0,0,1-1.922-1.728,7.939,7.939,0,0,1-1.424-5.313c.2-1.373,1.285-4.3,3.258-3.8,2.1.536,3.128,3.814,3.253,5.674.146,2.183-.709,4.418-3.009,4.717a5.751,5.751,0,0,1-4.964-2.325c-1.646-2.31-1.576-5.506-.948-8.144a10.467,10.467,0,0,1,1.513-3.715c.49-.691,1.369-1.7,2.2-1.5,1.93.461,2.316,3.58,2.128,5.112a7.16,7.16,0,0,1-.918,2.6,5.476,5.476,0,0,1-.961,1.208c-.154.148-1.357.855-1.365.936-.005.054.242.055.318.193.128.232-.165-.339-.136-.159a6.892,6.892,0,0,1-.213-1.55,11.858,11.858,0,0,1,.795-3.749,12.781,12.781,0,0,1,4.8-6.08c2.658-1.784.158-6.117-2.524-4.317"/><path class="e" d="M187.48,368.257l1.044,4.3a2.526,2.526,0,0,0,1.149,1.494,2.578,2.578,0,0,0,1.594.3,2.378,2.378,0,0,0,1.436-.688,2.445,2.445,0,0,0,.732-1.767.9.9,0,0,1,0-.172c-.03.222-.06.443-.089.665a.939.939,0,0,1,.04-.158l-.252.6a.966.966,0,0,1,.111-.185q-.2.252-.391.506a1.124,1.124,0,0,1,.162-.154l-.506.391a1.386,1.386,0,0,1,.256-.141l-.6.252a1.547,1.547,0,0,1,.292-.076l-.664.089a1.535,1.535,0,0,1,.3,0l-.664-.089a1.258,1.258,0,0,1,.289.077l-.6-.252a1.726,1.726,0,0,1,.3.185l-.506-.391a2.249,2.249,0,0,1,.306.311l-.391-.506a3.958,3.958,0,0,1,.475.856l-.252-.6c.048.116.1.234.14.352a2.658,2.658,0,0,0,1.149,1.494,2.576,2.576,0,0,0,1.594.3,2.487,2.487,0,0,0,2.168-2.455l-.08-2.583a2.61,2.61,0,0,0-.732-1.768,2.5,2.5,0,0,0-4.268,1.768l.08,2.583,4.91-.665a7.415,7.415,0,0,0-.844-1.775,4.063,4.063,0,0,0-2.353-1.743,3.8,3.8,0,0,0-2.791.432,3.522,3.522,0,0,0-1.182,1.2,3.224,3.224,0,0,0-.319.773,2.78,2.78,0,0,0-.1.891l4.911-.665q-.522-2.148-1.045-4.3a2.5,2.5,0,0,0-4.821,1.329"/><path class="e" d="M107.947,592.48c-3.711-10.16-2.514-20.981.569-31.138,3.218-10.6,8.262-20.608,13.384-30.39q7.821-14.939,17.015-29.1,4.655-7.167,9.645-14.109c2.786-3.876,5.621-7.986,9.455-10.917,3.214-2.457,7.092-3.7,11.025-2.321,3.727,1.3,6.5,4.71,8.5,7.961a61.06,61.06,0,0,1,5.336,12.1c1.493,4.3,2.772,8.67,3.981,13.056,4.753,17.252,8.466,35.671,19.756,50.08,12.248,15.63,32.1,21.889,51.392,21.668,2.377-.027,4.751-.157,7.118-.368a2.566,2.566,0,0,0,2.5-2.5,2.519,2.519,0,0,0-2.5-2.5c-19.08,1.7-39.746-2.455-52.916-17.359-12.022-13.6-15.638-32.456-20.28-49.443-1.233-4.513-2.531-9.01-4.048-13.437a73.441,73.441,0,0,0-5.46-12.875c-2.24-3.893-5.225-7.646-9.177-9.907a15.391,15.391,0,0,0-13.9-.709c-4.343,1.877-7.795,5.4-10.7,9.045-3.444,4.322-6.589,8.908-9.7,13.474q-9.748,14.32-18.091,29.533a249.2,249.2,0,0,0-14.89,31.071c-3.933,10.365-6.468,21.521-4.828,32.622a39.477,39.477,0,0,0,1.989,7.8,2.565,2.565,0,0,0,3.075,1.746,2.521,2.521,0,0,0,1.746-3.075"/><path class="e" d="M364.38,87.72a112.655,112.655,0,0,0-25.419,80.75c.909,10.659,3.694,20.924,6.408,31.231,2.727,10.363,5.02,20.735,4.781,31.512-.23,10.3-2.121,20.459-3.725,30.61-1.58,9.993-3.025,20.166-2.218,30.3a59.1,59.1,0,0,0,9.439,27.724c5.142,7.956,11.555,14.986,16.892,22.8A61.439,61.439,0,0,1,381.017,369.2c2.77,20.26-3.385,40.787-10.672,59.466-7.747,19.861-17.653,38.782-27.332,57.746-9.656,18.919-19.263,38.011-26.307,58.09-6.361,18.132-10.489,37.232-11.1,56.475-.59,18.724,2.4,37.683,10.469,54.69a94.272,94.272,0,0,0,6.719,11.844c1.775,2.666,6.107.165,4.317-2.523-10.215-15.338-15.337-33.341-16.364-51.649-1.06-18.892,1.842-37.84,7.083-55.965,5.679-19.637,14.342-38.252,23.453-56.495,9.486-18.992,19.605-37.686,28.156-57.13,8.326-18.931,15.884-38.9,17.055-59.756a72.375,72.375,0,0,0-3.956-29.289c-3.443-9.224-9.245-17.015-15.252-24.708-5.574-7.139-11.464-14.429-14.752-22.971-3.573-9.28-4.006-19.225-3.2-29.04.839-10.161,2.91-20.166,4.31-30.254,1.445-10.42,2.082-20.764.527-31.213-1.612-10.835-5.041-21.275-7.532-31.917a109.737,109.737,0,0,1-3-29.039,108.3,108.3,0,0,1,16.372-53.367,101.193,101.193,0,0,1,7.9-10.935,2.571,2.571,0,0,0,0-3.536,2.52,2.52,0,0,0-3.536,0"/><path class="e" d="M4.432,167l.242-.035,1.262.342a2.229,2.229,0,0,1,.708,1.377L6,169.786l-.617.2.081-.015c.009.024.769.208.733.2.52.155,1.035.334,1.549.506q1.767.593,3.512,1.245,3.3,1.233,6.5,2.695a92.3,92.3,0,0,1,12.117,6.566,30.647,30.647,0,0,1,8.687,7.962,23.737,23.737,0,0,1,3.925,11.784c.664,9.158-2.167,18.261-5.77,26.57a211.974,211.974,0,0,1-12.848,24.715A226.327,226.327,0,0,1,6.05,277.753a2.577,2.577,0,0,0,0,3.536,2.518,2.518,0,0,0,3.536,0c13.263-16.453,24.806-34.8,32.773-54.424,3.931-9.679,6.681-20.591,4.412-31.023a27.01,27.01,0,0,0-6.949-12.988,49.5,49.5,0,0,0-11.659-8.543A111.175,111.175,0,0,0,11.495,166.7c-2.581-.934-6.465-2.936-8.869-.635-2.314,2.216-.18,6.91,3.135,5.76a2.56,2.56,0,0,0,1.746-3.075A2.523,2.523,0,0,0,4.432,167"/></g></g></svg>