<svg xmlns="http://www.w3.org/2000/svg" xmlns:xlink="http://www.w3.org/1999/xlink" width="301.887" height="293.07" viewBox="0 0 301.887 293.07"><defs><style>.a{fill:none;}.b{clip-path:url(#a);}.c{fill:#fff;}</style><clipPath id="a"><rect class="a" width="301.887" height="293.07" transform="translate(99.109 446.856)"/></clipPath></defs><g transform="translate(-99.109 -446.856)"><g class="b"><path class="c" d="M150.673,423.511a291.953,291.953,0,0,1-29.175,36.23A301.291,301.291,0,0,1,86.877,491.11c-12.085,9.344-24.947,17.4-38.049,25.219-12.207,7.283-24.675,14.852-34.475,25.3A60.08,60.08,0,0,0,2.5,559.39c-2.92,7.012-3.945,15.686.642,22.259,3.931,5.631,10.483,8.433,17.152,9.1,7.568.761,14.994-1.817,21.48-5.544,7.087-4.072,13.449-9.431,19.809-14.527Q71.161,563,80.467,554.994c12.529-10.75,24.739-21.864,36.83-33.1,12.037-11.188,23.958-22.5,35.972-33.711,12.057-11.252,24.211-22.4,36.664-33.221,12.348-10.724,24.989-21.125,38.1-30.912A233.858,233.858,0,0,1,248.31,409.9c6.478-3.841,14.328-7.46,22.063-6.153,6.654,1.124,11.736,5.607,14.642,11.575,3.229,6.633,2.977,14.218,1.079,21.195-2.134,7.845-6.077,15.145-10.263,22.068A170.157,170.157,0,0,1,262.8,477.126c-9.8,12.187-20.928,23.231-32.378,33.853-11.506,10.675-23.4,20.919-34.86,31.649a310.863,310.863,0,0,0-31.677,33.686c-9.436,11.93-17.608,24.838-23.24,39.009-2.6,6.537-5.064,13.57-5.785,20.6-.568,5.534.121,11.864,3.192,16.636a13.085,13.085,0,0,0,6.294,5.276,14.013,14.013,0,0,0,10.282-.514,126.456,126.456,0,0,0,11.784-6.1l12.324-6.638,24.648-13.277,12.324-6.638a121.249,121.249,0,0,1,11.083-5.677c5.8-2.391,13.872-3.9,17.554,2.64,3.156,5.6,1.607,12.984.342,18.891-3.486,16.274-10.147,31.652-13.912,47.852-1.781,7.664-3.176,15.833-2.67,23.729.387,6.047,2.447,13.271,8.354,16.138,7.276,3.532,15.262-1.361,21.329-5.269a81.919,81.919,0,0,0,15.093-12.531c9.028-9.533,15.7-20.971,20.66-33.07a169.3,169.3,0,0,0,10.3-38.527c2.289-14.888,2.9-29.948,3.583-44.976.732-16.231,1.432-32.537,4.09-48.591,2.593-15.656,7.035-31.309,15.061-45.1,6.914-11.882,17.508-22.9,31.744-24.859a29.794,29.794,0,0,1,18.039,2.874c6.123,3.315,9.752,9.133,11.4,15.778,1.815,7.3,1.64,15.134.864,22.562a113.521,113.521,0,0,1-5.049,22.831c-4.945,15.4-12.27,29.9-19.355,44.395-7.348,15.039-14.191,30.246-19.409,46.173a290.331,290.331,0,0,0-14.156,100.487c.306,8.132.677,16.456,2.129,24.478,1.28,7.071,4.469,14.1,11.132,17.557,6.2,3.221,13.505,2.69,19.99.654,7.021-2.2,13.242-6.037,19.147-10.342a174.676,174.676,0,0,0,32.991-31.3,169.613,169.613,0,0,0,22.912-37.126,2.576,2.576,0,0,0-.9-3.42,2.519,2.519,0,0,0-3.42.9A165.267,165.267,0,0,1,411.23,729.5,169.96,169.96,0,0,1,378.2,760.116c-5.686,4-11.854,7.467-18.694,9-5.995,1.345-12.564.774-16.968-3.934-4.72-5.046-5.269-12.8-5.877-19.329q-1.17-12.571-1.205-25.213a282.344,282.344,0,0,1,4.344-50.274,287.242,287.242,0,0,1,13.206-48.814c5.663-15.39,13.005-30,20.15-44.731,6.986-14.405,13.792-29.109,17.7-44.7a104.285,104.285,0,0,0,3.258-23.615c.12-7.63-.618-15.47-3.866-22.466a27.053,27.053,0,0,0-14.891-13.782,36.289,36.289,0,0,0-19.767-1.534c-14.478,2.681-25.55,13.883-32.835,26.082-8.185,13.706-12.93,29.358-15.7,45-2.846,16.1-3.739,32.446-4.486,48.748-.685,14.959-1.108,30-3.24,44.846a173.969,173.969,0,0,1-9.7,38.345c-4.586,11.8-10.969,23.083-19.588,32.409a76.762,76.762,0,0,1-14.341,12.214,54.725,54.725,0,0,1-8.93,4.97c-3.019,1.24-6.566,1.784-9.206-.246-4.579-3.523-4.687-10.927-4.463-16.271a105.436,105.436,0,0,1,4.19-23.75c4.38-15.744,11.045-31.086,13.341-47.353.919-6.506.78-13.879-3.763-19.1-5.308-6.1-13.99-5.352-20.828-2.681a101.643,101.643,0,0,0-11.1,5.467l-12.324,6.638L178.192,639.2l-12.324,6.639c-3.908,2.1-7.77,4.36-11.769,6.285a12.688,12.688,0,0,1-5.38,1.483,8.213,8.213,0,0,1-3.038-.6,8.8,8.8,0,0,1-4.233-4.631c-2.1-4.4-2.187-10.441-1.114-15.261a108.361,108.361,0,0,1,6.986-20.841c6.138-13.645,14.663-26.107,24.266-37.535a354.885,354.885,0,0,1,32.221-32.94c11.547-10.586,23.4-20.838,34.769-31.616,11.267-10.679,22.057-21.891,31.462-34.265a164.258,164.258,0,0,0,12.6-19.093c4.046-7.225,7.782-14.941,9.21-23.163,1.3-7.47.613-15.073-3.007-21.821a24.782,24.782,0,0,0-15.9-12.67c-8.165-1.891-16.43.7-23.66,4.459s-13.835,8.779-20.394,13.6c-13.236,9.718-26.018,20.044-38.479,30.734-12.4,10.643-24.5,21.643-36.47,32.767-12.038,11.185-23.958,22.5-35.97,33.709C106.009,525.6,93.957,536.67,81.616,547.41q-9.259,8.058-18.755,15.838c-6.21,5.072-12.43,10.253-19.061,14.773-6.024,4.1-12.916,7.757-20.375,7.865-5.7.083-12.02-1.723-15.683-6.363-4.674-5.92-2.69-14.333.376-20.493a60.6,60.6,0,0,1,11.965-16.106c10.045-9.875,22.4-17,34.427-24.158a349.923,349.923,0,0,0,38.141-25.872,302.668,302.668,0,0,0,34.387-31.758,300.177,300.177,0,0,0,27.952-35.1c1.816-2.667-2.515-5.171-4.317-2.524"/><path class="c" d="M88.452,607.1c-2.02,16.659-4.083,34.267,1.733,50.433,4.9,13.634,14.961,25.3,29.238,29.332,15.28,4.309,31.726-.084,45.736-6.513,3.1-1.421,6.924-3.456,10.353-1.93,2.025.9,3.447,3.174,4.212,5.45a27.5,27.5,0,0,1,1.221,8.813c.026,4.454-.192,8.906-.477,13.35-1.028,16.036-3,32.8,2.731,48.228,4.564,12.29,13.483,23.513,26.47,27.321,15.074,4.419,30.507-2.434,42.091-11.891,11.912-9.724,20.036-23.082,30.321-34.349a90.894,90.894,0,0,1,8.236-8.032c2.529-2.148,6-5.241,9.587-4.852,2.665.289,3.7,2.518,4.189,4.942.6,2.966.182,6.23.019,9.293a133.49,133.49,0,0,0,1.252,26.251,130.438,130.438,0,0,0,2.521,12.83c.871,3.493,1.94,6.844,4.253,9.674a8.3,8.3,0,0,0,8.537,3.149c3.119-.785,1.8-5.608-1.329-4.821a2.648,2.648,0,0,1-2.449-.6,9.627,9.627,0,0,1-2.466-3.342,23.006,23.006,0,0,1-1.55-4.7q-.794-3.113-1.433-6.262a126.929,126.929,0,0,1-2.52-25.535c.008-3.868.386-7.712.453-11.574a19.727,19.727,0,0,0-1.669-9.191,9.335,9.335,0,0,0-8.008-5.125c-4.059-.171-7.74,2.192-10.8,4.592-12.081,9.469-20.377,22.616-30.408,34.033-9.347,10.639-21.935,20.772-36.645,21.8a30.08,30.08,0,0,1-18.727-4.793,37.805,37.805,0,0,1-11.96-13.367,53.581,53.581,0,0,1-6.021-17.819c-1.326-8.461-.913-17.163-.366-25.672.551-8.572,1.543-17.252,1.121-25.851-.286-5.823-1.929-12.863-7.385-16-3.382-1.948-7.383-1.728-10.958-.448-3.738,1.338-7.258,3.242-10.976,4.646a71.579,71.579,0,0,1-22.154,4.935,39.824,39.824,0,0,1-21.138-4.523,38.566,38.566,0,0,1-13.944-13.749c-8.322-13.615-8.7-29.867-7.307-45.319.387-4.28.9-8.548,1.418-12.814a2.514,2.514,0,0,0-2.5-2.5,2.562,2.562,0,0,0-2.5,2.5"/><path class="c" d="M369.254,497.153c-2.866-4.535-8.7-5.848-13.677-4.527-5.643,1.5-9.565,6.324-12.6,11.014a119.917,119.917,0,0,0-15.334,35.16c-1.377,5.369-2.549,11.072-1.325,16.588,1.244,5.6,6.1,11.443,12.414,9.882,2.832-.7,5.516-2.554,7.865-4.223a51.66,51.66,0,0,0,6.621-5.571,54.325,54.325,0,0,0,9.926-13.711c6.6-12.976,7.764-27.837,5.471-42.052a2.52,2.52,0,0,0-3.076-1.746,2.56,2.56,0,0,0-1.746,3.075c1.824,11.3,1.156,23.12-3.01,33.852A48.4,48.4,0,0,1,343.106,557.4c-1.036.7-2.1,1.356-3.191,1.961a6.77,6.77,0,0,1-3.5,1.2c-2-.134-3.506-2.153-4.35-3.785-1.977-3.825-1.367-8.7-.523-12.741a112.323,112.323,0,0,1,12.1-31.787c2.625-4.681,5.517-10.323,10.145-13.344,3.251-2.122,8.843-2.871,11.148.777,1.714,2.713,6.043.207,4.317-2.524"/><path class="c" d="M312.338,436.684A222.621,222.621,0,0,1,284.6,474.629c-10.63,11.972-22.082,23.177-33.551,34.335-11.536,11.224-23.126,22.414-33.977,34.309-10.708,11.738-20.73,24.2-28.985,37.8-2.105,3.469-4.788,8.131-1.486,11.791,2.8,3.1,7.545,2.132,10.976.877,7.949-2.906,14.943-7.668,21.356-13.121,6.348-5.4,12-11.513,18.114-17.156,2.607-2.406,5.754-4.281,9.154-2.255,3.054,1.819,4.643,5.321,4.952,8.753.432,4.779-.682,9.613-.049,14.368a7.2,7.2,0,0,0,3.24,5.486,7.047,7.047,0,0,0,5.716.462c4.044-1.326,6.814-4.821,8.883-8.372a45.689,45.689,0,0,0,4.514-11.6c1.023-3.954,1.731-7.98,2.572-11.974a120.31,120.31,0,0,1,3.4-12.7,153.864,153.864,0,0,1,10.789-24.663c4.3-8.02,9.11-15.756,14.1-23.359s10.076-15.139,15.32-22.558c9.92-14.037,22-27.887,39.009-33.064a42.363,42.363,0,0,1,12.01-1.879c3.215-.028,3.223-5.028,0-5-17.707.155-33.186,10.618-44.522,23.492-5.981,6.792-11.115,14.27-16.206,21.735-5.053,7.409-10.1,14.827-14.864,22.426-9.468,15.1-17.951,31.122-22.5,48.448-2.09,7.954-2.891,16.3-5.912,23.994-1.263,3.214-3.166,7.007-5.972,9.154-.884.677-2.544,1.631-3.533,1.287-1.431-.5-1.205-2.932-1.2-4.093.02-4.883.776-9.744-.23-14.585a15.813,15.813,0,0,0-6.41-9.7,10.961,10.961,0,0,0-11.574-.537c-3.633,1.959-6.535,5.4-9.448,8.261-5.764,5.661-11.525,11.433-18.073,16.2a63.8,63.8,0,0,1-10.465,6.271,36.823,36.823,0,0,1-5.293,2.061c-1.169.339-2.913.724-3.884.175-1.143-.646-.227-2.5.268-3.439.9-1.7,1.957-3.33,2.978-4.958q3.118-4.971,6.534-9.745c4.507-6.318,9.371-12.371,14.452-18.236,10.31-11.9,21.488-23,32.75-33.987,11.388-11.109,22.9-22.11,33.776-33.724,10.729-11.453,20.871-23.543,29.438-36.716q3.093-4.754,5.885-9.692c1.586-2.8-2.732-5.328-4.317-2.524"/><path class="c" d="M410.217,584.483a161.114,161.114,0,0,0-26.954,37.152,115.721,115.721,0,0,0-12.875,43.094,90.564,90.564,0,0,0,5.617,39.785,82.742,82.742,0,0,0,22.513,32.956,63.182,63.182,0,0,0,17.23,11.077c6.1,2.5,13.441,3.685,19.593.719a14.366,14.366,0,0,0,3.975-2.917c2.251-2.3-1.281-5.842-3.535-3.535-4.176,4.273-10.736,3.573-15.955,1.912-5.838-1.858-11.249-5.426-15.969-9.272a76.98,76.98,0,0,1-22.091-29.915,86.4,86.4,0,0,1-6.625-36.962,105.794,105.794,0,0,1,10.615-40.742,150.822,150.822,0,0,1,24.319-35.859q1.809-2.006,3.678-3.957c2.223-2.327-1.308-5.868-3.536-3.536"/><path class="c" d="M72.663,604.937c7.061-14.683,24.14-20.581,37.914-27.519,7.411-3.733,14.792-7.964,20.648-13.936,6.873-7.01,10.534-16.106,14.82-24.758a58.481,58.481,0,0,1,7.461-12.1,40.033,40.033,0,0,1,12.041-9.248c4.8-2.553,9.84-4.612,14.681-7.08a123.933,123.933,0,0,0,12.885-7.589c16.547-11.129,30.2-25.86,41.879-41.92,11.8-16.235,21.6-33.816,31-51.518q1.7-3.2,3.383-6.406c1.5-2.846-2.817-5.376-4.317-2.524-9.323,17.725-18.843,35.413-30.174,51.956-11.04,16.119-23.983,31.3-39.794,42.927a127.087,127.087,0,0,1-12.458,8.1c-4.523,2.573-9.233,4.735-13.941,6.939a66.774,66.774,0,0,0-14.191,8.375,42.8,42.8,0,0,0-9.5,11.47c-4.956,8.34-8,17.742-13.73,25.637-4.831,6.661-11.764,11.243-18.906,15.112-14.185,7.683-31.324,12.967-41.115,26.64a32.887,32.887,0,0,0-2.9,4.916,2.567,2.567,0,0,0,.9,3.421,2.522,2.522,0,0,0,3.42-.9"/><path class="c" d="M78.206,703.373c14.5,8.508,28.809,17.641,41.156,29.141,11.982,11.158,22.048,24.691,27.1,40.41a64.841,64.841,0,0,1,2.956,26.708,2.516,2.516,0,0,0,2.5,2.5,2.556,2.556,0,0,0,2.5-2.5c1.781-16.88-3.6-33.8-12.513-48.01-9.23-14.719-22.239-26.557-36.256-36.624-8.015-5.756-16.415-10.952-24.922-15.942-2.782-1.632-5.3,2.688-2.524,4.317"/></g></g></svg>