<svg xmlns="http://www.w3.org/2000/svg" xmlns:xlink="http://www.w3.org/1999/xlink" width="894.857" height="595.674" viewBox="0 0 894.857 595.674"><defs><style>.a{fill:none;}.b{clip-path:url(#a);}.c{fill:#1a1818;}.d{fill:#fff;}</style><clipPath id="a"><rect class="a" width="894.857" height="595.674"/></clipPath></defs><g class="b"><path class="c" d="M790.685,871.433H272.876c-7.157,0-13.4-3.367-16.189-8.339-2.879-5.126-8.332-9.233-15.139-11.4-6.6-2.1-11.073-6.814-11.073-12.219V827.266c0-5.406,4.472-10.117,11.073-12.219,6.807-2.168,12.26-6.275,15.139-11.4,2.793-4.972,9.031-8.339,16.189-8.339H790.685c7.157,0,13.4,3.367,16.188,8.339,2.879,5.125,8.333,9.233,15.14,11.4,6.6,2.1,11.073,6.814,11.073,12.219v12.208c0,5.406-4.472,10.117-11.073,12.219-6.807,2.168-12.26,6.275-15.14,11.4-2.792,4.972-9.031,8.339-16.188,8.339" transform="translate(-84.352 -275.759)"/><path class="c" d="M15.832,381.085c-.462-36.139,4.4-78.644,12.047-121.677C13.046,245.859,2.618,227.271.068,209.47c-1.158-8.5,12.978,5.847,12.978,13.549s3.944,16.2,9.506,22.051c1.619,1.586,3.708,4.509,6.72,7.7C51.521,134.289,95.1,12.623,110.155.4c4.17-3.452,26.654,16.473,21.327,18.6-5.8,2.384-12.283,5.308-19,19.915-25.5,54.727-53.307,127.514-68.836,225.813a46.307,46.307,0,0,0,4.866,2.654c33.138-108.656,90.85-251.575,143-251.575,29.2,0,39.4,28.7,39.4,51.534,0,70.133-59.33,214.119-151.8,214.119a66.259,66.259,0,0,1-26.653-5.847c-4.64,16.214-8.583,32.148-11.821,47.025-3.247,14.607-7.651,52.861-7.417,72.527,0,7.7-17.383-7.713-17.383-14.079m22.71-79.431c2.315-9.04,5.1-18.868,8.113-28.7-1.393-.8-2.786-1.6-3.944-2.385q-2.428,15.132-4.169,31.081m15.764-32.148A48.781,48.781,0,0,0,70.3,272.16c85.514,0,148.553-149.823,148.553-218.1,0-15.674-5.562-27.627-19.463-27.627-49.825,0-111.941,129.379-145.079,243.073" transform="translate(0 0)"/><path class="c" d="M291.991,375.275c2.551-8.77,29.43-102.809,29.43-122.2,0-6.636,16.461,8.241,14.606,15.674s-33.608,107.329-25.957,94.837,42.183-73.315,57.241-72.786c9.732.269,12.056,20.454,15.53,30.282,1.157,2.923,2.549,5.048,3.943,5.318,11.585,2.125,43.566-27.628,48.432-32.407s7.417.788,3.012,5.038S404.168,337.021,394.2,337.55c-11.124.529-17.618-9.828-21.092-19.4-2.785-7.962-3.708-15.136-7.19-14.877-17.374,2.126-55.387,81.557-59.1,91.924s-17.383-11.165-14.833-19.925" transform="translate(-106.751 -87.172)"/><path class="c" d="M472.652,376.619c.235-10.1,2.315-21.252,5.328-31.888a37.5,37.5,0,0,1-11.812-27.888c0-36.128,31.284-60.035,55.849-60.035,13.675,0,25.034,11.155,25.034,27.358,0,19.127-7.416,45.428-17.157,68.277,22.484-3.462,51.453-20.724,68.6-53.67,1.393-2.654,7.886.8,5.8,3.991-10.889,17.53-41.025,51.8-77.175,55.784-11.36,23.647-25.034,42.235-35.227,42.235s-19.472-13.549-19.238-24.166m26.418-27.1a69.327,69.327,0,0,0,22.945,3.452h1.393c9.732-21.781,17.383-48.88,17.383-72.257,0-10.9-5.8-17.8-13.675-17.8-27.35,0-48.206,45.7-48.206,60.035a29.177,29.177,0,0,0,2.315,11.693c8.574-23.377,20.856-42.245,26.192-42.245,8.339,0,12.282,7.972,10.193,12.223-5.789,12.492-12.978,29.224-18.541,44.9m-2.08,6.106c-7.19,20.993-11.124,38.523-5.1,38.523,7.416,0,19-14.617,28.968-35.331H520.4c-9.044,0-16.922-1.067-23.407-3.193" transform="translate(-170.613 -89.044)"/><path class="c" d="M473.1,532.507c0-46.216,67.678-122.465,124.458-176.653a432.173,432.173,0,0,0,2.777-48.082,272.632,272.632,0,0,0-4.631-51.8c-1.393-6.645,14.362,2.125,16.912,13.28,2.325,10.367,2.786,42.235,1.158,71.2,28.743-26.57,52.149-45.7,57.946-48.88,2.777-1.6,11.351,3.452,8.574,5.049-11.359,6.365-37.552,26.83-67.217,53.659-.462,7.7-1.384,14.876-2.315,21.252-11.587,76.239-58.173,189.673-108,189.673-20.16,0-29.665-13.549-29.665-28.7M499.293,554.3c45.882,0,84.817-96.164,96.873-188.347C541.24,418.284,481.449,487.888,481.449,534.643c0,14.078,8.8,19.656,17.844,19.656m93.862-338.439c0-3.462-.7-23.118-.7-28.167-.235-5.308,14.833-.259,14.137,5.049-.7,5.048-5.1,20.983-5.8,24.974s-7.643,1.327-7.643-1.856" transform="translate(-173.151 -64.298)"/><path class="c" d="M780.888,375.838c0-39.581,30.588-91.384,55.848-91.384,11.124,0,17.157,6.375,17.157,15.944,0,12.482-12.517,31.34-25.27,31.34-7.642,0-11.351-5.308-15.059-10.626-10.663,18.069-19.237,42.5-19.237,65.623,0,12.223,4.866,20.185,14.6,20.185,25.261-.529,92.243-87.394,98.04-95.366,3.934-5.578,7.181,2.923,3.238,7.433-13.9,16.742-75.086,93.779-98.728,93.779-17.61,0-30.588-12.223-30.588-36.927m34.3-57.64c2.315,3.712,6.024,5.837,8.809,5.837,6.024,0,22.484-13.011,22.484-28.426,0-1.856-.7-3.452-2.785-3.452-7.878,0-18.776,10.367-28.508,26.041" transform="translate(-285.799 -98.63)"/><path class="c" d="M938.791,393.768c0-47.553,32.216-102.809,48.9-102.809s28.743,17,27.115,19.925-9.732-6.645-16.452-6.645C979.581,304.239,952,369.323,952,406.25c0,7.972,1.393,9.828,3.935,9.828,21.326,0,109.4-107.588,113.569-112.9,1.158-.529,5.327,1.6,3.708,3.722-27.115,35.061-98.04,116.349-114.03,116.349-10.663,0-20.395-15.405-20.395-29.484" transform="translate(-343.59 -100.885)"/><path class="c" d="M1020.538,420.56c1.619-73.854,31.058-191.27,56.545-277.337-46.814,6.106-108.46,16.463-148.788,30.012-3.708,1.327-9.967-13.549-3.012-15.405,25.5-6.376,97.57-15.944,153.889-21.781,13.213-43.572,25.025-78.374,31.284-93.779,1.628-3.981,8.113-2.923,16.225-1.058,7.878,1.856,15.764,5.578,14.833,9.3-.461,2.115-5.1,1.058-9.731,5.039-10.89,9.3-24.1,39.321-37.317,79.172,22.249-2.125,40.564-3.453,50.521-3.453,33.374,0,36.856,12.213,36.856,15.665,0,5.048-2.786,8.77-6.024,9.039-1.628,0-3.708-3.991-1.167-5.847,3.943-3.193,2.786-12.492-36.15-12.751-6.485,0-23.642,1.327-46.117,3.981-27.585,85.278-54,211.464-56.319,281.058-1.158,38.254,16.914,43.043,9.271,45.7-6.258,2.394-25.5-10.626-24.8-47.553" transform="translate(-337.499 -13.713)"/><path class="c" d="M1114.611,491.463c0-23.118,40.1-65.623,84.365-102.809-2.315-.529-4.866-1.327-7.417-2.125-11.82-4.251-27.811-15.944-27.811-30.551,0-27.359,25.722-51.8,38.013-62.7,3.012-2.384,4.17-4.251,4.4-6.9.234-2.125,1.854-3.981,5.336-5.847,10.428-5.308,22.945-12.752,28.272-12.752,6.259,0,10.89,12.752,5.1,15.146-21.552,8.77-71.848,54.458-71.848,77.037,0,9.3,15.294,11.424,28.272,15.944a73.514,73.514,0,0,1,9.044,3.722c34.531-27.9,69.759-51.275,89.683-58.978,1.628-.529,3.708,4.52,2.324,5.048-19.472,7.434-52.376,30.282-84.826,57.381,12.744,7.7,16.686,17,16.686,30.811,0,33.475-65.816,102.011-98.031,102.011-15.99,0-21.561-14.348-21.561-24.435m17.853,15.674c35.923-4.789,90.38-78.9,90.38-106.8,0-5.578-6.024-7.434-14.6-9.3-44.733,39.052-86.219,84.48-86.219,106.531,0,5.048,3.247,10.626,10.437,9.568" transform="translate(-407.939 -92.846)"/><path class="d" d="M436.255,853.22q0,1.075-.181,3.557h-.66q-.362,0-1.742-.082t-3.123-.083l-24.977-.124c-.682,0-1.021-.124-1.021-.373,0-.193.54-.315,1.625-.371a8.184,8.184,0,0,0,2.736-.353q.451-.268.451-1.551V830.59q0-1.529-.451-1.778a10.714,10.714,0,0,0-3.218-.249c-.764,0-1.144-.152-1.144-.455,0-.248.24-.373.721-.373h.542q1.987.126,7.881.125.539,0,2.106-.062t2.585-.063h.662c.723,0,1.082.138,1.082.415,0,.165-.11.268-.33.309s-.913.076-2.074.1-1.857.159-2.076.393a4.034,4.034,0,0,0-.33,2.171v24.41q1.623.041,4.51.04a67.412,67.412,0,0,0,9.926-.5q2.888-.5,3.911-1.862a6.949,6.949,0,0,0,1.2-3.682c.039-.357.269-.538.694-.538q.749,0,.692.62v3.6Z" transform="translate(-148.062 -287.003)"/><path class="d" d="M480.883,857.4q0,.416-.933,1.469a10.558,10.558,0,0,1-1.893,1.717,11.806,11.806,0,0,1-6.919,1.82,14.819,14.819,0,0,1-9.054-2.688,8.03,8.03,0,0,1-3.64-6.661,8.52,8.52,0,0,1,3.459-6.909,13.371,13.371,0,0,1,8.634-2.772,13.809,13.809,0,0,1,7.158,1.717,5.515,5.515,0,0,1,3.069,4.407,44.4,44.4,0,0,1-5.113.165h-4.212q-.42,0-7.219.124a12.015,12.015,0,0,0-.3,2.6,8.521,8.521,0,0,0,2.316,6.41,8.984,8.984,0,0,0,6.528,2.247,8.45,8.45,0,0,0,3.85-.744,10.546,10.546,0,0,0,3.128-2.855.775.775,0,0,1,.662-.331q.481,0,.481.289m-5.233-8.439Q475.41,844,470.476,844q-4.874,0-6.076,4.965Z" transform="translate(-167.787 -292.427)"/><path class="d" d="M523.432,860.05q0,.7-2.126,1.469a12.1,12.1,0,0,1-4.1.766q-4.132,0-4.309-2.938-2.275,3.062-7.063,3.061a7.864,7.864,0,0,1-4.25-1.054,3.126,3.126,0,0,1-1.674-2.71q0-3.391,5.9-5.378a44.621,44.621,0,0,1,7.034-1.324v-1.035a13.492,13.492,0,0,0-.542-4.8Q511.339,844,507.97,844a7.161,7.161,0,0,0-3.518.786,2.292,2.292,0,0,0-1.414,1.986q0,.331.753.331a2.073,2.073,0,0,1,1.353.5,1.439,1.439,0,0,1,.6,1.117q0,1.821-2.646,1.82a3.85,3.85,0,0,1-2.287-.64,1.934,1.934,0,0,1-.9-1.635,4,4,0,0,1,2.226-3.351,12.984,12.984,0,0,1,6.857-1.532q6.616,0,8.121,2.483a8.643,8.643,0,0,1,.542,3.765v7.735a21.975,21.975,0,0,0,.059,2.234,1.64,1.64,0,0,0,1.747,1.491,4.429,4.429,0,0,0,2.766-.828,1.82,1.82,0,0,1,.9-.455c.2,0,.3.082.3.248m-10.588-4.385v-3.021a19.264,19.264,0,0,0-6.374,1.842,3.426,3.426,0,0,0-1.927,3.041,2.633,2.633,0,0,0,1.1,2.172,4.375,4.375,0,0,0,2.759.847,4.921,4.921,0,0,0,4.09-1.986,6.449,6.449,0,0,0,.357-2.895" transform="translate(-182.963 -292.427)"/><path class="d" d="M554.451,846.318a1.88,1.88,0,0,1-.841,1.572,3.567,3.567,0,0,1-2.167.62,3.461,3.461,0,0,1-1.8-.433,1.269,1.269,0,0,1-.721-1.1,1.225,1.225,0,0,1,.54-.993q.542-.413.542-.579,0-.62-1.324-.62a3.648,3.648,0,0,0-2.888,1.44q-1.383,1.69-1.383,6.258v8.151a.587.587,0,0,0,.51.617,22.428,22.428,0,0,0,3.1.165c.441.056.66.165.66.331,0,.193-.26.289-.782.289H536.223q-.962,0-.962-.247c0-.166.26-.248.782-.248h.843a4.765,4.765,0,0,0,2.407-.333,4.831,4.831,0,0,0,.12-1.54V848.238q0-2.287-.992-2.642a10.9,10.9,0,0,0-3.159-.394c-.481,0-.721-.1-.721-.289s.2-.289.6-.289h.42q.905,0,1.806.061c.6.042.863.062.782.062a16.26,16.26,0,0,0,4.933-.869l.782-.247.481-.124a8.4,8.4,0,0,1,.242,1.986v.826A6.187,6.187,0,0,1,550,843.506a5.824,5.824,0,0,1,3.188.806,2.348,2.348,0,0,1,1.263,2.006" transform="translate(-195.637 -292.472)"/><path class="d" d="M595.67,861.685c0,.206-.3.309-.9.309H583.7c-.52,0-.782-.1-.782-.289q0-.2.332-.247t2.316-.082a1.138,1.138,0,0,0,1.5-1.568v-7.925q0-4.5-.481-5.366-1.024-1.857-4.09-1.857a7.339,7.339,0,0,0-5.052,1.815,1.89,1.89,0,0,0-.6,1.488v12.875q0,.5,1.285.538l1.835.041q.611,0,.611.289c0,.193-.24.289-.721.289H568.9c-.6,0-.9-.084-.9-.253s.359-.277,1.082-.325h1.5c.6,0,.963-.1,1.085-.289l.181-.62v-8.994a51.437,51.437,0,0,0-.122-5.2c-.079-.329-.581-.5-1.5-.5h-1.745c-.8,0-1.2-.1-1.2-.308q0-.394,1.263-.395a23.273,23.273,0,0,0,3.911-.455,9.16,9.16,0,0,0,2.946-.953,1.851,1.851,0,0,1,.843-.331q.42,0,.42.786v1.986a11.7,11.7,0,0,1,8.061-2.772q4.332,0,6.257,2.194,1.081,1.24,1.082,4.716v9.432q0,1.324.181,1.448a3.745,3.745,0,0,0,1.744.249h1.082q.6,0,.6.268" transform="translate(-207.618 -292.427)"/><path class="d" d="M627.831,856.7q0,.372-1.023.372.061,0-1.444-.082-1.8-.083-3.007-.084H616.1a1.473,1.473,0,0,1-.72.166c-.443,0-.663-.1-.663-.306q0-.438,1.2-.438a7.889,7.889,0,0,0,2.5-.229c.14-.124.212-.7.212-1.717V841.849a5.006,5.006,0,0,0-.151-1.22q-.092-.187-.753-.187h-2.345c-.443,0-.663-.1-.663-.289,0-.169.335-.266,1.008-.291a19.518,19.518,0,0,0,6.826-1.288l.595-.242a3.921,3.921,0,0,1,.474,2.27v13.292a10.92,10.92,0,0,0,.091,1.939c.061.193.271.317.632.372a15.774,15.774,0,0,0,2.646.165q.844,0,.843.331m-4.512-25.773q0,1.86-2.707,1.862a3.409,3.409,0,0,1-1.925-.518,1.5,1.5,0,0,1-.782-1.261q0-1.944,2.707-1.945t2.707,1.863" transform="translate(-224.981 -287.464)"/><path class="d" d="M665.882,861.685c0,.206-.3.309-.9.309H653.909c-.52,0-.782-.1-.782-.289q0-.2.332-.247t2.316-.082a1.137,1.137,0,0,0,1.5-1.568v-7.925q0-4.5-.481-5.366-1.024-1.857-4.09-1.857a7.338,7.338,0,0,0-5.052,1.815,1.89,1.89,0,0,0-.6,1.488v12.875q0,.5,1.285.538l1.835.041q.61,0,.61.289c0,.193-.24.289-.721.289h-10.95c-.6,0-.9-.084-.9-.253s.359-.277,1.082-.325h1.5c.6,0,.962-.1,1.085-.289l.181-.62v-8.994a51.426,51.426,0,0,0-.122-5.2c-.079-.329-.581-.5-1.5-.5h-1.745c-.8,0-1.2-.1-1.2-.308q0-.394,1.263-.395a23.274,23.274,0,0,0,3.911-.455,9.165,9.165,0,0,0,2.946-.953,1.848,1.848,0,0,1,.843-.331q.42,0,.42.786v1.986a11.707,11.707,0,0,1,8.062-2.772q4.332,0,6.257,2.194,1.081,1.24,1.082,4.716v9.432q0,1.324.181,1.448a3.744,3.744,0,0,0,1.744.249h1.082q.6,0,.6.268" transform="translate(-233.315 -292.427)"/><path class="d" d="M711.832,845.818q0,1.9-2.467,1.9a3.037,3.037,0,0,1-1.532-.393q-.694-.392-.694-.889a1.345,1.345,0,0,1,.181-.517,1.342,1.342,0,0,0,.181-.559c0-.357-.28-.538-.843-.538a2.213,2.213,0,0,0-1.383.517,1.4,1.4,0,0,0-.662,1.055q0,.124.3,1.406a9.294,9.294,0,0,1,.3,1.945,5.57,5.57,0,0,1-2.827,4.716,12.334,12.334,0,0,1-7.038,1.9,22.876,22.876,0,0,1-3.97-.62,6.444,6.444,0,0,0-1.023-.165,3.943,3.943,0,0,0-2.284.7,1.933,1.933,0,0,0-1.024,1.531q0,2.152,3.789,2.153a45.078,45.078,0,0,0,4.632-.373,39,39,0,0,1,4.512-.289,10.644,10.644,0,0,1,5.746,1.324,4.144,4.144,0,0,1,2.074,3.681q0,3.557-4.422,5.915a23.549,23.549,0,0,1-11.158,2.359,18.269,18.269,0,0,1-7.852-1.386q-2.857-1.387-2.856-3.827,0-2.357,2.646-3.557a18.475,18.475,0,0,1,4.212-1.035q-4.274-1.158-4.273-3.558,0-2.979,5.536-4.137-3.61-1.944-3.611-5.129a5.472,5.472,0,0,1,2.767-4.778,13.148,13.148,0,0,1,7.28-1.8,14.451,14.451,0,0,1,4,.455,13.828,13.828,0,0,1,3.579,1.821,6.424,6.424,0,0,1,4.751-1.945q3.43,0,3.43,2.11m-6.557,19.941q0-3.434-5.877-3.434a47.426,47.426,0,0,0-4.946.373,47.363,47.363,0,0,1-4.888.371q-3.06,1.119-3.059,3.931a3.837,3.837,0,0,0,2.189,3.392,11.381,11.381,0,0,0,5.786,1.282,15.723,15.723,0,0,0,7.676-1.717q3.118-1.716,3.118-4.2m-4.632-15.845q0-6-4.813-6-4.69,0-4.693,5.584,0,6.289,4.994,6.288,4.511,0,4.512-5.875" transform="translate(-249.429 -292.427)"/><path class="d" d="M779.549,835.141c0,.359-.24.538-.721.538s-.822-.357-1.023-1.075c-.082-.5-.16-.993-.24-1.49a6.083,6.083,0,0,0-1.385-2.523,6.661,6.661,0,0,0-4.151-1.737,19,19,0,0,0-3.007-.207q-2.827.057-3.427.082v24.985a1.719,1.719,0,0,0,1.141,1.864,15.726,15.726,0,0,0,3.369.249c.481.026.723.143.723.351q0,.352-.963.353a7.7,7.7,0,0,1-.843-.042q-3.61-.081-5.113-.082-1.987,0-3.73.062t-4.451.063c-.922,0-1.383-.112-1.383-.333q0-.372,2.587-.413a3.633,3.633,0,0,0,2.406-.54,2.957,2.957,0,0,0,.3-1.7V828.728a42.847,42.847,0,0,0-7.4.415,5.686,5.686,0,0,0-4.451,5.087c-.12.828-.4,1.242-.843,1.242q-.722,0-.721-.869a6.886,6.886,0,0,1,.059-.911l.12-.951q.183-1.9.542-5.006h2.707l12.271.124q2.167.042,6.738,0l9.987-.124q.119,2.318.782,6.868a1.046,1.046,0,0,0,.061.311,1.254,1.254,0,0,1,.059.227" transform="translate(-273.112 -287.004)"/><path class="d" d="M830.4,860.77q0,.289-1.322.331a29.88,29.88,0,0,0-8.243,1.406,1.326,1.326,0,0,1-.42.082c-.242,0-.361-.11-.361-.331v-2.317q-2.746,2.648-7.7,2.648-4.417,0-6.327-1.766a3,3,0,0,1-.926-1.355,20.654,20.654,0,0,1-.149-3.328v-9.407a3.232,3.232,0,0,0-.24-1.686,3.1,3.1,0,0,0-1.625-.287h-.782q-1.624.083-1.624-.331,0-.289,1.023-.289,1.081,0,3.128.11c.682.037,1.082.054,1.2.054q2.1,0,3.909-.165v11.488a9.569,9.569,0,0,0,.6,4.2q.962,1.606,3.911,1.606a5.756,5.756,0,0,0,4.693-1.812,6.594,6.594,0,0,0,1.082-4.2v-6.381a9.081,9.081,0,0,0-.181-2.1v-1.359c-.041-.41-.172-.651-.391-.72a5.6,5.6,0,0,0-1.353-.1q-2.529.042-2.527-.37,0-.247,1.264-.247h8.181v11.542a22.988,22.988,0,0,0,.179,3.765,1.073,1.073,0,0,0,.919.911,27.278,27.278,0,0,0,3.362.123c.475,0,.712.1.712.291" transform="translate(-293.045 -292.691)"/><path class="d" d="M865.143,857.911q0,.373-1.505,1.324a11.354,11.354,0,0,1-6.134,1.613,8.846,8.846,0,0,1-4.994-1.155q-.962-.66-.962-3.88v-12.3q-.061-.413-.662-.454H848.6q-1.322,0-1.322-.289t.657-.331a10.292,10.292,0,0,0,7.292-3.181,1.187,1.187,0,0,1,.9-.378c.278,0,.418.1.418.291v.869a6.348,6.348,0,0,0,.24,2.233,13.462,13.462,0,0,0,1.806.084,29,29,0,0,0,4.392-.208,2.64,2.64,0,0,1,.42-.04c.321,0,.481.118.481.355q0,.6-4.874.6h-2.465v7.654a36.137,36.137,0,0,0,.42,7.26q.42,1.469,2.768,1.469a8.654,8.654,0,0,0,4.451-1.531.816.816,0,0,1,.542-.206c.28,0,.42.07.42.206" transform="translate(-310.097 -290.868)"/><path class="d" d="M901.8,852.975a8.174,8.174,0,0,1-3.55,6.723,14.156,14.156,0,0,1-8.844,2.708,14.982,14.982,0,0,1-9.144-2.708,8.1,8.1,0,0,1-3.669-6.723,8.312,8.312,0,0,1,3.579-6.866,14.294,14.294,0,0,1,8.934-2.732,14.586,14.586,0,0,1,9.054,2.752,8.293,8.293,0,0,1,3.64,6.846m-5.475-.04a10.961,10.961,0,0,0-2.045-7.075Q892.776,844,889.227,844a6.35,6.35,0,0,0-5.262,2.379,10.333,10.333,0,0,0-1.9,6.6,9.651,9.651,0,0,0,2.016,6.515,7.025,7.025,0,0,0,5.624,2.339,5.288,5.288,0,0,0,4.092-1.448,10.541,10.541,0,0,0,2.526-7.446" transform="translate(-320.826 -292.427)"/><path class="d" d="M939.678,846.318a1.88,1.88,0,0,1-.841,1.572,3.566,3.566,0,0,1-2.167.62,3.462,3.462,0,0,1-1.805-.433,1.27,1.27,0,0,1-.721-1.1,1.225,1.225,0,0,1,.54-.993q.542-.413.542-.579,0-.62-1.324-.62a3.647,3.647,0,0,0-2.888,1.44q-1.383,1.69-1.383,6.258v8.151a.587.587,0,0,0,.51.617,22.426,22.426,0,0,0,3.1.165c.441.056.66.165.66.331,0,.193-.26.289-.782.289H921.45q-.963,0-.963-.247c0-.166.26-.248.782-.248h.843a4.765,4.765,0,0,0,2.407-.333,4.832,4.832,0,0,0,.12-1.54V848.238q0-2.287-.992-2.642a10.9,10.9,0,0,0-3.159-.394c-.481,0-.721-.1-.721-.289s.2-.289.6-.289h.42q.905,0,1.806.061c.6.042.863.062.782.062a16.26,16.26,0,0,0,4.933-.869l.782-.247.481-.124a8.4,8.4,0,0,1,.242,1.986v.826a6.187,6.187,0,0,1,5.414-2.812,5.824,5.824,0,0,1,3.188.806,2.348,2.348,0,0,1,1.263,2.006" transform="translate(-336.627 -292.472)"/><path class="d" d="M966.659,856.7q0,.372-1.023.372.061,0-1.444-.082-1.8-.083-3.007-.084h-6.257a1.473,1.473,0,0,1-.72.166c-.443,0-.662-.1-.662-.306q0-.438,1.2-.438a7.89,7.89,0,0,0,2.5-.229c.14-.124.212-.7.212-1.717V841.849a4.992,4.992,0,0,0-.151-1.22q-.092-.187-.753-.187h-2.345c-.443,0-.662-.1-.662-.289,0-.169.335-.266,1.008-.291a19.518,19.518,0,0,0,6.826-1.288l.595-.242a3.921,3.921,0,0,1,.474,2.27v13.292a10.92,10.92,0,0,0,.091,1.939c.061.193.271.317.632.372a15.775,15.775,0,0,0,2.646.165c.562,0,.843.11.843.331m-4.512-25.773q0,1.86-2.707,1.862a3.41,3.41,0,0,1-1.925-.518,1.5,1.5,0,0,1-.782-1.261q0-1.944,2.707-1.945t2.707,1.863" transform="translate(-348.99 -287.464)"/><path class="d" d="M1002.21,860.05q0,.7-2.126,1.469a12.1,12.1,0,0,1-4.1.766q-4.131,0-4.309-2.938-2.275,3.062-7.063,3.061a7.865,7.865,0,0,1-4.25-1.054,3.126,3.126,0,0,1-1.674-2.71q0-3.391,5.9-5.378a44.619,44.619,0,0,1,7.034-1.324v-1.035a13.491,13.491,0,0,0-.542-4.8Q990.117,844,986.748,844a7.161,7.161,0,0,0-3.518.786,2.292,2.292,0,0,0-1.414,1.986q0,.331.753.331a2.073,2.073,0,0,1,1.353.5,1.439,1.439,0,0,1,.6,1.117q0,1.821-2.646,1.82a3.85,3.85,0,0,1-2.287-.64,1.934,1.934,0,0,1-.9-1.635,4,4,0,0,1,2.226-3.351,12.984,12.984,0,0,1,6.857-1.532q6.616,0,8.121,2.483a8.644,8.644,0,0,1,.542,3.765v7.735a22.054,22.054,0,0,0,.059,2.234,1.64,1.64,0,0,0,1.747,1.491,4.429,4.429,0,0,0,2.766-.828,1.82,1.82,0,0,1,.9-.455c.2,0,.3.082.3.248m-10.588-4.385v-3.021a19.263,19.263,0,0,0-6.374,1.842,3.426,3.426,0,0,0-1.927,3.041,2.633,2.633,0,0,0,1.1,2.172,4.377,4.377,0,0,0,2.759.847,4.921,4.921,0,0,0,4.09-1.986,6.448,6.448,0,0,0,.357-2.895" transform="translate(-358.192 -292.427)"/><path class="d" d="M1026.621,855.914c0,.247-.262.371-.782.371h-.723q-.118,0-3.188-.082h-1.864q-.481,0-4.813.063c-.24.014-.482.02-.721.02-.6.028-.9-.088-.9-.347,0-.182.221-.272.662-.272h1.564q1.684,0,1.685-.5.058-.247.059-3.226V830.884a4.229,4.229,0,0,0-.12-1.488q-.18-.331-.962-.331h-2.165c-.563,0-.843-.118-.843-.353q0-.313,1.505-.351a20.427,20.427,0,0,0,5.353-.911l1.263-.413.481-.124a9.732,9.732,0,0,1,.422,3.641v23.209a9.382,9.382,0,0,0,.059,1.468c.041.153.181.257.422.311.039.028.782.056,2.226.082.922,0,1.383.1,1.383.291" transform="translate(-370.935 -286.718)"/></g></svg>