<svg xmlns="http://www.w3.org/2000/svg" xmlns:xlink="http://www.w3.org/1999/xlink" width="212.057" height="33.631" viewBox="0 0 212.057 33.631"><defs><style>.a{fill:none;}.b{clip-path:url(#a);}.c{fill:#1a1818;}.d{fill:#fff;}</style><clipPath id="a"><rect class="a" width="212.057" height="33.631"/></clipPath></defs><g transform="translate(0 0)"><g class="b" transform="translate(0 0)"><path class="c" d="M197.137,33.631H14.921a6.229,6.229,0,0,1-5.7-3.684A9.79,9.79,0,0,0,3.9,24.91a5.908,5.908,0,0,1-3.9-5.4V14.119a5.908,5.908,0,0,1,3.9-5.4A9.79,9.79,0,0,0,9.225,3.684,6.229,6.229,0,0,1,14.921,0H197.137a6.229,6.229,0,0,1,5.7,3.684,9.787,9.787,0,0,0,5.328,5.037,5.909,5.909,0,0,1,3.9,5.4v5.393a5.909,5.909,0,0,1-3.9,5.4,9.787,9.787,0,0,0-5.328,5.037,6.229,6.229,0,0,1-5.7,3.684" transform="translate(-0.001 0)"/><path class="d" d="M87.54,26.687c0,.114-.065.17-.2.17h-.5q-1-.041-1.134.337a9.759,9.759,0,0,0-.087,1.834V29.7a7.393,7.393,0,0,1-2.149,1.306A7.22,7.22,0,0,1,81,31.387a7.455,7.455,0,0,1-5.474-2,7.28,7.28,0,0,1-2.029-5.43,7.918,7.918,0,0,1,1.985-5.61,6.8,6.8,0,0,1,5.234-2.138,7.556,7.556,0,0,1,3.1.762,2.068,2.068,0,0,0,.829.232c.275,0,.458-.169.545-.508q.109-.3.262-.3a.152.152,0,0,1,.175.17q0,.063-.039.444-.114,1.207-.114,1.736v1.376q.022.741.022.656-.044.507-.284.508-.2,0-.218-.3a4.937,4.937,0,0,0-1.221-3.243,3.828,3.828,0,0,0-2.923-1.18,4.106,4.106,0,0,0-3.588,1.974,9.558,9.558,0,0,0-1.319,5.372,8.926,8.926,0,0,0,1.341,5.192,4.208,4.208,0,0,0,3.632,1.922,2.689,2.689,0,0,0,2.4-.969,3.332,3.332,0,0,0,.327-1.749q0-1.054-.207-1.243A2.84,2.84,0,0,0,82,26.9a1.461,1.461,0,0,1-.392-.032.13.13,0,0,1-.088-.136q0-.232.48-.232h.393q.327.022,2.312,0h2.4q.437,0,.437.19" transform="translate(-37.848 -8.762)"/><path class="d" d="M108.953,29.583a1.113,1.113,0,0,1-.3.8,1.042,1.042,0,0,1-.786.318.977.977,0,0,1-.655-.222.705.705,0,0,1-.261-.561.724.724,0,0,1,.2-.509c.132-.141.2-.239.2-.3,0-.211-.159-.317-.48-.317a1.24,1.24,0,0,0-1.046.737,7.01,7.01,0,0,0-.5,3.2v4.171a.291.291,0,0,0,.186.316,5.676,5.676,0,0,0,1.124.085c.159.028.239.085.239.17s-.095.148-.284.148h-4.231c-.233,0-.349-.042-.349-.127s.094-.128.283-.128h.306c.494,0,.785-.056.872-.17a3.406,3.406,0,0,0,.044-.787V30.565q0-1.17-.36-1.352a2.877,2.877,0,0,0-1.145-.2q-.262,0-.262-.148t.219-.148h.152c.219,0,.436.011.655.032a2.229,2.229,0,0,1,.283.032,4.383,4.383,0,0,0,1.789-.445l.283-.127.175-.063a5.932,5.932,0,0,1,.087,1.016v.423a2.157,2.157,0,0,1,1.963-1.439,1.66,1.66,0,0,1,1.156.413,1.326,1.326,0,0,1,.458,1.026" transform="translate(-52.392 -15.215)"/><path class="d" d="M126.9,36.584q0,.36-.771.752a3.282,3.282,0,0,1-1.486.391,1.392,1.392,0,0,1-1.563-1.5,2.712,2.712,0,0,1-2.56,1.567,2.23,2.23,0,0,1-1.54-.54,1.769,1.769,0,0,1-.608-1.386q0-1.736,2.139-2.753a12.121,12.121,0,0,1,2.55-.677V31.9a9.6,9.6,0,0,0-.2-2.455,1.485,1.485,0,0,0-1.57-1.08,2,2,0,0,0-1.276.4,1.24,1.24,0,0,0-.513,1.017c0,.113.091.17.273.17a.638.638,0,0,1,.49.254.857.857,0,0,1,.218.571.836.836,0,0,1-.959.931,1.118,1.118,0,0,1-.829-.328,1.131,1.131,0,0,1-.327-.836,2.223,2.223,0,0,1,.807-1.715,3.648,3.648,0,0,1,2.486-.783q2.4,0,2.945,1.27a6.106,6.106,0,0,1,.2,1.926v3.959q0,.974.022,1.143.108.761.632.762a1.308,1.308,0,0,0,1-.424c.146-.155.254-.232.327-.232s.11.043.11.127m-3.839-2.244V32.794a5.6,5.6,0,0,0-2.312.942,1.923,1.923,0,0,0-.7,1.556,1.579,1.579,0,0,0,.4,1.112,1.3,1.3,0,0,0,1,.434,1.669,1.669,0,0,0,1.483-1.016,4.555,4.555,0,0,0,.129-1.482" transform="translate(-60.961 -15.165)"/><path class="d" d="M144.507,32.836a5.187,5.187,0,0,1-1.237,3.535A3.915,3.915,0,0,1,140.2,37.79a2.66,2.66,0,0,1-2.233-1.016v4.932a2.392,2.392,0,0,0,.033.551c.022.057.092.106.21.148a8.342,8.342,0,0,0,1.281.063c.176,0,.264.064.264.191q0,.148-.283.148h-4.275q-.633,0-.632-.158c0-.135.087-.2.261-.2h.654q.632,0,.676-.275.022-.127.022-1.947V29.681a.484.484,0,0,0-.589-.55h-.916c-.13,0-.2-.052-.2-.158q0-.2.48-.2a4.108,4.108,0,0,0,2.182-.55.965.965,0,0,1,.436-.169.221.221,0,0,1,.229.158,5.083,5.083,0,0,1,.076.963,2.674,2.674,0,0,1,2.312-1.122A3.993,3.993,0,0,1,143.3,29.4a4.946,4.946,0,0,1,1.211,3.44m-1.942.011a6.839,6.839,0,0,0-.526-2.822,2.3,2.3,0,0,0-2.169-1.613,1.9,1.9,0,0,0-1.907,1.783q-.044.934.022,3.926.023,1.506.066,1.814a1.37,1.37,0,0,0,.285.626,1.951,1.951,0,0,0,1.644.87,1.872,1.872,0,0,0,1.709-.934,6.867,6.867,0,0,0,.877-3.65" transform="translate(-69.252 -15.165)"/><path class="d" d="M166.845,30.982q0,.17-.371.17H162.5q-.284,0-.284-.17,0-.147.829-.147.5,0,.578-.116a2.168,2.168,0,0,0,.077-.792V25.639a9.355,9.355,0,0,0-.175-2.387,1.558,1.558,0,0,0-1.636-.971,2.009,2.009,0,0,0-1.7.908,2.518,2.518,0,0,0-.218,1.309v5.386a4.881,4.881,0,0,0,.022.655q.022.211.175.243a8.41,8.41,0,0,0,.938.053q.262,0,.262.169c0,.1-.073.148-.218.148h-1.941q-1.811-.021-2.007,0h-.218c-.161,0-.241-.043-.241-.129s.08-.147.241-.147h.327l.327-.021q.5.021.524-.3V21.037a27.345,27.345,0,0,0-.11-3.668c-.087-.141-.444-.219-1.068-.233q-.524,0-.524-.157c0-.09.036-.142.109-.158s.32-.029.742-.045a5.147,5.147,0,0,0,2.138-.508,2.222,2.222,0,0,1,.305-.106,4.68,4.68,0,0,1,.153,1.63v5.186a3.041,3.041,0,0,1,2.617-1.355,3,3,0,0,1,2.487.932,2.489,2.489,0,0,1,.458,1.313,13.3,13.3,0,0,1,.044,1.418v5.335q.021.212,1.134.212c.131.028.2.078.2.148" transform="translate(-80.576 -8.737)"/><path class="d" d="M183.794,31.779q0,.19-.371.191.023,0-.523-.043-.655-.042-1.091-.042H179.54a.418.418,0,0,1-.262.085c-.16,0-.24-.052-.24-.157,0-.15.145-.225.436-.225a2.074,2.074,0,0,0,.905-.117,2.458,2.458,0,0,0,.077-.879V24.179a3.572,3.572,0,0,0-.055-.625c-.022-.063-.113-.1-.273-.1h-.851c-.16,0-.24-.05-.24-.148s.121-.136.366-.148a5.324,5.324,0,0,0,2.475-.66l.215-.124a2.71,2.71,0,0,1,.172,1.162v6.8a7.809,7.809,0,0,0,.032.993.26.26,0,0,0,.229.19,4.089,4.089,0,0,0,.96.085q.3,0,.305.17M182.158,18.59a.855.855,0,0,1-.982.952.984.984,0,0,1-.7-.264.848.848,0,0,1-.283-.646.873.873,0,0,1,.981-.995.855.855,0,0,1,.982.953" transform="translate(-92.203 -9.535)"/><path class="d" d="M198.581,30.232a.864.864,0,0,1-.982.974q-.96,0-.96-.889a1.866,1.866,0,0,1,.219-.7.728.728,0,0,0,.065-.3.809.809,0,0,0-.447-.7,2.112,2.112,0,0,0-1.124-.275,2.29,2.29,0,0,0-2.028,1.1,5.626,5.626,0,0,0-.719,3.091A6.687,6.687,0,0,0,193.346,36a2.327,2.327,0,0,0,2.094,1.217,2.623,2.623,0,0,0,1.636-.55,5.1,5.1,0,0,0,.85-.974.3.3,0,0,1,.2-.106q.218,0,.218.169,0,.276-.763,1.038a3.373,3.373,0,0,1-2.508.995,4.17,4.17,0,0,1-3.174-1.334,4.719,4.719,0,0,1-1.254-3.366,5.092,5.092,0,0,1,1.33-3.61,4.369,4.369,0,0,1,3.338-1.429,4.037,4.037,0,0,1,2.279.656,1.85,1.85,0,0,1,.992,1.524" transform="translate(-98.178 -15.165)"/><path class="d" d="M231.213,24.036a6.941,6.941,0,0,1-2.683,5.818,8.33,8.33,0,0,1-5.257,1.529h-5.911c-.277,0-.415-.071-.415-.212s.232-.19.7-.19q.894,0,1.113-.318a2.129,2.129,0,0,0,.087-.8V18.447a2.4,2.4,0,0,0-.163-1.207q-.164-.17-1.124-.17c-.334,0-.5-.078-.5-.233q0-.169.371-.169h3.8a20.2,20.2,0,0,1,5.562.531,5.919,5.919,0,0,1,3.206,2.516,7.75,7.75,0,0,1,1.221,4.321m-2.443-.085q0-3.525-1.418-5.17a5.535,5.535,0,0,0-4.428-1.646,3.076,3.076,0,0,0-1.766.3,2.137,2.137,0,0,0-.131,1.019v11.3a4.378,4.378,0,0,0,.032.723.346.346,0,0,0,.185.212,6.02,6.02,0,0,0,2.2.255,4.841,4.841,0,0,0,3.8-1.614q1.526-1.7,1.526-5.373" transform="translate(-111.725 -9.011)"/><path class="d" d="M257.733,35.229a1.844,1.844,0,0,1-.338.751,4.677,4.677,0,0,1-.688.879,3.4,3.4,0,0,1-2.508.932,4.361,4.361,0,0,1-3.283-1.376,4.732,4.732,0,0,1-1.32-3.408,5.145,5.145,0,0,1,1.254-3.535,4.008,4.008,0,0,1,3.13-1.419,3.9,3.9,0,0,1,2.6.879,3.008,3.008,0,0,1,1.112,2.255,11.465,11.465,0,0,1-1.854.085h-1.527q-.152,0-2.617.063a8.481,8.481,0,0,0-.11,1.329,5.491,5.491,0,0,0,.84,3.28,2.758,2.758,0,0,0,2.366,1.15,2.32,2.32,0,0,0,1.4-.382,4.668,4.668,0,0,0,1.134-1.46.265.265,0,0,1,.24-.169c.117,0,.175.049.175.148m-1.9-4.319q-.088-2.541-1.876-2.541-1.767,0-2.2,2.541Z" transform="translate(-128.539 -15.165)"/><path class="d" d="M276,34.467a2.754,2.754,0,0,1-.92,2.09,3.11,3.11,0,0,1-2.2.86,4.348,4.348,0,0,1-1.8-.508,1.1,1.1,0,0,0-.5-.148q-.3,0-.455.4c-.058.17-.137.254-.238.254s-.152-.057-.152-.17V34.41c0-.155.051-.233.153-.233s.181.079.2.235a3.117,3.117,0,0,0,.567,1.535,2.816,2.816,0,0,0,2.333,1.109,1.786,1.786,0,0,0,1.265-.446,1.546,1.546,0,0,0,.48-1.188,1.679,1.679,0,0,0-.545-1.316,2.373,2.373,0,0,0-.556-.393q-.252-.116-1.473-.562-2.421-.89-2.421-2.673a2.682,2.682,0,0,1,.823-1.995,2.791,2.791,0,0,1,2.034-.806,5.132,5.132,0,0,1,1.3.254,1.378,1.378,0,0,0,.389.064.521.521,0,0,0,.563-.423c.043-.141.109-.212.2-.212s.151.057.151.17v1.016a11.584,11.584,0,0,0,.11,1.63v.042a.152.152,0,0,1-.175.17q-.132,0-.327-.641a2.468,2.468,0,0,0-.84-1.239,2.187,2.187,0,0,0-1.385-.469,1.726,1.726,0,0,0-1.222.445,1.471,1.471,0,0,0-.48,1.125q0,1.06,1.461,1.612a10.275,10.275,0,0,1,2.879,1.442,2.39,2.39,0,0,1,.785,1.8" transform="translate(-138.914 -14.791)"/><path class="d" d="M289.654,31.779q0,.19-.371.191.023,0-.523-.043-.656-.042-1.091-.042H285.4a.418.418,0,0,1-.262.085c-.16,0-.24-.052-.24-.157,0-.15.145-.225.436-.225a2.074,2.074,0,0,0,.905-.117,2.459,2.459,0,0,0,.077-.879V24.179a3.575,3.575,0,0,0-.055-.625c-.022-.063-.113-.1-.273-.1h-.851c-.16,0-.24-.05-.24-.148s.121-.136.366-.148a5.324,5.324,0,0,0,2.475-.66l.215-.124a2.71,2.71,0,0,1,.172,1.162v6.8a7.8,7.8,0,0,0,.033.993.26.26,0,0,0,.229.19,4.089,4.089,0,0,0,.96.085q.3,0,.305.17M288.018,18.59a.855.855,0,0,1-.982.952.984.984,0,0,1-.7-.264.848.848,0,0,1-.283-.646.873.873,0,0,1,.981-.995.855.855,0,0,1,.982.953" transform="translate(-146.719 -9.535)"/><path class="d" d="M305.561,29.3q0,.974-.894.974a.866.866,0,0,1-.556-.2.578.578,0,0,1-.251-.455.9.9,0,0,1,.065-.265.889.889,0,0,0,.065-.286q0-.275-.305-.275a.685.685,0,0,0-.5.265.805.805,0,0,0-.24.54c0,.043.036.283.11.72a6.667,6.667,0,0,1,.109,1,3.193,3.193,0,0,1-1.025,2.413,3.56,3.56,0,0,1-2.552.974,6.061,6.061,0,0,1-1.44-.318,1.745,1.745,0,0,0-.37-.085,1.164,1.164,0,0,0-.829.36,1.08,1.08,0,0,0-.371.783q0,1.1,1.375,1.1a11.707,11.707,0,0,0,1.679-.19,10.079,10.079,0,0,1,1.636-.148,3,3,0,0,1,2.083.677,2.406,2.406,0,0,1,.753,1.884,3.655,3.655,0,0,1-1.6,3.028A6.545,6.545,0,0,1,298.45,43a4.981,4.981,0,0,1-2.846-.709,2.247,2.247,0,0,1-1.036-1.958,2.02,2.02,0,0,1,.96-1.821,5.164,5.164,0,0,1,1.526-.53q-1.549-.593-1.548-1.821,0-1.525,2.006-2.117a3.375,3.375,0,0,1-.305-5.07,3.749,3.749,0,0,1,2.639-.921,3.814,3.814,0,0,1,1.45.232,4.687,4.687,0,0,1,1.3.932,2.054,2.054,0,0,1,1.723-.995q1.243,0,1.243,1.08m-2.378,10.2q0-1.757-2.131-1.757a12.33,12.33,0,0,0-1.794.19,12.2,12.2,0,0,1-1.772.191,2.067,2.067,0,0,0-1.109,2.011,2.141,2.141,0,0,0,.794,1.736,3.189,3.189,0,0,0,2.1.656,4.4,4.4,0,0,0,2.783-.879,2.637,2.637,0,0,0,1.131-2.149M301.5,31.4q0-3.069-1.745-3.07-1.7,0-1.7,2.858,0,3.218,1.811,3.218,1.635,0,1.635-3.007" transform="translate(-151.699 -15.165)"/><path class="d" d="M326.987,37.42c0,.106-.109.158-.327.158h-4.013c-.19,0-.284-.049-.284-.148,0-.07.04-.113.12-.127s.36-.028.84-.042c.275-.014.436-.053.48-.116a1.854,1.854,0,0,0,.065-.686V32.4a11.582,11.582,0,0,0-.174-2.745,1.443,1.443,0,0,0-1.483-.95,2.261,2.261,0,0,0-1.833.929,1.192,1.192,0,0,0-.217.76v6.589q0,.254.465.275l.666.021c.147,0,.221.05.221.148s-.087.148-.261.148h-3.97c-.218,0-.327-.043-.327-.13s.13-.141.392-.166h.545c.218,0,.349-.05.392-.148l.066-.316v-4.6q0-2.407-.044-2.661t-.545-.254h-.632c-.291,0-.437-.052-.437-.157q0-.2.458-.2a6.039,6.039,0,0,0,1.418-.233,2.738,2.738,0,0,0,1.068-.487.561.561,0,0,1,.305-.17c.1,0,.153.135.153.4V29.47a3.575,3.575,0,0,1,2.923-1.419,2.468,2.468,0,0,1,2.268,1.122,5.069,5.069,0,0,1,.392,2.413v4.827a1.949,1.949,0,0,0,.065.741,1,1,0,0,0,.632.128h.392q.218,0,.218.138" transform="translate(-163.092 -15.165)"/><path class="d" d="M347.629,35.229a1.844,1.844,0,0,1-.338.751,4.68,4.68,0,0,1-.688.879,3.4,3.4,0,0,1-2.508.932,4.361,4.361,0,0,1-3.283-1.376,4.732,4.732,0,0,1-1.32-3.408,5.145,5.145,0,0,1,1.254-3.535,4.008,4.008,0,0,1,3.13-1.419,3.9,3.9,0,0,1,2.6.879,3.008,3.008,0,0,1,1.112,2.255,11.465,11.465,0,0,1-1.854.085H344.2q-.152,0-2.617.063a8.48,8.48,0,0,0-.11,1.329,5.491,5.491,0,0,0,.84,3.28,2.758,2.758,0,0,0,2.366,1.15,2.321,2.321,0,0,0,1.4-.382,4.669,4.669,0,0,0,1.134-1.46.265.265,0,0,1,.24-.169c.117,0,.175.049.175.148m-1.9-4.319q-.088-2.541-1.876-2.541-1.767,0-2.2,2.541Z" transform="translate(-174.835 -15.165)"/><path class="d" d="M364.925,29.583a1.113,1.113,0,0,1-.305.8,1.041,1.041,0,0,1-.785.318.976.976,0,0,1-.655-.222.705.705,0,0,1-.261-.561.722.722,0,0,1,.2-.509c.131-.141.2-.239.2-.3q0-.317-.48-.317a1.241,1.241,0,0,0-1.047.737,7.019,7.019,0,0,0-.5,3.2v4.171a.291.291,0,0,0,.185.316,5.68,5.68,0,0,0,1.124.085q.239.042.24.17,0,.148-.284.148h-4.232q-.348,0-.348-.127c0-.085.094-.128.283-.128h.306c.494,0,.785-.056.872-.17a3.405,3.405,0,0,0,.044-.787V30.565q0-1.17-.359-1.352a2.883,2.883,0,0,0-1.145-.2q-.262,0-.262-.148t.218-.148h.152c.219,0,.436.011.655.032a2.274,2.274,0,0,1,.283.032,4.383,4.383,0,0,0,1.789-.445l.283-.127.175-.063a5.985,5.985,0,0,1,.087,1.016v.423a2.157,2.157,0,0,1,1.963-1.439,1.661,1.661,0,0,1,1.156.413,1.326,1.326,0,0,1,.458,1.026" transform="translate(-184.214 -15.215)"/></g></g></svg>