<svg xmlns="http://www.w3.org/2000/svg" xmlns:xlink="http://www.w3.org/1999/xlink" width="382.936" height="465.501" viewBox="0 0 382.936 465.501"><defs><style>.a{fill:none;}.b{clip-path:url(#a);}.c{fill:url(#b);}.d{clip-path:url(#c);}.e{fill:#fff;}</style><clipPath id="a"><rect class="a" width="382.935" height="465.5" transform="translate(63.963 127.88)"/></clipPath><linearGradient id="b" x1="-0.167" y1="1.133" x2="-0.164" y2="1.133" gradientUnits="objectBoundingBox"><stop offset="0" stop-color="#ec5a17"/><stop offset="1" stop-color="#454f99"/></linearGradient><clipPath id="c"><rect class="a" width="382.936" height="465.501" transform="translate(63.963 127.879)"/></clipPath></defs><g transform="translate(-63.963 -127.879)"><g class="b"><rect class="c" width="382.935" height="465.5" transform="translate(63.963 127.88)"/></g><g class="d"><path class="e" d="M32.213,60.714a109.106,109.106,0,0,0,15.449,61.419,94.542,94.542,0,0,0,9.15,12.825,37.041,37.041,0,0,0,11.5,9.427,23.521,23.521,0,0,0,15.471,1.855,36.737,36.737,0,0,0,14.432-7.293c16.142-12.548,25.32-31.869,34.9-49.392A190.01,190.01,0,0,1,148.8,64.622a145.707,145.707,0,0,1,18.315-19.658A158.45,158.45,0,0,1,265.831,5.073a143.1,143.1,0,0,1,26.981,1.49,86.555,86.555,0,0,1,13.244,2.853c3.888,1.243,7.992,3.126,10.522,6.469,6.6,8.72-1.823,19.933-6.877,27.086q-9.885,13.989-20.013,27.8c-13.451,18.393-27.129,36.617-40.753,54.882s-27.181,36.546-40.409,55.081c-13.241,18.555-26.146,37.355-38.4,56.578-12.207,19.145-23.769,38.71-34.349,58.8-10.56,20.054-20.663,41.78-20.732,64.906a61.454,61.454,0,0,0,6.748,28.885,57.732,57.732,0,0,0,17.894,20.6,40.961,40.961,0,0,0,24.794,7.729c9.722-.391,18.63-4.662,26.027-10.8,7.424-6.161,13.312-14.078,18.386-22.225,5.254-8.435,9.867-17.285,14.318-26.163,8.98-17.911,17.074-36.265,26.569-53.918,9.3-17.294,20.047-33.984,34.062-47.864,5.713-5.658,15.7-15.574,24.177-9.68,2.645,1.839,3.988,5.216,4.649,8.591a40.725,40.725,0,0,1,.2,11.821c-.565,5.38-1.641,11.005-2.489,16.462q-1.456,9.377-2.912,18.754-2.875,18.507-5.749,37.015l-5.6,36.029c-.235,1.508.631,3.246,2.41,3.164a50.44,50.44,0,0,0,22.546-6.521,65.9,65.9,0,0,0,17.6-14.958c10.748-12.716,17.95-28.236,22.858-44.048,3.081-9.929,5.338-20.134,7.433-30.309,2.274-11.044,4.217-22.152,6.133-33.263,3.785-21.948,7.449-43.984,13.386-65.478,4.931-17.85,11.53-35.315,20.666-51.457,8.977-15.862,20.493-30.4,34.938-41.628a98.247,98.247,0,0,1,44.991-19.411c15.53-2.456,32.127-1.148,46.646,5.128a67.023,67.023,0,0,1,34.06,33.221c7.385,15.638,9.082,33.5,7.642,50.565-1.52,18.015-6.818,35.638-14.239,52.071a196.122,196.122,0,0,1-30.342,47.546,207.235,207.235,0,0,1-43.788,37.667c-17.158,11.21-35.309,20.8-52.486,31.981A221.117,221.117,0,0,0,411.89,348.8a133.13,133.13,0,0,0-18.871,20.281C382.09,383.563,374,400.8,372.536,419.055a65.588,65.588,0,0,0,3.18,26.31c3.036,8.9,7.95,16.958,12.549,25.1,4.4,7.8,8.67,15.9,10.064,24.853,1.478,9.493-1.363,18.882-5.928,27.144-4.779,8.651-11.156,16.366-17.642,23.78a268.721,268.721,0,0,1-92.648,68.408l3.421.9c-9.915-16.659-4.417-37.221.812-54.46,5.638-18.583,12.888-40.936,2.421-59.2-7.761-13.546-25.342-24.132-40.3-15.03-7.408,4.509-11.837,12.369-15.184,20.112-3.858,8.924-7.205,18.076-10.886,27.078-7.551,18.462-15.8,36.751-26.475,53.649-9.909,15.688-22.024,30.057-36.93,41.224-14.1,10.563-30.524,18.43-48.093,20.823a82.294,82.294,0,0,1-13.182.709c-4.705-.12-9.581-.693-13.677-3.191-6.651-4.059-9.393-12.052-10.516-19.369-1.284-8.364-.626-17.255.829-25.55A101.092,101.092,0,0,1,97.11,553.984c5.748-6.665,12.617-12.109,18.939-18.191,5.884-5.664,11.949-12.267,14.14-20.349a20.876,20.876,0,0,0-5.7-20.71c-5.328-4.9-12.733-6.821-19.821-6.983a45,45,0,0,0-11.287,1.21A63.562,63.562,0,0,0,81.4,493.427c-8.557,3.957-16.753,8.956-25.936,11.379a33.832,33.832,0,0,1-21.4-.974c-12.485-4.883-21.341-17.328-25.636-29.9A62.082,62.082,0,0,1,5.01,452.66c.151-8.314,2.353-16.513,5.354-24.314,6.7-17.406,18.121-32.589,29.2-47.4,5.732-7.658,11.55-15.275,16.739-23.316a153.88,153.88,0,0,0,13.8-26.334c7-17.551,9.576-37.444,2.161-55.308-7.2-17.344-21.427-30.081-33.083-44.353A145.115,145.115,0,0,1,7.4,153.87a2.567,2.567,0,0,0-2.5-2.5,2.519,2.519,0,0,0-2.5,2.5,151.033,151.033,0,0,0,16.457,55.916,148.767,148.767,0,0,0,15.9,24.287c5.816,7.25,12.262,13.961,18.238,21.075,5.749,6.844,11.182,14.222,14.6,22.542a58.6,58.6,0,0,1,3.991,27.055c-1.538,19.224-10.822,37.269-21.366,53.053S27.235,387.984,17.189,404.1C7.98,418.879-.013,436.03,0,453.783a66.02,66.02,0,0,0,14.552,41.372,44.647,44.647,0,0,0,16.239,12.686A38.308,38.308,0,0,0,52.785,510.5c9.484-1.59,18.071-6.349,26.588-10.561,7.25-3.589,14.633-6.84,22.742-7.162,6.425-.255,13.609.96,18.419,5.119,5.244,4.536,6.637,11.677,4.18,18.245-2.825,7.549-9.34,13.554-15.136,18.872-3.159,2.9-6.442,5.664-9.539,8.629A98.776,98.776,0,0,0,90.9,553.682a106.081,106.081,0,0,0-21.815,50.1c-1.286,8.734-1.738,17.773-.21,26.507,1.4,8,4.885,16.016,11.777,20.737,4.114,2.818,9.092,3.9,13.989,4.279a77.043,77.043,0,0,0,13.835-.27,95.965,95.965,0,0,0,25.821-6.4c16.949-6.782,32.057-17.678,44.668-30.81,13.541-14.1,24.1-30.852,32.907-48.232,9.114-17.987,16.443-36.8,23.862-55.529,2.958-7.467,6.259-15.44,12.452-20.838,5.755-5.017,13.221-5.909,20.179-3.271,7.054,2.674,12.848,8.552,16.426,15.079,4.5,8.218,4.827,18.009,3.636,27.118-1.4,10.681-4.936,20.964-8,31.247-2.758,9.262-5.01,18.8-5.311,28.5-.283,9.1,1.4,18.293,6.094,26.185a2.574,2.574,0,0,0,3.421.9,270.321,270.321,0,0,0,50.879-29.8A273.513,273.513,0,0,0,378.978,549c12.662-14.586,26.956-32.4,24.446-53.018-2.3-18.9-16.067-33.266-22.435-50.663-6.13-16.75-4-35.073,3.038-51.2,7.386-16.925,19.328-31.748,33.457-43.54,15.735-13.13,33.645-23.32,51.239-33.7,17.531-10.338,34.925-21.043,50.148-34.656a199.8,199.8,0,0,0,36.719-43.956A191.957,191.957,0,0,0,578.1,186.375c4.557-17.434,6.2-35.831,3.417-53.693-2.679-17.2-10.077-33.844-22.79-45.974-11.981-11.432-27.683-17.838-43.989-19.82A100.159,100.159,0,0,0,465.77,73.6c-16.6,6.669-30.938,17.773-42.646,31.211-12.357,14.185-21.7,30.669-28.936,47.971-7.8,18.64-12.922,38.216-16.955,57.978-4.526,22.178-7.755,44.6-12.144,66.8-3.7,18.711-7.828,37.657-16.141,54.941-6.755,14.043-16.229,27.892-29.983,35.849a44.984,44.984,0,0,1-20.438,6.077l2.411,3.164,11.574-74.523,2.913-18.755c.858-5.527,1.914-11.063,2.47-16.631.761-7.625.494-17.315-5.526-22.952a14.9,14.9,0,0,0-13.227-3.529c-5.285,1.042-9.96,4.411-13.921,7.9a148.458,148.458,0,0,0-20.161,22.257c-11.921,15.848-21.133,33.516-29.784,51.3-8.764,18.013-16.991,36.322-26.954,53.723-8.954,15.638-21.159,33.358-40.308,36.517-17.705,2.919-33.646-10.131-41.564-24.871-10.134-18.866-6.764-41.125.3-60.432,3.945-10.775,9.129-21.041,14.5-31.16q8.018-15.1,16.726-29.812c11.538-19.553,23.873-38.626,36.681-57.368,12.879-18.845,26.237-37.358,39.776-55.733C248,135.119,261.747,116.849,275.392,98.5c13.586-18.265,27.119-36.581,40.185-55.221,5.794-8.268,12.18-19.958,5.533-29.612-5.33-7.74-15.419-9.938-24.1-11.459a153.672,153.672,0,0,0-55.06.569A164.552,164.552,0,0,0,190.5,21.933a156.365,156.365,0,0,0-42,35.125A163.06,163.06,0,0,0,132.36,80.63c-5.078,8.891-9.668,18.052-14.882,26.865-5.1,8.619-10.831,16.914-18.106,23.854-6.966,6.643-16.695,12.921-26.655,9.495-4.532-1.558-8.286-4.875-11.449-8.375a82.329,82.329,0,0,1-9.07-12.5A104.388,104.388,0,0,1,40.149,91.044a103.216,103.216,0,0,1-2.936-30.33c.164-3.217-4.836-3.207-5,0"/><path class="e" d="M469.74,363.047c-17.923,6.647-31.653,21.387-39.3,38.675-8.869,20.045-9.219,42.407-4.474,63.572a170.864,170.864,0,0,0,11.46,33.253c4.574,10.054,9.952,19.746,14.1,29.993,3.969,9.807,6.8,20.168,6.329,30.83a59.291,59.291,0,0,1-7.328,25.468c-8.892,16.427-23.882,29.136-40.342,37.589q-3.125,1.6-6.344,3.006a2.517,2.517,0,0,0-.9,3.421,2.564,2.564,0,0,0,3.42.9c17.378-7.6,33.273-19.647,44.123-35.313a69.71,69.71,0,0,0,11.075-24.988,64.654,64.654,0,0,0-1.163-30.388c-2.9-10.747-7.869-20.814-12.763-30.764-5.019-10.206-9.8-20.462-13.285-31.309-6.676-20.762-9.258-43.587-2.6-64.7,5.457-17.31,16.94-33.263,33.26-41.734a53.672,53.672,0,0,1,6.064-2.689,2.568,2.568,0,0,0,1.746-3.075,2.52,2.52,0,0,0-3.075-1.746"/><path class="e" d="M276.058,112.246c-5.619,23.768-11.264,47.864-21.8,70.031-9.664,20.34-23.871,37.641-38.6,54.485-14.494,16.577-29.489,33.044-40.544,52.213-5.882,10.2-11.519,21.847-10.81,33.935.328,5.6,1.839,11.853,6.739,15.206,4.549,3.112,10.881,2.371,15.48-.2,5.1-2.857,8.587-7.75,12.056-12.3q5.889-7.718,11.682-15.506,11.586-15.576,22.79-31.434,22.517-31.868,43.449-64.81c5.812-9.13,12.571-19.371,24.034-21.467a15.741,15.741,0,0,1,12.568,3.056,23.808,23.808,0,0,1,6.8,9.9,75.932,75.932,0,0,1,3.641,13.039c.469,2.3.846,4.618,1.317,6.917.585,2.857,2.354,5.437,5.516,5.583,5.151.237,9.387-5.436,11.656-9.417a38.109,38.109,0,0,0,4.367-13.765c1.441-10.5.081-21.037-.064-31.564a124.76,124.76,0,0,1,4.087-35.265c5.556-19.928,18.62-38.75,38.371-46.663a49.4,49.4,0,0,1,13.9-3.421,2.567,2.567,0,0,0,2.5-2.5,2.52,2.52,0,0,0-2.5-2.5c-20.768,1.867-38.626,15.828-48.794,33.57A94.854,94.854,0,0,0,342.881,152.4c-1.753,11.611-1.68,23.2-1.1,34.9.473,9.517,1.075,19.844-2.669,28.841a24.561,24.561,0,0,1-3.215,5.578,22.687,22.687,0,0,1-2.158,2.375c-.72.7-1.9,1.853-2.995,1.819-1.266-.039-1.362-3.547-1.548-4.547-.413-2.219-.84-4.436-1.328-6.64-1.911-8.634-4.859-18.011-12.207-23.569-8.924-6.749-20.895-4.068-29.119,2.437-4.657,3.684-8.276,8.5-11.546,13.408-3.416,5.131-6.653,10.384-10,15.559q-10.483,16.2-21.357,32.137-21.814,31.976-45.167,62.863c-3.471,4.59-6.768,9.622-11.033,13.528-3.273,3-8.378,5.437-12.773,3.354-4.694-2.224-5.422-8.95-5.412-13.5a45.373,45.373,0,0,1,3.908-17.052c4.216-10.2,10.417-19.712,16.9-28.6,6.344-8.692,13.327-16.9,20.393-25,14.409-16.534,29.416-32.824,40.757-51.708,12.528-20.863,19.669-44.36,25.525-67.823,1.426-5.712,2.784-11.442,4.138-17.172.74-3.129-4.08-4.464-4.821-1.329"/><path class="e" d="M445.86,102.425c-17.52,11.893-20.468,35.126-18.965,54.653.948,12.314,3.428,24.466,3.816,36.832a72.245,72.245,0,0,1-1.492,18.448,52.806,52.806,0,0,1-7.286,16.841c-3.365,5.231-7.291,10.066-10.9,15.123a110.684,110.684,0,0,0-9.6,16.144,112.966,112.966,0,0,0-6.765,17.549c-1.5,5.142-2.833,10.463-2.9,15.847-.061,4.526.653,9.426,3.09,13.331a12.949,12.949,0,0,0,12.166,6.247c5.91-.589,10.874-4.714,13.968-9.588,3.336-5.256,4.893-11.4,8.052-16.745a33.947,33.947,0,0,1,26.6-16.241c12.343-1.048,24.592,2.3,36.936,1.332a47.019,47.019,0,0,0,9.025-1.545c3.094-.866,1.779-5.692-1.329-4.821-11.658,3.264-23.85.484-35.672-.066a54.255,54.255,0,0,0-17.965,1.711,38.554,38.554,0,0,0-14.145,7.807,38.952,38.952,0,0,0-9.907,13.465c-2.383,5.226-4.091,11.231-8.17,15.456-3.15,3.263-8.084,5.656-12.23,3.369-3.126-1.725-4.5-5.272-5.124-8.979a34.228,34.228,0,0,1,.833-13.1A105.234,105.234,0,0,1,411.927,251.9c3.2-5.017,6.888-9.681,10.388-14.484a75.241,75.241,0,0,0,9.246-15.829,59.717,59.717,0,0,0,3.97-18.006c.946-12.428-1.1-24.844-2.631-37.14-1.255-10.071-2.033-20.3-.51-30.4,1.371-9.079,4.458-18.272,10.933-25.015a31.632,31.632,0,0,1,5.061-4.286c2.647-1.8.148-6.131-2.524-4.317"/><path class="e" d="M36.564,369.978a106.953,106.953,0,0,0,23.012,50.081,104.523,104.523,0,0,0,46.06,32.409,108.607,108.607,0,0,0,60.757,2.943,107.477,107.477,0,0,0,28.66-11.6c9.416-5.436,18.262-11.835,27.936-16.83,18.288-9.442,40.807-12.333,60.032-3.842A58.033,58.033,0,0,1,304.847,439.7a54.114,54.114,0,0,1,10.972,26.507c1.451,10.3.529,20.887-1.16,31.1-.868,5.253-1.952,10.467-3.112,15.662-.567,2.543-1.511,5.281-.956,7.9a5.763,5.763,0,0,0,5.526,4.518c4.5.205,8.7-3.544,11.62-6.552a40.55,40.55,0,0,0,7.4-10.755c4-8.349,5.739-17.554,6.563-26.718.965-10.74,1.068-21.883-1.624-32.4a52.947,52.947,0,0,0-14.509-24.883,59.749,59.749,0,0,0-23.944-14.1,69.236,69.236,0,0,0-32.433-1.578,76.843,76.843,0,0,0-15.33,4.466,2.58,2.58,0,0,0-1.746,3.075,2.517,2.517,0,0,0,3.075,1.746c18.633-7.558,40.493-7.867,57.928,2.973a50.959,50.959,0,0,1,17.881,18.65c5.023,9.2,6.352,19.784,6.284,30.124-.06,9.18-.821,18.521-3.28,27.395-2.2,7.957-6,15.67-12.518,20.957-1.336,1.083-2.947,2.356-4.712,2.579-.486.061-.95.08-1.192-.27-.491-.712-.041-2.1.126-2.858,1.132-5.111,2.279-10.216,3.215-15.368,1.857-10.219,3.114-20.678,2.372-31.074-.716-10.033-3.318-19.986-8.615-28.609a59.969,59.969,0,0,0-19.442-19.308c-17.411-10.841-39.154-12.2-58.5-6.151-10.21,3.191-19.421,8.551-28.416,14.232-8.721,5.508-17.4,11.222-27.009,15.085a103.432,103.432,0,0,1-58.114,5.451,98.846,98.846,0,0,1-49.145-25.351,103.492,103.492,0,0,1-27.7-44.711,100.526,100.526,0,0,1-2.97-12.8A2.519,2.519,0,0,0,38.31,366.9a2.559,2.559,0,0,0-1.746,3.075"/><path class="e" d="M31.7,167.2a39.385,39.385,0,0,0,18.2,8.117,53.734,53.734,0,0,0,20.623-.856c14.227-3.249,26.511-11.177,36.937-21.176,11.318-10.855,20.639-23.54,31.293-35.009,10.121-10.893,22.158-21.809,37.236-24.721,11.825-2.283,26.581,2.313,31.444,14.25,2.868,7.041,1.841,15.235-1.144,22.065-3.187,7.292-8.437,13.434-13.916,19.1a373.176,373.176,0,0,1-36.422,32.835,386.436,386.436,0,0,1-40.422,28.038c-14.129,8.534-28.85,16.525-44.8,21.082-14.972,4.278-31.161,5.3-46.155.539a57.5,57.5,0,0,1-10.288-4.409c-2.822-1.548-5.348,2.768-2.523,4.318,14.362,7.878,31.138,9.559,47.165,7.229,16.753-2.435,32.533-9.448,47.25-17.565a379.13,379.13,0,0,0,42.329-27.281,396.346,396.346,0,0,0,38.6-32.523c11.643-11.166,24.648-23.528,26.747-40.383a28.339,28.339,0,0,0-5.85-21.62,31.6,31.6,0,0,0-16.951-10.187c-15.193-3.715-30.007,3.078-41.739,12.379-12.494,9.9-22.257,22.735-32.637,34.707-9.888,11.4-20.544,22.474-34.385,28.99-11.966,5.633-26.422,8.186-39.042,3.193a31.92,31.92,0,0,1-8.015-4.651,2.58,2.58,0,0,0-3.536,0,2.518,2.518,0,0,0,0,3.536"/><path class="e" d="M131.316,229.648q-13.966,4.446-27.479,10.158a118.237,118.237,0,0,0-12.328,5.62,16.169,16.169,0,0,0-7.841,9.34c-1.2,3.86-1.036,8.025-.512,11.982a111.178,111.178,0,0,0,2.665,13.215c2.253,8.722,5.15,17.3,6.758,26.177,1.441,7.962,1.556,16.175-1.086,23.9a45.077,45.077,0,0,1-8.554,14.411C74.863,353.8,64.52,360.662,54.786,368.1c-9.824,7.507-19.722,15.766-25.5,26.942-.741,1.432-1.391,2.906-2,4.4a2.516,2.516,0,0,0,1.746,3.076,2.562,2.562,0,0,0,3.075-1.747c4.444-10.92,13.629-19.285,22.874-26.552,9.609-7.552,20.106-14.36,28.705-23.2a56.162,56.162,0,0,0,10.357-14.2,45.524,45.524,0,0,0,4.532-21.767c-.312-8.824-2.631-17.429-5.018-25.878-2.337-8.272-5.106-16.742-5.715-25.366-.248-3.512-.093-7.287,1.864-10.338,2.1-3.277,6.256-4.776,9.646-6.3q12.988-5.849,26.487-10.461,3.388-1.161,6.8-2.246c3.055-.972,1.75-5.8-1.329-4.821"/><path class="e" d="M128.8,236.406c1.521,1.143,1.894,3.065,1.882,4.88a21.234,21.234,0,0,1-1.514,7.03c-1.094,3.014-2.491,5.931-3.766,8.87q-2.118,4.883-4.247,9.76-8.667,19.846-17.54,39.6-4.97,11.063-10,22.1a2.577,2.577,0,0,0,.9,3.421,2.521,2.521,0,0,0,3.421-.9q9.45-20.718,18.675-41.537,4.611-10.41,9.166-20.845,2.277-5.219,4.54-10.442c1.339-3.092,2.82-6.163,3.91-9.355,1.988-5.827,2.546-12.815-2.9-16.9a2.516,2.516,0,0,0-3.421.9,2.56,2.56,0,0,0,.9,3.42"/></g></g></svg>