<svg xmlns="http://www.w3.org/2000/svg" xmlns:xlink="http://www.w3.org/1999/xlink" width="890.017" height="473.645" viewBox="0 0 890.017 473.645"><defs><style>.a{fill:none;}.b{clip-path:url(#a);}.c{fill:#1a1818;}.d{fill:#fff;}</style><clipPath id="a"><rect class="a" width="890.017" height="473.645"/></clipPath></defs><g class="b"><path class="c" d="M1087.1,741.844H822.828c-3.652,0-6.837-2.537-8.262-6.283a15.479,15.479,0,0,0-7.726-8.59,10.1,10.1,0,0,1-5.651-9.207v-9.2a10.1,10.1,0,0,1,5.651-9.206,15.479,15.479,0,0,0,7.726-8.59c1.426-3.746,4.61-6.283,8.262-6.283H1087.1c3.652,0,6.837,2.537,8.261,6.283a15.483,15.483,0,0,0,7.727,8.59,10.1,10.1,0,0,1,5.651,9.206v9.2a10.1,10.1,0,0,1-5.651,9.207,15.483,15.483,0,0,0-7.727,8.59c-1.425,3.746-4.609,6.283-8.261,6.283" transform="translate(-249.368 -296.144)"/></g><g class="b"><path class="c" d="M0,301.147C0,215.759,69.122,110.317,136.1,37.54,149.921,22.35,173.885,0,195.389,0s67.9,29.517,67.9,39.545S257.451,55.591,255.3,51c-5.526-12.321-19.045-34.671-39.633-33.232-65.747,4.579-184.637,185.1-192.93,301.713-4,54.734,41.167,70.2,72.5,70.2,63.287,0,106.3-24.93,130.576-35.814,16.9-7.454-43.017,47.56-110.606,47.56C64.513,401.435,0,389.977,0,301.147"/><path class="c" d="M279.835,452.457c.309-10.891,3.067-22.925,7.068-34.383-11.061-8.311-15.67-19.489-15.67-30.092,0-38.962,41.475-64.755,74.039-64.755,18.129,0,33.182,12.034,33.182,29.516,0,20.632-9.835,49-22.738,73.641,29.8-3.731,68.205-22.35,90.943-57.883,1.842-2.868,10.444.863,7.677,4.3-14.436,18.914-54.378,55.87-102.3,60.169-15.053,25.506-33.182,45.562-46.7,45.562s-25.806-14.615-25.5-26.073m35.024-29.229c7.985,2.293,18.129,3.724,30.414,3.724h1.842c12.9-23.492,23.046-52.721,23.046-77.932,0-11.754-7.685-19.2-18.129-19.2-36.257,0-63.9,49.285-63.9,64.755a26.428,26.428,0,0,0,3.075,12.609c11.361-25.218,27.647-45.562,34.716-45.562,11.06,0,16.278,8.6,13.519,13.184a533.5,533.5,0,0,0-24.579,48.423m-2.767,6.592c-9.527,22.637-14.745,41.55-6.759,41.55,9.835,0,25.2-15.765,38.408-38.115h-.617c-11.986,0-22.429-1.143-31.031-3.436" transform="translate(-84.421 -139.844)"/><path class="c" d="M459.407,473.113c3.384-43.268,23.963-132.091,39.941-187.681S573.389,76.265,617.014,76.265c15.361,0,23.346,11.746,26.113,15.757,3.993,6.017-3.068,5.449-6.143,4.012S629,92.6,626.541,92.6c-33.8,0-83.258,114.041-112.756,191.98,14.753-22.925,97.7-108.6,160.065-162.184C687.678,96.034,701.2,79.7,711.95,79.7c7.06,0,16.9,6.592,16.9,10.316,0,6.88-11.369,14.9-26.114,25.218-34.106,53.009-57.761,128.08-67.588,155.3a21.335,21.335,0,0,1,8.293,8.878c.308.575.616,1.438.925,2.006,47.618-2.861,99.228-24.922,108.447-27.5,10.444-2.869,9.218,4.586-1.534,10.6-10.452,5.729-65.438,22.35-104.462,26.928,10.143,58.746-27.647,212.036-39.625,212.036-4.609,0-19.362-6.872-22.738-12.6-6.143-10.316-4.3-33.815-2.459-48.718,5.834-48.71,17.82-104.58,32.565-157.876-1.534-2.006-2.459-3.724-2.459-5.442,0-4.011,2.767-8.31,6.759-10.316,13.211-45.274,28.264-87.967,43.017-121.208-35.64,32.377-106,102.869-143.787,148.424,5.843,52.442-6.143,159.314-20.271,200.578-1.234,4.011-4,10.316-11.369,10.316-10.752,0-29.189-7.455-27.039-33.528m43.626-58.738c5.226-27.5,5.535-92.266,6.143-110.317-11.669,41.263-34.1,139.259-34.1,173.354,0,4.874,1.534,17.483,5.527,17.483,5.843,0,17.212-53.009,22.429-80.52M634.526,292.312c-2.15-.288-4.3-.575-6.143-.863C615.172,341.022,588.133,471.4,603.495,471.4c16.595,0,41.475-138.971,31.031-179.083" transform="translate(-142.936 -32.996)"/><path class="c" d="M836.9,456.14c0-42.693,40.55-98.563,74.039-98.563,14.745,0,22.729,6.872,22.729,17.187,0,13.472-16.586,33.816-33.482,33.816-10.143,0-15.053-5.737-19.97-11.466-14.136,19.489-25.505,45.85-25.505,70.78,0,13.177,6.46,21.774,19.362,21.774,33.482-.575,122.274-94.272,129.951-102.869,5.226-6.017,9.528,3.156,4.3,8.022C989.9,412.879,908.787,495.972,877.448,495.972c-23.347,0-40.55-13.184-40.55-39.832m45.467-62.174c3.067,4.011,7.985,6.3,11.669,6.3,7.994,0,29.806-14.039,29.806-30.66,0-2.006-.926-3.724-3.692-3.724-10.444,0-24.88,11.171-37.783,28.079" transform="translate(-260.483 -154.706)"/><path class="c" d="M1039.879,456.14c0-42.693,40.55-98.563,74.039-98.563,14.745,0,22.73,6.872,22.73,17.187,0,13.472-16.587,33.816-33.482,33.816-10.143,0-15.053-5.737-19.97-11.466-14.137,19.489-25.505,45.85-25.505,70.78,0,13.177,6.452,21.774,19.362,21.774C1110.535,489.092,1199.327,395.4,1207,386.8c5.226-6.017,9.527,3.156,4.3,8.022-18.428,18.059-99.536,101.152-130.876,101.152-23.346,0-40.55-13.184-40.55-39.832m45.467-62.174c3.067,4.011,7.985,6.3,11.669,6.3,7.994,0,29.807-14.039,29.807-30.66,0-2.006-.926-3.724-3.684-3.724-10.452,0-24.889,11.171-37.791,28.079" transform="translate(-323.66 -154.706)"/><path class="d" d="M931.326,715.02q0,3.254-5.284,5.067a26.205,26.205,0,0,1-8.4,1.14q-2.166,0-4.9-.234v9.529a2.228,2.228,0,0,0,.127.973,1.833,1.833,0,0,0,1.4.571q1.843.134,3.563.133c.468,0,.7.078.7.234q0,.337-.89.336H903c-1.272,0-1.911-.112-1.911-.336,0-.156.447-.235,1.337-.235a9.989,9.989,0,0,0,3.438-.3.727.727,0,0,0,.574-.673V711.4a1.21,1.21,0,0,0-1.083-1.278,12.619,12.619,0,0,0-2.228-.133h-1.081q-.958,0-.957-.27c0-.2.6-.3,1.784-.3h14q7.259,0,10.63,1.342,3.82,1.51,3.821,4.262m-6.685.032q0-5.064-8.019-5.065a8.292,8.292,0,0,0-3.5.473q-.38.2-.38,1.046v8.983c.337.023.72.034,1.145.034a22.665,22.665,0,0,0,7.13-.979q3.625-1.215,3.627-4.492" transform="translate(-280.461 -306.93)"/><path class="d" d="M967.169,726.424a1.467,1.467,0,0,1-.889,1.275,4.643,4.643,0,0,1-2.294.5,4.573,4.573,0,0,1-1.91-.351q-.765-.354-.763-.89a.958.958,0,0,1,.572-.805q.573-.334.574-.47,0-.5-1.4-.5A4.363,4.363,0,0,0,958,726.351q-1.463,1.371-1.463,5.076v6.612c0,.267.179.433.54.5a30.982,30.982,0,0,0,3.281.133c.466.045.7.133.7.268,0,.157-.275.234-.827.234H947.88q-1.018,0-1.018-.2c0-.135.275-.2.827-.2h.892a6.413,6.413,0,0,0,2.546-.27,3.052,3.052,0,0,0,.127-1.249v-9.274q0-1.854-1.05-2.142a14.862,14.862,0,0,0-3.343-.32c-.51,0-.763-.078-.763-.234s.211-.235.636-.235h.444q.958,0,1.911.049c.636.034.913.05.827.05a21.969,21.969,0,0,0,5.219-.7l.828-.2.509-.1a5.332,5.332,0,0,1,.256,1.611v.671a7.283,7.283,0,0,1,5.729-2.281,7.657,7.657,0,0,1,3.373.654q1.338.654,1.337,1.627" transform="translate(-294.471 -313.301)"/><path class="d" d="M1006.321,731.809q0,3.255-3.756,5.453a18.292,18.292,0,0,1-9.359,2.2,19.43,19.43,0,0,1-9.676-2.2q-3.88-2.2-3.883-5.453,0-3.354,3.787-5.57a18.476,18.476,0,0,1,9.454-2.215,18.863,18.863,0,0,1,9.581,2.232q3.851,2.233,3.852,5.553m-5.793-.033a7.52,7.52,0,0,0-2.164-5.738q-1.592-1.511-5.348-1.51a7.7,7.7,0,0,0-5.569,1.93,7.08,7.08,0,0,0-2.006,5.351,6.7,6.7,0,0,0,2.132,5.284,8.647,8.647,0,0,0,5.951,1.9,6.651,6.651,0,0,0,4.33-1.175,7.429,7.429,0,0,0,2.673-6.039" transform="translate(-304.913 -313.25)"/><path class="d" d="M1031.279,734.147a7.227,7.227,0,0,1-2.355,5.688,9.323,9.323,0,0,1-6.43,2.1,8.666,8.666,0,0,1-3.278-.537q-1.306-.537-1.305-1.342,0-1.577,3.247-1.577,2.672,0,2.673,1.175a3.033,3.033,0,0,1-.382,1.074.412.412,0,0,0-.063.268c0,.2.125.3.373.3a1.791,1.791,0,0,0,1.71-1.023q.527-1.025.526-5.151v-14.8c-.041-.29-.361-.436-.954-.436h-3.63c-.466,0-.7-.083-.7-.251,0-.145.557-.219,1.674-.219a19.223,19.223,0,0,0,6.7-.806,6.877,6.877,0,0,1,1.482-.369c.344,0,.536.13.579.387s.086,1.1.129,2.533v12.985Zm-.318-21.945q0,1.477-2.8,1.477a4.626,4.626,0,0,1-2.1-.42,1.244,1.244,0,0,1-.827-1.09,1.258,1.258,0,0,1,.8-1.073,4.117,4.117,0,0,1,2-.437q2.931,0,2.929,1.544" transform="translate(-316.822 -307.467)"/><path class="d" d="M1069.659,735.4q0,.336-.988,1.191a10.7,10.7,0,0,1-2,1.393,15.467,15.467,0,0,1-7.322,1.476,19.213,19.213,0,0,1-9.581-2.18q-3.851-2.182-3.852-5.4,0-3.354,3.661-5.6a17.179,17.179,0,0,1,9.136-2.248,18.261,18.261,0,0,1,7.575,1.393q3.055,1.393,3.247,3.574-2.037.168-5.411.133h-4.457q-.444,0-7.639.1a7.578,7.578,0,0,0-.318,2.106,6.09,6.09,0,0,0,2.451,5.2,14.014,14.014,0,0,0,10.982,1.219,10.7,10.7,0,0,0,3.309-2.315.92.92,0,0,1,.7-.269c.339,0,.509.078.509.235m-5.538-6.845q-.254-4.027-5.476-4.027-5.158,0-6.43,4.027Z" transform="translate(-325.538 -313.25)"/><path class="d" d="M1108.828,727.481q0,1.543-2.865,1.543-2.8,0-2.8-1.409a2.135,2.135,0,0,1,.636-1.106.749.749,0,0,0,.191-.47q0-.671-1.305-1.107a10.512,10.512,0,0,0-3.278-.436,9.014,9.014,0,0,0-5.92,1.746,6.013,6.013,0,0,0-2.1,4.9,6.964,6.964,0,0,0,2.164,5.486,8.87,8.87,0,0,0,6.111,1.93,12.332,12.332,0,0,0,4.772-.874,12.861,12.861,0,0,0,2.484-1.543,1.232,1.232,0,0,1,.571-.167q.638,0,.639.268,0,.435-2.228,1.644a15.074,15.074,0,0,1-7.321,1.577,18.32,18.32,0,0,1-9.262-2.114q-3.662-2.113-3.661-5.335,0-3.456,3.882-5.721a19.077,19.077,0,0,1,9.741-2.266,19.649,19.649,0,0,1,6.652,1.04q2.9,1.04,2.9,2.416" transform="translate(-337.908 -313.25)"/><path class="d" d="M1140.054,735.26q0,.3-1.592,1.074a14.922,14.922,0,0,1-6.491,1.308,11.684,11.684,0,0,1-5.284-.937q-1.019-.535-1.019-3.147v-9.977c-.043-.223-.277-.346-.7-.368h-2.42q-1.4,0-1.4-.234t.7-.268a12.619,12.619,0,0,0,7.716-2.58,1.461,1.461,0,0,1,.949-.306c.294,0,.442.079.442.235v.7a4.026,4.026,0,0,0,.253,1.811,18.429,18.429,0,0,0,1.911.068,40.126,40.126,0,0,0,4.648-.168,3.562,3.562,0,0,1,.445-.033q.51,0,.509.289,0,.483-5.157.482h-2.608v6.209a22.613,22.613,0,0,0,.445,5.888q.444,1.191,2.929,1.191a11.135,11.135,0,0,0,4.71-1.241,1.03,1.03,0,0,1,.574-.167c.3,0,.445.057.445.167" transform="translate(-348.955 -311.433)"/></g></svg>