<svg xmlns="http://www.w3.org/2000/svg" xmlns:xlink="http://www.w3.org/1999/xlink" width="100.165" height="31.407" viewBox="0 0 100.165 31.407"><defs><style>.a{fill:none;}.b{clip-path:url(#a);}.c{fill:#ff9d00;}</style><clipPath id="a"><rect class="a" width="100.165" height="31.407" transform="translate(0 0)"/></clipPath></defs><g transform="translate(0 0)"><g class="b"><path class="c" d="M17.767,5.5a5.5,5.5,0,0,1-3.105,4.976A9.782,9.782,0,0,1,9.725,11.6a20.457,20.457,0,0,1-2.879-.231v9.36a3.592,3.592,0,0,0,.074.956.959.959,0,0,0,.822.559,17.162,17.162,0,0,0,2.1.133q.411,0,.411.231,0,.33-.524.33h-8.6Q0,22.938,0,22.606c0-.152.262-.23.786-.23q1.758,0,2.019-.3c.2-.088.312-.308.338-.659V1.946q0-1.021-.636-1.254A4.445,4.445,0,0,0,1.2.56H.562C.188.56,0,.473,0,.3,0,.1.349,0,1.047,0H9.276q4.265,0,6.246,1.318A4.735,4.735,0,0,1,17.767,5.5m-3.928.032Q13.839.559,9.127.56a3.141,3.141,0,0,0-2.057.465q-.225.2-.224,1.027v8.824a6.451,6.451,0,0,0,.673.032,8.473,8.473,0,0,0,4.189-.962q2.13-1.194,2.131-4.41"/><path class="c" d="M30.595,10.446a1.646,1.646,0,0,1-.524,1.252,1.88,1.88,0,0,1-1.346.495,1.782,1.782,0,0,1-1.122-.346,1.056,1.056,0,0,1-.449-.874,1.072,1.072,0,0,1,.336-.79c.226-.22.337-.374.337-.461q0-.495-.822-.495a2.139,2.139,0,0,0-1.8,1.148q-.861,1.344-.86,4.984v6.493a.452.452,0,0,0,.318.492,10.886,10.886,0,0,0,1.925.132c.276.044.413.131.413.263,0,.154-.163.23-.487.23H19.263c-.4,0-.6-.065-.6-.2s.163-.2.487-.2h.524q1.272,0,1.5-.266a4.822,4.822,0,0,0,.074-1.224V11.975q0-1.821-.616-2.1a5.373,5.373,0,0,0-1.965-.314c-.3,0-.449-.076-.449-.231s.125-.23.375-.23h.262q.561,0,1.123.049a4.263,4.263,0,0,1,.485.049A8.159,8.159,0,0,0,23.526,8.5l.487-.2.3-.1a8.4,8.4,0,0,1,.151,1.583v.658A3.691,3.691,0,0,1,27.827,8.2a3.031,3.031,0,0,1,1.983.643,1.988,1.988,0,0,1,.785,1.6"/><path class="c" d="M47.463,15.786a7.186,7.186,0,0,1-2.207,5.354,7.55,7.55,0,0,1-5.5,2.159,7.95,7.95,0,0,1-5.686-2.159,7.069,7.069,0,0,1-2.281-5.354,7.33,7.33,0,0,1,2.225-5.472,7.633,7.633,0,0,1,5.555-2.175A7.775,7.775,0,0,1,45.2,10.33a7.29,7.29,0,0,1,2.263,5.456m-3.4-.034a10.536,10.536,0,0,0-1.272-5.635,3.423,3.423,0,0,0-3.141-1.483,3.67,3.67,0,0,0-3.274,1.9,9.939,9.939,0,0,0-1.178,5.257,9.2,9.2,0,0,0,1.254,5.189,3.981,3.981,0,0,0,3.5,1.863,2.914,2.914,0,0,0,2.544-1.154,9.951,9.951,0,0,0,1.571-5.932"/><path class="c" d="M55.13,23.76a9.9,9.9,0,0,1-1.385,5.587,4.325,4.325,0,0,1-3.777,2.059,3.322,3.322,0,0,1-1.925-.528,1.555,1.555,0,0,1-.767-1.318q0-1.549,1.907-1.549,1.571,0,1.57,1.153a4.482,4.482,0,0,1-.223,1.056.585.585,0,0,0-.039.263c0,.2.074.3.22.3q.693,0,1-1.005a23.63,23.63,0,0,0,.311-5.059V10.183c-.026-.286-.212-.429-.562-.429H49.333q-.413,0-.412-.245,0-.216.985-.216A7.147,7.147,0,0,0,53.843,8.5a2.8,2.8,0,0,1,.87-.362c.2,0,.315.126.341.38s.05,1.082.076,2.487V23.76ZM54.943,2.207q0,1.451-1.645,1.451a1.837,1.837,0,0,1-1.234-.413,1.329,1.329,0,0,1-.487-1.07,1.377,1.377,0,0,1,.467-1.056A1.683,1.683,0,0,1,53.222.692q1.72,0,1.721,1.515"/><path class="c" d="M72.561,19.311a2.736,2.736,0,0,1-.58,1.171A7.534,7.534,0,0,1,70.8,21.85,6.183,6.183,0,0,1,66.5,23.3a7.86,7.86,0,0,1-5.628-2.143,7,7,0,0,1-2.263-5.3,7.572,7.572,0,0,1,2.15-5.5,7.757,7.757,0,0,1,9.818-.841,4.548,4.548,0,0,1,1.908,3.51,21.8,21.8,0,0,1-3.179.133H66.688q-.263,0-4.488.1a12.15,12.15,0,0,0-.187,2.07,7.973,7.973,0,0,0,1.439,5.106,4.919,4.919,0,0,0,4.059,1.789,4.3,4.3,0,0,0,2.394-.593,7.474,7.474,0,0,0,1.945-2.274.455.455,0,0,1,.411-.264c.2,0,.3.077.3.23m-3.254-6.722q-.15-3.954-3.217-3.954-3.03,0-3.778,3.954Z"/><path class="c" d="M88.308,11.534q0,1.516-1.683,1.517-1.648,0-1.647-1.384a2.721,2.721,0,0,1,.374-1.088,1.047,1.047,0,0,0,.113-.461A1.252,1.252,0,0,0,84.7,9.03,3.919,3.919,0,0,0,82.771,8.6a4.035,4.035,0,0,0-3.477,1.714,8.115,8.115,0,0,0-1.234,4.811,9.634,9.634,0,0,0,1.27,5.388,4.077,4.077,0,0,0,3.592,1.9,4.789,4.789,0,0,0,2.805-.857,8.187,8.187,0,0,0,1.458-1.515.541.541,0,0,1,.336-.165c.25,0,.375.089.375.264q0,.429-1.309,1.615a6.108,6.108,0,0,1-4.3,1.549,7.515,7.515,0,0,1-5.442-2.076,6.977,6.977,0,0,1-2.151-5.241,7.516,7.516,0,0,1,2.281-5.618A7.869,7.869,0,0,1,82.7,8.14a7.443,7.443,0,0,1,3.908,1.022,2.868,2.868,0,0,1,1.7,2.372"/><path class="c" d="M100.165,20.959c0,.2-.314.55-.936,1.054A5.926,5.926,0,0,1,95.414,23.3a4.57,4.57,0,0,1-3.1-.921q-.6-.525-.6-3.09V9.49a.391.391,0,0,0-.411-.362H89.879c-.548,0-.824-.077-.824-.231s.137-.241.41-.263A5.874,5.874,0,0,0,94,6.1a.672.672,0,0,1,.557-.3c.174,0,.261.078.261.231v.692A6.424,6.424,0,0,0,94.965,8.5a6.5,6.5,0,0,0,1.123.066,14.217,14.217,0,0,0,2.73-.163,1.177,1.177,0,0,1,.262-.034c.2,0,.3.1.3.284q0,.475-3.028.474H94.816v6.1a36.682,36.682,0,0,0,.261,5.784q.262,1.17,1.722,1.169a4.649,4.649,0,0,0,2.766-1.219.449.449,0,0,1,.337-.165c.175,0,.263.055.263.165"/></g></g></svg>