<svg xmlns="http://www.w3.org/2000/svg" xmlns:xlink="http://www.w3.org/1999/xlink" width="301.887" height="293.069" viewBox="0 0 301.887 293.069"><defs><style>.a{fill:none;}.b{clip-path:url(#a);}.c{fill:#fff;}</style><clipPath id="a"><rect class="a" width="301.887" height="293.069" transform="translate(99.109 785.416)"/></clipPath></defs><g transform="translate(-99.109 -785.416)"><g class="b"><path class="c" d="M62.568,818.277c8.193,18.879,29.57,32.583,50.306,30.5,10.895-1.1,20.617-6.543,28.226-14.278,7.667-7.792,13.262-17.377,18.382-26.954,5.327-9.963,10.505-19.968,16.515-29.548a197.533,197.533,0,0,1,20.436-27.469,127.381,127.381,0,0,1,25.508-22.064,105.437,105.437,0,0,1,14.944-7.994,54.239,54.239,0,0,1,16.47-4.6c5.335-.486,10.864.076,15.494,2.962a17.869,17.869,0,0,1,7.743,10.746c2.452,9.25-.647,19.744-5.239,27.922-10.86,19.341-28.288,33.817-46.6,45.814-19.868,13.02-41.164,23.663-61.357,36.151a507.8,507.8,0,0,0-66.163,48.571A229.128,229.128,0,0,0,69.57,915.994a143.724,143.724,0,0,0-20.393,33.131,140.644,140.644,0,0,0-10.524,37.091c-1.575,11.438-2.3,23.527.328,34.871,2.228,9.624,7.427,19.23,16.9,23.293,11.729,5.032,24.032-.048,33.451-7.455a79.38,79.38,0,0,0,12.738-13.027c4.13-5.161,7.971-10.544,11.572-16.084,7.094-10.914,13.286-22.375,19.464-33.822,11.495-21.3,23.208-42.784,40.2-60.29a107.693,107.693,0,0,1,27.3-20.784,83.875,83.875,0,0,1,7.631-3.525c2.924-1.167,6.33-2.621,9.533-1.855a13.748,13.748,0,0,1,5.91,3.632c2.007,1.844,3.891,3.8,6.072,5.447,10.056,7.593,23.478,3.627,33.472-1.905a119.621,119.621,0,0,0,15.412-10.718q7.557-5.9,14.617-12.406a232.573,232.573,0,0,0,25.829-28.037,301.311,301.311,0,0,0,21-31.438c12.6-21.19,24.839-43.207,44.412-58.861a109.788,109.788,0,0,1,31.594-17.524,107.082,107.082,0,0,1,18.154-4.817c5.372-.9,10.767-.465,14.64,3.581,6.692,6.991,6.045,18.2,3.433,26.821-3.047,10.058-9.477,18.693-16.8,26.069-7.925,7.98-17,14.708-26.238,21.079-11.166,7.7-22.464,15.205-33.6,22.955q-35.047,24.4-69.044,50.267-17.034,12.961-33.8,26.278c-9.872,7.844-20.228,15.483-28.579,25.006-7.4,8.438-13.555,19.024-12.564,30.646a22.919,22.919,0,0,0,6.392,14.5c4.665,4.575,10.86,5.407,16.977,3.547a136.741,136.741,0,0,0,17.248-7.08c5.521-2.551,10.952-5.292,16.331-8.128,10.721-5.65,21.237-11.676,31.928-17.381a271.523,271.523,0,0,1,32.458-15.158,151.235,151.235,0,0,1,17.256-5.36,85.1,85.1,0,0,1,16.793-2.8,16.129,16.129,0,0,1,6.6.9A5.243,5.243,0,0,1,395.689,928a3.342,3.342,0,0,1,.752,2.671c-.328,2.756-2.084,5.6-3.341,8.034q-2,3.867-4.365,7.531A120.577,120.577,0,0,1,365.1,972.48c-20.239,17.2-44.336,28.9-67.323,41.869a326.369,326.369,0,0,0-34.243,21.855,274.408,274.408,0,0,0-29.931,25.672q-6.858,6.81-13.209,14.1c-3.968,4.56-7.749,9.287-11.922,13.665-7.3,7.66-16.206,14.4-27.125,14.417-8.894.018-18.383-4.289-19.582-13.88-.75-6,.9-12.424,2.6-18.145a99.569,99.569,0,0,1,6.324-15.859c5.32-10.742,12.034-20.715,18.676-30.667,3.394-5.086,6.786-10.174,10-15.374a135.945,135.945,0,0,0,8.87-16.061c2.627-5.91,4.474-12.634,2.593-19.045-1.547-5.278-5.293-9.918-10.566-11.77-6.35-2.23-13.09.711-18.577,3.827a70.028,70.028,0,0,0-12.652,9.281c-15.773,14.446-24.786,34.508-34.943,52.919-2.549,4.622-5.184,9.2-8.034,13.644-3.463,5.4-7.311,10.526-11.165,15.647-7.4,9.836-14.957,19.867-19.14,31.574-6.641,18.59-5.182,41.352,7.07,57.365a48.78,48.78,0,0,0,26.636,17.459c11.443,2.972,23.652,2.293,35.029-.64,24.837-6.4,44.267-24.038,62.932-40.67a545.176,545.176,0,0,1,62.639-48.067c22.309-14.717,45.48-28.079,68.954-40.836,11.78-6.4,23.642-12.655,35.53-18.853q8.807-4.593,17.627-9.157c5.922-3.069,11.9-6.175,18.375-7.9,5.293-1.4,10.764-1.759,16.028-.072,4.207,1.349,8.3,3.96,10.539,7.862,4.134,7.2-1.974,20.036,8.236,23.733a2.523,2.523,0,0,0,3.075-1.746,2.551,2.551,0,0,0-1.746-3.075c-.722-.262.178.141-.46-.209.029.016-.709-.459-.378-.206a4.181,4.181,0,0,1-.383-.346s-.523-.623-.265-.273a5.444,5.444,0,0,1-1.037-2.6,34.815,34.815,0,0,1-.365-6.407,29.991,29.991,0,0,0-.645-7.226,17.874,17.874,0,0,0-3.574-6.811,25.153,25.153,0,0,0-13.532-8.045c-5.991-1.448-12.25-.775-18.11.957-6.473,1.913-12.513,5.047-18.482,8.142q-8.917,4.621-17.827,9.261c-11.888,6.2-23.748,12.454-35.527,18.86-23.4,12.729-46.5,26.062-68.743,40.744a549.583,549.583,0,0,0-62.819,48.151c-18.431,16.41-37.526,34.06-62.148,40.155-11.093,2.746-23,3.19-34-.243a43.032,43.032,0,0,1-23.576-17.8c-10.379-16.27-10.24-38.319-2.036-55.468,5.609-11.726,14.106-21.727,21.706-32.168a245.457,245.457,0,0,0,17.4-28.6c9.7-18.049,19.342-37.865,36.385-50.2,4.437-3.21,9.6-6.558,15.067-7.55,5.276-.959,9.719,1.967,11.934,6.662,2.537,5.378,1.07,11.576-1.16,16.791a124.971,124.971,0,0,1-8.839,16.131c-12.5,20.271-28.2,39.249-35.377,62.31-3.3,10.588-6.369,24.755,3.05,33.146,7.313,6.514,18.518,7.709,27.667,5.026,11.25-3.3,19.759-12.357,27.145-20.984a329.016,329.016,0,0,1,26.065-27.755,266.606,266.606,0,0,1,30.539-24.4c11.354-7.779,23.336-14.556,35.384-21.189,22.836-12.573,46.2-24.976,65.235-43.092a112.251,112.251,0,0,0,21.9-28.049,61.267,61.267,0,0,0,3.875-8.337c1-2.828,1.054-6.051-.773-8.558-2.991-4.1-8.815-4.885-13.537-4.6a101.158,101.158,0,0,0-17.87,3.047,152.022,152.022,0,0,0-16.866,5.264,277.841,277.841,0,0,0-32.929,15.278c-10.759,5.721-21.332,11.784-32.105,17.478-5.317,2.81-10.682,5.532-16.134,8.071-5.571,2.594-11.321,5.357-17.242,7.053-2.737.784-5.66,1.1-8.338-.078a12.4,12.4,0,0,1-4.922-4.152c-3.041-4.257-3.85-9.52-3.266-14.638,1.25-10.956,9.052-20.154,16.7-27.5,4.415-4.242,9.164-8.1,13.932-11.933q8.213-6.6,16.5-13.119,16.7-13.141,33.68-25.92,34.128-25.686,69.32-49.915c10.579-7.283,21.4-14.25,31.789-21.8,9.08-6.6,17.943-13.731,25.261-22.292,6.916-8.09,12.495-17.558,14.452-28.131,1.777-9.607.58-21.427-7.568-28-5.193-4.188-11.554-4.475-17.91-3.409a106.9,106.9,0,0,0-17.957,4.746,117.02,117.02,0,0,0-32.7,17.859c-19.9,15.448-32.576,37.4-45.2,58.725a319.785,319.785,0,0,1-20.332,31.07,228.5,228.5,0,0,1-25.428,28.1q-7.066,6.633-14.666,12.668a123.859,123.859,0,0,1-14.854,10.532c-4.931,2.848-10.453,5.35-16.182,5.929a18.215,18.215,0,0,1-14.454-4.391c-3.983-3.536-7.6-8-13.189-8.816-3.694-.54-7.268.576-10.67,1.915-2.769,1.09-5.493,2.3-8.149,3.64a110.166,110.166,0,0,0-27.979,20.707c-17.172,17.181-29.221,38.386-40.678,59.586-6.221,11.512-12.372,23.08-19.362,34.151-3.493,5.532-7.185,10.951-11.2,16.117a86.872,86.872,0,0,1-12.5,13.46c-8.2,6.89-20.007,12.624-30.493,7.283-8.652-4.406-12.35-14.2-13.821-23.278a81.032,81.032,0,0,1-.673-15.907A130.251,130.251,0,0,1,44.5,981.16a136.217,136.217,0,0,1,11.927-35.8A145.153,145.153,0,0,1,78.248,913.5a271.333,271.333,0,0,1,28.611-27.121,511.373,511.373,0,0,1,67-47.409c19.891-11.817,40.625-22.289,59.637-35.538a169.49,169.49,0,0,0,25.751-21.546c7.456-7.789,14.521-16.789,18.843-26.739,3.966-9.131,6.248-20.324,2.318-29.867A22.689,22.689,0,0,0,270.4,713.943a29.756,29.756,0,0,0-17.047-3.076c-11.643,1.066-22.828,6.341-32.644,12.457a129.753,129.753,0,0,0-26.122,21.819c-15.693,16.846-27.226,36.708-37.883,56.967-9.261,17.6-21.461,39.2-43.491,41.627-19.3,2.123-38.716-10.439-46.33-27.984a2.516,2.516,0,0,0-3.42-.9,2.564,2.564,0,0,0-.9,3.42"/><path class="c" d="M292.985,768.266c-2.641,20.571-9.025,41.465-23.241,57.084a64.3,64.3,0,0,1-23.061,16.488c-10.509,4.278-21.847,6.144-32.687,9.386-11.208,3.351-22.168,7.474-33.008,11.857-10.61,4.289-21.3,8.558-31.607,13.533a112.408,112.408,0,0,0-27.1,17.967c-7.831,7.128-14.661,15.257-21.348,23.444C86.852,935.264,72.6,952.391,56.2,967.508q-3.05,2.811-6.187,5.521a2.523,2.523,0,0,0,0,3.536,2.55,2.55,0,0,0,3.535,0c17.158-14.832,32.113-31.951,46.424-49.487,6.732-8.249,13.375-16.6,20.872-24.183a105.768,105.768,0,0,1,25.79-19.3c9.93-5.266,20.44-9.434,30.822-13.708,10.813-4.45,21.713-8.714,32.851-12.286,5.57-1.786,11.2-3.359,16.87-4.78,5.54-1.387,11.106-2.716,16.518-4.557a69.926,69.926,0,0,0,26.032-15.732c15.449-14.79,23.481-35.3,27.044-56.043.469-2.731.861-5.474,1.214-8.222a2.513,2.513,0,0,0-2.5-2.5,2.564,2.564,0,0,0-2.5,2.5"/><path class="c" d="M81.49,796.789c7.035,11.268,22.371,13.018,33.833,8.322,13.287-5.443,23.057-17.227,30.616-29.025,4.346-6.783,8.1-13.916,11.846-21.043,1.495-2.846-2.819-5.376-4.317-2.523-6.225,11.852-12.532,23.925-21.517,33.967-7.978,8.916-18.934,17.284-31.581,16.032-5.676-.562-11.476-3.31-14.563-8.254-1.7-2.723-6.028-.216-4.317,2.524"/><path class="c" d="M409.927,840.553a183.134,183.134,0,0,0-40.316,16.857,179.447,179.447,0,0,0-34.846,25.757q-3.915,3.71-7.589,7.663c-2.558,2.753-5.508,5.73-4.689,9.826.68,3.4,3.923,6.022,7.173,6.814,4.109,1,8.261-.341,12.112-1.7q24.858-8.8,49.69-17.676,24.715-8.825,49.411-17.708l6.085-2.19a2.564,2.564,0,0,0,1.746-3.075,2.521,2.521,0,0,0-3.075-1.746q-23.64,8.51-47.3,16.968T350.994,897.2c-3.889,1.381-7.77,2.786-11.67,4.137-3.006,1.041-6.888,2.439-9.9.688a3.877,3.877,0,0,1-2.12-2.7c-.083-1.148,1-2.317,1.756-3.161,2.26-2.526,4.62-4.967,7.038-7.342A173.086,173.086,0,0,1,368.58,863.8,176.881,176.881,0,0,1,406.3,846.854q2.469-.776,4.961-1.48c3.091-.876,1.777-5.7-1.329-4.821"/><path class="c" d="M403.02,1041.94a80.339,80.339,0,0,0-39.526,53.777,72.763,72.763,0,0,0-1.309,19.249,2.559,2.559,0,0,0,2.5,2.5,2.522,2.522,0,0,0,2.5-2.5c-1.474-21.632,7.73-43.069,23.414-57.849a73.272,73.272,0,0,1,14.945-10.86c2.819-1.552.3-5.871-2.524-4.317"/></g></g></svg>