<svg xmlns="http://www.w3.org/2000/svg" xmlns:xlink="http://www.w3.org/1999/xlink" width="382" height="446" viewBox="0 0 382 446"><defs><style>.a,.g{fill:none;}.b{clip-path:url(#a);}.c{fill:url(#b);}.d{clip-path:url(#c);}.e{fill:url(#d);}.f{fill:#fffefe;}.g{stroke:#fffefe;stroke-miterlimit:10;stroke-width:3px;}</style><clipPath id="a"><rect class="a" width="382" height="446" transform="translate(0 -0.403)"/></clipPath><linearGradient id="b" x1="-0.213" y1="1.194" x2="-0.211" y2="1.194" gradientUnits="objectBoundingBox"><stop offset="0" stop-color="#ec5a17"/><stop offset="1" stop-color="#454f99"/></linearGradient><clipPath id="c"><rect class="a" width="381" height="444.597"/></clipPath><linearGradient id="d" x1="-0.215" y1="1.195" x2="-0.212" y2="1.195" xlink:href="#b"/></defs><g transform="translate(0 0.403)"><g transform="translate(0 0)"><g class="b"><rect class="c" width="382" height="446" transform="translate(0 -0.403)"/></g></g><g transform="translate(0.5 0.5)"><g class="d"><rect class="e" width="381" height="444.597"/></g></g><g transform="translate(0.5 0.5)"><g class="d"><path class="f" d="M349.954,1.758C339.607,27.3,331.662,55.483,337.29,82.953a84.251,84.251,0,0,0,14.086,31.894,120.522,120.522,0,0,0,22.806,23.627c17.889,14.379,38.525,25.16,58.828,36.036,10.529,5.64,21.011,11.311,30.854,18.015A176.08,176.08,0,0,1,492.1,216.136c15.455,16.164,27.492,36.915,25.27,59.47a55.66,55.66,0,0,1-1.4,7.919l2.411-1.755a98.839,98.839,0,0,1-46.251-17.126,91.8,91.8,0,0,1-10.689-8.726,2.6,2.6,0,0,0-3.927.484c-12.233,20.594-2.2,44.2,8.579,63.186,5.777,10.175,12.375,19.9,18.075,30.114a256.445,256.445,0,0,1,14.982,31.778,262.311,262.311,0,0,1,16.585,68.377,255.908,255.908,0,0,1-2.259,69.731c-3.528,20.374-9.61,40.565-20.283,58.626-10.083,17.063-24.5,31.943-43.515,39.907-15.581,6.526-34.227,5.389-49.815-.86-14.849-5.952-28.175-17.325-31.909-32.572-1.938-7.912-.77-16.3,1.9-24.186,2.967-8.747,7.586-16.886,12.215-24.909,4.661-8.078,9.5-16.109,13.073-24.7,3.206-7.715,5.128-16.006,3.708-24.3a32.192,32.192,0,0,0-13.5-20.84c-6.947-4.77-15.776-6.6-24.218-6.421a64.289,64.289,0,0,0-26.5,6.56c-9.142,4.428-16.464,11.063-22.728,18.742-14.392,17.642-22.619,38.966-36.447,56.961-13.425,17.469-31.862,30.8-51.631,41.1a284.483,284.483,0,0,1-31.32,13.837c-10.075,3.791-20.317,7.345-30.741,10.157-18.336,4.946-38.366,8.049-57.276,4.9-8.847-1.471-17.284-4.339-24.586-9.385A43.681,43.681,0,0,1,64,582.079c-6.55-17.464-.025-36.429,10.5-51.222a94.715,94.715,0,0,1,20.977-21.212c9.209-6.775,19.809-11.451,30.274-16.145,11.341-5.088,22.816-10.224,32.738-17.642,9.009-6.736,16.592-15.56,20.688-25.839a36.411,36.411,0,0,0-.792-29.469c-3.887-8.056-10.948-14.374-18.83-18.861a82.8,82.8,0,0,0-27.206-9.283c-11.188-1.874-22.486-1.541-33.785-1.045-22.9,1.006-48.716,3.2-68.413-10.331-13.79-9.473-22.326-25.236-24.59-41.274C3.316,323.8,7.488,307,19.01,294.808c12.432-13.151,29.571-20.986,45.092-30.2,15.255-9.061,30.181-20.275,35.443-37.448,3.665-11.962,1.873-24.612-1.348-36.462-3.248-11.95-7.963-23.492-10.9-35.522a151.864,151.864,0,0,1-1.21-65.7,155.463,155.463,0,0,1,26.694-61.046c6.24-8.553,14.7-17.48,25.608-20.309a19.794,19.794,0,0,1,14.426,1.5,23.228,23.228,0,0,1,9.232,9.881c4.811,9.059,5.532,19.908,5.369,29.89-.182,11.22-2.058,22.327-4.471,33.286-4.872,22.126-12.132,43.982-13.533,66.677a92.113,92.113,0,0,0,3.422,32.616c3.111,10.176,7.889,19.825,11.968,29.661,3.775,9.1,7.622,18.827,7.679,28.752a25.4,25.4,0,0,1-2.753,12.225,25.8,25.8,0,0,1-9.178,9.689c-8.139,5.051-18.053,6.473-27.181,9.136-9.262,2.7-18.393,6.966-23.38,15.313-9.817,16.43,2.788,35.879,16.236,46.342a62.209,62.209,0,0,0,12.531,7.67,72.378,72.378,0,0,0,15,4.63c11.383,2.4,23.019,3.356,34.52,5.07,11.073,1.651,22.288,4,32.134,9.319a53.581,53.581,0,0,1,20.98,20.54c10.172,17.647,10.942,39.041,5.749,58.23-6.17,22.8-19.437,43.026-32.383,62.779a2.379,2.379,0,0,0,1.494,3.512,47,47,0,0,0,28.759-3.377c8.955-4.007,16.666-10.449,22.906-17.713a91.379,91.379,0,0,0,15.633-26c4.063-10.292,6.146-21.285,8.064-32.094,1.985-11.184,3.631-22.437,6.326-33.494a132.987,132.987,0,0,1,5.006-16.314,65.436,65.436,0,0,1,7.326-14.614,13.634,13.634,0,0,1,4.914-4.458,10.436,10.436,0,0,1,7.672-.183c4.662,1.41,9,4.378,12.648,7.438,7.3,6.132,12.673,13.968,17.4,22.011,5,8.508,9.314,17.365,14.442,25.8A74.574,74.574,0,0,0,387.2,433.584c7.647,5.573,16.824,9.844,26.543,10.4A30.476,30.476,0,0,0,439.1,433.048c6.666-8.166,9.031-18.924,8.294-29.116-.722-9.986-4.409-19.492-9.649-28.095-5.421-8.9-12.381-16.908-19.745-24.39-7.516-7.639-15.685-14.615-23.472-21.991a154.947,154.947,0,0,1-22.3-25.58c-5.8-8.619-10.6-18.272-11.917-28.549a40.128,40.128,0,0,1,6.608-28.18,43.808,43.808,0,0,1,22.69-16.346,42.591,42.591,0,0,1,13.882-1.936c2.093.058,3.395-2.7,1.767-4.081-14.745-12.482-32.783-22.249-52.309-25.647-17.845-3.106-36.9-.7-51.676,9.877-13.043,9.342-22.623,23.521-24.3,39.193a39.641,39.641,0,0,0,4.168,22.328c4,7.787,10.635,14.561,13.026,23.054a17.028,17.028,0,0,1,.639,5.869,13.278,13.278,0,0,1-.425,2.484q-.127.482-.288.955c-.054.162-.411,1.081-.283.788a13.26,13.26,0,0,1-1.023,1.873c-.169.262-.35.516-.534.769a2.815,2.815,0,0,1-.5.6,18.017,18.017,0,0,1-1.51,1.458,8.028,8.028,0,0,1-1.4,1.02,19.247,19.247,0,0,1-1.9,1.051,11.261,11.261,0,0,1-1.68.7,27.251,27.251,0,0,1-4.586,1.132c-.4.067-1.072.14-1.824.19q-1.272.087-2.546.07a29.827,29.827,0,0,1-4.488-.385c-6.4-1.088-12.175-3.838-16.133-8.835-5.569-7.03-7.976-15.8-9-24.438-1.11-9.366-.889-18.816-1.312-28.221-.478-10.625-1.506-21.224-2.89-31.775-2.786-21.227-6.968-42.248-11.16-63.252-4.15-20.788-8.335-41.6-11.028-62.616-2.664-20.8-3.874-41.831-2.127-62.747q.629-7.529,1.79-15.005l-3.673,1.428c12.329,5.16,20.573,15.588,25.7,27.194,5.652,12.788,7.6,26.515,9.154,40.2,1.757,15.473,3.337,31.3,9.762,45.763,5.949,13.4,17.4,27.2,33.682,28.538a22.367,22.367,0,0,0,18.2-6.9c4.292-4.555,6.937-10.962,5.249-17.084a14.348,14.348,0,0,0-1.927-4.141c-1.734-2.58-6.064-.185-4.318,2.413,3.024,4.5,1.822,9.846-1.436,14.144a17.44,17.44,0,0,1-15.019,6.839c-6.981-.361-13.365-4.12-18.247-8.693a52.375,52.375,0,0,1-12-17.851c-5.906-13.9-7.351-29.042-9.035-43.821-1.529-13.419-3.438-26.812-8.708-39.431-4.9-11.735-12.555-22.816-24.241-29.241a44.67,44.67,0,0,0-4.295-2.062c-1.294-.541-3.408-.26-3.673,1.428-3.295,21-3.414,42.264-1.545,63.391,1.885,21.305,5.628,42.416,9.722,63.42,4.1,21.045,8.577,42.032,11.981,63.2,1.684,10.467,3.092,20.974,4.045,31.526.912,10.1,1.153,20.2,1.474,30.327.293,9.246.909,18.73,4,27.566,2.645,7.567,7.111,14.941,14.347,19.238,10.811,6.418,28.568,7.172,36.973-3.377,5.12-6.425,4.228-14.84.976-21.841-3.7-7.97-10.163-14.591-13.212-22.859-5.173-14.024-.427-29.531,8.919-41.057a57.143,57.143,0,0,1,18.315-14.868,59.182,59.182,0,0,1,25.12-6.019c19.557-.589,38.572,6.692,54.439,17.216a118.123,118.123,0,0,1,11.026,8.3q.884-2.041,1.768-4.081c-20.619-.569-40.337,12.987-46.4,31.813-6.844,21.266,3.987,42.644,17.388,59.234,7.1,8.793,15.235,16.634,23.664,24.251a299.4,299.4,0,0,1,22.706,22.234c12.96,14.49,24.5,32.972,21.124,52.826-1.62,9.517-6.8,18.643-16.26,22.816-7.842,3.458-17,2.089-24.684-1.249a64.122,64.122,0,0,1-23.022-17.559c-6.235-7.361-10.518-16.186-15.051-24.55-4.622-8.53-9.354-17.051-15.547-24.653a61.988,61.988,0,0,0-9.982-9.9c-4.131-3.2-8.88-6.281-14.077-7.6a15.443,15.443,0,0,0-9.105.221,16.145,16.145,0,0,0-6.427,4.5c-3.662,4.146-6,9.321-8.144,14.293-4.519,10.468-7.14,21.57-9.23,32.683-2.1,11.2-3.69,22.481-6.131,33.618-2.224,10.154-5.167,20.07-10.267,29.272-8.79,15.862-23.746,31.7-43.281,34.372a39.424,39.424,0,0,1-13.189-.475l1.494,3.512c13.627-20.793,27.583-42.217,33.522-66.38,4.885-19.877,3.461-41.846-7.144-59.9a58.293,58.293,0,0,0-21.493-21.249c-9.99-5.653-21.4-8.355-32.759-10.124-11.624-1.812-23.4-2.742-34.931-5.069a70.061,70.061,0,0,1-14.687-4.257,57.26,57.26,0,0,1-12.35-7.474c-7.067-5.625-13.286-12.959-16.15-21.331-2.519-7.362-2.1-15.216,3.072-21.448,6.06-7.306,15.829-9.854,24.838-12.167,9.535-2.449,19.671-4.887,27-11.626,16.526-15.186,7.663-38.227.307-55.5-4.2-9.867-8.994-19.669-11.636-30.06-2.693-10.588-2.942-21.565-1.889-32.376,2.21-22.7,9.828-44.528,14.25-66.851,2.214-11.175,3.734-22.565,3.344-33.959-.35-10.209-1.875-21.174-7.828-29.917a25.85,25.85,0,0,0-11.363-9.578A25.486,25.486,0,0,0,136.7,3.6c-11.414,3.123-20.473,12.008-27.184,20.983a159.571,159.571,0,0,0-27.748,128.83c2.677,12.04,7.25,23.56,10.719,35.392,3.395,11.583,5.849,23.972,2.6,35.852-4.653,16.993-19.715,27.724-34.727,36.541-15.771,9.263-33.091,17.4-45.5,30.9C2.873,305.125-1.733,322.768.576,339.816c2.271,16.757,10.69,33.137,24.756,43.68,19.377,14.525,44.915,13.936,68.265,12.871,11.533-.526,23.285-1.364,34.765.239a81.806,81.806,0,0,1,27.273,8.436c7.642,4.094,14.345,9.8,18.178,17.391,4.382,8.682,3.936,18.961-.075,27.792-4.528,9.969-12.634,18.287-21.907,24.425-10.509,6.957-22.288,11.831-33.783,17.06-10.376,4.72-20.361,9.837-29.188,16.943a98.557,98.557,0,0,0-20.52,22.495c-10.312,15.681-16.047,35.8-8.574,53.673a49.426,49.426,0,0,0,17.618,21.516c7.4,5.112,16.212,8.2,25.146,9.759,19.528,3.4,39.954.589,58.921-4.36A323.574,323.574,0,0,0,192.339,601.7a303.273,303.273,0,0,0,32.078-13.882c20.259-10.322,39.122-23.688,53.251-41.147,14.412-17.808,22.659-39.288,36.709-57.315,6.009-7.712,13.009-14.433,21.938-18.925a58.4,58.4,0,0,1,25.42-6.333c7.927-.071,16.2,1.821,22.255,6.64a27.649,27.649,0,0,1,10.347,20.248c.344,8-2.543,15.9-6.094,23.21-4.122,8.481-9.182,16.506-13.773,24.754-8.619,15.485-16.525,33.423-10.128,51.005,5.756,15.824,20.424,27,36.418,32.757,16.95,6.1,36.206,6.254,52.764-1.036,19.154-8.433,33.847-23.848,44.072-41.2,10.825-18.376,17.109-38.9,20.7-59.614a260.326,260.326,0,0,0,2.438-71,265.984,265.984,0,0,0-31.649-101.486c-5.717-10.362-12.388-20.2-18.267-30.478-10.024-17.522-20.392-39.879-8.987-59.078l-3.927.484a102.457,102.457,0,0,0,45.55,24.712,105.745,105.745,0,0,0,14.926,2.539,2.488,2.488,0,0,0,2.41-1.755,62.514,62.514,0,0,0-.936-33.242c-3.3-10.884-9.222-20.918-16.408-29.875-15.3-19.068-35.8-33.821-57.488-45.672-20.193-11.037-41-21.276-59.756-34.528-17.73-12.53-33.611-28.417-40.957-48.675-9.523-26.258-3.474-54.75,5.843-80.222q1.758-4.806,3.691-9.553a2.4,2.4,0,0,0-1.746-2.94,2.574,2.574,0,0,0-3.075,1.669" transform="translate(-81.93 -95.765)"/><path class="f" d="M54.971,450.488c7.169-8.507,20.359-7.714,30.541-6.361,6.875.914,14,2.06,20.13,5.353,4.942,2.655,9.258,6.948,10.631,12.326,1.586,6.213-1.768,12.3-5.189,17.371A99.991,99.991,0,0,1,99.9,492.895a111.879,111.879,0,0,1-29.157,21.495,112.3,112.3,0,0,1-38.758,11.769,2.521,2.521,0,0,0-2.5,2.39,2.462,2.462,0,0,0,2.5,2.39A119.056,119.056,0,0,0,69.856,520.2a116.737,116.737,0,0,0,31.864-22.2,108.987,108.987,0,0,0,12.491-14.694c4.034-5.7,7.977-12.377,7.41-19.514-.525-6.618-4.591-12.3-10-16.254-5.873-4.295-13.212-6.224-20.394-7.386-11.871-1.919-26.5-3.7-36.662,3.975a19.379,19.379,0,0,0-3.132,2.975,2.386,2.386,0,0,0,0,3.381,2.6,2.6,0,0,0,3.536,0" transform="translate(-81.93 -115.005)"/><path class="f" d="M475.775,506.338a122.36,122.36,0,0,0-30.2,40.4,123.982,123.982,0,0,0-11.625,48.752,115.326,115.326,0,0,0,2.723,28.158c.67,3.007,5.492,1.734,4.822-1.271a112.4,112.4,0,0,1-.052-47.778,121.031,121.031,0,0,1,19.408-44.413,116.433,116.433,0,0,1,18.455-20.472c2.377-2.084-1.167-5.458-3.536-3.381" transform="translate(-81.93 -117.953)"/><path class="f" d="M102.338,582.469,161.713,533.8l7.375-6.046a24.738,24.738,0,0,1,3.083-2.432c.635-.368.9-.324,1.359.027,1.639,1.245,2.06,3.724,2.486,5.545a64,64,0,0,1,1.242,7.093c1.23,10.416.53,20.915.727,31.368.215,11.439,1.631,23.078,7.672,33.176,1.6,2.67,5.919.265,4.317-2.412-5.387-9.006-6.7-19.376-6.963-29.581-.277-10.781.513-21.608-.73-32.354A76.319,76.319,0,0,0,180.925,530a16.848,16.848,0,0,0-2.62-6.648c-1.571-2.07-3.92-3.475-6.679-2.926a8.847,8.847,0,0,0-3.705,2c-1.311,1.038-2.589,2.12-3.882,3.18l-30.822,25.266L98.8,579.088a2.338,2.338,0,0,0,0,3.381,2.636,2.636,0,0,0,3.536,0" transform="translate(-81.93 -118.595)"/><path class="f" d="M406.188,84.23a3.629,3.629,0,0,0-4.326-.675,3.8,3.8,0,0,0-2.14,4.2,7.854,7.854,0,0,0,2.268,3.676q1.679,1.836,3.373,3.656c4.245,4.577,8.545,9.108,12.977,13.521a208.282,208.282,0,0,0,28.345,24.079c19.241,13.291,42.5,21.826,66.533,19.884,12.951-1.046,25.327-5.18,35.634-12.832a2.328,2.328,0,0,0,0-3.381,2.65,2.65,0,0,0-3.535,0c-16.478,12.233-39,13.93-58.722,9.384-21.918-5.05-40.566-18.008-56.592-32.727-4.768-4.378-9.349-8.939-13.825-13.589q-3.32-3.451-6.573-6.959-1.625-1.747-3.239-3.5a17.27,17.27,0,0,1-1.5-1.658c-.021-.03-.261-.458-.262-.458a.961.961,0,0,1-.461.944,1.592,1.592,0,0,1-1.495-.185,2.6,2.6,0,0,0,3.536,0,2.374,2.374,0,0,0,0-3.381" transform="translate(-81.93 -99.413)"/><ellipse class="g" cx="26.659" cy="25.489" rx="26.659" ry="25.489" transform="translate(66.38 182.766)"/></g></g></g></svg>