<svg xmlns="http://www.w3.org/2000/svg" xmlns:xlink="http://www.w3.org/1999/xlink" width="457.836" height="294.359" viewBox="0 0 457.836 294.359"><defs><style>.a{fill:none;}.b{clip-path:url(#a);}.c{fill:#fef6f9;}</style><clipPath id="a"><rect class="a" width="457.836" height="294.359"/></clipPath></defs><g transform="translate(-33.173 -19.001)"><g class="b" transform="translate(33.173 19.001)"><path class="c" d="M1168.208,14.692h0a6.585,6.585,0,0,0-7.55-5.452L969.566,40.079a6.585,6.585,0,0,0,2.1,13l191.092-30.839a6.585,6.585,0,0,0,5.452-7.55" transform="translate(-718.02 -6.819)"/><path class="c" d="M1206.56,320.186c-.007-10-9.712-16.646-18.274-12.554l-24.264,11.6a14.029,14.029,0,0,0-7.732,12.336q-1.086,36.768-11.551,57.876-11.661,23.517-40.479,23.517a45.7,45.7,0,0,1-20.612-4.443c-5.957-2.926-11.051-8.2-15.31-15.75s-7.476-17.809-9.666-30.85q-3.284-19.507-3.276-49.707,0-40.423,12.391-61.917,12.4-21.566,39.749-21.53a46.429,46.429,0,0,1,19.882,4.19,32,32,0,0,1,9.293,6.776,12.5,12.5,0,0,0,15.845,1.953l8.154-5.2c8.728-5.566,8.422-19.128-.532-24.27a76.341,76.341,0,0,0-14.2-6.316,120.582,120.582,0,0,0-38.245-6q-51.984,0-77.22,32.584-25.265,32.566-25.258,93.236,0,33.27,8.042,55.631,8.065,22.379,21.416,35.871A73.89,73.89,0,0,0,1066,436.3a127.347,127.347,0,0,0,37.709,5.527q50.13,0,76.49-31.681,26.361-31.7,26.36-89.732v-.223" transform="translate(-748.723 -148.884)"/><path class="c" d="M1601.446,379.486a6.385,6.385,0,0,0-11.492,0l-6.589,13.6-11.584,3.273a6.386,6.386,0,0,0,0,12.29l11.584,3.273,6.589,13.6a6.385,6.385,0,0,0,11.492,0l6.589-13.6,11.584-3.273a6.386,6.386,0,0,0,0-12.29l-11.584-3.273Z" transform="translate(-1167.218 -279.957)"/><path class="c" d="M244.078,223.158l44.029-.958H327.23a78.836,78.836,0,0,1,18.84,2.57,40.052,40.052,0,0,0,2.461-26.432,168.883,168.883,0,0,0-25.116-1.747l-79.582-.274a13.421,13.421,0,1,0,.245,26.84" transform="translate(-171.579 -146.217)"/><path class="c" d="M217.567,71.685a61.749,61.749,0,0,0-10.086-8.914,54.56,54.56,0,0,0-7.47-4.291,80.123,80.123,0,0,1-4.186,42.208c1.25,6.073,2.765,14.391,3.967,24.349a321.847,321.847,0,0,1,2.145,41.5,390.774,390.774,0,0,1-2.145,43.312q-2.155,19.026-7.514,31.99t-14.319,19.707q-8.941,6.729-22.309,6.729H71.065c-18.867-.007-32.985-20.4-34.924-23.205-14.268-20.614-12.086-62.392,10.244-82.23,29.744-26.426,74.265,6.393,114.673-22.789,11.884-8.582,22.842-21.918,29.664-37.446a87.637,87.637,0,0,0,5.154-49.318q-.729-2.94-1.739-5.864C186.613,25.776,168.368,8.772,145,.112a1.565,1.565,0,0,0-1.312,2.83c18.95,10.8,32.376,27.086,36.773,45.624h0c.01.044.021.091.031.136.015.063.029.125.043.188A61.515,61.515,0,0,1,176.6,88.4l0,0A64.828,64.828,0,0,1,164,107.7c-35.592,37.329-91.84.276-135.255,37.492C7.819,163.128-.912,190.61.075,212.09,1.91,252.035,36.6,292.877,70.58,293.836l.774.015c32.506.6,55.754.75,80.482,0,10.647-.322,24.385-.991,38.171-6.222a60.993,60.993,0,0,0,27.56-20.988q11.082-14.74,16.581-39.307,5.475-24.593,5.485-61.6,0-36.369-5.485-58.987T217.567,71.685" transform="translate(0 -0.001)"/><path class="c" d="M349.159,678.155c-3.653-7.232-14.389-7.232-18.042,0l-10.344,20.479-18.187,4.93a9.519,9.519,0,0,0,0,18.513l18.187,4.93,10.344,20.479c3.653,7.232,14.389,7.232,18.042,0L359.5,727.006l18.187-4.93a9.519,9.519,0,0,0,0-18.513l-18.187-4.93Z" transform="translate(-219.933 -501.045)"/></g></g></svg>