<svg xmlns="http://www.w3.org/2000/svg" xmlns:xlink="http://www.w3.org/1999/xlink" width="45.082" height="43.627" viewBox="0 0 45.082 43.627"><defs><style>.a{fill:none;}.b{clip-path:url(#a);}.c{fill:#040504;}.d{fill:#fff;}</style><clipPath id="a"><rect class="a" width="43.627" height="45.082"/></clipPath></defs><g transform="translate(0 43.627) rotate(-90)"><g class="b"><path class="c" d="M43.627,22.541c0,12.449-9.766,22.541-21.813,22.541S0,34.99,0,22.541,9.766,0,21.813,0,43.627,10.092,43.627,22.541"/><path class="d" d="M102.311,116.166h7.56c-1.434-1.711-3.44-2.911-4.586-4.254H100.4a23.151,23.151,0,0,1,1.915,4.254" transform="translate(-82.884 -91.498)"/><path class="d" d="M65.574,122.494c-1.245-2-2.444-2.66-3.438-2.808-1.966-.293-3.622,1.351-5.4,2.808Z" transform="translate(-46.837 -97.826)"/><path class="d" d="M127.724,52.409a27.683,27.683,0,0,1,3.83-2.2L128.6,47.245a2.038,2.038,0,0,0-2.324-.411,2.2,2.2,0,0,0-.593,3.5Z" transform="translate(-103.242 -38.13)"/><path class="d" d="M38.3,111.912H35.636a2.039,2.039,0,0,0-2,2.071v.111a2.105,2.105,0,0,0,.395,1.231,12.513,12.513,0,0,0,4.273-3.413" transform="translate(-27.765 -91.498)"/><path class="d" d="M140.47,76.4l-8.509-8.514a8.754,8.754,0,0,0-2.969,3.083l4.136,4.2a.44.44,0,0,1-.3.751h-2.867c1.7,2.062,4.333,3.945,4.287,6.895-.038,2.4-1.831,4.32-3.271,5.531a7.958,7.958,0,0,0,.977-4.6,6.2,6.2,0,0,0-.294-1.274l-5.852,5.856a2.195,2.195,0,0,0,.582,3.512l.088.042a2.038,2.038,0,0,0,2.334-.422l11.665-11.839c0-1.262-.007-1.953-.011-3.216" transform="translate(-103.341 -55.5)"/></g></g></svg>