<svg xmlns="http://www.w3.org/2000/svg" xmlns:xlink="http://www.w3.org/1999/xlink" width="349.759" height="31.469" viewBox="0 0 349.759 31.469"><defs><style>.a{fill:none;}.b{clip-path:url(#a);}.c{fill:#ff9d00;}</style><clipPath id="a"><rect class="a" width="349.759" height="31.469" transform="translate(0 0)"/></clipPath></defs><g transform="translate(0 0)"><g class="b"><path class="c" d="M19.938,16.19c0,.175-.093.263-.278.263h-.713q-1.425-.066-1.61.519a16.427,16.427,0,0,0-.124,2.827v1.04a10.392,10.392,0,0,1-3.05,2.015,9.514,9.514,0,0,1-3.513.584,10.117,10.117,0,0,1-7.771-3.085A11.782,11.782,0,0,1,0,11.981,12.857,12.857,0,0,1,2.817,3.33a9.294,9.294,0,0,1,7.43-3.3,10.035,10.035,0,0,1,4.4,1.176,2.774,2.774,0,0,0,1.177.358q.588,0,.775-.783c.1-.3.226-.457.37-.457.165,0,.248.087.248.261,0,.065-.019.294-.054.686Q17,3.134,17,3.95V6.071q.03,1.145.031,1.013c-.042.523-.176.783-.4.783-.185,0-.29-.153-.31-.458a7.994,7.994,0,0,0-1.733-5A5.229,5.229,0,0,0,10.433.588,5.736,5.736,0,0,0,5.34,3.633a15.748,15.748,0,0,0-1.873,8.283,14.659,14.659,0,0,0,1.905,8,5.854,5.854,0,0,0,5.155,2.963,3.688,3.688,0,0,0,3.4-1.494,5.529,5.529,0,0,0,.464-2.7,3.489,3.489,0,0,0-.294-1.917,3.771,3.771,0,0,0-2.029-.26,1.911,1.911,0,0,1-.556-.048.2.2,0,0,1-.124-.211q0-.357.68-.357h.559q.464.031,3.281,0h3.405q.62,0,.62.292"/><path class="c" d="M29.69,10.707a1.808,1.808,0,0,1-.433,1.241,1.423,1.423,0,0,1-1.115.49,1.322,1.322,0,0,1-.929-.343,1.125,1.125,0,0,1-.371-.866,1.166,1.166,0,0,1,.278-.782A.981.981,0,0,0,27.4,9.99q0-.49-.681-.49-.867,0-1.486,1.137a11.661,11.661,0,0,0-.712,4.937V22c0,.26.087.422.263.488a7.634,7.634,0,0,0,1.594.13c.227.044.341.13.341.26,0,.153-.135.229-.4.229H20.31c-.331,0-.5-.066-.5-.2s.135-.2.4-.2h.433q1.053,0,1.238-.263a5.632,5.632,0,0,0,.062-1.213V12.221q0-1.8-.51-2.084a3.839,3.839,0,0,0-1.627-.311c-.246,0-.371-.075-.371-.228s.1-.229.31-.229h.217a8.518,8.518,0,0,1,.929.05,3.042,3.042,0,0,1,.4.047,5.828,5.828,0,0,0,2.54-.685l.4-.195.247-.1a9.982,9.982,0,0,1,.124,1.568v.652q.99-2.22,2.786-2.22a2.25,2.25,0,0,1,1.641.637,2.128,2.128,0,0,1,.65,1.583"/><path class="c" d="M43,21.577q0,.557-1.093,1.16a4.367,4.367,0,0,1-2.11.6q-2.125,0-2.217-2.318a3.83,3.83,0,0,1-3.635,2.416A3.02,3.02,0,0,1,31.76,22.6a2.84,2.84,0,0,1-.862-2.138q0-2.676,3.037-4.243a16.068,16.068,0,0,1,3.619-1.045v-.816a16.1,16.1,0,0,0-.278-3.786,2.127,2.127,0,0,0-2.23-1.665,2.689,2.689,0,0,0-1.812.621,1.968,1.968,0,0,0-.727,1.566c0,.175.129.261.387.261a.884.884,0,0,1,.7.392,1.383,1.383,0,0,1,.31.881q0,1.435-1.363,1.437a1.526,1.526,0,0,1-1.176-.506,1.838,1.838,0,0,1-.464-1.29,3.556,3.556,0,0,1,1.145-2.645,4.918,4.918,0,0,1,3.529-1.207q3.405,0,4.18,1.959a10.2,10.2,0,0,1,.279,2.97v6.1q0,1.5.03,1.762.155,1.176.9,1.175a1.789,1.789,0,0,0,1.425-.653c.205-.239.36-.358.463-.358s.155.065.155.195m-5.448-3.46V15.734a7.638,7.638,0,0,0-3.282,1.453,3.081,3.081,0,0,0-.991,2.4,2.568,2.568,0,0,0,.564,1.713,1.781,1.781,0,0,0,1.42.67,2.376,2.376,0,0,0,2.1-1.567,7.6,7.6,0,0,0,.184-2.285"/><path class="c" d="M56.221,15.8a8.423,8.423,0,0,1-1.755,5.451A5.383,5.383,0,0,1,50.1,23.439a3.661,3.661,0,0,1-3.169-1.568v7.606a3.97,3.97,0,0,0,.047.849c.03.087.131.163.3.228a10.583,10.583,0,0,0,1.818.1q.376,0,.377.293c0,.153-.135.229-.4.229H43q-.9,0-.9-.242c0-.209.124-.312.372-.312H43.4q.9,0,.96-.425.031-.2.031-3V10.936q0-.912-.836-.849h-1.3c-.186,0-.279-.079-.279-.241,0-.209.228-.313.681-.313a5.477,5.477,0,0,0,3.1-.848,1.3,1.3,0,0,1,.618-.262.314.314,0,0,1,.325.244,8.306,8.306,0,0,1,.109,1.485,3.7,3.7,0,0,1,3.281-1.729A5.47,5.47,0,0,1,54.5,10.5a8.031,8.031,0,0,1,1.718,5.3m-2.755.016a11.357,11.357,0,0,0-.746-4.351q-1-2.487-3.08-2.487a2.512,2.512,0,0,0-1.867.8,2.945,2.945,0,0,0-.839,1.947q-.061,1.442.031,6.053.031,2.323.093,2.8a2.189,2.189,0,0,0,.4.964,2.714,2.714,0,0,0,2.333,1.342,2.617,2.617,0,0,0,2.426-1.44,11.292,11.292,0,0,0,1.245-5.628"/><path class="c" d="M71.857,22.851c0,.174-.176.26-.527.26H65.7c-.269,0-.4-.086-.4-.26,0-.153.393-.228,1.176-.228.475,0,.748-.06.821-.18a3.605,3.605,0,0,0,.109-1.22V14.612a15.577,15.577,0,0,0-.248-3.679,2.2,2.2,0,0,0-2.322-1.5,2.8,2.8,0,0,0-2.415,1.4,4.175,4.175,0,0,0-.31,2.019v8.3a7.75,7.75,0,0,0,.032,1.01c.02.218.1.343.247.375a11.112,11.112,0,0,0,1.331.081q.372,0,.372.261c0,.152-.1.227-.31.227H61.021q-2.57-.031-2.849,0h-.309c-.227,0-.341-.065-.341-.2,0-.151.114-.225.341-.225h.464l.465-.034q.711.035.742-.457V7.518a45.684,45.684,0,0,0-.155-5.656q-.185-.327-1.516-.36c-.495,0-.744-.081-.744-.243,0-.138.052-.219.155-.243A10.382,10.382,0,0,1,58.327.947,6.836,6.836,0,0,0,61.361.163,3.146,3.146,0,0,1,61.794,0a7.776,7.776,0,0,1,.217,2.514v8a4.223,4.223,0,0,1,3.716-2.09,4.091,4.091,0,0,1,3.529,1.436,4.043,4.043,0,0,1,.65,2.024c.041.306.061,1.034.061,2.188V22.3q.033.327,1.61.327c.187.043.28.119.28.228"/><path class="c" d="M79.41,22.851q0,.292-.526.293c.021,0-.228-.022-.743-.065-.62-.044-1.135-.066-1.548-.066h-3.22a.553.553,0,0,1-.372.131c-.226,0-.34-.081-.34-.241q0-.346.619-.347,1.178-.031,1.285-.179a4.13,4.13,0,0,0,.108-1.355v-9.89a6.006,6.006,0,0,0-.077-.963c-.031-.1-.16-.148-.386-.148H73c-.226,0-.34-.075-.34-.228q0-.2.519-.229a7.089,7.089,0,0,0,3.512-1.017L77,8.357a4.49,4.49,0,0,1,.244,1.79V20.635a12.686,12.686,0,0,0,.047,1.53.38.38,0,0,0,.325.294,5.4,5.4,0,0,0,1.361.13c.29,0,.434.088.434.262M77.088,2.514q0,1.469-1.393,1.469a1.336,1.336,0,0,1-.99-.409,1.359,1.359,0,0,1-.4-.995q0-1.535,1.394-1.534t1.393,1.469"/><path class="c" d="M91.918,11.784q0,1.5-1.393,1.5a1.208,1.208,0,0,1-1.363-1.371,3.057,3.057,0,0,1,.31-1.077,1.224,1.224,0,0,0,.093-.457A1.26,1.26,0,0,0,88.93,9.3a2.809,2.809,0,0,0-1.6-.425,3.192,3.192,0,0,0-2.878,1.7,9.263,9.263,0,0,0-1.022,4.765,11.045,11.045,0,0,0,1.052,5.337,3.264,3.264,0,0,0,2.973,1.877,3.522,3.522,0,0,0,2.321-.849,7.639,7.639,0,0,0,1.207-1.5.428.428,0,0,1,.279-.163c.206,0,.31.088.31.262q0,.424-1.084,1.6a4.593,4.593,0,0,1-3.56,1.534,5.7,5.7,0,0,1-4.5-2.056,7.654,7.654,0,0,1-1.78-5.191,8.245,8.245,0,0,1,1.889-5.565,5.978,5.978,0,0,1,4.736-2.2,5.4,5.4,0,0,1,3.235,1.012,2.886,2.886,0,0,1,1.41,2.35"/><path class="c" d="M119.007,11.719q0,5.763-3.808,8.971a11.171,11.171,0,0,1-7.462,2.357H99.348c-.392,0-.589-.109-.589-.327q0-.292.992-.293,1.268,0,1.578-.491a3.525,3.525,0,0,0,.124-1.239V3.1a3.975,3.975,0,0,0-.232-1.861q-.232-.261-1.6-.26-.712,0-.712-.36c0-.174.175-.261.527-.261h5.386a26.511,26.511,0,0,1,7.895.818,8.544,8.544,0,0,1,4.552,3.88,12.728,12.728,0,0,1,1.733,6.661m-3.468-.131q0-5.433-2.012-7.972t-6.285-2.538q-2.074,0-2.508.459a3.573,3.573,0,0,0-.185,1.571V20.527a7.155,7.155,0,0,0,.047,1.115.519.519,0,0,0,.263.326,7.89,7.89,0,0,0,3.127.393,6.622,6.622,0,0,0,5.386-2.489q2.167-2.617,2.167-8.284"/><path class="c" d="M132.783,19.489a2.977,2.977,0,0,1-.48,1.159A7.218,7.218,0,0,1,131.328,22a4.62,4.62,0,0,1-3.561,1.436,5.957,5.957,0,0,1-4.658-2.123,7.643,7.643,0,0,1-1.874-5.254,8.36,8.36,0,0,1,1.78-5.452,5.505,5.505,0,0,1,4.443-2.187,5.26,5.26,0,0,1,3.684,1.355,4.8,4.8,0,0,1,1.58,3.476,15.11,15.11,0,0,1-2.632.131h-2.168q-.217,0-3.715.1a14.412,14.412,0,0,0-.155,2.05,9.041,9.041,0,0,0,1.192,5.058,3.823,3.823,0,0,0,3.36,1.772,3.109,3.109,0,0,0,1.981-.588,7.153,7.153,0,0,0,1.61-2.252.379.379,0,0,1,.34-.262c.165,0,.248.077.248.229M130.09,12.83q-.124-3.917-2.663-3.917-2.508,0-3.127,3.917Z"/><path class="c" d="M143.99,18.89a4.415,4.415,0,0,1-1.308,3.222,4.226,4.226,0,0,1-3.12,1.326,5.8,5.8,0,0,1-2.551-.784,1.486,1.486,0,0,0-.708-.228c-.287,0-.5.207-.645.62-.083.262-.2.392-.339.392s-.215-.088-.215-.262V18.8c0-.239.072-.358.217-.358.165,0,.258.121.278.361a5.069,5.069,0,0,0,.805,2.368,3.89,3.89,0,0,0,3.313,1.71,2.413,2.413,0,0,0,1.795-.687,2.485,2.485,0,0,0,.682-1.832,2.7,2.7,0,0,0-.774-2.029,3.376,3.376,0,0,0-.79-.6c-.238-.12-.933-.409-2.09-.867q-3.435-1.374-3.436-4.123a4.328,4.328,0,0,1,1.166-3.075,3.8,3.8,0,0,1,2.889-1.243A6.73,6.73,0,0,1,141,8.814a1.851,1.851,0,0,0,.553.1.754.754,0,0,0,.8-.653q.093-.327.277-.327c.143,0,.215.088.215.262V9.761A19.258,19.258,0,0,0,143,12.274v.065c0,.174-.084.262-.249.262q-.185,0-.463-.988A3.841,3.841,0,0,0,141.1,9.7a2.949,2.949,0,0,0-1.966-.724,2.338,2.338,0,0,0-1.734.687,2.362,2.362,0,0,0-.681,1.735q0,1.635,2.075,2.486a14.144,14.144,0,0,1,4.086,2.225,3.836,3.836,0,0,1,1.115,2.78"/><path class="c" d="M152.286,22.851q0,.292-.526.293c.021,0-.228-.022-.743-.065-.62-.044-1.135-.066-1.548-.066h-3.22a.553.553,0,0,1-.372.131c-.226,0-.34-.081-.34-.241q0-.346.619-.347,1.177-.031,1.285-.179a4.13,4.13,0,0,0,.108-1.355v-9.89a6.005,6.005,0,0,0-.077-.963c-.031-.1-.16-.148-.386-.148h-1.209c-.226,0-.34-.075-.34-.228q0-.2.519-.229a7.089,7.089,0,0,0,3.512-1.017l.307-.19a4.49,4.49,0,0,1,.244,1.79V20.635a12.687,12.687,0,0,0,.047,1.53.38.38,0,0,0,.325.294,5.4,5.4,0,0,0,1.361.13c.29,0,.434.088.434.262M149.964,2.514q0,1.469-1.393,1.469a1.336,1.336,0,0,1-.99-.409,1.359,1.359,0,0,1-.4-.995q0-1.535,1.394-1.534t1.393,1.469"/><path class="c" d="M167.795,10.348q0,1.5-1.268,1.5a1.17,1.17,0,0,1-.79-.309.919.919,0,0,1-.357-.7,1.483,1.483,0,0,1,.094-.409,1.5,1.5,0,0,0,.093-.439.38.38,0,0,0-.434-.425.949.949,0,0,0-.711.407,1.294,1.294,0,0,0-.342.833q0,.1.155,1.111a10.924,10.924,0,0,1,.155,1.534,5.133,5.133,0,0,1-1.455,3.72,4.837,4.837,0,0,1-3.622,1.5,8.031,8.031,0,0,1-2.043-.491,2.357,2.357,0,0,0-.526-.13,1.59,1.59,0,0,0-1.177.555,1.725,1.725,0,0,0-.527,1.208q0,1.7,1.951,1.7a15.392,15.392,0,0,0,2.384-.293,13.121,13.121,0,0,1,2.322-.229,4.048,4.048,0,0,1,2.956,1.044,3.882,3.882,0,0,1,1.069,2.9,5.788,5.788,0,0,1-2.277,4.669,8.768,8.768,0,0,1-5.741,1.861,6.633,6.633,0,0,1-4.042-1.095,3.552,3.552,0,0,1-1.47-3.019,3.2,3.2,0,0,1,1.362-2.808,7.045,7.045,0,0,1,2.168-.815,3,3,0,0,1-2.2-2.807q0-2.35,2.848-3.265a4.991,4.991,0,0,1-1.858-4.047,4.888,4.888,0,0,1,5.17-5.191,5.021,5.021,0,0,1,2.059.359,6.665,6.665,0,0,1,1.842,1.437,2.874,2.874,0,0,1,2.447-1.534q1.763,0,1.763,1.664m-3.373,15.735q0-2.712-3.025-2.71a16.007,16.007,0,0,0-2.546.294,16.193,16.193,0,0,1-2.516.293,3.248,3.248,0,0,0-1.573,3.1,3.424,3.424,0,0,0,1.126,2.676,4.287,4.287,0,0,0,2.978,1.012,5.91,5.91,0,0,0,3.95-1.355,4.178,4.178,0,0,0,1.606-3.312m-2.385-12.5q0-4.732-2.477-4.734-2.415,0-2.415,4.407,0,4.964,2.57,4.963,2.324,0,2.322-4.636"/><path class="c" d="M182.037,22.869q0,.243-.464.243h-5.7c-.268,0-.4-.076-.4-.227a.185.185,0,0,1,.17-.2q.17-.031,1.193-.065c.392-.021.618-.081.68-.179a3.106,3.106,0,0,0,.093-1.057V15.133a19.312,19.312,0,0,0-.248-4.233,2.048,2.048,0,0,0-2.1-1.465,3.134,3.134,0,0,0-2.6,1.432,1.951,1.951,0,0,0-.31,1.173V22.2c0,.26.221.4.661.422l.944.033c.209,0,.315.076.315.229s-.125.227-.372.227h-5.634q-.465,0-.465-.2c0-.134.186-.219.558-.258h.773c.31,0,.495-.076.558-.228l.092-.488v-7.1q0-3.711-.061-4.1t-.774-.39h-.9q-.62,0-.62-.243c0-.209.218-.312.651-.312a7.984,7.984,0,0,0,2.012-.359,3.768,3.768,0,0,0,1.517-.75.782.782,0,0,1,.433-.262q.218,0,.217.62v1.568A4.937,4.937,0,0,1,176.4,8.423a3.424,3.424,0,0,1,3.219,1.729,8.4,8.4,0,0,1,.558,3.722v7.442a3.244,3.244,0,0,0,.093,1.144,1.344,1.344,0,0,0,.9.2h.558c.206,0,.309.072.309.214"/><path class="c" d="M194.669,19.489a2.977,2.977,0,0,1-.48,1.159A7.218,7.218,0,0,1,193.214,22a4.62,4.62,0,0,1-3.561,1.436,5.957,5.957,0,0,1-4.658-2.123,7.643,7.643,0,0,1-1.874-5.254,8.36,8.36,0,0,1,1.78-5.452,5.505,5.505,0,0,1,4.443-2.187,5.26,5.26,0,0,1,3.684,1.355,4.8,4.8,0,0,1,1.58,3.476,15.11,15.11,0,0,1-2.632.131h-2.168q-.218,0-3.715.1a14.413,14.413,0,0,0-.155,2.05,9.041,9.041,0,0,0,1.192,5.058,3.823,3.823,0,0,0,3.36,1.772,3.109,3.109,0,0,0,1.981-.588,7.153,7.153,0,0,0,1.61-2.252.379.379,0,0,1,.34-.262c.165,0,.248.077.248.229m-2.693-6.659q-.124-3.917-2.663-3.917-2.508,0-3.127,3.917Z"/><path class="c" d="M205.906,10.707a1.808,1.808,0,0,1-.433,1.241,1.423,1.423,0,0,1-1.115.49,1.322,1.322,0,0,1-.929-.343,1.125,1.125,0,0,1-.371-.866,1.166,1.166,0,0,1,.278-.782.981.981,0,0,0,.279-.457q0-.49-.681-.49-.867,0-1.486,1.137a11.661,11.661,0,0,0-.712,4.937V22c0,.26.087.422.263.488a7.634,7.634,0,0,0,1.594.13c.228.044.341.13.341.26,0,.153-.135.229-.4.229h-6.005c-.331,0-.5-.066-.5-.2s.134-.2.4-.2h.433q1.053,0,1.238-.263a5.632,5.632,0,0,0,.062-1.213V12.221q0-1.8-.51-2.084a3.834,3.834,0,0,0-1.626-.311c-.247,0-.372-.075-.372-.228s.1-.229.31-.229h.217a8.5,8.5,0,0,1,.929.05,3.149,3.149,0,0,1,.4.047,5.828,5.828,0,0,0,2.539-.685l.4-.195.247-.1a9.983,9.983,0,0,1,.124,1.568v.652q.99-2.22,2.786-2.22a2.25,2.25,0,0,1,1.641.637,2.128,2.128,0,0,1,.65,1.583"/><path class="c" d="M228.184,11.777a4.6,4.6,0,0,1-9.191,0,4.6,4.6,0,0,1,9.191,0"/><path class="c" d="M258.081,6.263q0,.424-.376.424c-.25,0-.427-.282-.532-.849q-.063-.588-.125-1.174a5.833,5.833,0,0,0-.719-1.992A3.074,3.074,0,0,0,254.17,1.3a6.511,6.511,0,0,0-1.565-.163q-1.47.043-1.784.066V20.912q0,1.177.6,1.472a5.509,5.509,0,0,0,1.752.2c.251.02.375.113.375.278,0,.184-.166.277-.5.277a2.661,2.661,0,0,1-.438-.033q-1.878-.066-2.66-.065-1.034,0-1.94.049t-2.315.049c-.48,0-.719-.087-.719-.261q0-.3,1.344-.328.971,0,1.252-.424a3.368,3.368,0,0,0,.157-1.341V1.205a14.905,14.905,0,0,0-3.849.325q-1.971.751-2.315,4.015c-.062.653-.209.978-.438.978q-.376,0-.376-.685c0-.239.011-.478.031-.717l.064-.752q.093-1.5.281-3.947h1.408l6.383.1q1.127.033,3.505,0l5.193-.1q.063,1.826.408,5.416a1.287,1.287,0,0,0,.03.246,1.353,1.353,0,0,1,.032.179"/><path class="c" d="M273.414,22.906c0,.174-.178.26-.532.26h-5.695c-.271,0-.408-.086-.408-.26,0-.153.4-.228,1.19-.228.48,0,.756-.06.83-.18a3.606,3.606,0,0,0,.109-1.22V14.669a15.392,15.392,0,0,0-.251-3.678,2.225,2.225,0,0,0-2.346-1.5,2.829,2.829,0,0,0-2.441,1.4,4.135,4.135,0,0,0-.313,2.018v8.3a7.743,7.743,0,0,0,.032,1.009c.02.218.1.343.249.375a11.4,11.4,0,0,0,1.346.081q.377,0,.376.261c0,.152-.105.227-.314.227h-2.784q-2.6-.031-2.879,0h-.313c-.229,0-.344-.065-.344-.2,0-.151.115-.225.344-.225h.47l.47-.034c.478.023.729-.13.75-.456V7.577a45.373,45.373,0,0,0-.157-5.654q-.187-.327-1.533-.36c-.5,0-.751-.081-.751-.243q0-.207.156-.243a10.609,10.609,0,0,1,1.065-.069,6.982,6.982,0,0,0,3.066-.784,3.176,3.176,0,0,1,.438-.163,7.717,7.717,0,0,1,.219,2.514V10.57a4.28,4.28,0,0,1,3.756-2.089,4.15,4.15,0,0,1,3.566,1.436,4.005,4.005,0,0,1,.657,2.023c.042.306.062,1.033.062,2.187v8.224q.033.327,1.627.327c.189.043.283.119.283.228"/><path class="c" d="M286.9,21.633q0,.557-1.106,1.159a4.437,4.437,0,0,1-2.132.6q-2.15,0-2.241-2.317a3.871,3.871,0,0,1-3.673,2.416,3.066,3.066,0,0,1-2.21-.833,2.823,2.823,0,0,1-.873-2.138q0-2.675,3.07-4.241a16.373,16.373,0,0,1,3.658-1.045v-.816a15.923,15.923,0,0,0-.281-3.785,2.145,2.145,0,0,0-2.254-1.664,2.738,2.738,0,0,0-1.831.62,1.959,1.959,0,0,0-.734,1.565c0,.176.129.262.39.262a.9.9,0,0,1,.7.392,1.372,1.372,0,0,1,.313.88q0,1.437-1.378,1.437a1.549,1.549,0,0,1-1.188-.506,1.822,1.822,0,0,1-.47-1.289,3.536,3.536,0,0,1,1.158-2.644,5,5,0,0,1,3.567-1.207q3.442,0,4.225,1.958a10.1,10.1,0,0,1,.281,2.97v6.1c0,1,.01,1.588.031,1.762q.156,1.175.907,1.173a1.812,1.812,0,0,0,1.44-.652c.208-.239.365-.358.469-.358s.157.065.157.195m-5.507-3.459V15.792a7.76,7.76,0,0,0-3.317,1.452,3.066,3.066,0,0,0-1,2.4,2.549,2.549,0,0,0,.571,1.713,1.807,1.807,0,0,0,1.435.669,2.4,2.4,0,0,0,2.127-1.567,7.491,7.491,0,0,0,.186-2.284"/><path class="c" d="M299.977,16.053a7.822,7.822,0,0,1-1.846,5.3,5.833,5.833,0,0,1-4.6,2.138,6.114,6.114,0,0,1-4.757-2.138,7.663,7.663,0,0,1-1.908-5.3,7.99,7.99,0,0,1,1.861-5.418,5.9,5.9,0,0,1,4.647-2.153,6,6,0,0,1,4.709,2.169,7.932,7.932,0,0,1,1.893,5.4m-2.847-.033a12,12,0,0,0-1.064-5.58,2.738,2.738,0,0,0-2.628-1.468,3.019,3.019,0,0,0-2.739,1.876,11.331,11.331,0,0,0-.985,5.2,10.44,10.44,0,0,0,1.049,5.139,3.229,3.229,0,0,0,2.924,1.845,2.316,2.316,0,0,0,2.129-1.142,11.246,11.246,0,0,0,1.314-5.875"/><path class="c" d="M326.854.746q0,.327-.782.3h-1.251q-.5,0-.6.179a3.465,3.465,0,0,0-.094,1.092V21.081q0,1.728-.031,2.02c-.021.195-.084.294-.187.294-.125,0-.27-.12-.437-.36l-4-6.109Q316,11.584,311.022,3.584V21.858a.565.565,0,0,0,.473.541,12.266,12.266,0,0,0,2.119.147c.274,0,.411.088.411.262q0,.325-.813.326-.281,0-1.784-.1c-.334-.021-.657-.033-.969-.033q.03,0-.549.065a17.122,17.122,0,0,1-1.767.066h-.313c-.48,0-.719-.1-.719-.3s.207-.294.625-.294a5.811,5.811,0,0,0,2.144-.245c.2-.142.3-.6.3-1.389V4.8q0-2.713-1.063-3.4a3.49,3.49,0,0,0-1.784-.326q-.813,0-.813-.344c0-.206.157-.308.47-.308q.624,0,1.6.065c.647.044.991.065,1.033.065q.093,0,.876-.033a20.008,20.008,0,0,0,2-.1l10.8,16.8V2.7c0-.675-.012-1.083-.032-1.225a.429.429,0,0,0-.25-.325,5.128,5.128,0,0,0-1.5-.114q-1.127,0-1.127-.3c0-.216.251-.325.751-.325h5.038c.459,0,.688.109.688.325"/><path class="c" d="M342.125,22.906c0,.174-.178.26-.532.26H335.9c-.271,0-.408-.086-.408-.26,0-.153.4-.228,1.19-.228.48,0,.756-.06.83-.18a3.606,3.606,0,0,0,.109-1.22V14.669a15.392,15.392,0,0,0-.251-3.678,2.225,2.225,0,0,0-2.346-1.5,2.829,2.829,0,0,0-2.441,1.4,4.135,4.135,0,0,0-.313,2.018v8.3a7.749,7.749,0,0,0,.032,1.009c.02.218.1.343.249.375a11.4,11.4,0,0,0,1.346.081q.377,0,.376.261c0,.152-.105.227-.314.227h-2.784q-2.6-.031-2.879,0h-.313c-.229,0-.344-.065-.344-.2,0-.151.115-.225.344-.225h.47l.47-.034c.478.023.729-.13.75-.456V7.577a45.373,45.373,0,0,0-.157-5.654q-.187-.327-1.533-.36c-.5,0-.751-.081-.751-.243q0-.207.156-.243a10.609,10.609,0,0,1,1.065-.069,6.982,6.982,0,0,0,3.066-.784,3.176,3.176,0,0,1,.438-.163,7.717,7.717,0,0,1,.219,2.514V10.57a4.28,4.28,0,0,1,3.756-2.089A4.15,4.15,0,0,1,339.5,9.917a4.006,4.006,0,0,1,.657,2.023c.042.306.062,1.033.062,2.187v8.224q.033.327,1.627.327c.189.043.283.119.283.228"/><path class="c" d="M349.76,22.906q0,.294-.531.294c.02,0-.231-.023-.752-.065q-.939-.066-1.564-.067h-3.255a.561.561,0,0,1-.375.132c-.229,0-.344-.081-.344-.242q0-.347.625-.346c.793-.022,1.226-.081,1.3-.18a4.1,4.1,0,0,0,.109-1.354V11.19a6,6,0,0,0-.077-.962c-.032-.1-.162-.148-.391-.148h-1.221c-.229,0-.344-.075-.344-.228,0-.133.174-.209.525-.229a7.226,7.226,0,0,0,3.549-1.017l.31-.19a4.443,4.443,0,0,1,.247,1.79V20.691a12.683,12.683,0,0,0,.047,1.53.383.383,0,0,0,.328.294,5.53,5.53,0,0,0,1.377.13q.438,0,.438.261M347.413,2.575q0,1.468-1.408,1.469a1.393,1.393,0,0,1-1.408-1.4q0-1.533,1.408-1.534t1.408,1.469"/></g></g></svg>