<svg xmlns="http://www.w3.org/2000/svg" xmlns:xlink="http://www.w3.org/1999/xlink" width="103.228" height="107.143" viewBox="0 0 103.228 107.143"><defs><style>.a{fill:none;}.b{clip-path:url(#a);}.c{fill:#1a1818;}</style><clipPath id="a"><rect class="a" width="79.595" height="85.91"/></clipPath></defs><g transform="translate(27.969) rotate(19)"><g class="b" transform="translate(0 0)"><path class="c" d="M39.8,85.91,37.279,56.021c-.321-3.814-4.634-6.141-8.328-4.495L0,64.432,26.432,47.449a5.258,5.258,0,0,0,0-8.989L0,21.477,28.951,34.383c3.694,1.647,8.007-.681,8.328-4.495L39.8,0l2.518,29.888c.321,3.814,4.634,6.141,8.328,4.495L79.595,21.477,53.163,38.46a5.258,5.258,0,0,0,0,8.989L79.595,64.432,50.644,51.527c-3.694-1.647-8.007.681-8.328,4.495Z" transform="translate(0 0)"/></g></g></svg>