<svg xmlns="http://www.w3.org/2000/svg" xmlns:xlink="http://www.w3.org/1999/xlink" width="79.709" height="14.331" viewBox="0 0 79.709 14.331"><defs><style>.a{fill:none;}.b{clip-path:url(#a);}.c{fill:#1a1818;}.d{fill:#040504;}</style><clipPath id="a"><rect class="a" width="79.709" height="14.331"/></clipPath></defs><g class="b"><path class="c" d="M14.509,7.165A7.21,7.21,0,0,1,7.255,14.33,7.21,7.21,0,0,1,0,7.165,7.21,7.21,0,0,1,7.255,0a7.21,7.21,0,0,1,7.255,7.165" transform="translate(0 0)"/><path class="c" d="M54.621,7.165a7.255,7.255,0,0,1-14.509,0,7.255,7.255,0,0,1,14.509,0" transform="translate(-18.893 0)"/><path class="c" d="M96.4,7.165a7.255,7.255,0,0,1-14.509,0,7.255,7.255,0,0,1,14.509,0" transform="translate(-38.571 0)"/><path class="d" d="M137.761,7.165a7.255,7.255,0,0,1-14.509,0,7.255,7.255,0,0,1,14.509,0" transform="translate(-58.052 0)"/></g></svg>