<svg xmlns="http://www.w3.org/2000/svg" xmlns:xlink="http://www.w3.org/1999/xlink" width="449.507" height="365.436" viewBox="0 0 449.507 365.436"><defs><style>.a{fill:none;}.b{clip-path:url(#a);}.c{fill:#1a1818;}</style><clipPath id="a"><rect class="a" width="449.507" height="365.436"/></clipPath></defs><g class="b"><path class="c" d="M34.36,184.161c-1.751-25.737,19.405-95.8,38.225-137.617C42.53,51.31,15.975,57.148,3.137,62.153c-4.67,1.787-3.793-9.175.437-9.77C15.831,48.689,45.156,43.922,75.8,39.872c4.668-9.889,9.338-17.754,13.131-22.162,1.9-2.144,18.966,6.076,15.61,7.029-3.647,1.073-7,2.621-11.963,8.936-1.167,1.43-2.189,2.98-3.356,4.528,32.243-4.051,63.468-7.029,74.7-7.029,17.364,0,22.615,3.812,22.615,9.413,0,3.574-3.356,5.6-5.691,1.787-1.312-2.144-3.647-4.408-14.589-4.408-23.783,0-53.4,2.741-81.413,6.672C58.287,87.77,42.967,163.429,42.967,177.013c0,8.22,4.086,10.007,3.065,11.319s-11.382-.12-11.673-4.171" transform="translate(0 -10.681)"/><path class="c" d="M180.833,157.99c0-29.549,39.539-128.918,62.884-154.059C246.05,1.429,248.823,0,250.574,0c5.544,0,12.985,3.575,12.256,5.242-.73,1.787-4.961,0-9.192,2.621-22.47,14.06-61.426,117-61.426,136.426,18.531-27.4,39.832-50.638,49.316-50.638,7.587,0,11.526,5.958,11.234,10.723-.438,7.506-6.856,17.158-6.856,24.307q0,3.932,3.5,3.931c9.921,0,32.827-22.162,48.586-38.008,1.021-1.073,3.647.715,1.458,2.978-15.757,15.847-39.686,38.842-48,38.842-8.461,0-13.568-5.242-13.568-10.008s5.107-20.732,5.107-24.783c0-1.907-.437-3.337-1.9-3.337-8.317,0-37.788,33.839-51.21,62.791-.877,1.787-9.047-.952-9.047-3.1" transform="translate(-91.916)"/><path class="c" d="M417.363,274.4c0-10.127,9.921-29.549,15.319-44.086-15.026,11.32-37.934,38.962-47.854,38.962-2.919,0-7.879-3.693-7.879-7.863,0-8.222,15.319-38.961,28.887-38.961,10.068,0,17.8,7.506,16.633,8.936-1.751,2.025-5.107-2.74-8.316-2.74-8.024,0-29.034,21.327-29.034,34.2a1.422,1.422,0,0,0,1.6,1.43c6.858,0,35.016-28.834,39.977-33.959s7-7.029,9.047-7.029,6.419,2.144,6.419,5.362c0,4.289-16.487,41.106-16.487,50.4a2.573,2.573,0,0,0,2.772,2.5c10.068,0,50.628-41.463,58.215-47.3,2.042-1.55,2.918.834,1.9,1.787-.584.595-17.364,16.919-32.39,30.859-10.505,9.65-19.989,18.349-25.241,18.349-7.589,0-13.57-6.435-13.57-10.843" transform="translate(-191.6 -136.907)"/><path class="c" d="M560.534,251.4a43.811,43.811,0,0,1,3.356-14.3c-5.254-3.455-7.442-8.1-7.442-12.51,0-16.2,19.7-26.928,35.162-26.928,8.609,0,15.758,5,15.758,12.273,0,8.579-4.67,20.373-10.8,30.62,14.152-1.548,32.39-9.293,43.188-24.068.874-1.191,4.96.357,3.647,1.787-6.858,7.865-25.825,23.234-48.586,25.021-7.149,10.605-15.757,18.945-22.176,18.945s-12.256-6.076-12.11-10.843m16.633-12.153a59.935,59.935,0,0,0,14.443,1.55h.876c6.128-9.77,10.943-21.923,10.943-32.409,0-4.885-3.648-7.983-8.609-7.983-17.215,0-30.346,20.493-30.346,26.928a9.9,9.9,0,0,0,1.458,5.242c5.4-10.484,13.131-18.944,16.487-18.944,5.252,0,7.733,3.575,6.419,5.48a214.039,214.039,0,0,0-11.671,20.136m-1.314,2.741c-4.523,9.413-7,17.277-3.209,17.277,4.668,0,11.963-6.554,18.238-15.847h-.293a66.023,66.023,0,0,1-14.736-1.43" transform="translate(-282.837 -121.652)"/><path class="c" d="M311.737,630.34c-1.777-8.61-5.816-48.611-7.43-75.5s.324-73.91-2.585-73.91-44.576,84.241-47.323,135.5c-.484,7.947-10.5,1.191-9.691-3.18,0-25.961,47.324-138.547,53.462-139.473s13.568,2.648,14.7,8.608,5.813,154.972,15.666,154.972c3.231,0,15.344-43.711,31.173-88.744,16.8-47.684,40.055-97.221,49.746-97.09,7.268.133,11.951,3.71,11.307,4.9-.971,1.856-6.138.133-9.207,2.782-5.976,5.43-26.974,37.086-44.095,89.141s-27.618,94.97-35.048,94.97-18.9-4.373-20.674-12.981" transform="translate(-124.359 -277.885)"/><path class="c" d="M531.422,568.493c0-32.848,43.771-143.314,69.614-171.262,2.583-2.782,5.652-4.371,7.59-4.371,6.138,0,14.374,3.974,13.568,5.828-.808,1.987-5.492,0-10.177,2.913-24.873,15.63-68,130.069-68,151.66,20.514-30.464,44.095-56.293,54.594-56.293,8.4,0,12.76,6.623,12.435,11.921-.484,8.344-7.59,19.074-7.59,27.021q0,4.37,3.875,4.37c10.983,0,36.34-24.637,53.786-42.252,1.13-1.193,4.037.794,1.614,3.311-17.443,17.617-43.933,43.179-53.14,43.179-9.366,0-15.02-5.827-15.02-11.125s5.654-23.047,5.654-27.551c0-2.12-.484-3.71-2.1-3.71-9.207,0-41.832,37.618-56.69,69.8-.971,1.987-10.015-1.058-10.015-3.444" transform="translate(-270.117 -241.78)"/><path class="c" d="M757.39,636.081c0-12.584,8.56-35.365,11.951-40.8a2.576,2.576,0,0,0,.322-2.12c-.16-.794-1.13-1.06-.484-2.12,3.553-5.827,4.523-7.284,5.654-7.55a4.612,4.612,0,0,1,2.584.266c4.683,1.457,10.821,6.754,9.691,8.344-11.629,14.967-28.1,46.492-21.967,48.876,8.723,3.312,47.808-30.729,65.413-49.935,3.877-4.238,4.845.266,3.069,1.856s-47.646,50.862-67.027,50.862c-4.686,0-9.206-1.59-9.206-7.683m28.1-72.453c.646-1.854,3.877-13.112,4.845-16.027s11.629,2.65,10.177,5.432-8.076,10.86-9.368,13.111c-1.292,2.12-6.3-.661-5.654-2.517" transform="translate(-384.974 -336.507)"/><path class="c" d="M447.313,123.18c-1.039-.554-.425-1.831.821-1.7,3.407.354,7.457,1.314,9.675,3.786,3.179,3.541,2.352,9.915-3.162,16.016-.829.916-2.635.134-2.083-.9,2.4-4.506,2.425-9.166-.059-12.787a14.446,14.446,0,0,0-5.191-4.412" transform="translate(-227.097 -74.757)"/></g></svg>