<svg xmlns="http://www.w3.org/2000/svg" xmlns:xlink="http://www.w3.org/1999/xlink" width="255.57" height="38.995" viewBox="0 0 255.57 38.995"><defs><style>.a{fill:none;}.b{clip-path:url(#a);}.c{fill:#040504;}</style><clipPath id="a"><rect class="a" width="255.57" height="38.995"/></clipPath></defs><g class="b"><path class="c" d="M54.75,38.972,42.536,34.8a46.755,46.755,0,0,0-29.878,0L.444,38.972c-.344.118-.613-.261-.316-.445L10.678,32C18.93,26.9,24.314,19.3,25.616,10.929L27.281.226a.333.333,0,0,1,.631,0l1.665,10.7C30.88,19.3,36.264,26.9,44.516,32l10.549,6.526c.3.184.029.563-.316.445" transform="translate(0 0)"/><path class="c" d="M618.136,38.972,605.922,34.8a46.755,46.755,0,0,0-29.878,0L563.83,38.972c-.345.118-.613-.261-.316-.445L574.064,32C582.316,26.9,587.7,19.3,589,10.929l1.665-10.7a.333.333,0,0,1,.631,0l1.665,10.7C594.266,19.3,599.65,26.9,607.9,32l10.549,6.526c.3.184.029.563-.316.445" transform="translate(-460.916 0)"/><path class="c" d="M1156.428,38.972,1144.215,34.8a46.755,46.755,0,0,0-29.878,0l-12.214,4.177c-.345.118-.613-.261-.316-.445L1112.356,32c8.253-5.105,13.637-12.7,14.939-21.073l1.665-10.7a.333.333,0,0,1,.631,0l1.665,10.7c1.3,8.373,6.687,15.967,14.939,21.073l10.549,6.526c.3.184.029.563-.316.445" transform="translate(-901.302 0)"/></g></svg>