<svg xmlns="http://www.w3.org/2000/svg" xmlns:xlink="http://www.w3.org/1999/xlink" width="136.664" height="23.728" viewBox="0 0 136.664 23.728"><defs><style>.a{fill:none;}.b{clip-path:url(#a);}.c{fill:#ff9d00;}</style><clipPath id="a"><rect class="a" width="136.664" height="23.728" transform="translate(0 0)"/></clipPath></defs><g transform="translate(0 0)"><g class="b"><path class="c" d="M25.1,23.117q0,.281-.562.281a6.479,6.479,0,0,1-.673-.032l-4.749-.133-4.752.133a4.659,4.659,0,0,1-.56.032c-.5,0-.748-.114-.748-.344q0-.381,1.01-.381,3.289-.033,3.29-.581a1.535,1.535,0,0,0-.076-.257l-.306-.873-.191-.459q-.336-1.025-1.644-4.519H7.142Q4.9,21.257,4.9,22.048a.517.517,0,0,0,.449.559c.074.023.7.066,1.869.133.722.021,1.085.131,1.085.328q0,.33-.973.33-1.72,0-4-.131c-.373-.022-.761-.034-1.159-.034a6.1,6.1,0,0,0-1.159.11,2.89,2.89,0,0,1-.487.055Q0,23.4,0,23.1t1.178-.329a4.049,4.049,0,0,0,1.7-.316A1.9,1.9,0,0,0,3.7,21.381Q8.515,9.213,11.536,1.838a3.547,3.547,0,0,1,.347-.874l.161-.6c.075-.243.174-.363.3-.363.074,0,.137.065.187.2q.486,1.285,2.207,5.372,1.347,3.2,6.695,16.049a1.608,1.608,0,0,0,.767.949,6.1,6.1,0,0,0,1.926.237c.649.022.973.125.973.312M14.965,15.225l-2.018-4.912-1.8-4.567Q9.572,9.393,7.359,15.225Z"/><path class="c" d="M40.281,15.489a8.023,8.023,0,0,1-2.357,5.833A7.68,7.68,0,0,1,29.808,23.3a6.868,6.868,0,0,0-1.72-.428,1.875,1.875,0,0,0-.934.313,1.791,1.791,0,0,1-.786.313c-.2,0-.3-.362-.3-1.087V5.272q0-3.327-.488-3.591a5.333,5.333,0,0,0-1.457-.1c-.6,0-.9-.087-.9-.264,0-.153.137-.231.411-.231h.525A10.653,10.653,0,0,0,28.126.33,2.532,2.532,0,0,1,28.911.1h.15V10.447a5.006,5.006,0,0,1,4.264-1.879,6.849,6.849,0,0,1,5.048,1.9,6.77,6.77,0,0,1,1.908,5.026m-3.4.149a8.626,8.626,0,0,0-1.108-4.766,3.516,3.516,0,0,0-3.1-1.677,3.744,3.744,0,0,0-1.992.575A2.976,2.976,0,0,0,29.4,11.2a21.514,21.514,0,0,0-.337,5.193,29.24,29.24,0,0,0,.263,5.392q.413,1.383,2.744,1.382a3.737,3.737,0,0,0,3.269-1.48,10.407,10.407,0,0,0,1.54-6.05"/><path class="c" d="M58.234,16.215a7.186,7.186,0,0,1-2.207,5.354,7.55,7.55,0,0,1-5.5,2.159,7.95,7.95,0,0,1-5.686-2.159,7.069,7.069,0,0,1-2.281-5.354,7.33,7.33,0,0,1,2.225-5.472,7.634,7.634,0,0,1,5.555-2.175,7.775,7.775,0,0,1,5.628,2.191,7.29,7.29,0,0,1,2.263,5.456m-3.4-.034a10.536,10.536,0,0,0-1.272-5.635,3.423,3.423,0,0,0-3.141-1.483,3.67,3.67,0,0,0-3.274,1.9,9.939,9.939,0,0,0-1.178,5.257A9.2,9.2,0,0,0,47.22,21.4a3.981,3.981,0,0,0,3.5,1.863,2.914,2.914,0,0,0,2.544-1.154,9.953,9.953,0,0,0,1.571-5.932"/><path class="c" d="M78.018,22.212c0,.154-.274.243-.822.264A14.958,14.958,0,0,0,72.072,23.6a.684.684,0,0,1-.262.066c-.149,0-.225-.089-.225-.264V21.554A5.81,5.81,0,0,1,66.8,23.663a4.883,4.883,0,0,1-3.933-1.408,2.517,2.517,0,0,1-.577-1.08,21.335,21.335,0,0,1-.091-2.651V11.03a3.187,3.187,0,0,0-.151-1.343q-.148-.2-1.009-.228h-.487c-.672.045-1.009-.044-1.009-.264,0-.154.212-.23.636-.23.449,0,1.1.029,1.945.088.423.028.673.043.748.043A20.916,20.916,0,0,0,65.3,8.965v9.15a9.59,9.59,0,0,0,.372,3.346,2.41,2.41,0,0,0,2.432,1.279A3.229,3.229,0,0,0,71.025,21.3,6.379,6.379,0,0,0,71.7,17.95V12.868a9.052,9.052,0,0,0-.113-1.673V10.112c-.024-.327-.107-.518-.242-.573a2.742,2.742,0,0,0-.842-.082q-1.57.031-1.572-.3c0-.132.262-.2.787-.2H74.8V18.16a23.505,23.505,0,0,0,.111,3c.073.417.265.66.573.725a13.181,13.181,0,0,0,2.089.1c.3,0,.443.078.443.231"/><path class="c" d="M89.016,21.388c0,.2-.315.55-.936,1.054a5.926,5.926,0,0,1-3.815,1.286,4.574,4.574,0,0,1-3.1-.921q-.6-.525-.6-3.09v-9.8a.391.391,0,0,0-.411-.362H78.729c-.547,0-.823-.077-.823-.231s.137-.241.41-.263a5.875,5.875,0,0,0,4.533-2.534.672.672,0,0,1,.557-.3c.174,0,.261.078.261.231v.692a6.424,6.424,0,0,0,.149,1.779A6.5,6.5,0,0,0,84.938,9a14.223,14.223,0,0,0,2.731-.163,1.17,1.17,0,0,1,.262-.034c.2,0,.3.1.3.284q0,.475-3.028.474H83.667v6.1a36.681,36.681,0,0,0,.261,5.784q.262,1.17,1.722,1.169a4.649,4.649,0,0,0,2.766-1.219.449.449,0,0,1,.337-.165c.175,0,.263.055.263.165"/><path class="c" d="M121.554,23.153c0,.164-.212.245-.636.245h-6.733c-.324,0-.485-.071-.485-.214,0-.164.136-.247.41-.247h1.235c.374-.021.592-.1.654-.231a5.322,5.322,0,0,0,.094-1.387V13.125a4.872,4.872,0,0,0-.576-2.726,2.23,2.23,0,0,0-1.95-.809,3.4,3.4,0,0,0-1.8.511,2.809,2.809,0,0,0-1.172,1.3,22.814,22.814,0,0,0-.147,3.658v6.229a10.874,10.874,0,0,0,.036,1.253c.073.264.294.4.662.4h1.067c.32,0,.478.083.478.247,0,.143-.186.214-.56.214H105.4c-.3,0-.449-.087-.449-.262,0-.109.075-.176.225-.2s.647-.033,1.5-.033q.6-.033.635-.329l.038-.46V12.943a4.637,4.637,0,0,0-.539-2.63,2.245,2.245,0,0,0-1.913-.723,3.461,3.461,0,0,0-2.286.757,2.374,2.374,0,0,0-.91,1.9v9.337a2.268,2.268,0,0,0,.166,1.167q.165.182,1.087.181h.294a2.9,2.9,0,0,1,.4-.032c.271,0,.405.087.405.263,0,.154-.161.23-.485.23h-.375q-.9-.031-2.805,0H96.718c-.348,0-.523-.087-.523-.262,0-.155.163-.231.487-.231a6.061,6.061,0,0,0,1.645-.114.492.492,0,0,0,.262-.412V13.833a19.435,19.435,0,0,0-.111-2.892c-.077-.286-.437-.428-1.086-.428H96.158c-.324,0-.487-.076-.487-.231a.2.2,0,0,1,.169-.23q.17-.033,1.218-.1a9.579,9.579,0,0,0,2.153-.4,3.432,3.432,0,0,0,1.481-.626,1.19,1.19,0,0,1,.6-.362q.189,0,.225.264t.075,1.845A5.269,5.269,0,0,1,106.2,8.569q3.336,0,4.047,2.208a5.2,5.2,0,0,1,4.681-2.208q2.773,0,3.747,1.746a6.566,6.566,0,0,1,.525,3.065v8.14a2.856,2.856,0,0,0,.128,1.236,3.162,3.162,0,0,0,1.16.181h.663c.27-.021.4.05.4.216"/><path class="c" d="M136.665,19.74a2.736,2.736,0,0,1-.58,1.171,7.534,7.534,0,0,1-1.178,1.368,6.183,6.183,0,0,1-4.3,1.449,7.86,7.86,0,0,1-5.628-2.143,7,7,0,0,1-2.263-5.3,7.572,7.572,0,0,1,2.15-5.5,7.757,7.757,0,0,1,9.818-.841,4.548,4.548,0,0,1,1.908,3.51,21.8,21.8,0,0,1-3.179.133h-2.619q-.263,0-4.488.1a12.15,12.15,0,0,0-.187,2.07,7.973,7.973,0,0,0,1.439,5.106,4.919,4.919,0,0,0,4.059,1.789,4.3,4.3,0,0,0,2.394-.593,7.474,7.474,0,0,0,1.945-2.274.455.455,0,0,1,.411-.264c.2,0,.3.077.3.23m-3.254-6.722q-.15-3.954-3.217-3.955-3.03,0-3.778,3.955Z"/></g></g></svg>